G04*
G04 #@! TF.GenerationSoftware,Altium Limited,Altium Designer,20.2.5 (213)*
G04*
G04 Layer_Color=65535*
%FSLAX25Y25*%
%MOIN*%
G70*
G04*
G04 #@! TF.SameCoordinates,4AF3BCA7-DBB1-4E44-85BE-4205754FEF36*
G04*
G04*
G04 #@! TF.FilePolarity,Positive*
G04*
G01*
G75*
%ADD10C,0.01000*%
%ADD11C,0.00787*%
%ADD12C,0.00591*%
D10*
X38226Y-32201D02*
G03*
X39086Y-34278I2937J0D01*
G01*
X39578Y-34769D02*
G03*
X41533Y-35579I1955J1955D01*
G01*
X40782Y-33695D02*
G03*
X42126Y-34252I1344J1344D01*
G01*
X49213Y-27953D02*
G03*
X49213Y-27953I-0J-0D01*
G01*
X49213Y-27953D02*
G03*
X49213Y-27953I-0J-0D01*
G01*
X49213Y-27953D02*
G03*
X48656Y-26608I-1901J0D01*
G01*
X48195Y-26147D02*
G03*
X44488Y-24612I-3706J-3706D01*
G01*
D02*
G03*
X45180Y-26282I2362J0D01*
G01*
D02*
G03*
X49213Y-27953I4033J4033D01*
G01*
X62408Y-21776D02*
G03*
X65354Y-14663I-7113J7113D01*
G01*
D02*
G03*
X61819Y-6128I-12071J0D01*
G01*
X57765Y-26419D02*
G03*
X58960Y-3268I2865J11458D01*
G01*
X39086Y-34278D02*
X39578Y-34769D01*
X41533Y-35579D02*
X42491D01*
X38772Y-29695D02*
X40118Y-27633D01*
X39764Y-32677D02*
X40782Y-33695D01*
X39764Y-32677D02*
X42126Y-27953D01*
Y-34252D02*
X46457Y-30709D01*
X34431Y-39783D02*
X38442Y-33767D01*
X40129Y-40304D02*
Y-35579D01*
X42491D02*
X45277Y-39758D01*
X39370Y-28740D02*
X40157Y-29528D01*
X40945Y-30315D01*
X42126Y-27953D02*
X44488Y-24612D01*
X46457Y-30709D02*
X49213Y-27953D01*
X48195Y-26147D02*
X48656Y-26608D01*
X57765Y-26419D02*
X62408Y-21776D01*
X58960Y-3268D02*
X61819Y-6128D01*
X48819Y-7874D02*
X49606Y-4724D01*
X50394Y-7874D01*
X49606Y-11024D02*
X50394Y-7874D01*
X48819D02*
X49606Y-11024D01*
X49614Y-7123D02*
X52763Y-7910D01*
X49614Y-8698D02*
X52763Y-7910D01*
X46464D02*
X49614Y-8698D01*
X46464Y-7910D02*
X49614Y-7123D01*
X75758Y-6416D02*
X76546Y-3266D01*
X77333Y-6416D01*
X76546Y-9566D02*
X77333Y-6416D01*
X75758D02*
X76546Y-9566D01*
X76553Y-5665D02*
X79703Y-6452D01*
X76553Y-7240D02*
X79703Y-6452D01*
X73404D02*
X76553Y-7240D01*
X73404Y-6452D02*
X76553Y-5665D01*
X54331Y-13780D02*
X57480Y-12992D01*
X54331Y-13780D02*
X57480Y-14567D01*
X60630Y-13780D01*
X57480Y-12992D02*
X60630Y-13780D01*
X56685Y-13743D02*
X57473Y-16893D01*
X58260Y-13743D01*
X57473Y-10594D02*
X58260Y-13743D01*
X56685D02*
X57473Y-10594D01*
X205063Y-55298D02*
Y-53329D01*
X203094D02*
X205063D01*
X179781Y-68936D02*
Y-66967D01*
Y-68936D02*
X181749D01*
X179785Y-55420D02*
Y-53452D01*
X181754D01*
X205067Y-68998D02*
Y-67030D01*
X203099Y-68998D02*
X205067D01*
X134468Y-133158D02*
X138209D01*
X134468Y-136701D02*
Y-133158D01*
X176791Y-152842D02*
X180532D01*
Y-149299D01*
X134468Y-152842D02*
X138209D01*
X134468D02*
Y-149299D01*
X176791Y-133158D02*
X180532D01*
Y-136701D02*
Y-133158D01*
X52035Y-29434D02*
X51559Y-29672D01*
X51082Y-30148D01*
X50844Y-30624D01*
X50606Y-31339D01*
Y-32529D01*
X50844Y-33243D01*
X51082Y-33719D01*
X51559Y-34195D01*
X52035Y-34433D01*
X52987D01*
X53463Y-34195D01*
X53939Y-33719D01*
X54177Y-33243D01*
X54415Y-32529D01*
Y-31339D01*
X54177Y-30624D01*
X53939Y-30148D01*
X53463Y-29672D01*
X52987Y-29434D01*
X52035D01*
X55581D02*
Y-34433D01*
Y-31815D02*
X56058Y-31339D01*
X56534Y-31100D01*
X57248D01*
X57724Y-31339D01*
X58200Y-31815D01*
X58438Y-32529D01*
Y-33005D01*
X58200Y-33719D01*
X57724Y-34195D01*
X57248Y-34433D01*
X56534D01*
X56058Y-34195D01*
X55581Y-33719D01*
X62128Y-31815D02*
X61890Y-31339D01*
X61176Y-31100D01*
X60461D01*
X59747Y-31339D01*
X59509Y-31815D01*
X59747Y-32291D01*
X60223Y-32529D01*
X61414Y-32767D01*
X61890Y-33005D01*
X62128Y-33481D01*
Y-33719D01*
X61890Y-34195D01*
X61176Y-34433D01*
X60461D01*
X59747Y-34195D01*
X59509Y-33719D01*
X63175Y-32529D02*
X66032D01*
Y-32053D01*
X65794Y-31576D01*
X65556Y-31339D01*
X65079Y-31100D01*
X64365D01*
X63889Y-31339D01*
X63413Y-31815D01*
X63175Y-32529D01*
Y-33005D01*
X63413Y-33719D01*
X63889Y-34195D01*
X64365Y-34433D01*
X65079D01*
X65556Y-34195D01*
X66032Y-33719D01*
X67103Y-31100D02*
Y-34433D01*
Y-32529D02*
X67341Y-31815D01*
X67817Y-31339D01*
X68293Y-31100D01*
X69007D01*
X69459D02*
X70888Y-34433D01*
X72316Y-31100D02*
X70888Y-34433D01*
X75982Y-31100D02*
Y-34433D01*
Y-31815D02*
X75506Y-31339D01*
X75030Y-31100D01*
X74316D01*
X73839Y-31339D01*
X73363Y-31815D01*
X73125Y-32529D01*
Y-33005D01*
X73363Y-33719D01*
X73839Y-34195D01*
X74316Y-34433D01*
X75030D01*
X75506Y-34195D01*
X75982Y-33719D01*
X78029Y-29434D02*
Y-33481D01*
X78267Y-34195D01*
X78743Y-34433D01*
X79219D01*
X77315Y-31100D02*
X78981D01*
X81124D02*
X80647Y-31339D01*
X80171Y-31815D01*
X79933Y-32529D01*
Y-33005D01*
X80171Y-33719D01*
X80647Y-34195D01*
X81124Y-34433D01*
X81838D01*
X82314Y-34195D01*
X82790Y-33719D01*
X83028Y-33005D01*
Y-32529D01*
X82790Y-31815D01*
X82314Y-31339D01*
X81838Y-31100D01*
X81124D01*
X84123D02*
Y-34433D01*
Y-32529D02*
X84361Y-31815D01*
X84837Y-31339D01*
X85313Y-31100D01*
X86027D01*
X79428Y-47342D02*
Y-50913D01*
X79666Y-51627D01*
X80142Y-52103D01*
X80857Y-52341D01*
X81333D01*
X82047Y-52103D01*
X82523Y-51627D01*
X82761Y-50913D01*
Y-47342D01*
X86998D02*
X84618D01*
X84380Y-49484D01*
X84618Y-49246D01*
X85332Y-49008D01*
X86046D01*
X86760Y-49246D01*
X87236Y-49722D01*
X87474Y-50437D01*
Y-50913D01*
X87236Y-51627D01*
X86760Y-52103D01*
X86046Y-52341D01*
X85332D01*
X84618Y-52103D01*
X84380Y-51865D01*
X84142Y-51389D01*
X70673Y-55192D02*
X70435Y-55430D01*
X70673Y-55668D01*
X70911Y-55430D01*
X70673Y-55192D01*
X183299Y-47499D02*
Y-52498D01*
Y-47499D02*
X185442D01*
X186156Y-47738D01*
X186394Y-47976D01*
X186632Y-48452D01*
Y-48928D01*
X186394Y-49404D01*
X186156Y-49642D01*
X185442Y-49880D01*
X183299D01*
X184966D02*
X186632Y-52498D01*
X190845Y-47499D02*
X187751D01*
Y-52498D01*
X190845D01*
X187751Y-49880D02*
X189655D01*
X195011Y-48214D02*
X194535Y-47738D01*
X193821Y-47499D01*
X192869D01*
X192155Y-47738D01*
X191679Y-48214D01*
Y-48690D01*
X191917Y-49166D01*
X192155Y-49404D01*
X192631Y-49642D01*
X194059Y-50118D01*
X194535Y-50356D01*
X194773Y-50594D01*
X195011Y-51070D01*
Y-51784D01*
X194535Y-52260D01*
X193821Y-52498D01*
X192869D01*
X192155Y-52260D01*
X191679Y-51784D01*
X199224Y-47499D02*
X196130D01*
Y-52498D01*
X199224D01*
X196130Y-49880D02*
X198034D01*
X201724Y-47499D02*
Y-52498D01*
X200058Y-47499D02*
X203390D01*
X236420Y-96721D02*
X236182Y-96245D01*
X235706Y-95768D01*
X235230Y-95530D01*
X234278D01*
X233802Y-95768D01*
X233326Y-96245D01*
X233088Y-96721D01*
X232850Y-97435D01*
Y-98625D01*
X233088Y-99339D01*
X233326Y-99815D01*
X233802Y-100291D01*
X234278Y-100529D01*
X235230D01*
X235706Y-100291D01*
X236182Y-99815D01*
X236420Y-99339D01*
X237825Y-96482D02*
X238301Y-96245D01*
X239015Y-95530D01*
Y-100529D01*
X60559Y-48783D02*
X60083Y-49021D01*
X59607Y-49497D01*
X59369Y-49973D01*
Y-50925D01*
X59607Y-51401D01*
X60083Y-51877D01*
X60559Y-52115D01*
X61273Y-52353D01*
X62464D01*
X63178Y-52115D01*
X63654Y-51877D01*
X64130Y-51401D01*
X64368Y-50925D01*
Y-49973D01*
X64130Y-49497D01*
X63654Y-49021D01*
X63178Y-48783D01*
X60321Y-47378D02*
X60083Y-46902D01*
X59369Y-46188D01*
X64368D01*
X59369Y-41332D02*
X62702Y-43712D01*
Y-40142D01*
X59369Y-41332D02*
X64368D01*
X52059Y-48664D02*
X51583Y-48902D01*
X51107Y-49378D01*
X50869Y-49854D01*
Y-50806D01*
X51107Y-51282D01*
X51583Y-51758D01*
X52059Y-51996D01*
X52773Y-52234D01*
X53964D01*
X54678Y-51996D01*
X55154Y-51758D01*
X55630Y-51282D01*
X55868Y-50806D01*
Y-49854D01*
X55630Y-49378D01*
X55154Y-48902D01*
X54678Y-48664D01*
X51821Y-47259D02*
X51583Y-46783D01*
X50869Y-46069D01*
X55868D01*
X50869Y-43117D02*
Y-40499D01*
X52773Y-41927D01*
Y-41213D01*
X53011Y-40737D01*
X53249Y-40499D01*
X53964Y-40261D01*
X54440D01*
X55154Y-40499D01*
X55630Y-40975D01*
X55868Y-41689D01*
Y-42403D01*
X55630Y-43117D01*
X55392Y-43355D01*
X54916Y-43593D01*
X188225Y-158502D02*
X193224D01*
X188225D02*
Y-156360D01*
X188463Y-155646D01*
X188701Y-155408D01*
X189177Y-155170D01*
X189653D01*
X190129Y-155408D01*
X190367Y-155646D01*
X190605Y-156360D01*
Y-158502D01*
Y-156836D02*
X193224Y-155170D01*
X188939Y-150718D02*
X188463Y-151195D01*
X188225Y-151909D01*
Y-152861D01*
X188463Y-153575D01*
X188939Y-154051D01*
X189415D01*
X189891Y-153813D01*
X190129Y-153575D01*
X190367Y-153099D01*
X190843Y-151671D01*
X191081Y-151195D01*
X191319Y-150956D01*
X191796Y-150718D01*
X192510D01*
X192986Y-151195D01*
X193224Y-151909D01*
Y-152861D01*
X192986Y-153575D01*
X192510Y-154051D01*
X188225Y-147933D02*
X193224D01*
X188225Y-149600D02*
Y-146267D01*
X208559Y-159034D02*
X213558D01*
X208559D02*
X213558Y-157130D01*
X208559Y-155226D02*
X213558Y-157130D01*
X208559Y-155226D02*
X213558D01*
X208559Y-153797D02*
X213558D01*
X209273Y-149417D02*
X208797Y-149893D01*
X208559Y-150608D01*
Y-151560D01*
X208797Y-152274D01*
X209273Y-152750D01*
X209750D01*
X210226Y-152512D01*
X210464Y-152274D01*
X210702Y-151798D01*
X211178Y-150370D01*
X211416Y-149893D01*
X211654Y-149655D01*
X212130Y-149417D01*
X212844D01*
X213320Y-149893D01*
X213558Y-150608D01*
Y-151560D01*
X213320Y-152274D01*
X212844Y-152750D01*
X208559Y-146870D02*
X208797Y-147346D01*
X209273Y-147822D01*
X209750Y-148060D01*
X210464Y-148299D01*
X211654D01*
X212368Y-148060D01*
X212844Y-147822D01*
X213320Y-147346D01*
X213558Y-146870D01*
Y-145918D01*
X213320Y-145442D01*
X212844Y-144966D01*
X212368Y-144728D01*
X211654Y-144490D01*
X210464D01*
X209750Y-144728D01*
X209273Y-144966D01*
X208797Y-145442D01*
X208559Y-145918D01*
Y-146870D01*
X199226Y-156048D02*
X198750Y-156524D01*
X198512Y-157238D01*
Y-158191D01*
X198750Y-158905D01*
X199226Y-159381D01*
X199702D01*
X200178Y-159143D01*
X200416Y-158905D01*
X200654Y-158429D01*
X201130Y-157000D01*
X201368Y-156524D01*
X201606Y-156286D01*
X202082Y-156048D01*
X202797D01*
X203273Y-156524D01*
X203511Y-157238D01*
Y-158191D01*
X203273Y-158905D01*
X202797Y-159381D01*
X199702Y-151359D02*
X199226Y-151597D01*
X198750Y-152073D01*
X198512Y-152549D01*
Y-153501D01*
X198750Y-153977D01*
X199226Y-154453D01*
X199702Y-154691D01*
X200416Y-154929D01*
X201606D01*
X202320Y-154691D01*
X202797Y-154453D01*
X203273Y-153977D01*
X203511Y-153501D01*
Y-152549D01*
X203273Y-152073D01*
X202797Y-151597D01*
X202320Y-151359D01*
X198512Y-149954D02*
X203511D01*
X198512Y-146622D02*
X201844Y-149954D01*
X200654Y-148764D02*
X203511Y-146622D01*
X181572Y-186754D02*
X181334Y-186278D01*
X180858Y-185802D01*
X180382Y-185564D01*
X179429D01*
X178953Y-185802D01*
X178477Y-186278D01*
X178239Y-186754D01*
X178001Y-187468D01*
Y-188658D01*
X178239Y-189373D01*
X178477Y-189849D01*
X178953Y-190325D01*
X179429Y-190563D01*
X180382D01*
X180858Y-190325D01*
X181334Y-189849D01*
X181572Y-189373D01*
Y-188658D01*
X180382D02*
X181572D01*
X182714Y-185564D02*
Y-190563D01*
Y-185564D02*
X186047Y-190563D01*
Y-185564D02*
Y-190563D01*
X187428Y-185564D02*
Y-190563D01*
Y-185564D02*
X189094D01*
X189808Y-185802D01*
X190284Y-186278D01*
X190522Y-186754D01*
X190760Y-187468D01*
Y-188658D01*
X190522Y-189373D01*
X190284Y-189849D01*
X189808Y-190325D01*
X189094Y-190563D01*
X187428D01*
X193315Y-185564D02*
Y-190563D01*
Y-185564D02*
X195219Y-190563D01*
X197124Y-185564D02*
X195219Y-190563D01*
X197124Y-185564D02*
Y-190563D01*
X199980Y-185564D02*
X199504Y-185802D01*
X199028Y-186278D01*
X198790Y-186754D01*
X198552Y-187468D01*
Y-188658D01*
X198790Y-189373D01*
X199028Y-189849D01*
X199504Y-190325D01*
X199980Y-190563D01*
X200932D01*
X201408Y-190325D01*
X201885Y-189849D01*
X202123Y-189373D01*
X202361Y-188658D01*
Y-187468D01*
X202123Y-186754D01*
X201885Y-186278D01*
X201408Y-185802D01*
X200932Y-185564D01*
X199980D01*
X206860Y-186278D02*
X206384Y-185802D01*
X205669Y-185564D01*
X204717D01*
X204003Y-185802D01*
X203527Y-186278D01*
Y-186754D01*
X203765Y-187230D01*
X204003Y-187468D01*
X204479Y-187706D01*
X205908Y-188182D01*
X206384Y-188420D01*
X206622Y-188658D01*
X206860Y-189135D01*
Y-189849D01*
X206384Y-190325D01*
X205669Y-190563D01*
X204717D01*
X204003Y-190325D01*
X203527Y-189849D01*
X207979Y-185564D02*
Y-190563D01*
X212154Y-185841D02*
X214772D01*
X213344Y-187745D01*
X214058D01*
X214534Y-187983D01*
X214772Y-188221D01*
X215010Y-188936D01*
Y-189412D01*
X214772Y-190126D01*
X214296Y-190602D01*
X213582Y-190840D01*
X212868D01*
X212154Y-190602D01*
X211916Y-190364D01*
X211678Y-189888D01*
X216129Y-185841D02*
X218033Y-190840D01*
X219938Y-185841D02*
X218033Y-190840D01*
X221057Y-185841D02*
X223675D01*
X222247Y-187745D01*
X222961D01*
X223437Y-187983D01*
X223675Y-188221D01*
X223913Y-188936D01*
Y-189412D01*
X223675Y-190126D01*
X223199Y-190602D01*
X222485Y-190840D01*
X221771D01*
X221057Y-190602D01*
X220819Y-190364D01*
X220581Y-189888D01*
X261717Y-150392D02*
X264335D01*
X262907Y-152297D01*
X263621D01*
X264097Y-152535D01*
X264335Y-152773D01*
X264574Y-153487D01*
Y-153963D01*
X264335Y-154677D01*
X263859Y-155153D01*
X263145Y-155391D01*
X262431D01*
X261717Y-155153D01*
X261479Y-154915D01*
X261241Y-154439D01*
X265692Y-150392D02*
X267597Y-155391D01*
X269501Y-150392D02*
X267597Y-155391D01*
X270620Y-150392D02*
X273238D01*
X271810Y-152297D01*
X272524D01*
X273000Y-152535D01*
X273238Y-152773D01*
X273476Y-153487D01*
Y-153963D01*
X273238Y-154677D01*
X272762Y-155153D01*
X272048Y-155391D01*
X271334D01*
X270620Y-155153D01*
X270382Y-154915D01*
X270144Y-154439D01*
X264463Y-140878D02*
X264225Y-140402D01*
X263749Y-139926D01*
X263273Y-139688D01*
X262321D01*
X261845Y-139926D01*
X261369Y-140402D01*
X261131Y-140878D01*
X260893Y-141593D01*
Y-142783D01*
X261131Y-143497D01*
X261369Y-143973D01*
X261845Y-144449D01*
X262321Y-144687D01*
X263273D01*
X263749Y-144449D01*
X264225Y-143973D01*
X264463Y-143497D01*
Y-142783D01*
X263273D02*
X264463D01*
X265606Y-139688D02*
Y-144687D01*
Y-139688D02*
X268939Y-144687D01*
Y-139688D02*
Y-144687D01*
X270319Y-139688D02*
Y-144687D01*
Y-139688D02*
X271986D01*
X272700Y-139926D01*
X273176Y-140402D01*
X273414Y-140878D01*
X273652Y-141593D01*
Y-142783D01*
X273414Y-143497D01*
X273176Y-143973D01*
X272700Y-144449D01*
X271986Y-144687D01*
X270319D01*
X264677Y-127600D02*
X264439Y-127124D01*
X263963Y-126648D01*
X263486Y-126409D01*
X262534D01*
X262058Y-126648D01*
X261582Y-127124D01*
X261344Y-127600D01*
X261106Y-128314D01*
Y-129504D01*
X261344Y-130218D01*
X261582Y-130694D01*
X262058Y-131170D01*
X262534Y-131409D01*
X263486D01*
X263963Y-131170D01*
X264439Y-130694D01*
X264677Y-130218D01*
Y-129504D01*
X263486D02*
X264677D01*
X265819Y-126409D02*
Y-131409D01*
Y-126409D02*
X269152Y-131409D01*
Y-126409D02*
Y-131409D01*
X270533Y-126409D02*
Y-131409D01*
Y-126409D02*
X272199D01*
X272913Y-126648D01*
X273389Y-127124D01*
X273627Y-127600D01*
X273865Y-128314D01*
Y-129504D01*
X273627Y-130218D01*
X273389Y-130694D01*
X272913Y-131170D01*
X272199Y-131409D01*
X270533D01*
X260932Y-117093D02*
X261408Y-116855D01*
X262122Y-116140D01*
Y-121139D01*
X264598Y-116140D02*
X265788Y-121139D01*
X266978Y-116140D02*
X265788Y-121139D01*
X266978Y-116140D02*
X268168Y-121139D01*
X269359Y-116140D02*
X268168Y-121139D01*
X151519Y-3657D02*
X151281Y-3181D01*
X150805Y-2705D01*
X150329Y-2467D01*
X149377D01*
X148901Y-2705D01*
X148425Y-3181D01*
X148187Y-3657D01*
X147949Y-4371D01*
Y-5562D01*
X148187Y-6276D01*
X148425Y-6752D01*
X148901Y-7228D01*
X149377Y-7466D01*
X150329D01*
X150805Y-7228D01*
X151281Y-6752D01*
X151519Y-6276D01*
Y-5562D01*
X150329D02*
X151519D01*
X152662Y-2467D02*
Y-7466D01*
Y-2467D02*
X155995Y-7466D01*
Y-2467D02*
Y-7466D01*
X157375Y-2467D02*
Y-7466D01*
Y-2467D02*
X159042D01*
X159756Y-2705D01*
X160232Y-3181D01*
X160470Y-3657D01*
X160708Y-4371D01*
Y-5562D01*
X160470Y-6276D01*
X160232Y-6752D01*
X159756Y-7228D01*
X159042Y-7466D01*
X157375D01*
X136845Y-2881D02*
X136369Y-2404D01*
X135655Y-2166D01*
X134703D01*
X133989Y-2404D01*
X133512Y-2881D01*
Y-3357D01*
X133750Y-3833D01*
X133989Y-4071D01*
X134465Y-4309D01*
X135893Y-4785D01*
X136369Y-5023D01*
X136607Y-5261D01*
X136845Y-5737D01*
Y-6451D01*
X136369Y-6927D01*
X135655Y-7165D01*
X134703D01*
X133989Y-6927D01*
X133512Y-6451D01*
X141535Y-3357D02*
X141297Y-2881D01*
X140821Y-2404D01*
X140344Y-2166D01*
X139392D01*
X138916Y-2404D01*
X138440Y-2881D01*
X138202Y-3357D01*
X137964Y-4071D01*
Y-5261D01*
X138202Y-5975D01*
X138440Y-6451D01*
X138916Y-6927D01*
X139392Y-7165D01*
X140344D01*
X140821Y-6927D01*
X141297Y-6451D01*
X141535Y-5975D01*
X142939Y-2166D02*
Y-7165D01*
X145796D01*
X121412Y-2948D02*
X120935Y-2472D01*
X120221Y-2234D01*
X119269D01*
X118555Y-2472D01*
X118079Y-2948D01*
Y-3424D01*
X118317Y-3900D01*
X118555Y-4138D01*
X119031Y-4377D01*
X120459Y-4853D01*
X120935Y-5091D01*
X121174Y-5329D01*
X121412Y-5805D01*
Y-6519D01*
X120935Y-6995D01*
X120221Y-7233D01*
X119269D01*
X118555Y-6995D01*
X118079Y-6519D01*
X122530Y-2234D02*
Y-7233D01*
Y-2234D02*
X124197D01*
X124911Y-2472D01*
X125387Y-2948D01*
X125625Y-3424D01*
X125863Y-4138D01*
Y-5329D01*
X125625Y-6043D01*
X125387Y-6519D01*
X124911Y-6995D01*
X124197Y-7233D01*
X122530D01*
X130790D02*
X128886Y-2234D01*
X126982Y-7233D01*
X127696Y-5567D02*
X130076D01*
X104408Y-2302D02*
X107026D01*
X105598Y-4206D01*
X106312D01*
X106788Y-4444D01*
X107026Y-4682D01*
X107264Y-5396D01*
Y-5872D01*
X107026Y-6587D01*
X106550Y-7063D01*
X105836Y-7301D01*
X105122D01*
X104408Y-7063D01*
X104169Y-6825D01*
X103931Y-6348D01*
X108383Y-2302D02*
X110287Y-7301D01*
X112192Y-2302D02*
X110287Y-7301D01*
X113310Y-2302D02*
X115929D01*
X114501Y-4206D01*
X115215D01*
X115691Y-4444D01*
X115929Y-4682D01*
X116167Y-5396D01*
Y-5872D01*
X115929Y-6587D01*
X115453Y-7063D01*
X114739Y-7301D01*
X114024D01*
X113310Y-7063D01*
X113072Y-6825D01*
X112834Y-6348D01*
X8442Y-68487D02*
X8204Y-68011D01*
X7728Y-67535D01*
X7252Y-67297D01*
X6300D01*
X5824Y-67535D01*
X5347Y-68011D01*
X5109Y-68487D01*
X4871Y-69201D01*
Y-70391D01*
X5109Y-71105D01*
X5347Y-71581D01*
X5824Y-72057D01*
X6300Y-72295D01*
X7252D01*
X7728Y-72057D01*
X8204Y-71581D01*
X8442Y-71105D01*
Y-70391D01*
X7252D02*
X8442D01*
X9585Y-67297D02*
Y-72295D01*
Y-67297D02*
X12917Y-72295D01*
Y-67297D02*
Y-72295D01*
X14298Y-67297D02*
Y-72295D01*
Y-67297D02*
X15964D01*
X16678Y-67535D01*
X17154Y-68011D01*
X17392Y-68487D01*
X17630Y-69201D01*
Y-70391D01*
X17392Y-71105D01*
X17154Y-71581D01*
X16678Y-72057D01*
X15964Y-72295D01*
X14298D01*
X4674Y-57099D02*
X5150Y-56861D01*
X5864Y-56147D01*
Y-61146D01*
X8578Y-57337D02*
Y-57099D01*
X8816Y-56623D01*
X9054Y-56385D01*
X9530Y-56147D01*
X10482D01*
X10958Y-56385D01*
X11196Y-56623D01*
X11434Y-57099D01*
Y-57575D01*
X11196Y-58052D01*
X10720Y-58766D01*
X8340Y-61146D01*
X11672D01*
X12791Y-56147D02*
X14696Y-61146D01*
X16600Y-56147D02*
X14696Y-61146D01*
X9929Y-155191D02*
Y-160190D01*
Y-155191D02*
X13261Y-160190D01*
Y-155191D02*
Y-160190D01*
X18213Y-156381D02*
X17975Y-155905D01*
X17498Y-155429D01*
X17022Y-155191D01*
X16070D01*
X15594Y-155429D01*
X15118Y-155905D01*
X14880Y-156381D01*
X14642Y-157095D01*
Y-158285D01*
X14880Y-159000D01*
X15118Y-159476D01*
X15594Y-159952D01*
X16070Y-160190D01*
X17022D01*
X17498Y-159952D01*
X17975Y-159476D01*
X18213Y-159000D01*
X8948Y-144916D02*
X8710Y-144440D01*
X8234Y-143964D01*
X7757Y-143726D01*
X6805D01*
X6329Y-143964D01*
X5853Y-144440D01*
X5615Y-144916D01*
X5377Y-145630D01*
Y-146821D01*
X5615Y-147535D01*
X5853Y-148011D01*
X6329Y-148487D01*
X6805Y-148725D01*
X7757D01*
X8234Y-148487D01*
X8710Y-148011D01*
X8948Y-147535D01*
Y-146821D01*
X7757D02*
X8948D01*
X10090Y-143726D02*
Y-148725D01*
Y-143726D02*
X13423Y-148725D01*
Y-143726D02*
Y-148725D01*
X14804Y-143726D02*
Y-148725D01*
Y-143726D02*
X16470D01*
X17184Y-143964D01*
X17660Y-144440D01*
X17898Y-144916D01*
X18136Y-145630D01*
Y-146821D01*
X17898Y-147535D01*
X17660Y-148011D01*
X17184Y-148487D01*
X16470Y-148725D01*
X14804D01*
X15484Y-136749D02*
X13579Y-131750D01*
X11675Y-136749D01*
X12389Y-135082D02*
X14770D01*
X12024Y-121560D02*
Y-126559D01*
Y-121560D02*
X14166D01*
X14880Y-121798D01*
X15118Y-122036D01*
X15356Y-122512D01*
Y-122988D01*
X15118Y-123465D01*
X14880Y-123703D01*
X14166Y-123941D01*
X12024D02*
X14166D01*
X14880Y-124179D01*
X15118Y-124417D01*
X15356Y-124893D01*
Y-125607D01*
X15118Y-126083D01*
X14880Y-126321D01*
X14166Y-126559D01*
X12024D01*
X158167Y-96383D02*
X157929Y-96621D01*
X158167Y-96859D01*
X158405Y-96621D01*
X158167Y-96383D01*
X98654Y-19213D02*
Y-24212D01*
X99940Y-20403D02*
Y-20166D01*
X100178Y-19689D01*
X100416Y-19451D01*
X100892Y-19213D01*
X101844D01*
X102320Y-19451D01*
X102558Y-19689D01*
X102796Y-20166D01*
Y-20642D01*
X102558Y-21118D01*
X102082Y-21832D01*
X99701Y-24212D01*
X103034D01*
X107724Y-20403D02*
X107486Y-19927D01*
X107009Y-19451D01*
X106533Y-19213D01*
X105581D01*
X105105Y-19451D01*
X104629Y-19927D01*
X104391Y-20403D01*
X104153Y-21118D01*
Y-22308D01*
X104391Y-23022D01*
X104629Y-23498D01*
X105105Y-23974D01*
X105581Y-24212D01*
X106533D01*
X107009Y-23974D01*
X107486Y-23498D01*
X107724Y-23022D01*
X134071Y-173785D02*
X136213D01*
X136927Y-173547D01*
X137165Y-173309D01*
X137404Y-172833D01*
Y-172119D01*
X137165Y-171642D01*
X136927Y-171405D01*
X136213Y-171166D01*
X134071D01*
Y-176165D01*
X138522Y-171166D02*
Y-176165D01*
Y-171166D02*
X140665D01*
X141379Y-171405D01*
X141617Y-171642D01*
X141855Y-172119D01*
Y-172595D01*
X141617Y-173071D01*
X141379Y-173309D01*
X140665Y-173547D01*
X138522D01*
X140189D02*
X141855Y-176165D01*
X144402Y-171166D02*
X143926Y-171405D01*
X143450Y-171880D01*
X143212Y-172357D01*
X142974Y-173071D01*
Y-174261D01*
X143212Y-174975D01*
X143450Y-175451D01*
X143926Y-175927D01*
X144402Y-176165D01*
X145354D01*
X145830Y-175927D01*
X146306Y-175451D01*
X146544Y-174975D01*
X146782Y-174261D01*
Y-173071D01*
X146544Y-172357D01*
X146306Y-171880D01*
X145830Y-171405D01*
X145354Y-171166D01*
X144402D01*
X151520Y-172357D02*
X151281Y-171880D01*
X150805Y-171405D01*
X150329Y-171166D01*
X149377D01*
X148901Y-171405D01*
X148425Y-171880D01*
X148187Y-172357D01*
X147949Y-173071D01*
Y-174261D01*
X148187Y-174975D01*
X148425Y-175451D01*
X148901Y-175927D01*
X149377Y-176165D01*
X150329D01*
X150805Y-175927D01*
X151281Y-175451D01*
X151520Y-174975D01*
Y-174261D01*
X150329D02*
X151520D01*
X152662Y-171166D02*
Y-176165D01*
Y-171166D02*
X154805D01*
X155519Y-171405D01*
X155757Y-171642D01*
X155995Y-172119D01*
Y-172595D01*
X155757Y-173071D01*
X155519Y-173309D01*
X154805Y-173547D01*
X152662D01*
X154328D02*
X155995Y-176165D01*
X160922D02*
X159018Y-171166D01*
X157114Y-176165D01*
X157828Y-174499D02*
X160208D01*
X162089Y-171166D02*
Y-176165D01*
Y-171166D02*
X163993Y-176165D01*
X165897Y-171166D02*
X163993Y-176165D01*
X165897Y-171166D02*
Y-176165D01*
X167326Y-171166D02*
Y-176165D01*
Y-171166D02*
X169230Y-176165D01*
X171134Y-171166D02*
X169230Y-176165D01*
X171134Y-171166D02*
Y-176165D01*
X172563Y-171166D02*
Y-176165D01*
X173610Y-171166D02*
Y-176165D01*
Y-171166D02*
X176943Y-176165D01*
Y-171166D02*
Y-176165D01*
X181894Y-172357D02*
X181656Y-171880D01*
X181180Y-171405D01*
X180704Y-171166D01*
X179752D01*
X179276Y-171405D01*
X178799Y-171880D01*
X178561Y-172357D01*
X178323Y-173071D01*
Y-174261D01*
X178561Y-174975D01*
X178799Y-175451D01*
X179276Y-175927D01*
X179752Y-176165D01*
X180704D01*
X181180Y-175927D01*
X181656Y-175451D01*
X181894Y-174975D01*
Y-174261D01*
X180704D02*
X181894D01*
X28253Y-78242D02*
X30158Y-83241D01*
X32062Y-78242D02*
X30158Y-83241D01*
X32705Y-78242D02*
Y-83241D01*
X33752Y-78242D02*
Y-83241D01*
Y-78242D02*
X37085Y-83241D01*
Y-78242D02*
Y-83241D01*
X4937Y-111324D02*
Y-116323D01*
Y-111324D02*
X7079D01*
X7794Y-111562D01*
X8032Y-111800D01*
X8270Y-112276D01*
Y-112752D01*
X8032Y-113228D01*
X7794Y-113466D01*
X7079Y-113704D01*
X4937D01*
X6603D02*
X8270Y-116323D01*
X12721Y-112038D02*
X12245Y-111562D01*
X11531Y-111324D01*
X10579D01*
X9865Y-111562D01*
X9388Y-112038D01*
Y-112514D01*
X9627Y-112990D01*
X9865Y-113228D01*
X10341Y-113466D01*
X11769Y-113942D01*
X12245Y-114180D01*
X12483Y-114418D01*
X12721Y-114895D01*
Y-115609D01*
X12245Y-116085D01*
X11531Y-116323D01*
X10579D01*
X9865Y-116085D01*
X9388Y-115609D01*
X16220Y-111324D02*
X13840Y-114656D01*
X17411D01*
X16220Y-111324D02*
Y-116323D01*
X19481Y-111324D02*
X18767Y-111562D01*
X18529Y-112038D01*
Y-112514D01*
X18767Y-112990D01*
X19243Y-113228D01*
X20196Y-113466D01*
X20910Y-113704D01*
X21386Y-114180D01*
X21624Y-114656D01*
Y-115371D01*
X21386Y-115847D01*
X21148Y-116085D01*
X20434Y-116323D01*
X19481D01*
X18767Y-116085D01*
X18529Y-115847D01*
X18291Y-115371D01*
Y-114656D01*
X18529Y-114180D01*
X19005Y-113704D01*
X19720Y-113466D01*
X20672Y-113228D01*
X21148Y-112990D01*
X21386Y-112514D01*
Y-112038D01*
X21148Y-111562D01*
X20434Y-111324D01*
X19481D01*
X25599D02*
X23219D01*
X22981Y-113466D01*
X23219Y-113228D01*
X23933Y-112990D01*
X24647D01*
X25361Y-113228D01*
X25837Y-113704D01*
X26075Y-114418D01*
Y-114895D01*
X25837Y-115609D01*
X25361Y-116085D01*
X24647Y-116323D01*
X23933D01*
X23219Y-116085D01*
X22981Y-115847D01*
X22743Y-115371D01*
X116171Y-73640D02*
X115933Y-73878D01*
X116171Y-74116D01*
X116409Y-73878D01*
X116171Y-73640D01*
X111340Y-135979D02*
X111578Y-135741D01*
X111340Y-135503D01*
X111101Y-135741D01*
X111340Y-135979D01*
X203644Y-20162D02*
X203405Y-20400D01*
X203644Y-20638D01*
X203882Y-20400D01*
X203644Y-20162D01*
X236677Y-104256D02*
Y-108065D01*
X236439Y-108779D01*
X236201Y-109017D01*
X235725Y-109255D01*
X235249D01*
X234773Y-109017D01*
X234535Y-108779D01*
X234297Y-108065D01*
Y-107589D01*
X240343Y-104256D02*
X237963Y-107589D01*
X241533D01*
X240343Y-104256D02*
Y-109255D01*
X242414Y-104256D02*
Y-109255D01*
Y-104256D02*
X244556D01*
X245271Y-104494D01*
X245509Y-104732D01*
X245747Y-105208D01*
Y-105684D01*
X245509Y-106160D01*
X245271Y-106399D01*
X244556Y-106637D01*
X242414D02*
X244556D01*
X245271Y-106875D01*
X245509Y-107113D01*
X245747Y-107589D01*
Y-108303D01*
X245509Y-108779D01*
X245271Y-109017D01*
X244556Y-109255D01*
X242414D01*
X233570Y-158954D02*
Y-162763D01*
X233332Y-163477D01*
X233094Y-163715D01*
X232618Y-163953D01*
X232142D01*
X231665Y-163715D01*
X231428Y-163477D01*
X231189Y-162763D01*
Y-162287D01*
X237236Y-158954D02*
X234855Y-162287D01*
X238426D01*
X237236Y-158954D02*
Y-163953D01*
X243115D02*
X241211Y-158954D01*
X239307Y-163953D01*
X240021Y-162287D02*
X242401D01*
X157580Y-49846D02*
X162579D01*
X157580Y-51512D02*
Y-48180D01*
Y-47585D02*
X162579Y-44252D01*
X157580D02*
X162579Y-47585D01*
X166498Y-51774D02*
X171497D01*
X166498D02*
Y-49632D01*
X166736Y-48918D01*
X166974Y-48680D01*
X167450Y-48441D01*
X167926D01*
X168402Y-48680D01*
X168640Y-48918D01*
X168878Y-49632D01*
Y-51774D01*
Y-50108D02*
X171497Y-48441D01*
X166498Y-47323D02*
X171497Y-43990D01*
X166498D02*
X171497Y-47323D01*
X107484Y-160112D02*
X110102D01*
X108674Y-162016D01*
X109388D01*
X109864Y-162254D01*
X110102Y-162492D01*
X110340Y-163206D01*
Y-163682D01*
X110102Y-164396D01*
X109626Y-164873D01*
X108912Y-165111D01*
X108198D01*
X107484Y-164873D01*
X107246Y-164634D01*
X107008Y-164158D01*
X111459Y-160112D02*
X113364Y-165111D01*
X115268Y-160112D02*
X113364Y-165111D01*
X116387Y-160112D02*
X119005D01*
X117577Y-162016D01*
X118291D01*
X118767Y-162254D01*
X119005Y-162492D01*
X119243Y-163206D01*
Y-163682D01*
X119005Y-164396D01*
X118529Y-164873D01*
X117815Y-165111D01*
X117101D01*
X116387Y-164873D01*
X116149Y-164634D01*
X115911Y-164158D01*
X126451Y-139647D02*
X128355Y-142028D01*
Y-144646D01*
X130260Y-139647D02*
X128355Y-142028D01*
X130903Y-140599D02*
X131379Y-140361D01*
X132093Y-139647D01*
Y-144646D01*
X107915Y-150559D02*
Y-155558D01*
Y-150559D02*
X110058D01*
X110772Y-150797D01*
X111010Y-151035D01*
X111248Y-151512D01*
Y-151988D01*
X111010Y-152464D01*
X110772Y-152702D01*
X110058Y-152940D01*
X107915D01*
X109582D02*
X111248Y-155558D01*
X112367Y-151512D02*
X112843Y-151274D01*
X113557Y-150559D01*
Y-155558D01*
X118889Y-150559D02*
X116509D01*
X116271Y-152702D01*
X116509Y-152464D01*
X117223Y-152226D01*
X117937D01*
X118651Y-152464D01*
X119127Y-152940D01*
X119365Y-153654D01*
Y-154130D01*
X119127Y-154844D01*
X118651Y-155320D01*
X117937Y-155558D01*
X117223D01*
X116509Y-155320D01*
X116271Y-155082D01*
X116033Y-154606D01*
X216176Y-124620D02*
X221175D01*
X216176D02*
Y-122478D01*
X216414Y-121764D01*
X216652Y-121526D01*
X217128Y-121288D01*
X217604D01*
X218080Y-121526D01*
X218318Y-121764D01*
X218556Y-122478D01*
Y-124620D01*
Y-122954D02*
X221175Y-121288D01*
X217128Y-120169D02*
X216890Y-119693D01*
X216176Y-118979D01*
X221175D01*
X217366Y-116265D02*
X217128D01*
X216652Y-116027D01*
X216414Y-115789D01*
X216176Y-115313D01*
Y-114361D01*
X216414Y-113884D01*
X216652Y-113646D01*
X217128Y-113408D01*
X217604D01*
X218080Y-113646D01*
X218794Y-114122D01*
X221175Y-116503D01*
Y-113170D01*
X139437Y-37340D02*
Y-41149D01*
X139199Y-41863D01*
X138961Y-42101D01*
X138485Y-42339D01*
X138008D01*
X137532Y-42101D01*
X137294Y-41863D01*
X137056Y-41149D01*
Y-40673D01*
X141198Y-37340D02*
X143817D01*
X142388Y-39244D01*
X143103D01*
X143579Y-39483D01*
X143817Y-39721D01*
X144055Y-40435D01*
Y-40911D01*
X143817Y-41625D01*
X143341Y-42101D01*
X142626Y-42339D01*
X141912D01*
X141198Y-42101D01*
X140960Y-41863D01*
X140722Y-41387D01*
X145174Y-37340D02*
Y-42339D01*
Y-37340D02*
X147316D01*
X148030Y-37578D01*
X148268Y-37816D01*
X148506Y-38292D01*
Y-38768D01*
X148268Y-39244D01*
X148030Y-39483D01*
X147316Y-39721D01*
X145174D02*
X147316D01*
X148030Y-39959D01*
X148268Y-40197D01*
X148506Y-40673D01*
Y-41387D01*
X148268Y-41863D01*
X148030Y-42101D01*
X147316Y-42339D01*
X145174D01*
X115476Y-36989D02*
Y-40798D01*
X115238Y-41512D01*
X115000Y-41750D01*
X114524Y-41988D01*
X114048D01*
X113572Y-41750D01*
X113334Y-41512D01*
X113096Y-40798D01*
Y-40322D01*
X117238Y-36989D02*
X119856D01*
X118428Y-38893D01*
X119142D01*
X119618Y-39131D01*
X119856Y-39369D01*
X120094Y-40084D01*
Y-40560D01*
X119856Y-41274D01*
X119380Y-41750D01*
X118666Y-41988D01*
X117952D01*
X117238Y-41750D01*
X117000Y-41512D01*
X116762Y-41036D01*
X125022Y-41988D02*
X123118Y-36989D01*
X121213Y-41988D01*
X121927Y-40322D02*
X124308D01*
X35238Y-166005D02*
Y-169813D01*
X35000Y-170527D01*
X34762Y-170765D01*
X34286Y-171003D01*
X33810D01*
X33334Y-170765D01*
X33096Y-170527D01*
X32858Y-169813D01*
Y-169337D01*
X36762Y-167195D02*
Y-166957D01*
X37000Y-166481D01*
X37238Y-166243D01*
X37714Y-166005D01*
X38666D01*
X39142Y-166243D01*
X39380Y-166481D01*
X39618Y-166957D01*
Y-167433D01*
X39380Y-167909D01*
X38904Y-168623D01*
X36524Y-171003D01*
X39856D01*
X40975Y-166005D02*
Y-171003D01*
Y-166005D02*
X43117D01*
X43832Y-166243D01*
X44070Y-166481D01*
X44308Y-166957D01*
Y-167433D01*
X44070Y-167909D01*
X43832Y-168147D01*
X43117Y-168385D01*
X40975D02*
X43117D01*
X43832Y-168623D01*
X44070Y-168861D01*
X44308Y-169337D01*
Y-170051D01*
X44070Y-170527D01*
X43832Y-170765D01*
X43117Y-171003D01*
X40975D01*
X35787Y-110886D02*
Y-114695D01*
X35550Y-115409D01*
X35311Y-115647D01*
X34835Y-115885D01*
X34359D01*
X33883Y-115647D01*
X33645Y-115409D01*
X33407Y-114695D01*
Y-114219D01*
X37311Y-112077D02*
Y-111838D01*
X37549Y-111362D01*
X37787Y-111124D01*
X38263Y-110886D01*
X39215D01*
X39691Y-111124D01*
X39930Y-111362D01*
X40167Y-111838D01*
Y-112315D01*
X39930Y-112791D01*
X39453Y-113505D01*
X37073Y-115885D01*
X40406D01*
X45333D02*
X43429Y-110886D01*
X41524Y-115885D01*
X42239Y-114219D02*
X44619D01*
X32227Y-45664D02*
Y-49473D01*
X31989Y-50187D01*
X31751Y-50425D01*
X31275Y-50663D01*
X30799D01*
X30323Y-50425D01*
X30085Y-50187D01*
X29847Y-49473D01*
Y-48997D01*
X33513Y-46616D02*
X33989Y-46378D01*
X34703Y-45664D01*
Y-50663D01*
X51226Y-157343D02*
Y-162342D01*
Y-157343D02*
X52892D01*
X53606Y-157581D01*
X54083Y-158057D01*
X54321Y-158533D01*
X54559Y-159247D01*
Y-160438D01*
X54321Y-161152D01*
X54083Y-161628D01*
X53606Y-162104D01*
X52892Y-162342D01*
X51226D01*
X56154Y-157343D02*
X58772D01*
X57344Y-159247D01*
X58058D01*
X58534Y-159485D01*
X58772Y-159723D01*
X59010Y-160438D01*
Y-160914D01*
X58772Y-161628D01*
X58296Y-162104D01*
X57582Y-162342D01*
X56868D01*
X56154Y-162104D01*
X55916Y-161866D01*
X55677Y-161390D01*
X64608Y-111501D02*
Y-116499D01*
Y-111501D02*
X66274D01*
X66988Y-111739D01*
X67465Y-112215D01*
X67703Y-112691D01*
X67941Y-113405D01*
Y-114595D01*
X67703Y-115309D01*
X67465Y-115785D01*
X66988Y-116261D01*
X66274Y-116499D01*
X64608D01*
X69297Y-112691D02*
Y-112453D01*
X69535Y-111977D01*
X69774Y-111739D01*
X70250Y-111501D01*
X71202D01*
X71678Y-111739D01*
X71916Y-111977D01*
X72154Y-112453D01*
Y-112929D01*
X71916Y-113405D01*
X71440Y-114119D01*
X69059Y-116499D01*
X72392D01*
X217477Y-34852D02*
Y-38423D01*
X217715Y-39137D01*
X218191Y-39613D01*
X218905Y-39851D01*
X219381D01*
X220095Y-39613D01*
X220572Y-39137D01*
X220810Y-38423D01*
Y-34852D01*
X222428Y-36043D02*
Y-35805D01*
X222666Y-35329D01*
X222904Y-35091D01*
X223380Y-34852D01*
X224333D01*
X224809Y-35091D01*
X225047Y-35329D01*
X225285Y-35805D01*
Y-36281D01*
X225047Y-36757D01*
X224571Y-37471D01*
X222190Y-39851D01*
X225523D01*
X135945Y-60567D02*
Y-65566D01*
Y-60567D02*
X138087D01*
X138801Y-60805D01*
X139039Y-61044D01*
X139277Y-61520D01*
Y-61996D01*
X139039Y-62472D01*
X138801Y-62710D01*
X138087Y-62948D01*
X135945D01*
X137611D02*
X139277Y-65566D01*
X140396Y-61520D02*
X140872Y-61282D01*
X141586Y-60567D01*
Y-65566D01*
X144062Y-61520D02*
X144538Y-61282D01*
X145252Y-60567D01*
Y-65566D01*
X108882Y-63184D02*
X113881D01*
X108882D02*
Y-61042D01*
X109120Y-60328D01*
X109358Y-60090D01*
X109834Y-59852D01*
X110310D01*
X110786Y-60090D01*
X111024Y-60328D01*
X111262Y-61042D01*
Y-63184D01*
Y-61518D02*
X113881Y-59852D01*
X109834Y-58733D02*
X109596Y-58257D01*
X108882Y-57543D01*
X113881D01*
X108882Y-53639D02*
X109120Y-54353D01*
X109834Y-54829D01*
X111024Y-55067D01*
X111738D01*
X112928Y-54829D01*
X113643Y-54353D01*
X113881Y-53639D01*
Y-53162D01*
X113643Y-52448D01*
X112928Y-51972D01*
X111738Y-51734D01*
X111024D01*
X109834Y-51972D01*
X109120Y-52448D01*
X108882Y-53162D01*
Y-53639D01*
X209400Y-7301D02*
Y-12300D01*
Y-7301D02*
X211542D01*
X212257Y-7539D01*
X212495Y-7777D01*
X212733Y-8253D01*
Y-8729D01*
X212495Y-9205D01*
X212257Y-9443D01*
X211542Y-9681D01*
X209400D01*
X211066D02*
X212733Y-12300D01*
X216946Y-8967D02*
X216708Y-9681D01*
X216232Y-10158D01*
X215518Y-10396D01*
X215280D01*
X214566Y-10158D01*
X214089Y-9681D01*
X213851Y-8967D01*
Y-8729D01*
X214089Y-8015D01*
X214566Y-7539D01*
X215280Y-7301D01*
X215518D01*
X216232Y-7539D01*
X216708Y-8015D01*
X216946Y-8967D01*
Y-10158D01*
X216708Y-11348D01*
X216232Y-12062D01*
X215518Y-12300D01*
X215042D01*
X214328Y-12062D01*
X214089Y-11586D01*
X183287Y-39420D02*
Y-44419D01*
Y-39420D02*
X185430D01*
X186144Y-39658D01*
X186382Y-39896D01*
X186620Y-40372D01*
Y-40848D01*
X186382Y-41324D01*
X186144Y-41563D01*
X185430Y-41800D01*
X183287D01*
X184954D02*
X186620Y-44419D01*
X188929Y-39420D02*
X188215Y-39658D01*
X187977Y-40134D01*
Y-40610D01*
X188215Y-41086D01*
X188691Y-41324D01*
X189643Y-41563D01*
X190357Y-41800D01*
X190833Y-42277D01*
X191071Y-42753D01*
Y-43467D01*
X190833Y-43943D01*
X190595Y-44181D01*
X189881Y-44419D01*
X188929D01*
X188215Y-44181D01*
X187977Y-43943D01*
X187739Y-43467D01*
Y-42753D01*
X187977Y-42277D01*
X188453Y-41800D01*
X189167Y-41563D01*
X190119Y-41324D01*
X190595Y-41086D01*
X190833Y-40610D01*
Y-40134D01*
X190595Y-39658D01*
X189881Y-39420D01*
X188929D01*
X189653Y-79504D02*
Y-84503D01*
Y-79504D02*
X191795D01*
X192509Y-79742D01*
X192747Y-79980D01*
X192985Y-80456D01*
Y-80932D01*
X192747Y-81408D01*
X192509Y-81646D01*
X191795Y-81884D01*
X189653D01*
X191319D02*
X192985Y-84503D01*
X194342Y-80694D02*
Y-80456D01*
X194580Y-79980D01*
X194818Y-79742D01*
X195294Y-79504D01*
X196247D01*
X196723Y-79742D01*
X196961Y-79980D01*
X197199Y-80456D01*
Y-80932D01*
X196961Y-81408D01*
X196485Y-82122D01*
X194104Y-84503D01*
X197437D01*
X221947Y-61579D02*
X226945D01*
X221947D02*
Y-59436D01*
X222184Y-58722D01*
X222423Y-58484D01*
X222899Y-58246D01*
X223375D01*
X223851Y-58484D01*
X224089Y-58722D01*
X224327Y-59436D01*
Y-61579D01*
Y-59912D02*
X226945Y-58246D01*
X222899Y-57127D02*
X222661Y-56651D01*
X221947Y-55937D01*
X226945D01*
X223765Y-164605D02*
Y-168414D01*
X223527Y-169128D01*
X223289Y-169366D01*
X222813Y-169604D01*
X222337D01*
X221861Y-169366D01*
X221623Y-169128D01*
X221385Y-168414D01*
Y-167938D01*
X225289Y-165795D02*
Y-165557D01*
X225527Y-165081D01*
X225765Y-164843D01*
X226241Y-164605D01*
X227193D01*
X227669Y-164843D01*
X227907Y-165081D01*
X228145Y-165557D01*
Y-166033D01*
X227907Y-166509D01*
X227431Y-167223D01*
X225051Y-169604D01*
X228383D01*
X143584Y-90056D02*
X143346Y-89580D01*
X142870Y-89104D01*
X142394Y-88866D01*
X141442D01*
X140965Y-89104D01*
X140489Y-89580D01*
X140251Y-90056D01*
X140013Y-90770D01*
Y-91961D01*
X140251Y-92675D01*
X140489Y-93151D01*
X140965Y-93627D01*
X141442Y-93865D01*
X142394D01*
X142870Y-93627D01*
X143346Y-93151D01*
X143584Y-92675D01*
X144988Y-89818D02*
X145465Y-89580D01*
X146179Y-88866D01*
Y-93865D01*
X149845Y-88866D02*
X149130Y-89104D01*
X148892Y-89580D01*
Y-90056D01*
X149130Y-90532D01*
X149606Y-90770D01*
X150559Y-91009D01*
X151273Y-91246D01*
X151749Y-91723D01*
X151987Y-92199D01*
Y-92913D01*
X151749Y-93389D01*
X151511Y-93627D01*
X150797Y-93865D01*
X149845D01*
X149130Y-93627D01*
X148892Y-93389D01*
X148654Y-92913D01*
Y-92199D01*
X148892Y-91723D01*
X149368Y-91246D01*
X150083Y-91009D01*
X151035Y-90770D01*
X151511Y-90532D01*
X151749Y-90056D01*
Y-89580D01*
X151511Y-89104D01*
X150797Y-88866D01*
X149845D01*
X100144Y-90223D02*
X99906Y-89746D01*
X99430Y-89270D01*
X98954Y-89032D01*
X98002D01*
X97526Y-89270D01*
X97050Y-89746D01*
X96812Y-90223D01*
X96574Y-90937D01*
Y-92127D01*
X96812Y-92841D01*
X97050Y-93317D01*
X97526Y-93793D01*
X98002Y-94031D01*
X98954D01*
X99430Y-93793D01*
X99906Y-93317D01*
X100144Y-92841D01*
X101549Y-89985D02*
X102025Y-89746D01*
X102739Y-89032D01*
Y-94031D01*
X108547Y-89032D02*
X106167Y-94031D01*
X105215Y-89032D02*
X108547D01*
X174285Y-27315D02*
X173809Y-27553D01*
X173333Y-28029D01*
X173095Y-28505D01*
Y-29458D01*
X173333Y-29934D01*
X173809Y-30410D01*
X174285Y-30648D01*
X174999Y-30886D01*
X176190D01*
X176904Y-30648D01*
X177380Y-30410D01*
X177856Y-29934D01*
X178094Y-29458D01*
Y-28505D01*
X177856Y-28029D01*
X177380Y-27553D01*
X176904Y-27315D01*
X174047Y-25911D02*
X173809Y-25434D01*
X173095Y-24720D01*
X178094D01*
X174285Y-22007D02*
X174047D01*
X173571Y-21769D01*
X173333Y-21531D01*
X173095Y-21055D01*
Y-20102D01*
X173333Y-19626D01*
X173571Y-19388D01*
X174047Y-19150D01*
X174523D01*
X174999Y-19388D01*
X175714Y-19864D01*
X178094Y-22245D01*
Y-18912D01*
X181037Y-11227D02*
X180799Y-10751D01*
X180323Y-10275D01*
X179847Y-10037D01*
X178895D01*
X178419Y-10275D01*
X177943Y-10751D01*
X177705Y-11227D01*
X177467Y-11941D01*
Y-13131D01*
X177705Y-13846D01*
X177943Y-14322D01*
X178419Y-14798D01*
X178895Y-15036D01*
X179847D01*
X180323Y-14798D01*
X180799Y-14322D01*
X181037Y-13846D01*
X182442Y-10989D02*
X182918Y-10751D01*
X183632Y-10037D01*
Y-15036D01*
X186108Y-10989D02*
X186584Y-10751D01*
X187298Y-10037D01*
Y-15036D01*
X131584Y-156691D02*
X131346Y-156215D01*
X130870Y-155739D01*
X130394Y-155500D01*
X129441D01*
X128965Y-155739D01*
X128489Y-156215D01*
X128251Y-156691D01*
X128013Y-157405D01*
Y-158595D01*
X128251Y-159309D01*
X128489Y-159785D01*
X128965Y-160261D01*
X129441Y-160500D01*
X130394D01*
X130870Y-160261D01*
X131346Y-159785D01*
X131584Y-159309D01*
X132988Y-156453D02*
X133464Y-156215D01*
X134178Y-155500D01*
Y-160500D01*
X138083Y-155500D02*
X137368Y-155739D01*
X136892Y-156453D01*
X136654Y-157643D01*
Y-158357D01*
X136892Y-159547D01*
X137368Y-160261D01*
X138083Y-160500D01*
X138558D01*
X139273Y-160261D01*
X139749Y-159547D01*
X139987Y-158357D01*
Y-157643D01*
X139749Y-156453D01*
X139273Y-155739D01*
X138558Y-155500D01*
X138083D01*
X177036Y-156691D02*
X176798Y-156215D01*
X176322Y-155739D01*
X175846Y-155500D01*
X174893D01*
X174417Y-155739D01*
X173941Y-156215D01*
X173703Y-156691D01*
X173465Y-157405D01*
Y-158595D01*
X173703Y-159309D01*
X173941Y-159785D01*
X174417Y-160261D01*
X174893Y-160500D01*
X175846D01*
X176322Y-160261D01*
X176798Y-159785D01*
X177036Y-159309D01*
X181535Y-157167D02*
X181297Y-157881D01*
X180821Y-158357D01*
X180107Y-158595D01*
X179868D01*
X179154Y-158357D01*
X178678Y-157881D01*
X178440Y-157167D01*
Y-156929D01*
X178678Y-156215D01*
X179154Y-155739D01*
X179868Y-155500D01*
X180107D01*
X180821Y-155739D01*
X181297Y-156215D01*
X181535Y-157167D01*
Y-158357D01*
X181297Y-159547D01*
X180821Y-160261D01*
X180107Y-160500D01*
X179630D01*
X178916Y-160261D01*
X178678Y-159785D01*
X192662Y-72693D02*
X192424Y-72217D01*
X191947Y-71741D01*
X191471Y-71503D01*
X190519D01*
X190043Y-71741D01*
X189567Y-72217D01*
X189329Y-72693D01*
X189091Y-73407D01*
Y-74597D01*
X189329Y-75311D01*
X189567Y-75787D01*
X190043Y-76263D01*
X190519Y-76502D01*
X191471D01*
X191947Y-76263D01*
X192424Y-75787D01*
X192662Y-75311D01*
X195256Y-71503D02*
X194542Y-71741D01*
X194304Y-72217D01*
Y-72693D01*
X194542Y-73169D01*
X195018Y-73407D01*
X195970Y-73645D01*
X196685Y-73883D01*
X197161Y-74359D01*
X197399Y-74835D01*
Y-75549D01*
X197161Y-76025D01*
X196923Y-76263D01*
X196209Y-76502D01*
X195256D01*
X194542Y-76263D01*
X194304Y-76025D01*
X194066Y-75549D01*
Y-74835D01*
X194304Y-74359D01*
X194780Y-73883D01*
X195494Y-73645D01*
X196447Y-73407D01*
X196923Y-73169D01*
X197161Y-72693D01*
Y-72217D01*
X196923Y-71741D01*
X196209Y-71503D01*
X195256D01*
X223471Y-140297D02*
X222995Y-140535D01*
X222519Y-141011D01*
X222281Y-141487D01*
Y-142439D01*
X222519Y-142915D01*
X222995Y-143392D01*
X223471Y-143630D01*
X224185Y-143868D01*
X225375D01*
X226090Y-143630D01*
X226566Y-143392D01*
X227042Y-142915D01*
X227280Y-142439D01*
Y-141487D01*
X227042Y-141011D01*
X226566Y-140535D01*
X226090Y-140297D01*
X223471Y-138654D02*
X223233D01*
X222757Y-138416D01*
X222519Y-138178D01*
X222281Y-137702D01*
Y-136750D01*
X222519Y-136274D01*
X222757Y-136036D01*
X223233Y-135798D01*
X223709D01*
X224185Y-136036D01*
X224899Y-136512D01*
X227280Y-138892D01*
Y-135560D01*
X99010Y-137777D02*
Y-141348D01*
X99248Y-142062D01*
X99724Y-142538D01*
X100438Y-142776D01*
X100914D01*
X101628Y-142538D01*
X102104Y-142062D01*
X102342Y-141348D01*
Y-137777D01*
X107056D02*
X104675Y-142776D01*
X103723Y-137777D02*
X107056D01*
X198464Y-32152D02*
Y-35722D01*
X198702Y-36437D01*
X199178Y-36913D01*
X199892Y-37151D01*
X200368D01*
X201082Y-36913D01*
X201558Y-36437D01*
X201797Y-35722D01*
Y-32152D01*
X205558D02*
X203177Y-35484D01*
X206748D01*
X205558Y-32152D02*
Y-37151D01*
X136195Y-78567D02*
Y-82138D01*
X136433Y-82852D01*
X136909Y-83328D01*
X137623Y-83566D01*
X138099D01*
X138813Y-83328D01*
X139289Y-82852D01*
X139527Y-82138D01*
Y-78567D01*
X143764Y-79282D02*
X143526Y-78806D01*
X142812Y-78567D01*
X142336D01*
X141622Y-78806D01*
X141146Y-79520D01*
X140908Y-80710D01*
Y-81900D01*
X141146Y-82852D01*
X141622Y-83328D01*
X142336Y-83566D01*
X142574D01*
X143288Y-83328D01*
X143764Y-82852D01*
X144002Y-82138D01*
Y-81900D01*
X143764Y-81186D01*
X143288Y-80710D01*
X142574Y-80472D01*
X142336D01*
X141622Y-80710D01*
X141146Y-81186D01*
X140908Y-81900D01*
X157053Y-86901D02*
Y-90472D01*
X157291Y-91186D01*
X157767Y-91662D01*
X158481Y-91900D01*
X158957D01*
X159671Y-91662D01*
X160147Y-91186D01*
X160385Y-90472D01*
Y-86901D01*
X161766Y-87853D02*
X162242Y-87615D01*
X162956Y-86901D01*
Y-91900D01*
X75753Y-106542D02*
X80752D01*
X75753D02*
Y-104399D01*
X75991Y-103685D01*
X76230Y-103447D01*
X76706Y-103209D01*
X77182D01*
X77658Y-103447D01*
X77896Y-103685D01*
X78134Y-104399D01*
Y-106542D01*
Y-104875D02*
X80752Y-103209D01*
X75753Y-99234D02*
Y-101614D01*
X77896Y-101852D01*
X77658Y-101614D01*
X77420Y-100900D01*
Y-100186D01*
X77658Y-99472D01*
X78134Y-98996D01*
X78848Y-98758D01*
X79324D01*
X80038Y-98996D01*
X80514Y-99472D01*
X80752Y-100186D01*
Y-100900D01*
X80514Y-101614D01*
X80276Y-101852D01*
X79800Y-102090D01*
X116135Y-52470D02*
X121133D01*
X116135D02*
Y-50327D01*
X116373Y-49613D01*
X116611Y-49375D01*
X117087Y-49137D01*
X117563D01*
X118039Y-49375D01*
X118277Y-49613D01*
X118515Y-50327D01*
Y-52470D01*
Y-50804D02*
X121133Y-49137D01*
X116135Y-44686D02*
X121133Y-47066D01*
X116135Y-48019D02*
Y-44686D01*
X126082Y-52287D02*
X131080D01*
X126082D02*
Y-50145D01*
X126320Y-49431D01*
X126558Y-49193D01*
X127034Y-48955D01*
X127510D01*
X127986Y-49193D01*
X128224Y-49431D01*
X128462Y-50145D01*
Y-52287D01*
Y-50621D02*
X131080Y-48955D01*
X126796Y-44980D02*
X126320Y-45217D01*
X126082Y-45932D01*
Y-46408D01*
X126320Y-47122D01*
X127034Y-47598D01*
X128224Y-47836D01*
X129414D01*
X130366Y-47598D01*
X130842Y-47122D01*
X131080Y-46408D01*
Y-46170D01*
X130842Y-45456D01*
X130366Y-44980D01*
X129652Y-44741D01*
X129414D01*
X128700Y-44980D01*
X128224Y-45456D01*
X127986Y-46170D01*
Y-46408D01*
X128224Y-47122D01*
X128700Y-47598D01*
X129414Y-47836D01*
X83785Y-133593D02*
X88784D01*
X83785D02*
Y-131450D01*
X84023Y-130736D01*
X84261Y-130498D01*
X84737Y-130260D01*
X85214D01*
X85690Y-130498D01*
X85928Y-130736D01*
X86166Y-131450D01*
Y-133593D01*
Y-131927D02*
X88784Y-130260D01*
X83785Y-126761D02*
X87118Y-129141D01*
Y-125571D01*
X83785Y-126761D02*
X88784D01*
X76500Y-159974D02*
X81499D01*
X76500D02*
Y-157831D01*
X76739Y-157117D01*
X76977Y-156879D01*
X77453Y-156641D01*
X77929D01*
X78405Y-156879D01*
X78643Y-157117D01*
X78881Y-157831D01*
Y-159974D01*
Y-158307D02*
X81499Y-156641D01*
X76500Y-155046D02*
Y-152428D01*
X78405Y-153856D01*
Y-153142D01*
X78643Y-152666D01*
X78881Y-152428D01*
X79595Y-152190D01*
X80071D01*
X80785Y-152428D01*
X81261Y-152904D01*
X81499Y-153618D01*
Y-154332D01*
X81261Y-155046D01*
X81023Y-155284D01*
X80547Y-155522D01*
X44864Y-101678D02*
Y-106677D01*
Y-101678D02*
X46530D01*
X47244Y-101917D01*
X47720Y-102393D01*
X47958Y-102869D01*
X48197Y-103583D01*
Y-104773D01*
X47958Y-105487D01*
X47720Y-105963D01*
X47244Y-106439D01*
X46530Y-106677D01*
X44864D01*
X49315Y-102631D02*
X49791Y-102393D01*
X50506Y-101678D01*
Y-106677D01*
X135163Y-105003D02*
X134687Y-105241D01*
X134211Y-105717D01*
X133973Y-106193D01*
Y-107145D01*
X134211Y-107621D01*
X134687Y-108097D01*
X135163Y-108335D01*
X135877Y-108573D01*
X137067D01*
X137781Y-108335D01*
X138258Y-108097D01*
X138734Y-107621D01*
X138972Y-107145D01*
Y-106193D01*
X138734Y-105717D01*
X138258Y-105241D01*
X137781Y-105003D01*
X133973Y-100266D02*
X138972Y-102646D01*
X133973Y-103598D02*
Y-100266D01*
X60849Y-91734D02*
X60373Y-91972D01*
X59897Y-92448D01*
X59658Y-92924D01*
Y-93877D01*
X59897Y-94353D01*
X60373Y-94829D01*
X60849Y-95067D01*
X61563Y-95305D01*
X62753D01*
X63467Y-95067D01*
X63943Y-94829D01*
X64419Y-94353D01*
X64657Y-93877D01*
Y-92924D01*
X64419Y-92448D01*
X63943Y-91972D01*
X63467Y-91734D01*
X60611Y-90330D02*
X60373Y-89854D01*
X59658Y-89140D01*
X64657D01*
X59658Y-83807D02*
Y-86188D01*
X61801Y-86426D01*
X61563Y-86188D01*
X61325Y-85474D01*
Y-84760D01*
X61563Y-84045D01*
X62039Y-83569D01*
X62753Y-83331D01*
X63229D01*
X63943Y-83569D01*
X64419Y-84045D01*
X64657Y-84760D01*
Y-85474D01*
X64419Y-86188D01*
X64181Y-86426D01*
X63705Y-86664D01*
X202628Y-137591D02*
X202152Y-137829D01*
X201676Y-138305D01*
X201437Y-138781D01*
Y-139734D01*
X201676Y-140210D01*
X202152Y-140686D01*
X202628Y-140924D01*
X203342Y-141162D01*
X204532D01*
X205246Y-140924D01*
X205722Y-140686D01*
X206198Y-140210D01*
X206436Y-139734D01*
Y-138781D01*
X206198Y-138305D01*
X205722Y-137829D01*
X205246Y-137591D01*
X201437Y-133330D02*
Y-135711D01*
X203580Y-135949D01*
X203342Y-135711D01*
X203104Y-134996D01*
Y-134282D01*
X203342Y-133568D01*
X203818Y-133092D01*
X204532Y-132854D01*
X205008D01*
X205722Y-133092D01*
X206198Y-133568D01*
X206436Y-134282D01*
Y-134996D01*
X206198Y-135711D01*
X205960Y-135949D01*
X205484Y-136187D01*
X132180Y-119435D02*
X131704Y-119673D01*
X131228Y-120149D01*
X130990Y-120625D01*
Y-121577D01*
X131228Y-122053D01*
X131704Y-122529D01*
X132180Y-122767D01*
X132895Y-123005D01*
X134085D01*
X134799Y-122767D01*
X135275Y-122529D01*
X135751Y-122053D01*
X135989Y-121577D01*
Y-120625D01*
X135751Y-120149D01*
X135275Y-119673D01*
X134799Y-119435D01*
X131704Y-115174D02*
X131228Y-115412D01*
X130990Y-116126D01*
Y-116602D01*
X131228Y-117316D01*
X131942Y-117792D01*
X133133Y-118030D01*
X134323D01*
X135275Y-117792D01*
X135751Y-117316D01*
X135989Y-116602D01*
Y-116364D01*
X135751Y-115650D01*
X135275Y-115174D01*
X134561Y-114936D01*
X134323D01*
X133609Y-115174D01*
X133133Y-115650D01*
X132895Y-116364D01*
Y-116602D01*
X133133Y-117316D01*
X133609Y-117792D01*
X134323Y-118030D01*
X202628Y-99796D02*
X202152Y-100034D01*
X201676Y-100510D01*
X201437Y-100986D01*
Y-101938D01*
X201676Y-102414D01*
X202152Y-102890D01*
X202628Y-103128D01*
X203342Y-103366D01*
X204532D01*
X205246Y-103128D01*
X205722Y-102890D01*
X206198Y-102414D01*
X206436Y-101938D01*
Y-100986D01*
X206198Y-100510D01*
X205722Y-100034D01*
X205246Y-99796D01*
X201437Y-97915D02*
Y-95297D01*
X203342Y-96725D01*
Y-96011D01*
X203580Y-95535D01*
X203818Y-95297D01*
X204532Y-95059D01*
X205008D01*
X205722Y-95297D01*
X206198Y-95773D01*
X206436Y-96487D01*
Y-97201D01*
X206198Y-97915D01*
X205960Y-98153D01*
X205484Y-98391D01*
X147423Y-127519D02*
X147184Y-127043D01*
X146708Y-126567D01*
X146232Y-126329D01*
X145280D01*
X144804Y-126567D01*
X144328Y-127043D01*
X144090Y-127519D01*
X143852Y-128233D01*
Y-129423D01*
X144090Y-130138D01*
X144328Y-130614D01*
X144804Y-131090D01*
X145280Y-131328D01*
X146232D01*
X146708Y-131090D01*
X147184Y-130614D01*
X147423Y-130138D01*
X151207Y-126329D02*
X148827Y-129662D01*
X152398D01*
X151207Y-126329D02*
Y-131328D01*
X52378Y-91514D02*
X51902Y-91752D01*
X51425Y-92229D01*
X51187Y-92705D01*
Y-93657D01*
X51425Y-94133D01*
X51902Y-94609D01*
X52378Y-94847D01*
X53092Y-95085D01*
X54282D01*
X54996Y-94847D01*
X55472Y-94609D01*
X55948Y-94133D01*
X56186Y-93657D01*
Y-92705D01*
X55948Y-92229D01*
X55472Y-91752D01*
X54996Y-91514D01*
X52140Y-90110D02*
X51902Y-89634D01*
X51187Y-88920D01*
X56186D01*
X51902Y-83587D02*
X51425Y-83825D01*
X51187Y-84540D01*
Y-85016D01*
X51425Y-85730D01*
X52140Y-86206D01*
X53330Y-86444D01*
X54520D01*
X55472Y-86206D01*
X55948Y-85730D01*
X56186Y-85016D01*
Y-84778D01*
X55948Y-84064D01*
X55472Y-83587D01*
X54758Y-83350D01*
X54520D01*
X53806Y-83587D01*
X53330Y-84064D01*
X53092Y-84778D01*
Y-85016D01*
X53330Y-85730D01*
X53806Y-86206D01*
X54520Y-86444D01*
X118987Y-118166D02*
X118749Y-117690D01*
X118273Y-117214D01*
X117797Y-116976D01*
X116845D01*
X116369Y-117214D01*
X115893Y-117690D01*
X115655Y-118166D01*
X115417Y-118880D01*
Y-120071D01*
X115655Y-120785D01*
X115893Y-121261D01*
X116369Y-121737D01*
X116845Y-121975D01*
X117797D01*
X118273Y-121737D01*
X118749Y-121261D01*
X118987Y-120785D01*
X120392Y-117928D02*
X120868Y-117690D01*
X121582Y-116976D01*
Y-121975D01*
X127152Y-118642D02*
X126914Y-119357D01*
X126438Y-119833D01*
X125724Y-120071D01*
X125486D01*
X124772Y-119833D01*
X124296Y-119357D01*
X124058Y-118642D01*
Y-118404D01*
X124296Y-117690D01*
X124772Y-117214D01*
X125486Y-116976D01*
X125724D01*
X126438Y-117214D01*
X126914Y-117690D01*
X127152Y-118642D01*
Y-119833D01*
X126914Y-121023D01*
X126438Y-121737D01*
X125724Y-121975D01*
X125248D01*
X124534Y-121737D01*
X124296Y-121261D01*
D11*
X66043Y-58243D02*
Y-56274D01*
X68011D01*
X66043Y-79896D02*
Y-77928D01*
Y-79896D02*
X68011D01*
X96403Y-60802D02*
X99750D01*
Y-75369D02*
Y-60802D01*
X96403Y-75369D02*
X99750D01*
X233551Y-157631D02*
X259142D01*
Y-136056D01*
X233551D02*
X259142D01*
X233551Y-157631D02*
Y-136056D01*
X45295Y-74787D02*
Y-53213D01*
X19705Y-74787D02*
X45295D01*
X19705D02*
Y-53213D01*
X45295D01*
X21205Y-118713D02*
X46795D01*
X21205Y-140287D02*
Y-118713D01*
Y-140287D02*
X46795D01*
Y-118713D01*
X130787Y-35295D02*
Y-9705D01*
X109213D02*
X130787D01*
X109213Y-35295D02*
Y-9705D01*
Y-35295D02*
X130787D01*
X233660Y-134268D02*
X259251D01*
Y-112693D01*
X233660D02*
X259251D01*
X233660Y-134268D02*
Y-112693D01*
X154151Y-35295D02*
Y-9705D01*
X132576D02*
X154151D01*
X132576Y-35295D02*
Y-9705D01*
Y-35295D02*
X154151D01*
X163147Y-126150D02*
X164328D01*
X163147D02*
Y-124969D01*
X163059Y-98284D02*
Y-97103D01*
X164240D01*
X190924Y-97016D02*
X192105D01*
Y-98197D02*
Y-97016D01*
X192193Y-126062D02*
Y-124881D01*
X191012Y-126062D02*
X192193D01*
X217262Y-182947D02*
Y-161262D01*
X185262D02*
X217262D01*
X185262Y-182947D02*
Y-161262D01*
Y-182947D02*
X217262D01*
X128847Y-86594D02*
X130028D01*
Y-85413D01*
Y-76752D02*
Y-75571D01*
X128847D02*
X130028D01*
X117035D02*
X118217D01*
X117035Y-76752D02*
Y-75571D01*
Y-86594D02*
Y-85413D01*
Y-86594D02*
X118217D01*
X229555Y-93364D02*
Y-32340D01*
X261366D01*
X229555Y-93364D02*
X261366D01*
Y-32340D01*
X98011Y-135487D02*
X107066D01*
X98011D02*
Y-123676D01*
X107066D01*
Y-135487D02*
Y-123676D01*
X46795Y-163651D02*
Y-142076D01*
X21205Y-163651D02*
X46795D01*
X21205D02*
Y-142076D01*
X46795D01*
X190594Y-29906D02*
X192169D01*
X190594D02*
Y-28331D01*
Y-19669D02*
Y-18094D01*
X192169D01*
X202364Y-29921D02*
Y-28346D01*
X200789Y-29921D02*
X202364D01*
X200789Y-18110D02*
X202364D01*
Y-19685D02*
Y-18110D01*
D12*
X253594Y-96824D02*
Y-95054D01*
X251824D02*
X253594D01*
X241783Y-100566D02*
Y-98795D01*
Y-100566D02*
X243553D01*
X241783Y-96824D02*
Y-95054D01*
X243553D01*
X253594Y-100566D02*
Y-98795D01*
X251824Y-100566D02*
X253594D01*
X58613Y-68153D02*
Y-66383D01*
Y-68153D02*
X60383D01*
X64124Y-58112D02*
Y-56342D01*
X62354D02*
X64124D01*
X58613Y-58112D02*
Y-56342D01*
X60383D01*
X64124Y-68153D02*
Y-66383D01*
X62354Y-68153D02*
X64124D01*
X51113D02*
Y-66383D01*
Y-68153D02*
X52883D01*
X56624Y-58112D02*
Y-56342D01*
X54854D02*
X56624D01*
X51113Y-58112D02*
Y-56342D01*
X52883D01*
X56624Y-68153D02*
Y-66383D01*
X54854Y-68153D02*
X56624D01*
X49192Y-108515D02*
X50710D01*
X49192Y-110033D02*
Y-108515D01*
X59485Y-128200D02*
X61003D01*
Y-126682D01*
X59485Y-108515D02*
X61003D01*
Y-110033D02*
Y-108515D01*
X49192Y-128200D02*
X50710D01*
X49192D02*
Y-126682D01*
X221697Y-156960D02*
Y-155190D01*
Y-156960D02*
X223467D01*
X227209Y-146919D02*
Y-145149D01*
X225439D02*
X227209D01*
X221697Y-146919D02*
Y-145149D01*
X223467D01*
X227209Y-156960D02*
Y-155190D01*
X225439Y-156960D02*
X227209D01*
X115229Y-55172D02*
X116999D01*
X115229Y-56943D02*
Y-55172D01*
X118970Y-66983D02*
X120740D01*
Y-65213D01*
X115229Y-66983D02*
X116999D01*
X115229D02*
Y-65213D01*
X118970Y-55172D02*
X120740D01*
Y-56943D02*
Y-55172D01*
X91133Y-149839D02*
X92903D01*
X91133Y-151610D02*
Y-149839D01*
X101174Y-155351D02*
X102944D01*
Y-153581D01*
X101174Y-149839D02*
X102944D01*
Y-151610D02*
Y-149839D01*
X91133Y-155351D02*
X92903D01*
X91133D02*
Y-153581D01*
X157744Y-67232D02*
X159514D01*
X157744Y-69002D02*
Y-67232D01*
X161486Y-79043D02*
X163256D01*
Y-77273D01*
X157744Y-79043D02*
X159514D01*
X157744D02*
Y-77273D01*
X161486Y-67232D02*
X163256D01*
Y-69002D02*
Y-67232D01*
X157744Y-53830D02*
X159514D01*
X157744Y-55600D02*
Y-53830D01*
X161486Y-65641D02*
X163256D01*
Y-63871D01*
X157744Y-65641D02*
X159514D01*
X157744D02*
Y-63871D01*
X161486Y-53830D02*
X163256D01*
Y-55600D02*
Y-53830D01*
X165150Y-67232D02*
X166921D01*
X165150Y-69002D02*
Y-67232D01*
X168892Y-79043D02*
X170662D01*
Y-77273D01*
X165150Y-79043D02*
X166921D01*
X165150D02*
Y-77273D01*
X168892Y-67232D02*
X170662D01*
Y-69002D02*
Y-67232D01*
X165135Y-53830D02*
X166905D01*
X165135Y-55600D02*
Y-53830D01*
X168877Y-65641D02*
X170647D01*
Y-63871D01*
X165135Y-65641D02*
X166905D01*
X165135D02*
Y-63871D01*
X168877Y-53830D02*
X170647D01*
Y-55600D02*
Y-53830D01*
X183635Y-83347D02*
X185406D01*
Y-81577D01*
X173594Y-77836D02*
X175365D01*
X173594Y-79606D02*
Y-77836D01*
Y-83347D02*
X175365D01*
X173594D02*
Y-81577D01*
X183635Y-77836D02*
X185406D01*
Y-79606D02*
Y-77836D01*
X173594Y-70732D02*
X175365D01*
X173594Y-72502D02*
Y-70732D01*
X183635Y-76244D02*
X185406D01*
Y-74474D01*
X183635Y-70732D02*
X185406D01*
Y-72502D02*
Y-70732D01*
X173594Y-76244D02*
X175365D01*
X173594D02*
Y-74474D01*
X206756Y-107365D02*
Y-105595D01*
X204986D02*
X206756D01*
X201244Y-117405D02*
Y-115635D01*
Y-117405D02*
X203014D01*
X206756D02*
Y-115635D01*
X204986Y-117405D02*
X206756D01*
X201244Y-107365D02*
Y-105595D01*
X203014D01*
X201244Y-130808D02*
Y-129038D01*
Y-130808D02*
X203014D01*
X206756Y-120767D02*
Y-118997D01*
X204986D02*
X206756D01*
X201244Y-120767D02*
Y-118997D01*
X203014D01*
X206756Y-130808D02*
Y-129038D01*
X204986Y-130808D02*
X206756D01*
X154785Y-160323D02*
X156555D01*
Y-158552D01*
X144744Y-154811D02*
X146514D01*
X144744Y-156581D02*
Y-154811D01*
Y-160323D02*
X146514D01*
X144744D02*
Y-158552D01*
X154785Y-154811D02*
X156555D01*
Y-156581D02*
Y-154811D01*
X143152Y-114365D02*
Y-112594D01*
X141382D02*
X143152D01*
X137641Y-124406D02*
Y-122635D01*
Y-124406D02*
X139411D01*
X143152D02*
Y-122635D01*
X141382Y-124406D02*
X143152D01*
X137641Y-114365D02*
Y-112594D01*
X139411D01*
X150256Y-114365D02*
Y-112594D01*
X148486D02*
X150256D01*
X144744Y-124406D02*
Y-122635D01*
Y-124406D02*
X146514D01*
X150256D02*
Y-122635D01*
X148486Y-124406D02*
X150256D01*
X144744Y-114365D02*
Y-112594D01*
X146514D01*
X150256Y-100962D02*
Y-99192D01*
X148486D02*
X150256D01*
X144744Y-111003D02*
Y-109233D01*
Y-111003D02*
X146514D01*
X150256D02*
Y-109233D01*
X148486Y-111003D02*
X150256D01*
X144744Y-100962D02*
Y-99192D01*
X146514D01*
X158147Y-154811D02*
X159917D01*
X158147Y-156581D02*
Y-154811D01*
X168187Y-160323D02*
X169958D01*
Y-158552D01*
X168187Y-154811D02*
X169958D01*
Y-156581D02*
Y-154811D01*
X158147Y-160323D02*
X159917D01*
X158147D02*
Y-158552D01*
X102944Y-159109D02*
Y-157339D01*
X101174D02*
X102944D01*
X91133Y-162851D02*
Y-161081D01*
Y-162851D02*
X92903D01*
X91133Y-159109D02*
Y-157339D01*
X92903D01*
X102944Y-162851D02*
Y-161081D01*
X101174Y-162851D02*
X102944D01*
X113637Y-68324D02*
Y-66554D01*
X111867D02*
X113637D01*
X108125Y-78365D02*
Y-76595D01*
Y-78365D02*
X109895D01*
X113637D02*
Y-76595D01*
X111867Y-78365D02*
X113637D01*
X108125Y-68324D02*
Y-66554D01*
X109895D01*
X131584Y-56899D02*
Y-55129D01*
X129814D02*
X131584D01*
X126072Y-66940D02*
Y-65170D01*
Y-66940D02*
X127842D01*
X131584D02*
Y-65170D01*
X129814Y-66940D02*
X131584D01*
X126072Y-56899D02*
Y-55129D01*
X127842D01*
X141734Y-76823D02*
X143504D01*
Y-75053D01*
X131693Y-71311D02*
X133463D01*
X131693Y-73081D02*
Y-71311D01*
Y-76823D02*
X133463D01*
X131693D02*
Y-75053D01*
X141734Y-71311D02*
X143504D01*
Y-73081D02*
Y-71311D01*
X111693Y-88284D02*
X113463D01*
X111693Y-90055D02*
Y-88284D01*
X121734Y-93796D02*
X123504D01*
Y-92026D01*
X121734Y-88284D02*
X123504D01*
Y-90055D02*
Y-88284D01*
X111693Y-93796D02*
X113463D01*
X111693D02*
Y-92026D01*
X135278Y-93796D02*
X137048D01*
Y-92026D01*
X125237Y-88284D02*
X127007D01*
X125237Y-90055D02*
Y-88284D01*
Y-93796D02*
X127007D01*
X125237D02*
Y-92026D01*
X135278Y-88284D02*
X137048D01*
Y-90055D02*
Y-88284D01*
X107629Y-121906D02*
X109399D01*
Y-120135D01*
X97588Y-116394D02*
X99358D01*
X97588Y-118164D02*
Y-116394D01*
Y-121906D02*
X99358D01*
X97588D02*
Y-120135D01*
X107629Y-116394D02*
X109399D01*
Y-118164D02*
Y-116394D01*
X76029Y-135487D02*
Y-133717D01*
Y-135487D02*
X77799D01*
X81541Y-125446D02*
Y-123676D01*
X79771D02*
X81541D01*
X76029Y-125446D02*
Y-123676D01*
X77799D01*
X81541Y-135487D02*
Y-133717D01*
X79771Y-135487D02*
X81541D01*
X75997Y-148890D02*
Y-147120D01*
Y-148890D02*
X77767D01*
X81509Y-138849D02*
Y-137079D01*
X79739D02*
X81509D01*
X75997Y-138849D02*
Y-137079D01*
X77767D01*
X81509Y-148890D02*
Y-147120D01*
X79739Y-148890D02*
X81509D01*
X75997Y-121906D02*
Y-120135D01*
Y-121906D02*
X77767D01*
X81509Y-111865D02*
Y-110094D01*
X79739D02*
X81509D01*
X75997Y-111865D02*
Y-110094D01*
X77767D01*
X81509Y-121906D02*
Y-120135D01*
X79739Y-121906D02*
X81509D01*
X49192Y-130789D02*
X50710D01*
X49192Y-132307D02*
Y-130789D01*
X59485Y-150474D02*
X61003D01*
Y-148955D01*
X59485Y-130789D02*
X61003D01*
Y-132307D02*
Y-130789D01*
X49192Y-150474D02*
X50710D01*
X49192D02*
Y-148955D01*
X72887Y-139342D02*
X74405D01*
Y-137824D01*
X62594Y-119658D02*
X64113D01*
X62594Y-121176D02*
Y-119658D01*
Y-139342D02*
X64113D01*
X62594D02*
Y-137824D01*
X72887Y-119658D02*
X74405D01*
Y-121176D02*
Y-119658D01*
X64353Y-71515D02*
Y-69744D01*
X62583D02*
X64353D01*
X58841Y-81556D02*
Y-79785D01*
Y-81556D02*
X60611D01*
X64353D02*
Y-79785D01*
X62583Y-81556D02*
X64353D01*
X58841Y-71515D02*
Y-69744D01*
X60611D01*
X56353Y-71515D02*
Y-69744D01*
X54583D02*
X56353D01*
X50841Y-81556D02*
Y-79785D01*
Y-81556D02*
X52611D01*
X56353D02*
Y-79785D01*
X54583Y-81556D02*
X56353D01*
X50841Y-71515D02*
Y-69744D01*
X52611D01*
X183023Y-29906D02*
Y-28135D01*
Y-29906D02*
X184793D01*
X188534Y-19865D02*
Y-18094D01*
X186764D02*
X188534D01*
X183023Y-19865D02*
Y-18094D01*
X184793D01*
X188534Y-29906D02*
Y-28135D01*
X186764Y-29906D02*
X188534D01*
X190496Y-10883D02*
X192266D01*
X190496Y-12653D02*
Y-10883D01*
X200537Y-16395D02*
X202307D01*
Y-14625D01*
X200537Y-10883D02*
X202307D01*
Y-12653D02*
Y-10883D01*
X190496Y-16395D02*
X192266D01*
X190496D02*
Y-14625D01*
X195405Y-34012D02*
Y-32242D01*
X193635D02*
X195405D01*
X183595Y-37754D02*
Y-35983D01*
Y-37754D02*
X185365D01*
X183595Y-34012D02*
Y-32242D01*
X185365D01*
X195405Y-37754D02*
Y-35983D01*
X193635Y-37754D02*
X195405D01*
X219661Y-139801D02*
X221431D01*
Y-138031D01*
X215919Y-127990D02*
X217690D01*
X215919Y-129760D02*
Y-127990D01*
X219661D02*
X221431D01*
Y-129760D02*
Y-127990D01*
X215919Y-139801D02*
X217690D01*
X215919D02*
Y-138031D01*
X225986Y-76758D02*
X227756D01*
Y-74987D01*
X222244Y-64947D02*
X224014D01*
X222244Y-66717D02*
Y-64947D01*
X225986D02*
X227756D01*
Y-66717D02*
Y-64947D01*
X222244Y-76758D02*
X224014D01*
X222244D02*
Y-74987D01*
X208744Y-15595D02*
X210514D01*
X208744Y-17365D02*
Y-15595D01*
X212486Y-27406D02*
X214256D01*
Y-25635D01*
X208744Y-27406D02*
X210514D01*
X208744D02*
Y-25635D01*
X212486Y-15595D02*
X214256D01*
Y-17365D02*
Y-15595D01*
M02*
