G04*
G04 #@! TF.GenerationSoftware,Altium Limited,Altium Designer,20.2.5 (213)*
G04*
G04 Layer_Color=2752767*
%FSLAX25Y25*%
%MOIN*%
G70*
G04*
G04 #@! TF.SameCoordinates,1BF23072-F1D9-47F9-9BBB-D8FDC2CF676F*
G04*
G04*
G04 #@! TF.FilePolarity,Positive*
G04*
G01*
G75*
%ADD10C,0.01500*%
%ADD11C,0.00100*%
%ADD12C,0.01000*%
%ADD13C,0.00600*%
%ADD14C,0.00200*%
%ADD15C,0.01600*%
D10*
X706170Y-203386D02*
Y-107386D01*
X616758Y-131386D02*
X706170D01*
X616758Y-143386D02*
X706170D01*
X616758Y-155386D02*
X706170D01*
X616758Y-167386D02*
X706170D01*
X616758Y-179386D02*
X706170D01*
X616758Y-191386D02*
X706170D01*
X616758Y-203386D02*
X706170D01*
X616758D02*
Y-107386D01*
X567480Y-131386D02*
X616758D01*
X567480Y-143386D02*
X616758D01*
X567480Y-155386D02*
X616758D01*
X567480Y-167386D02*
X616758D01*
X567480Y-179386D02*
X616758D01*
X567480Y-191386D02*
X616758D01*
X567480Y-203386D02*
X616758D01*
X567480D02*
Y-107386D01*
X516088Y-131386D02*
X567480D01*
X516088Y-143386D02*
X567480D01*
X516088Y-155386D02*
X567480D01*
X516088Y-167386D02*
X567480D01*
X516088Y-179386D02*
X567480D01*
X516088Y-191386D02*
X567480D01*
X516088Y-203386D02*
X567480D01*
X516088D02*
Y-107386D01*
X449842Y-131386D02*
X516088D01*
X449842Y-143386D02*
X516088D01*
X449842Y-155386D02*
X516088D01*
X449842Y-167386D02*
X516088D01*
X449842Y-179386D02*
X516088D01*
X449842Y-191386D02*
X516088D01*
X449842Y-203386D02*
X516088D01*
X449842D02*
Y-107386D01*
X373369Y-131386D02*
X449842D01*
X373369Y-143386D02*
X449842D01*
X373369Y-155386D02*
X449842D01*
X373369Y-167386D02*
X449842D01*
X373369Y-179386D02*
X449842D01*
X373369Y-191386D02*
X449842D01*
X373369Y-203386D02*
X449842D01*
X373369D02*
Y-107386D01*
X338545Y-131386D02*
X373369D01*
X338545Y-143386D02*
X373369D01*
X338545Y-155386D02*
X373369D01*
X338545Y-167386D02*
X373369D01*
X338545Y-179386D02*
X373369D01*
X338545Y-191386D02*
X373369D01*
X338545Y-203386D02*
X373369D01*
X338545D02*
Y-107386D01*
X706170D01*
X338545Y-119386D02*
X706170D01*
X328368Y-256217D02*
X798149D01*
X328368Y-346217D02*
X798149D01*
X328368Y-361216D02*
X798149D01*
Y-241216D01*
X328368D02*
X798149D01*
X328368Y-361216D02*
Y-241216D01*
X744531Y-361216D02*
Y-241216D01*
X621270Y-361216D02*
Y-241216D01*
X562348Y-361216D02*
Y-241216D01*
X522657Y-361216D02*
Y-241216D01*
X422933Y-361216D02*
Y-241216D01*
X378626Y-361216D02*
Y-241216D01*
D11*
X616758Y-124798D02*
X622170Y-119386D01*
X616758Y-130798D02*
X628170Y-119386D01*
X622170Y-131386D02*
X634170Y-119386D01*
X628170Y-131386D02*
X640170Y-119386D01*
X634170Y-131386D02*
X646170Y-119386D01*
X640170Y-131386D02*
X652170Y-119386D01*
X646170Y-131386D02*
X658170Y-119386D01*
X652170Y-131386D02*
X664170Y-119386D01*
X658170Y-131386D02*
X670170Y-119386D01*
X664170Y-131386D02*
X676170Y-119386D01*
X670170Y-131386D02*
X682170Y-119386D01*
X676170Y-131386D02*
X688170Y-119386D01*
X682170Y-131386D02*
X694170Y-119386D01*
X688170Y-131386D02*
X700170Y-119386D01*
X694170Y-131386D02*
X706170Y-119386D01*
X700170Y-131386D02*
X706170Y-125386D01*
X616758Y-136798D02*
X622170Y-131386D01*
X616758Y-142798D02*
X628170Y-131386D01*
X622170Y-143386D02*
X634170Y-131386D01*
X628170Y-143386D02*
X640170Y-131386D01*
X634170Y-143386D02*
X646170Y-131386D01*
X640170Y-143386D02*
X652170Y-131386D01*
X646170Y-143386D02*
X658170Y-131386D01*
X652170Y-143386D02*
X664170Y-131386D01*
X658170Y-143386D02*
X670170Y-131386D01*
X664170Y-143386D02*
X676170Y-131386D01*
X670170Y-143386D02*
X682170Y-131386D01*
X676170Y-143386D02*
X688170Y-131386D01*
X682170Y-143386D02*
X694170Y-131386D01*
X688170Y-143386D02*
X700170Y-131386D01*
X694170Y-143386D02*
X706170Y-131386D01*
X700170Y-143386D02*
X706170Y-137386D01*
X616758Y-148798D02*
X622170Y-143386D01*
X616758Y-154798D02*
X628170Y-143386D01*
X622170Y-155386D02*
X634170Y-143386D01*
X628170Y-155386D02*
X640170Y-143386D01*
X634170Y-155386D02*
X646170Y-143386D01*
X640170Y-155386D02*
X652170Y-143386D01*
X646170Y-155386D02*
X658170Y-143386D01*
X652170Y-155386D02*
X664170Y-143386D01*
X658170Y-155386D02*
X670170Y-143386D01*
X664170Y-155386D02*
X676170Y-143386D01*
X670170Y-155386D02*
X682170Y-143386D01*
X676170Y-155386D02*
X688170Y-143386D01*
X682170Y-155386D02*
X694170Y-143386D01*
X688170Y-155386D02*
X700170Y-143386D01*
X694170Y-155386D02*
X706170Y-143386D01*
X700170Y-155386D02*
X706170Y-149386D01*
X616758Y-160798D02*
X622170Y-155386D01*
X616758Y-166798D02*
X628170Y-155386D01*
X622170Y-167386D02*
X634170Y-155386D01*
X628170Y-167386D02*
X640170Y-155386D01*
X634170Y-167386D02*
X646170Y-155386D01*
X640170Y-167386D02*
X652170Y-155386D01*
X646170Y-167386D02*
X658170Y-155386D01*
X652170Y-167386D02*
X664170Y-155386D01*
X658170Y-167386D02*
X670170Y-155386D01*
X664170Y-167386D02*
X676170Y-155386D01*
X670170Y-167386D02*
X682170Y-155386D01*
X676170Y-167386D02*
X688170Y-155386D01*
X682170Y-167386D02*
X694170Y-155386D01*
X688170Y-167386D02*
X700170Y-155386D01*
X694170Y-167386D02*
X706170Y-155386D01*
X700170Y-167386D02*
X706170Y-161386D01*
X616758Y-172798D02*
X622170Y-167386D01*
X616758Y-178798D02*
X628170Y-167386D01*
X622170Y-179386D02*
X634170Y-167386D01*
X628170Y-179386D02*
X640170Y-167386D01*
X634170Y-179386D02*
X646170Y-167386D01*
X640170Y-179386D02*
X652170Y-167386D01*
X646170Y-179386D02*
X658170Y-167386D01*
X652170Y-179386D02*
X664170Y-167386D01*
X658170Y-179386D02*
X670170Y-167386D01*
X664170Y-179386D02*
X676170Y-167386D01*
X670170Y-179386D02*
X682170Y-167386D01*
X676170Y-179386D02*
X688170Y-167386D01*
X682170Y-179386D02*
X694170Y-167386D01*
X688170Y-179386D02*
X700170Y-167386D01*
X694170Y-179386D02*
X706170Y-167386D01*
X700170Y-179386D02*
X706170Y-173386D01*
X616758Y-184798D02*
X622170Y-179386D01*
X616758Y-190798D02*
X628170Y-179386D01*
X622170Y-191386D02*
X634170Y-179386D01*
X628170Y-191386D02*
X640170Y-179386D01*
X634170Y-191386D02*
X646170Y-179386D01*
X640170Y-191386D02*
X652170Y-179386D01*
X646170Y-191386D02*
X658170Y-179386D01*
X652170Y-191386D02*
X664170Y-179386D01*
X658170Y-191386D02*
X670170Y-179386D01*
X664170Y-191386D02*
X676170Y-179386D01*
X670170Y-191386D02*
X682170Y-179386D01*
X676170Y-191386D02*
X688170Y-179386D01*
X682170Y-191386D02*
X694170Y-179386D01*
X688170Y-191386D02*
X700170Y-179386D01*
X694170Y-191386D02*
X706170Y-179386D01*
X700170Y-191386D02*
X706170Y-185386D01*
X616758Y-196798D02*
X622170Y-191386D01*
X616758Y-202798D02*
X628170Y-191386D01*
X622170Y-203386D02*
X634170Y-191386D01*
X628170Y-203386D02*
X640170Y-191386D01*
X634170Y-203386D02*
X646170Y-191386D01*
X640170Y-203386D02*
X652170Y-191386D01*
X646170Y-203386D02*
X658170Y-191386D01*
X652170Y-203386D02*
X664170Y-191386D01*
X658170Y-203386D02*
X670170Y-191386D01*
X664170Y-203386D02*
X676170Y-191386D01*
X670170Y-203386D02*
X682170Y-191386D01*
X676170Y-203386D02*
X688170Y-191386D01*
X682170Y-203386D02*
X694170Y-191386D01*
X688170Y-203386D02*
X700170Y-191386D01*
X694170Y-203386D02*
X706170Y-191386D01*
X700170Y-203386D02*
X706170Y-197386D01*
D12*
X271654Y-196850D02*
X275591D01*
X275590Y-31496D02*
X275591Y-196850D01*
X0Y0D02*
X275590D01*
Y-31496D02*
Y0D01*
X263779Y-196850D02*
X271654D01*
X0D02*
X263779D01*
X0D02*
Y0D01*
X277091D02*
X285252D01*
X277091Y-196850D02*
X285252D01*
X284252Y-79572D02*
Y0D01*
Y-196850D02*
Y-120478D01*
X282252Y-6000D02*
X284252Y0D01*
X286252Y-6000D01*
X284252Y-196850D02*
X286252Y-190850D01*
X282252D02*
X284252Y-196850D01*
X275591Y-203707D02*
Y-198350D01*
X0Y-203707D02*
Y-198350D01*
X156648Y-202707D02*
X275591D01*
X0D02*
X115742D01*
X269591Y-200707D02*
X275591Y-202707D01*
X269591Y-204707D02*
X275591Y-202707D01*
X0D02*
X6000Y-204707D01*
X0Y-202707D02*
X6000Y-200707D01*
X523088Y-207530D02*
X523659Y-207244D01*
X524516Y-206387D01*
Y-212386D01*
X527772Y-211814D02*
X527487Y-212100D01*
X527772Y-212386D01*
X528058Y-212100D01*
X527772Y-211814D01*
X532800Y-206387D02*
X529943D01*
X529658Y-208958D01*
X529943Y-208672D01*
X530800Y-208387D01*
X531657D01*
X532514Y-208672D01*
X533085Y-209244D01*
X533371Y-210101D01*
Y-210672D01*
X533085Y-211529D01*
X532514Y-212100D01*
X531657Y-212386D01*
X530800D01*
X529943Y-212100D01*
X529658Y-211814D01*
X529372Y-211243D01*
X538427Y-208387D02*
X538142Y-209244D01*
X537570Y-209815D01*
X536713Y-210101D01*
X536428D01*
X535571Y-209815D01*
X534999Y-209244D01*
X534714Y-208387D01*
Y-208101D01*
X534999Y-207244D01*
X535571Y-206673D01*
X536428Y-206387D01*
X536713D01*
X537570Y-206673D01*
X538142Y-207244D01*
X538427Y-208387D01*
Y-209815D01*
X538142Y-211243D01*
X537570Y-212100D01*
X536713Y-212386D01*
X536142D01*
X535285Y-212100D01*
X534999Y-211529D01*
X540056Y-207530D02*
X540627Y-207244D01*
X541484Y-206387D01*
Y-212386D01*
X544454Y-208387D02*
Y-212386D01*
Y-209529D02*
X545311Y-208672D01*
X545883Y-208387D01*
X546740D01*
X547311Y-208672D01*
X547597Y-209529D01*
Y-212386D01*
Y-209529D02*
X548454Y-208672D01*
X549025Y-208387D01*
X549882D01*
X550453Y-208672D01*
X550739Y-209529D01*
Y-212386D01*
X552624Y-208387D02*
Y-212386D01*
Y-209529D02*
X553481Y-208672D01*
X554052Y-208387D01*
X554909D01*
X555481Y-208672D01*
X555766Y-209529D01*
Y-212386D01*
Y-209529D02*
X556623Y-208672D01*
X557195Y-208387D01*
X558052D01*
X558623Y-208672D01*
X558909Y-209529D01*
Y-212386D01*
X347545Y-206387D02*
Y-212386D01*
X345545Y-206387D02*
X349544D01*
X351687Y-208387D02*
X351115Y-208672D01*
X350544Y-209244D01*
X350259Y-210101D01*
Y-210672D01*
X350544Y-211529D01*
X351115Y-212100D01*
X351687Y-212386D01*
X352544D01*
X353115Y-212100D01*
X353686Y-211529D01*
X353972Y-210672D01*
Y-210101D01*
X353686Y-209244D01*
X353115Y-208672D01*
X352544Y-208387D01*
X351687D01*
X356143Y-206387D02*
Y-211243D01*
X356429Y-212100D01*
X357000Y-212386D01*
X357571D01*
X355286Y-208387D02*
X357286D01*
X361856D02*
Y-212386D01*
Y-209244D02*
X361285Y-208672D01*
X360714Y-208387D01*
X359857D01*
X359285Y-208672D01*
X358714Y-209244D01*
X358428Y-210101D01*
Y-210672D01*
X358714Y-211529D01*
X359285Y-212100D01*
X359857Y-212386D01*
X360714D01*
X361285Y-212100D01*
X361856Y-211529D01*
X363456Y-206387D02*
Y-212386D01*
X369426Y-206387D02*
Y-212386D01*
Y-209244D02*
X369997Y-208672D01*
X370568Y-208387D01*
X371425D01*
X371997Y-208672D01*
X372568Y-209244D01*
X372854Y-210101D01*
Y-210672D01*
X372568Y-211529D01*
X371997Y-212100D01*
X371425Y-212386D01*
X370568D01*
X369997Y-212100D01*
X369426Y-211529D01*
X375567Y-208387D02*
X374996Y-208672D01*
X374425Y-209244D01*
X374139Y-210101D01*
Y-210672D01*
X374425Y-211529D01*
X374996Y-212100D01*
X375567Y-212386D01*
X376424D01*
X376996Y-212100D01*
X377567Y-211529D01*
X377853Y-210672D01*
Y-210101D01*
X377567Y-209244D01*
X376996Y-208672D01*
X376424Y-208387D01*
X375567D01*
X382594D02*
Y-212386D01*
Y-209244D02*
X382023Y-208672D01*
X381452Y-208387D01*
X380595D01*
X380024Y-208672D01*
X379452Y-209244D01*
X379167Y-210101D01*
Y-210672D01*
X379452Y-211529D01*
X380024Y-212100D01*
X380595Y-212386D01*
X381452D01*
X382023Y-212100D01*
X382594Y-211529D01*
X384194Y-208387D02*
Y-212386D01*
Y-210101D02*
X384480Y-209244D01*
X385051Y-208672D01*
X385622Y-208387D01*
X386479D01*
X390450Y-206387D02*
Y-212386D01*
Y-209244D02*
X389879Y-208672D01*
X389307Y-208387D01*
X388450D01*
X387879Y-208672D01*
X387308Y-209244D01*
X387022Y-210101D01*
Y-210672D01*
X387308Y-211529D01*
X387879Y-212100D01*
X388450Y-212386D01*
X389307D01*
X389879Y-212100D01*
X390450Y-211529D01*
X397620Y-206387D02*
Y-211243D01*
X397905Y-212100D01*
X398477Y-212386D01*
X399048D01*
X396763Y-208387D02*
X398762D01*
X399905Y-206387D02*
Y-212386D01*
Y-209529D02*
X400762Y-208672D01*
X401333Y-208387D01*
X402190D01*
X402762Y-208672D01*
X403047Y-209529D01*
Y-212386D01*
X405190Y-206387D02*
X405475Y-206673D01*
X405761Y-206387D01*
X405475Y-206101D01*
X405190Y-206387D01*
X405475Y-208387D02*
Y-212386D01*
X410246Y-209244D02*
X409674Y-208672D01*
X409103Y-208387D01*
X408246D01*
X407675Y-208672D01*
X407103Y-209244D01*
X406818Y-210101D01*
Y-210672D01*
X407103Y-211529D01*
X407675Y-212100D01*
X408246Y-212386D01*
X409103D01*
X409674Y-212100D01*
X410246Y-211529D01*
X411531Y-206387D02*
Y-212386D01*
X414388Y-208387D02*
X411531Y-211243D01*
X412674Y-210101D02*
X414673Y-212386D01*
X415616Y-208387D02*
Y-212386D01*
Y-209529D02*
X416473Y-208672D01*
X417044Y-208387D01*
X417901D01*
X418472Y-208672D01*
X418758Y-209529D01*
Y-212386D01*
X420329Y-210101D02*
X423757D01*
Y-209529D01*
X423471Y-208958D01*
X423186Y-208672D01*
X422614Y-208387D01*
X421758D01*
X421186Y-208672D01*
X420615Y-209244D01*
X420329Y-210101D01*
Y-210672D01*
X420615Y-211529D01*
X421186Y-212100D01*
X421758Y-212386D01*
X422614D01*
X423186Y-212100D01*
X423757Y-211529D01*
X428185Y-209244D02*
X427899Y-208672D01*
X427042Y-208387D01*
X426185D01*
X425328Y-208672D01*
X425042Y-209244D01*
X425328Y-209815D01*
X425900Y-210101D01*
X427328Y-210386D01*
X427899Y-210672D01*
X428185Y-211243D01*
Y-211529D01*
X427899Y-212100D01*
X427042Y-212386D01*
X426185D01*
X425328Y-212100D01*
X425042Y-211529D01*
X432584Y-209244D02*
X432298Y-208672D01*
X431441Y-208387D01*
X430584D01*
X429727Y-208672D01*
X429442Y-209244D01*
X429727Y-209815D01*
X430299Y-210101D01*
X431727Y-210386D01*
X432298Y-210672D01*
X432584Y-211243D01*
Y-211529D01*
X432298Y-212100D01*
X431441Y-212386D01*
X430584D01*
X429727Y-212100D01*
X429442Y-211529D01*
X434126Y-208387D02*
X433841Y-208672D01*
X434126Y-208958D01*
X434412Y-208672D01*
X434126Y-208387D01*
Y-211814D02*
X433841Y-212100D01*
X434126Y-212386D01*
X434412Y-212100D01*
X434126Y-211814D01*
X623758Y-110387D02*
Y-116386D01*
Y-110387D02*
X626329D01*
X627186Y-110673D01*
X627471Y-110958D01*
X627757Y-111530D01*
Y-112101D01*
X627471Y-112672D01*
X627186Y-112958D01*
X626329Y-113244D01*
X623758D02*
X626329D01*
X627186Y-113529D01*
X627471Y-113815D01*
X627757Y-114386D01*
Y-115243D01*
X627471Y-115814D01*
X627186Y-116100D01*
X626329Y-116386D01*
X623758D01*
X630528Y-112387D02*
X629956Y-112672D01*
X629385Y-113244D01*
X629100Y-114101D01*
Y-114672D01*
X629385Y-115529D01*
X629956Y-116100D01*
X630528Y-116386D01*
X631385D01*
X631956Y-116100D01*
X632527Y-115529D01*
X632813Y-114672D01*
Y-114101D01*
X632527Y-113244D01*
X631956Y-112672D01*
X631385Y-112387D01*
X630528D01*
X637555D02*
Y-116386D01*
Y-113244D02*
X636984Y-112672D01*
X636412Y-112387D01*
X635555D01*
X634984Y-112672D01*
X634413Y-113244D01*
X634127Y-114101D01*
Y-114672D01*
X634413Y-115529D01*
X634984Y-116100D01*
X635555Y-116386D01*
X636412D01*
X636984Y-116100D01*
X637555Y-115529D01*
X639154Y-112387D02*
Y-116386D01*
Y-114101D02*
X639440Y-113244D01*
X640012Y-112672D01*
X640583Y-112387D01*
X641440D01*
X645410Y-110387D02*
Y-116386D01*
Y-113244D02*
X644839Y-112672D01*
X644268Y-112387D01*
X643411D01*
X642839Y-112672D01*
X642268Y-113244D01*
X641983Y-114101D01*
Y-114672D01*
X642268Y-115529D01*
X642839Y-116100D01*
X643411Y-116386D01*
X644268D01*
X644839Y-116100D01*
X645410Y-115529D01*
X651723Y-110387D02*
Y-116386D01*
X655151D01*
X659236Y-112387D02*
Y-116386D01*
Y-113244D02*
X658665Y-112672D01*
X658093Y-112387D01*
X657236D01*
X656665Y-112672D01*
X656094Y-113244D01*
X655808Y-114101D01*
Y-114672D01*
X656094Y-115529D01*
X656665Y-116100D01*
X657236Y-116386D01*
X658093D01*
X658665Y-116100D01*
X659236Y-115529D01*
X661121Y-112387D02*
X662835Y-116386D01*
X664549Y-112387D02*
X662835Y-116386D01*
X662264Y-117528D01*
X661692Y-118100D01*
X661121Y-118385D01*
X660836D01*
X665549Y-114101D02*
X668977D01*
Y-113529D01*
X668691Y-112958D01*
X668405Y-112672D01*
X667834Y-112387D01*
X666977D01*
X666406Y-112672D01*
X665835Y-113244D01*
X665549Y-114101D01*
Y-114672D01*
X665835Y-115529D01*
X666406Y-116100D01*
X666977Y-116386D01*
X667834D01*
X668405Y-116100D01*
X668977Y-115529D01*
X670262Y-112387D02*
Y-116386D01*
Y-114101D02*
X670548Y-113244D01*
X671119Y-112672D01*
X671690Y-112387D01*
X672547D01*
X681803Y-111244D02*
X681231Y-110673D01*
X680374Y-110387D01*
X679232D01*
X678375Y-110673D01*
X677803Y-111244D01*
Y-111815D01*
X678089Y-112387D01*
X678375Y-112672D01*
X678946Y-112958D01*
X680660Y-113529D01*
X681231Y-113815D01*
X681517Y-114101D01*
X681803Y-114672D01*
Y-115529D01*
X681231Y-116100D01*
X680374Y-116386D01*
X679232D01*
X678375Y-116100D01*
X677803Y-115529D01*
X684002Y-110387D02*
Y-115243D01*
X684288Y-116100D01*
X684859Y-116386D01*
X685430D01*
X683145Y-112387D02*
X685145D01*
X689715D02*
Y-116386D01*
Y-113244D02*
X689144Y-112672D01*
X688573Y-112387D01*
X687715D01*
X687144Y-112672D01*
X686573Y-113244D01*
X686287Y-114101D01*
Y-114672D01*
X686573Y-115529D01*
X687144Y-116100D01*
X687715Y-116386D01*
X688573D01*
X689144Y-116100D01*
X689715Y-115529D01*
X694743Y-113244D02*
X694171Y-112672D01*
X693600Y-112387D01*
X692743D01*
X692172Y-112672D01*
X691600Y-113244D01*
X691315Y-114101D01*
Y-114672D01*
X691600Y-115529D01*
X692172Y-116100D01*
X692743Y-116386D01*
X693600D01*
X694171Y-116100D01*
X694743Y-115529D01*
X696028Y-110387D02*
Y-116386D01*
X698885Y-112387D02*
X696028Y-115243D01*
X697171Y-114101D02*
X699170Y-116386D01*
X575051Y-134387D02*
X578193D01*
X576479Y-136672D01*
X577336D01*
X577908Y-136958D01*
X578193Y-137244D01*
X578479Y-138101D01*
Y-138672D01*
X578193Y-139529D01*
X577622Y-140100D01*
X576765Y-140386D01*
X575908D01*
X575051Y-140100D01*
X574765Y-139814D01*
X574480Y-139243D01*
X580107Y-139814D02*
X579821Y-140100D01*
X580107Y-140386D01*
X580393Y-140100D01*
X580107Y-139814D01*
X585135Y-134387D02*
X582278D01*
X581992Y-136958D01*
X582278Y-136672D01*
X583135Y-136387D01*
X583992D01*
X584849Y-136672D01*
X585420Y-137244D01*
X585706Y-138101D01*
Y-138672D01*
X585420Y-139529D01*
X584849Y-140100D01*
X583992Y-140386D01*
X583135D01*
X582278Y-140100D01*
X581992Y-139814D01*
X581707Y-139243D01*
X577336Y-158387D02*
X574480Y-162386D01*
X578764D01*
X577336Y-158387D02*
Y-164386D01*
X580107Y-163814D02*
X579821Y-164100D01*
X580107Y-164386D01*
X580393Y-164100D01*
X580107Y-163814D01*
X583135Y-158387D02*
X582278Y-158673D01*
X581992Y-159244D01*
Y-159815D01*
X582278Y-160387D01*
X582849Y-160672D01*
X583992Y-160958D01*
X584849Y-161244D01*
X585420Y-161815D01*
X585706Y-162386D01*
Y-163243D01*
X585420Y-163814D01*
X585135Y-164100D01*
X584278Y-164386D01*
X583135D01*
X582278Y-164100D01*
X581992Y-163814D01*
X581707Y-163243D01*
Y-162386D01*
X581992Y-161815D01*
X582564Y-161244D01*
X583421Y-160958D01*
X584563Y-160672D01*
X585135Y-160387D01*
X585420Y-159815D01*
Y-159244D01*
X585135Y-158673D01*
X584278Y-158387D01*
X583135D01*
X575051Y-182387D02*
X578193D01*
X576479Y-184672D01*
X577336D01*
X577908Y-184958D01*
X578193Y-185244D01*
X578479Y-186101D01*
Y-186672D01*
X578193Y-187529D01*
X577622Y-188100D01*
X576765Y-188386D01*
X575908D01*
X575051Y-188100D01*
X574765Y-187814D01*
X574480Y-187243D01*
X580107Y-187814D02*
X579821Y-188100D01*
X580107Y-188386D01*
X580393Y-188100D01*
X580107Y-187814D01*
X585135Y-182387D02*
X582278D01*
X581992Y-184958D01*
X582278Y-184672D01*
X583135Y-184387D01*
X583992D01*
X584849Y-184672D01*
X585420Y-185244D01*
X585706Y-186101D01*
Y-186672D01*
X585420Y-187529D01*
X584849Y-188100D01*
X583992Y-188386D01*
X583135D01*
X582278Y-188100D01*
X581992Y-187814D01*
X581707Y-187243D01*
X578764Y-111815D02*
X578479Y-111244D01*
X577908Y-110673D01*
X577336Y-110387D01*
X576194D01*
X575622Y-110673D01*
X575051Y-111244D01*
X574765Y-111815D01*
X574480Y-112672D01*
Y-114101D01*
X574765Y-114958D01*
X575051Y-115529D01*
X575622Y-116100D01*
X576194Y-116386D01*
X577336D01*
X577908Y-116100D01*
X578479Y-115529D01*
X578764Y-114958D01*
X581878Y-112387D02*
X581307Y-112672D01*
X580735Y-113244D01*
X580450Y-114101D01*
Y-114672D01*
X580735Y-115529D01*
X581307Y-116100D01*
X581878Y-116386D01*
X582735D01*
X583306Y-116100D01*
X583878Y-115529D01*
X584163Y-114672D01*
Y-114101D01*
X583878Y-113244D01*
X583306Y-112672D01*
X582735Y-112387D01*
X581878D01*
X585477D02*
Y-116386D01*
Y-113529D02*
X586334Y-112672D01*
X586906Y-112387D01*
X587762D01*
X588334Y-112672D01*
X588620Y-113529D01*
Y-116386D01*
X593333Y-113244D02*
X593047Y-112672D01*
X592190Y-112387D01*
X591333D01*
X590476Y-112672D01*
X590191Y-113244D01*
X590476Y-113815D01*
X591047Y-114101D01*
X592476Y-114386D01*
X593047Y-114672D01*
X593333Y-115243D01*
Y-115529D01*
X593047Y-116100D01*
X592190Y-116386D01*
X591333D01*
X590476Y-116100D01*
X590191Y-115529D01*
X595447Y-110387D02*
Y-115243D01*
X595732Y-116100D01*
X596304Y-116386D01*
X596875D01*
X594590Y-112387D02*
X596589D01*
X601160D02*
Y-116386D01*
Y-113244D02*
X600588Y-112672D01*
X600017Y-112387D01*
X599160D01*
X598589Y-112672D01*
X598018Y-113244D01*
X597732Y-114101D01*
Y-114672D01*
X598018Y-115529D01*
X598589Y-116100D01*
X599160Y-116386D01*
X600017D01*
X600588Y-116100D01*
X601160Y-115529D01*
X602759Y-112387D02*
Y-116386D01*
Y-113529D02*
X603616Y-112672D01*
X604188Y-112387D01*
X605045D01*
X605616Y-112672D01*
X605901Y-113529D01*
Y-116386D01*
X608330Y-110387D02*
Y-115243D01*
X608615Y-116100D01*
X609187Y-116386D01*
X609758D01*
X607473Y-112387D02*
X609472D01*
X524802Y-134387D02*
X523945Y-134673D01*
X523373Y-135530D01*
X523088Y-136958D01*
Y-137815D01*
X523373Y-139243D01*
X523945Y-140100D01*
X524802Y-140386D01*
X525373D01*
X526230Y-140100D01*
X526801Y-139243D01*
X527087Y-137815D01*
Y-136958D01*
X526801Y-135530D01*
X526230Y-134673D01*
X525373Y-134387D01*
X524802D01*
X528715Y-139814D02*
X528429Y-140100D01*
X528715Y-140386D01*
X529001Y-140100D01*
X528715Y-139814D01*
X532029Y-134387D02*
X531172Y-134673D01*
X530600Y-135530D01*
X530315Y-136958D01*
Y-137815D01*
X530600Y-139243D01*
X531172Y-140100D01*
X532029Y-140386D01*
X532600D01*
X533457Y-140100D01*
X534028Y-139243D01*
X534314Y-137815D01*
Y-136958D01*
X534028Y-135530D01*
X533457Y-134673D01*
X532600Y-134387D01*
X532029D01*
X535656Y-135530D02*
X536228Y-135244D01*
X537085Y-134387D01*
Y-140386D01*
X541769Y-134387D02*
X540912Y-134673D01*
X540341Y-135530D01*
X540056Y-136958D01*
Y-137815D01*
X540341Y-139243D01*
X540912Y-140100D01*
X541769Y-140386D01*
X542341D01*
X543198Y-140100D01*
X543769Y-139243D01*
X544055Y-137815D01*
Y-136958D01*
X543769Y-135530D01*
X543198Y-134673D01*
X542341Y-134387D01*
X541769D01*
X545397Y-136387D02*
Y-140386D01*
Y-137529D02*
X546254Y-136672D01*
X546825Y-136387D01*
X547682D01*
X548254Y-136672D01*
X548539Y-137529D01*
Y-140386D01*
Y-137529D02*
X549396Y-136672D01*
X549968Y-136387D01*
X550825D01*
X551396Y-136672D01*
X551682Y-137529D01*
Y-140386D01*
X553567Y-136387D02*
Y-140386D01*
Y-137529D02*
X554424Y-136672D01*
X554995Y-136387D01*
X555852D01*
X556423Y-136672D01*
X556709Y-137529D01*
Y-140386D01*
Y-137529D02*
X557566Y-136672D01*
X558137Y-136387D01*
X558994D01*
X559565Y-136672D01*
X559851Y-137529D01*
Y-140386D01*
X524802Y-146387D02*
X523945Y-146673D01*
X523373Y-147530D01*
X523088Y-148958D01*
Y-149815D01*
X523373Y-151243D01*
X523945Y-152100D01*
X524802Y-152386D01*
X525373D01*
X526230Y-152100D01*
X526801Y-151243D01*
X527087Y-149815D01*
Y-148958D01*
X526801Y-147530D01*
X526230Y-146673D01*
X525373Y-146387D01*
X524802D01*
X528715Y-151814D02*
X528429Y-152100D01*
X528715Y-152386D01*
X529001Y-152100D01*
X528715Y-151814D01*
X532029Y-146387D02*
X531172Y-146673D01*
X530600Y-147530D01*
X530315Y-148958D01*
Y-149815D01*
X530600Y-151243D01*
X531172Y-152100D01*
X532029Y-152386D01*
X532600D01*
X533457Y-152100D01*
X534028Y-151243D01*
X534314Y-149815D01*
Y-148958D01*
X534028Y-147530D01*
X533457Y-146673D01*
X532600Y-146387D01*
X532029D01*
X536228D02*
X539370D01*
X537656Y-148672D01*
X538513D01*
X539084Y-148958D01*
X539370Y-149244D01*
X539655Y-150101D01*
Y-150672D01*
X539370Y-151529D01*
X538799Y-152100D01*
X537942Y-152386D01*
X537085D01*
X536228Y-152100D01*
X535942Y-151814D01*
X535656Y-151243D01*
X544426Y-147244D02*
X544140Y-146673D01*
X543283Y-146387D01*
X542712D01*
X541855Y-146673D01*
X541284Y-147530D01*
X540998Y-148958D01*
Y-150386D01*
X541284Y-151529D01*
X541855Y-152100D01*
X542712Y-152386D01*
X542998D01*
X543855Y-152100D01*
X544426Y-151529D01*
X544712Y-150672D01*
Y-150386D01*
X544426Y-149529D01*
X543855Y-148958D01*
X542998Y-148672D01*
X542712D01*
X541855Y-148958D01*
X541284Y-149529D01*
X540998Y-150386D01*
X546026Y-148387D02*
Y-152386D01*
Y-149529D02*
X546882Y-148672D01*
X547454Y-148387D01*
X548311D01*
X548882Y-148672D01*
X549168Y-149529D01*
Y-152386D01*
Y-149529D02*
X550025Y-148672D01*
X550596Y-148387D01*
X551453D01*
X552024Y-148672D01*
X552310Y-149529D01*
Y-152386D01*
X554195Y-148387D02*
Y-152386D01*
Y-149529D02*
X555052Y-148672D01*
X555623Y-148387D01*
X556481D01*
X557052Y-148672D01*
X557337Y-149529D01*
Y-152386D01*
Y-149529D02*
X558194Y-148672D01*
X558766Y-148387D01*
X559623D01*
X560194Y-148672D01*
X560480Y-149529D01*
Y-152386D01*
X523088Y-159530D02*
X523659Y-159244D01*
X524516Y-158387D01*
Y-164386D01*
X527772Y-163814D02*
X527487Y-164100D01*
X527772Y-164386D01*
X528058Y-164100D01*
X527772Y-163814D01*
X532800Y-158387D02*
X529943D01*
X529658Y-160958D01*
X529943Y-160672D01*
X530800Y-160387D01*
X531657D01*
X532514Y-160672D01*
X533085Y-161244D01*
X533371Y-162101D01*
Y-162672D01*
X533085Y-163529D01*
X532514Y-164100D01*
X531657Y-164386D01*
X530800D01*
X529943Y-164100D01*
X529658Y-163814D01*
X529372Y-163243D01*
X536428Y-158387D02*
X535571Y-158673D01*
X534999Y-159530D01*
X534714Y-160958D01*
Y-161815D01*
X534999Y-163243D01*
X535571Y-164100D01*
X536428Y-164386D01*
X536999D01*
X537856Y-164100D01*
X538427Y-163243D01*
X538713Y-161815D01*
Y-160958D01*
X538427Y-159530D01*
X537856Y-158673D01*
X536999Y-158387D01*
X536428D01*
X541769D02*
X540912Y-158673D01*
X540341Y-159530D01*
X540056Y-160958D01*
Y-161815D01*
X540341Y-163243D01*
X540912Y-164100D01*
X541769Y-164386D01*
X542341D01*
X543198Y-164100D01*
X543769Y-163243D01*
X544055Y-161815D01*
Y-160958D01*
X543769Y-159530D01*
X543198Y-158673D01*
X542341Y-158387D01*
X541769D01*
X545397Y-160387D02*
Y-164386D01*
Y-161529D02*
X546254Y-160672D01*
X546825Y-160387D01*
X547682D01*
X548254Y-160672D01*
X548539Y-161529D01*
Y-164386D01*
Y-161529D02*
X549396Y-160672D01*
X549968Y-160387D01*
X550825D01*
X551396Y-160672D01*
X551682Y-161529D01*
Y-164386D01*
X553567Y-160387D02*
Y-164386D01*
Y-161529D02*
X554424Y-160672D01*
X554995Y-160387D01*
X555852D01*
X556423Y-160672D01*
X556709Y-161529D01*
Y-164386D01*
Y-161529D02*
X557566Y-160672D01*
X558137Y-160387D01*
X558994D01*
X559565Y-160672D01*
X559851Y-161529D01*
Y-164386D01*
X524802Y-170387D02*
X523945Y-170673D01*
X523373Y-171530D01*
X523088Y-172958D01*
Y-173815D01*
X523373Y-175243D01*
X523945Y-176100D01*
X524802Y-176386D01*
X525373D01*
X526230Y-176100D01*
X526801Y-175243D01*
X527087Y-173815D01*
Y-172958D01*
X526801Y-171530D01*
X526230Y-170673D01*
X525373Y-170387D01*
X524802D01*
X528715Y-175814D02*
X528429Y-176100D01*
X528715Y-176386D01*
X529001Y-176100D01*
X528715Y-175814D01*
X532029Y-170387D02*
X531172Y-170673D01*
X530600Y-171530D01*
X530315Y-172958D01*
Y-173815D01*
X530600Y-175243D01*
X531172Y-176100D01*
X532029Y-176386D01*
X532600D01*
X533457Y-176100D01*
X534028Y-175243D01*
X534314Y-173815D01*
Y-172958D01*
X534028Y-171530D01*
X533457Y-170673D01*
X532600Y-170387D01*
X532029D01*
X536228D02*
X539370D01*
X537656Y-172672D01*
X538513D01*
X539084Y-172958D01*
X539370Y-173244D01*
X539655Y-174101D01*
Y-174672D01*
X539370Y-175529D01*
X538799Y-176100D01*
X537942Y-176386D01*
X537085D01*
X536228Y-176100D01*
X535942Y-175814D01*
X535656Y-175243D01*
X544426Y-171244D02*
X544140Y-170673D01*
X543283Y-170387D01*
X542712D01*
X541855Y-170673D01*
X541284Y-171530D01*
X540998Y-172958D01*
Y-174386D01*
X541284Y-175529D01*
X541855Y-176100D01*
X542712Y-176386D01*
X542998D01*
X543855Y-176100D01*
X544426Y-175529D01*
X544712Y-174672D01*
Y-174386D01*
X544426Y-173529D01*
X543855Y-172958D01*
X542998Y-172672D01*
X542712D01*
X541855Y-172958D01*
X541284Y-173529D01*
X540998Y-174386D01*
X546026Y-172387D02*
Y-176386D01*
Y-173529D02*
X546882Y-172672D01*
X547454Y-172387D01*
X548311D01*
X548882Y-172672D01*
X549168Y-173529D01*
Y-176386D01*
Y-173529D02*
X550025Y-172672D01*
X550596Y-172387D01*
X551453D01*
X552024Y-172672D01*
X552310Y-173529D01*
Y-176386D01*
X554195Y-172387D02*
Y-176386D01*
Y-173529D02*
X555052Y-172672D01*
X555623Y-172387D01*
X556481D01*
X557052Y-172672D01*
X557337Y-173529D01*
Y-176386D01*
Y-173529D02*
X558194Y-172672D01*
X558766Y-172387D01*
X559623D01*
X560194Y-172672D01*
X560480Y-173529D01*
Y-176386D01*
X524802Y-182387D02*
X523945Y-182673D01*
X523373Y-183530D01*
X523088Y-184958D01*
Y-185815D01*
X523373Y-187243D01*
X523945Y-188100D01*
X524802Y-188386D01*
X525373D01*
X526230Y-188100D01*
X526801Y-187243D01*
X527087Y-185815D01*
Y-184958D01*
X526801Y-183530D01*
X526230Y-182673D01*
X525373Y-182387D01*
X524802D01*
X528715Y-187814D02*
X528429Y-188100D01*
X528715Y-188386D01*
X529001Y-188100D01*
X528715Y-187814D01*
X532029Y-182387D02*
X531172Y-182673D01*
X530600Y-183530D01*
X530315Y-184958D01*
Y-185815D01*
X530600Y-187243D01*
X531172Y-188100D01*
X532029Y-188386D01*
X532600D01*
X533457Y-188100D01*
X534028Y-187243D01*
X534314Y-185815D01*
Y-184958D01*
X534028Y-183530D01*
X533457Y-182673D01*
X532600Y-182387D01*
X532029D01*
X535656Y-183530D02*
X536228Y-183244D01*
X537085Y-182387D01*
Y-188386D01*
X541769Y-182387D02*
X540912Y-182673D01*
X540341Y-183530D01*
X540056Y-184958D01*
Y-185815D01*
X540341Y-187243D01*
X540912Y-188100D01*
X541769Y-188386D01*
X542341D01*
X543198Y-188100D01*
X543769Y-187243D01*
X544055Y-185815D01*
Y-184958D01*
X543769Y-183530D01*
X543198Y-182673D01*
X542341Y-182387D01*
X541769D01*
X545397Y-184387D02*
Y-188386D01*
Y-185529D02*
X546254Y-184672D01*
X546825Y-184387D01*
X547682D01*
X548254Y-184672D01*
X548539Y-185529D01*
Y-188386D01*
Y-185529D02*
X549396Y-184672D01*
X549968Y-184387D01*
X550825D01*
X551396Y-184672D01*
X551682Y-185529D01*
Y-188386D01*
X553567Y-184387D02*
Y-188386D01*
Y-185529D02*
X554424Y-184672D01*
X554995Y-184387D01*
X555852D01*
X556423Y-184672D01*
X556709Y-185529D01*
Y-188386D01*
Y-185529D02*
X557566Y-184672D01*
X558137Y-184387D01*
X558994D01*
X559565Y-184672D01*
X559851Y-185529D01*
Y-188386D01*
X525087Y-110387D02*
Y-116386D01*
X523088Y-110387D02*
X527087D01*
X527801D02*
Y-116386D01*
Y-113529D02*
X528658Y-112672D01*
X529229Y-112387D01*
X530086D01*
X530657Y-112672D01*
X530943Y-113529D01*
Y-116386D01*
X533085Y-110387D02*
X533371Y-110673D01*
X533657Y-110387D01*
X533371Y-110101D01*
X533085Y-110387D01*
X533371Y-112387D02*
Y-116386D01*
X538142Y-113244D02*
X537570Y-112672D01*
X536999Y-112387D01*
X536142D01*
X535571Y-112672D01*
X534999Y-113244D01*
X534714Y-114101D01*
Y-114672D01*
X534999Y-115529D01*
X535571Y-116100D01*
X536142Y-116386D01*
X536999D01*
X537570Y-116100D01*
X538142Y-115529D01*
X539427Y-110387D02*
Y-116386D01*
X542284Y-112387D02*
X539427Y-115243D01*
X540570Y-114101D02*
X542569Y-116386D01*
X543512Y-112387D02*
Y-116386D01*
Y-113529D02*
X544369Y-112672D01*
X544940Y-112387D01*
X545797D01*
X546368Y-112672D01*
X546654Y-113529D01*
Y-116386D01*
X548225Y-114101D02*
X551653D01*
Y-113529D01*
X551367Y-112958D01*
X551082Y-112672D01*
X550510Y-112387D01*
X549653D01*
X549082Y-112672D01*
X548511Y-113244D01*
X548225Y-114101D01*
Y-114672D01*
X548511Y-115529D01*
X549082Y-116100D01*
X549653Y-116386D01*
X550510D01*
X551082Y-116100D01*
X551653Y-115529D01*
X556081Y-113244D02*
X555795Y-112672D01*
X554938Y-112387D01*
X554081D01*
X553224Y-112672D01*
X552938Y-113244D01*
X553224Y-113815D01*
X553795Y-114101D01*
X555224Y-114386D01*
X555795Y-114672D01*
X556081Y-115243D01*
Y-115529D01*
X555795Y-116100D01*
X554938Y-116386D01*
X554081D01*
X553224Y-116100D01*
X552938Y-115529D01*
X560480Y-113244D02*
X560194Y-112672D01*
X559337Y-112387D01*
X558480D01*
X557623Y-112672D01*
X557338Y-113244D01*
X557623Y-113815D01*
X558194Y-114101D01*
X559623Y-114386D01*
X560194Y-114672D01*
X560480Y-115243D01*
Y-115529D01*
X560194Y-116100D01*
X559337Y-116386D01*
X558480D01*
X557623Y-116100D01*
X557338Y-115529D01*
X460841Y-135244D02*
X460269Y-134673D01*
X459413Y-134387D01*
X458270D01*
X457413Y-134673D01*
X456842Y-135244D01*
Y-135815D01*
X457127Y-136387D01*
X457413Y-136672D01*
X457984Y-136958D01*
X459698Y-137529D01*
X460269Y-137815D01*
X460555Y-138101D01*
X460841Y-138672D01*
Y-139529D01*
X460269Y-140100D01*
X459413Y-140386D01*
X458270D01*
X457413Y-140100D01*
X456842Y-139529D01*
X463612Y-136387D02*
X463040Y-136672D01*
X462469Y-137244D01*
X462183Y-138101D01*
Y-138672D01*
X462469Y-139529D01*
X463040Y-140100D01*
X463612Y-140386D01*
X464469D01*
X465040Y-140100D01*
X465611Y-139529D01*
X465897Y-138672D01*
Y-138101D01*
X465611Y-137244D01*
X465040Y-136672D01*
X464469Y-136387D01*
X463612D01*
X467211Y-134387D02*
Y-140386D01*
X471896Y-134387D02*
Y-140386D01*
Y-137244D02*
X471324Y-136672D01*
X470753Y-136387D01*
X469896D01*
X469325Y-136672D01*
X468753Y-137244D01*
X468468Y-138101D01*
Y-138672D01*
X468753Y-139529D01*
X469325Y-140100D01*
X469896Y-140386D01*
X470753D01*
X471324Y-140100D01*
X471896Y-139529D01*
X473495Y-138101D02*
X476923D01*
Y-137529D01*
X476637Y-136958D01*
X476352Y-136672D01*
X475780Y-136387D01*
X474924D01*
X474352Y-136672D01*
X473781Y-137244D01*
X473495Y-138101D01*
Y-138672D01*
X473781Y-139529D01*
X474352Y-140100D01*
X474924Y-140386D01*
X475780D01*
X476352Y-140100D01*
X476923Y-139529D01*
X478209Y-136387D02*
Y-140386D01*
Y-138101D02*
X478494Y-137244D01*
X479066Y-136672D01*
X479637Y-136387D01*
X480494D01*
X485750Y-134387D02*
Y-140386D01*
Y-134387D02*
X488321D01*
X489178Y-134673D01*
X489463Y-134958D01*
X489749Y-135530D01*
Y-136101D01*
X489463Y-136672D01*
X489178Y-136958D01*
X488321Y-137244D01*
X485750D01*
X487749D02*
X489749Y-140386D01*
X491091Y-138101D02*
X494519D01*
Y-137529D01*
X494234Y-136958D01*
X493948Y-136672D01*
X493377Y-136387D01*
X492520D01*
X491949Y-136672D01*
X491377Y-137244D01*
X491091Y-138101D01*
Y-138672D01*
X491377Y-139529D01*
X491949Y-140100D01*
X492520Y-140386D01*
X493377D01*
X493948Y-140100D01*
X494519Y-139529D01*
X498947Y-137244D02*
X498661Y-136672D01*
X497804Y-136387D01*
X496947D01*
X496090Y-136672D01*
X495805Y-137244D01*
X496090Y-137815D01*
X496662Y-138101D01*
X498090Y-138386D01*
X498661Y-138672D01*
X498947Y-139243D01*
Y-139529D01*
X498661Y-140100D01*
X497804Y-140386D01*
X496947D01*
X496090Y-140100D01*
X495805Y-139529D01*
X500775Y-134387D02*
X501061Y-134673D01*
X501346Y-134387D01*
X501061Y-134101D01*
X500775Y-134387D01*
X501061Y-136387D02*
Y-140386D01*
X505546Y-137244D02*
X505260Y-136672D01*
X504403Y-136387D01*
X503546D01*
X502689Y-136672D01*
X502403Y-137244D01*
X502689Y-137815D01*
X503260Y-138101D01*
X504689Y-138386D01*
X505260Y-138672D01*
X505546Y-139243D01*
Y-139529D01*
X505260Y-140100D01*
X504403Y-140386D01*
X503546D01*
X502689Y-140100D01*
X502403Y-139529D01*
X507659Y-134387D02*
Y-139243D01*
X507945Y-140100D01*
X508516Y-140386D01*
X509088D01*
X506802Y-136387D02*
X508802D01*
X461127Y-147815D02*
X460841Y-147244D01*
X460269Y-146673D01*
X459698Y-146387D01*
X458556D01*
X457984Y-146673D01*
X457413Y-147244D01*
X457127Y-147815D01*
X456842Y-148672D01*
Y-150101D01*
X457127Y-150958D01*
X457413Y-151529D01*
X457984Y-152100D01*
X458556Y-152386D01*
X459698D01*
X460269Y-152100D01*
X460841Y-151529D01*
X461127Y-150958D01*
X464240Y-148387D02*
X463669Y-148672D01*
X463097Y-149244D01*
X462812Y-150101D01*
Y-150672D01*
X463097Y-151529D01*
X463669Y-152100D01*
X464240Y-152386D01*
X465097D01*
X465668Y-152100D01*
X466240Y-151529D01*
X466525Y-150672D01*
Y-150101D01*
X466240Y-149244D01*
X465668Y-148672D01*
X465097Y-148387D01*
X464240D01*
X467839D02*
Y-154385D01*
Y-149244D02*
X468411Y-148672D01*
X468982Y-148387D01*
X469839D01*
X470410Y-148672D01*
X470982Y-149244D01*
X471267Y-150101D01*
Y-150672D01*
X470982Y-151529D01*
X470410Y-152100D01*
X469839Y-152386D01*
X468982D01*
X468411Y-152100D01*
X467839Y-151529D01*
X472553Y-148387D02*
Y-154385D01*
Y-149244D02*
X473124Y-148672D01*
X473695Y-148387D01*
X474552D01*
X475124Y-148672D01*
X475695Y-149244D01*
X475981Y-150101D01*
Y-150672D01*
X475695Y-151529D01*
X475124Y-152100D01*
X474552Y-152386D01*
X473695D01*
X473124Y-152100D01*
X472553Y-151529D01*
X477266Y-150101D02*
X480694D01*
Y-149529D01*
X480408Y-148958D01*
X480122Y-148672D01*
X479551Y-148387D01*
X478694D01*
X478123Y-148672D01*
X477552Y-149244D01*
X477266Y-150101D01*
Y-150672D01*
X477552Y-151529D01*
X478123Y-152100D01*
X478694Y-152386D01*
X479551D01*
X480122Y-152100D01*
X480694Y-151529D01*
X481979Y-148387D02*
Y-152386D01*
Y-150101D02*
X482265Y-149244D01*
X482836Y-148672D01*
X483407Y-148387D01*
X484264D01*
X456842Y-158387D02*
Y-164386D01*
Y-158387D02*
X460555D01*
X456842Y-161244D02*
X459127D01*
X461241Y-158387D02*
Y-164386D01*
Y-158387D02*
X463812D01*
X464669Y-158673D01*
X464954Y-158958D01*
X465240Y-159530D01*
Y-160101D01*
X464954Y-160672D01*
X464669Y-160958D01*
X463812Y-161244D01*
X461241D01*
X463240D02*
X465240Y-164386D01*
X466582Y-161815D02*
X471724D01*
X476352Y-158387D02*
X473495Y-162386D01*
X477780D01*
X476352Y-158387D02*
Y-164386D01*
X461127Y-171815D02*
X460841Y-171244D01*
X460269Y-170673D01*
X459698Y-170387D01*
X458556D01*
X457984Y-170673D01*
X457413Y-171244D01*
X457127Y-171815D01*
X456842Y-172672D01*
Y-174101D01*
X457127Y-174958D01*
X457413Y-175529D01*
X457984Y-176100D01*
X458556Y-176386D01*
X459698D01*
X460269Y-176100D01*
X460841Y-175529D01*
X461127Y-174958D01*
X464240Y-172387D02*
X463669Y-172672D01*
X463097Y-173244D01*
X462812Y-174101D01*
Y-174672D01*
X463097Y-175529D01*
X463669Y-176100D01*
X464240Y-176386D01*
X465097D01*
X465668Y-176100D01*
X466240Y-175529D01*
X466525Y-174672D01*
Y-174101D01*
X466240Y-173244D01*
X465668Y-172672D01*
X465097Y-172387D01*
X464240D01*
X467839D02*
Y-178385D01*
Y-173244D02*
X468411Y-172672D01*
X468982Y-172387D01*
X469839D01*
X470410Y-172672D01*
X470982Y-173244D01*
X471267Y-174101D01*
Y-174672D01*
X470982Y-175529D01*
X470410Y-176100D01*
X469839Y-176386D01*
X468982D01*
X468411Y-176100D01*
X467839Y-175529D01*
X472553Y-172387D02*
Y-178385D01*
Y-173244D02*
X473124Y-172672D01*
X473695Y-172387D01*
X474552D01*
X475124Y-172672D01*
X475695Y-173244D01*
X475981Y-174101D01*
Y-174672D01*
X475695Y-175529D01*
X475124Y-176100D01*
X474552Y-176386D01*
X473695D01*
X473124Y-176100D01*
X472553Y-175529D01*
X477266Y-174101D02*
X480694D01*
Y-173529D01*
X480408Y-172958D01*
X480122Y-172672D01*
X479551Y-172387D01*
X478694D01*
X478123Y-172672D01*
X477552Y-173244D01*
X477266Y-174101D01*
Y-174672D01*
X477552Y-175529D01*
X478123Y-176100D01*
X478694Y-176386D01*
X479551D01*
X480122Y-176100D01*
X480694Y-175529D01*
X481979Y-172387D02*
Y-176386D01*
Y-174101D02*
X482265Y-173244D01*
X482836Y-172672D01*
X483407Y-172387D01*
X484264D01*
X460841Y-183244D02*
X460269Y-182673D01*
X459413Y-182387D01*
X458270D01*
X457413Y-182673D01*
X456842Y-183244D01*
Y-183815D01*
X457127Y-184387D01*
X457413Y-184672D01*
X457984Y-184958D01*
X459698Y-185529D01*
X460269Y-185815D01*
X460555Y-186101D01*
X460841Y-186672D01*
Y-187529D01*
X460269Y-188100D01*
X459413Y-188386D01*
X458270D01*
X457413Y-188100D01*
X456842Y-187529D01*
X463612Y-184387D02*
X463040Y-184672D01*
X462469Y-185244D01*
X462183Y-186101D01*
Y-186672D01*
X462469Y-187529D01*
X463040Y-188100D01*
X463612Y-188386D01*
X464469D01*
X465040Y-188100D01*
X465611Y-187529D01*
X465897Y-186672D01*
Y-186101D01*
X465611Y-185244D01*
X465040Y-184672D01*
X464469Y-184387D01*
X463612D01*
X467211Y-182387D02*
Y-188386D01*
X471896Y-182387D02*
Y-188386D01*
Y-185244D02*
X471324Y-184672D01*
X470753Y-184387D01*
X469896D01*
X469325Y-184672D01*
X468753Y-185244D01*
X468468Y-186101D01*
Y-186672D01*
X468753Y-187529D01*
X469325Y-188100D01*
X469896Y-188386D01*
X470753D01*
X471324Y-188100D01*
X471896Y-187529D01*
X473495Y-186101D02*
X476923D01*
Y-185529D01*
X476637Y-184958D01*
X476352Y-184672D01*
X475780Y-184387D01*
X474924D01*
X474352Y-184672D01*
X473781Y-185244D01*
X473495Y-186101D01*
Y-186672D01*
X473781Y-187529D01*
X474352Y-188100D01*
X474924Y-188386D01*
X475780D01*
X476352Y-188100D01*
X476923Y-187529D01*
X478209Y-184387D02*
Y-188386D01*
Y-186101D02*
X478494Y-185244D01*
X479066Y-184672D01*
X479637Y-184387D01*
X480494D01*
X485750Y-182387D02*
Y-188386D01*
Y-182387D02*
X488321D01*
X489178Y-182673D01*
X489463Y-182958D01*
X489749Y-183530D01*
Y-184101D01*
X489463Y-184672D01*
X489178Y-184958D01*
X488321Y-185244D01*
X485750D01*
X487749D02*
X489749Y-188386D01*
X491091Y-186101D02*
X494519D01*
Y-185529D01*
X494234Y-184958D01*
X493948Y-184672D01*
X493377Y-184387D01*
X492520D01*
X491949Y-184672D01*
X491377Y-185244D01*
X491091Y-186101D01*
Y-186672D01*
X491377Y-187529D01*
X491949Y-188100D01*
X492520Y-188386D01*
X493377D01*
X493948Y-188100D01*
X494519Y-187529D01*
X498947Y-185244D02*
X498661Y-184672D01*
X497804Y-184387D01*
X496947D01*
X496090Y-184672D01*
X495805Y-185244D01*
X496090Y-185815D01*
X496662Y-186101D01*
X498090Y-186386D01*
X498661Y-186672D01*
X498947Y-187243D01*
Y-187529D01*
X498661Y-188100D01*
X497804Y-188386D01*
X496947D01*
X496090Y-188100D01*
X495805Y-187529D01*
X500775Y-182387D02*
X501061Y-182673D01*
X501346Y-182387D01*
X501061Y-182102D01*
X500775Y-182387D01*
X501061Y-184387D02*
Y-188386D01*
X505546Y-185244D02*
X505260Y-184672D01*
X504403Y-184387D01*
X503546D01*
X502689Y-184672D01*
X502403Y-185244D01*
X502689Y-185815D01*
X503260Y-186101D01*
X504689Y-186386D01*
X505260Y-186672D01*
X505546Y-187243D01*
Y-187529D01*
X505260Y-188100D01*
X504403Y-188386D01*
X503546D01*
X502689Y-188100D01*
X502403Y-187529D01*
X507659Y-182387D02*
Y-187243D01*
X507945Y-188100D01*
X508516Y-188386D01*
X509088D01*
X506802Y-184387D02*
X508802D01*
X456842Y-110387D02*
Y-116386D01*
Y-110387D02*
X459127Y-116386D01*
X461412Y-110387D02*
X459127Y-116386D01*
X461412Y-110387D02*
Y-116386D01*
X466554Y-112387D02*
Y-116386D01*
Y-113244D02*
X465983Y-112672D01*
X465411Y-112387D01*
X464554D01*
X463983Y-112672D01*
X463412Y-113244D01*
X463126Y-114101D01*
Y-114672D01*
X463412Y-115529D01*
X463983Y-116100D01*
X464554Y-116386D01*
X465411D01*
X465983Y-116100D01*
X466554Y-115529D01*
X469010Y-110387D02*
Y-115243D01*
X469296Y-116100D01*
X469868Y-116386D01*
X470439D01*
X468154Y-112387D02*
X470153D01*
X471296Y-114101D02*
X474724D01*
Y-113529D01*
X474438Y-112958D01*
X474152Y-112672D01*
X473581Y-112387D01*
X472724D01*
X472153Y-112672D01*
X471581Y-113244D01*
X471296Y-114101D01*
Y-114672D01*
X471581Y-115529D01*
X472153Y-116100D01*
X472724Y-116386D01*
X473581D01*
X474152Y-116100D01*
X474724Y-115529D01*
X476009Y-112387D02*
Y-116386D01*
Y-114101D02*
X476295Y-113244D01*
X476866Y-112672D01*
X477437Y-112387D01*
X478294D01*
X479408Y-110387D02*
X479694Y-110673D01*
X479980Y-110387D01*
X479694Y-110101D01*
X479408Y-110387D01*
X479694Y-112387D02*
Y-116386D01*
X484464Y-112387D02*
Y-116386D01*
Y-113244D02*
X483893Y-112672D01*
X483322Y-112387D01*
X482465D01*
X481893Y-112672D01*
X481322Y-113244D01*
X481037Y-114101D01*
Y-114672D01*
X481322Y-115529D01*
X481893Y-116100D01*
X482465Y-116386D01*
X483322D01*
X483893Y-116100D01*
X484464Y-115529D01*
X486064Y-110387D02*
Y-116386D01*
X382369Y-122387D02*
Y-128386D01*
X380369Y-122387D02*
X384368D01*
X386511Y-124387D02*
X385940Y-124672D01*
X385368Y-125244D01*
X385083Y-126101D01*
Y-126672D01*
X385368Y-127529D01*
X385940Y-128100D01*
X386511Y-128386D01*
X387368D01*
X387939Y-128100D01*
X388510Y-127529D01*
X388796Y-126672D01*
Y-126101D01*
X388510Y-125244D01*
X387939Y-124672D01*
X387368Y-124387D01*
X386511D01*
X390110D02*
Y-130385D01*
Y-125244D02*
X390682Y-124672D01*
X391253Y-124387D01*
X392110D01*
X392681Y-124672D01*
X393252Y-125244D01*
X393538Y-126101D01*
Y-126672D01*
X393252Y-127529D01*
X392681Y-128100D01*
X392110Y-128386D01*
X391253D01*
X390682Y-128100D01*
X390110Y-127529D01*
X401251Y-122387D02*
X400679Y-122673D01*
X400108Y-123244D01*
X399822Y-123815D01*
X399537Y-124672D01*
Y-126101D01*
X399822Y-126958D01*
X400108Y-127529D01*
X400679Y-128100D01*
X401251Y-128386D01*
X402393D01*
X402965Y-128100D01*
X403536Y-127529D01*
X403822Y-126958D01*
X404107Y-126101D01*
Y-124672D01*
X403822Y-123815D01*
X403536Y-123244D01*
X402965Y-122673D01*
X402393Y-122387D01*
X401251D01*
X405507Y-124387D02*
X407221Y-128386D01*
X408935Y-124387D02*
X407221Y-128386D01*
X409906Y-126101D02*
X413334D01*
Y-125529D01*
X413048Y-124958D01*
X412762Y-124672D01*
X412191Y-124387D01*
X411334D01*
X410763Y-124672D01*
X410192Y-125244D01*
X409906Y-126101D01*
Y-126672D01*
X410192Y-127529D01*
X410763Y-128100D01*
X411334Y-128386D01*
X412191D01*
X412762Y-128100D01*
X413334Y-127529D01*
X414619Y-124387D02*
Y-128386D01*
Y-126101D02*
X414905Y-125244D01*
X415476Y-124672D01*
X416047Y-124387D01*
X416904D01*
X417447Y-122387D02*
Y-128386D01*
X422132Y-124387D02*
Y-128386D01*
Y-125244D02*
X421561Y-124672D01*
X420989Y-124387D01*
X420132D01*
X419561Y-124672D01*
X418990Y-125244D01*
X418704Y-126101D01*
Y-126672D01*
X418990Y-127529D01*
X419561Y-128100D01*
X420132Y-128386D01*
X420989D01*
X421561Y-128100D01*
X422132Y-127529D01*
X424017Y-124387D02*
X425731Y-128386D01*
X427445Y-124387D02*
X425731Y-128386D01*
X425160Y-129528D01*
X424588Y-130100D01*
X424017Y-130385D01*
X423732D01*
X382369Y-134387D02*
Y-140386D01*
X380369Y-134387D02*
X384368D01*
X386511Y-136387D02*
X385940Y-136672D01*
X385368Y-137244D01*
X385083Y-138101D01*
Y-138672D01*
X385368Y-139529D01*
X385940Y-140100D01*
X386511Y-140386D01*
X387368D01*
X387939Y-140100D01*
X388510Y-139529D01*
X388796Y-138672D01*
Y-138101D01*
X388510Y-137244D01*
X387939Y-136672D01*
X387368Y-136387D01*
X386511D01*
X390110D02*
Y-142385D01*
Y-137244D02*
X390682Y-136672D01*
X391253Y-136387D01*
X392110D01*
X392681Y-136672D01*
X393252Y-137244D01*
X393538Y-138101D01*
Y-138672D01*
X393252Y-139529D01*
X392681Y-140100D01*
X392110Y-140386D01*
X391253D01*
X390682Y-140100D01*
X390110Y-139529D01*
X403536Y-135244D02*
X402965Y-134673D01*
X402108Y-134387D01*
X400965D01*
X400108Y-134673D01*
X399537Y-135244D01*
Y-135815D01*
X399822Y-136387D01*
X400108Y-136672D01*
X400679Y-136958D01*
X402393Y-137529D01*
X402965Y-137815D01*
X403250Y-138101D01*
X403536Y-138672D01*
Y-139529D01*
X402965Y-140100D01*
X402108Y-140386D01*
X400965D01*
X400108Y-140100D01*
X399537Y-139529D01*
X406307Y-136387D02*
X405735Y-136672D01*
X405164Y-137244D01*
X404878Y-138101D01*
Y-138672D01*
X405164Y-139529D01*
X405735Y-140100D01*
X406307Y-140386D01*
X407164D01*
X407735Y-140100D01*
X408306Y-139529D01*
X408592Y-138672D01*
Y-138101D01*
X408306Y-137244D01*
X407735Y-136672D01*
X407164Y-136387D01*
X406307D01*
X409906Y-134387D02*
Y-140386D01*
X414591Y-134387D02*
Y-140386D01*
Y-137244D02*
X414019Y-136672D01*
X413448Y-136387D01*
X412591D01*
X412020Y-136672D01*
X411448Y-137244D01*
X411163Y-138101D01*
Y-138672D01*
X411448Y-139529D01*
X412020Y-140100D01*
X412591Y-140386D01*
X413448D01*
X414019Y-140100D01*
X414591Y-139529D01*
X416190Y-138101D02*
X419618D01*
Y-137529D01*
X419333Y-136958D01*
X419047Y-136672D01*
X418475Y-136387D01*
X417619D01*
X417047Y-136672D01*
X416476Y-137244D01*
X416190Y-138101D01*
Y-138672D01*
X416476Y-139529D01*
X417047Y-140100D01*
X417619Y-140386D01*
X418475D01*
X419047Y-140100D01*
X419618Y-139529D01*
X420904Y-136387D02*
Y-140386D01*
Y-138101D02*
X421189Y-137244D01*
X421761Y-136672D01*
X422332Y-136387D01*
X423189D01*
X382369Y-146387D02*
Y-152386D01*
X380369Y-146387D02*
X384368D01*
X386511Y-148387D02*
X385940Y-148672D01*
X385368Y-149244D01*
X385083Y-150101D01*
Y-150672D01*
X385368Y-151529D01*
X385940Y-152100D01*
X386511Y-152386D01*
X387368D01*
X387939Y-152100D01*
X388510Y-151529D01*
X388796Y-150672D01*
Y-150101D01*
X388510Y-149244D01*
X387939Y-148672D01*
X387368Y-148387D01*
X386511D01*
X390110D02*
Y-154385D01*
Y-149244D02*
X390682Y-148672D01*
X391253Y-148387D01*
X392110D01*
X392681Y-148672D01*
X393252Y-149244D01*
X393538Y-150101D01*
Y-150672D01*
X393252Y-151529D01*
X392681Y-152100D01*
X392110Y-152386D01*
X391253D01*
X390682Y-152100D01*
X390110Y-151529D01*
X399537Y-146387D02*
Y-152386D01*
X402965D01*
X407049Y-148387D02*
Y-152386D01*
Y-149244D02*
X406478Y-148672D01*
X405907Y-148387D01*
X405050D01*
X404479Y-148672D01*
X403907Y-149244D01*
X403622Y-150101D01*
Y-150672D01*
X403907Y-151529D01*
X404479Y-152100D01*
X405050Y-152386D01*
X405907D01*
X406478Y-152100D01*
X407049Y-151529D01*
X408935Y-148387D02*
X410649Y-152386D01*
X412362Y-148387D02*
X410649Y-152386D01*
X410077Y-153528D01*
X409506Y-154100D01*
X408935Y-154385D01*
X408649D01*
X413362Y-150101D02*
X416790D01*
Y-149529D01*
X416504Y-148958D01*
X416219Y-148672D01*
X415648Y-148387D01*
X414791D01*
X414219Y-148672D01*
X413648Y-149244D01*
X413362Y-150101D01*
Y-150672D01*
X413648Y-151529D01*
X414219Y-152100D01*
X414791Y-152386D01*
X415648D01*
X416219Y-152100D01*
X416790Y-151529D01*
X418076Y-148387D02*
Y-152386D01*
Y-150101D02*
X418361Y-149244D01*
X418933Y-148672D01*
X419504Y-148387D01*
X420361D01*
X380369Y-158387D02*
Y-164386D01*
Y-158387D02*
X382369D01*
X383226Y-158673D01*
X383797Y-159244D01*
X384083Y-159815D01*
X384368Y-160672D01*
Y-162101D01*
X384083Y-162958D01*
X383797Y-163529D01*
X383226Y-164100D01*
X382369Y-164386D01*
X380369D01*
X386282Y-158387D02*
X386568Y-158673D01*
X386854Y-158387D01*
X386568Y-158101D01*
X386282Y-158387D01*
X386568Y-160387D02*
Y-164386D01*
X387911Y-162101D02*
X391338D01*
Y-161529D01*
X391053Y-160958D01*
X390767Y-160672D01*
X390196Y-160387D01*
X389339D01*
X388768Y-160672D01*
X388196Y-161244D01*
X387911Y-162101D01*
Y-162672D01*
X388196Y-163529D01*
X388768Y-164100D01*
X389339Y-164386D01*
X390196D01*
X390767Y-164100D01*
X391338Y-163529D01*
X392624Y-158387D02*
Y-164386D01*
X393881Y-162101D02*
X397309D01*
Y-161529D01*
X397023Y-160958D01*
X396737Y-160672D01*
X396166Y-160387D01*
X395309D01*
X394738Y-160672D01*
X394166Y-161244D01*
X393881Y-162101D01*
Y-162672D01*
X394166Y-163529D01*
X394738Y-164100D01*
X395309Y-164386D01*
X396166D01*
X396737Y-164100D01*
X397309Y-163529D01*
X402022Y-161244D02*
X401451Y-160672D01*
X400879Y-160387D01*
X400022D01*
X399451Y-160672D01*
X398880Y-161244D01*
X398594Y-162101D01*
Y-162672D01*
X398880Y-163529D01*
X399451Y-164100D01*
X400022Y-164386D01*
X400879D01*
X401451Y-164100D01*
X402022Y-163529D01*
X404164Y-158387D02*
Y-163243D01*
X404450Y-164100D01*
X405021Y-164386D01*
X405593D01*
X403307Y-160387D02*
X405307D01*
X406450D02*
Y-164386D01*
Y-162101D02*
X406735Y-161244D01*
X407306Y-160672D01*
X407878Y-160387D01*
X408735D01*
X409849Y-158387D02*
X410135Y-158673D01*
X410420Y-158387D01*
X410135Y-158101D01*
X409849Y-158387D01*
X410135Y-160387D02*
Y-164386D01*
X414905Y-161244D02*
X414334Y-160672D01*
X413762Y-160387D01*
X412905D01*
X412334Y-160672D01*
X411763Y-161244D01*
X411477Y-162101D01*
Y-162672D01*
X411763Y-163529D01*
X412334Y-164100D01*
X412905Y-164386D01*
X413762D01*
X414334Y-164100D01*
X414905Y-163529D01*
X420904Y-159530D02*
X421475Y-159244D01*
X422332Y-158387D01*
Y-164386D01*
X380369Y-170387D02*
Y-176386D01*
Y-170387D02*
X382940D01*
X383797Y-170673D01*
X384083Y-170958D01*
X384368Y-171530D01*
Y-172101D01*
X384083Y-172672D01*
X383797Y-172958D01*
X382940Y-173244D01*
X380369D02*
X382940D01*
X383797Y-173529D01*
X384083Y-173815D01*
X384368Y-174386D01*
Y-175243D01*
X384083Y-175814D01*
X383797Y-176100D01*
X382940Y-176386D01*
X380369D01*
X387139Y-172387D02*
X386568Y-172672D01*
X385997Y-173244D01*
X385711Y-174101D01*
Y-174672D01*
X385997Y-175529D01*
X386568Y-176100D01*
X387139Y-176386D01*
X387996D01*
X388568Y-176100D01*
X389139Y-175529D01*
X389425Y-174672D01*
Y-174101D01*
X389139Y-173244D01*
X388568Y-172672D01*
X387996Y-172387D01*
X387139D01*
X391596Y-170387D02*
Y-175243D01*
X391881Y-176100D01*
X392453Y-176386D01*
X393024D01*
X390739Y-172387D02*
X392738D01*
X394738Y-170387D02*
Y-175243D01*
X395023Y-176100D01*
X395595Y-176386D01*
X396166D01*
X393881Y-172387D02*
X395880D01*
X398451D02*
X397880Y-172672D01*
X397309Y-173244D01*
X397023Y-174101D01*
Y-174672D01*
X397309Y-175529D01*
X397880Y-176100D01*
X398451Y-176386D01*
X399308D01*
X399880Y-176100D01*
X400451Y-175529D01*
X400736Y-174672D01*
Y-174101D01*
X400451Y-173244D01*
X399880Y-172672D01*
X399308Y-172387D01*
X398451D01*
X402050D02*
Y-176386D01*
Y-173529D02*
X402907Y-172672D01*
X403479Y-172387D01*
X404336D01*
X404907Y-172672D01*
X405193Y-173529D01*
Y-176386D01*
Y-173529D02*
X406050Y-172672D01*
X406621Y-172387D01*
X407478D01*
X408049Y-172672D01*
X408335Y-173529D01*
Y-176386D01*
X414933Y-170387D02*
Y-176386D01*
X418361D01*
X422446Y-172387D02*
Y-176386D01*
Y-173244D02*
X421875Y-172672D01*
X421304Y-172387D01*
X420446D01*
X419875Y-172672D01*
X419304Y-173244D01*
X419018Y-174101D01*
Y-174672D01*
X419304Y-175529D01*
X419875Y-176100D01*
X420446Y-176386D01*
X421304D01*
X421875Y-176100D01*
X422446Y-175529D01*
X424331Y-172387D02*
X426045Y-176386D01*
X427759Y-172387D02*
X426045Y-176386D01*
X425474Y-177528D01*
X424903Y-178100D01*
X424331Y-178385D01*
X424046D01*
X428759Y-174101D02*
X432187D01*
Y-173529D01*
X431901Y-172958D01*
X431615Y-172672D01*
X431044Y-172387D01*
X430187D01*
X429616Y-172672D01*
X429045Y-173244D01*
X428759Y-174101D01*
Y-174672D01*
X429045Y-175529D01*
X429616Y-176100D01*
X430187Y-176386D01*
X431044D01*
X431615Y-176100D01*
X432187Y-175529D01*
X433472Y-172387D02*
Y-176386D01*
Y-174101D02*
X433758Y-173244D01*
X434329Y-172672D01*
X434901Y-172387D01*
X435757D01*
X380369Y-182387D02*
Y-188386D01*
Y-182387D02*
X382940D01*
X383797Y-182673D01*
X384083Y-182958D01*
X384368Y-183530D01*
Y-184101D01*
X384083Y-184672D01*
X383797Y-184958D01*
X382940Y-185244D01*
X380369D02*
X382940D01*
X383797Y-185529D01*
X384083Y-185815D01*
X384368Y-186386D01*
Y-187243D01*
X384083Y-187814D01*
X383797Y-188100D01*
X382940Y-188386D01*
X380369D01*
X387139Y-184387D02*
X386568Y-184672D01*
X385997Y-185244D01*
X385711Y-186101D01*
Y-186672D01*
X385997Y-187529D01*
X386568Y-188100D01*
X387139Y-188386D01*
X387996D01*
X388568Y-188100D01*
X389139Y-187529D01*
X389425Y-186672D01*
Y-186101D01*
X389139Y-185244D01*
X388568Y-184672D01*
X387996Y-184387D01*
X387139D01*
X391596Y-182387D02*
Y-187243D01*
X391881Y-188100D01*
X392453Y-188386D01*
X393024D01*
X390739Y-184387D02*
X392738D01*
X394738Y-182387D02*
Y-187243D01*
X395023Y-188100D01*
X395595Y-188386D01*
X396166D01*
X393881Y-184387D02*
X395880D01*
X398451D02*
X397880Y-184672D01*
X397309Y-185244D01*
X397023Y-186101D01*
Y-186672D01*
X397309Y-187529D01*
X397880Y-188100D01*
X398451Y-188386D01*
X399308D01*
X399880Y-188100D01*
X400451Y-187529D01*
X400736Y-186672D01*
Y-186101D01*
X400451Y-185244D01*
X399880Y-184672D01*
X399308Y-184387D01*
X398451D01*
X402050D02*
Y-188386D01*
Y-185529D02*
X402907Y-184672D01*
X403479Y-184387D01*
X404336D01*
X404907Y-184672D01*
X405193Y-185529D01*
Y-188386D01*
Y-185529D02*
X406050Y-184672D01*
X406621Y-184387D01*
X407478D01*
X408049Y-184672D01*
X408335Y-185529D01*
Y-188386D01*
X418932Y-183244D02*
X418361Y-182673D01*
X417504Y-182387D01*
X416362D01*
X415505Y-182673D01*
X414933Y-183244D01*
Y-183815D01*
X415219Y-184387D01*
X415505Y-184672D01*
X416076Y-184958D01*
X417790Y-185529D01*
X418361Y-185815D01*
X418647Y-186101D01*
X418932Y-186672D01*
Y-187529D01*
X418361Y-188100D01*
X417504Y-188386D01*
X416362D01*
X415505Y-188100D01*
X414933Y-187529D01*
X421703Y-184387D02*
X421132Y-184672D01*
X420561Y-185244D01*
X420275Y-186101D01*
Y-186672D01*
X420561Y-187529D01*
X421132Y-188100D01*
X421703Y-188386D01*
X422560D01*
X423132Y-188100D01*
X423703Y-187529D01*
X423989Y-186672D01*
Y-186101D01*
X423703Y-185244D01*
X423132Y-184672D01*
X422560Y-184387D01*
X421703D01*
X425303Y-182387D02*
Y-188386D01*
X429987Y-182387D02*
Y-188386D01*
Y-185244D02*
X429416Y-184672D01*
X428845Y-184387D01*
X427988D01*
X427416Y-184672D01*
X426845Y-185244D01*
X426559Y-186101D01*
Y-186672D01*
X426845Y-187529D01*
X427416Y-188100D01*
X427988Y-188386D01*
X428845D01*
X429416Y-188100D01*
X429987Y-187529D01*
X431587Y-186101D02*
X435015D01*
Y-185529D01*
X434729Y-184958D01*
X434444Y-184672D01*
X433872Y-184387D01*
X433015D01*
X432444Y-184672D01*
X431873Y-185244D01*
X431587Y-186101D01*
Y-186672D01*
X431873Y-187529D01*
X432444Y-188100D01*
X433015Y-188386D01*
X433872D01*
X434444Y-188100D01*
X435015Y-187529D01*
X436300Y-184387D02*
Y-188386D01*
Y-186101D02*
X436586Y-185244D01*
X437157Y-184672D01*
X437729Y-184387D01*
X438586D01*
X380369Y-194387D02*
Y-200386D01*
Y-194387D02*
X382940D01*
X383797Y-194673D01*
X384083Y-194958D01*
X384368Y-195530D01*
Y-196101D01*
X384083Y-196672D01*
X383797Y-196958D01*
X382940Y-197244D01*
X380369D02*
X382940D01*
X383797Y-197529D01*
X384083Y-197815D01*
X384368Y-198386D01*
Y-199243D01*
X384083Y-199814D01*
X383797Y-200100D01*
X382940Y-200386D01*
X380369D01*
X387139Y-196387D02*
X386568Y-196672D01*
X385997Y-197244D01*
X385711Y-198101D01*
Y-198672D01*
X385997Y-199529D01*
X386568Y-200100D01*
X387139Y-200386D01*
X387996D01*
X388568Y-200100D01*
X389139Y-199529D01*
X389425Y-198672D01*
Y-198101D01*
X389139Y-197244D01*
X388568Y-196672D01*
X387996Y-196387D01*
X387139D01*
X391596Y-194387D02*
Y-199243D01*
X391881Y-200100D01*
X392453Y-200386D01*
X393024D01*
X390739Y-196387D02*
X392738D01*
X394738Y-194387D02*
Y-199243D01*
X395023Y-200100D01*
X395595Y-200386D01*
X396166D01*
X393881Y-196387D02*
X395880D01*
X398451D02*
X397880Y-196672D01*
X397309Y-197244D01*
X397023Y-198101D01*
Y-198672D01*
X397309Y-199529D01*
X397880Y-200100D01*
X398451Y-200386D01*
X399308D01*
X399880Y-200100D01*
X400451Y-199529D01*
X400736Y-198672D01*
Y-198101D01*
X400451Y-197244D01*
X399880Y-196672D01*
X399308Y-196387D01*
X398451D01*
X402050D02*
Y-200386D01*
Y-197529D02*
X402907Y-196672D01*
X403479Y-196387D01*
X404336D01*
X404907Y-196672D01*
X405193Y-197529D01*
Y-200386D01*
Y-197529D02*
X406050Y-196672D01*
X406621Y-196387D01*
X407478D01*
X408049Y-196672D01*
X408335Y-197529D01*
Y-200386D01*
X416647Y-194387D02*
X416076Y-194673D01*
X415505Y-195244D01*
X415219Y-195815D01*
X414933Y-196672D01*
Y-198101D01*
X415219Y-198958D01*
X415505Y-199529D01*
X416076Y-200100D01*
X416647Y-200386D01*
X417790D01*
X418361Y-200100D01*
X418932Y-199529D01*
X419218Y-198958D01*
X419504Y-198101D01*
Y-196672D01*
X419218Y-195815D01*
X418932Y-195244D01*
X418361Y-194673D01*
X417790Y-194387D01*
X416647D01*
X420903Y-196387D02*
X422617Y-200386D01*
X424331Y-196387D02*
X422617Y-200386D01*
X425303Y-198101D02*
X428730D01*
Y-197529D01*
X428445Y-196958D01*
X428159Y-196672D01*
X427588Y-196387D01*
X426731D01*
X426160Y-196672D01*
X425588Y-197244D01*
X425303Y-198101D01*
Y-198672D01*
X425588Y-199529D01*
X426160Y-200100D01*
X426731Y-200386D01*
X427588D01*
X428159Y-200100D01*
X428730Y-199529D01*
X430016Y-196387D02*
Y-200386D01*
Y-198101D02*
X430302Y-197244D01*
X430873Y-196672D01*
X431444Y-196387D01*
X432301D01*
X432844Y-194387D02*
Y-200386D01*
X437529Y-196387D02*
Y-200386D01*
Y-197244D02*
X436957Y-196672D01*
X436386Y-196387D01*
X435529D01*
X434958Y-196672D01*
X434386Y-197244D01*
X434101Y-198101D01*
Y-198672D01*
X434386Y-199529D01*
X434958Y-200100D01*
X435529Y-200386D01*
X436386D01*
X436957Y-200100D01*
X437529Y-199529D01*
X439414Y-196387D02*
X441128Y-200386D01*
X442842Y-196387D02*
X441128Y-200386D01*
X440556Y-201528D01*
X439985Y-202100D01*
X439414Y-202385D01*
X439128D01*
X380369Y-110387D02*
Y-116386D01*
Y-110387D02*
X384368Y-116386D01*
Y-110387D02*
Y-116386D01*
X389453Y-112387D02*
Y-116386D01*
Y-113244D02*
X388882Y-112672D01*
X388311Y-112387D01*
X387454D01*
X386882Y-112672D01*
X386311Y-113244D01*
X386025Y-114101D01*
Y-114672D01*
X386311Y-115529D01*
X386882Y-116100D01*
X387454Y-116386D01*
X388311D01*
X388882Y-116100D01*
X389453Y-115529D01*
X391053Y-112387D02*
Y-116386D01*
Y-113529D02*
X391910Y-112672D01*
X392481Y-112387D01*
X393338D01*
X393909Y-112672D01*
X394195Y-113529D01*
Y-116386D01*
Y-113529D02*
X395052Y-112672D01*
X395623Y-112387D01*
X396480D01*
X397052Y-112672D01*
X397337Y-113529D01*
Y-116386D01*
X399222Y-114101D02*
X402650D01*
Y-113529D01*
X402365Y-112958D01*
X402079Y-112672D01*
X401508Y-112387D01*
X400651D01*
X400079Y-112672D01*
X399508Y-113244D01*
X399222Y-114101D01*
Y-114672D01*
X399508Y-115529D01*
X400079Y-116100D01*
X400651Y-116386D01*
X401508D01*
X402079Y-116100D01*
X402650Y-115529D01*
X345545Y-147530D02*
X346117Y-147244D01*
X346973Y-146387D01*
Y-152386D01*
X345831Y-171815D02*
Y-171530D01*
X346117Y-170958D01*
X346402Y-170673D01*
X346973Y-170387D01*
X348116D01*
X348688Y-170673D01*
X348973Y-170958D01*
X349259Y-171530D01*
Y-172101D01*
X348973Y-172672D01*
X348402Y-173529D01*
X345545Y-176386D01*
X349544D01*
X345545Y-110387D02*
Y-116386D01*
X348973D01*
X353058Y-112387D02*
Y-116386D01*
Y-113244D02*
X352487Y-112672D01*
X351915Y-112387D01*
X351058D01*
X350487Y-112672D01*
X349916Y-113244D01*
X349630Y-114101D01*
Y-114672D01*
X349916Y-115529D01*
X350487Y-116100D01*
X351058Y-116386D01*
X351915D01*
X352487Y-116100D01*
X353058Y-115529D01*
X354943Y-112387D02*
X356657Y-116386D01*
X358371Y-112387D02*
X356657Y-116386D01*
X356086Y-117528D01*
X355515Y-118100D01*
X354943Y-118385D01*
X354658D01*
X359371Y-114101D02*
X362799D01*
Y-113529D01*
X362513Y-112958D01*
X362227Y-112672D01*
X361656Y-112387D01*
X360799D01*
X360228Y-112672D01*
X359657Y-113244D01*
X359371Y-114101D01*
Y-114672D01*
X359657Y-115529D01*
X360228Y-116100D01*
X360799Y-116386D01*
X361656D01*
X362227Y-116100D01*
X362799Y-115529D01*
X364084Y-112387D02*
Y-116386D01*
Y-114101D02*
X364370Y-113244D01*
X364941Y-112672D01*
X365512Y-112387D01*
X366369D01*
X341014Y-293383D02*
G03*
X341014Y-293383I-3333J0D01*
G01*
X334347Y-266717D02*
Y-265050D01*
X336014Y-263383D01*
X334347Y-261717D02*
X336014Y-263383D01*
X334347Y-261717D02*
Y-260050D01*
X336014D01*
X337680Y-261717D01*
X339347Y-260050D01*
X341014D01*
Y-261717D02*
Y-260050D01*
X339347Y-263383D02*
X341014Y-261717D01*
X339347Y-263383D02*
X341014Y-265050D01*
Y-266717D02*
Y-265050D01*
X339347Y-266717D02*
X341014D01*
X337680Y-265050D02*
X339347Y-266717D01*
X336014D02*
X337680Y-265050D01*
X334347Y-266717D02*
X336014D01*
X334347Y-281716D02*
X341014D01*
Y-275050D01*
X334347D02*
X341014D01*
X334347Y-281716D02*
Y-275050D01*
X337680Y-311717D02*
X341014Y-305050D01*
X334347D02*
X341014D01*
X334347D02*
X337680Y-311717D01*
X336014Y-325050D02*
X337680Y-326716D01*
X334347Y-325050D02*
X336014D01*
X334347D02*
X336014Y-323383D01*
X334347Y-321717D02*
X336014Y-323383D01*
X334347Y-321717D02*
X336014D01*
X337680Y-320050D01*
X339347Y-321717D01*
X341014D01*
X339347Y-323383D02*
X341014Y-321717D01*
X339347Y-323383D02*
X341014Y-325050D01*
X339347D02*
X341014D01*
X337680Y-326716D02*
X339347Y-325050D01*
X334347Y-340050D02*
X336014D01*
X334347D02*
Y-336717D01*
X336014D01*
Y-335050D01*
X339347D01*
Y-336717D02*
Y-335050D01*
Y-336717D02*
X341014D01*
Y-340050D02*
Y-336717D01*
X339347Y-340050D02*
X341014D01*
X339347Y-341717D02*
Y-340050D01*
X336014Y-341717D02*
X339347D01*
X336014D02*
Y-340050D01*
X749031Y-260718D02*
X751317Y-266717D01*
X753602Y-260718D02*
X751317Y-266717D01*
X754945Y-260718D02*
X755230Y-261003D01*
X755516Y-260718D01*
X755230Y-260432D01*
X754945Y-260718D01*
X755230Y-262717D02*
Y-266717D01*
X760001Y-262717D02*
Y-266717D01*
Y-263574D02*
X759429Y-263003D01*
X758858Y-262717D01*
X758001D01*
X757430Y-263003D01*
X756858Y-263574D01*
X756573Y-264431D01*
Y-265003D01*
X756858Y-265860D01*
X757430Y-266431D01*
X758001Y-266717D01*
X758858D01*
X759429Y-266431D01*
X760001Y-265860D01*
X749031Y-278860D02*
X751602D01*
X752459Y-278574D01*
X752745Y-278289D01*
X753031Y-277717D01*
Y-276860D01*
X752745Y-276289D01*
X752459Y-276004D01*
X751602Y-275718D01*
X749031D01*
Y-281716D01*
X757801Y-277717D02*
Y-281716D01*
Y-278574D02*
X757230Y-278003D01*
X756658Y-277717D01*
X755801D01*
X755230Y-278003D01*
X754659Y-278574D01*
X754373Y-279431D01*
Y-280003D01*
X754659Y-280860D01*
X755230Y-281431D01*
X755801Y-281716D01*
X756658D01*
X757230Y-281431D01*
X757801Y-280860D01*
X762828Y-275718D02*
Y-281716D01*
Y-278574D02*
X762257Y-278003D01*
X761686Y-277717D01*
X760829D01*
X760258Y-278003D01*
X759686Y-278574D01*
X759401Y-279431D01*
Y-280003D01*
X759686Y-280860D01*
X760258Y-281431D01*
X760829Y-281716D01*
X761686D01*
X762257Y-281431D01*
X762828Y-280860D01*
X749031Y-293860D02*
X751602D01*
X752459Y-293574D01*
X752745Y-293289D01*
X753031Y-292717D01*
Y-291860D01*
X752745Y-291289D01*
X752459Y-291003D01*
X751602Y-290718D01*
X749031D01*
Y-296716D01*
X757801Y-292717D02*
Y-296716D01*
Y-293574D02*
X757230Y-293003D01*
X756658Y-292717D01*
X755801D01*
X755230Y-293003D01*
X754659Y-293574D01*
X754373Y-294431D01*
Y-295003D01*
X754659Y-295860D01*
X755230Y-296431D01*
X755801Y-296716D01*
X756658D01*
X757230Y-296431D01*
X757801Y-295860D01*
X762828Y-290718D02*
Y-296716D01*
Y-293574D02*
X762257Y-293003D01*
X761686Y-292717D01*
X760829D01*
X760258Y-293003D01*
X759686Y-293574D01*
X759401Y-294431D01*
Y-295003D01*
X759686Y-295860D01*
X760258Y-296431D01*
X760829Y-296716D01*
X761686D01*
X762257Y-296431D01*
X762828Y-295860D01*
X749031Y-308860D02*
X751602D01*
X752459Y-308574D01*
X752745Y-308289D01*
X753031Y-307717D01*
Y-306860D01*
X752745Y-306289D01*
X752459Y-306003D01*
X751602Y-305718D01*
X749031D01*
Y-311717D01*
X757801Y-307717D02*
Y-311717D01*
Y-308574D02*
X757230Y-308003D01*
X756658Y-307717D01*
X755801D01*
X755230Y-308003D01*
X754659Y-308574D01*
X754373Y-309431D01*
Y-310003D01*
X754659Y-310860D01*
X755230Y-311431D01*
X755801Y-311717D01*
X756658D01*
X757230Y-311431D01*
X757801Y-310860D01*
X762828Y-305718D02*
Y-311717D01*
Y-308574D02*
X762257Y-308003D01*
X761686Y-307717D01*
X760829D01*
X760258Y-308003D01*
X759686Y-308574D01*
X759401Y-309431D01*
Y-310003D01*
X759686Y-310860D01*
X760258Y-311431D01*
X760829Y-311717D01*
X761686D01*
X762257Y-311431D01*
X762828Y-310860D01*
X749031Y-323860D02*
X751602D01*
X752459Y-323574D01*
X752745Y-323289D01*
X753031Y-322717D01*
Y-321860D01*
X752745Y-321289D01*
X752459Y-321004D01*
X751602Y-320718D01*
X749031D01*
Y-326716D01*
X757801Y-322717D02*
Y-326716D01*
Y-323574D02*
X757230Y-323003D01*
X756658Y-322717D01*
X755801D01*
X755230Y-323003D01*
X754659Y-323574D01*
X754373Y-324431D01*
Y-325003D01*
X754659Y-325860D01*
X755230Y-326431D01*
X755801Y-326716D01*
X756658D01*
X757230Y-326431D01*
X757801Y-325860D01*
X762828Y-320718D02*
Y-326716D01*
Y-323574D02*
X762257Y-323003D01*
X761686Y-322717D01*
X760829D01*
X760258Y-323003D01*
X759686Y-323574D01*
X759401Y-324431D01*
Y-325003D01*
X759686Y-325860D01*
X760258Y-326431D01*
X760829Y-326716D01*
X761686D01*
X762257Y-326431D01*
X762828Y-325860D01*
X749031Y-338860D02*
X751602D01*
X752459Y-338574D01*
X752745Y-338289D01*
X753031Y-337717D01*
Y-336860D01*
X752745Y-336289D01*
X752459Y-336003D01*
X751602Y-335718D01*
X749031D01*
Y-341717D01*
X757801Y-337717D02*
Y-341717D01*
Y-338574D02*
X757230Y-338003D01*
X756658Y-337717D01*
X755801D01*
X755230Y-338003D01*
X754659Y-338574D01*
X754373Y-339431D01*
Y-340003D01*
X754659Y-340860D01*
X755230Y-341431D01*
X755801Y-341717D01*
X756658D01*
X757230Y-341431D01*
X757801Y-340860D01*
X762828Y-335718D02*
Y-341717D01*
Y-338574D02*
X762257Y-338003D01*
X761686Y-337717D01*
X760829D01*
X760258Y-338003D01*
X759686Y-338574D01*
X759401Y-339431D01*
Y-340003D01*
X759686Y-340860D01*
X760258Y-341431D01*
X760829Y-341717D01*
X761686D01*
X762257Y-341431D01*
X762828Y-340860D01*
X627769Y-260718D02*
Y-266717D01*
X625770Y-260718D02*
X629769D01*
X631911Y-262717D02*
X631340Y-263003D01*
X630769Y-263574D01*
X630483Y-264431D01*
Y-265003D01*
X630769Y-265860D01*
X631340Y-266431D01*
X631911Y-266717D01*
X632768D01*
X633340Y-266431D01*
X633911Y-265860D01*
X634197Y-265003D01*
Y-264431D01*
X633911Y-263574D01*
X633340Y-263003D01*
X632768Y-262717D01*
X631911D01*
X635511D02*
Y-268716D01*
Y-263574D02*
X636082Y-263003D01*
X636653Y-262717D01*
X637510D01*
X638082Y-263003D01*
X638653Y-263574D01*
X638938Y-264431D01*
Y-265003D01*
X638653Y-265860D01*
X638082Y-266431D01*
X637510Y-266717D01*
X636653D01*
X636082Y-266431D01*
X635511Y-265860D01*
X644937Y-260718D02*
Y-266717D01*
X648365D01*
X652450Y-262717D02*
Y-266717D01*
Y-263574D02*
X651878Y-263003D01*
X651307Y-262717D01*
X650450D01*
X649879Y-263003D01*
X649308Y-263574D01*
X649022Y-264431D01*
Y-265003D01*
X649308Y-265860D01*
X649879Y-266431D01*
X650450Y-266717D01*
X651307D01*
X651878Y-266431D01*
X652450Y-265860D01*
X654335Y-262717D02*
X656049Y-266717D01*
X657763Y-262717D02*
X656049Y-266717D01*
X655478Y-267859D01*
X654907Y-268430D01*
X654335Y-268716D01*
X654049D01*
X658763Y-264431D02*
X662191D01*
Y-263860D01*
X661905Y-263289D01*
X661619Y-263003D01*
X661048Y-262717D01*
X660191D01*
X659620Y-263003D01*
X659048Y-263574D01*
X658763Y-264431D01*
Y-265003D01*
X659048Y-265860D01*
X659620Y-266431D01*
X660191Y-266717D01*
X661048D01*
X661619Y-266431D01*
X662191Y-265860D01*
X663476Y-262717D02*
Y-266717D01*
Y-264431D02*
X663762Y-263574D01*
X664333Y-263003D01*
X664904Y-262717D01*
X665761D01*
X671017Y-264146D02*
X676159D01*
X682643Y-260718D02*
Y-266717D01*
Y-260718D02*
X685214D01*
X686071Y-261003D01*
X686357Y-261289D01*
X686643Y-261860D01*
Y-262432D01*
X686357Y-263003D01*
X686071Y-263289D01*
X685214Y-263574D01*
X682643D02*
X685214D01*
X686071Y-263860D01*
X686357Y-264146D01*
X686643Y-264717D01*
Y-265574D01*
X686357Y-266145D01*
X686071Y-266431D01*
X685214Y-266717D01*
X682643D01*
X689413Y-262717D02*
X688842Y-263003D01*
X688271Y-263574D01*
X687985Y-264431D01*
Y-265003D01*
X688271Y-265860D01*
X688842Y-266431D01*
X689413Y-266717D01*
X690270D01*
X690842Y-266431D01*
X691413Y-265860D01*
X691699Y-265003D01*
Y-264431D01*
X691413Y-263574D01*
X690842Y-263003D01*
X690270Y-262717D01*
X689413D01*
X693869Y-260718D02*
Y-265574D01*
X694155Y-266431D01*
X694727Y-266717D01*
X695298D01*
X693013Y-262717D02*
X695012D01*
X697012Y-260718D02*
Y-265574D01*
X697297Y-266431D01*
X697869Y-266717D01*
X698440D01*
X696155Y-262717D02*
X698154D01*
X700725D02*
X700154Y-263003D01*
X699583Y-263574D01*
X699297Y-264431D01*
Y-265003D01*
X699583Y-265860D01*
X700154Y-266431D01*
X700725Y-266717D01*
X701582D01*
X702153Y-266431D01*
X702725Y-265860D01*
X703010Y-265003D01*
Y-264431D01*
X702725Y-263574D01*
X702153Y-263003D01*
X701582Y-262717D01*
X700725D01*
X704324D02*
Y-266717D01*
Y-263860D02*
X705181Y-263003D01*
X705753Y-262717D01*
X706610D01*
X707181Y-263003D01*
X707467Y-263860D01*
Y-266717D01*
Y-263860D02*
X708324Y-263003D01*
X708895Y-262717D01*
X709752D01*
X710323Y-263003D01*
X710609Y-263860D01*
Y-266717D01*
X717207Y-260718D02*
Y-266717D01*
X720635D01*
X724720Y-262717D02*
Y-266717D01*
Y-263574D02*
X724149Y-263003D01*
X723577Y-262717D01*
X722720D01*
X722149Y-263003D01*
X721578Y-263574D01*
X721292Y-264431D01*
Y-265003D01*
X721578Y-265860D01*
X722149Y-266431D01*
X722720Y-266717D01*
X723577D01*
X724149Y-266431D01*
X724720Y-265860D01*
X726605Y-262717D02*
X728319Y-266717D01*
X730033Y-262717D02*
X728319Y-266717D01*
X727748Y-267859D01*
X727177Y-268430D01*
X726605Y-268716D01*
X726320D01*
X731033Y-264431D02*
X734461D01*
Y-263860D01*
X734175Y-263289D01*
X733889Y-263003D01*
X733318Y-262717D01*
X732461D01*
X731890Y-263003D01*
X731319Y-263574D01*
X731033Y-264431D01*
Y-265003D01*
X731319Y-265860D01*
X731890Y-266431D01*
X732461Y-266717D01*
X733318D01*
X733889Y-266431D01*
X734461Y-265860D01*
X735746Y-262717D02*
Y-266717D01*
Y-264431D02*
X736032Y-263574D01*
X736603Y-263003D01*
X737175Y-262717D01*
X738031D01*
X627769Y-275718D02*
Y-281716D01*
X625770Y-275718D02*
X629769D01*
X631911Y-277717D02*
X631340Y-278003D01*
X630769Y-278574D01*
X630483Y-279431D01*
Y-280003D01*
X630769Y-280860D01*
X631340Y-281431D01*
X631911Y-281716D01*
X632768D01*
X633340Y-281431D01*
X633911Y-280860D01*
X634197Y-280003D01*
Y-279431D01*
X633911Y-278574D01*
X633340Y-278003D01*
X632768Y-277717D01*
X631911D01*
X635511D02*
Y-283716D01*
Y-278574D02*
X636082Y-278003D01*
X636653Y-277717D01*
X637510D01*
X638082Y-278003D01*
X638653Y-278574D01*
X638938Y-279431D01*
Y-280003D01*
X638653Y-280860D01*
X638082Y-281431D01*
X637510Y-281716D01*
X636653D01*
X636082Y-281431D01*
X635511Y-280860D01*
X644937Y-275718D02*
Y-281716D01*
X648365D01*
X652450Y-277717D02*
Y-281716D01*
Y-278574D02*
X651878Y-278003D01*
X651307Y-277717D01*
X650450D01*
X649879Y-278003D01*
X649308Y-278574D01*
X649022Y-279431D01*
Y-280003D01*
X649308Y-280860D01*
X649879Y-281431D01*
X650450Y-281716D01*
X651307D01*
X651878Y-281431D01*
X652450Y-280860D01*
X654335Y-277717D02*
X656049Y-281716D01*
X657763Y-277717D02*
X656049Y-281716D01*
X655478Y-282859D01*
X654907Y-283431D01*
X654335Y-283716D01*
X654049D01*
X658763Y-279431D02*
X662191D01*
Y-278860D01*
X661905Y-278289D01*
X661619Y-278003D01*
X661048Y-277717D01*
X660191D01*
X659620Y-278003D01*
X659048Y-278574D01*
X658763Y-279431D01*
Y-280003D01*
X659048Y-280860D01*
X659620Y-281431D01*
X660191Y-281716D01*
X661048D01*
X661619Y-281431D01*
X662191Y-280860D01*
X663476Y-277717D02*
Y-281716D01*
Y-279431D02*
X663762Y-278574D01*
X664333Y-278003D01*
X664904Y-277717D01*
X665761D01*
X671017Y-279146D02*
X676159D01*
X682643Y-275718D02*
Y-281716D01*
Y-275718D02*
X685214D01*
X686071Y-276004D01*
X686357Y-276289D01*
X686643Y-276860D01*
Y-277432D01*
X686357Y-278003D01*
X686071Y-278289D01*
X685214Y-278574D01*
X682643D02*
X685214D01*
X686071Y-278860D01*
X686357Y-279146D01*
X686643Y-279717D01*
Y-280574D01*
X686357Y-281145D01*
X686071Y-281431D01*
X685214Y-281716D01*
X682643D01*
X689413Y-277717D02*
X688842Y-278003D01*
X688271Y-278574D01*
X687985Y-279431D01*
Y-280003D01*
X688271Y-280860D01*
X688842Y-281431D01*
X689413Y-281716D01*
X690270D01*
X690842Y-281431D01*
X691413Y-280860D01*
X691699Y-280003D01*
Y-279431D01*
X691413Y-278574D01*
X690842Y-278003D01*
X690270Y-277717D01*
X689413D01*
X693869Y-275718D02*
Y-280574D01*
X694155Y-281431D01*
X694727Y-281716D01*
X695298D01*
X693013Y-277717D02*
X695012D01*
X697012Y-275718D02*
Y-280574D01*
X697297Y-281431D01*
X697869Y-281716D01*
X698440D01*
X696155Y-277717D02*
X698154D01*
X700725D02*
X700154Y-278003D01*
X699583Y-278574D01*
X699297Y-279431D01*
Y-280003D01*
X699583Y-280860D01*
X700154Y-281431D01*
X700725Y-281716D01*
X701582D01*
X702153Y-281431D01*
X702725Y-280860D01*
X703010Y-280003D01*
Y-279431D01*
X702725Y-278574D01*
X702153Y-278003D01*
X701582Y-277717D01*
X700725D01*
X704324D02*
Y-281716D01*
Y-278860D02*
X705181Y-278003D01*
X705753Y-277717D01*
X706610D01*
X707181Y-278003D01*
X707467Y-278860D01*
Y-281716D01*
Y-278860D02*
X708324Y-278003D01*
X708895Y-277717D01*
X709752D01*
X710323Y-278003D01*
X710609Y-278860D01*
Y-281716D01*
X717207Y-275718D02*
Y-281716D01*
X720635D01*
X724720Y-277717D02*
Y-281716D01*
Y-278574D02*
X724149Y-278003D01*
X723577Y-277717D01*
X722720D01*
X722149Y-278003D01*
X721578Y-278574D01*
X721292Y-279431D01*
Y-280003D01*
X721578Y-280860D01*
X722149Y-281431D01*
X722720Y-281716D01*
X723577D01*
X724149Y-281431D01*
X724720Y-280860D01*
X726605Y-277717D02*
X728319Y-281716D01*
X730033Y-277717D02*
X728319Y-281716D01*
X727748Y-282859D01*
X727177Y-283431D01*
X726605Y-283716D01*
X726320D01*
X731033Y-279431D02*
X734461D01*
Y-278860D01*
X734175Y-278289D01*
X733889Y-278003D01*
X733318Y-277717D01*
X732461D01*
X731890Y-278003D01*
X731319Y-278574D01*
X731033Y-279431D01*
Y-280003D01*
X731319Y-280860D01*
X731890Y-281431D01*
X732461Y-281716D01*
X733318D01*
X733889Y-281431D01*
X734461Y-280860D01*
X735746Y-277717D02*
Y-281716D01*
Y-279431D02*
X736032Y-278574D01*
X736603Y-278003D01*
X737175Y-277717D01*
X738031D01*
X627769Y-290718D02*
Y-296716D01*
X625770Y-290718D02*
X629769D01*
X631911Y-292717D02*
X631340Y-293003D01*
X630769Y-293574D01*
X630483Y-294431D01*
Y-295003D01*
X630769Y-295860D01*
X631340Y-296431D01*
X631911Y-296716D01*
X632768D01*
X633340Y-296431D01*
X633911Y-295860D01*
X634197Y-295003D01*
Y-294431D01*
X633911Y-293574D01*
X633340Y-293003D01*
X632768Y-292717D01*
X631911D01*
X635511D02*
Y-298716D01*
Y-293574D02*
X636082Y-293003D01*
X636653Y-292717D01*
X637510D01*
X638082Y-293003D01*
X638653Y-293574D01*
X638938Y-294431D01*
Y-295003D01*
X638653Y-295860D01*
X638082Y-296431D01*
X637510Y-296716D01*
X636653D01*
X636082Y-296431D01*
X635511Y-295860D01*
X644937Y-290718D02*
Y-296716D01*
X648365D01*
X652450Y-292717D02*
Y-296716D01*
Y-293574D02*
X651878Y-293003D01*
X651307Y-292717D01*
X650450D01*
X649879Y-293003D01*
X649308Y-293574D01*
X649022Y-294431D01*
Y-295003D01*
X649308Y-295860D01*
X649879Y-296431D01*
X650450Y-296716D01*
X651307D01*
X651878Y-296431D01*
X652450Y-295860D01*
X654335Y-292717D02*
X656049Y-296716D01*
X657763Y-292717D02*
X656049Y-296716D01*
X655478Y-297859D01*
X654907Y-298430D01*
X654335Y-298716D01*
X654049D01*
X658763Y-294431D02*
X662191D01*
Y-293860D01*
X661905Y-293289D01*
X661619Y-293003D01*
X661048Y-292717D01*
X660191D01*
X659620Y-293003D01*
X659048Y-293574D01*
X658763Y-294431D01*
Y-295003D01*
X659048Y-295860D01*
X659620Y-296431D01*
X660191Y-296716D01*
X661048D01*
X661619Y-296431D01*
X662191Y-295860D01*
X663476Y-292717D02*
Y-296716D01*
Y-294431D02*
X663762Y-293574D01*
X664333Y-293003D01*
X664904Y-292717D01*
X665761D01*
X671017Y-294146D02*
X676159D01*
X682643Y-290718D02*
Y-296716D01*
Y-290718D02*
X685214D01*
X686071Y-291003D01*
X686357Y-291289D01*
X686643Y-291860D01*
Y-292432D01*
X686357Y-293003D01*
X686071Y-293289D01*
X685214Y-293574D01*
X682643D02*
X685214D01*
X686071Y-293860D01*
X686357Y-294146D01*
X686643Y-294717D01*
Y-295574D01*
X686357Y-296145D01*
X686071Y-296431D01*
X685214Y-296716D01*
X682643D01*
X689413Y-292717D02*
X688842Y-293003D01*
X688271Y-293574D01*
X687985Y-294431D01*
Y-295003D01*
X688271Y-295860D01*
X688842Y-296431D01*
X689413Y-296716D01*
X690270D01*
X690842Y-296431D01*
X691413Y-295860D01*
X691699Y-295003D01*
Y-294431D01*
X691413Y-293574D01*
X690842Y-293003D01*
X690270Y-292717D01*
X689413D01*
X693869Y-290718D02*
Y-295574D01*
X694155Y-296431D01*
X694727Y-296716D01*
X695298D01*
X693013Y-292717D02*
X695012D01*
X697012Y-290718D02*
Y-295574D01*
X697297Y-296431D01*
X697869Y-296716D01*
X698440D01*
X696155Y-292717D02*
X698154D01*
X700725D02*
X700154Y-293003D01*
X699583Y-293574D01*
X699297Y-294431D01*
Y-295003D01*
X699583Y-295860D01*
X700154Y-296431D01*
X700725Y-296716D01*
X701582D01*
X702153Y-296431D01*
X702725Y-295860D01*
X703010Y-295003D01*
Y-294431D01*
X702725Y-293574D01*
X702153Y-293003D01*
X701582Y-292717D01*
X700725D01*
X704324D02*
Y-296716D01*
Y-293860D02*
X705181Y-293003D01*
X705753Y-292717D01*
X706610D01*
X707181Y-293003D01*
X707467Y-293860D01*
Y-296716D01*
Y-293860D02*
X708324Y-293003D01*
X708895Y-292717D01*
X709752D01*
X710323Y-293003D01*
X710609Y-293860D01*
Y-296716D01*
X717207Y-290718D02*
Y-296716D01*
X720635D01*
X724720Y-292717D02*
Y-296716D01*
Y-293574D02*
X724149Y-293003D01*
X723577Y-292717D01*
X722720D01*
X722149Y-293003D01*
X721578Y-293574D01*
X721292Y-294431D01*
Y-295003D01*
X721578Y-295860D01*
X722149Y-296431D01*
X722720Y-296716D01*
X723577D01*
X724149Y-296431D01*
X724720Y-295860D01*
X726605Y-292717D02*
X728319Y-296716D01*
X730033Y-292717D02*
X728319Y-296716D01*
X727748Y-297859D01*
X727177Y-298430D01*
X726605Y-298716D01*
X726320D01*
X731033Y-294431D02*
X734461D01*
Y-293860D01*
X734175Y-293289D01*
X733889Y-293003D01*
X733318Y-292717D01*
X732461D01*
X731890Y-293003D01*
X731319Y-293574D01*
X731033Y-294431D01*
Y-295003D01*
X731319Y-295860D01*
X731890Y-296431D01*
X732461Y-296716D01*
X733318D01*
X733889Y-296431D01*
X734461Y-295860D01*
X735746Y-292717D02*
Y-296716D01*
Y-294431D02*
X736032Y-293574D01*
X736603Y-293003D01*
X737175Y-292717D01*
X738031D01*
X627769Y-305718D02*
Y-311717D01*
X625770Y-305718D02*
X629769D01*
X631911Y-307717D02*
X631340Y-308003D01*
X630769Y-308574D01*
X630483Y-309431D01*
Y-310003D01*
X630769Y-310860D01*
X631340Y-311431D01*
X631911Y-311717D01*
X632768D01*
X633340Y-311431D01*
X633911Y-310860D01*
X634197Y-310003D01*
Y-309431D01*
X633911Y-308574D01*
X633340Y-308003D01*
X632768Y-307717D01*
X631911D01*
X635511D02*
Y-313716D01*
Y-308574D02*
X636082Y-308003D01*
X636653Y-307717D01*
X637510D01*
X638082Y-308003D01*
X638653Y-308574D01*
X638938Y-309431D01*
Y-310003D01*
X638653Y-310860D01*
X638082Y-311431D01*
X637510Y-311717D01*
X636653D01*
X636082Y-311431D01*
X635511Y-310860D01*
X644937Y-305718D02*
Y-311717D01*
X648365D01*
X652450Y-307717D02*
Y-311717D01*
Y-308574D02*
X651878Y-308003D01*
X651307Y-307717D01*
X650450D01*
X649879Y-308003D01*
X649308Y-308574D01*
X649022Y-309431D01*
Y-310003D01*
X649308Y-310860D01*
X649879Y-311431D01*
X650450Y-311717D01*
X651307D01*
X651878Y-311431D01*
X652450Y-310860D01*
X654335Y-307717D02*
X656049Y-311717D01*
X657763Y-307717D02*
X656049Y-311717D01*
X655478Y-312859D01*
X654907Y-313431D01*
X654335Y-313716D01*
X654049D01*
X658763Y-309431D02*
X662191D01*
Y-308860D01*
X661905Y-308289D01*
X661619Y-308003D01*
X661048Y-307717D01*
X660191D01*
X659620Y-308003D01*
X659048Y-308574D01*
X658763Y-309431D01*
Y-310003D01*
X659048Y-310860D01*
X659620Y-311431D01*
X660191Y-311717D01*
X661048D01*
X661619Y-311431D01*
X662191Y-310860D01*
X663476Y-307717D02*
Y-311717D01*
Y-309431D02*
X663762Y-308574D01*
X664333Y-308003D01*
X664904Y-307717D01*
X665761D01*
X671017Y-309146D02*
X676159D01*
X682643Y-305718D02*
Y-311717D01*
Y-305718D02*
X685214D01*
X686071Y-306003D01*
X686357Y-306289D01*
X686643Y-306860D01*
Y-307432D01*
X686357Y-308003D01*
X686071Y-308289D01*
X685214Y-308574D01*
X682643D02*
X685214D01*
X686071Y-308860D01*
X686357Y-309146D01*
X686643Y-309717D01*
Y-310574D01*
X686357Y-311145D01*
X686071Y-311431D01*
X685214Y-311717D01*
X682643D01*
X689413Y-307717D02*
X688842Y-308003D01*
X688271Y-308574D01*
X687985Y-309431D01*
Y-310003D01*
X688271Y-310860D01*
X688842Y-311431D01*
X689413Y-311717D01*
X690270D01*
X690842Y-311431D01*
X691413Y-310860D01*
X691699Y-310003D01*
Y-309431D01*
X691413Y-308574D01*
X690842Y-308003D01*
X690270Y-307717D01*
X689413D01*
X693869Y-305718D02*
Y-310574D01*
X694155Y-311431D01*
X694727Y-311717D01*
X695298D01*
X693013Y-307717D02*
X695012D01*
X697012Y-305718D02*
Y-310574D01*
X697297Y-311431D01*
X697869Y-311717D01*
X698440D01*
X696155Y-307717D02*
X698154D01*
X700725D02*
X700154Y-308003D01*
X699583Y-308574D01*
X699297Y-309431D01*
Y-310003D01*
X699583Y-310860D01*
X700154Y-311431D01*
X700725Y-311717D01*
X701582D01*
X702153Y-311431D01*
X702725Y-310860D01*
X703010Y-310003D01*
Y-309431D01*
X702725Y-308574D01*
X702153Y-308003D01*
X701582Y-307717D01*
X700725D01*
X704324D02*
Y-311717D01*
Y-308860D02*
X705181Y-308003D01*
X705753Y-307717D01*
X706610D01*
X707181Y-308003D01*
X707467Y-308860D01*
Y-311717D01*
Y-308860D02*
X708324Y-308003D01*
X708895Y-307717D01*
X709752D01*
X710323Y-308003D01*
X710609Y-308860D01*
Y-311717D01*
X717207Y-305718D02*
Y-311717D01*
X720635D01*
X724720Y-307717D02*
Y-311717D01*
Y-308574D02*
X724149Y-308003D01*
X723577Y-307717D01*
X722720D01*
X722149Y-308003D01*
X721578Y-308574D01*
X721292Y-309431D01*
Y-310003D01*
X721578Y-310860D01*
X722149Y-311431D01*
X722720Y-311717D01*
X723577D01*
X724149Y-311431D01*
X724720Y-310860D01*
X726605Y-307717D02*
X728319Y-311717D01*
X730033Y-307717D02*
X728319Y-311717D01*
X727748Y-312859D01*
X727177Y-313431D01*
X726605Y-313716D01*
X726320D01*
X731033Y-309431D02*
X734461D01*
Y-308860D01*
X734175Y-308289D01*
X733889Y-308003D01*
X733318Y-307717D01*
X732461D01*
X731890Y-308003D01*
X731319Y-308574D01*
X731033Y-309431D01*
Y-310003D01*
X731319Y-310860D01*
X731890Y-311431D01*
X732461Y-311717D01*
X733318D01*
X733889Y-311431D01*
X734461Y-310860D01*
X735746Y-307717D02*
Y-311717D01*
Y-309431D02*
X736032Y-308574D01*
X736603Y-308003D01*
X737175Y-307717D01*
X738031D01*
X627769Y-320718D02*
Y-326716D01*
X625770Y-320718D02*
X629769D01*
X631911Y-322717D02*
X631340Y-323003D01*
X630769Y-323574D01*
X630483Y-324431D01*
Y-325003D01*
X630769Y-325860D01*
X631340Y-326431D01*
X631911Y-326716D01*
X632768D01*
X633340Y-326431D01*
X633911Y-325860D01*
X634197Y-325003D01*
Y-324431D01*
X633911Y-323574D01*
X633340Y-323003D01*
X632768Y-322717D01*
X631911D01*
X635511D02*
Y-328716D01*
Y-323574D02*
X636082Y-323003D01*
X636653Y-322717D01*
X637510D01*
X638082Y-323003D01*
X638653Y-323574D01*
X638938Y-324431D01*
Y-325003D01*
X638653Y-325860D01*
X638082Y-326431D01*
X637510Y-326716D01*
X636653D01*
X636082Y-326431D01*
X635511Y-325860D01*
X644937Y-320718D02*
Y-326716D01*
X648365D01*
X652450Y-322717D02*
Y-326716D01*
Y-323574D02*
X651878Y-323003D01*
X651307Y-322717D01*
X650450D01*
X649879Y-323003D01*
X649308Y-323574D01*
X649022Y-324431D01*
Y-325003D01*
X649308Y-325860D01*
X649879Y-326431D01*
X650450Y-326716D01*
X651307D01*
X651878Y-326431D01*
X652450Y-325860D01*
X654335Y-322717D02*
X656049Y-326716D01*
X657763Y-322717D02*
X656049Y-326716D01*
X655478Y-327859D01*
X654907Y-328431D01*
X654335Y-328716D01*
X654049D01*
X658763Y-324431D02*
X662191D01*
Y-323860D01*
X661905Y-323289D01*
X661619Y-323003D01*
X661048Y-322717D01*
X660191D01*
X659620Y-323003D01*
X659048Y-323574D01*
X658763Y-324431D01*
Y-325003D01*
X659048Y-325860D01*
X659620Y-326431D01*
X660191Y-326716D01*
X661048D01*
X661619Y-326431D01*
X662191Y-325860D01*
X663476Y-322717D02*
Y-326716D01*
Y-324431D02*
X663762Y-323574D01*
X664333Y-323003D01*
X664904Y-322717D01*
X665761D01*
X671017Y-324146D02*
X676159D01*
X682643Y-320718D02*
Y-326716D01*
Y-320718D02*
X685214D01*
X686071Y-321004D01*
X686357Y-321289D01*
X686643Y-321860D01*
Y-322432D01*
X686357Y-323003D01*
X686071Y-323289D01*
X685214Y-323574D01*
X682643D02*
X685214D01*
X686071Y-323860D01*
X686357Y-324146D01*
X686643Y-324717D01*
Y-325574D01*
X686357Y-326145D01*
X686071Y-326431D01*
X685214Y-326716D01*
X682643D01*
X689413Y-322717D02*
X688842Y-323003D01*
X688271Y-323574D01*
X687985Y-324431D01*
Y-325003D01*
X688271Y-325860D01*
X688842Y-326431D01*
X689413Y-326716D01*
X690270D01*
X690842Y-326431D01*
X691413Y-325860D01*
X691699Y-325003D01*
Y-324431D01*
X691413Y-323574D01*
X690842Y-323003D01*
X690270Y-322717D01*
X689413D01*
X693869Y-320718D02*
Y-325574D01*
X694155Y-326431D01*
X694727Y-326716D01*
X695298D01*
X693013Y-322717D02*
X695012D01*
X697012Y-320718D02*
Y-325574D01*
X697297Y-326431D01*
X697869Y-326716D01*
X698440D01*
X696155Y-322717D02*
X698154D01*
X700725D02*
X700154Y-323003D01*
X699583Y-323574D01*
X699297Y-324431D01*
Y-325003D01*
X699583Y-325860D01*
X700154Y-326431D01*
X700725Y-326716D01*
X701582D01*
X702153Y-326431D01*
X702725Y-325860D01*
X703010Y-325003D01*
Y-324431D01*
X702725Y-323574D01*
X702153Y-323003D01*
X701582Y-322717D01*
X700725D01*
X704324D02*
Y-326716D01*
Y-323860D02*
X705181Y-323003D01*
X705753Y-322717D01*
X706610D01*
X707181Y-323003D01*
X707467Y-323860D01*
Y-326716D01*
Y-323860D02*
X708324Y-323003D01*
X708895Y-322717D01*
X709752D01*
X710323Y-323003D01*
X710609Y-323860D01*
Y-326716D01*
X717207Y-320718D02*
Y-326716D01*
X720635D01*
X724720Y-322717D02*
Y-326716D01*
Y-323574D02*
X724149Y-323003D01*
X723577Y-322717D01*
X722720D01*
X722149Y-323003D01*
X721578Y-323574D01*
X721292Y-324431D01*
Y-325003D01*
X721578Y-325860D01*
X722149Y-326431D01*
X722720Y-326716D01*
X723577D01*
X724149Y-326431D01*
X724720Y-325860D01*
X726605Y-322717D02*
X728319Y-326716D01*
X730033Y-322717D02*
X728319Y-326716D01*
X727748Y-327859D01*
X727177Y-328431D01*
X726605Y-328716D01*
X726320D01*
X731033Y-324431D02*
X734461D01*
Y-323860D01*
X734175Y-323289D01*
X733889Y-323003D01*
X733318Y-322717D01*
X732461D01*
X731890Y-323003D01*
X731319Y-323574D01*
X731033Y-324431D01*
Y-325003D01*
X731319Y-325860D01*
X731890Y-326431D01*
X732461Y-326716D01*
X733318D01*
X733889Y-326431D01*
X734461Y-325860D01*
X735746Y-322717D02*
Y-326716D01*
Y-324431D02*
X736032Y-323574D01*
X736603Y-323003D01*
X737175Y-322717D01*
X738031D01*
X627769Y-335718D02*
Y-341717D01*
X625770Y-335718D02*
X629769D01*
X631911Y-337717D02*
X631340Y-338003D01*
X630769Y-338574D01*
X630483Y-339431D01*
Y-340003D01*
X630769Y-340860D01*
X631340Y-341431D01*
X631911Y-341717D01*
X632768D01*
X633340Y-341431D01*
X633911Y-340860D01*
X634197Y-340003D01*
Y-339431D01*
X633911Y-338574D01*
X633340Y-338003D01*
X632768Y-337717D01*
X631911D01*
X635511D02*
Y-343716D01*
Y-338574D02*
X636082Y-338003D01*
X636653Y-337717D01*
X637510D01*
X638082Y-338003D01*
X638653Y-338574D01*
X638938Y-339431D01*
Y-340003D01*
X638653Y-340860D01*
X638082Y-341431D01*
X637510Y-341717D01*
X636653D01*
X636082Y-341431D01*
X635511Y-340860D01*
X644937Y-335718D02*
Y-341717D01*
X648365D01*
X652450Y-337717D02*
Y-341717D01*
Y-338574D02*
X651878Y-338003D01*
X651307Y-337717D01*
X650450D01*
X649879Y-338003D01*
X649308Y-338574D01*
X649022Y-339431D01*
Y-340003D01*
X649308Y-340860D01*
X649879Y-341431D01*
X650450Y-341717D01*
X651307D01*
X651878Y-341431D01*
X652450Y-340860D01*
X654335Y-337717D02*
X656049Y-341717D01*
X657763Y-337717D02*
X656049Y-341717D01*
X655478Y-342859D01*
X654907Y-343430D01*
X654335Y-343716D01*
X654049D01*
X658763Y-339431D02*
X662191D01*
Y-338860D01*
X661905Y-338289D01*
X661619Y-338003D01*
X661048Y-337717D01*
X660191D01*
X659620Y-338003D01*
X659048Y-338574D01*
X658763Y-339431D01*
Y-340003D01*
X659048Y-340860D01*
X659620Y-341431D01*
X660191Y-341717D01*
X661048D01*
X661619Y-341431D01*
X662191Y-340860D01*
X663476Y-337717D02*
Y-341717D01*
Y-339431D02*
X663762Y-338574D01*
X664333Y-338003D01*
X664904Y-337717D01*
X665761D01*
X671017Y-339146D02*
X676159D01*
X682643Y-335718D02*
Y-341717D01*
Y-335718D02*
X685214D01*
X686071Y-336003D01*
X686357Y-336289D01*
X686643Y-336860D01*
Y-337432D01*
X686357Y-338003D01*
X686071Y-338289D01*
X685214Y-338574D01*
X682643D02*
X685214D01*
X686071Y-338860D01*
X686357Y-339146D01*
X686643Y-339717D01*
Y-340574D01*
X686357Y-341145D01*
X686071Y-341431D01*
X685214Y-341717D01*
X682643D01*
X689413Y-337717D02*
X688842Y-338003D01*
X688271Y-338574D01*
X687985Y-339431D01*
Y-340003D01*
X688271Y-340860D01*
X688842Y-341431D01*
X689413Y-341717D01*
X690270D01*
X690842Y-341431D01*
X691413Y-340860D01*
X691699Y-340003D01*
Y-339431D01*
X691413Y-338574D01*
X690842Y-338003D01*
X690270Y-337717D01*
X689413D01*
X693869Y-335718D02*
Y-340574D01*
X694155Y-341431D01*
X694727Y-341717D01*
X695298D01*
X693013Y-337717D02*
X695012D01*
X697012Y-335718D02*
Y-340574D01*
X697297Y-341431D01*
X697869Y-341717D01*
X698440D01*
X696155Y-337717D02*
X698154D01*
X700725D02*
X700154Y-338003D01*
X699583Y-338574D01*
X699297Y-339431D01*
Y-340003D01*
X699583Y-340860D01*
X700154Y-341431D01*
X700725Y-341717D01*
X701582D01*
X702153Y-341431D01*
X702725Y-340860D01*
X703010Y-340003D01*
Y-339431D01*
X702725Y-338574D01*
X702153Y-338003D01*
X701582Y-337717D01*
X700725D01*
X704324D02*
Y-341717D01*
Y-338860D02*
X705181Y-338003D01*
X705753Y-337717D01*
X706610D01*
X707181Y-338003D01*
X707467Y-338860D01*
Y-341717D01*
Y-338860D02*
X708324Y-338003D01*
X708895Y-337717D01*
X709752D01*
X710323Y-338003D01*
X710609Y-338860D01*
Y-341717D01*
X717207Y-335718D02*
Y-341717D01*
X720635D01*
X724720Y-337717D02*
Y-341717D01*
Y-338574D02*
X724149Y-338003D01*
X723577Y-337717D01*
X722720D01*
X722149Y-338003D01*
X721578Y-338574D01*
X721292Y-339431D01*
Y-340003D01*
X721578Y-340860D01*
X722149Y-341431D01*
X722720Y-341717D01*
X723577D01*
X724149Y-341431D01*
X724720Y-340860D01*
X726605Y-337717D02*
X728319Y-341717D01*
X730033Y-337717D02*
X728319Y-341717D01*
X727748Y-342859D01*
X727177Y-343430D01*
X726605Y-343716D01*
X726320D01*
X731033Y-339431D02*
X734461D01*
Y-338860D01*
X734175Y-338289D01*
X733889Y-338003D01*
X733318Y-337717D01*
X732461D01*
X731890Y-338003D01*
X731319Y-338574D01*
X731033Y-339431D01*
Y-340003D01*
X731319Y-340860D01*
X731890Y-341431D01*
X732461Y-341717D01*
X733318D01*
X733889Y-341431D01*
X734461Y-340860D01*
X735746Y-337717D02*
Y-341717D01*
Y-339431D02*
X736032Y-338574D01*
X736603Y-338003D01*
X737175Y-337717D01*
X738031D01*
X566848Y-260718D02*
Y-266717D01*
Y-260718D02*
X569419D01*
X570276Y-261003D01*
X570562Y-261289D01*
X570848Y-261860D01*
Y-262432D01*
X570562Y-263003D01*
X570276Y-263289D01*
X569419Y-263574D01*
X566848D01*
X568848D02*
X570848Y-266717D01*
X573618Y-262717D02*
X573047Y-263003D01*
X572476Y-263574D01*
X572190Y-264431D01*
Y-265003D01*
X572476Y-265860D01*
X573047Y-266431D01*
X573618Y-266717D01*
X574475D01*
X575047Y-266431D01*
X575618Y-265860D01*
X575904Y-265003D01*
Y-264431D01*
X575618Y-263574D01*
X575047Y-263003D01*
X574475Y-262717D01*
X573618D01*
X577218D02*
Y-265574D01*
X577503Y-266431D01*
X578075Y-266717D01*
X578932D01*
X579503Y-266431D01*
X580360Y-265574D01*
Y-262717D02*
Y-266717D01*
X581931Y-262717D02*
Y-266717D01*
Y-263860D02*
X582788Y-263003D01*
X583359Y-262717D01*
X584216D01*
X584787Y-263003D01*
X585073Y-263860D01*
Y-266717D01*
X590072Y-260718D02*
Y-266717D01*
Y-263574D02*
X589501Y-263003D01*
X588929Y-262717D01*
X588072D01*
X587501Y-263003D01*
X586930Y-263574D01*
X586644Y-264431D01*
Y-265003D01*
X586930Y-265860D01*
X587501Y-266431D01*
X588072Y-266717D01*
X588929D01*
X589501Y-266431D01*
X590072Y-265860D01*
X566848Y-275718D02*
Y-281716D01*
Y-275718D02*
X569419D01*
X570276Y-276004D01*
X570562Y-276289D01*
X570848Y-276860D01*
Y-277432D01*
X570562Y-278003D01*
X570276Y-278289D01*
X569419Y-278574D01*
X566848D01*
X568848D02*
X570848Y-281716D01*
X573618Y-277717D02*
X573047Y-278003D01*
X572476Y-278574D01*
X572190Y-279431D01*
Y-280003D01*
X572476Y-280860D01*
X573047Y-281431D01*
X573618Y-281716D01*
X574475D01*
X575047Y-281431D01*
X575618Y-280860D01*
X575904Y-280003D01*
Y-279431D01*
X575618Y-278574D01*
X575047Y-278003D01*
X574475Y-277717D01*
X573618D01*
X577218D02*
Y-280574D01*
X577503Y-281431D01*
X578075Y-281716D01*
X578932D01*
X579503Y-281431D01*
X580360Y-280574D01*
Y-277717D02*
Y-281716D01*
X581931Y-277717D02*
Y-281716D01*
Y-278860D02*
X582788Y-278003D01*
X583359Y-277717D01*
X584216D01*
X584787Y-278003D01*
X585073Y-278860D01*
Y-281716D01*
X590072Y-275718D02*
Y-281716D01*
Y-278574D02*
X589501Y-278003D01*
X588929Y-277717D01*
X588072D01*
X587501Y-278003D01*
X586930Y-278574D01*
X586644Y-279431D01*
Y-280003D01*
X586930Y-280860D01*
X587501Y-281431D01*
X588072Y-281716D01*
X588929D01*
X589501Y-281431D01*
X590072Y-280860D01*
X566848Y-290718D02*
Y-296716D01*
Y-290718D02*
X569419D01*
X570276Y-291003D01*
X570562Y-291289D01*
X570848Y-291860D01*
Y-292432D01*
X570562Y-293003D01*
X570276Y-293289D01*
X569419Y-293574D01*
X566848D01*
X568848D02*
X570848Y-296716D01*
X573618Y-292717D02*
X573047Y-293003D01*
X572476Y-293574D01*
X572190Y-294431D01*
Y-295003D01*
X572476Y-295860D01*
X573047Y-296431D01*
X573618Y-296716D01*
X574475D01*
X575047Y-296431D01*
X575618Y-295860D01*
X575904Y-295003D01*
Y-294431D01*
X575618Y-293574D01*
X575047Y-293003D01*
X574475Y-292717D01*
X573618D01*
X577218D02*
Y-295574D01*
X577503Y-296431D01*
X578075Y-296716D01*
X578932D01*
X579503Y-296431D01*
X580360Y-295574D01*
Y-292717D02*
Y-296716D01*
X581931Y-292717D02*
Y-296716D01*
Y-293860D02*
X582788Y-293003D01*
X583359Y-292717D01*
X584216D01*
X584787Y-293003D01*
X585073Y-293860D01*
Y-296716D01*
X590072Y-290718D02*
Y-296716D01*
Y-293574D02*
X589501Y-293003D01*
X588929Y-292717D01*
X588072D01*
X587501Y-293003D01*
X586930Y-293574D01*
X586644Y-294431D01*
Y-295003D01*
X586930Y-295860D01*
X587501Y-296431D01*
X588072Y-296716D01*
X588929D01*
X589501Y-296431D01*
X590072Y-295860D01*
X566848Y-305718D02*
Y-311717D01*
Y-305718D02*
X569419D01*
X570276Y-306003D01*
X570562Y-306289D01*
X570848Y-306860D01*
Y-307432D01*
X570562Y-308003D01*
X570276Y-308289D01*
X569419Y-308574D01*
X566848D01*
X568848D02*
X570848Y-311717D01*
X573618Y-307717D02*
X573047Y-308003D01*
X572476Y-308574D01*
X572190Y-309431D01*
Y-310003D01*
X572476Y-310860D01*
X573047Y-311431D01*
X573618Y-311717D01*
X574475D01*
X575047Y-311431D01*
X575618Y-310860D01*
X575904Y-310003D01*
Y-309431D01*
X575618Y-308574D01*
X575047Y-308003D01*
X574475Y-307717D01*
X573618D01*
X577218D02*
Y-310574D01*
X577503Y-311431D01*
X578075Y-311717D01*
X578932D01*
X579503Y-311431D01*
X580360Y-310574D01*
Y-307717D02*
Y-311717D01*
X581931Y-307717D02*
Y-311717D01*
Y-308860D02*
X582788Y-308003D01*
X583359Y-307717D01*
X584216D01*
X584787Y-308003D01*
X585073Y-308860D01*
Y-311717D01*
X590072Y-305718D02*
Y-311717D01*
Y-308574D02*
X589501Y-308003D01*
X588929Y-307717D01*
X588072D01*
X587501Y-308003D01*
X586930Y-308574D01*
X586644Y-309431D01*
Y-310003D01*
X586930Y-310860D01*
X587501Y-311431D01*
X588072Y-311717D01*
X588929D01*
X589501Y-311431D01*
X590072Y-310860D01*
X566848Y-320718D02*
Y-326716D01*
Y-320718D02*
X569419D01*
X570276Y-321004D01*
X570562Y-321289D01*
X570848Y-321860D01*
Y-322432D01*
X570562Y-323003D01*
X570276Y-323289D01*
X569419Y-323574D01*
X566848D01*
X568848D02*
X570848Y-326716D01*
X573618Y-322717D02*
X573047Y-323003D01*
X572476Y-323574D01*
X572190Y-324431D01*
Y-325003D01*
X572476Y-325860D01*
X573047Y-326431D01*
X573618Y-326716D01*
X574475D01*
X575047Y-326431D01*
X575618Y-325860D01*
X575904Y-325003D01*
Y-324431D01*
X575618Y-323574D01*
X575047Y-323003D01*
X574475Y-322717D01*
X573618D01*
X577218D02*
Y-325574D01*
X577503Y-326431D01*
X578075Y-326716D01*
X578932D01*
X579503Y-326431D01*
X580360Y-325574D01*
Y-322717D02*
Y-326716D01*
X581931Y-322717D02*
Y-326716D01*
Y-323860D02*
X582788Y-323003D01*
X583359Y-322717D01*
X584216D01*
X584787Y-323003D01*
X585073Y-323860D01*
Y-326716D01*
X590072Y-320718D02*
Y-326716D01*
Y-323574D02*
X589501Y-323003D01*
X588929Y-322717D01*
X588072D01*
X587501Y-323003D01*
X586930Y-323574D01*
X586644Y-324431D01*
Y-325003D01*
X586930Y-325860D01*
X587501Y-326431D01*
X588072Y-326716D01*
X588929D01*
X589501Y-326431D01*
X590072Y-325860D01*
X566848Y-335718D02*
Y-341717D01*
Y-335718D02*
X569419D01*
X570276Y-336003D01*
X570562Y-336289D01*
X570848Y-336860D01*
Y-337432D01*
X570562Y-338003D01*
X570276Y-338289D01*
X569419Y-338574D01*
X566848D01*
X568848D02*
X570848Y-341717D01*
X573618Y-337717D02*
X573047Y-338003D01*
X572476Y-338574D01*
X572190Y-339431D01*
Y-340003D01*
X572476Y-340860D01*
X573047Y-341431D01*
X573618Y-341717D01*
X574475D01*
X575047Y-341431D01*
X575618Y-340860D01*
X575904Y-340003D01*
Y-339431D01*
X575618Y-338574D01*
X575047Y-338003D01*
X574475Y-337717D01*
X573618D01*
X577218D02*
Y-340574D01*
X577503Y-341431D01*
X578075Y-341717D01*
X578932D01*
X579503Y-341431D01*
X580360Y-340574D01*
Y-337717D02*
Y-341717D01*
X581931Y-337717D02*
Y-341717D01*
Y-338860D02*
X582788Y-338003D01*
X583359Y-337717D01*
X584216D01*
X584787Y-338003D01*
X585073Y-338860D01*
Y-341717D01*
X590072Y-335718D02*
Y-341717D01*
Y-338574D02*
X589501Y-338003D01*
X588929Y-337717D01*
X588072D01*
X587501Y-338003D01*
X586930Y-338574D01*
X586644Y-339431D01*
Y-340003D01*
X586930Y-340860D01*
X587501Y-341431D01*
X588072Y-341717D01*
X588929D01*
X589501Y-341431D01*
X590072Y-340860D01*
X527157Y-263860D02*
X529728D01*
X530585Y-263574D01*
X530871Y-263289D01*
X531156Y-262717D01*
Y-261860D01*
X530871Y-261289D01*
X530585Y-261003D01*
X529728Y-260718D01*
X527157D01*
Y-266717D01*
X534499Y-260718D02*
Y-266717D01*
X532499Y-260718D02*
X536498D01*
X537212D02*
Y-266717D01*
X541211Y-260718D02*
Y-266717D01*
X537212Y-263574D02*
X541211D01*
X527157Y-278860D02*
X529728D01*
X530585Y-278574D01*
X530871Y-278289D01*
X531156Y-277717D01*
Y-276860D01*
X530871Y-276289D01*
X530585Y-276004D01*
X529728Y-275718D01*
X527157D01*
Y-281716D01*
X534499Y-275718D02*
Y-281716D01*
X532499Y-275718D02*
X536498D01*
X537212D02*
Y-281716D01*
X541211Y-275718D02*
Y-281716D01*
X537212Y-278574D02*
X541211D01*
X527157Y-293860D02*
X529728D01*
X530585Y-293574D01*
X530871Y-293289D01*
X531156Y-292717D01*
Y-291860D01*
X530871Y-291289D01*
X530585Y-291003D01*
X529728Y-290718D01*
X527157D01*
Y-296716D01*
X534499Y-290718D02*
Y-296716D01*
X532499Y-290718D02*
X536498D01*
X537212D02*
Y-296716D01*
X541211Y-290718D02*
Y-296716D01*
X537212Y-293574D02*
X541211D01*
X527157Y-308860D02*
X529728D01*
X530585Y-308574D01*
X530871Y-308289D01*
X531156Y-307717D01*
Y-306860D01*
X530871Y-306289D01*
X530585Y-306003D01*
X529728Y-305718D01*
X527157D01*
Y-311717D01*
X534499Y-305718D02*
Y-311717D01*
X532499Y-305718D02*
X536498D01*
X537212D02*
Y-311717D01*
X541211Y-305718D02*
Y-311717D01*
X537212Y-308574D02*
X541211D01*
X527157Y-323860D02*
X529728D01*
X530585Y-323574D01*
X530871Y-323289D01*
X531156Y-322717D01*
Y-321860D01*
X530871Y-321289D01*
X530585Y-321004D01*
X529728Y-320718D01*
X527157D01*
Y-326716D01*
X534499Y-320718D02*
Y-326716D01*
X532499Y-320718D02*
X536498D01*
X537212D02*
Y-326716D01*
X541211Y-320718D02*
Y-326716D01*
X537212Y-323574D02*
X541211D01*
X527157Y-338860D02*
X529728D01*
X530585Y-338574D01*
X530871Y-338289D01*
X531156Y-337717D01*
Y-336860D01*
X530871Y-336289D01*
X530585Y-336003D01*
X529728Y-335718D01*
X527157D01*
Y-341717D01*
X534499Y-335718D02*
Y-341717D01*
X532499Y-335718D02*
X536498D01*
X537212D02*
Y-341717D01*
X541211Y-335718D02*
Y-341717D01*
X537212Y-338574D02*
X541211D01*
X429147Y-260718D02*
X428290Y-261003D01*
X427719Y-261860D01*
X427433Y-263289D01*
Y-264146D01*
X427719Y-265574D01*
X428290Y-266431D01*
X429147Y-266717D01*
X429719D01*
X430576Y-266431D01*
X431147Y-265574D01*
X431432Y-264146D01*
Y-263289D01*
X431147Y-261860D01*
X430576Y-261003D01*
X429719Y-260718D01*
X429147D01*
X433061Y-266145D02*
X432775Y-266431D01*
X433061Y-266717D01*
X433346Y-266431D01*
X433061Y-266145D01*
X438088Y-260718D02*
X435232D01*
X434946Y-263289D01*
X435232Y-263003D01*
X436089Y-262717D01*
X436946D01*
X437803Y-263003D01*
X438374Y-263574D01*
X438659Y-264431D01*
Y-265003D01*
X438374Y-265860D01*
X437803Y-266431D01*
X436946Y-266717D01*
X436089D01*
X435232Y-266431D01*
X434946Y-266145D01*
X434660Y-265574D01*
X441716Y-260718D02*
X440859Y-261003D01*
X440288Y-261860D01*
X440002Y-263289D01*
Y-264146D01*
X440288Y-265574D01*
X440859Y-266431D01*
X441716Y-266717D01*
X442287D01*
X443144Y-266431D01*
X443716Y-265574D01*
X444001Y-264146D01*
Y-263289D01*
X443716Y-261860D01*
X443144Y-261003D01*
X442287Y-260718D01*
X441716D01*
X447058D02*
X446201Y-261003D01*
X445629Y-261860D01*
X445344Y-263289D01*
Y-264146D01*
X445629Y-265574D01*
X446201Y-266431D01*
X447058Y-266717D01*
X447629D01*
X448486Y-266431D01*
X449057Y-265574D01*
X449343Y-264146D01*
Y-263289D01*
X449057Y-261860D01*
X448486Y-261003D01*
X447629Y-260718D01*
X447058D01*
X450686Y-262717D02*
Y-266717D01*
Y-263860D02*
X451543Y-263003D01*
X452114Y-262717D01*
X452971D01*
X453542Y-263003D01*
X453828Y-263860D01*
Y-266717D01*
Y-263860D02*
X454685Y-263003D01*
X455256Y-262717D01*
X456113D01*
X456684Y-263003D01*
X456970Y-263860D01*
Y-266717D01*
X458855Y-262717D02*
Y-266717D01*
Y-263860D02*
X459712Y-263003D01*
X460283Y-262717D01*
X461140D01*
X461712Y-263003D01*
X461997Y-263860D01*
Y-266717D01*
Y-263860D02*
X462854Y-263003D01*
X463426Y-262717D01*
X464283D01*
X464854Y-263003D01*
X465139Y-263860D01*
Y-266717D01*
X473738Y-259575D02*
X473166Y-260146D01*
X472595Y-261003D01*
X472024Y-262146D01*
X471738Y-263574D01*
Y-264717D01*
X472024Y-266145D01*
X472595Y-267288D01*
X473166Y-268145D01*
X473738Y-268716D01*
X473166Y-260146D02*
X472595Y-261289D01*
X472309Y-262146D01*
X472024Y-263574D01*
Y-264717D01*
X472309Y-266145D01*
X472595Y-267002D01*
X473166Y-268145D01*
X474880Y-261860D02*
X475452Y-261575D01*
X476309Y-260718D01*
Y-266717D01*
X482993Y-262717D02*
X482707Y-263574D01*
X482136Y-264146D01*
X481279Y-264431D01*
X480993D01*
X480136Y-264146D01*
X479565Y-263574D01*
X479279Y-262717D01*
Y-262432D01*
X479565Y-261575D01*
X480136Y-261003D01*
X480993Y-260718D01*
X481279D01*
X482136Y-261003D01*
X482707Y-261575D01*
X482993Y-262717D01*
Y-264146D01*
X482707Y-265574D01*
X482136Y-266431D01*
X481279Y-266717D01*
X480708D01*
X479851Y-266431D01*
X479565Y-265860D01*
X484907Y-266145D02*
X484621Y-266431D01*
X484907Y-266717D01*
X485192Y-266431D01*
X484907Y-266145D01*
X489934Y-261575D02*
X489649Y-261003D01*
X488792Y-260718D01*
X488220D01*
X487363Y-261003D01*
X486792Y-261860D01*
X486506Y-263289D01*
Y-264717D01*
X486792Y-265860D01*
X487363Y-266431D01*
X488220Y-266717D01*
X488506D01*
X489363Y-266431D01*
X489934Y-265860D01*
X490220Y-265003D01*
Y-264717D01*
X489934Y-263860D01*
X489363Y-263289D01*
X488506Y-263003D01*
X488220D01*
X487363Y-263289D01*
X486792Y-263860D01*
X486506Y-264717D01*
X495247Y-262717D02*
X494962Y-263574D01*
X494390Y-264146D01*
X493534Y-264431D01*
X493248D01*
X492391Y-264146D01*
X491819Y-263574D01*
X491534Y-262717D01*
Y-262432D01*
X491819Y-261575D01*
X492391Y-261003D01*
X493248Y-260718D01*
X493534D01*
X494390Y-261003D01*
X494962Y-261575D01*
X495247Y-262717D01*
Y-264146D01*
X494962Y-265574D01*
X494390Y-266431D01*
X493534Y-266717D01*
X492962D01*
X492105Y-266431D01*
X491819Y-265860D01*
X496876Y-262717D02*
Y-266717D01*
Y-263860D02*
X497733Y-263003D01*
X498304Y-262717D01*
X499161D01*
X499732Y-263003D01*
X500018Y-263860D01*
Y-266717D01*
Y-263860D02*
X500875Y-263003D01*
X501446Y-262717D01*
X502303D01*
X502874Y-263003D01*
X503160Y-263860D01*
Y-266717D01*
X505617Y-260718D02*
X505902Y-261003D01*
X506188Y-260718D01*
X505902Y-260432D01*
X505617Y-260718D01*
X505902Y-262717D02*
Y-266717D01*
X507245Y-260718D02*
Y-266717D01*
X508502Y-259575D02*
X509073Y-260146D01*
X509644Y-261003D01*
X510216Y-262146D01*
X510501Y-263574D01*
Y-264717D01*
X510216Y-266145D01*
X509644Y-267288D01*
X509073Y-268145D01*
X508502Y-268716D01*
X509073Y-260146D02*
X509644Y-261289D01*
X509930Y-262146D01*
X510216Y-263574D01*
Y-264717D01*
X509930Y-266145D01*
X509644Y-267002D01*
X509073Y-268145D01*
X429147Y-275718D02*
X428290Y-276004D01*
X427719Y-276860D01*
X427433Y-278289D01*
Y-279146D01*
X427719Y-280574D01*
X428290Y-281431D01*
X429147Y-281716D01*
X429719D01*
X430576Y-281431D01*
X431147Y-280574D01*
X431432Y-279146D01*
Y-278289D01*
X431147Y-276860D01*
X430576Y-276004D01*
X429719Y-275718D01*
X429147D01*
X433061Y-281145D02*
X432775Y-281431D01*
X433061Y-281716D01*
X433346Y-281431D01*
X433061Y-281145D01*
X438659Y-275718D02*
X435803Y-281716D01*
X434660Y-275718D02*
X438659D01*
X441716D02*
X440859Y-276004D01*
X440288Y-276860D01*
X440002Y-278289D01*
Y-279146D01*
X440288Y-280574D01*
X440859Y-281431D01*
X441716Y-281716D01*
X442287D01*
X443144Y-281431D01*
X443716Y-280574D01*
X444001Y-279146D01*
Y-278289D01*
X443716Y-276860D01*
X443144Y-276004D01*
X442287Y-275718D01*
X441716D01*
X447058D02*
X446201Y-276004D01*
X445629Y-276860D01*
X445344Y-278289D01*
Y-279146D01*
X445629Y-280574D01*
X446201Y-281431D01*
X447058Y-281716D01*
X447629D01*
X448486Y-281431D01*
X449057Y-280574D01*
X449343Y-279146D01*
Y-278289D01*
X449057Y-276860D01*
X448486Y-276004D01*
X447629Y-275718D01*
X447058D01*
X450686Y-277717D02*
Y-281716D01*
Y-278860D02*
X451543Y-278003D01*
X452114Y-277717D01*
X452971D01*
X453542Y-278003D01*
X453828Y-278860D01*
Y-281716D01*
Y-278860D02*
X454685Y-278003D01*
X455256Y-277717D01*
X456113D01*
X456684Y-278003D01*
X456970Y-278860D01*
Y-281716D01*
X458855Y-277717D02*
Y-281716D01*
Y-278860D02*
X459712Y-278003D01*
X460283Y-277717D01*
X461140D01*
X461712Y-278003D01*
X461997Y-278860D01*
Y-281716D01*
Y-278860D02*
X462854Y-278003D01*
X463426Y-277717D01*
X464283D01*
X464854Y-278003D01*
X465139Y-278860D01*
Y-281716D01*
X473738Y-274575D02*
X473166Y-275147D01*
X472595Y-276004D01*
X472024Y-277146D01*
X471738Y-278574D01*
Y-279717D01*
X472024Y-281145D01*
X472595Y-282288D01*
X473166Y-283145D01*
X473738Y-283716D01*
X473166Y-275147D02*
X472595Y-276289D01*
X472309Y-277146D01*
X472024Y-278574D01*
Y-279717D01*
X472309Y-281145D01*
X472595Y-282002D01*
X473166Y-283145D01*
X475166Y-277146D02*
Y-276860D01*
X475452Y-276289D01*
X475737Y-276004D01*
X476309Y-275718D01*
X477451D01*
X478022Y-276004D01*
X478308Y-276289D01*
X478594Y-276860D01*
Y-277432D01*
X478308Y-278003D01*
X477737Y-278860D01*
X474880Y-281716D01*
X478879D01*
X484221Y-275718D02*
X481365Y-281716D01*
X480222Y-275718D02*
X484221D01*
X485849Y-281145D02*
X485564Y-281431D01*
X485849Y-281716D01*
X486135Y-281431D01*
X485849Y-281145D01*
X490877Y-275718D02*
X488020D01*
X487735Y-278289D01*
X488020Y-278003D01*
X488877Y-277717D01*
X489734D01*
X490591Y-278003D01*
X491162Y-278574D01*
X491448Y-279431D01*
Y-280003D01*
X491162Y-280860D01*
X490591Y-281431D01*
X489734Y-281716D01*
X488877D01*
X488020Y-281431D01*
X487735Y-281145D01*
X487449Y-280574D01*
X496219Y-276575D02*
X495933Y-276004D01*
X495076Y-275718D01*
X494505D01*
X493648Y-276004D01*
X493076Y-276860D01*
X492791Y-278289D01*
Y-279717D01*
X493076Y-280860D01*
X493648Y-281431D01*
X494505Y-281716D01*
X494790D01*
X495647Y-281431D01*
X496219Y-280860D01*
X496504Y-280003D01*
Y-279717D01*
X496219Y-278860D01*
X495647Y-278289D01*
X494790Y-278003D01*
X494505D01*
X493648Y-278289D01*
X493076Y-278860D01*
X492791Y-279717D01*
X497818Y-277717D02*
Y-281716D01*
Y-278860D02*
X498675Y-278003D01*
X499247Y-277717D01*
X500104D01*
X500675Y-278003D01*
X500960Y-278860D01*
Y-281716D01*
Y-278860D02*
X501817Y-278003D01*
X502389Y-277717D01*
X503246D01*
X503817Y-278003D01*
X504103Y-278860D01*
Y-281716D01*
X506559Y-275718D02*
X506845Y-276004D01*
X507130Y-275718D01*
X506845Y-275432D01*
X506559Y-275718D01*
X506845Y-277717D02*
Y-281716D01*
X508187Y-275718D02*
Y-281716D01*
X509444Y-274575D02*
X510016Y-275147D01*
X510587Y-276004D01*
X511158Y-277146D01*
X511444Y-278574D01*
Y-279717D01*
X511158Y-281145D01*
X510587Y-282288D01*
X510016Y-283145D01*
X509444Y-283716D01*
X510016Y-275147D02*
X510587Y-276289D01*
X510873Y-277146D01*
X511158Y-278574D01*
Y-279717D01*
X510873Y-281145D01*
X510587Y-282002D01*
X510016Y-283145D01*
X427433Y-291860D02*
X428005Y-291575D01*
X428862Y-290718D01*
Y-296716D01*
X432118Y-296145D02*
X431832Y-296431D01*
X432118Y-296716D01*
X432404Y-296431D01*
X432118Y-296145D01*
X435432Y-290718D02*
X434575Y-291003D01*
X434003Y-291860D01*
X433718Y-293289D01*
Y-294146D01*
X434003Y-295574D01*
X434575Y-296431D01*
X435432Y-296716D01*
X436003D01*
X436860Y-296431D01*
X437431Y-295574D01*
X437717Y-294146D01*
Y-293289D01*
X437431Y-291860D01*
X436860Y-291003D01*
X436003Y-290718D01*
X435432D01*
X440773D02*
X439916Y-291003D01*
X439345Y-291860D01*
X439059Y-293289D01*
Y-294146D01*
X439345Y-295574D01*
X439916Y-296431D01*
X440773Y-296716D01*
X441345D01*
X442202Y-296431D01*
X442773Y-295574D01*
X443059Y-294146D01*
Y-293289D01*
X442773Y-291860D01*
X442202Y-291003D01*
X441345Y-290718D01*
X440773D01*
X446115D02*
X445258Y-291003D01*
X444687Y-291860D01*
X444401Y-293289D01*
Y-294146D01*
X444687Y-295574D01*
X445258Y-296431D01*
X446115Y-296716D01*
X446686D01*
X447543Y-296431D01*
X448115Y-295574D01*
X448400Y-294146D01*
Y-293289D01*
X448115Y-291860D01*
X447543Y-291003D01*
X446686Y-290718D01*
X446115D01*
X449743Y-292717D02*
Y-296716D01*
Y-293860D02*
X450600Y-293003D01*
X451171Y-292717D01*
X452028D01*
X452599Y-293003D01*
X452885Y-293860D01*
Y-296716D01*
Y-293860D02*
X453742Y-293003D01*
X454313Y-292717D01*
X455170D01*
X455742Y-293003D01*
X456027Y-293860D01*
Y-296716D01*
X457912Y-292717D02*
Y-296716D01*
Y-293860D02*
X458770Y-293003D01*
X459341Y-292717D01*
X460198D01*
X460769Y-293003D01*
X461055Y-293860D01*
Y-296716D01*
Y-293860D02*
X461912Y-293003D01*
X462483Y-292717D01*
X463340D01*
X463911Y-293003D01*
X464197Y-293860D01*
Y-296716D01*
X472795Y-289575D02*
X472224Y-290146D01*
X471653Y-291003D01*
X471081Y-292146D01*
X470795Y-293574D01*
Y-294717D01*
X471081Y-296145D01*
X471653Y-297288D01*
X472224Y-298145D01*
X472795Y-298716D01*
X472224Y-290146D02*
X471653Y-291289D01*
X471367Y-292146D01*
X471081Y-293574D01*
Y-294717D01*
X471367Y-296145D01*
X471653Y-297002D01*
X472224Y-298145D01*
X474509Y-290718D02*
X477651D01*
X475937Y-293003D01*
X476794D01*
X477365Y-293289D01*
X477651Y-293574D01*
X477937Y-294431D01*
Y-295003D01*
X477651Y-295860D01*
X477080Y-296431D01*
X476223Y-296716D01*
X475366D01*
X474509Y-296431D01*
X474223Y-296145D01*
X473938Y-295574D01*
X482993Y-292717D02*
X482707Y-293574D01*
X482136Y-294146D01*
X481279Y-294431D01*
X480993D01*
X480136Y-294146D01*
X479565Y-293574D01*
X479279Y-292717D01*
Y-292432D01*
X479565Y-291575D01*
X480136Y-291003D01*
X480993Y-290718D01*
X481279D01*
X482136Y-291003D01*
X482707Y-291575D01*
X482993Y-292717D01*
Y-294146D01*
X482707Y-295574D01*
X482136Y-296431D01*
X481279Y-296716D01*
X480708D01*
X479851Y-296431D01*
X479565Y-295860D01*
X484907Y-296145D02*
X484621Y-296431D01*
X484907Y-296716D01*
X485192Y-296431D01*
X484907Y-296145D01*
X487078Y-290718D02*
X490220D01*
X488506Y-293003D01*
X489363D01*
X489934Y-293289D01*
X490220Y-293574D01*
X490506Y-294431D01*
Y-295003D01*
X490220Y-295860D01*
X489649Y-296431D01*
X488792Y-296716D01*
X487935D01*
X487078Y-296431D01*
X486792Y-296145D01*
X486506Y-295574D01*
X495847Y-290718D02*
X492991Y-296716D01*
X491848Y-290718D02*
X495847D01*
X497190Y-292717D02*
Y-296716D01*
Y-293860D02*
X498047Y-293003D01*
X498618Y-292717D01*
X499475D01*
X500046Y-293003D01*
X500332Y-293860D01*
Y-296716D01*
Y-293860D02*
X501189Y-293003D01*
X501760Y-292717D01*
X502617D01*
X503189Y-293003D01*
X503474Y-293860D01*
Y-296716D01*
X505931Y-290718D02*
X506216Y-291003D01*
X506502Y-290718D01*
X506216Y-290432D01*
X505931Y-290718D01*
X506216Y-292717D02*
Y-296716D01*
X507559Y-290718D02*
Y-296716D01*
X508816Y-289575D02*
X509387Y-290146D01*
X509959Y-291003D01*
X510530Y-292146D01*
X510815Y-293574D01*
Y-294717D01*
X510530Y-296145D01*
X509959Y-297288D01*
X509387Y-298145D01*
X508816Y-298716D01*
X509387Y-290146D02*
X509959Y-291289D01*
X510244Y-292146D01*
X510530Y-293574D01*
Y-294717D01*
X510244Y-296145D01*
X509959Y-297002D01*
X509387Y-298145D01*
X427433Y-306860D02*
X428005Y-306575D01*
X428862Y-305718D01*
Y-311717D01*
X432118Y-311145D02*
X431832Y-311431D01*
X432118Y-311717D01*
X432404Y-311431D01*
X432118Y-311145D01*
X433718Y-306860D02*
X434289Y-306575D01*
X435146Y-305718D01*
Y-311717D01*
X439831Y-305718D02*
X438974Y-306003D01*
X438402Y-306860D01*
X438117Y-308289D01*
Y-309146D01*
X438402Y-310574D01*
X438974Y-311431D01*
X439831Y-311717D01*
X440402D01*
X441259Y-311431D01*
X441830Y-310574D01*
X442116Y-309146D01*
Y-308289D01*
X441830Y-306860D01*
X441259Y-306003D01*
X440402Y-305718D01*
X439831D01*
X445172D02*
X444315Y-306003D01*
X443744Y-306860D01*
X443459Y-308289D01*
Y-309146D01*
X443744Y-310574D01*
X444315Y-311431D01*
X445172Y-311717D01*
X445744D01*
X446601Y-311431D01*
X447172Y-310574D01*
X447458Y-309146D01*
Y-308289D01*
X447172Y-306860D01*
X446601Y-306003D01*
X445744Y-305718D01*
X445172D01*
X448800Y-307717D02*
Y-311717D01*
Y-308860D02*
X449657Y-308003D01*
X450229Y-307717D01*
X451085D01*
X451657Y-308003D01*
X451942Y-308860D01*
Y-311717D01*
Y-308860D02*
X452799Y-308003D01*
X453371Y-307717D01*
X454228D01*
X454799Y-308003D01*
X455085Y-308860D01*
Y-311717D01*
X456970Y-307717D02*
Y-311717D01*
Y-308860D02*
X457827Y-308003D01*
X458398Y-307717D01*
X459255D01*
X459826Y-308003D01*
X460112Y-308860D01*
Y-311717D01*
Y-308860D02*
X460969Y-308003D01*
X461540Y-307717D01*
X462397D01*
X462969Y-308003D01*
X463254Y-308860D01*
Y-311717D01*
X471852Y-304575D02*
X471281Y-305147D01*
X470710Y-306003D01*
X470139Y-307146D01*
X469853Y-308574D01*
Y-309717D01*
X470139Y-311145D01*
X470710Y-312288D01*
X471281Y-313145D01*
X471852Y-313716D01*
X471281Y-305147D02*
X470710Y-306289D01*
X470424Y-307146D01*
X470139Y-308574D01*
Y-309717D01*
X470424Y-311145D01*
X470710Y-312002D01*
X471281Y-313145D01*
X475852Y-305718D02*
X472995Y-309717D01*
X477280D01*
X475852Y-305718D02*
Y-311717D01*
X478908Y-305718D02*
X482050D01*
X480336Y-308003D01*
X481193D01*
X481765Y-308289D01*
X482050Y-308574D01*
X482336Y-309431D01*
Y-310003D01*
X482050Y-310860D01*
X481479Y-311431D01*
X480622Y-311717D01*
X479765D01*
X478908Y-311431D01*
X478622Y-311145D01*
X478337Y-310574D01*
X483964Y-311145D02*
X483678Y-311431D01*
X483964Y-311717D01*
X484250Y-311431D01*
X483964Y-311145D01*
X486135Y-305718D02*
X489277D01*
X487563Y-308003D01*
X488420D01*
X488992Y-308289D01*
X489277Y-308574D01*
X489563Y-309431D01*
Y-310003D01*
X489277Y-310860D01*
X488706Y-311431D01*
X487849Y-311717D01*
X486992D01*
X486135Y-311431D01*
X485849Y-311145D01*
X485564Y-310574D01*
X490906Y-306860D02*
X491477Y-306575D01*
X492334Y-305718D01*
Y-311717D01*
X495304Y-307717D02*
Y-311717D01*
Y-308860D02*
X496162Y-308003D01*
X496733Y-307717D01*
X497590D01*
X498161Y-308003D01*
X498447Y-308860D01*
Y-311717D01*
Y-308860D02*
X499304Y-308003D01*
X499875Y-307717D01*
X500732D01*
X501303Y-308003D01*
X501589Y-308860D01*
Y-311717D01*
X504045Y-305718D02*
X504331Y-306003D01*
X504617Y-305718D01*
X504331Y-305432D01*
X504045Y-305718D01*
X504331Y-307717D02*
Y-311717D01*
X505674Y-305718D02*
Y-311717D01*
X506931Y-304575D02*
X507502Y-305147D01*
X508073Y-306003D01*
X508644Y-307146D01*
X508930Y-308574D01*
Y-309717D01*
X508644Y-311145D01*
X508073Y-312288D01*
X507502Y-313145D01*
X506931Y-313716D01*
X507502Y-305147D02*
X508073Y-306289D01*
X508359Y-307146D01*
X508644Y-308574D01*
Y-309717D01*
X508359Y-311145D01*
X508073Y-312002D01*
X507502Y-313145D01*
X427433Y-321860D02*
X428005Y-321575D01*
X428862Y-320718D01*
Y-326716D01*
X432118Y-326145D02*
X431832Y-326431D01*
X432118Y-326716D01*
X432404Y-326431D01*
X432118Y-326145D01*
X434289Y-320718D02*
X437431D01*
X435717Y-323003D01*
X436574D01*
X437146Y-323289D01*
X437431Y-323574D01*
X437717Y-324431D01*
Y-325003D01*
X437431Y-325860D01*
X436860Y-326431D01*
X436003Y-326716D01*
X435146D01*
X434289Y-326431D01*
X434003Y-326145D01*
X433718Y-325574D01*
X440773Y-320718D02*
X439916Y-321004D01*
X439345Y-321860D01*
X439059Y-323289D01*
Y-324146D01*
X439345Y-325574D01*
X439916Y-326431D01*
X440773Y-326716D01*
X441345D01*
X442202Y-326431D01*
X442773Y-325574D01*
X443059Y-324146D01*
Y-323289D01*
X442773Y-321860D01*
X442202Y-321004D01*
X441345Y-320718D01*
X440773D01*
X446115D02*
X445258Y-321004D01*
X444687Y-321860D01*
X444401Y-323289D01*
Y-324146D01*
X444687Y-325574D01*
X445258Y-326431D01*
X446115Y-326716D01*
X446686D01*
X447543Y-326431D01*
X448115Y-325574D01*
X448400Y-324146D01*
Y-323289D01*
X448115Y-321860D01*
X447543Y-321004D01*
X446686Y-320718D01*
X446115D01*
X449743Y-322717D02*
Y-326716D01*
Y-323860D02*
X450600Y-323003D01*
X451171Y-322717D01*
X452028D01*
X452599Y-323003D01*
X452885Y-323860D01*
Y-326716D01*
Y-323860D02*
X453742Y-323003D01*
X454313Y-322717D01*
X455170D01*
X455742Y-323003D01*
X456027Y-323860D01*
Y-326716D01*
X457912Y-322717D02*
Y-326716D01*
Y-323860D02*
X458770Y-323003D01*
X459341Y-322717D01*
X460198D01*
X460769Y-323003D01*
X461055Y-323860D01*
Y-326716D01*
Y-323860D02*
X461912Y-323003D01*
X462483Y-322717D01*
X463340D01*
X463911Y-323003D01*
X464197Y-323860D01*
Y-326716D01*
X472795Y-319575D02*
X472224Y-320146D01*
X471653Y-321004D01*
X471081Y-322146D01*
X470795Y-323574D01*
Y-324717D01*
X471081Y-326145D01*
X471653Y-327288D01*
X472224Y-328145D01*
X472795Y-328716D01*
X472224Y-320146D02*
X471653Y-321289D01*
X471367Y-322146D01*
X471081Y-323574D01*
Y-324717D01*
X471367Y-326145D01*
X471653Y-327002D01*
X472224Y-328145D01*
X477365Y-320718D02*
X474509D01*
X474223Y-323289D01*
X474509Y-323003D01*
X475366Y-322717D01*
X476223D01*
X477080Y-323003D01*
X477651Y-323574D01*
X477937Y-324431D01*
Y-325003D01*
X477651Y-325860D01*
X477080Y-326431D01*
X476223Y-326716D01*
X475366D01*
X474509Y-326431D01*
X474223Y-326145D01*
X473938Y-325574D01*
X479279Y-321860D02*
X479851Y-321575D01*
X480708Y-320718D01*
Y-326716D01*
X483964Y-326145D02*
X483678Y-326431D01*
X483964Y-326716D01*
X484250Y-326431D01*
X483964Y-326145D01*
X485564Y-321860D02*
X486135Y-321575D01*
X486992Y-320718D01*
Y-326716D01*
X491391Y-320718D02*
X490534Y-321004D01*
X490248Y-321575D01*
Y-322146D01*
X490534Y-322717D01*
X491105Y-323003D01*
X492248Y-323289D01*
X493105Y-323574D01*
X493676Y-324146D01*
X493962Y-324717D01*
Y-325574D01*
X493676Y-326145D01*
X493391Y-326431D01*
X492534Y-326716D01*
X491391D01*
X490534Y-326431D01*
X490248Y-326145D01*
X489963Y-325574D01*
Y-324717D01*
X490248Y-324146D01*
X490820Y-323574D01*
X491677Y-323289D01*
X492819Y-323003D01*
X493391Y-322717D01*
X493676Y-322146D01*
Y-321575D01*
X493391Y-321004D01*
X492534Y-320718D01*
X491391D01*
X495304Y-322717D02*
Y-326716D01*
Y-323860D02*
X496162Y-323003D01*
X496733Y-322717D01*
X497590D01*
X498161Y-323003D01*
X498447Y-323860D01*
Y-326716D01*
Y-323860D02*
X499304Y-323003D01*
X499875Y-322717D01*
X500732D01*
X501303Y-323003D01*
X501589Y-323860D01*
Y-326716D01*
X504045Y-320718D02*
X504331Y-321004D01*
X504617Y-320718D01*
X504331Y-320432D01*
X504045Y-320718D01*
X504331Y-322717D02*
Y-326716D01*
X505674Y-320718D02*
Y-326716D01*
X506931Y-319575D02*
X507502Y-320146D01*
X508073Y-321004D01*
X508644Y-322146D01*
X508930Y-323574D01*
Y-324717D01*
X508644Y-326145D01*
X508073Y-327288D01*
X507502Y-328145D01*
X506931Y-328716D01*
X507502Y-320146D02*
X508073Y-321289D01*
X508359Y-322146D01*
X508644Y-323574D01*
Y-324717D01*
X508359Y-326145D01*
X508073Y-327002D01*
X507502Y-328145D01*
X428005Y-335718D02*
X431147D01*
X429433Y-338003D01*
X430290D01*
X430861Y-338289D01*
X431147Y-338574D01*
X431432Y-339431D01*
Y-340003D01*
X431147Y-340860D01*
X430576Y-341431D01*
X429719Y-341717D01*
X428862D01*
X428005Y-341431D01*
X427719Y-341145D01*
X427433Y-340574D01*
X433061Y-341145D02*
X432775Y-341431D01*
X433061Y-341717D01*
X433346Y-341431D01*
X433061Y-341145D01*
X434946Y-337146D02*
Y-336860D01*
X435232Y-336289D01*
X435517Y-336003D01*
X436089Y-335718D01*
X437231D01*
X437803Y-336003D01*
X438088Y-336289D01*
X438374Y-336860D01*
Y-337432D01*
X438088Y-338003D01*
X437517Y-338860D01*
X434660Y-341717D01*
X438659D01*
X441716Y-335718D02*
X440859Y-336003D01*
X440288Y-336860D01*
X440002Y-338289D01*
Y-339146D01*
X440288Y-340574D01*
X440859Y-341431D01*
X441716Y-341717D01*
X442287D01*
X443144Y-341431D01*
X443716Y-340574D01*
X444001Y-339146D01*
Y-338289D01*
X443716Y-336860D01*
X443144Y-336003D01*
X442287Y-335718D01*
X441716D01*
X447058D02*
X446201Y-336003D01*
X445629Y-336860D01*
X445344Y-338289D01*
Y-339146D01*
X445629Y-340574D01*
X446201Y-341431D01*
X447058Y-341717D01*
X447629D01*
X448486Y-341431D01*
X449057Y-340574D01*
X449343Y-339146D01*
Y-338289D01*
X449057Y-336860D01*
X448486Y-336003D01*
X447629Y-335718D01*
X447058D01*
X450686Y-337717D02*
Y-341717D01*
Y-338860D02*
X451543Y-338003D01*
X452114Y-337717D01*
X452971D01*
X453542Y-338003D01*
X453828Y-338860D01*
Y-341717D01*
Y-338860D02*
X454685Y-338003D01*
X455256Y-337717D01*
X456113D01*
X456684Y-338003D01*
X456970Y-338860D01*
Y-341717D01*
X458855Y-337717D02*
Y-341717D01*
Y-338860D02*
X459712Y-338003D01*
X460283Y-337717D01*
X461140D01*
X461712Y-338003D01*
X461997Y-338860D01*
Y-341717D01*
Y-338860D02*
X462854Y-338003D01*
X463426Y-337717D01*
X464283D01*
X464854Y-338003D01*
X465139Y-338860D01*
Y-341717D01*
X473738Y-334575D02*
X473166Y-335146D01*
X472595Y-336003D01*
X472024Y-337146D01*
X471738Y-338574D01*
Y-339717D01*
X472024Y-341145D01*
X472595Y-342288D01*
X473166Y-343145D01*
X473738Y-343716D01*
X473166Y-335146D02*
X472595Y-336289D01*
X472309Y-337146D01*
X472024Y-338574D01*
Y-339717D01*
X472309Y-341145D01*
X472595Y-342002D01*
X473166Y-343145D01*
X474880Y-336860D02*
X475452Y-336575D01*
X476309Y-335718D01*
Y-341717D01*
X479565Y-337146D02*
Y-336860D01*
X479851Y-336289D01*
X480136Y-336003D01*
X480708Y-335718D01*
X481850D01*
X482422Y-336003D01*
X482707Y-336289D01*
X482993Y-336860D01*
Y-337432D01*
X482707Y-338003D01*
X482136Y-338860D01*
X479279Y-341717D01*
X483279D01*
X488049Y-335718D02*
X485192D01*
X484907Y-338289D01*
X485192Y-338003D01*
X486049Y-337717D01*
X486906D01*
X487763Y-338003D01*
X488335Y-338574D01*
X488620Y-339431D01*
Y-340003D01*
X488335Y-340860D01*
X487763Y-341431D01*
X486906Y-341717D01*
X486049D01*
X485192Y-341431D01*
X484907Y-341145D01*
X484621Y-340574D01*
X490248Y-341145D02*
X489963Y-341431D01*
X490248Y-341717D01*
X490534Y-341431D01*
X490248Y-341145D01*
X495562Y-337717D02*
X495276Y-338574D01*
X494705Y-339146D01*
X493848Y-339431D01*
X493562D01*
X492705Y-339146D01*
X492134Y-338574D01*
X491848Y-337717D01*
Y-337432D01*
X492134Y-336575D01*
X492705Y-336003D01*
X493562Y-335718D01*
X493848D01*
X494705Y-336003D01*
X495276Y-336575D01*
X495562Y-337717D01*
Y-339146D01*
X495276Y-340574D01*
X494705Y-341431D01*
X493848Y-341717D01*
X493276D01*
X492419Y-341431D01*
X492134Y-340860D01*
X498618Y-335718D02*
X497761Y-336003D01*
X497475Y-336575D01*
Y-337146D01*
X497761Y-337717D01*
X498332Y-338003D01*
X499475Y-338289D01*
X500332Y-338574D01*
X500903Y-339146D01*
X501189Y-339717D01*
Y-340574D01*
X500903Y-341145D01*
X500618Y-341431D01*
X499761Y-341717D01*
X498618D01*
X497761Y-341431D01*
X497475Y-341145D01*
X497190Y-340574D01*
Y-339717D01*
X497475Y-339146D01*
X498047Y-338574D01*
X498904Y-338289D01*
X500046Y-338003D01*
X500618Y-337717D01*
X500903Y-337146D01*
Y-336575D01*
X500618Y-336003D01*
X499761Y-335718D01*
X498618D01*
X502531Y-337717D02*
Y-341717D01*
Y-338860D02*
X503389Y-338003D01*
X503960Y-337717D01*
X504817D01*
X505388Y-338003D01*
X505674Y-338860D01*
Y-341717D01*
Y-338860D02*
X506531Y-338003D01*
X507102Y-337717D01*
X507959D01*
X508530Y-338003D01*
X508816Y-338860D01*
Y-341717D01*
X511272Y-335718D02*
X511558Y-336003D01*
X511844Y-335718D01*
X511558Y-335432D01*
X511272Y-335718D01*
X511558Y-337717D02*
Y-341717D01*
X512901Y-335718D02*
Y-341717D01*
X514158Y-334575D02*
X514729Y-335146D01*
X515300Y-336003D01*
X515871Y-337146D01*
X516157Y-338574D01*
Y-339717D01*
X515871Y-341145D01*
X515300Y-342288D01*
X514729Y-343145D01*
X514158Y-343716D01*
X514729Y-335146D02*
X515300Y-336289D01*
X515586Y-337146D01*
X515871Y-338574D01*
Y-339717D01*
X515586Y-341145D01*
X515300Y-342002D01*
X514729Y-343145D01*
X386840Y-352717D02*
X386554Y-353574D01*
X385983Y-354146D01*
X385126Y-354431D01*
X384840D01*
X383983Y-354146D01*
X383412Y-353574D01*
X383126Y-352717D01*
Y-352432D01*
X383412Y-351575D01*
X383983Y-351004D01*
X384840Y-350718D01*
X385126D01*
X385983Y-351004D01*
X386554Y-351575D01*
X386840Y-352717D01*
Y-354146D01*
X386554Y-355574D01*
X385983Y-356431D01*
X385126Y-356716D01*
X384555D01*
X383698Y-356431D01*
X383412Y-355860D01*
X391324Y-350718D02*
X388468Y-354717D01*
X392753D01*
X391324Y-350718D02*
Y-356716D01*
X400523Y-350718D02*
Y-356716D01*
X398523Y-350718D02*
X402522D01*
X404665Y-352717D02*
X404093Y-353003D01*
X403522Y-353574D01*
X403236Y-354431D01*
Y-355003D01*
X403522Y-355860D01*
X404093Y-356431D01*
X404665Y-356716D01*
X405521D01*
X406093Y-356431D01*
X406664Y-355860D01*
X406950Y-355003D01*
Y-354431D01*
X406664Y-353574D01*
X406093Y-353003D01*
X405521Y-352717D01*
X404665D01*
X409121Y-350718D02*
Y-355574D01*
X409406Y-356431D01*
X409978Y-356716D01*
X410549D01*
X408264Y-352717D02*
X410263D01*
X414834D02*
Y-356716D01*
Y-353574D02*
X414262Y-353003D01*
X413691Y-352717D01*
X412834D01*
X412263Y-353003D01*
X411692Y-353574D01*
X411406Y-354431D01*
Y-355003D01*
X411692Y-355860D01*
X412263Y-356431D01*
X412834Y-356716D01*
X413691D01*
X414262Y-356431D01*
X414834Y-355860D01*
X416433Y-350718D02*
Y-356716D01*
X386554Y-261575D02*
X386268Y-261003D01*
X385411Y-260718D01*
X384840D01*
X383983Y-261003D01*
X383412Y-261860D01*
X383126Y-263289D01*
Y-264717D01*
X383412Y-265860D01*
X383983Y-266431D01*
X384840Y-266717D01*
X385126D01*
X385983Y-266431D01*
X386554Y-265860D01*
X386840Y-265003D01*
Y-264717D01*
X386554Y-263860D01*
X385983Y-263289D01*
X385126Y-263003D01*
X384840D01*
X383983Y-263289D01*
X383412Y-263860D01*
X383126Y-264717D01*
X391010Y-260718D02*
X388154Y-264717D01*
X392439D01*
X391010Y-260718D02*
Y-266717D01*
X383412Y-277146D02*
Y-276860D01*
X383698Y-276289D01*
X383983Y-276004D01*
X384555Y-275718D01*
X385697D01*
X386268Y-276004D01*
X386554Y-276289D01*
X386840Y-276860D01*
Y-277432D01*
X386554Y-278003D01*
X385983Y-278860D01*
X383126Y-281716D01*
X387125D01*
X385983Y-290718D02*
X383126Y-294717D01*
X387411D01*
X385983Y-290718D02*
Y-296716D01*
X386554Y-306575D02*
X386268Y-306003D01*
X385411Y-305718D01*
X384840D01*
X383983Y-306003D01*
X383412Y-306860D01*
X383126Y-308289D01*
Y-309717D01*
X383412Y-310860D01*
X383983Y-311431D01*
X384840Y-311717D01*
X385126D01*
X385983Y-311431D01*
X386554Y-310860D01*
X386840Y-310003D01*
Y-309717D01*
X386554Y-308860D01*
X385983Y-308289D01*
X385126Y-308003D01*
X384840D01*
X383983Y-308289D01*
X383412Y-308860D01*
X383126Y-309717D01*
Y-321860D02*
X383698Y-321575D01*
X384555Y-320718D01*
Y-326716D01*
X390382Y-320718D02*
X387525Y-324717D01*
X391810D01*
X390382Y-320718D02*
Y-326716D01*
X385983Y-335718D02*
X383126Y-339717D01*
X387411D01*
X385983Y-335718D02*
Y-341717D01*
D13*
X281853Y-115451D02*
Y-118307D01*
X284423Y-118593D01*
X284138Y-118307D01*
X283852Y-117450D01*
Y-116593D01*
X284138Y-115736D01*
X284709Y-115165D01*
X285566Y-114879D01*
X286137D01*
X286994Y-115165D01*
X287566Y-115736D01*
X287851Y-116593D01*
Y-117450D01*
X287566Y-118307D01*
X287280Y-118593D01*
X286709Y-118878D01*
X281853Y-111823D02*
X282138Y-112680D01*
X282995Y-113251D01*
X284423Y-113537D01*
X285280D01*
X286709Y-113251D01*
X287566Y-112680D01*
X287851Y-111823D01*
Y-111251D01*
X287566Y-110394D01*
X286709Y-109823D01*
X285280Y-109537D01*
X284423D01*
X282995Y-109823D01*
X282138Y-110394D01*
X281853Y-111251D01*
Y-111823D01*
X287280Y-107909D02*
X287566Y-108195D01*
X287851Y-107909D01*
X287566Y-107624D01*
X287280Y-107909D01*
X281853Y-104596D02*
X282138Y-105453D01*
X282995Y-106024D01*
X284423Y-106310D01*
X285280D01*
X286709Y-106024D01*
X287566Y-105453D01*
X287851Y-104596D01*
Y-104024D01*
X287566Y-103167D01*
X286709Y-102596D01*
X285280Y-102310D01*
X284423D01*
X282995Y-102596D01*
X282138Y-103167D01*
X281853Y-104024D01*
Y-104596D01*
Y-99254D02*
X282138Y-100111D01*
X282995Y-100682D01*
X284423Y-100968D01*
X285280D01*
X286709Y-100682D01*
X287566Y-100111D01*
X287851Y-99254D01*
Y-98683D01*
X287566Y-97826D01*
X286709Y-97254D01*
X285280Y-96969D01*
X284423D01*
X282995Y-97254D01*
X282138Y-97826D01*
X281853Y-98683D01*
Y-99254D01*
X283852Y-95626D02*
X287851D01*
X284995D02*
X284138Y-94769D01*
X283852Y-94198D01*
Y-93341D01*
X284138Y-92770D01*
X284995Y-92484D01*
X287851D01*
X284995D02*
X284138Y-91627D01*
X283852Y-91056D01*
Y-90199D01*
X284138Y-89627D01*
X284995Y-89342D01*
X287851D01*
X283852Y-87457D02*
X287851D01*
X284995D02*
X284138Y-86599D01*
X283852Y-86028D01*
Y-85171D01*
X284138Y-84600D01*
X284995Y-84314D01*
X287851D01*
X284995D02*
X284138Y-83457D01*
X283852Y-82886D01*
Y-82029D01*
X284138Y-81458D01*
X284995Y-81172D01*
X287851D01*
X121341Y-200308D02*
X118485Y-206307D01*
X117342Y-200308D02*
X121341D01*
X124398D02*
X123541Y-200594D01*
X122969Y-201450D01*
X122684Y-202879D01*
Y-203736D01*
X122969Y-205164D01*
X123541Y-206021D01*
X124398Y-206307D01*
X124969D01*
X125826Y-206021D01*
X126397Y-205164D01*
X126683Y-203736D01*
Y-202879D01*
X126397Y-201450D01*
X125826Y-200594D01*
X124969Y-200308D01*
X124398D01*
X128311Y-205735D02*
X128026Y-206021D01*
X128311Y-206307D01*
X128597Y-206021D01*
X128311Y-205735D01*
X131625Y-200308D02*
X130768Y-200594D01*
X130197Y-201450D01*
X129911Y-202879D01*
Y-203736D01*
X130197Y-205164D01*
X130768Y-206021D01*
X131625Y-206307D01*
X132196D01*
X133053Y-206021D01*
X133624Y-205164D01*
X133910Y-203736D01*
Y-202879D01*
X133624Y-201450D01*
X133053Y-200594D01*
X132196Y-200308D01*
X131625D01*
X136967D02*
X136110Y-200594D01*
X135538Y-201450D01*
X135253Y-202879D01*
Y-203736D01*
X135538Y-205164D01*
X136110Y-206021D01*
X136967Y-206307D01*
X137538D01*
X138395Y-206021D01*
X138966Y-205164D01*
X139252Y-203736D01*
Y-202879D01*
X138966Y-201450D01*
X138395Y-200594D01*
X137538Y-200308D01*
X136967D01*
X140594Y-202308D02*
Y-206307D01*
Y-203450D02*
X141451Y-202593D01*
X142023Y-202308D01*
X142879D01*
X143451Y-202593D01*
X143737Y-203450D01*
Y-206307D01*
Y-203450D02*
X144594Y-202593D01*
X145165Y-202308D01*
X146022D01*
X146593Y-202593D01*
X146879Y-203450D01*
Y-206307D01*
X148764Y-202308D02*
Y-206307D01*
Y-203450D02*
X149621Y-202593D01*
X150192Y-202308D01*
X151049D01*
X151620Y-202593D01*
X151906Y-203450D01*
Y-206307D01*
Y-203450D02*
X152763Y-202593D01*
X153334Y-202308D01*
X154191D01*
X154763Y-202593D01*
X155048Y-203450D01*
Y-206307D01*
D14*
X251500Y-77852D02*
G03*
X251500Y-77852I-1000J0D01*
G01*
Y-67852D02*
G03*
X251500Y-67852I-1000J0D01*
G01*
Y-57852D02*
G03*
X251500Y-57852I-1000J0D01*
G01*
Y-47852D02*
G03*
X251500Y-47852I-1000J0D01*
G01*
X180376Y-36050D02*
Y-35550D01*
X180876Y-35050D01*
X180376Y-34550D02*
X180876Y-35050D01*
X180376Y-34550D02*
Y-34050D01*
X180876D01*
X181376Y-34550D01*
X181876Y-34050D01*
X182376D01*
Y-34550D02*
Y-34050D01*
X181876Y-35050D02*
X182376Y-34550D01*
X181876Y-35050D02*
X182376Y-35550D01*
Y-36050D02*
Y-35550D01*
X181876Y-36050D02*
X182376D01*
X181376Y-35550D02*
X181876Y-36050D01*
X180876D02*
X181376Y-35550D01*
X180376Y-36050D02*
X180876D01*
X72779Y-147187D02*
Y-146686D01*
X73279Y-146186D01*
X72779Y-145686D02*
X73279Y-146186D01*
X72779Y-145686D02*
Y-145186D01*
X73279D01*
X73779Y-145686D01*
X74279Y-145186D01*
X74779D01*
Y-145686D02*
Y-145186D01*
X74279Y-146186D02*
X74779Y-145686D01*
X74279Y-146186D02*
X74779Y-146686D01*
Y-147187D02*
Y-146686D01*
X74279Y-147187D02*
X74779D01*
X73779Y-146686D02*
X74279Y-147187D01*
X73279D02*
X73779Y-146686D01*
X72779Y-147187D02*
X73279D01*
X110617Y-120097D02*
Y-119597D01*
X111117Y-119097D01*
X110617Y-118597D02*
X111117Y-119097D01*
X110617Y-118597D02*
Y-118097D01*
X111117D01*
X111617Y-118597D01*
X112117Y-118097D01*
X112617D01*
Y-118597D02*
Y-118097D01*
X112117Y-119097D02*
X112617Y-118597D01*
X112117Y-119097D02*
X112617Y-119597D01*
Y-120097D02*
Y-119597D01*
X112117Y-120097D02*
X112617D01*
X111617Y-119597D02*
X112117Y-120097D01*
X111117D02*
X111617Y-119597D01*
X110617Y-120097D02*
X111117D01*
X139696Y-70093D02*
Y-69593D01*
X140196Y-69093D01*
X139696Y-68593D02*
X140196Y-69093D01*
X139696Y-68593D02*
Y-68093D01*
X140196D01*
X140696Y-68593D01*
X141195Y-68093D01*
X141695D01*
Y-68593D02*
Y-68093D01*
X141195Y-69093D02*
X141695Y-68593D01*
X141195Y-69093D02*
X141695Y-69593D01*
Y-70093D02*
Y-69593D01*
X141195Y-70093D02*
X141695D01*
X140696Y-69593D02*
X141195Y-70093D01*
X140196D02*
X140696Y-69593D01*
X139696Y-70093D02*
X140196D01*
X159955Y-163541D02*
Y-163041D01*
X160455Y-162541D01*
X159955Y-162041D02*
X160455Y-162541D01*
X159955Y-162041D02*
Y-161541D01*
X160455D01*
X160955Y-162041D01*
X161455Y-161541D01*
X161955D01*
Y-162041D02*
Y-161541D01*
X161455Y-162541D02*
X161955Y-162041D01*
X161455Y-162541D02*
X161955Y-163041D01*
Y-163541D02*
Y-163041D01*
X161455Y-163541D02*
X161955D01*
X160955Y-163041D02*
X161455Y-163541D01*
X160455D02*
X160955Y-163041D01*
X159955Y-163541D02*
X160455D01*
X152852D02*
Y-163041D01*
X153352Y-162541D01*
X152852Y-162041D02*
X153352Y-162541D01*
X152852Y-162041D02*
Y-161541D01*
X153352D01*
X153852Y-162041D01*
X154352Y-161541D01*
X154852D01*
Y-162041D02*
Y-161541D01*
X154352Y-162541D02*
X154852Y-162041D01*
X154352Y-162541D02*
X154852Y-163041D01*
Y-163541D02*
Y-163041D01*
X154352Y-163541D02*
X154852D01*
X153852Y-163041D02*
X154352Y-163541D01*
X153352D02*
X153852Y-163041D01*
X152852Y-163541D02*
X153352D01*
X141526Y-103000D02*
Y-102500D01*
X142026Y-102000D01*
X141526Y-101500D02*
X142026Y-102000D01*
X141526Y-101500D02*
Y-101000D01*
X142026D01*
X142526Y-101500D01*
X143026Y-101000D01*
X143526D01*
Y-101500D02*
Y-101000D01*
X143026Y-102000D02*
X143526Y-101500D01*
X143026Y-102000D02*
X143526Y-102500D01*
Y-103000D02*
Y-102500D01*
X143026Y-103000D02*
X143526D01*
X142526Y-102500D02*
X143026Y-103000D01*
X142026D02*
X142526Y-102500D01*
X141526Y-103000D02*
X142026D01*
X87967Y-161095D02*
Y-160595D01*
X88467Y-160095D01*
X87967Y-159595D02*
X88467Y-160095D01*
X87967Y-159595D02*
Y-159095D01*
X88467D01*
X88967Y-159595D01*
X89467Y-159095D01*
X89967D01*
Y-159595D02*
Y-159095D01*
X89467Y-160095D02*
X89967Y-159595D01*
X89467Y-160095D02*
X89967Y-160595D01*
Y-161095D02*
Y-160595D01*
X89467Y-161095D02*
X89967D01*
X88967Y-160595D02*
X89467Y-161095D01*
X88467D02*
X88967Y-160595D01*
X87967Y-161095D02*
X88467D01*
X79440Y-67210D02*
Y-66710D01*
X79940Y-66210D01*
X79440Y-65710D02*
X79940Y-66210D01*
X79440Y-65710D02*
Y-65210D01*
X79940D01*
X80440Y-65710D01*
X80940Y-65210D01*
X81440D01*
Y-65710D02*
Y-65210D01*
X80940Y-66210D02*
X81440Y-65710D01*
X80940Y-66210D02*
X81440Y-66710D01*
Y-67210D02*
Y-66710D01*
X80940Y-67210D02*
X81440D01*
X80440Y-66710D02*
X80940Y-67210D01*
X79940D02*
X80440Y-66710D01*
X79440Y-67210D02*
X79940D01*
X79440Y-81383D02*
Y-80883D01*
X79940Y-80383D01*
X79440Y-79883D02*
X79940Y-80383D01*
X79440Y-79883D02*
Y-79383D01*
X79940D01*
X80440Y-79883D01*
X80940Y-79383D01*
X81440D01*
Y-79883D02*
Y-79383D01*
X80940Y-80383D02*
X81440Y-79883D01*
X80940Y-80383D02*
X81440Y-80883D01*
Y-81383D02*
Y-80883D01*
X80940Y-81383D02*
X81440D01*
X80440Y-80883D02*
X80940Y-81383D01*
X79940D02*
X80440Y-80883D01*
X79440Y-81383D02*
X79940D01*
X79440Y-74297D02*
Y-73797D01*
X79940Y-73297D01*
X79440Y-72797D02*
X79940Y-73297D01*
X79440Y-72797D02*
Y-72297D01*
X79940D01*
X80440Y-72797D01*
X80940Y-72297D01*
X81440D01*
Y-72797D02*
Y-72297D01*
X80940Y-73297D02*
X81440Y-72797D01*
X80940Y-73297D02*
X81440Y-73797D01*
Y-74297D02*
Y-73797D01*
X80940Y-74297D02*
X81440D01*
X80440Y-73797D02*
X80940Y-74297D01*
X79940D02*
X80440Y-73797D01*
X79440Y-74297D02*
X79940D01*
X204293Y-26227D02*
Y-25727D01*
X204793Y-25227D01*
X204293Y-24727D02*
X204793Y-25227D01*
X204293Y-24727D02*
Y-24227D01*
X204793D01*
X205293Y-24727D01*
X205793Y-24227D01*
X206293D01*
Y-24727D02*
Y-24227D01*
X205793Y-25227D02*
X206293Y-24727D01*
X205793Y-25227D02*
X206293Y-25727D01*
Y-26227D02*
Y-25727D01*
X205793Y-26227D02*
X206293D01*
X205293Y-25727D02*
X205793Y-26227D01*
X204793D02*
X205293Y-25727D01*
X204293Y-26227D02*
X204793D01*
X137385Y-13651D02*
Y-13151D01*
X137885Y-12651D01*
X137385Y-12151D02*
X137885Y-12651D01*
X137385Y-12151D02*
Y-11651D01*
X137885D01*
X138385Y-12151D01*
X138885Y-11651D01*
X139385D01*
Y-12151D02*
Y-11651D01*
X138885Y-12651D02*
X139385Y-12151D01*
X138885Y-12651D02*
X139385Y-13151D01*
Y-13651D02*
Y-13151D01*
X138885Y-13651D02*
X139385D01*
X138385Y-13151D02*
X138885Y-13651D01*
X137885D02*
X138385Y-13151D01*
X137385Y-13651D02*
X137885D01*
X116932Y-53954D02*
Y-53454D01*
X117432Y-52954D01*
X116932Y-52454D02*
X117432Y-52954D01*
X116932Y-52454D02*
Y-51954D01*
X117432D01*
X117932Y-52454D01*
X118432Y-51954D01*
X118932D01*
Y-52454D02*
Y-51954D01*
X118432Y-52954D02*
X118932Y-52454D01*
X118432Y-52954D02*
X118932Y-53454D01*
Y-53954D02*
Y-53454D01*
X118432Y-53954D02*
X118932D01*
X117932Y-53454D02*
X118432Y-53954D01*
X117432D02*
X117932Y-53454D01*
X116932Y-53954D02*
X117432D01*
X127776Y-53911D02*
Y-53411D01*
X128276Y-52911D01*
X127776Y-52411D02*
X128276Y-52911D01*
X127776Y-52411D02*
Y-51911D01*
X128276D01*
X128776Y-52411D01*
X129276Y-51911D01*
X129776D01*
Y-52411D02*
Y-51911D01*
X129276Y-52911D02*
X129776Y-52411D01*
X129276Y-52911D02*
X129776Y-53411D01*
Y-53911D02*
Y-53411D01*
X129276Y-53911D02*
X129776D01*
X128776Y-53411D02*
X129276Y-53911D01*
X128276D02*
X128776Y-53411D01*
X127776Y-53911D02*
X128276D01*
X217728Y-143019D02*
Y-142519D01*
X218228Y-142019D01*
X217728Y-141519D02*
X218228Y-142019D01*
X217728Y-141519D02*
Y-141019D01*
X218228D01*
X218728Y-141519D01*
X219228Y-141019D01*
X219728D01*
Y-141519D02*
Y-141019D01*
X219228Y-142019D02*
X219728Y-141519D01*
X219228Y-142019D02*
X219728Y-142519D01*
Y-143019D02*
Y-142519D01*
X219228Y-143019D02*
X219728D01*
X218728Y-142519D02*
X219228Y-143019D01*
X218228D02*
X218728Y-142519D01*
X217728Y-143019D02*
X218228D01*
X54118Y-105724D02*
Y-105224D01*
X54618Y-104724D01*
X54118Y-104224D02*
X54618Y-104724D01*
X54118Y-104224D02*
Y-103724D01*
X54618D01*
X55118Y-104224D01*
X55618Y-103724D01*
X56118D01*
Y-104224D02*
Y-103724D01*
X55618Y-104724D02*
X56118Y-104224D01*
X55618Y-104724D02*
X56118Y-105224D01*
Y-105724D02*
Y-105224D01*
X55618Y-105724D02*
X56118D01*
X55118Y-105224D02*
X55618Y-105724D01*
X54618D02*
X55118Y-105224D01*
X54118Y-105724D02*
X54618D01*
X79440Y-60123D02*
Y-59623D01*
X79940Y-59123D01*
X79440Y-58623D02*
X79940Y-59123D01*
X79440Y-58623D02*
Y-58123D01*
X79940D01*
X80440Y-58623D01*
X80940Y-58123D01*
X81440D01*
Y-58623D02*
Y-58123D01*
X80940Y-59123D02*
X81440Y-58623D01*
X80940Y-59123D02*
X81440Y-59623D01*
Y-60123D02*
Y-59623D01*
X80940Y-60123D02*
X81440D01*
X80440Y-59623D02*
X80940Y-60123D01*
X79940D02*
X80440Y-59623D01*
X79440Y-60123D02*
X79940D01*
X86527Y-53037D02*
Y-52537D01*
X87027Y-52037D01*
X86527Y-51537D02*
X87027Y-52037D01*
X86527Y-51537D02*
Y-51037D01*
X87027D01*
X87527Y-51537D01*
X88027Y-51037D01*
X88527D01*
Y-51537D02*
Y-51037D01*
X88027Y-52037D02*
X88527Y-51537D01*
X88027Y-52037D02*
X88527Y-52537D01*
Y-53037D02*
Y-52537D01*
X88027Y-53037D02*
X88527D01*
X87527Y-52537D02*
X88027Y-53037D01*
X87027D02*
X87527Y-52537D01*
X86527Y-53037D02*
X87027D01*
X79440D02*
Y-52537D01*
X79940Y-52037D01*
X79440Y-51537D02*
X79940Y-52037D01*
X79440Y-51537D02*
Y-51037D01*
X79940D01*
X80440Y-51537D01*
X80940Y-51037D01*
X81440D01*
Y-51537D02*
Y-51037D01*
X80940Y-52037D02*
X81440Y-51537D01*
X80940Y-52037D02*
X81440Y-52537D01*
Y-53037D02*
Y-52537D01*
X80940Y-53037D02*
X81440D01*
X80440Y-52537D02*
X80940Y-53037D01*
X79940D02*
X80440Y-52537D01*
X79440Y-53037D02*
X79940D01*
X86527Y-81383D02*
Y-80883D01*
X87027Y-80383D01*
X86527Y-79883D02*
X87027Y-80383D01*
X86527Y-79883D02*
Y-79383D01*
X87027D01*
X87527Y-79883D01*
X88027Y-79383D01*
X88527D01*
Y-79883D02*
Y-79383D01*
X88027Y-80383D02*
X88527Y-79883D01*
X88027Y-80383D02*
X88527Y-80883D01*
Y-81383D02*
Y-80883D01*
X88027Y-81383D02*
X88527D01*
X87527Y-80883D02*
X88027Y-81383D01*
X87027D02*
X87527Y-80883D01*
X86527Y-81383D02*
X87027D01*
X86178Y-124940D02*
Y-124440D01*
X86678Y-123940D01*
X86178Y-123440D02*
X86678Y-123940D01*
X86178Y-123440D02*
Y-122940D01*
X86678D01*
X87178Y-123440D01*
X87678Y-122940D01*
X88178D01*
Y-123440D02*
Y-122940D01*
X87678Y-123940D02*
X88178Y-123440D01*
X87678Y-123940D02*
X88178Y-124440D01*
Y-124940D02*
Y-124440D01*
X87678Y-124940D02*
X88178D01*
X87178Y-124440D02*
X87678Y-124940D01*
X86678D02*
X87178Y-124440D01*
X86178Y-124940D02*
X86678D01*
X86527Y-60123D02*
Y-59623D01*
X87027Y-59123D01*
X86527Y-58623D02*
X87027Y-59123D01*
X86527Y-58623D02*
Y-58123D01*
X87027D01*
X87527Y-58623D01*
X88027Y-58123D01*
X88527D01*
Y-58623D02*
Y-58123D01*
X88027Y-59123D02*
X88527Y-58623D01*
X88027Y-59123D02*
X88527Y-59623D01*
Y-60123D02*
Y-59623D01*
X88027Y-60123D02*
X88527D01*
X87527Y-59623D02*
X88027Y-60123D01*
X87027D02*
X87527Y-59623D01*
X86527Y-60123D02*
X87027D01*
X86527Y-74297D02*
Y-73797D01*
X87027Y-73297D01*
X86527Y-72797D02*
X87027Y-73297D01*
X86527Y-72797D02*
Y-72297D01*
X87027D01*
X87527Y-72797D01*
X88027Y-72297D01*
X88527D01*
Y-72797D02*
Y-72297D01*
X88027Y-73297D02*
X88527Y-72797D01*
X88027Y-73297D02*
X88527Y-73797D01*
Y-74297D02*
Y-73797D01*
X88027Y-74297D02*
X88527D01*
X87527Y-73797D02*
X88027Y-74297D01*
X87027D02*
X87527Y-73797D01*
X86527Y-74297D02*
X87027D01*
X86527Y-67210D02*
Y-66710D01*
X87027Y-66210D01*
X86527Y-65710D02*
X87027Y-66210D01*
X86527Y-65710D02*
Y-65210D01*
X87027D01*
X87527Y-65710D01*
X88027Y-65210D01*
X88527D01*
Y-65710D02*
Y-65210D01*
X88027Y-66210D02*
X88527Y-65710D01*
X88027Y-66210D02*
X88527Y-66710D01*
Y-67210D02*
Y-66710D01*
X88027Y-67210D02*
X88527D01*
X87527Y-66710D02*
X88027Y-67210D01*
X87027D02*
X87527Y-66710D01*
X86527Y-67210D02*
X87027D01*
X54905Y-155331D02*
Y-154831D01*
X55405Y-154331D01*
X54905Y-153831D02*
X55405Y-154331D01*
X54905Y-153831D02*
Y-153331D01*
X55405D01*
X55905Y-153831D01*
X56406Y-153331D01*
X56906D01*
Y-153831D02*
Y-153331D01*
X56406Y-154331D02*
X56906Y-153831D01*
X56406Y-154331D02*
X56906Y-154831D01*
Y-155331D02*
Y-154831D01*
X56406Y-155331D02*
X56906D01*
X55905Y-154831D02*
X56406Y-155331D01*
X55405D02*
X55905Y-154831D01*
X54905Y-155331D02*
X55405D01*
X118505Y-130599D02*
Y-130099D01*
X119005Y-129599D01*
X118505Y-129099D02*
X119005Y-129599D01*
X118505Y-129099D02*
Y-128599D01*
X119005D01*
X119505Y-129099D01*
X120005Y-128599D01*
X120505D01*
Y-129099D02*
Y-128599D01*
X120005Y-129599D02*
X120505Y-129099D01*
X120005Y-129599D02*
X120505Y-130099D01*
Y-130599D02*
Y-130099D01*
X120005Y-130599D02*
X120505D01*
X119505Y-130099D02*
X120005Y-130599D01*
X119005D02*
X119505Y-130099D01*
X118505Y-130599D02*
X119005D01*
X118301Y-124711D02*
Y-124211D01*
X118801Y-123711D01*
X118301Y-123211D02*
X118801Y-123711D01*
X118301Y-123211D02*
Y-122711D01*
X118801D01*
X119301Y-123211D01*
X119801Y-122711D01*
X120301D01*
Y-123211D02*
Y-122711D01*
X119801Y-123711D02*
X120301Y-123211D01*
X119801Y-123711D02*
X120301Y-124211D01*
Y-124711D02*
Y-124211D01*
X119801Y-124711D02*
X120301D01*
X119301Y-124211D02*
X119801Y-124711D01*
X118801D02*
X119301Y-124211D01*
X118301Y-124711D02*
X118801D01*
X118301Y-136453D02*
Y-135953D01*
X118801Y-135453D01*
X118301Y-134953D02*
X118801Y-135453D01*
X118301Y-134953D02*
Y-134453D01*
X118801D01*
X119301Y-134953D01*
X119801Y-134453D01*
X120301D01*
Y-134953D02*
Y-134453D01*
X119801Y-135453D02*
X120301Y-134953D01*
X119801Y-135453D02*
X120301Y-135953D01*
Y-136453D02*
Y-135953D01*
X119801Y-136453D02*
X120301D01*
X119301Y-135953D02*
X119801Y-136453D01*
X118801D02*
X119301Y-135953D01*
X118301Y-136453D02*
X118801D01*
X133066Y-116169D02*
Y-115669D01*
X133566Y-115169D01*
X133066Y-114669D02*
X133566Y-115169D01*
X133066Y-114669D02*
Y-114169D01*
X133566D01*
X134066Y-114669D01*
X134566Y-114169D01*
X135066D01*
Y-114669D02*
Y-114169D01*
X134566Y-115169D02*
X135066Y-114669D01*
X134566Y-115169D02*
X135066Y-115669D01*
Y-116169D02*
Y-115669D01*
X134566Y-116169D02*
X135066D01*
X134066Y-115669D02*
X134566Y-116169D01*
X133566D02*
X134066Y-115669D01*
X133066Y-116169D02*
X133566D01*
X124984Y-71866D02*
Y-71366D01*
X125484Y-70866D01*
X124984Y-70366D02*
X125484Y-70866D01*
X124984Y-70366D02*
Y-69866D01*
X125484D01*
X125984Y-70366D01*
X126484Y-69866D01*
X126984D01*
Y-70366D02*
Y-69866D01*
X126484Y-70866D02*
X126984Y-70366D01*
X126484Y-70866D02*
X126984Y-71366D01*
Y-71866D02*
Y-71366D01*
X126484Y-71866D02*
X126984D01*
X125984Y-71366D02*
X126484Y-71866D01*
X125484D02*
X125984Y-71366D01*
X124984Y-71866D02*
X125484D01*
X127275Y-98766D02*
Y-98267D01*
X127775Y-97767D01*
X127275Y-97267D02*
X127775Y-97767D01*
X127275Y-97267D02*
Y-96767D01*
X127775D01*
X128275Y-97267D01*
X128774Y-96767D01*
X129274D01*
Y-97267D02*
Y-96767D01*
X128774Y-97767D02*
X129274Y-97267D01*
X128774Y-97767D02*
X129274Y-98267D01*
Y-98766D02*
Y-98267D01*
X128774Y-98766D02*
X129274D01*
X128275Y-98267D02*
X128774Y-98766D01*
X127775D02*
X128275Y-98267D01*
X127275Y-98766D02*
X127775D01*
X119923Y-98526D02*
Y-98026D01*
X120423Y-97526D01*
X119923Y-97026D02*
X120423Y-97526D01*
X119923Y-97026D02*
Y-96526D01*
X120423D01*
X120923Y-97026D01*
X121423Y-96526D01*
X121923D01*
Y-97026D02*
Y-96526D01*
X121423Y-97526D02*
X121923Y-97026D01*
X121423Y-97526D02*
X121923Y-98026D01*
Y-98526D02*
Y-98026D01*
X121423Y-98526D02*
X121923D01*
X120923Y-98026D02*
X121423Y-98526D01*
X120423D02*
X120923Y-98026D01*
X119923Y-98526D02*
X120423D01*
X103724Y-70310D02*
Y-69810D01*
X104224Y-69310D01*
X103724Y-68810D02*
X104224Y-69310D01*
X103724Y-68810D02*
Y-68310D01*
X104224D01*
X104724Y-68810D01*
X105224Y-68310D01*
X105724D01*
Y-68810D02*
Y-68310D01*
X105224Y-69310D02*
X105724Y-68810D01*
X105224Y-69310D02*
X105724Y-69810D01*
Y-70310D02*
Y-69810D01*
X105224Y-70310D02*
X105724D01*
X104724Y-69810D02*
X105224Y-70310D01*
X104224D02*
X104724Y-69810D01*
X103724Y-70310D02*
X104224D01*
X112012Y-81859D02*
Y-81359D01*
X112512Y-80859D01*
X112012Y-80359D02*
X112512Y-80859D01*
X112012Y-80359D02*
Y-79859D01*
X112512D01*
X113012Y-80359D01*
X113512Y-79859D01*
X114012D01*
Y-80359D02*
Y-79859D01*
X113512Y-80859D02*
X114012Y-80359D01*
X113512Y-80859D02*
X114012Y-81359D01*
Y-81859D02*
Y-81359D01*
X113512Y-81859D02*
X114012D01*
X113012Y-81359D02*
X113512Y-81859D01*
X112512D02*
X113012Y-81359D01*
X112012Y-81859D02*
X112512D01*
X111811Y-86825D02*
Y-86325D01*
X112311Y-85825D01*
X111811Y-85325D02*
X112311Y-85825D01*
X111811Y-85325D02*
Y-84825D01*
X112311D01*
X112811Y-85325D01*
X113311Y-84825D01*
X113811D01*
Y-85325D02*
Y-84825D01*
X113311Y-85825D02*
X113811Y-85325D01*
X113311Y-85825D02*
X113811Y-86325D01*
Y-86825D02*
Y-86325D01*
X113311Y-86825D02*
X113811D01*
X112811Y-86325D02*
X113311Y-86825D01*
X112311D02*
X112811Y-86325D01*
X111811Y-86825D02*
X112311D01*
X153135Y-102942D02*
Y-102442D01*
X153635Y-101942D01*
X153135Y-101442D02*
X153635Y-101942D01*
X153135Y-101442D02*
Y-100942D01*
X153635D01*
X154135Y-101442D01*
X154635Y-100942D01*
X155135D01*
Y-101442D02*
Y-100942D01*
X154635Y-101942D02*
X155135Y-101442D01*
X154635Y-101942D02*
X155135Y-102442D01*
Y-102942D02*
Y-102442D01*
X154635Y-102942D02*
X155135D01*
X154135Y-102442D02*
X154635Y-102942D01*
X153635D02*
X154135Y-102442D01*
X153135Y-102942D02*
X153635D01*
X138594Y-88402D02*
Y-87902D01*
X139094Y-87402D01*
X138594Y-86902D02*
X139094Y-87402D01*
X138594Y-86902D02*
Y-86402D01*
X139094D01*
X139594Y-86902D01*
X140094Y-86402D01*
X140594D01*
Y-86902D02*
Y-86402D01*
X140094Y-87402D02*
X140594Y-86902D01*
X140094Y-87402D02*
X140594Y-87902D01*
Y-88402D02*
Y-87902D01*
X140094Y-88402D02*
X140594D01*
X139594Y-87902D02*
X140094Y-88402D01*
X139094D02*
X139594Y-87902D01*
X138594Y-88402D02*
X139094D01*
X119151Y-71866D02*
Y-71366D01*
X119651Y-70866D01*
X119151Y-70366D02*
X119651Y-70866D01*
X119151Y-70366D02*
Y-69866D01*
X119651D01*
X120151Y-70366D01*
X120651Y-69866D01*
X121151D01*
Y-70366D02*
Y-69866D01*
X120651Y-70866D02*
X121151Y-70366D01*
X120651Y-70866D02*
X121151Y-71366D01*
Y-71866D02*
Y-71366D01*
X120651Y-71866D02*
X121151D01*
X120151Y-71366D02*
X120651Y-71866D01*
X119651D02*
X120151Y-71366D01*
X119151Y-71866D02*
X119651D01*
X177315Y-103847D02*
Y-103347D01*
X177815Y-102847D01*
X177315Y-102347D02*
X177815Y-102847D01*
X177315Y-102347D02*
Y-101847D01*
X177815D01*
X178315Y-102347D01*
X178815Y-101847D01*
X179315D01*
Y-102347D02*
Y-101847D01*
X178815Y-102847D02*
X179315Y-102347D01*
X178815Y-102847D02*
X179315Y-103347D01*
Y-103847D02*
Y-103347D01*
X178815Y-103847D02*
X179315D01*
X178315Y-103347D02*
X178815Y-103847D01*
X177815D02*
X178315Y-103347D01*
X177315Y-103847D02*
X177815D01*
X172556Y-106805D02*
Y-106305D01*
X173056Y-105805D01*
X172556Y-105305D02*
X173056Y-105805D01*
X172556Y-105305D02*
Y-104805D01*
X173056D01*
X173556Y-105305D01*
X174056Y-104805D01*
X174556D01*
Y-105305D02*
Y-104805D01*
X174056Y-105805D02*
X174556Y-105305D01*
X174056Y-105805D02*
X174556Y-106305D01*
Y-106805D02*
Y-106305D01*
X174056Y-106805D02*
X174556D01*
X173556Y-106305D02*
X174056Y-106805D01*
X173056D02*
X173556Y-106305D01*
X172556Y-106805D02*
X173056D01*
X167057Y-106712D02*
Y-106212D01*
X167557Y-105712D01*
X167057Y-105212D02*
X167557Y-105712D01*
X167057Y-105212D02*
Y-104712D01*
X167557D01*
X168057Y-105212D01*
X168557Y-104712D01*
X169057D01*
Y-105212D02*
Y-104712D01*
X168557Y-105712D02*
X169057Y-105212D01*
X168557Y-105712D02*
X169057Y-106212D01*
Y-106712D02*
Y-106212D01*
X168557Y-106712D02*
X169057D01*
X168057Y-106212D02*
X168557Y-106712D01*
X167557D02*
X168057Y-106212D01*
X167057Y-106712D02*
X167557D01*
X175174Y-86392D02*
Y-85891D01*
X175674Y-85391D01*
X175174Y-84891D02*
X175674Y-85391D01*
X175174Y-84891D02*
Y-84391D01*
X175674D01*
X176174Y-84891D01*
X176674Y-84391D01*
X177174D01*
Y-84891D02*
Y-84391D01*
X176674Y-85391D02*
X177174Y-84891D01*
X176674Y-85391D02*
X177174Y-85891D01*
Y-86392D02*
Y-85891D01*
X176674Y-86392D02*
X177174D01*
X176174Y-85891D02*
X176674Y-86392D01*
X175674D02*
X176174Y-85891D01*
X175174Y-86392D02*
X175674D01*
X189551Y-89189D02*
Y-88689D01*
X190051Y-88189D01*
X189551Y-87689D02*
X190051Y-88189D01*
X189551Y-87689D02*
Y-87189D01*
X190051D01*
X190551Y-87689D01*
X191051Y-87189D01*
X191551D01*
Y-87689D02*
Y-87189D01*
X191051Y-88189D02*
X191551Y-87689D01*
X191051Y-88189D02*
X191551Y-88689D01*
Y-89189D02*
Y-88689D01*
X191051Y-89189D02*
X191551D01*
X190551Y-88689D02*
X191051Y-89189D01*
X190051D02*
X190551Y-88689D01*
X189551Y-89189D02*
X190051D01*
X182903Y-87105D02*
Y-86605D01*
X183403Y-86105D01*
X182903Y-85605D02*
X183403Y-86105D01*
X182903Y-85605D02*
Y-85105D01*
X183403D01*
X183903Y-85605D01*
X184403Y-85105D01*
X184903D01*
Y-85605D02*
Y-85105D01*
X184403Y-86105D02*
X184903Y-85605D01*
X184403Y-86105D02*
X184903Y-86605D01*
Y-87105D02*
Y-86605D01*
X184403Y-87105D02*
X184903D01*
X183903Y-86605D02*
X184403Y-87105D01*
X183403D02*
X183903Y-86605D01*
X182903Y-87105D02*
X183403D01*
X178646Y-21656D02*
Y-21156D01*
X179146Y-20656D01*
X178646Y-20156D02*
X179146Y-20656D01*
X178646Y-20156D02*
Y-19656D01*
X179146D01*
X179646Y-20156D01*
X180146Y-19656D01*
X180646D01*
Y-20156D02*
Y-19656D01*
X180146Y-20656D02*
X180646Y-20156D01*
X180146Y-20656D02*
X180646Y-21156D01*
Y-21656D02*
Y-21156D01*
X180146Y-21656D02*
X180646D01*
X179646Y-21156D02*
X180146Y-21656D01*
X179146D02*
X179646Y-21156D01*
X178646Y-21656D02*
X179146D01*
X205102Y-14240D02*
Y-13740D01*
X205603Y-13240D01*
X205102Y-12740D02*
X205603Y-13240D01*
X205102Y-12740D02*
Y-12240D01*
X205603D01*
X206102Y-12740D01*
X206603Y-12240D01*
X207102D01*
Y-12740D02*
Y-12240D01*
X206603Y-13240D02*
X207102Y-12740D01*
X206603Y-13240D02*
X207102Y-13740D01*
Y-14240D02*
Y-13740D01*
X206603Y-14240D02*
X207102D01*
X206102Y-13740D02*
X206603Y-14240D01*
X205603D02*
X206102Y-13740D01*
X205102Y-14240D02*
X205603D01*
X199159Y-40211D02*
Y-39711D01*
X199659Y-39211D01*
X199159Y-38711D02*
X199659Y-39211D01*
X199159Y-38711D02*
Y-38211D01*
X199659D01*
X200159Y-38711D01*
X200659Y-38211D01*
X201159D01*
Y-38711D02*
Y-38211D01*
X200659Y-39211D02*
X201159Y-38711D01*
X200659Y-39211D02*
X201159Y-39711D01*
Y-40211D02*
Y-39711D01*
X200659Y-40211D02*
X201159D01*
X200159Y-39711D02*
X200659Y-40211D01*
X199659D02*
X200159Y-39711D01*
X199159Y-40211D02*
X199659D01*
X210811Y-109661D02*
Y-109161D01*
X211311Y-108661D01*
X210811Y-108161D02*
X211311Y-108661D01*
X210811Y-108161D02*
Y-107661D01*
X211311D01*
X211811Y-108161D01*
X212311Y-107661D01*
X212811D01*
Y-108161D02*
Y-107661D01*
X212311Y-108661D02*
X212811Y-108161D01*
X212311Y-108661D02*
X212811Y-109161D01*
Y-109661D02*
Y-109161D01*
X212311Y-109661D02*
X212811D01*
X211811Y-109161D02*
X212311Y-109661D01*
X211311D02*
X211811Y-109161D01*
X210811Y-109661D02*
X211311D01*
X215535Y-62417D02*
Y-61917D01*
X216035Y-61417D01*
X215535Y-60917D02*
X216035Y-61417D01*
X215535Y-60917D02*
Y-60417D01*
X216035D01*
X216535Y-60917D01*
X217035Y-60417D01*
X217535D01*
Y-60917D02*
Y-60417D01*
X217035Y-61417D02*
X217535Y-60917D01*
X217035Y-61417D02*
X217535Y-61917D01*
Y-62417D02*
Y-61917D01*
X217035Y-62417D02*
X217535D01*
X216535Y-61917D02*
X217035Y-62417D01*
X216035D02*
X216535Y-61917D01*
X215535Y-62417D02*
X216035D01*
X208970Y-122676D02*
Y-122176D01*
X209470Y-121676D01*
X208970Y-121176D02*
X209470Y-121676D01*
X208970Y-121176D02*
Y-120676D01*
X209470D01*
X209970Y-121176D01*
X210470Y-120676D01*
X210970D01*
Y-121176D02*
Y-120676D01*
X210470Y-121676D02*
X210970Y-121176D01*
X210470Y-121676D02*
X210970Y-122176D01*
Y-122676D02*
Y-122176D01*
X210470Y-122676D02*
X210970D01*
X209970Y-122176D02*
X210470Y-122676D01*
X209470D02*
X209970Y-122176D01*
X208970Y-122676D02*
X209470D01*
X208936Y-129240D02*
Y-128740D01*
X209436Y-128240D01*
X208936Y-127740D02*
X209436Y-128240D01*
X208936Y-127740D02*
Y-127240D01*
X209436D01*
X209936Y-127740D01*
X210436Y-127240D01*
X210936D01*
Y-127740D02*
Y-127240D01*
X210436Y-128240D02*
X210936Y-127740D01*
X210436Y-128240D02*
X210936Y-128740D01*
Y-129240D02*
Y-128740D01*
X210436Y-129240D02*
X210936D01*
X209936Y-128740D02*
X210436Y-129240D01*
X209436D02*
X209936Y-128740D01*
X208936Y-129240D02*
X209436D01*
X209105Y-115537D02*
Y-115037D01*
X209606Y-114537D01*
X209105Y-114037D02*
X209606Y-114537D01*
X209105Y-114037D02*
Y-113537D01*
X209606D01*
X210105Y-114037D01*
X210606Y-113537D01*
X211105D01*
Y-114037D02*
Y-113537D01*
X210606Y-114537D02*
X211105Y-114037D01*
X210606Y-114537D02*
X211105Y-115037D01*
Y-115537D02*
Y-115037D01*
X210606Y-115537D02*
X211105D01*
X210105Y-115037D02*
X210606Y-115537D01*
X209606D02*
X210105Y-115037D01*
X209105Y-115537D02*
X209606D01*
X150181Y-75803D02*
Y-75303D01*
X150681Y-74803D01*
X150181Y-74303D02*
X150681Y-74803D01*
X150181Y-74303D02*
Y-73803D01*
X150681D01*
X151181Y-74303D01*
X151681Y-73803D01*
X152181D01*
Y-74303D02*
Y-73803D01*
X151681Y-74803D02*
X152181Y-74303D01*
X151681Y-74803D02*
X152181Y-75303D01*
Y-75803D02*
Y-75303D01*
X151681Y-75803D02*
X152181D01*
X151181Y-75303D02*
X151681Y-75803D01*
X150681D02*
X151181Y-75303D01*
X150181Y-75803D02*
X150681D01*
X143882Y-55331D02*
Y-54831D01*
X144382Y-54331D01*
X143882Y-53831D02*
X144382Y-54331D01*
X143882Y-53831D02*
Y-53331D01*
X144382D01*
X144882Y-53831D01*
X145382Y-53331D01*
X145882D01*
Y-53831D02*
Y-53331D01*
X145382Y-54331D02*
X145882Y-53831D01*
X145382Y-54331D02*
X145882Y-54831D01*
Y-55331D02*
Y-54831D01*
X145382Y-55331D02*
X145882D01*
X144882Y-54831D02*
X145382Y-55331D01*
X144382D02*
X144882Y-54831D01*
X143882Y-55331D02*
X144382D01*
X130496Y-42732D02*
Y-42232D01*
X130996Y-41732D01*
X130496Y-41232D02*
X130996Y-41732D01*
X130496Y-41232D02*
Y-40732D01*
X130996D01*
X131496Y-41232D01*
X131996Y-40732D01*
X132496D01*
Y-41232D02*
Y-40732D01*
X131996Y-41732D02*
X132496Y-41232D01*
X131996Y-41732D02*
X132496Y-42232D01*
Y-42732D02*
Y-42232D01*
X131996Y-42732D02*
X132496D01*
X131496Y-42232D02*
X131996Y-42732D01*
X130996D02*
X131496Y-42232D01*
X130496Y-42732D02*
X130996D01*
X118685Y-31709D02*
Y-31209D01*
X119185Y-30709D01*
X118685Y-30209D02*
X119185Y-30709D01*
X118685Y-30209D02*
Y-29709D01*
X119185D01*
X119685Y-30209D01*
X120185Y-29709D01*
X120685D01*
Y-30209D02*
Y-29709D01*
X120185Y-30709D02*
X120685Y-30209D01*
X120185Y-30709D02*
X120685Y-31209D01*
Y-31709D02*
Y-31209D01*
X120185Y-31709D02*
X120685D01*
X119685Y-31209D02*
X120185Y-31709D01*
X119185D02*
X119685Y-31209D01*
X118685Y-31709D02*
X119185D01*
X191126Y-47457D02*
Y-46957D01*
X191626Y-46457D01*
X191126Y-45957D02*
X191626Y-46457D01*
X191126Y-45957D02*
Y-45457D01*
X191626D01*
X192126Y-45957D01*
X192626Y-45457D01*
X193126D01*
Y-45957D02*
Y-45457D01*
X192626Y-46457D02*
X193126Y-45957D01*
X192626Y-46457D02*
X193126Y-46957D01*
Y-47457D02*
Y-46957D01*
X192626Y-47457D02*
X193126D01*
X192126Y-46957D02*
X192626Y-47457D01*
X191626D02*
X192126Y-46957D01*
X191126Y-47457D02*
X191626D01*
X237583Y-98638D02*
Y-98138D01*
X238083Y-97638D01*
X237583Y-97138D02*
X238083Y-97638D01*
X237583Y-97138D02*
Y-96638D01*
X238083D01*
X238583Y-97138D01*
X239083Y-96638D01*
X239583D01*
Y-97138D02*
Y-96638D01*
X239083Y-97638D02*
X239583Y-97138D01*
X239083Y-97638D02*
X239583Y-98138D01*
Y-98638D02*
Y-98138D01*
X239083Y-98638D02*
X239583D01*
X238583Y-98138D02*
X239083Y-98638D01*
X238083D02*
X238583Y-98138D01*
X237583Y-98638D02*
X238083D01*
X224197Y-142732D02*
Y-142232D01*
X224697Y-141732D01*
X224197Y-141232D02*
X224697Y-141732D01*
X224197Y-141232D02*
Y-140732D01*
X224697D01*
X225197Y-141232D01*
X225697Y-140732D01*
X226197D01*
Y-141232D02*
Y-140732D01*
X225697Y-141732D02*
X226197Y-141232D01*
X225697Y-141732D02*
X226197Y-142232D01*
Y-142732D02*
Y-142232D01*
X225697Y-142732D02*
X226197D01*
X225197Y-142232D02*
X225697Y-142732D01*
X224697D02*
X225197Y-142232D01*
X224197Y-142732D02*
X224697D01*
X184574Y-111136D02*
Y-110636D01*
X185074Y-110136D01*
X184574Y-109636D02*
X185074Y-110136D01*
X184574Y-109636D02*
Y-109136D01*
X185074D01*
X185574Y-109636D01*
X186074Y-109136D01*
X186574D01*
Y-109636D02*
Y-109136D01*
X186074Y-110136D02*
X186574Y-109636D01*
X186074Y-110136D02*
X186574Y-110636D01*
Y-111136D02*
Y-110636D01*
X186074Y-111136D02*
X186574D01*
X185574Y-110636D02*
X186074Y-111136D01*
X185074D02*
X185574Y-110636D01*
X184574Y-111136D02*
X185074D01*
X43586Y-130874D02*
Y-130374D01*
X44086Y-129874D01*
X43586Y-129374D02*
X44086Y-129874D01*
X43586Y-129374D02*
Y-128874D01*
X44086D01*
X44586Y-129374D01*
X45086Y-128874D01*
X45586D01*
Y-129374D02*
Y-128874D01*
X45086Y-129874D02*
X45586Y-129374D01*
X45086Y-129874D02*
X45586Y-130374D01*
Y-130874D02*
Y-130374D01*
X45086Y-130874D02*
X45586D01*
X44586Y-130374D02*
X45086Y-130874D01*
X44086D02*
X44586Y-130374D01*
X43586Y-130874D02*
X44086D01*
X60975Y-130796D02*
Y-130296D01*
X61475Y-129796D01*
X60975Y-129296D02*
X61475Y-129796D01*
X60975Y-129296D02*
Y-128796D01*
X61475D01*
X61975Y-129296D01*
X62475Y-128796D01*
X62975D01*
Y-129296D02*
Y-128796D01*
X62475Y-129796D02*
X62975Y-129296D01*
X62475Y-129796D02*
X62975Y-130296D01*
Y-130796D02*
Y-130296D01*
X62475Y-130796D02*
X62975D01*
X61975Y-130296D02*
X62475Y-130796D01*
X61475D02*
X61975Y-130296D01*
X60975Y-130796D02*
X61475D01*
X181677Y-68717D02*
Y-68217D01*
X182177Y-67716D01*
X181677Y-67216D02*
X182177Y-67716D01*
X181677Y-67216D02*
Y-66716D01*
X182177D01*
X182677Y-67216D01*
X183177Y-66716D01*
X183677D01*
Y-67216D02*
Y-66716D01*
X183177Y-67716D02*
X183677Y-67216D01*
X183177Y-67716D02*
X183677Y-68217D01*
Y-68717D02*
Y-68217D01*
X183177Y-68717D02*
X183677D01*
X182677Y-68217D02*
X183177Y-68717D01*
X182177D02*
X182677Y-68217D01*
X181677Y-68717D02*
X182177D01*
X18685Y-177665D02*
X19185D01*
X18685D02*
Y-176665D01*
X19185D01*
Y-176165D01*
X20185D01*
Y-176665D02*
Y-176165D01*
Y-176665D02*
X20685D01*
Y-177665D02*
Y-176665D01*
X20185Y-177665D02*
X20685D01*
X20185Y-178165D02*
Y-177665D01*
X19185Y-178165D02*
X20185D01*
X19185D02*
Y-177665D01*
X243000Y-179500D02*
X243500D01*
X243000D02*
Y-178500D01*
X243500D01*
Y-178000D01*
X244500D01*
Y-178500D02*
Y-178000D01*
Y-178500D02*
X245000D01*
Y-179500D02*
Y-178500D01*
X244500Y-179500D02*
X245000D01*
X244500Y-180000D02*
Y-179500D01*
X243500Y-180000D02*
X244500D01*
X243500D02*
Y-179500D01*
X247000Y-16500D02*
X247500D01*
X247000D02*
Y-15500D01*
X247500D01*
Y-15000D01*
X248500D01*
Y-15500D02*
Y-15000D01*
Y-15500D02*
X249000D01*
Y-16500D02*
Y-15500D01*
X248500Y-16500D02*
X249000D01*
X248500Y-17000D02*
Y-16500D01*
X247500Y-17000D02*
X248500D01*
X247500D02*
Y-16500D01*
X33500Y-158363D02*
X34000Y-158863D01*
X33000Y-158363D02*
X33500D01*
X33000D02*
X33500Y-157863D01*
X33000Y-157363D02*
X33500Y-157863D01*
X33000Y-157363D02*
X33500D01*
X34000Y-156863D01*
X34500Y-157363D01*
X35000D01*
X34500Y-157863D02*
X35000Y-157363D01*
X34500Y-157863D02*
X35000Y-158363D01*
X34500D02*
X35000D01*
X34000Y-158863D02*
X34500Y-158363D01*
X33500Y-148363D02*
X34000Y-148863D01*
X33000Y-148363D02*
X33500D01*
X33000D02*
X33500Y-147863D01*
X33000Y-147363D02*
X33500Y-147863D01*
X33000Y-147363D02*
X33500D01*
X34000Y-146863D01*
X34500Y-147363D01*
X35000D01*
X34500Y-147863D02*
X35000Y-147363D01*
X34500Y-147863D02*
X35000Y-148363D01*
X34500D02*
X35000D01*
X34000Y-148863D02*
X34500Y-148363D01*
X18685Y-20185D02*
X19185D01*
X18685D02*
Y-19185D01*
X19185D01*
Y-18685D01*
X20185D01*
Y-19185D02*
Y-18685D01*
Y-19185D02*
X20685D01*
Y-20185D02*
Y-19185D01*
X20185Y-20185D02*
X20685D01*
X20185Y-20685D02*
Y-20185D01*
X19185Y-20685D02*
X20185D01*
X19185D02*
Y-20185D01*
X191262Y-178104D02*
X192262Y-176104D01*
X190262D02*
X192262D01*
X190262D02*
X191262Y-178104D01*
Y-168104D02*
X192262Y-166104D01*
X190262D02*
X192262D01*
X190262D02*
X191262Y-168104D01*
X201262Y-178104D02*
X202262Y-176104D01*
X200262D02*
X202262D01*
X200262D02*
X201262Y-178104D01*
Y-168104D02*
X202262Y-166104D01*
X200262D02*
X202262D01*
X200262D02*
X201262Y-168104D01*
X211262Y-178104D02*
X212262Y-176104D01*
X210262D02*
X212262D01*
X210262D02*
X211262Y-178104D01*
Y-168104D02*
X212262Y-166104D01*
X210262D02*
X212262D01*
X210262D02*
X211262Y-168104D01*
X166106Y-144000D02*
X168106D01*
Y-142000D01*
X166106D02*
X168106D01*
X166106Y-144000D02*
Y-142000D01*
X146894Y-144000D02*
X148894D01*
Y-142000D01*
X146894D02*
X148894D01*
X146894Y-144000D02*
Y-142000D01*
X147863Y-23000D02*
X148363Y-23500D01*
X147363Y-23000D02*
X147863D01*
X147363D02*
X147863Y-22500D01*
X147363Y-22000D02*
X147863Y-22500D01*
X147363Y-22000D02*
X147863D01*
X148363Y-21500D01*
X148863Y-22000D01*
X149363D01*
X148863Y-22500D02*
X149363Y-22000D01*
X148863Y-22500D02*
X149363Y-23000D01*
X148863D02*
X149363D01*
X148363Y-23500D02*
X148863Y-23000D01*
X137863D02*
X138363Y-23500D01*
X137363Y-23000D02*
X137863D01*
X137363D02*
X137863Y-22500D01*
X137363Y-22000D02*
X137863Y-22500D01*
X137363Y-22000D02*
X137863D01*
X138363Y-21500D01*
X138863Y-22000D01*
X139363D01*
X138863Y-22500D02*
X139363Y-22000D01*
X138863Y-22500D02*
X139363Y-23000D01*
X138863D02*
X139363D01*
X138363Y-23500D02*
X138863Y-23000D01*
X245956Y-128980D02*
X246456Y-129480D01*
X245456Y-128980D02*
X245956D01*
X245456D02*
X245956Y-128480D01*
X245456Y-127980D02*
X245956Y-128480D01*
X245456Y-127980D02*
X245956D01*
X246456Y-127480D01*
X246956Y-127980D01*
X247456D01*
X246956Y-128480D02*
X247456Y-127980D01*
X246956Y-128480D02*
X247456Y-128980D01*
X246956D02*
X247456D01*
X246456Y-129480D02*
X246956Y-128980D01*
X245956Y-118980D02*
X246456Y-119480D01*
X245456Y-118980D02*
X245956D01*
X245456D02*
X245956Y-118480D01*
X245456Y-117980D02*
X245956Y-118480D01*
X245456Y-117980D02*
X245956D01*
X246456Y-117480D01*
X246956Y-117980D01*
X247456D01*
X246956Y-118480D02*
X247456Y-117980D01*
X246956Y-118480D02*
X247456Y-118980D01*
X246956D02*
X247456D01*
X246456Y-119480D02*
X246956Y-118980D01*
X124500Y-23000D02*
X125000Y-23500D01*
X124000Y-23000D02*
X124500D01*
X124000D02*
X124500Y-22500D01*
X124000Y-22000D02*
X124500Y-22500D01*
X124000Y-22000D02*
X124500D01*
X125000Y-21500D01*
X125500Y-22000D01*
X126000D01*
X125500Y-22500D02*
X126000Y-22000D01*
X125500Y-22500D02*
X126000Y-23000D01*
X125500D02*
X126000D01*
X125000Y-23500D02*
X125500Y-23000D01*
X114500D02*
X115000Y-23500D01*
X114000Y-23000D02*
X114500D01*
X114000D02*
X114500Y-22500D01*
X114000Y-22000D02*
X114500Y-22500D01*
X114000Y-22000D02*
X114500D01*
X115000Y-21500D01*
X115500Y-22000D01*
X116000D01*
X115500Y-22500D02*
X116000Y-22000D01*
X115500Y-22500D02*
X116000Y-23000D01*
X115500D02*
X116000D01*
X115000Y-23500D02*
X115500Y-23000D01*
X33500Y-125000D02*
X34000Y-125500D01*
X33000Y-125000D02*
X33500D01*
X33000D02*
X33500Y-124500D01*
X33000Y-124000D02*
X33500Y-124500D01*
X33000Y-124000D02*
X33500D01*
X34000Y-123500D01*
X34500Y-124000D01*
X35000D01*
X34500Y-124500D02*
X35000Y-124000D01*
X34500Y-124500D02*
X35000Y-125000D01*
X34500D02*
X35000D01*
X34000Y-125500D02*
X34500Y-125000D01*
X33500Y-135000D02*
X34000Y-135500D01*
X33000Y-135000D02*
X33500D01*
X33000D02*
X33500Y-134500D01*
X33000Y-134000D02*
X33500Y-134500D01*
X33000Y-134000D02*
X33500D01*
X34000Y-133500D01*
X34500Y-134000D01*
X35000D01*
X34500Y-134500D02*
X35000Y-134000D01*
X34500Y-134500D02*
X35000Y-135000D01*
X34500D02*
X35000D01*
X34000Y-135500D02*
X34500Y-135000D01*
X32000Y-69500D02*
X32500Y-70000D01*
X31500Y-69500D02*
X32000D01*
X31500D02*
X32000Y-69000D01*
X31500Y-68500D02*
X32000Y-69000D01*
X31500Y-68500D02*
X32000D01*
X32500Y-68000D01*
X33000Y-68500D01*
X33500D01*
X33000Y-69000D02*
X33500Y-68500D01*
X33000Y-69000D02*
X33500Y-69500D01*
X33000D02*
X33500D01*
X32500Y-70000D02*
X33000Y-69500D01*
X32000Y-59500D02*
X32500Y-60000D01*
X31500Y-59500D02*
X32000D01*
X31500D02*
X32000Y-59000D01*
X31500Y-58500D02*
X32000Y-59000D01*
X31500Y-58500D02*
X32000D01*
X32500Y-58000D01*
X33000Y-58500D01*
X33500D01*
X33000Y-59000D02*
X33500Y-58500D01*
X33000Y-59000D02*
X33500Y-59500D01*
X33000D02*
X33500D01*
X32500Y-60000D02*
X33000Y-59500D01*
X245846Y-152343D02*
X246346Y-152843D01*
X245346Y-152343D02*
X245846D01*
X245346D02*
X245846Y-151844D01*
X245346Y-151344D02*
X245846Y-151844D01*
X245346Y-151344D02*
X245846D01*
X246346Y-150844D01*
X246846Y-151344D01*
X247346D01*
X246846Y-151844D02*
X247346Y-151344D01*
X246846Y-151844D02*
X247346Y-152343D01*
X246846D02*
X247346D01*
X246346Y-152843D02*
X246846Y-152343D01*
X245846Y-142343D02*
X246346Y-142843D01*
X245346Y-142343D02*
X245846D01*
X245346D02*
X245846Y-141843D01*
X245346Y-141343D02*
X245846Y-141843D01*
X245346Y-141343D02*
X245846D01*
X246346Y-140843D01*
X246846Y-141343D01*
X247346D01*
X246846Y-141843D02*
X247346Y-141343D01*
X246846Y-141843D02*
X247346Y-142343D01*
X246846D02*
X247346D01*
X246346Y-142843D02*
X246846Y-142343D01*
D15*
X749031Y-244518D02*
X751774Y-251716D01*
X754516Y-244518D02*
X751774Y-251716D01*
X756127Y-244518D02*
X756470Y-244861D01*
X756813Y-244518D01*
X756470Y-244175D01*
X756127Y-244518D01*
X756470Y-246918D02*
Y-251716D01*
X762194Y-246918D02*
Y-251716D01*
Y-247946D02*
X761509Y-247260D01*
X760823Y-246918D01*
X759795D01*
X759109Y-247260D01*
X758424Y-247946D01*
X758081Y-248974D01*
Y-249660D01*
X758424Y-250688D01*
X759109Y-251374D01*
X759795Y-251716D01*
X760823D01*
X761509Y-251374D01*
X762194Y-250688D01*
X764114Y-252745D02*
X768913Y-244518D01*
X769393Y-248289D02*
X772478D01*
X773506Y-247946D01*
X773849Y-247603D01*
X774192Y-246918D01*
Y-245889D01*
X773849Y-245204D01*
X773506Y-244861D01*
X772478Y-244518D01*
X769393D01*
Y-251716D01*
X779916Y-246918D02*
Y-251716D01*
Y-247946D02*
X779231Y-247260D01*
X778545Y-246918D01*
X777517D01*
X776831Y-247260D01*
X776146Y-247946D01*
X775803Y-248974D01*
Y-249660D01*
X776146Y-250688D01*
X776831Y-251374D01*
X777517Y-251716D01*
X778545D01*
X779231Y-251374D01*
X779916Y-250688D01*
X785949Y-244518D02*
Y-251716D01*
Y-247946D02*
X785264Y-247260D01*
X784578Y-246918D01*
X783550D01*
X782864Y-247260D01*
X782179Y-247946D01*
X781836Y-248974D01*
Y-249660D01*
X782179Y-250688D01*
X782864Y-251374D01*
X783550Y-251716D01*
X784578D01*
X785264Y-251374D01*
X785949Y-250688D01*
X625770Y-244518D02*
Y-251716D01*
Y-244518D02*
X628169D01*
X629198Y-244861D01*
X629883Y-245546D01*
X630226Y-246232D01*
X630569Y-247260D01*
Y-248974D01*
X630226Y-250003D01*
X629883Y-250688D01*
X629198Y-251374D01*
X628169Y-251716D01*
X625770D01*
X632180Y-246918D02*
Y-251716D01*
Y-248974D02*
X632523Y-247946D01*
X633208Y-247260D01*
X633894Y-246918D01*
X634922D01*
X636259Y-244518D02*
X636602Y-244861D01*
X636945Y-244518D01*
X636602Y-244175D01*
X636259Y-244518D01*
X636602Y-246918D02*
Y-251716D01*
X638213Y-244518D02*
Y-251716D01*
X639721Y-244518D02*
Y-251716D01*
X646885Y-244518D02*
Y-251716D01*
X650999D01*
X655900Y-246918D02*
Y-251716D01*
Y-247946D02*
X655215Y-247260D01*
X654529Y-246918D01*
X653501D01*
X652815Y-247260D01*
X652130Y-247946D01*
X651787Y-248974D01*
Y-249660D01*
X652130Y-250688D01*
X652815Y-251374D01*
X653501Y-251716D01*
X654529D01*
X655215Y-251374D01*
X655900Y-250688D01*
X658163Y-246918D02*
X660220Y-251716D01*
X662276Y-246918D02*
X660220Y-251716D01*
X659534Y-253088D01*
X658848Y-253773D01*
X658163Y-254116D01*
X657820D01*
X663476Y-248974D02*
X667589D01*
Y-248289D01*
X667247Y-247603D01*
X666904Y-247260D01*
X666218Y-246918D01*
X665190D01*
X664504Y-247260D01*
X663819Y-247946D01*
X663476Y-248974D01*
Y-249660D01*
X663819Y-250688D01*
X664504Y-251374D01*
X665190Y-251716D01*
X666218D01*
X666904Y-251374D01*
X667589Y-250688D01*
X669132Y-246918D02*
Y-251716D01*
Y-248974D02*
X669475Y-247946D01*
X670160Y-247260D01*
X670846Y-246918D01*
X671874D01*
X678182Y-248289D02*
X681266D01*
X682295Y-247946D01*
X682638Y-247603D01*
X682980Y-246918D01*
Y-245889D01*
X682638Y-245204D01*
X682295Y-244861D01*
X681266Y-244518D01*
X678182D01*
Y-251716D01*
X688705Y-246918D02*
Y-251716D01*
Y-247946D02*
X688019Y-247260D01*
X687334Y-246918D01*
X686305D01*
X685620Y-247260D01*
X684934Y-247946D01*
X684591Y-248974D01*
Y-249660D01*
X684934Y-250688D01*
X685620Y-251374D01*
X686305Y-251716D01*
X687334D01*
X688019Y-251374D01*
X688705Y-250688D01*
X691310Y-244518D02*
X691653Y-244861D01*
X691996Y-244518D01*
X691653Y-244175D01*
X691310Y-244518D01*
X691653Y-246918D02*
Y-251716D01*
X693264Y-246918D02*
Y-251716D01*
Y-248974D02*
X693607Y-247946D01*
X694292Y-247260D01*
X694978Y-246918D01*
X696006D01*
X566848Y-244518D02*
Y-251716D01*
X571647Y-244518D02*
Y-251716D01*
X566848Y-247946D02*
X571647D01*
X575350Y-246918D02*
X574664Y-247260D01*
X573978Y-247946D01*
X573635Y-248974D01*
Y-249660D01*
X573978Y-250688D01*
X574664Y-251374D01*
X575350Y-251716D01*
X576378D01*
X577063Y-251374D01*
X577749Y-250688D01*
X578092Y-249660D01*
Y-248974D01*
X577749Y-247946D01*
X577063Y-247260D01*
X576378Y-246918D01*
X575350D01*
X579669Y-244518D02*
Y-251716D01*
X581177Y-248974D02*
X585290D01*
Y-248289D01*
X584947Y-247603D01*
X584605Y-247260D01*
X583919Y-246918D01*
X582891D01*
X582205Y-247260D01*
X581520Y-247946D01*
X581177Y-248974D01*
Y-249660D01*
X581520Y-250688D01*
X582205Y-251374D01*
X582891Y-251716D01*
X583919D01*
X584605Y-251374D01*
X585290Y-250688D01*
X594888Y-244518D02*
Y-251716D01*
X592489Y-244518D02*
X597288D01*
X598487Y-246918D02*
X600544Y-251716D01*
X602601Y-246918D02*
X600544Y-251716D01*
X599859Y-253088D01*
X599173Y-253773D01*
X598487Y-254116D01*
X598145D01*
X603800Y-246918D02*
Y-254116D01*
Y-247946D02*
X604486Y-247260D01*
X605172Y-246918D01*
X606200D01*
X606885Y-247260D01*
X607571Y-247946D01*
X607914Y-248974D01*
Y-249660D01*
X607571Y-250688D01*
X606885Y-251374D01*
X606200Y-251716D01*
X605172D01*
X604486Y-251374D01*
X603800Y-250688D01*
X609456Y-248974D02*
X613570D01*
Y-248289D01*
X613227Y-247603D01*
X612884Y-247260D01*
X612199Y-246918D01*
X611170D01*
X610485Y-247260D01*
X609799Y-247946D01*
X609456Y-248974D01*
Y-249660D01*
X609799Y-250688D01*
X610485Y-251374D01*
X611170Y-251716D01*
X612199D01*
X612884Y-251374D01*
X613570Y-250688D01*
X527157Y-248289D02*
X530242D01*
X531271Y-247946D01*
X531613Y-247603D01*
X531956Y-246918D01*
Y-245889D01*
X531613Y-245204D01*
X531271Y-244861D01*
X530242Y-244518D01*
X527157D01*
Y-251716D01*
X533567Y-244518D02*
Y-251716D01*
X539189Y-246918D02*
Y-251716D01*
Y-247946D02*
X538503Y-247260D01*
X537818Y-246918D01*
X536789D01*
X536104Y-247260D01*
X535418Y-247946D01*
X535076Y-248974D01*
Y-249660D01*
X535418Y-250688D01*
X536104Y-251374D01*
X536789Y-251716D01*
X537818D01*
X538503Y-251374D01*
X539189Y-250688D01*
X542137Y-244518D02*
Y-250345D01*
X542480Y-251374D01*
X543165Y-251716D01*
X543851D01*
X541109Y-246918D02*
X543508D01*
X544879Y-248974D02*
X548992D01*
Y-248289D01*
X548650Y-247603D01*
X548307Y-247260D01*
X547621Y-246918D01*
X546593D01*
X545907Y-247260D01*
X545222Y-247946D01*
X544879Y-248974D01*
Y-249660D01*
X545222Y-250688D01*
X545907Y-251374D01*
X546593Y-251716D01*
X547621D01*
X548307Y-251374D01*
X548992Y-250688D01*
X554648Y-244518D02*
Y-251716D01*
Y-247946D02*
X553963Y-247260D01*
X553277Y-246918D01*
X552249D01*
X551563Y-247260D01*
X550878Y-247946D01*
X550535Y-248974D01*
Y-249660D01*
X550878Y-250688D01*
X551563Y-251374D01*
X552249Y-251716D01*
X553277D01*
X553963Y-251374D01*
X554648Y-250688D01*
X427433Y-244518D02*
Y-251716D01*
X432232Y-244518D02*
Y-251716D01*
X427433Y-247946D02*
X432232D01*
X435934Y-246918D02*
X435249Y-247260D01*
X434563Y-247946D01*
X434221Y-248974D01*
Y-249660D01*
X434563Y-250688D01*
X435249Y-251374D01*
X435934Y-251716D01*
X436963D01*
X437648Y-251374D01*
X438334Y-250688D01*
X438677Y-249660D01*
Y-248974D01*
X438334Y-247946D01*
X437648Y-247260D01*
X436963Y-246918D01*
X435934D01*
X440253Y-244518D02*
Y-251716D01*
X441762Y-248974D02*
X445875D01*
Y-248289D01*
X445532Y-247603D01*
X445190Y-247260D01*
X444504Y-246918D01*
X443476D01*
X442790Y-247260D01*
X442104Y-247946D01*
X441762Y-248974D01*
Y-249660D01*
X442104Y-250688D01*
X442790Y-251374D01*
X443476Y-251716D01*
X444504D01*
X445190Y-251374D01*
X445875Y-250688D01*
X457872Y-245546D02*
X457187Y-244861D01*
X456159Y-244518D01*
X454787D01*
X453759Y-244861D01*
X453074Y-245546D01*
Y-246232D01*
X453416Y-246918D01*
X453759Y-247260D01*
X454445Y-247603D01*
X456501Y-248289D01*
X457187Y-248632D01*
X457530Y-248974D01*
X457872Y-249660D01*
Y-250688D01*
X457187Y-251374D01*
X456159Y-251716D01*
X454787D01*
X453759Y-251374D01*
X453074Y-250688D01*
X460169Y-244518D02*
X460512Y-244861D01*
X460855Y-244518D01*
X460512Y-244175D01*
X460169Y-244518D01*
X460512Y-246918D02*
Y-251716D01*
X465894Y-246918D02*
X462123Y-251716D01*
Y-246918D02*
X465894D01*
X462123Y-251716D02*
X465894D01*
X467402Y-248974D02*
X471515D01*
Y-248289D01*
X471173Y-247603D01*
X470830Y-247260D01*
X470144Y-246918D01*
X469116D01*
X468430Y-247260D01*
X467745Y-247946D01*
X467402Y-248974D01*
Y-249660D01*
X467745Y-250688D01*
X468430Y-251374D01*
X469116Y-251716D01*
X470144D01*
X470830Y-251374D01*
X471515Y-250688D01*
X388268Y-246232D02*
X387925Y-245546D01*
X387240Y-244861D01*
X386554Y-244518D01*
X385183D01*
X384497Y-244861D01*
X383812Y-245546D01*
X383469Y-246232D01*
X383126Y-247260D01*
Y-248974D01*
X383469Y-250003D01*
X383812Y-250688D01*
X384497Y-251374D01*
X385183Y-251716D01*
X386554D01*
X387240Y-251374D01*
X387925Y-250688D01*
X388268Y-250003D01*
X392004Y-246918D02*
X391319Y-247260D01*
X390633Y-247946D01*
X390290Y-248974D01*
Y-249660D01*
X390633Y-250688D01*
X391319Y-251374D01*
X392004Y-251716D01*
X393033D01*
X393718Y-251374D01*
X394404Y-250688D01*
X394747Y-249660D01*
Y-248974D01*
X394404Y-247946D01*
X393718Y-247260D01*
X393033Y-246918D01*
X392004D01*
X396323D02*
Y-250345D01*
X396666Y-251374D01*
X397352Y-251716D01*
X398380D01*
X399066Y-251374D01*
X400094Y-250345D01*
Y-246918D02*
Y-251716D01*
X401979Y-246918D02*
Y-251716D01*
Y-248289D02*
X403008Y-247260D01*
X403693Y-246918D01*
X404722D01*
X405407Y-247260D01*
X405750Y-248289D01*
Y-251716D01*
X408664Y-244518D02*
Y-250345D01*
X409006Y-251374D01*
X409692Y-251716D01*
X410378D01*
X407635Y-246918D02*
X410035D01*
X342167Y-245546D02*
X341481Y-244861D01*
X340453Y-244518D01*
X339082D01*
X338053Y-244861D01*
X337368Y-245546D01*
Y-246232D01*
X337710Y-246918D01*
X338053Y-247260D01*
X338739Y-247603D01*
X340795Y-248289D01*
X341481Y-248632D01*
X341824Y-248974D01*
X342167Y-249660D01*
Y-250688D01*
X341481Y-251374D01*
X340453Y-251716D01*
X339082D01*
X338053Y-251374D01*
X337368Y-250688D01*
X344121Y-246918D02*
X346177Y-251716D01*
X348234Y-246918D02*
X346177Y-251716D01*
X345492Y-253088D01*
X344806Y-253773D01*
X344121Y-254116D01*
X343778D01*
X349434Y-246918D02*
Y-251716D01*
Y-248289D02*
X350462Y-247260D01*
X351148Y-246918D01*
X352176D01*
X352861Y-247260D01*
X353204Y-248289D01*
Y-251716D01*
Y-248289D02*
X354233Y-247260D01*
X354918Y-246918D01*
X355947D01*
X356632Y-247260D01*
X356975Y-248289D01*
Y-251716D01*
X359237Y-244518D02*
Y-251716D01*
Y-247946D02*
X359923Y-247260D01*
X360608Y-246918D01*
X361637D01*
X362322Y-247260D01*
X363008Y-247946D01*
X363351Y-248974D01*
Y-249660D01*
X363008Y-250688D01*
X362322Y-251374D01*
X361637Y-251716D01*
X360608D01*
X359923Y-251374D01*
X359237Y-250688D01*
X366607Y-246918D02*
X365922Y-247260D01*
X365236Y-247946D01*
X364893Y-248974D01*
Y-249660D01*
X365236Y-250688D01*
X365922Y-251374D01*
X366607Y-251716D01*
X367635D01*
X368321Y-251374D01*
X369007Y-250688D01*
X369349Y-249660D01*
Y-248974D01*
X369007Y-247946D01*
X368321Y-247260D01*
X367635Y-246918D01*
X366607D01*
X370926Y-244518D02*
Y-251716D01*
M02*
