G04*
G04 #@! TF.GenerationSoftware,Altium Limited,Altium Designer,20.2.5 (213)*
G04*
G04 Layer_Color=8388736*
%FSLAX25Y25*%
%MOIN*%
G70*
G04*
G04 #@! TF.SameCoordinates,4AF3BCA7-DBB1-4E44-85BE-4205754FEF36*
G04*
G04*
G04 #@! TF.FilePolarity,Negative*
G04*
G01*
G75*
G04:AMPARAMS|DCode=13|XSize=85.56mil|YSize=45.4mil|CornerRadius=8.68mil|HoleSize=0mil|Usage=FLASHONLY|Rotation=0.000|XOffset=0mil|YOffset=0mil|HoleType=Round|Shape=RoundedRectangle|*
%AMROUNDEDRECTD13*
21,1,0.08556,0.02805,0,0,0.0*
21,1,0.06821,0.04540,0,0,0.0*
1,1,0.01735,0.03410,-0.01403*
1,1,0.01735,-0.03410,-0.01403*
1,1,0.01735,-0.03410,0.01403*
1,1,0.01735,0.03410,0.01403*
%
%ADD13ROUNDEDRECTD13*%
G04:AMPARAMS|DCode=14|XSize=85.56mil|YSize=135.95mil|CornerRadius=13.7mil|HoleSize=0mil|Usage=FLASHONLY|Rotation=0.000|XOffset=0mil|YOffset=0mil|HoleType=Round|Shape=RoundedRectangle|*
%AMROUNDEDRECTD14*
21,1,0.08556,0.10856,0,0,0.0*
21,1,0.05817,0.13595,0,0,0.0*
1,1,0.02739,0.02909,-0.05428*
1,1,0.02739,-0.02909,-0.05428*
1,1,0.02739,-0.02909,0.05428*
1,1,0.02739,0.02909,0.05428*
%
%ADD14ROUNDEDRECTD14*%
G04:AMPARAMS|DCode=15|XSize=86.74mil|YSize=67.06mil|CornerRadius=11.38mil|HoleSize=0mil|Usage=FLASHONLY|Rotation=180.000|XOffset=0mil|YOffset=0mil|HoleType=Round|Shape=RoundedRectangle|*
%AMROUNDEDRECTD15*
21,1,0.08674,0.04429,0,0,180.0*
21,1,0.06398,0.06706,0,0,180.0*
1,1,0.02276,-0.03199,0.02215*
1,1,0.02276,0.03199,0.02215*
1,1,0.02276,0.03199,-0.02215*
1,1,0.02276,-0.03199,-0.02215*
%
%ADD15ROUNDEDRECTD15*%
G04:AMPARAMS|DCode=16|XSize=47.37mil|YSize=45.4mil|CornerRadius=13.35mil|HoleSize=0mil|Usage=FLASHONLY|Rotation=270.000|XOffset=0mil|YOffset=0mil|HoleType=Round|Shape=RoundedRectangle|*
%AMROUNDEDRECTD16*
21,1,0.04737,0.01870,0,0,270.0*
21,1,0.02067,0.04540,0,0,270.0*
1,1,0.02670,-0.00935,-0.01034*
1,1,0.02670,-0.00935,0.01034*
1,1,0.02670,0.00935,0.01034*
1,1,0.02670,0.00935,-0.01034*
%
%ADD16ROUNDEDRECTD16*%
G04:AMPARAMS|DCode=17|XSize=47.37mil|YSize=45.4mil|CornerRadius=13.35mil|HoleSize=0mil|Usage=FLASHONLY|Rotation=180.000|XOffset=0mil|YOffset=0mil|HoleType=Round|Shape=RoundedRectangle|*
%AMROUNDEDRECTD17*
21,1,0.04737,0.01870,0,0,180.0*
21,1,0.02067,0.04540,0,0,180.0*
1,1,0.02670,-0.01034,0.00935*
1,1,0.02670,0.01034,0.00935*
1,1,0.02670,0.01034,-0.00935*
1,1,0.02670,-0.01034,-0.00935*
%
%ADD17ROUNDEDRECTD17*%
G04:AMPARAMS|DCode=18|XSize=86.74mil|YSize=75.72mil|CornerRadius=12.47mil|HoleSize=0mil|Usage=FLASHONLY|Rotation=90.000|XOffset=0mil|YOffset=0mil|HoleType=Round|Shape=RoundedRectangle|*
%AMROUNDEDRECTD18*
21,1,0.08674,0.05079,0,0,90.0*
21,1,0.06181,0.07572,0,0,90.0*
1,1,0.02493,0.02539,0.03091*
1,1,0.02493,0.02539,-0.03091*
1,1,0.02493,-0.02539,-0.03091*
1,1,0.02493,-0.02539,0.03091*
%
%ADD18ROUNDEDRECTD18*%
G04:AMPARAMS|DCode=19|XSize=28.47mil|YSize=65.87mil|CornerRadius=6.56mil|HoleSize=0mil|Usage=FLASHONLY|Rotation=0.000|XOffset=0mil|YOffset=0mil|HoleType=Round|Shape=RoundedRectangle|*
%AMROUNDEDRECTD19*
21,1,0.02847,0.05276,0,0,0.0*
21,1,0.01535,0.06587,0,0,0.0*
1,1,0.01312,0.00768,-0.02638*
1,1,0.01312,-0.00768,-0.02638*
1,1,0.01312,-0.00768,0.02638*
1,1,0.01312,0.00768,0.02638*
%
%ADD19ROUNDEDRECTD19*%
G04:AMPARAMS|DCode=20|XSize=65.87mil|YSize=28.47mil|CornerRadius=6.56mil|HoleSize=0mil|Usage=FLASHONLY|Rotation=0.000|XOffset=0mil|YOffset=0mil|HoleType=Round|Shape=RoundedRectangle|*
%AMROUNDEDRECTD20*
21,1,0.06587,0.01535,0,0,0.0*
21,1,0.05276,0.02847,0,0,0.0*
1,1,0.01312,0.02638,-0.00768*
1,1,0.01312,-0.02638,-0.00768*
1,1,0.01312,-0.02638,0.00768*
1,1,0.01312,0.02638,0.00768*
%
%ADD20ROUNDEDRECTD20*%
%ADD21R,0.02402X0.01378*%
%ADD22R,0.01378X0.02402*%
G04:AMPARAMS|DCode=23|XSize=64.1mil|YSize=22.17mil|CornerRadius=7.54mil|HoleSize=0mil|Usage=FLASHONLY|Rotation=180.000|XOffset=0mil|YOffset=0mil|HoleType=Round|Shape=RoundedRectangle|*
%AMROUNDEDRECTD23*
21,1,0.06410,0.00709,0,0,180.0*
21,1,0.04902,0.02217,0,0,180.0*
1,1,0.01509,-0.02451,0.00354*
1,1,0.01509,0.02451,0.00354*
1,1,0.01509,0.02451,-0.00354*
1,1,0.01509,-0.02451,-0.00354*
%
%ADD23ROUNDEDRECTD23*%
G04:AMPARAMS|DCode=24|XSize=27.69mil|YSize=21.78mil|CornerRadius=5.72mil|HoleSize=0mil|Usage=FLASHONLY|Rotation=0.000|XOffset=0mil|YOffset=0mil|HoleType=Round|Shape=RoundedRectangle|*
%AMROUNDEDRECTD24*
21,1,0.02769,0.01034,0,0,0.0*
21,1,0.01624,0.02178,0,0,0.0*
1,1,0.01145,0.00812,-0.00517*
1,1,0.01145,-0.00812,-0.00517*
1,1,0.01145,-0.00812,0.00517*
1,1,0.01145,0.00812,0.00517*
%
%ADD24ROUNDEDRECTD24*%
%ADD25C,0.08477*%
G04:AMPARAMS|DCode=26|XSize=84.77mil|YSize=84.77mil|CornerRadius=23.19mil|HoleSize=0mil|Usage=FLASHONLY|Rotation=90.000|XOffset=0mil|YOffset=0mil|HoleType=Round|Shape=RoundedRectangle|*
%AMROUNDEDRECTD26*
21,1,0.08477,0.03839,0,0,90.0*
21,1,0.03839,0.08477,0,0,90.0*
1,1,0.04639,0.01919,0.01919*
1,1,0.04639,0.01919,-0.01919*
1,1,0.04639,-0.01919,-0.01919*
1,1,0.04639,-0.01919,0.01919*
%
%ADD26ROUNDEDRECTD26*%
G04:AMPARAMS|DCode=27|XSize=84.77mil|YSize=84.77mil|CornerRadius=23.19mil|HoleSize=0mil|Usage=FLASHONLY|Rotation=180.000|XOffset=0mil|YOffset=0mil|HoleType=Round|Shape=RoundedRectangle|*
%AMROUNDEDRECTD27*
21,1,0.08477,0.03839,0,0,180.0*
21,1,0.03839,0.08477,0,0,180.0*
1,1,0.04639,-0.01919,0.01919*
1,1,0.04639,0.01919,0.01919*
1,1,0.04639,0.01919,-0.01919*
1,1,0.04639,-0.01919,-0.01919*
%
%ADD27ROUNDEDRECTD27*%
%ADD28C,0.05918*%
%ADD29R,0.07296X0.07296*%
%ADD30C,0.07296*%
%ADD31R,0.07296X0.07296*%
%ADD32C,0.24422*%
%ADD33C,0.02756*%
D13*
X70911Y-59030D02*
D03*
Y-68085D02*
D03*
Y-77141D02*
D03*
D14*
X94730Y-68085D02*
D03*
D15*
X176280Y-61133D02*
D03*
X208563D02*
D03*
D16*
X250838Y-97810D02*
D03*
X244539D02*
D03*
X100188Y-152595D02*
D03*
X93889D02*
D03*
X176350Y-80591D02*
D03*
X182650D02*
D03*
Y-73488D02*
D03*
X176350D02*
D03*
X147500Y-157567D02*
D03*
X153799D02*
D03*
X167202D02*
D03*
X160903D02*
D03*
X100188Y-160095D02*
D03*
X93889D02*
D03*
X134449Y-74067D02*
D03*
X140748D02*
D03*
X120748Y-91040D02*
D03*
X114449D02*
D03*
X127993D02*
D03*
X134292D02*
D03*
X100344Y-119150D02*
D03*
X106643D02*
D03*
X199551Y-13639D02*
D03*
X193252D02*
D03*
X192650Y-34998D02*
D03*
X186350D02*
D03*
D17*
X61369Y-59098D02*
D03*
Y-65397D02*
D03*
X53869Y-59098D02*
D03*
Y-65397D02*
D03*
X224453Y-147905D02*
D03*
Y-154204D02*
D03*
X117984Y-57928D02*
D03*
Y-64227D02*
D03*
X160500Y-69988D02*
D03*
Y-76287D02*
D03*
Y-56586D02*
D03*
Y-62885D02*
D03*
X167906Y-69988D02*
D03*
Y-76287D02*
D03*
X167891Y-56586D02*
D03*
Y-62885D02*
D03*
X204000Y-114650D02*
D03*
Y-108350D02*
D03*
Y-121753D02*
D03*
Y-128052D02*
D03*
X140397Y-121650D02*
D03*
Y-115350D02*
D03*
X147500Y-121650D02*
D03*
Y-115350D02*
D03*
Y-108247D02*
D03*
Y-101948D02*
D03*
X110881Y-75609D02*
D03*
Y-69310D02*
D03*
X128828Y-64184D02*
D03*
Y-57885D02*
D03*
X78785Y-126432D02*
D03*
Y-132731D02*
D03*
X78753Y-139835D02*
D03*
Y-146134D02*
D03*
Y-112850D02*
D03*
Y-119150D02*
D03*
X61597Y-78800D02*
D03*
Y-72500D02*
D03*
X53597Y-78800D02*
D03*
Y-72500D02*
D03*
X185778Y-20850D02*
D03*
Y-27150D02*
D03*
X218675Y-137045D02*
D03*
Y-130746D02*
D03*
X225000Y-74002D02*
D03*
Y-67702D02*
D03*
X211500Y-18350D02*
D03*
Y-24650D02*
D03*
D18*
X55097Y-112058D02*
D03*
Y-124657D02*
D03*
Y-134332D02*
D03*
Y-146930D02*
D03*
X68500Y-135799D02*
D03*
Y-123201D02*
D03*
D19*
X166602Y-128000D02*
D03*
X169752D02*
D03*
X172902D02*
D03*
X176051D02*
D03*
X179201D02*
D03*
X182350D02*
D03*
X185500D02*
D03*
X188650D02*
D03*
Y-95165D02*
D03*
X185500D02*
D03*
X182350D02*
D03*
X179201D02*
D03*
X176051D02*
D03*
X172902D02*
D03*
X169752D02*
D03*
X166602D02*
D03*
D20*
X161209Y-100559D02*
D03*
Y-103709D02*
D03*
Y-106858D02*
D03*
Y-110008D02*
D03*
Y-113157D02*
D03*
Y-116307D02*
D03*
Y-119457D02*
D03*
Y-122606D02*
D03*
X194043D02*
D03*
Y-119457D02*
D03*
Y-116307D02*
D03*
Y-113157D02*
D03*
Y-110008D02*
D03*
Y-106858D02*
D03*
Y-103709D02*
D03*
Y-100559D02*
D03*
D21*
X118965Y-78130D02*
D03*
Y-80098D02*
D03*
Y-82067D02*
D03*
Y-84035D02*
D03*
X128098D02*
D03*
Y-82067D02*
D03*
Y-80098D02*
D03*
Y-78130D02*
D03*
D22*
X121563Y-84665D02*
D03*
X123531D02*
D03*
X125500D02*
D03*
Y-77500D02*
D03*
X123531D02*
D03*
X121563D02*
D03*
D23*
X111247Y-133420D02*
D03*
Y-130861D02*
D03*
Y-128302D02*
D03*
Y-125743D02*
D03*
X93830D02*
D03*
Y-128302D02*
D03*
Y-130861D02*
D03*
Y-133420D02*
D03*
D24*
X200319Y-25280D02*
D03*
Y-22720D02*
D03*
Y-27839D02*
D03*
X192681Y-25280D02*
D03*
Y-22720D02*
D03*
Y-20161D02*
D03*
Y-27839D02*
D03*
X200319Y-20161D02*
D03*
D25*
X246346Y-141843D02*
D03*
X32500Y-69000D02*
D03*
X34000Y-134500D02*
D03*
X115000Y-22500D02*
D03*
X246456Y-118480D02*
D03*
X138363Y-22500D02*
D03*
X34000Y-157863D02*
D03*
D26*
X246346Y-151844D02*
D03*
X32500Y-59000D02*
D03*
X34000Y-124500D02*
D03*
X246456Y-128480D02*
D03*
X34000Y-147863D02*
D03*
D27*
X125000Y-22500D02*
D03*
X148363D02*
D03*
D28*
X147894Y-143000D02*
D03*
X167106D02*
D03*
D29*
X211262Y-167104D02*
D03*
D30*
Y-177104D02*
D03*
X201262Y-167104D02*
D03*
Y-177104D02*
D03*
X191262Y-167104D02*
D03*
Y-177104D02*
D03*
X250500Y-47852D02*
D03*
Y-57852D02*
D03*
Y-67852D02*
D03*
D31*
Y-77852D02*
D03*
D32*
X19685Y-19685D02*
D03*
X248000Y-16000D02*
D03*
X244000Y-179000D02*
D03*
X19685Y-177165D02*
D03*
D33*
X182677Y-67716D02*
D03*
X61975Y-129796D02*
D03*
X44586Y-129874D02*
D03*
X185574Y-110136D02*
D03*
X225197Y-141732D02*
D03*
X238583Y-97638D02*
D03*
X192126Y-46457D02*
D03*
X119685Y-30709D02*
D03*
X131496Y-41732D02*
D03*
X144882Y-54331D02*
D03*
X151181Y-74803D02*
D03*
X210105Y-114537D02*
D03*
X209936Y-128240D02*
D03*
X209970Y-121676D02*
D03*
X216535Y-61417D02*
D03*
X211811Y-108661D02*
D03*
X200159Y-39211D02*
D03*
X206102Y-13240D02*
D03*
X179646Y-20656D02*
D03*
X183903Y-86105D02*
D03*
X190551Y-88189D02*
D03*
X176174Y-85391D02*
D03*
X168057Y-105712D02*
D03*
X173556Y-105805D02*
D03*
X178315Y-102847D02*
D03*
X120151Y-70866D02*
D03*
X139594Y-87402D02*
D03*
X154135Y-101942D02*
D03*
X112811Y-85825D02*
D03*
X113012Y-80859D02*
D03*
X104724Y-69310D02*
D03*
X120923Y-97526D02*
D03*
X128275Y-97767D02*
D03*
X125984Y-70866D02*
D03*
X134066Y-115169D02*
D03*
X119301Y-135453D02*
D03*
Y-123711D02*
D03*
X119505Y-129599D02*
D03*
X55905Y-154331D02*
D03*
X87527Y-66210D02*
D03*
Y-73297D02*
D03*
Y-59123D02*
D03*
X87178Y-123940D02*
D03*
X87527Y-80383D02*
D03*
X80440Y-52037D02*
D03*
X87527D02*
D03*
X80440Y-59123D02*
D03*
X55118Y-104724D02*
D03*
X218728Y-142019D02*
D03*
X128776Y-52911D02*
D03*
X117932Y-52954D02*
D03*
X138385Y-12651D02*
D03*
X205293Y-25227D02*
D03*
X80440Y-73297D02*
D03*
Y-80383D02*
D03*
Y-66210D02*
D03*
X88967Y-160095D02*
D03*
X142526Y-102000D02*
D03*
X153852Y-162541D02*
D03*
X160955D02*
D03*
X140696Y-69093D02*
D03*
X111617Y-119097D02*
D03*
X73779Y-146186D02*
D03*
X181376Y-35050D02*
D03*
M02*
