G04*
G04 #@! TF.GenerationSoftware,Altium Limited,Altium Designer,20.2.5 (213)*
G04*
G04 Layer_Physical_Order=2*
G04 Layer_Color=16711680*
%FSLAX25Y25*%
%MOIN*%
G70*
G04*
G04 #@! TF.SameCoordinates,60F93EC6-C58D-44ED-8A3A-9E4C80F0F1D9*
G04*
G04*
G04 #@! TF.FilePolarity,Positive*
G04*
G01*
G75*
%ADD10C,0.01000*%
%ADD45C,0.01968*%
%ADD48C,0.07677*%
G04:AMPARAMS|DCode=49|XSize=76.77mil|YSize=76.77mil|CornerRadius=19.19mil|HoleSize=0mil|Usage=FLASHONLY|Rotation=90.000|XOffset=0mil|YOffset=0mil|HoleType=Round|Shape=RoundedRectangle|*
%AMROUNDEDRECTD49*
21,1,0.07677,0.03839,0,0,90.0*
21,1,0.03839,0.07677,0,0,90.0*
1,1,0.03839,0.01919,0.01919*
1,1,0.03839,0.01919,-0.01919*
1,1,0.03839,-0.01919,-0.01919*
1,1,0.03839,-0.01919,0.01919*
%
%ADD49ROUNDEDRECTD49*%
G04:AMPARAMS|DCode=50|XSize=76.77mil|YSize=76.77mil|CornerRadius=19.19mil|HoleSize=0mil|Usage=FLASHONLY|Rotation=180.000|XOffset=0mil|YOffset=0mil|HoleType=Round|Shape=RoundedRectangle|*
%AMROUNDEDRECTD50*
21,1,0.07677,0.03839,0,0,180.0*
21,1,0.03839,0.07677,0,0,180.0*
1,1,0.03839,-0.01919,0.01919*
1,1,0.03839,0.01919,0.01919*
1,1,0.03839,0.01919,-0.01919*
1,1,0.03839,-0.01919,-0.01919*
%
%ADD50ROUNDEDRECTD50*%
%ADD51C,0.05118*%
%ADD52R,0.06496X0.06496*%
%ADD53C,0.06496*%
%ADD54R,0.06496X0.06496*%
%ADD55C,0.23622*%
%ADD56C,0.03937*%
G36*
X273584Y-31496D02*
X273584Y-194843D01*
X2007D01*
Y-2007D01*
X245116D01*
X245176Y-2507D01*
X243729Y-2854D01*
X241725Y-3684D01*
X239876Y-4818D01*
X238226Y-6226D01*
X236818Y-7876D01*
X235684Y-9725D01*
X234854Y-11729D01*
X234348Y-13838D01*
X234178Y-16000D01*
X234348Y-18162D01*
X234854Y-20271D01*
X235684Y-22275D01*
X236818Y-24124D01*
X238226Y-25774D01*
X239876Y-27182D01*
X241725Y-28316D01*
X243729Y-29146D01*
X245838Y-29652D01*
X248000Y-29822D01*
X250162Y-29652D01*
X252271Y-29146D01*
X254275Y-28316D01*
X256124Y-27182D01*
X257774Y-25774D01*
X259182Y-24124D01*
X260316Y-22275D01*
X261146Y-20271D01*
X261652Y-18162D01*
X261822Y-16000D01*
X261652Y-13838D01*
X261146Y-11729D01*
X260316Y-9725D01*
X259182Y-7876D01*
X257774Y-6226D01*
X256124Y-4818D01*
X254275Y-3684D01*
X252271Y-2854D01*
X250824Y-2507D01*
X250884Y-2007D01*
X273584D01*
Y-31496D01*
D02*
G37*
%LPC*%
G36*
X150283Y-17636D02*
X148954D01*
Y-21910D01*
X153227D01*
Y-20581D01*
X153127Y-19819D01*
X152832Y-19108D01*
X152365Y-18499D01*
X151755Y-18031D01*
X151045Y-17737D01*
X150283Y-17636D01*
D02*
G37*
G36*
X115000Y-17636D02*
X113741Y-17801D01*
X112568Y-18287D01*
X111560Y-19060D01*
X110787Y-20068D01*
X110301Y-21241D01*
X110135Y-22500D01*
X110301Y-23759D01*
X110787Y-24932D01*
X111560Y-25940D01*
X112568Y-26713D01*
X113741Y-27199D01*
X115000Y-27364D01*
X116259Y-27199D01*
X117432Y-26713D01*
X118440Y-25940D01*
X119213Y-24932D01*
X119652Y-23871D01*
X120152Y-23971D01*
Y-24419D01*
X120252Y-25177D01*
X120545Y-25884D01*
X121010Y-26490D01*
X121616Y-26956D01*
X122323Y-27248D01*
X123081Y-27348D01*
X126919D01*
X127677Y-27248D01*
X128384Y-26956D01*
X128990Y-26490D01*
X129455Y-25884D01*
X129748Y-25177D01*
X129848Y-24419D01*
Y-20581D01*
X129748Y-19823D01*
X129455Y-19116D01*
X128990Y-18510D01*
X128384Y-18045D01*
X127677Y-17752D01*
X126919Y-17652D01*
X123081D01*
X122323Y-17752D01*
X121616Y-18045D01*
X121010Y-18510D01*
X120545Y-19116D01*
X120252Y-19823D01*
X120152Y-20581D01*
Y-21029D01*
X119652Y-21128D01*
X119213Y-20068D01*
X118440Y-19060D01*
X117432Y-18287D01*
X116259Y-17801D01*
X115000Y-17636D01*
D02*
G37*
G36*
X153227Y-23090D02*
X148954D01*
Y-27364D01*
X150283D01*
X151045Y-27263D01*
X151755Y-26969D01*
X152365Y-26501D01*
X152832Y-25892D01*
X153127Y-25181D01*
X153227Y-24419D01*
Y-23090D01*
D02*
G37*
G36*
X138385Y-9673D02*
X137614Y-9774D01*
X136896Y-10072D01*
X136279Y-10545D01*
X135805Y-11162D01*
X135508Y-11880D01*
X135406Y-12651D01*
X135508Y-13422D01*
X135805Y-14140D01*
X136279Y-14757D01*
X136871Y-15212D01*
Y-17898D01*
X135931Y-18287D01*
X134924Y-19060D01*
X134151Y-20068D01*
X133665Y-21241D01*
X133499Y-22500D01*
X133665Y-23759D01*
X134151Y-24932D01*
X134924Y-25940D01*
X135931Y-26713D01*
X137104Y-27199D01*
X138363Y-27364D01*
X139622Y-27199D01*
X140795Y-26713D01*
X141803Y-25940D01*
X142576Y-24932D01*
X142999Y-23910D01*
X143499Y-24009D01*
Y-24419D01*
X143600Y-25181D01*
X143894Y-25892D01*
X144362Y-26501D01*
X144972Y-26969D01*
X145682Y-27263D01*
X146444Y-27364D01*
X147773D01*
Y-22500D01*
Y-17636D01*
X146444D01*
X145682Y-17737D01*
X144972Y-18031D01*
X144362Y-18499D01*
X143894Y-19108D01*
X143600Y-19819D01*
X143499Y-20581D01*
Y-20991D01*
X142999Y-21090D01*
X142576Y-20068D01*
X141803Y-19060D01*
X140795Y-18287D01*
X139898Y-17916D01*
Y-15212D01*
X140490Y-14757D01*
X140964Y-14140D01*
X141261Y-13422D01*
X141363Y-12651D01*
X141261Y-11880D01*
X140964Y-11162D01*
X140490Y-10545D01*
X139874Y-10072D01*
X139155Y-9774D01*
X138385Y-9673D01*
D02*
G37*
G36*
X205293Y-22249D02*
X204522Y-22350D01*
X203804Y-22648D01*
X203187Y-23121D01*
X202714Y-23738D01*
X202416Y-24456D01*
X202315Y-25227D01*
X202416Y-25998D01*
X202714Y-26716D01*
X203187Y-27333D01*
X203804Y-27806D01*
X204522Y-28104D01*
X205293Y-28205D01*
X206064Y-28104D01*
X206782Y-27806D01*
X207399Y-27333D01*
X207872Y-26716D01*
X208170Y-25998D01*
X208271Y-25227D01*
X208170Y-24456D01*
X207872Y-23738D01*
X207399Y-23121D01*
X206782Y-22648D01*
X206064Y-22350D01*
X205293Y-22249D01*
D02*
G37*
G36*
X19685Y-5863D02*
X17523Y-6033D01*
X15414Y-6539D01*
X13410Y-7369D01*
X11561Y-8503D01*
X9911Y-9911D01*
X8503Y-11561D01*
X7369Y-13410D01*
X6539Y-15414D01*
X6033Y-17523D01*
X5863Y-19685D01*
X6033Y-21847D01*
X6539Y-23956D01*
X7369Y-25960D01*
X8503Y-27810D01*
X9911Y-29459D01*
X11561Y-30867D01*
X13410Y-32001D01*
X15414Y-32831D01*
X17523Y-33337D01*
X19685Y-33507D01*
X21847Y-33337D01*
X23956Y-32831D01*
X25960Y-32001D01*
X27810Y-30867D01*
X29459Y-29459D01*
X30867Y-27810D01*
X32001Y-25960D01*
X32831Y-23956D01*
X33337Y-21847D01*
X33507Y-19685D01*
X33337Y-17523D01*
X32831Y-15414D01*
X32001Y-13410D01*
X30867Y-11561D01*
X29459Y-9911D01*
X27810Y-8503D01*
X25960Y-7369D01*
X23956Y-6539D01*
X21847Y-6033D01*
X19685Y-5863D01*
D02*
G37*
G36*
X200159Y-36232D02*
X199389Y-36334D01*
X198670Y-36631D01*
X198054Y-37105D01*
X197580Y-37721D01*
X197283Y-38440D01*
X197181Y-39211D01*
X197283Y-39981D01*
X197580Y-40700D01*
X198054Y-41317D01*
X198670Y-41790D01*
X199389Y-42087D01*
X200159Y-42189D01*
X200930Y-42087D01*
X201649Y-41790D01*
X202265Y-41317D01*
X202739Y-40700D01*
X203036Y-39981D01*
X203138Y-39211D01*
X203036Y-38440D01*
X202739Y-37721D01*
X202265Y-37105D01*
X201649Y-36631D01*
X200930Y-36334D01*
X200159Y-36232D01*
D02*
G37*
G36*
X251091Y-43645D02*
Y-47262D01*
X254707D01*
X254639Y-46743D01*
X254211Y-45710D01*
X253530Y-44822D01*
X252642Y-44141D01*
X251609Y-43713D01*
X251091Y-43645D01*
D02*
G37*
G36*
X249909D02*
X249391Y-43713D01*
X248358Y-44141D01*
X247470Y-44822D01*
X246789Y-45710D01*
X246361Y-46743D01*
X246293Y-47262D01*
X249909D01*
Y-43645D01*
D02*
G37*
G36*
X128776Y-49933D02*
X128005Y-50034D01*
X127286Y-50332D01*
X126670Y-50805D01*
X126577Y-50926D01*
X120097D01*
X120038Y-50848D01*
X119421Y-50375D01*
X118703Y-50078D01*
X117932Y-49976D01*
X117161Y-50078D01*
X116443Y-50375D01*
X115826Y-50848D01*
X115353Y-51465D01*
X115055Y-52184D01*
X114954Y-52954D01*
X115055Y-53725D01*
X115353Y-54443D01*
X115826Y-55060D01*
X116443Y-55534D01*
X117161Y-55831D01*
X117932Y-55933D01*
X118703Y-55831D01*
X119421Y-55534D01*
X120038Y-55060D01*
X120130Y-54940D01*
X126610D01*
X126670Y-55017D01*
X127286Y-55490D01*
X128005Y-55788D01*
X128776Y-55889D01*
X129546Y-55788D01*
X130265Y-55490D01*
X130881Y-55017D01*
X131355Y-54400D01*
X131652Y-53682D01*
X131754Y-52911D01*
X131652Y-52140D01*
X131355Y-51422D01*
X130881Y-50805D01*
X130265Y-50332D01*
X129546Y-50034D01*
X128776Y-49933D01*
D02*
G37*
G36*
X249909Y-48443D02*
X246293D01*
X246361Y-48961D01*
X246789Y-49994D01*
X247470Y-50882D01*
X248358Y-51563D01*
X249391Y-51991D01*
X249909Y-52059D01*
Y-48443D01*
D02*
G37*
G36*
X254707D02*
X251091D01*
Y-52059D01*
X251609Y-51991D01*
X252642Y-51563D01*
X253530Y-50882D01*
X254211Y-49994D01*
X254639Y-48961D01*
X254707Y-48443D01*
D02*
G37*
G36*
X251091Y-53645D02*
Y-57262D01*
X254707D01*
X254639Y-56743D01*
X254211Y-55710D01*
X253530Y-54822D01*
X252642Y-54141D01*
X251609Y-53713D01*
X251091Y-53645D01*
D02*
G37*
G36*
X249909D02*
X249391Y-53713D01*
X248358Y-54141D01*
X247470Y-54822D01*
X246789Y-55710D01*
X246361Y-56743D01*
X246293Y-57262D01*
X249909D01*
Y-53645D01*
D02*
G37*
G36*
Y-58443D02*
X246293D01*
X246361Y-58961D01*
X246789Y-59994D01*
X247470Y-60882D01*
X248358Y-61563D01*
X249391Y-61991D01*
X249909Y-62059D01*
Y-58443D01*
D02*
G37*
G36*
X254707D02*
X251091D01*
Y-62059D01*
X251609Y-61991D01*
X252642Y-61563D01*
X253530Y-60882D01*
X254211Y-59994D01*
X254639Y-58961D01*
X254707Y-58443D01*
D02*
G37*
G36*
X34419Y-54152D02*
X30581D01*
X29823Y-54252D01*
X29116Y-54545D01*
X28510Y-55010D01*
X28045Y-55616D01*
X27752Y-56323D01*
X27652Y-57081D01*
Y-60919D01*
X27752Y-61677D01*
X28045Y-62384D01*
X28510Y-62990D01*
X29116Y-63455D01*
X29823Y-63748D01*
X30581Y-63848D01*
X30988D01*
X31087Y-64348D01*
X30060Y-64773D01*
X29049Y-65549D01*
X28273Y-66560D01*
X27786Y-67737D01*
X27697Y-68410D01*
X32500D01*
X37303D01*
X37214Y-67737D01*
X36726Y-66560D01*
X35951Y-65549D01*
X34940Y-64773D01*
X33913Y-64348D01*
X34012Y-63848D01*
X34419D01*
X35177Y-63748D01*
X35884Y-63455D01*
X36490Y-62990D01*
X36955Y-62384D01*
X37248Y-61677D01*
X37348Y-60919D01*
Y-57081D01*
X37248Y-56323D01*
X36955Y-55616D01*
X36490Y-55010D01*
X35884Y-54545D01*
X35177Y-54252D01*
X34419Y-54152D01*
D02*
G37*
G36*
X134595Y-60985D02*
X111042D01*
X110274Y-61138D01*
X109623Y-61573D01*
X104848Y-66348D01*
X104724Y-66331D01*
X103954Y-66433D01*
X103235Y-66730D01*
X102619Y-67204D01*
X102145Y-67821D01*
X101848Y-68539D01*
X101746Y-69310D01*
X101848Y-70081D01*
X102145Y-70799D01*
X102619Y-71416D01*
X103235Y-71889D01*
X103954Y-72186D01*
X104724Y-72288D01*
X105495Y-72186D01*
X106213Y-71889D01*
X106830Y-71416D01*
X107304Y-70799D01*
X107601Y-70081D01*
X107703Y-69310D01*
X107686Y-69186D01*
X111873Y-64999D01*
X133763D01*
X137733Y-68969D01*
X137717Y-69093D01*
X137819Y-69864D01*
X138116Y-70582D01*
X138590Y-71199D01*
X139206Y-71672D01*
X139925Y-71970D01*
X140696Y-72071D01*
X141466Y-71970D01*
X142185Y-71672D01*
X142801Y-71199D01*
X143275Y-70582D01*
X143572Y-69864D01*
X143674Y-69093D01*
X143572Y-68322D01*
X143275Y-67604D01*
X142801Y-66987D01*
X142185Y-66514D01*
X141466Y-66216D01*
X140696Y-66115D01*
X140572Y-66131D01*
X136014Y-61573D01*
X135363Y-61138D01*
X134595Y-60985D01*
D02*
G37*
G36*
X250500Y-63583D02*
X249395Y-63729D01*
X248366Y-64155D01*
X247481Y-64833D01*
X246803Y-65718D01*
X246377Y-66747D01*
X246231Y-67852D01*
X246377Y-68957D01*
X246803Y-69986D01*
X247481Y-70871D01*
X248366Y-71549D01*
X249395Y-71975D01*
X250500Y-72121D01*
X251605Y-71975D01*
X252634Y-71549D01*
X253519Y-70871D01*
X254197Y-69986D01*
X254623Y-68957D01*
X254769Y-67852D01*
X254623Y-66747D01*
X254197Y-65718D01*
X253519Y-64833D01*
X252634Y-64155D01*
X251605Y-63729D01*
X250500Y-63583D01*
D02*
G37*
G36*
X37303Y-69591D02*
X33091D01*
Y-73803D01*
X33763Y-73714D01*
X34940Y-73226D01*
X35951Y-72451D01*
X36726Y-71440D01*
X37214Y-70263D01*
X37303Y-69591D01*
D02*
G37*
G36*
X31909D02*
X27697D01*
X27786Y-70263D01*
X28273Y-71440D01*
X29049Y-72451D01*
X30060Y-73226D01*
X31237Y-73714D01*
X31909Y-73803D01*
Y-69591D01*
D02*
G37*
G36*
X120151Y-67888D02*
X119381Y-67989D01*
X118662Y-68287D01*
X118045Y-68760D01*
X117572Y-69377D01*
X117275Y-70095D01*
X117173Y-70866D01*
X117275Y-71636D01*
X117572Y-72355D01*
X118045Y-72972D01*
X118662Y-73445D01*
X119381Y-73743D01*
X120151Y-73844D01*
X120922Y-73743D01*
X121641Y-73445D01*
X122257Y-72972D01*
X122731Y-72355D01*
X122797Y-72194D01*
X123338D01*
X123405Y-72355D01*
X123878Y-72972D01*
X124495Y-73445D01*
X125213Y-73743D01*
X125984Y-73844D01*
X126755Y-73743D01*
X127473Y-73445D01*
X128090Y-72972D01*
X128563Y-72355D01*
X128861Y-71637D01*
X128963Y-70866D01*
X128861Y-70095D01*
X128563Y-69377D01*
X128090Y-68760D01*
X127473Y-68287D01*
X126755Y-67989D01*
X125984Y-67888D01*
X125213Y-67989D01*
X124495Y-68287D01*
X123878Y-68760D01*
X123405Y-69377D01*
X123338Y-69538D01*
X122797D01*
X122731Y-69377D01*
X122257Y-68760D01*
X121641Y-68287D01*
X120922Y-67989D01*
X120151Y-67888D01*
D02*
G37*
G36*
X254732Y-73620D02*
X246268D01*
Y-82084D01*
X254732D01*
Y-73620D01*
D02*
G37*
G36*
X183903Y-83127D02*
X183132Y-83228D01*
X182413Y-83526D01*
X181797Y-83999D01*
X181323Y-84616D01*
X181026Y-85334D01*
X180924Y-86105D01*
X181026Y-86876D01*
X181323Y-87594D01*
X181797Y-88211D01*
X182413Y-88684D01*
X183132Y-88982D01*
X183903Y-89083D01*
X184674Y-88982D01*
X185392Y-88684D01*
X186009Y-88211D01*
X186482Y-87594D01*
X186779Y-86876D01*
X186881Y-86105D01*
X186779Y-85334D01*
X186482Y-84616D01*
X186009Y-83999D01*
X185392Y-83526D01*
X184674Y-83228D01*
X183903Y-83127D01*
D02*
G37*
G36*
X112811Y-82846D02*
X112040Y-82948D01*
X111322Y-83245D01*
X110705Y-83719D01*
X110232Y-84336D01*
X109935Y-85054D01*
X109833Y-85825D01*
X109935Y-86595D01*
X110232Y-87314D01*
X110705Y-87931D01*
X111322Y-88404D01*
X112040Y-88701D01*
X112811Y-88803D01*
X113582Y-88701D01*
X114300Y-88404D01*
X114917Y-87931D01*
X115372Y-87338D01*
X131655D01*
X132788Y-88472D01*
X132788Y-88472D01*
X133279Y-88800D01*
X133858Y-88915D01*
X137034D01*
X137489Y-89508D01*
X138105Y-89981D01*
X138824Y-90278D01*
X139594Y-90380D01*
X140365Y-90278D01*
X141084Y-89981D01*
X141700Y-89508D01*
X142174Y-88891D01*
X142471Y-88172D01*
X142573Y-87402D01*
X142471Y-86631D01*
X142174Y-85913D01*
X141700Y-85296D01*
X141084Y-84822D01*
X140365Y-84525D01*
X139594Y-84423D01*
X138824Y-84525D01*
X138105Y-84822D01*
X137489Y-85296D01*
X137034Y-85888D01*
X134485D01*
X133352Y-84755D01*
X132861Y-84427D01*
X132281Y-84311D01*
X132281Y-84311D01*
X115372D01*
X114917Y-83719D01*
X114300Y-83245D01*
X113582Y-82948D01*
X112811Y-82846D01*
D02*
G37*
G36*
X190551Y-85211D02*
X189780Y-85312D01*
X189062Y-85610D01*
X188445Y-86083D01*
X187972Y-86700D01*
X187674Y-87418D01*
X187573Y-88189D01*
X187674Y-88960D01*
X187972Y-89678D01*
X188445Y-90295D01*
X189062Y-90768D01*
X189780Y-91066D01*
X190551Y-91167D01*
X191322Y-91066D01*
X192040Y-90768D01*
X192657Y-90295D01*
X193130Y-89678D01*
X193428Y-88960D01*
X193529Y-88189D01*
X193428Y-87418D01*
X193130Y-86700D01*
X192657Y-86083D01*
X192040Y-85610D01*
X191322Y-85312D01*
X190551Y-85211D01*
D02*
G37*
G36*
X178315Y-99869D02*
X177544Y-99971D01*
X176826Y-100268D01*
X176209Y-100741D01*
X175736Y-101358D01*
X175438Y-102076D01*
X175337Y-102847D01*
X175339Y-102867D01*
X174873Y-103154D01*
X174326Y-102928D01*
X173556Y-102826D01*
X172785Y-102928D01*
X172066Y-103226D01*
X171450Y-103699D01*
X171132Y-104113D01*
X170973Y-104148D01*
X170575Y-104116D01*
X170540Y-104098D01*
X170163Y-103606D01*
X169546Y-103133D01*
X168827Y-102836D01*
X168057Y-102734D01*
X167286Y-102836D01*
X166568Y-103133D01*
X165951Y-103606D01*
X165477Y-104223D01*
X165180Y-104941D01*
X165078Y-105712D01*
X165176Y-106453D01*
X153538Y-118091D01*
X117515D01*
X116936Y-118206D01*
X116445Y-118534D01*
X116445Y-118534D01*
X114136Y-120843D01*
X113808Y-121334D01*
X113693Y-121914D01*
X113693Y-121914D01*
Y-125300D01*
X113693Y-125300D01*
X113808Y-125879D01*
X114136Y-126370D01*
X116624Y-128858D01*
X116527Y-129599D01*
X116628Y-130370D01*
X116926Y-131088D01*
X117399Y-131705D01*
X118016Y-132178D01*
X118100Y-132213D01*
Y-132754D01*
X117812Y-132874D01*
X117196Y-133347D01*
X116722Y-133964D01*
X116425Y-134682D01*
X116323Y-135453D01*
X116425Y-136224D01*
X116722Y-136942D01*
X117196Y-137559D01*
X117812Y-138032D01*
X118531Y-138330D01*
X119301Y-138431D01*
X120072Y-138330D01*
X120791Y-138032D01*
X121407Y-137559D01*
X121881Y-136942D01*
X122178Y-136224D01*
X122280Y-135453D01*
X122182Y-134712D01*
X127822Y-129072D01*
X158268D01*
X158268Y-129072D01*
X158847Y-128957D01*
X159338Y-128629D01*
X179385Y-108582D01*
X179385Y-108582D01*
X179713Y-108091D01*
X179829Y-107512D01*
X179829Y-107512D01*
Y-105408D01*
X180421Y-104953D01*
X180894Y-104336D01*
X181192Y-103618D01*
X181293Y-102847D01*
X181192Y-102076D01*
X180894Y-101358D01*
X180421Y-100741D01*
X179804Y-100268D01*
X179086Y-99971D01*
X178315Y-99869D01*
D02*
G37*
G36*
X154135Y-98964D02*
X153365Y-99066D01*
X152646Y-99363D01*
X152029Y-99836D01*
X151556Y-100453D01*
X151259Y-101172D01*
X151157Y-101942D01*
X151259Y-102713D01*
X151556Y-103431D01*
X152029Y-104048D01*
X152646Y-104522D01*
X153365Y-104819D01*
X154135Y-104921D01*
X154906Y-104819D01*
X155624Y-104522D01*
X156241Y-104048D01*
X156714Y-103431D01*
X157012Y-102713D01*
X157114Y-101942D01*
X157012Y-101172D01*
X156714Y-100453D01*
X156241Y-99836D01*
X155624Y-99363D01*
X154906Y-99066D01*
X154135Y-98964D01*
D02*
G37*
G36*
X210105Y-111558D02*
X209335Y-111660D01*
X208616Y-111957D01*
X208000Y-112431D01*
X207526Y-113047D01*
X207229Y-113766D01*
X207127Y-114537D01*
X207229Y-115307D01*
X207526Y-116026D01*
X208000Y-116642D01*
X208616Y-117116D01*
X209335Y-117413D01*
X210105Y-117515D01*
X210876Y-117413D01*
X211595Y-117116D01*
X212211Y-116642D01*
X212685Y-116026D01*
X212982Y-115307D01*
X213084Y-114537D01*
X212982Y-113766D01*
X212685Y-113047D01*
X212211Y-112431D01*
X211595Y-111957D01*
X210876Y-111660D01*
X210105Y-111558D01*
D02*
G37*
G36*
X209970Y-118698D02*
X209199Y-118799D01*
X208481Y-119097D01*
X207864Y-119570D01*
X207391Y-120187D01*
X207093Y-120905D01*
X206992Y-121676D01*
X207093Y-122447D01*
X207391Y-123165D01*
X207864Y-123782D01*
X208481Y-124255D01*
X209199Y-124553D01*
X209970Y-124654D01*
X210741Y-124553D01*
X211459Y-124255D01*
X212076Y-123782D01*
X212549Y-123165D01*
X212847Y-122447D01*
X212948Y-121676D01*
X212847Y-120905D01*
X212549Y-120187D01*
X212076Y-119570D01*
X211459Y-119097D01*
X210741Y-118799D01*
X209970Y-118698D01*
D02*
G37*
G36*
X246456Y-113616D02*
X245197Y-113782D01*
X244023Y-114268D01*
X243016Y-115041D01*
X242243Y-116048D01*
X241757Y-117221D01*
X241591Y-118480D01*
X241757Y-119739D01*
X242243Y-120913D01*
X243016Y-121920D01*
X244023Y-122693D01*
X245046Y-123117D01*
X244946Y-123617D01*
X244536D01*
X243774Y-123717D01*
X243064Y-124011D01*
X242454Y-124479D01*
X241986Y-125089D01*
X241692Y-125799D01*
X241592Y-126561D01*
Y-127890D01*
X246456D01*
X251319D01*
Y-126561D01*
X251219Y-125799D01*
X250925Y-125089D01*
X250457Y-124479D01*
X249847Y-124011D01*
X249137Y-123717D01*
X248375Y-123617D01*
X247965D01*
X247865Y-123117D01*
X248888Y-122693D01*
X249895Y-121920D01*
X250668Y-120913D01*
X251154Y-119739D01*
X251320Y-118480D01*
X251154Y-117221D01*
X250668Y-116048D01*
X249895Y-115041D01*
X248888Y-114268D01*
X247715Y-113782D01*
X246456Y-113616D01*
D02*
G37*
G36*
X251319Y-129071D02*
X247046D01*
Y-133344D01*
X248375D01*
X249137Y-133244D01*
X249847Y-132950D01*
X250457Y-132482D01*
X250925Y-131872D01*
X251219Y-131162D01*
X251319Y-130400D01*
Y-129071D01*
D02*
G37*
G36*
X245865D02*
X241592D01*
Y-130400D01*
X241692Y-131162D01*
X241986Y-131872D01*
X242454Y-132482D01*
X243064Y-132950D01*
X243774Y-133244D01*
X244536Y-133344D01*
X245865D01*
Y-129071D01*
D02*
G37*
G36*
X35919Y-119652D02*
X32081D01*
X31323Y-119752D01*
X30616Y-120045D01*
X30010Y-120510D01*
X29544Y-121116D01*
X29252Y-121823D01*
X29152Y-122581D01*
Y-126419D01*
X29252Y-127177D01*
X29544Y-127884D01*
X30010Y-128490D01*
X30616Y-128955D01*
X31323Y-129248D01*
X32081Y-129348D01*
X32529D01*
X32629Y-129848D01*
X31568Y-130287D01*
X30560Y-131060D01*
X29787Y-132068D01*
X29301Y-133241D01*
X29136Y-134500D01*
X29301Y-135759D01*
X29787Y-136932D01*
X30560Y-137940D01*
X31568Y-138713D01*
X32741Y-139199D01*
X34000Y-139365D01*
X35259Y-139199D01*
X36432Y-138713D01*
X37440Y-137940D01*
X38213Y-136932D01*
X38699Y-135759D01*
X38864Y-134500D01*
X38699Y-133241D01*
X38213Y-132068D01*
X37440Y-131060D01*
X36432Y-130287D01*
X35372Y-129848D01*
X35471Y-129348D01*
X35919D01*
X36677Y-129248D01*
X37384Y-128955D01*
X37990Y-128490D01*
X38456Y-127884D01*
X38748Y-127177D01*
X38848Y-126419D01*
Y-122581D01*
X38748Y-121823D01*
X38456Y-121116D01*
X37990Y-120510D01*
X37384Y-120045D01*
X36677Y-119752D01*
X35919Y-119652D01*
D02*
G37*
G36*
X246937Y-137041D02*
Y-141253D01*
X251149D01*
X251060Y-140580D01*
X250573Y-139403D01*
X249797Y-138393D01*
X248786Y-137617D01*
X247609Y-137129D01*
X246937Y-137041D01*
D02*
G37*
G36*
X245756Y-137041D02*
X245083Y-137129D01*
X243906Y-137617D01*
X242896Y-138393D01*
X242120Y-139403D01*
X241632Y-140580D01*
X241544Y-141253D01*
X245756D01*
Y-137041D01*
D02*
G37*
G36*
X218728Y-139041D02*
X217957Y-139142D01*
X217239Y-139440D01*
X216622Y-139913D01*
X216149Y-140530D01*
X215851Y-141248D01*
X215750Y-142019D01*
X215851Y-142790D01*
X216149Y-143508D01*
X216622Y-144125D01*
X217239Y-144598D01*
X217957Y-144896D01*
X218728Y-144997D01*
X219499Y-144896D01*
X220217Y-144598D01*
X220834Y-144125D01*
X221307Y-143508D01*
X221605Y-142790D01*
X221706Y-142019D01*
X221605Y-141248D01*
X221307Y-140530D01*
X220834Y-139913D01*
X220217Y-139440D01*
X219499Y-139142D01*
X218728Y-139041D01*
D02*
G37*
G36*
X167106Y-139426D02*
X166181Y-139548D01*
X165319Y-139905D01*
X164579Y-140473D01*
X164011Y-141213D01*
X163654Y-142075D01*
X163532Y-143000D01*
X163654Y-143925D01*
X164011Y-144787D01*
X164579Y-145527D01*
X165319Y-146095D01*
X166181Y-146452D01*
X167106Y-146574D01*
X168031Y-146452D01*
X168893Y-146095D01*
X169633Y-145527D01*
X170201Y-144787D01*
X170558Y-143925D01*
X170680Y-143000D01*
X170558Y-142075D01*
X170201Y-141213D01*
X169633Y-140473D01*
X168893Y-139905D01*
X168031Y-139548D01*
X167106Y-139426D01*
D02*
G37*
G36*
X147894D02*
X146969Y-139548D01*
X146107Y-139905D01*
X145367Y-140473D01*
X144799Y-141213D01*
X144442Y-142075D01*
X144320Y-143000D01*
X144442Y-143925D01*
X144799Y-144787D01*
X145367Y-145527D01*
X146107Y-146095D01*
X146969Y-146452D01*
X147894Y-146574D01*
X148819Y-146452D01*
X149681Y-146095D01*
X150421Y-145527D01*
X150989Y-144787D01*
X151346Y-143925D01*
X151468Y-143000D01*
X151346Y-142075D01*
X150989Y-141213D01*
X150421Y-140473D01*
X149681Y-139905D01*
X148819Y-139548D01*
X147894Y-139426D01*
D02*
G37*
G36*
X35919Y-142999D02*
X34591D01*
Y-147273D01*
X38864D01*
Y-145944D01*
X38763Y-145182D01*
X38469Y-144472D01*
X38001Y-143862D01*
X37391Y-143394D01*
X36681Y-143100D01*
X35919Y-142999D01*
D02*
G37*
G36*
X33409D02*
X32081D01*
X31319Y-143100D01*
X30608Y-143394D01*
X29999Y-143862D01*
X29531Y-144472D01*
X29237Y-145182D01*
X29136Y-145944D01*
Y-147273D01*
X33409D01*
Y-142999D01*
D02*
G37*
G36*
X251149Y-142434D02*
X246346D01*
X241544D01*
X241632Y-143107D01*
X242120Y-144284D01*
X242896Y-145294D01*
X243906Y-146070D01*
X244934Y-146496D01*
X244834Y-146996D01*
X244427D01*
X243669Y-147095D01*
X242963Y-147388D01*
X242356Y-147853D01*
X241891Y-148460D01*
X241598Y-149166D01*
X241498Y-149924D01*
Y-153763D01*
X241598Y-154521D01*
X241891Y-155227D01*
X242356Y-155834D01*
X242963Y-156299D01*
X243669Y-156592D01*
X244427Y-156691D01*
X248266D01*
X249024Y-156592D01*
X249730Y-156299D01*
X250337Y-155834D01*
X250802Y-155227D01*
X251095Y-154521D01*
X251194Y-153763D01*
Y-149924D01*
X251095Y-149166D01*
X250802Y-148460D01*
X250337Y-147853D01*
X249730Y-147388D01*
X249024Y-147095D01*
X248266Y-146996D01*
X247858D01*
X247759Y-146496D01*
X248786Y-146070D01*
X249797Y-145294D01*
X250573Y-144284D01*
X251060Y-143107D01*
X251149Y-142434D01*
D02*
G37*
G36*
X38864Y-148454D02*
X34000D01*
X29136D01*
Y-149783D01*
X29237Y-150545D01*
X29531Y-151255D01*
X29999Y-151865D01*
X30608Y-152332D01*
X31319Y-152627D01*
X32081Y-152727D01*
X32491D01*
X32590Y-153227D01*
X31568Y-153650D01*
X30560Y-154423D01*
X29787Y-155431D01*
X29301Y-156604D01*
X29136Y-157863D01*
X29301Y-159122D01*
X29787Y-160295D01*
X30560Y-161303D01*
X31568Y-162076D01*
X32741Y-162562D01*
X34000Y-162728D01*
X35259Y-162562D01*
X36432Y-162076D01*
X37440Y-161303D01*
X38213Y-160295D01*
X38699Y-159122D01*
X38864Y-157863D01*
X38699Y-156604D01*
X38213Y-155431D01*
X37440Y-154423D01*
X36432Y-153650D01*
X35410Y-153227D01*
X35509Y-152727D01*
X35919D01*
X36681Y-152627D01*
X37391Y-152332D01*
X38001Y-151865D01*
X38469Y-151255D01*
X38763Y-150545D01*
X38864Y-149783D01*
Y-148454D01*
D02*
G37*
G36*
X215494Y-162872D02*
X207030D01*
Y-171337D01*
X215494D01*
Y-162872D01*
D02*
G37*
G36*
X201262Y-162836D02*
X200157Y-162981D01*
X199127Y-163407D01*
X198243Y-164086D01*
X197565Y-164970D01*
X197139Y-165999D01*
X196993Y-167104D01*
X197139Y-168209D01*
X197565Y-169239D01*
X198243Y-170123D01*
X199127Y-170801D01*
X200157Y-171228D01*
X201262Y-171373D01*
X202367Y-171228D01*
X203396Y-170801D01*
X204280Y-170123D01*
X204959Y-169239D01*
X205385Y-168209D01*
X205531Y-167104D01*
X205385Y-165999D01*
X204959Y-164970D01*
X204280Y-164086D01*
X203396Y-163407D01*
X202367Y-162981D01*
X201262Y-162836D01*
D02*
G37*
G36*
X176174Y-82413D02*
X175404Y-82515D01*
X174685Y-82812D01*
X174069Y-83285D01*
X173595Y-83902D01*
X173298Y-84621D01*
X173196Y-85391D01*
X173298Y-86162D01*
X173595Y-86881D01*
X174069Y-87497D01*
X174661Y-87952D01*
Y-91135D01*
X174661Y-91135D01*
X174776Y-91714D01*
X175104Y-92205D01*
X189749Y-106849D01*
Y-163150D01*
X189128Y-163407D01*
X188243Y-164086D01*
X187565Y-164970D01*
X187138Y-165999D01*
X186993Y-167104D01*
X187138Y-168209D01*
X187565Y-169239D01*
X188243Y-170123D01*
X189128Y-170801D01*
X190157Y-171228D01*
X191262Y-171373D01*
X192367Y-171228D01*
X193396Y-170801D01*
X194280Y-170123D01*
X194959Y-169239D01*
X195385Y-168209D01*
X195531Y-167104D01*
X195385Y-165999D01*
X194959Y-164970D01*
X194280Y-164086D01*
X193396Y-163407D01*
X192775Y-163150D01*
Y-106222D01*
X192660Y-105643D01*
X192332Y-105152D01*
X192332Y-105152D01*
X177688Y-90508D01*
Y-87952D01*
X178280Y-87497D01*
X178754Y-86881D01*
X179051Y-86162D01*
X179153Y-85391D01*
X179051Y-84621D01*
X178754Y-83902D01*
X178280Y-83285D01*
X177664Y-82812D01*
X176945Y-82515D01*
X176174Y-82413D01*
D02*
G37*
G36*
X191852Y-172897D02*
Y-176514D01*
X195469D01*
X195401Y-175995D01*
X194973Y-174962D01*
X194292Y-174075D01*
X193404Y-173394D01*
X192371Y-172966D01*
X191852Y-172897D01*
D02*
G37*
G36*
X190671D02*
X190153Y-172966D01*
X189120Y-173394D01*
X188232Y-174075D01*
X187551Y-174962D01*
X187123Y-175995D01*
X187055Y-176514D01*
X190671D01*
Y-172897D01*
D02*
G37*
G36*
X195469Y-177695D02*
X191852D01*
Y-181311D01*
X192371Y-181243D01*
X193404Y-180815D01*
X194292Y-180134D01*
X194973Y-179247D01*
X195401Y-178213D01*
X195469Y-177695D01*
D02*
G37*
G36*
X190671D02*
X187055D01*
X187123Y-178213D01*
X187551Y-179247D01*
X188232Y-180134D01*
X189120Y-180815D01*
X190153Y-181243D01*
X190671Y-181311D01*
Y-177695D01*
D02*
G37*
G36*
X211262Y-172836D02*
X210157Y-172981D01*
X209127Y-173407D01*
X208243Y-174086D01*
X207565Y-174970D01*
X207138Y-175999D01*
X206993Y-177104D01*
X207138Y-178209D01*
X207565Y-179239D01*
X208243Y-180123D01*
X209127Y-180801D01*
X210157Y-181228D01*
X211262Y-181373D01*
X212367Y-181228D01*
X213396Y-180801D01*
X214280Y-180123D01*
X214959Y-179239D01*
X215385Y-178209D01*
X215531Y-177104D01*
X215385Y-175999D01*
X214959Y-174970D01*
X214280Y-174086D01*
X213396Y-173407D01*
X212367Y-172981D01*
X211262Y-172836D01*
D02*
G37*
G36*
X201262D02*
X200157Y-172981D01*
X199127Y-173407D01*
X198243Y-174086D01*
X197565Y-174970D01*
X197139Y-175999D01*
X196993Y-177104D01*
X197139Y-178209D01*
X197565Y-179239D01*
X198243Y-180123D01*
X199127Y-180801D01*
X200157Y-181228D01*
X201262Y-181373D01*
X202367Y-181228D01*
X203396Y-180801D01*
X204280Y-180123D01*
X204959Y-179239D01*
X205385Y-178209D01*
X205531Y-177104D01*
X205385Y-175999D01*
X204959Y-174970D01*
X204280Y-174086D01*
X203396Y-173407D01*
X202367Y-172981D01*
X201262Y-172836D01*
D02*
G37*
G36*
X19685Y-163343D02*
X17523Y-163513D01*
X15414Y-164020D01*
X13410Y-164850D01*
X11561Y-165983D01*
X9911Y-167392D01*
X8503Y-169041D01*
X7369Y-170890D01*
X6539Y-172894D01*
X6033Y-175003D01*
X5863Y-177165D01*
X6033Y-179328D01*
X6539Y-181437D01*
X7369Y-183440D01*
X8503Y-185290D01*
X9911Y-186939D01*
X11561Y-188348D01*
X13410Y-189481D01*
X15414Y-190311D01*
X17523Y-190817D01*
X19685Y-190988D01*
X21847Y-190817D01*
X23956Y-190311D01*
X25960Y-189481D01*
X27810Y-188348D01*
X29459Y-186939D01*
X30867Y-185290D01*
X32001Y-183440D01*
X32831Y-181437D01*
X33337Y-179328D01*
X33507Y-177165D01*
X33337Y-175003D01*
X32831Y-172894D01*
X32001Y-170890D01*
X30867Y-169041D01*
X29459Y-167392D01*
X27810Y-165983D01*
X25960Y-164850D01*
X23956Y-164020D01*
X21847Y-163513D01*
X19685Y-163343D01*
D02*
G37*
G36*
X244000Y-165178D02*
X241838Y-165348D01*
X239729Y-165854D01*
X237725Y-166684D01*
X235876Y-167818D01*
X234226Y-169226D01*
X232818Y-170876D01*
X231684Y-172725D01*
X230854Y-174729D01*
X230348Y-176838D01*
X230178Y-179000D01*
X230348Y-181162D01*
X230854Y-183271D01*
X231684Y-185275D01*
X232818Y-187124D01*
X234226Y-188774D01*
X235876Y-190182D01*
X237725Y-191316D01*
X239729Y-192146D01*
X241838Y-192652D01*
X244000Y-192822D01*
X246162Y-192652D01*
X248271Y-192146D01*
X250275Y-191316D01*
X252124Y-190182D01*
X253774Y-188774D01*
X255182Y-187124D01*
X256316Y-185275D01*
X257146Y-183271D01*
X257652Y-181162D01*
X257822Y-179000D01*
X257652Y-176838D01*
X257146Y-174729D01*
X256316Y-172725D01*
X255182Y-170876D01*
X253774Y-169226D01*
X252124Y-167818D01*
X250275Y-166684D01*
X248271Y-165854D01*
X246162Y-165348D01*
X244000Y-165178D01*
D02*
G37*
%LPD*%
D10*
X33731Y-147625D02*
X39941Y-153835D01*
X28917Y-142811D02*
X33731Y-147625D01*
X38236Y-143119D01*
X27213Y-154143D02*
X33731Y-147625D01*
X25058Y-75583D02*
X36081Y-64560D01*
X28346Y-65354D02*
X39370Y-76378D01*
X119505Y-129599D02*
Y-129599D01*
X115206Y-125300D02*
Y-121914D01*
Y-125300D02*
X119505Y-129599D01*
X112811Y-85825D02*
X132281D01*
X133858Y-87402D01*
X139594D01*
X117515Y-119604D02*
X154165D01*
X115206Y-121914D02*
X117515Y-119604D01*
X154165D02*
X168057Y-105712D01*
X158268Y-127559D02*
X178315Y-107512D01*
X127195Y-127559D02*
X158268D01*
X178315Y-107512D02*
Y-102847D01*
X119301Y-135453D02*
X127195Y-127559D01*
X119301Y-123711D02*
X155650D01*
X173556Y-105805D01*
X176174Y-91135D02*
Y-85391D01*
Y-91135D02*
X191262Y-106222D01*
Y-167104D02*
Y-106222D01*
X117932Y-52954D02*
X117954Y-52933D01*
X128754D02*
X128776Y-52911D01*
X138363Y-22500D02*
X138385Y-22479D01*
Y-12651D01*
D45*
X134595Y-62992D02*
X140696Y-69093D01*
X104724Y-69310D02*
X111042Y-62992D01*
X134595D01*
X117954Y-52933D02*
X128754D01*
D48*
X246346Y-141843D02*
D03*
X32500Y-69000D02*
D03*
X34000Y-134500D02*
D03*
X115000Y-22500D02*
D03*
X246456Y-118480D02*
D03*
X138363Y-22500D02*
D03*
X34000Y-157863D02*
D03*
D49*
X246346Y-151844D02*
D03*
X32500Y-59000D02*
D03*
X34000Y-124500D02*
D03*
X246456Y-128480D02*
D03*
X34000Y-147863D02*
D03*
D50*
X125000Y-22500D02*
D03*
X148363D02*
D03*
D51*
X147894Y-143000D02*
D03*
X167106D02*
D03*
D52*
X211262Y-167104D02*
D03*
D53*
Y-177104D02*
D03*
X201262Y-167104D02*
D03*
Y-177104D02*
D03*
X191262Y-167104D02*
D03*
Y-177104D02*
D03*
X250500Y-47852D02*
D03*
Y-57852D02*
D03*
Y-67852D02*
D03*
D54*
Y-77852D02*
D03*
D55*
X19685Y-19685D02*
D03*
X248000Y-16000D02*
D03*
X244000Y-179000D02*
D03*
X19685Y-177165D02*
D03*
D56*
X182677Y-67716D02*
D03*
X61975Y-129796D02*
D03*
X44586Y-129874D02*
D03*
X185574Y-110136D02*
D03*
X225197Y-141732D02*
D03*
X238583Y-97638D02*
D03*
X192126Y-46457D02*
D03*
X119685Y-30709D02*
D03*
X131496Y-41732D02*
D03*
X144882Y-54331D02*
D03*
X151181Y-74803D02*
D03*
X210105Y-114537D02*
D03*
X209936Y-128240D02*
D03*
X209970Y-121676D02*
D03*
X216535Y-61417D02*
D03*
X211811Y-108661D02*
D03*
X200159Y-39211D02*
D03*
X206102Y-13240D02*
D03*
X179646Y-20656D02*
D03*
X183903Y-86105D02*
D03*
X190551Y-88189D02*
D03*
X176174Y-85391D02*
D03*
X168057Y-105712D02*
D03*
X173556Y-105805D02*
D03*
X178315Y-102847D02*
D03*
X120151Y-70866D02*
D03*
X139594Y-87402D02*
D03*
X154135Y-101942D02*
D03*
X112811Y-85825D02*
D03*
X113012Y-80859D02*
D03*
X104724Y-69310D02*
D03*
X120923Y-97526D02*
D03*
X128275Y-97767D02*
D03*
X125984Y-70866D02*
D03*
X134066Y-115169D02*
D03*
X119301Y-135453D02*
D03*
Y-123711D02*
D03*
X119505Y-129599D02*
D03*
X55905Y-154331D02*
D03*
X87527Y-66210D02*
D03*
Y-73297D02*
D03*
Y-59123D02*
D03*
X87178Y-123940D02*
D03*
X87527Y-80383D02*
D03*
X80440Y-52037D02*
D03*
X87527D02*
D03*
X80440Y-59123D02*
D03*
X55118Y-104724D02*
D03*
X218728Y-142019D02*
D03*
X128776Y-52911D02*
D03*
X117932Y-52954D02*
D03*
X138385Y-12651D02*
D03*
X205293Y-25227D02*
D03*
X80440Y-73297D02*
D03*
Y-80383D02*
D03*
Y-66210D02*
D03*
X88967Y-160095D02*
D03*
X142526Y-102000D02*
D03*
X153852Y-162541D02*
D03*
X160955D02*
D03*
X140696Y-69093D02*
D03*
X111617Y-119097D02*
D03*
X73779Y-146186D02*
D03*
X181376Y-35050D02*
D03*
M02*
