G04*
G04 #@! TF.GenerationSoftware,Altium Limited,Altium Designer,20.2.5 (213)*
G04*
G04 Layer_Color=16777215*
%FSLAX25Y25*%
%MOIN*%
G70*
G04*
G04 #@! TF.SameCoordinates,1BF23072-F1D9-47F9-9BBB-D8FDC2CF676F*
G04*
G04*
G04 #@! TF.FilePolarity,Positive*
G04*
G01*
G75*
%ADD10C,0.01500*%
%ADD11C,0.00100*%
%ADD12C,0.01000*%
%ADD13C,0.00600*%
D10*
X706170Y-203386D02*
Y-107386D01*
X616758Y-131386D02*
X706170D01*
X616758Y-143386D02*
X706170D01*
X616758Y-155386D02*
X706170D01*
X616758Y-167386D02*
X706170D01*
X616758Y-179386D02*
X706170D01*
X616758Y-191386D02*
X706170D01*
X616758Y-203386D02*
X706170D01*
X616758D02*
Y-107386D01*
X567480Y-131386D02*
X616758D01*
X567480Y-143386D02*
X616758D01*
X567480Y-155386D02*
X616758D01*
X567480Y-167386D02*
X616758D01*
X567480Y-179386D02*
X616758D01*
X567480Y-191386D02*
X616758D01*
X567480Y-203386D02*
X616758D01*
X567480D02*
Y-107386D01*
X516088Y-131386D02*
X567480D01*
X516088Y-143386D02*
X567480D01*
X516088Y-155386D02*
X567480D01*
X516088Y-167386D02*
X567480D01*
X516088Y-179386D02*
X567480D01*
X516088Y-191386D02*
X567480D01*
X516088Y-203386D02*
X567480D01*
X516088D02*
Y-107386D01*
X449842Y-131386D02*
X516088D01*
X449842Y-143386D02*
X516088D01*
X449842Y-155386D02*
X516088D01*
X449842Y-167386D02*
X516088D01*
X449842Y-179386D02*
X516088D01*
X449842Y-191386D02*
X516088D01*
X449842Y-203386D02*
X516088D01*
X449842D02*
Y-107386D01*
X373369Y-131386D02*
X449842D01*
X373369Y-143386D02*
X449842D01*
X373369Y-155386D02*
X449842D01*
X373369Y-167386D02*
X449842D01*
X373369Y-179386D02*
X449842D01*
X373369Y-191386D02*
X449842D01*
X373369Y-203386D02*
X449842D01*
X373369D02*
Y-107386D01*
X338545Y-131386D02*
X373369D01*
X338545Y-143386D02*
X373369D01*
X338545Y-155386D02*
X373369D01*
X338545Y-167386D02*
X373369D01*
X338545Y-179386D02*
X373369D01*
X338545Y-191386D02*
X373369D01*
X338545Y-203386D02*
X373369D01*
X338545D02*
Y-107386D01*
X706170D01*
X338545Y-119386D02*
X706170D01*
Y-203386D02*
Y-107386D01*
X616758Y-131386D02*
X706170D01*
X616758Y-143386D02*
X706170D01*
X616758Y-155386D02*
X706170D01*
X616758Y-167386D02*
X706170D01*
X616758Y-179386D02*
X706170D01*
X616758Y-191386D02*
X706170D01*
X616758Y-203386D02*
X706170D01*
X616758D02*
Y-107386D01*
X567480Y-131386D02*
X616758D01*
X567480Y-143386D02*
X616758D01*
X567480Y-155386D02*
X616758D01*
X567480Y-167386D02*
X616758D01*
X567480Y-179386D02*
X616758D01*
X567480Y-191386D02*
X616758D01*
X567480Y-203386D02*
X616758D01*
X567480D02*
Y-107386D01*
X516088Y-131386D02*
X567480D01*
X516088Y-143386D02*
X567480D01*
X516088Y-155386D02*
X567480D01*
X516088Y-167386D02*
X567480D01*
X516088Y-179386D02*
X567480D01*
X516088Y-191386D02*
X567480D01*
X516088Y-203386D02*
X567480D01*
X516088D02*
Y-107386D01*
X449842Y-131386D02*
X516088D01*
X449842Y-143386D02*
X516088D01*
X449842Y-155386D02*
X516088D01*
X449842Y-167386D02*
X516088D01*
X449842Y-179386D02*
X516088D01*
X449842Y-191386D02*
X516088D01*
X449842Y-203386D02*
X516088D01*
X449842D02*
Y-107386D01*
X373369Y-131386D02*
X449842D01*
X373369Y-143386D02*
X449842D01*
X373369Y-155386D02*
X449842D01*
X373369Y-167386D02*
X449842D01*
X373369Y-179386D02*
X449842D01*
X373369Y-191386D02*
X449842D01*
X373369Y-203386D02*
X449842D01*
X373369D02*
Y-107386D01*
X338545Y-131386D02*
X373369D01*
X338545Y-143386D02*
X373369D01*
X338545Y-155386D02*
X373369D01*
X338545Y-167386D02*
X373369D01*
X338545Y-179386D02*
X373369D01*
X338545Y-191386D02*
X373369D01*
X338545Y-203386D02*
X373369D01*
X338545D02*
Y-107386D01*
X706170D01*
X338545Y-119386D02*
X706170D01*
D11*
X616758Y-124798D02*
X622170Y-119386D01*
X616758Y-130798D02*
X628170Y-119386D01*
X622170Y-131386D02*
X634170Y-119386D01*
X628170Y-131386D02*
X640170Y-119386D01*
X634170Y-131386D02*
X646170Y-119386D01*
X640170Y-131386D02*
X652170Y-119386D01*
X646170Y-131386D02*
X658170Y-119386D01*
X652170Y-131386D02*
X664170Y-119386D01*
X658170Y-131386D02*
X670170Y-119386D01*
X664170Y-131386D02*
X676170Y-119386D01*
X670170Y-131386D02*
X682170Y-119386D01*
X676170Y-131386D02*
X688170Y-119386D01*
X682170Y-131386D02*
X694170Y-119386D01*
X688170Y-131386D02*
X700170Y-119386D01*
X694170Y-131386D02*
X706170Y-119386D01*
X700170Y-131386D02*
X706170Y-125386D01*
X616758Y-136798D02*
X622170Y-131386D01*
X616758Y-142798D02*
X628170Y-131386D01*
X622170Y-143386D02*
X634170Y-131386D01*
X628170Y-143386D02*
X640170Y-131386D01*
X634170Y-143386D02*
X646170Y-131386D01*
X640170Y-143386D02*
X652170Y-131386D01*
X646170Y-143386D02*
X658170Y-131386D01*
X652170Y-143386D02*
X664170Y-131386D01*
X658170Y-143386D02*
X670170Y-131386D01*
X664170Y-143386D02*
X676170Y-131386D01*
X670170Y-143386D02*
X682170Y-131386D01*
X676170Y-143386D02*
X688170Y-131386D01*
X682170Y-143386D02*
X694170Y-131386D01*
X688170Y-143386D02*
X700170Y-131386D01*
X694170Y-143386D02*
X706170Y-131386D01*
X700170Y-143386D02*
X706170Y-137386D01*
X616758Y-148798D02*
X622170Y-143386D01*
X616758Y-154798D02*
X628170Y-143386D01*
X622170Y-155386D02*
X634170Y-143386D01*
X628170Y-155386D02*
X640170Y-143386D01*
X634170Y-155386D02*
X646170Y-143386D01*
X640170Y-155386D02*
X652170Y-143386D01*
X646170Y-155386D02*
X658170Y-143386D01*
X652170Y-155386D02*
X664170Y-143386D01*
X658170Y-155386D02*
X670170Y-143386D01*
X664170Y-155386D02*
X676170Y-143386D01*
X670170Y-155386D02*
X682170Y-143386D01*
X676170Y-155386D02*
X688170Y-143386D01*
X682170Y-155386D02*
X694170Y-143386D01*
X688170Y-155386D02*
X700170Y-143386D01*
X694170Y-155386D02*
X706170Y-143386D01*
X700170Y-155386D02*
X706170Y-149386D01*
X616758Y-160798D02*
X622170Y-155386D01*
X616758Y-166798D02*
X628170Y-155386D01*
X622170Y-167386D02*
X634170Y-155386D01*
X628170Y-167386D02*
X640170Y-155386D01*
X634170Y-167386D02*
X646170Y-155386D01*
X640170Y-167386D02*
X652170Y-155386D01*
X646170Y-167386D02*
X658170Y-155386D01*
X652170Y-167386D02*
X664170Y-155386D01*
X658170Y-167386D02*
X670170Y-155386D01*
X664170Y-167386D02*
X676170Y-155386D01*
X670170Y-167386D02*
X682170Y-155386D01*
X676170Y-167386D02*
X688170Y-155386D01*
X682170Y-167386D02*
X694170Y-155386D01*
X688170Y-167386D02*
X700170Y-155386D01*
X694170Y-167386D02*
X706170Y-155386D01*
X700170Y-167386D02*
X706170Y-161386D01*
X616758Y-172798D02*
X622170Y-167386D01*
X616758Y-178798D02*
X628170Y-167386D01*
X622170Y-179386D02*
X634170Y-167386D01*
X628170Y-179386D02*
X640170Y-167386D01*
X634170Y-179386D02*
X646170Y-167386D01*
X640170Y-179386D02*
X652170Y-167386D01*
X646170Y-179386D02*
X658170Y-167386D01*
X652170Y-179386D02*
X664170Y-167386D01*
X658170Y-179386D02*
X670170Y-167386D01*
X664170Y-179386D02*
X676170Y-167386D01*
X670170Y-179386D02*
X682170Y-167386D01*
X676170Y-179386D02*
X688170Y-167386D01*
X682170Y-179386D02*
X694170Y-167386D01*
X688170Y-179386D02*
X700170Y-167386D01*
X694170Y-179386D02*
X706170Y-167386D01*
X700170Y-179386D02*
X706170Y-173386D01*
X616758Y-184798D02*
X622170Y-179386D01*
X616758Y-190798D02*
X628170Y-179386D01*
X622170Y-191386D02*
X634170Y-179386D01*
X628170Y-191386D02*
X640170Y-179386D01*
X634170Y-191386D02*
X646170Y-179386D01*
X640170Y-191386D02*
X652170Y-179386D01*
X646170Y-191386D02*
X658170Y-179386D01*
X652170Y-191386D02*
X664170Y-179386D01*
X658170Y-191386D02*
X670170Y-179386D01*
X664170Y-191386D02*
X676170Y-179386D01*
X670170Y-191386D02*
X682170Y-179386D01*
X676170Y-191386D02*
X688170Y-179386D01*
X682170Y-191386D02*
X694170Y-179386D01*
X688170Y-191386D02*
X700170Y-179386D01*
X694170Y-191386D02*
X706170Y-179386D01*
X700170Y-191386D02*
X706170Y-185386D01*
X616758Y-196798D02*
X622170Y-191386D01*
X616758Y-202798D02*
X628170Y-191386D01*
X622170Y-203386D02*
X634170Y-191386D01*
X628170Y-203386D02*
X640170Y-191386D01*
X634170Y-203386D02*
X646170Y-191386D01*
X640170Y-203386D02*
X652170Y-191386D01*
X646170Y-203386D02*
X658170Y-191386D01*
X652170Y-203386D02*
X664170Y-191386D01*
X658170Y-203386D02*
X670170Y-191386D01*
X664170Y-203386D02*
X676170Y-191386D01*
X670170Y-203386D02*
X682170Y-191386D01*
X676170Y-203386D02*
X688170Y-191386D01*
X682170Y-203386D02*
X694170Y-191386D01*
X688170Y-203386D02*
X700170Y-191386D01*
X694170Y-203386D02*
X706170Y-191386D01*
X700170Y-203386D02*
X706170Y-197386D01*
X616758Y-124798D02*
X622170Y-119386D01*
X616758Y-130798D02*
X628170Y-119386D01*
X622170Y-131386D02*
X634170Y-119386D01*
X628170Y-131386D02*
X640170Y-119386D01*
X634170Y-131386D02*
X646170Y-119386D01*
X640170Y-131386D02*
X652170Y-119386D01*
X646170Y-131386D02*
X658170Y-119386D01*
X652170Y-131386D02*
X664170Y-119386D01*
X658170Y-131386D02*
X670170Y-119386D01*
X664170Y-131386D02*
X676170Y-119386D01*
X670170Y-131386D02*
X682170Y-119386D01*
X676170Y-131386D02*
X688170Y-119386D01*
X682170Y-131386D02*
X694170Y-119386D01*
X688170Y-131386D02*
X700170Y-119386D01*
X694170Y-131386D02*
X706170Y-119386D01*
X700170Y-131386D02*
X706170Y-125386D01*
X616758Y-136798D02*
X622170Y-131386D01*
X616758Y-142798D02*
X628170Y-131386D01*
X622170Y-143386D02*
X634170Y-131386D01*
X628170Y-143386D02*
X640170Y-131386D01*
X634170Y-143386D02*
X646170Y-131386D01*
X640170Y-143386D02*
X652170Y-131386D01*
X646170Y-143386D02*
X658170Y-131386D01*
X652170Y-143386D02*
X664170Y-131386D01*
X658170Y-143386D02*
X670170Y-131386D01*
X664170Y-143386D02*
X676170Y-131386D01*
X670170Y-143386D02*
X682170Y-131386D01*
X676170Y-143386D02*
X688170Y-131386D01*
X682170Y-143386D02*
X694170Y-131386D01*
X688170Y-143386D02*
X700170Y-131386D01*
X694170Y-143386D02*
X706170Y-131386D01*
X700170Y-143386D02*
X706170Y-137386D01*
X616758Y-148798D02*
X622170Y-143386D01*
X616758Y-154798D02*
X628170Y-143386D01*
X622170Y-155386D02*
X634170Y-143386D01*
X628170Y-155386D02*
X640170Y-143386D01*
X634170Y-155386D02*
X646170Y-143386D01*
X640170Y-155386D02*
X652170Y-143386D01*
X646170Y-155386D02*
X658170Y-143386D01*
X652170Y-155386D02*
X664170Y-143386D01*
X658170Y-155386D02*
X670170Y-143386D01*
X664170Y-155386D02*
X676170Y-143386D01*
X670170Y-155386D02*
X682170Y-143386D01*
X676170Y-155386D02*
X688170Y-143386D01*
X682170Y-155386D02*
X694170Y-143386D01*
X688170Y-155386D02*
X700170Y-143386D01*
X694170Y-155386D02*
X706170Y-143386D01*
X700170Y-155386D02*
X706170Y-149386D01*
X616758Y-160798D02*
X622170Y-155386D01*
X616758Y-166798D02*
X628170Y-155386D01*
X622170Y-167386D02*
X634170Y-155386D01*
X628170Y-167386D02*
X640170Y-155386D01*
X634170Y-167386D02*
X646170Y-155386D01*
X640170Y-167386D02*
X652170Y-155386D01*
X646170Y-167386D02*
X658170Y-155386D01*
X652170Y-167386D02*
X664170Y-155386D01*
X658170Y-167386D02*
X670170Y-155386D01*
X664170Y-167386D02*
X676170Y-155386D01*
X670170Y-167386D02*
X682170Y-155386D01*
X676170Y-167386D02*
X688170Y-155386D01*
X682170Y-167386D02*
X694170Y-155386D01*
X688170Y-167386D02*
X700170Y-155386D01*
X694170Y-167386D02*
X706170Y-155386D01*
X700170Y-167386D02*
X706170Y-161386D01*
X616758Y-172798D02*
X622170Y-167386D01*
X616758Y-178798D02*
X628170Y-167386D01*
X622170Y-179386D02*
X634170Y-167386D01*
X628170Y-179386D02*
X640170Y-167386D01*
X634170Y-179386D02*
X646170Y-167386D01*
X640170Y-179386D02*
X652170Y-167386D01*
X646170Y-179386D02*
X658170Y-167386D01*
X652170Y-179386D02*
X664170Y-167386D01*
X658170Y-179386D02*
X670170Y-167386D01*
X664170Y-179386D02*
X676170Y-167386D01*
X670170Y-179386D02*
X682170Y-167386D01*
X676170Y-179386D02*
X688170Y-167386D01*
X682170Y-179386D02*
X694170Y-167386D01*
X688170Y-179386D02*
X700170Y-167386D01*
X694170Y-179386D02*
X706170Y-167386D01*
X700170Y-179386D02*
X706170Y-173386D01*
X616758Y-184798D02*
X622170Y-179386D01*
X616758Y-190798D02*
X628170Y-179386D01*
X622170Y-191386D02*
X634170Y-179386D01*
X628170Y-191386D02*
X640170Y-179386D01*
X634170Y-191386D02*
X646170Y-179386D01*
X640170Y-191386D02*
X652170Y-179386D01*
X646170Y-191386D02*
X658170Y-179386D01*
X652170Y-191386D02*
X664170Y-179386D01*
X658170Y-191386D02*
X670170Y-179386D01*
X664170Y-191386D02*
X676170Y-179386D01*
X670170Y-191386D02*
X682170Y-179386D01*
X676170Y-191386D02*
X688170Y-179386D01*
X682170Y-191386D02*
X694170Y-179386D01*
X688170Y-191386D02*
X700170Y-179386D01*
X694170Y-191386D02*
X706170Y-179386D01*
X700170Y-191386D02*
X706170Y-185386D01*
X616758Y-196798D02*
X622170Y-191386D01*
X616758Y-202798D02*
X628170Y-191386D01*
X622170Y-203386D02*
X634170Y-191386D01*
X628170Y-203386D02*
X640170Y-191386D01*
X634170Y-203386D02*
X646170Y-191386D01*
X640170Y-203386D02*
X652170Y-191386D01*
X646170Y-203386D02*
X658170Y-191386D01*
X652170Y-203386D02*
X664170Y-191386D01*
X658170Y-203386D02*
X670170Y-191386D01*
X664170Y-203386D02*
X676170Y-191386D01*
X670170Y-203386D02*
X682170Y-191386D01*
X676170Y-203386D02*
X688170Y-191386D01*
X682170Y-203386D02*
X694170Y-191386D01*
X688170Y-203386D02*
X700170Y-191386D01*
X694170Y-203386D02*
X706170Y-191386D01*
X700170Y-203386D02*
X706170Y-197386D01*
D12*
X277091Y0D02*
X285252D01*
X277091Y-196850D02*
X285252D01*
X284252Y-79572D02*
Y0D01*
Y-196850D02*
Y-120478D01*
X282252Y-6000D02*
X284252Y0D01*
X286252Y-6000D01*
X284252Y-196850D02*
X286252Y-190850D01*
X282252D02*
X284252Y-196850D01*
X275591Y-203707D02*
Y-198350D01*
X0Y-203707D02*
Y-198350D01*
X156648Y-202707D02*
X275591D01*
X0D02*
X115742D01*
X269591Y-200707D02*
X275591Y-202707D01*
X269591Y-204707D02*
X275591Y-202707D01*
X0D02*
X6000Y-204707D01*
X0Y-202707D02*
X6000Y-200707D01*
X523088Y-207530D02*
X523659Y-207244D01*
X524516Y-206387D01*
Y-212386D01*
X527772Y-211814D02*
X527487Y-212100D01*
X527772Y-212386D01*
X528058Y-212100D01*
X527772Y-211814D01*
X532800Y-206387D02*
X529943D01*
X529658Y-208958D01*
X529943Y-208672D01*
X530800Y-208387D01*
X531657D01*
X532514Y-208672D01*
X533085Y-209244D01*
X533371Y-210101D01*
Y-210672D01*
X533085Y-211529D01*
X532514Y-212100D01*
X531657Y-212386D01*
X530800D01*
X529943Y-212100D01*
X529658Y-211814D01*
X529372Y-211243D01*
X538427Y-208387D02*
X538142Y-209244D01*
X537570Y-209815D01*
X536713Y-210101D01*
X536428D01*
X535571Y-209815D01*
X534999Y-209244D01*
X534714Y-208387D01*
Y-208101D01*
X534999Y-207244D01*
X535571Y-206673D01*
X536428Y-206387D01*
X536713D01*
X537570Y-206673D01*
X538142Y-207244D01*
X538427Y-208387D01*
Y-209815D01*
X538142Y-211243D01*
X537570Y-212100D01*
X536713Y-212386D01*
X536142D01*
X535285Y-212100D01*
X534999Y-211529D01*
X540056Y-207530D02*
X540627Y-207244D01*
X541484Y-206387D01*
Y-212386D01*
X544454Y-208387D02*
Y-212386D01*
Y-209529D02*
X545311Y-208672D01*
X545883Y-208387D01*
X546740D01*
X547311Y-208672D01*
X547597Y-209529D01*
Y-212386D01*
Y-209529D02*
X548454Y-208672D01*
X549025Y-208387D01*
X549882D01*
X550453Y-208672D01*
X550739Y-209529D01*
Y-212386D01*
X552624Y-208387D02*
Y-212386D01*
Y-209529D02*
X553481Y-208672D01*
X554052Y-208387D01*
X554909D01*
X555481Y-208672D01*
X555766Y-209529D01*
Y-212386D01*
Y-209529D02*
X556623Y-208672D01*
X557195Y-208387D01*
X558052D01*
X558623Y-208672D01*
X558909Y-209529D01*
Y-212386D01*
X347545Y-206387D02*
Y-212386D01*
X345545Y-206387D02*
X349544D01*
X351687Y-208387D02*
X351115Y-208672D01*
X350544Y-209244D01*
X350259Y-210101D01*
Y-210672D01*
X350544Y-211529D01*
X351115Y-212100D01*
X351687Y-212386D01*
X352544D01*
X353115Y-212100D01*
X353686Y-211529D01*
X353972Y-210672D01*
Y-210101D01*
X353686Y-209244D01*
X353115Y-208672D01*
X352544Y-208387D01*
X351687D01*
X356143Y-206387D02*
Y-211243D01*
X356429Y-212100D01*
X357000Y-212386D01*
X357571D01*
X355286Y-208387D02*
X357286D01*
X361856D02*
Y-212386D01*
Y-209244D02*
X361285Y-208672D01*
X360714Y-208387D01*
X359857D01*
X359285Y-208672D01*
X358714Y-209244D01*
X358428Y-210101D01*
Y-210672D01*
X358714Y-211529D01*
X359285Y-212100D01*
X359857Y-212386D01*
X360714D01*
X361285Y-212100D01*
X361856Y-211529D01*
X363456Y-206387D02*
Y-212386D01*
X369426Y-206387D02*
Y-212386D01*
Y-209244D02*
X369997Y-208672D01*
X370568Y-208387D01*
X371425D01*
X371997Y-208672D01*
X372568Y-209244D01*
X372854Y-210101D01*
Y-210672D01*
X372568Y-211529D01*
X371997Y-212100D01*
X371425Y-212386D01*
X370568D01*
X369997Y-212100D01*
X369426Y-211529D01*
X375567Y-208387D02*
X374996Y-208672D01*
X374425Y-209244D01*
X374139Y-210101D01*
Y-210672D01*
X374425Y-211529D01*
X374996Y-212100D01*
X375567Y-212386D01*
X376424D01*
X376996Y-212100D01*
X377567Y-211529D01*
X377853Y-210672D01*
Y-210101D01*
X377567Y-209244D01*
X376996Y-208672D01*
X376424Y-208387D01*
X375567D01*
X382594D02*
Y-212386D01*
Y-209244D02*
X382023Y-208672D01*
X381452Y-208387D01*
X380595D01*
X380024Y-208672D01*
X379452Y-209244D01*
X379167Y-210101D01*
Y-210672D01*
X379452Y-211529D01*
X380024Y-212100D01*
X380595Y-212386D01*
X381452D01*
X382023Y-212100D01*
X382594Y-211529D01*
X384194Y-208387D02*
Y-212386D01*
Y-210101D02*
X384480Y-209244D01*
X385051Y-208672D01*
X385622Y-208387D01*
X386479D01*
X390450Y-206387D02*
Y-212386D01*
Y-209244D02*
X389879Y-208672D01*
X389307Y-208387D01*
X388450D01*
X387879Y-208672D01*
X387308Y-209244D01*
X387022Y-210101D01*
Y-210672D01*
X387308Y-211529D01*
X387879Y-212100D01*
X388450Y-212386D01*
X389307D01*
X389879Y-212100D01*
X390450Y-211529D01*
X397620Y-206387D02*
Y-211243D01*
X397905Y-212100D01*
X398477Y-212386D01*
X399048D01*
X396763Y-208387D02*
X398762D01*
X399905Y-206387D02*
Y-212386D01*
Y-209529D02*
X400762Y-208672D01*
X401333Y-208387D01*
X402190D01*
X402762Y-208672D01*
X403047Y-209529D01*
Y-212386D01*
X405190Y-206387D02*
X405475Y-206673D01*
X405761Y-206387D01*
X405475Y-206101D01*
X405190Y-206387D01*
X405475Y-208387D02*
Y-212386D01*
X410246Y-209244D02*
X409674Y-208672D01*
X409103Y-208387D01*
X408246D01*
X407675Y-208672D01*
X407103Y-209244D01*
X406818Y-210101D01*
Y-210672D01*
X407103Y-211529D01*
X407675Y-212100D01*
X408246Y-212386D01*
X409103D01*
X409674Y-212100D01*
X410246Y-211529D01*
X411531Y-206387D02*
Y-212386D01*
X414388Y-208387D02*
X411531Y-211243D01*
X412674Y-210101D02*
X414673Y-212386D01*
X415616Y-208387D02*
Y-212386D01*
Y-209529D02*
X416473Y-208672D01*
X417044Y-208387D01*
X417901D01*
X418472Y-208672D01*
X418758Y-209529D01*
Y-212386D01*
X420329Y-210101D02*
X423757D01*
Y-209529D01*
X423471Y-208958D01*
X423186Y-208672D01*
X422614Y-208387D01*
X421758D01*
X421186Y-208672D01*
X420615Y-209244D01*
X420329Y-210101D01*
Y-210672D01*
X420615Y-211529D01*
X421186Y-212100D01*
X421758Y-212386D01*
X422614D01*
X423186Y-212100D01*
X423757Y-211529D01*
X428185Y-209244D02*
X427899Y-208672D01*
X427042Y-208387D01*
X426185D01*
X425328Y-208672D01*
X425042Y-209244D01*
X425328Y-209815D01*
X425900Y-210101D01*
X427328Y-210386D01*
X427899Y-210672D01*
X428185Y-211243D01*
Y-211529D01*
X427899Y-212100D01*
X427042Y-212386D01*
X426185D01*
X425328Y-212100D01*
X425042Y-211529D01*
X432584Y-209244D02*
X432298Y-208672D01*
X431441Y-208387D01*
X430584D01*
X429727Y-208672D01*
X429442Y-209244D01*
X429727Y-209815D01*
X430299Y-210101D01*
X431727Y-210386D01*
X432298Y-210672D01*
X432584Y-211243D01*
Y-211529D01*
X432298Y-212100D01*
X431441Y-212386D01*
X430584D01*
X429727Y-212100D01*
X429442Y-211529D01*
X434126Y-208387D02*
X433841Y-208672D01*
X434126Y-208958D01*
X434412Y-208672D01*
X434126Y-208387D01*
Y-211814D02*
X433841Y-212100D01*
X434126Y-212386D01*
X434412Y-212100D01*
X434126Y-211814D01*
X623758Y-110387D02*
Y-116386D01*
Y-110387D02*
X626329D01*
X627186Y-110673D01*
X627471Y-110958D01*
X627757Y-111530D01*
Y-112101D01*
X627471Y-112672D01*
X627186Y-112958D01*
X626329Y-113244D01*
X623758D02*
X626329D01*
X627186Y-113529D01*
X627471Y-113815D01*
X627757Y-114386D01*
Y-115243D01*
X627471Y-115814D01*
X627186Y-116100D01*
X626329Y-116386D01*
X623758D01*
X630528Y-112387D02*
X629956Y-112672D01*
X629385Y-113244D01*
X629100Y-114101D01*
Y-114672D01*
X629385Y-115529D01*
X629956Y-116100D01*
X630528Y-116386D01*
X631385D01*
X631956Y-116100D01*
X632527Y-115529D01*
X632813Y-114672D01*
Y-114101D01*
X632527Y-113244D01*
X631956Y-112672D01*
X631385Y-112387D01*
X630528D01*
X637555D02*
Y-116386D01*
Y-113244D02*
X636984Y-112672D01*
X636412Y-112387D01*
X635555D01*
X634984Y-112672D01*
X634413Y-113244D01*
X634127Y-114101D01*
Y-114672D01*
X634413Y-115529D01*
X634984Y-116100D01*
X635555Y-116386D01*
X636412D01*
X636984Y-116100D01*
X637555Y-115529D01*
X639154Y-112387D02*
Y-116386D01*
Y-114101D02*
X639440Y-113244D01*
X640012Y-112672D01*
X640583Y-112387D01*
X641440D01*
X645410Y-110387D02*
Y-116386D01*
Y-113244D02*
X644839Y-112672D01*
X644268Y-112387D01*
X643411D01*
X642839Y-112672D01*
X642268Y-113244D01*
X641983Y-114101D01*
Y-114672D01*
X642268Y-115529D01*
X642839Y-116100D01*
X643411Y-116386D01*
X644268D01*
X644839Y-116100D01*
X645410Y-115529D01*
X651723Y-110387D02*
Y-116386D01*
X655151D01*
X659236Y-112387D02*
Y-116386D01*
Y-113244D02*
X658665Y-112672D01*
X658093Y-112387D01*
X657236D01*
X656665Y-112672D01*
X656094Y-113244D01*
X655808Y-114101D01*
Y-114672D01*
X656094Y-115529D01*
X656665Y-116100D01*
X657236Y-116386D01*
X658093D01*
X658665Y-116100D01*
X659236Y-115529D01*
X661121Y-112387D02*
X662835Y-116386D01*
X664549Y-112387D02*
X662835Y-116386D01*
X662264Y-117528D01*
X661692Y-118100D01*
X661121Y-118385D01*
X660836D01*
X665549Y-114101D02*
X668977D01*
Y-113529D01*
X668691Y-112958D01*
X668405Y-112672D01*
X667834Y-112387D01*
X666977D01*
X666406Y-112672D01*
X665835Y-113244D01*
X665549Y-114101D01*
Y-114672D01*
X665835Y-115529D01*
X666406Y-116100D01*
X666977Y-116386D01*
X667834D01*
X668405Y-116100D01*
X668977Y-115529D01*
X670262Y-112387D02*
Y-116386D01*
Y-114101D02*
X670548Y-113244D01*
X671119Y-112672D01*
X671690Y-112387D01*
X672547D01*
X681803Y-111244D02*
X681231Y-110673D01*
X680374Y-110387D01*
X679232D01*
X678375Y-110673D01*
X677803Y-111244D01*
Y-111815D01*
X678089Y-112387D01*
X678375Y-112672D01*
X678946Y-112958D01*
X680660Y-113529D01*
X681231Y-113815D01*
X681517Y-114101D01*
X681803Y-114672D01*
Y-115529D01*
X681231Y-116100D01*
X680374Y-116386D01*
X679232D01*
X678375Y-116100D01*
X677803Y-115529D01*
X684002Y-110387D02*
Y-115243D01*
X684288Y-116100D01*
X684859Y-116386D01*
X685430D01*
X683145Y-112387D02*
X685145D01*
X689715D02*
Y-116386D01*
Y-113244D02*
X689144Y-112672D01*
X688573Y-112387D01*
X687715D01*
X687144Y-112672D01*
X686573Y-113244D01*
X686287Y-114101D01*
Y-114672D01*
X686573Y-115529D01*
X687144Y-116100D01*
X687715Y-116386D01*
X688573D01*
X689144Y-116100D01*
X689715Y-115529D01*
X694743Y-113244D02*
X694171Y-112672D01*
X693600Y-112387D01*
X692743D01*
X692172Y-112672D01*
X691600Y-113244D01*
X691315Y-114101D01*
Y-114672D01*
X691600Y-115529D01*
X692172Y-116100D01*
X692743Y-116386D01*
X693600D01*
X694171Y-116100D01*
X694743Y-115529D01*
X696028Y-110387D02*
Y-116386D01*
X698885Y-112387D02*
X696028Y-115243D01*
X697171Y-114101D02*
X699170Y-116386D01*
X575051Y-134387D02*
X578193D01*
X576479Y-136672D01*
X577336D01*
X577908Y-136958D01*
X578193Y-137244D01*
X578479Y-138101D01*
Y-138672D01*
X578193Y-139529D01*
X577622Y-140100D01*
X576765Y-140386D01*
X575908D01*
X575051Y-140100D01*
X574765Y-139814D01*
X574480Y-139243D01*
X580107Y-139814D02*
X579821Y-140100D01*
X580107Y-140386D01*
X580393Y-140100D01*
X580107Y-139814D01*
X585135Y-134387D02*
X582278D01*
X581992Y-136958D01*
X582278Y-136672D01*
X583135Y-136387D01*
X583992D01*
X584849Y-136672D01*
X585420Y-137244D01*
X585706Y-138101D01*
Y-138672D01*
X585420Y-139529D01*
X584849Y-140100D01*
X583992Y-140386D01*
X583135D01*
X582278Y-140100D01*
X581992Y-139814D01*
X581707Y-139243D01*
X577336Y-158387D02*
X574480Y-162386D01*
X578764D01*
X577336Y-158387D02*
Y-164386D01*
X580107Y-163814D02*
X579821Y-164100D01*
X580107Y-164386D01*
X580393Y-164100D01*
X580107Y-163814D01*
X583135Y-158387D02*
X582278Y-158673D01*
X581992Y-159244D01*
Y-159815D01*
X582278Y-160387D01*
X582849Y-160672D01*
X583992Y-160958D01*
X584849Y-161244D01*
X585420Y-161815D01*
X585706Y-162386D01*
Y-163243D01*
X585420Y-163814D01*
X585135Y-164100D01*
X584278Y-164386D01*
X583135D01*
X582278Y-164100D01*
X581992Y-163814D01*
X581707Y-163243D01*
Y-162386D01*
X581992Y-161815D01*
X582564Y-161244D01*
X583421Y-160958D01*
X584563Y-160672D01*
X585135Y-160387D01*
X585420Y-159815D01*
Y-159244D01*
X585135Y-158673D01*
X584278Y-158387D01*
X583135D01*
X575051Y-182387D02*
X578193D01*
X576479Y-184672D01*
X577336D01*
X577908Y-184958D01*
X578193Y-185244D01*
X578479Y-186101D01*
Y-186672D01*
X578193Y-187529D01*
X577622Y-188100D01*
X576765Y-188386D01*
X575908D01*
X575051Y-188100D01*
X574765Y-187814D01*
X574480Y-187243D01*
X580107Y-187814D02*
X579821Y-188100D01*
X580107Y-188386D01*
X580393Y-188100D01*
X580107Y-187814D01*
X585135Y-182387D02*
X582278D01*
X581992Y-184958D01*
X582278Y-184672D01*
X583135Y-184387D01*
X583992D01*
X584849Y-184672D01*
X585420Y-185244D01*
X585706Y-186101D01*
Y-186672D01*
X585420Y-187529D01*
X584849Y-188100D01*
X583992Y-188386D01*
X583135D01*
X582278Y-188100D01*
X581992Y-187814D01*
X581707Y-187243D01*
X578764Y-111815D02*
X578479Y-111244D01*
X577908Y-110673D01*
X577336Y-110387D01*
X576194D01*
X575622Y-110673D01*
X575051Y-111244D01*
X574765Y-111815D01*
X574480Y-112672D01*
Y-114101D01*
X574765Y-114958D01*
X575051Y-115529D01*
X575622Y-116100D01*
X576194Y-116386D01*
X577336D01*
X577908Y-116100D01*
X578479Y-115529D01*
X578764Y-114958D01*
X581878Y-112387D02*
X581307Y-112672D01*
X580735Y-113244D01*
X580450Y-114101D01*
Y-114672D01*
X580735Y-115529D01*
X581307Y-116100D01*
X581878Y-116386D01*
X582735D01*
X583306Y-116100D01*
X583878Y-115529D01*
X584163Y-114672D01*
Y-114101D01*
X583878Y-113244D01*
X583306Y-112672D01*
X582735Y-112387D01*
X581878D01*
X585477D02*
Y-116386D01*
Y-113529D02*
X586334Y-112672D01*
X586906Y-112387D01*
X587762D01*
X588334Y-112672D01*
X588620Y-113529D01*
Y-116386D01*
X593333Y-113244D02*
X593047Y-112672D01*
X592190Y-112387D01*
X591333D01*
X590476Y-112672D01*
X590191Y-113244D01*
X590476Y-113815D01*
X591047Y-114101D01*
X592476Y-114386D01*
X593047Y-114672D01*
X593333Y-115243D01*
Y-115529D01*
X593047Y-116100D01*
X592190Y-116386D01*
X591333D01*
X590476Y-116100D01*
X590191Y-115529D01*
X595447Y-110387D02*
Y-115243D01*
X595732Y-116100D01*
X596304Y-116386D01*
X596875D01*
X594590Y-112387D02*
X596589D01*
X601160D02*
Y-116386D01*
Y-113244D02*
X600588Y-112672D01*
X600017Y-112387D01*
X599160D01*
X598589Y-112672D01*
X598018Y-113244D01*
X597732Y-114101D01*
Y-114672D01*
X598018Y-115529D01*
X598589Y-116100D01*
X599160Y-116386D01*
X600017D01*
X600588Y-116100D01*
X601160Y-115529D01*
X602759Y-112387D02*
Y-116386D01*
Y-113529D02*
X603616Y-112672D01*
X604188Y-112387D01*
X605045D01*
X605616Y-112672D01*
X605901Y-113529D01*
Y-116386D01*
X608330Y-110387D02*
Y-115243D01*
X608615Y-116100D01*
X609187Y-116386D01*
X609758D01*
X607473Y-112387D02*
X609472D01*
X524802Y-134387D02*
X523945Y-134673D01*
X523373Y-135530D01*
X523088Y-136958D01*
Y-137815D01*
X523373Y-139243D01*
X523945Y-140100D01*
X524802Y-140386D01*
X525373D01*
X526230Y-140100D01*
X526801Y-139243D01*
X527087Y-137815D01*
Y-136958D01*
X526801Y-135530D01*
X526230Y-134673D01*
X525373Y-134387D01*
X524802D01*
X528715Y-139814D02*
X528429Y-140100D01*
X528715Y-140386D01*
X529001Y-140100D01*
X528715Y-139814D01*
X532029Y-134387D02*
X531172Y-134673D01*
X530600Y-135530D01*
X530315Y-136958D01*
Y-137815D01*
X530600Y-139243D01*
X531172Y-140100D01*
X532029Y-140386D01*
X532600D01*
X533457Y-140100D01*
X534028Y-139243D01*
X534314Y-137815D01*
Y-136958D01*
X534028Y-135530D01*
X533457Y-134673D01*
X532600Y-134387D01*
X532029D01*
X535656Y-135530D02*
X536228Y-135244D01*
X537085Y-134387D01*
Y-140386D01*
X541769Y-134387D02*
X540912Y-134673D01*
X540341Y-135530D01*
X540056Y-136958D01*
Y-137815D01*
X540341Y-139243D01*
X540912Y-140100D01*
X541769Y-140386D01*
X542341D01*
X543198Y-140100D01*
X543769Y-139243D01*
X544055Y-137815D01*
Y-136958D01*
X543769Y-135530D01*
X543198Y-134673D01*
X542341Y-134387D01*
X541769D01*
X545397Y-136387D02*
Y-140386D01*
Y-137529D02*
X546254Y-136672D01*
X546825Y-136387D01*
X547682D01*
X548254Y-136672D01*
X548539Y-137529D01*
Y-140386D01*
Y-137529D02*
X549396Y-136672D01*
X549968Y-136387D01*
X550825D01*
X551396Y-136672D01*
X551682Y-137529D01*
Y-140386D01*
X553567Y-136387D02*
Y-140386D01*
Y-137529D02*
X554424Y-136672D01*
X554995Y-136387D01*
X555852D01*
X556423Y-136672D01*
X556709Y-137529D01*
Y-140386D01*
Y-137529D02*
X557566Y-136672D01*
X558137Y-136387D01*
X558994D01*
X559565Y-136672D01*
X559851Y-137529D01*
Y-140386D01*
X524802Y-146387D02*
X523945Y-146673D01*
X523373Y-147530D01*
X523088Y-148958D01*
Y-149815D01*
X523373Y-151243D01*
X523945Y-152100D01*
X524802Y-152386D01*
X525373D01*
X526230Y-152100D01*
X526801Y-151243D01*
X527087Y-149815D01*
Y-148958D01*
X526801Y-147530D01*
X526230Y-146673D01*
X525373Y-146387D01*
X524802D01*
X528715Y-151814D02*
X528429Y-152100D01*
X528715Y-152386D01*
X529001Y-152100D01*
X528715Y-151814D01*
X532029Y-146387D02*
X531172Y-146673D01*
X530600Y-147530D01*
X530315Y-148958D01*
Y-149815D01*
X530600Y-151243D01*
X531172Y-152100D01*
X532029Y-152386D01*
X532600D01*
X533457Y-152100D01*
X534028Y-151243D01*
X534314Y-149815D01*
Y-148958D01*
X534028Y-147530D01*
X533457Y-146673D01*
X532600Y-146387D01*
X532029D01*
X536228D02*
X539370D01*
X537656Y-148672D01*
X538513D01*
X539084Y-148958D01*
X539370Y-149244D01*
X539655Y-150101D01*
Y-150672D01*
X539370Y-151529D01*
X538799Y-152100D01*
X537942Y-152386D01*
X537085D01*
X536228Y-152100D01*
X535942Y-151814D01*
X535656Y-151243D01*
X544426Y-147244D02*
X544140Y-146673D01*
X543283Y-146387D01*
X542712D01*
X541855Y-146673D01*
X541284Y-147530D01*
X540998Y-148958D01*
Y-150386D01*
X541284Y-151529D01*
X541855Y-152100D01*
X542712Y-152386D01*
X542998D01*
X543855Y-152100D01*
X544426Y-151529D01*
X544712Y-150672D01*
Y-150386D01*
X544426Y-149529D01*
X543855Y-148958D01*
X542998Y-148672D01*
X542712D01*
X541855Y-148958D01*
X541284Y-149529D01*
X540998Y-150386D01*
X546026Y-148387D02*
Y-152386D01*
Y-149529D02*
X546882Y-148672D01*
X547454Y-148387D01*
X548311D01*
X548882Y-148672D01*
X549168Y-149529D01*
Y-152386D01*
Y-149529D02*
X550025Y-148672D01*
X550596Y-148387D01*
X551453D01*
X552024Y-148672D01*
X552310Y-149529D01*
Y-152386D01*
X554195Y-148387D02*
Y-152386D01*
Y-149529D02*
X555052Y-148672D01*
X555623Y-148387D01*
X556481D01*
X557052Y-148672D01*
X557337Y-149529D01*
Y-152386D01*
Y-149529D02*
X558194Y-148672D01*
X558766Y-148387D01*
X559623D01*
X560194Y-148672D01*
X560480Y-149529D01*
Y-152386D01*
X523088Y-159530D02*
X523659Y-159244D01*
X524516Y-158387D01*
Y-164386D01*
X527772Y-163814D02*
X527487Y-164100D01*
X527772Y-164386D01*
X528058Y-164100D01*
X527772Y-163814D01*
X532800Y-158387D02*
X529943D01*
X529658Y-160958D01*
X529943Y-160672D01*
X530800Y-160387D01*
X531657D01*
X532514Y-160672D01*
X533085Y-161244D01*
X533371Y-162101D01*
Y-162672D01*
X533085Y-163529D01*
X532514Y-164100D01*
X531657Y-164386D01*
X530800D01*
X529943Y-164100D01*
X529658Y-163814D01*
X529372Y-163243D01*
X536428Y-158387D02*
X535571Y-158673D01*
X534999Y-159530D01*
X534714Y-160958D01*
Y-161815D01*
X534999Y-163243D01*
X535571Y-164100D01*
X536428Y-164386D01*
X536999D01*
X537856Y-164100D01*
X538427Y-163243D01*
X538713Y-161815D01*
Y-160958D01*
X538427Y-159530D01*
X537856Y-158673D01*
X536999Y-158387D01*
X536428D01*
X541769D02*
X540912Y-158673D01*
X540341Y-159530D01*
X540056Y-160958D01*
Y-161815D01*
X540341Y-163243D01*
X540912Y-164100D01*
X541769Y-164386D01*
X542341D01*
X543198Y-164100D01*
X543769Y-163243D01*
X544055Y-161815D01*
Y-160958D01*
X543769Y-159530D01*
X543198Y-158673D01*
X542341Y-158387D01*
X541769D01*
X545397Y-160387D02*
Y-164386D01*
Y-161529D02*
X546254Y-160672D01*
X546825Y-160387D01*
X547682D01*
X548254Y-160672D01*
X548539Y-161529D01*
Y-164386D01*
Y-161529D02*
X549396Y-160672D01*
X549968Y-160387D01*
X550825D01*
X551396Y-160672D01*
X551682Y-161529D01*
Y-164386D01*
X553567Y-160387D02*
Y-164386D01*
Y-161529D02*
X554424Y-160672D01*
X554995Y-160387D01*
X555852D01*
X556423Y-160672D01*
X556709Y-161529D01*
Y-164386D01*
Y-161529D02*
X557566Y-160672D01*
X558137Y-160387D01*
X558994D01*
X559565Y-160672D01*
X559851Y-161529D01*
Y-164386D01*
X524802Y-170387D02*
X523945Y-170673D01*
X523373Y-171530D01*
X523088Y-172958D01*
Y-173815D01*
X523373Y-175243D01*
X523945Y-176100D01*
X524802Y-176386D01*
X525373D01*
X526230Y-176100D01*
X526801Y-175243D01*
X527087Y-173815D01*
Y-172958D01*
X526801Y-171530D01*
X526230Y-170673D01*
X525373Y-170387D01*
X524802D01*
X528715Y-175814D02*
X528429Y-176100D01*
X528715Y-176386D01*
X529001Y-176100D01*
X528715Y-175814D01*
X532029Y-170387D02*
X531172Y-170673D01*
X530600Y-171530D01*
X530315Y-172958D01*
Y-173815D01*
X530600Y-175243D01*
X531172Y-176100D01*
X532029Y-176386D01*
X532600D01*
X533457Y-176100D01*
X534028Y-175243D01*
X534314Y-173815D01*
Y-172958D01*
X534028Y-171530D01*
X533457Y-170673D01*
X532600Y-170387D01*
X532029D01*
X536228D02*
X539370D01*
X537656Y-172672D01*
X538513D01*
X539084Y-172958D01*
X539370Y-173244D01*
X539655Y-174101D01*
Y-174672D01*
X539370Y-175529D01*
X538799Y-176100D01*
X537942Y-176386D01*
X537085D01*
X536228Y-176100D01*
X535942Y-175814D01*
X535656Y-175243D01*
X544426Y-171244D02*
X544140Y-170673D01*
X543283Y-170387D01*
X542712D01*
X541855Y-170673D01*
X541284Y-171530D01*
X540998Y-172958D01*
Y-174386D01*
X541284Y-175529D01*
X541855Y-176100D01*
X542712Y-176386D01*
X542998D01*
X543855Y-176100D01*
X544426Y-175529D01*
X544712Y-174672D01*
Y-174386D01*
X544426Y-173529D01*
X543855Y-172958D01*
X542998Y-172672D01*
X542712D01*
X541855Y-172958D01*
X541284Y-173529D01*
X540998Y-174386D01*
X546026Y-172387D02*
Y-176386D01*
Y-173529D02*
X546882Y-172672D01*
X547454Y-172387D01*
X548311D01*
X548882Y-172672D01*
X549168Y-173529D01*
Y-176386D01*
Y-173529D02*
X550025Y-172672D01*
X550596Y-172387D01*
X551453D01*
X552024Y-172672D01*
X552310Y-173529D01*
Y-176386D01*
X554195Y-172387D02*
Y-176386D01*
Y-173529D02*
X555052Y-172672D01*
X555623Y-172387D01*
X556481D01*
X557052Y-172672D01*
X557337Y-173529D01*
Y-176386D01*
Y-173529D02*
X558194Y-172672D01*
X558766Y-172387D01*
X559623D01*
X560194Y-172672D01*
X560480Y-173529D01*
Y-176386D01*
X524802Y-182387D02*
X523945Y-182673D01*
X523373Y-183530D01*
X523088Y-184958D01*
Y-185815D01*
X523373Y-187243D01*
X523945Y-188100D01*
X524802Y-188386D01*
X525373D01*
X526230Y-188100D01*
X526801Y-187243D01*
X527087Y-185815D01*
Y-184958D01*
X526801Y-183530D01*
X526230Y-182673D01*
X525373Y-182387D01*
X524802D01*
X528715Y-187814D02*
X528429Y-188100D01*
X528715Y-188386D01*
X529001Y-188100D01*
X528715Y-187814D01*
X532029Y-182387D02*
X531172Y-182673D01*
X530600Y-183530D01*
X530315Y-184958D01*
Y-185815D01*
X530600Y-187243D01*
X531172Y-188100D01*
X532029Y-188386D01*
X532600D01*
X533457Y-188100D01*
X534028Y-187243D01*
X534314Y-185815D01*
Y-184958D01*
X534028Y-183530D01*
X533457Y-182673D01*
X532600Y-182387D01*
X532029D01*
X535656Y-183530D02*
X536228Y-183244D01*
X537085Y-182387D01*
Y-188386D01*
X541769Y-182387D02*
X540912Y-182673D01*
X540341Y-183530D01*
X540056Y-184958D01*
Y-185815D01*
X540341Y-187243D01*
X540912Y-188100D01*
X541769Y-188386D01*
X542341D01*
X543198Y-188100D01*
X543769Y-187243D01*
X544055Y-185815D01*
Y-184958D01*
X543769Y-183530D01*
X543198Y-182673D01*
X542341Y-182387D01*
X541769D01*
X545397Y-184387D02*
Y-188386D01*
Y-185529D02*
X546254Y-184672D01*
X546825Y-184387D01*
X547682D01*
X548254Y-184672D01*
X548539Y-185529D01*
Y-188386D01*
Y-185529D02*
X549396Y-184672D01*
X549968Y-184387D01*
X550825D01*
X551396Y-184672D01*
X551682Y-185529D01*
Y-188386D01*
X553567Y-184387D02*
Y-188386D01*
Y-185529D02*
X554424Y-184672D01*
X554995Y-184387D01*
X555852D01*
X556423Y-184672D01*
X556709Y-185529D01*
Y-188386D01*
Y-185529D02*
X557566Y-184672D01*
X558137Y-184387D01*
X558994D01*
X559565Y-184672D01*
X559851Y-185529D01*
Y-188386D01*
X525087Y-110387D02*
Y-116386D01*
X523088Y-110387D02*
X527087D01*
X527801D02*
Y-116386D01*
Y-113529D02*
X528658Y-112672D01*
X529229Y-112387D01*
X530086D01*
X530657Y-112672D01*
X530943Y-113529D01*
Y-116386D01*
X533085Y-110387D02*
X533371Y-110673D01*
X533657Y-110387D01*
X533371Y-110101D01*
X533085Y-110387D01*
X533371Y-112387D02*
Y-116386D01*
X538142Y-113244D02*
X537570Y-112672D01*
X536999Y-112387D01*
X536142D01*
X535571Y-112672D01*
X534999Y-113244D01*
X534714Y-114101D01*
Y-114672D01*
X534999Y-115529D01*
X535571Y-116100D01*
X536142Y-116386D01*
X536999D01*
X537570Y-116100D01*
X538142Y-115529D01*
X539427Y-110387D02*
Y-116386D01*
X542284Y-112387D02*
X539427Y-115243D01*
X540570Y-114101D02*
X542569Y-116386D01*
X543512Y-112387D02*
Y-116386D01*
Y-113529D02*
X544369Y-112672D01*
X544940Y-112387D01*
X545797D01*
X546368Y-112672D01*
X546654Y-113529D01*
Y-116386D01*
X548225Y-114101D02*
X551653D01*
Y-113529D01*
X551367Y-112958D01*
X551082Y-112672D01*
X550510Y-112387D01*
X549653D01*
X549082Y-112672D01*
X548511Y-113244D01*
X548225Y-114101D01*
Y-114672D01*
X548511Y-115529D01*
X549082Y-116100D01*
X549653Y-116386D01*
X550510D01*
X551082Y-116100D01*
X551653Y-115529D01*
X556081Y-113244D02*
X555795Y-112672D01*
X554938Y-112387D01*
X554081D01*
X553224Y-112672D01*
X552938Y-113244D01*
X553224Y-113815D01*
X553795Y-114101D01*
X555224Y-114386D01*
X555795Y-114672D01*
X556081Y-115243D01*
Y-115529D01*
X555795Y-116100D01*
X554938Y-116386D01*
X554081D01*
X553224Y-116100D01*
X552938Y-115529D01*
X560480Y-113244D02*
X560194Y-112672D01*
X559337Y-112387D01*
X558480D01*
X557623Y-112672D01*
X557338Y-113244D01*
X557623Y-113815D01*
X558194Y-114101D01*
X559623Y-114386D01*
X560194Y-114672D01*
X560480Y-115243D01*
Y-115529D01*
X560194Y-116100D01*
X559337Y-116386D01*
X558480D01*
X557623Y-116100D01*
X557338Y-115529D01*
X460841Y-135244D02*
X460269Y-134673D01*
X459413Y-134387D01*
X458270D01*
X457413Y-134673D01*
X456842Y-135244D01*
Y-135815D01*
X457127Y-136387D01*
X457413Y-136672D01*
X457984Y-136958D01*
X459698Y-137529D01*
X460269Y-137815D01*
X460555Y-138101D01*
X460841Y-138672D01*
Y-139529D01*
X460269Y-140100D01*
X459413Y-140386D01*
X458270D01*
X457413Y-140100D01*
X456842Y-139529D01*
X463612Y-136387D02*
X463040Y-136672D01*
X462469Y-137244D01*
X462183Y-138101D01*
Y-138672D01*
X462469Y-139529D01*
X463040Y-140100D01*
X463612Y-140386D01*
X464469D01*
X465040Y-140100D01*
X465611Y-139529D01*
X465897Y-138672D01*
Y-138101D01*
X465611Y-137244D01*
X465040Y-136672D01*
X464469Y-136387D01*
X463612D01*
X467211Y-134387D02*
Y-140386D01*
X471896Y-134387D02*
Y-140386D01*
Y-137244D02*
X471324Y-136672D01*
X470753Y-136387D01*
X469896D01*
X469325Y-136672D01*
X468753Y-137244D01*
X468468Y-138101D01*
Y-138672D01*
X468753Y-139529D01*
X469325Y-140100D01*
X469896Y-140386D01*
X470753D01*
X471324Y-140100D01*
X471896Y-139529D01*
X473495Y-138101D02*
X476923D01*
Y-137529D01*
X476637Y-136958D01*
X476352Y-136672D01*
X475780Y-136387D01*
X474924D01*
X474352Y-136672D01*
X473781Y-137244D01*
X473495Y-138101D01*
Y-138672D01*
X473781Y-139529D01*
X474352Y-140100D01*
X474924Y-140386D01*
X475780D01*
X476352Y-140100D01*
X476923Y-139529D01*
X478209Y-136387D02*
Y-140386D01*
Y-138101D02*
X478494Y-137244D01*
X479066Y-136672D01*
X479637Y-136387D01*
X480494D01*
X485750Y-134387D02*
Y-140386D01*
Y-134387D02*
X488321D01*
X489178Y-134673D01*
X489463Y-134958D01*
X489749Y-135530D01*
Y-136101D01*
X489463Y-136672D01*
X489178Y-136958D01*
X488321Y-137244D01*
X485750D01*
X487749D02*
X489749Y-140386D01*
X491091Y-138101D02*
X494519D01*
Y-137529D01*
X494234Y-136958D01*
X493948Y-136672D01*
X493377Y-136387D01*
X492520D01*
X491949Y-136672D01*
X491377Y-137244D01*
X491091Y-138101D01*
Y-138672D01*
X491377Y-139529D01*
X491949Y-140100D01*
X492520Y-140386D01*
X493377D01*
X493948Y-140100D01*
X494519Y-139529D01*
X498947Y-137244D02*
X498661Y-136672D01*
X497804Y-136387D01*
X496947D01*
X496090Y-136672D01*
X495805Y-137244D01*
X496090Y-137815D01*
X496662Y-138101D01*
X498090Y-138386D01*
X498661Y-138672D01*
X498947Y-139243D01*
Y-139529D01*
X498661Y-140100D01*
X497804Y-140386D01*
X496947D01*
X496090Y-140100D01*
X495805Y-139529D01*
X500775Y-134387D02*
X501061Y-134673D01*
X501346Y-134387D01*
X501061Y-134101D01*
X500775Y-134387D01*
X501061Y-136387D02*
Y-140386D01*
X505546Y-137244D02*
X505260Y-136672D01*
X504403Y-136387D01*
X503546D01*
X502689Y-136672D01*
X502403Y-137244D01*
X502689Y-137815D01*
X503260Y-138101D01*
X504689Y-138386D01*
X505260Y-138672D01*
X505546Y-139243D01*
Y-139529D01*
X505260Y-140100D01*
X504403Y-140386D01*
X503546D01*
X502689Y-140100D01*
X502403Y-139529D01*
X507659Y-134387D02*
Y-139243D01*
X507945Y-140100D01*
X508516Y-140386D01*
X509088D01*
X506802Y-136387D02*
X508802D01*
X461127Y-147815D02*
X460841Y-147244D01*
X460269Y-146673D01*
X459698Y-146387D01*
X458556D01*
X457984Y-146673D01*
X457413Y-147244D01*
X457127Y-147815D01*
X456842Y-148672D01*
Y-150101D01*
X457127Y-150958D01*
X457413Y-151529D01*
X457984Y-152100D01*
X458556Y-152386D01*
X459698D01*
X460269Y-152100D01*
X460841Y-151529D01*
X461127Y-150958D01*
X464240Y-148387D02*
X463669Y-148672D01*
X463097Y-149244D01*
X462812Y-150101D01*
Y-150672D01*
X463097Y-151529D01*
X463669Y-152100D01*
X464240Y-152386D01*
X465097D01*
X465668Y-152100D01*
X466240Y-151529D01*
X466525Y-150672D01*
Y-150101D01*
X466240Y-149244D01*
X465668Y-148672D01*
X465097Y-148387D01*
X464240D01*
X467839D02*
Y-154385D01*
Y-149244D02*
X468411Y-148672D01*
X468982Y-148387D01*
X469839D01*
X470410Y-148672D01*
X470982Y-149244D01*
X471267Y-150101D01*
Y-150672D01*
X470982Y-151529D01*
X470410Y-152100D01*
X469839Y-152386D01*
X468982D01*
X468411Y-152100D01*
X467839Y-151529D01*
X472553Y-148387D02*
Y-154385D01*
Y-149244D02*
X473124Y-148672D01*
X473695Y-148387D01*
X474552D01*
X475124Y-148672D01*
X475695Y-149244D01*
X475981Y-150101D01*
Y-150672D01*
X475695Y-151529D01*
X475124Y-152100D01*
X474552Y-152386D01*
X473695D01*
X473124Y-152100D01*
X472553Y-151529D01*
X477266Y-150101D02*
X480694D01*
Y-149529D01*
X480408Y-148958D01*
X480122Y-148672D01*
X479551Y-148387D01*
X478694D01*
X478123Y-148672D01*
X477552Y-149244D01*
X477266Y-150101D01*
Y-150672D01*
X477552Y-151529D01*
X478123Y-152100D01*
X478694Y-152386D01*
X479551D01*
X480122Y-152100D01*
X480694Y-151529D01*
X481979Y-148387D02*
Y-152386D01*
Y-150101D02*
X482265Y-149244D01*
X482836Y-148672D01*
X483407Y-148387D01*
X484264D01*
X456842Y-158387D02*
Y-164386D01*
Y-158387D02*
X460555D01*
X456842Y-161244D02*
X459127D01*
X461241Y-158387D02*
Y-164386D01*
Y-158387D02*
X463812D01*
X464669Y-158673D01*
X464954Y-158958D01*
X465240Y-159530D01*
Y-160101D01*
X464954Y-160672D01*
X464669Y-160958D01*
X463812Y-161244D01*
X461241D01*
X463240D02*
X465240Y-164386D01*
X466582Y-161815D02*
X471724D01*
X476352Y-158387D02*
X473495Y-162386D01*
X477780D01*
X476352Y-158387D02*
Y-164386D01*
X461127Y-171815D02*
X460841Y-171244D01*
X460269Y-170673D01*
X459698Y-170387D01*
X458556D01*
X457984Y-170673D01*
X457413Y-171244D01*
X457127Y-171815D01*
X456842Y-172672D01*
Y-174101D01*
X457127Y-174958D01*
X457413Y-175529D01*
X457984Y-176100D01*
X458556Y-176386D01*
X459698D01*
X460269Y-176100D01*
X460841Y-175529D01*
X461127Y-174958D01*
X464240Y-172387D02*
X463669Y-172672D01*
X463097Y-173244D01*
X462812Y-174101D01*
Y-174672D01*
X463097Y-175529D01*
X463669Y-176100D01*
X464240Y-176386D01*
X465097D01*
X465668Y-176100D01*
X466240Y-175529D01*
X466525Y-174672D01*
Y-174101D01*
X466240Y-173244D01*
X465668Y-172672D01*
X465097Y-172387D01*
X464240D01*
X467839D02*
Y-178385D01*
Y-173244D02*
X468411Y-172672D01*
X468982Y-172387D01*
X469839D01*
X470410Y-172672D01*
X470982Y-173244D01*
X471267Y-174101D01*
Y-174672D01*
X470982Y-175529D01*
X470410Y-176100D01*
X469839Y-176386D01*
X468982D01*
X468411Y-176100D01*
X467839Y-175529D01*
X472553Y-172387D02*
Y-178385D01*
Y-173244D02*
X473124Y-172672D01*
X473695Y-172387D01*
X474552D01*
X475124Y-172672D01*
X475695Y-173244D01*
X475981Y-174101D01*
Y-174672D01*
X475695Y-175529D01*
X475124Y-176100D01*
X474552Y-176386D01*
X473695D01*
X473124Y-176100D01*
X472553Y-175529D01*
X477266Y-174101D02*
X480694D01*
Y-173529D01*
X480408Y-172958D01*
X480122Y-172672D01*
X479551Y-172387D01*
X478694D01*
X478123Y-172672D01*
X477552Y-173244D01*
X477266Y-174101D01*
Y-174672D01*
X477552Y-175529D01*
X478123Y-176100D01*
X478694Y-176386D01*
X479551D01*
X480122Y-176100D01*
X480694Y-175529D01*
X481979Y-172387D02*
Y-176386D01*
Y-174101D02*
X482265Y-173244D01*
X482836Y-172672D01*
X483407Y-172387D01*
X484264D01*
X460841Y-183244D02*
X460269Y-182673D01*
X459413Y-182387D01*
X458270D01*
X457413Y-182673D01*
X456842Y-183244D01*
Y-183815D01*
X457127Y-184387D01*
X457413Y-184672D01*
X457984Y-184958D01*
X459698Y-185529D01*
X460269Y-185815D01*
X460555Y-186101D01*
X460841Y-186672D01*
Y-187529D01*
X460269Y-188100D01*
X459413Y-188386D01*
X458270D01*
X457413Y-188100D01*
X456842Y-187529D01*
X463612Y-184387D02*
X463040Y-184672D01*
X462469Y-185244D01*
X462183Y-186101D01*
Y-186672D01*
X462469Y-187529D01*
X463040Y-188100D01*
X463612Y-188386D01*
X464469D01*
X465040Y-188100D01*
X465611Y-187529D01*
X465897Y-186672D01*
Y-186101D01*
X465611Y-185244D01*
X465040Y-184672D01*
X464469Y-184387D01*
X463612D01*
X467211Y-182387D02*
Y-188386D01*
X471896Y-182387D02*
Y-188386D01*
Y-185244D02*
X471324Y-184672D01*
X470753Y-184387D01*
X469896D01*
X469325Y-184672D01*
X468753Y-185244D01*
X468468Y-186101D01*
Y-186672D01*
X468753Y-187529D01*
X469325Y-188100D01*
X469896Y-188386D01*
X470753D01*
X471324Y-188100D01*
X471896Y-187529D01*
X473495Y-186101D02*
X476923D01*
Y-185529D01*
X476637Y-184958D01*
X476352Y-184672D01*
X475780Y-184387D01*
X474924D01*
X474352Y-184672D01*
X473781Y-185244D01*
X473495Y-186101D01*
Y-186672D01*
X473781Y-187529D01*
X474352Y-188100D01*
X474924Y-188386D01*
X475780D01*
X476352Y-188100D01*
X476923Y-187529D01*
X478209Y-184387D02*
Y-188386D01*
Y-186101D02*
X478494Y-185244D01*
X479066Y-184672D01*
X479637Y-184387D01*
X480494D01*
X485750Y-182387D02*
Y-188386D01*
Y-182387D02*
X488321D01*
X489178Y-182673D01*
X489463Y-182958D01*
X489749Y-183530D01*
Y-184101D01*
X489463Y-184672D01*
X489178Y-184958D01*
X488321Y-185244D01*
X485750D01*
X487749D02*
X489749Y-188386D01*
X491091Y-186101D02*
X494519D01*
Y-185529D01*
X494234Y-184958D01*
X493948Y-184672D01*
X493377Y-184387D01*
X492520D01*
X491949Y-184672D01*
X491377Y-185244D01*
X491091Y-186101D01*
Y-186672D01*
X491377Y-187529D01*
X491949Y-188100D01*
X492520Y-188386D01*
X493377D01*
X493948Y-188100D01*
X494519Y-187529D01*
X498947Y-185244D02*
X498661Y-184672D01*
X497804Y-184387D01*
X496947D01*
X496090Y-184672D01*
X495805Y-185244D01*
X496090Y-185815D01*
X496662Y-186101D01*
X498090Y-186386D01*
X498661Y-186672D01*
X498947Y-187243D01*
Y-187529D01*
X498661Y-188100D01*
X497804Y-188386D01*
X496947D01*
X496090Y-188100D01*
X495805Y-187529D01*
X500775Y-182387D02*
X501061Y-182673D01*
X501346Y-182387D01*
X501061Y-182102D01*
X500775Y-182387D01*
X501061Y-184387D02*
Y-188386D01*
X505546Y-185244D02*
X505260Y-184672D01*
X504403Y-184387D01*
X503546D01*
X502689Y-184672D01*
X502403Y-185244D01*
X502689Y-185815D01*
X503260Y-186101D01*
X504689Y-186386D01*
X505260Y-186672D01*
X505546Y-187243D01*
Y-187529D01*
X505260Y-188100D01*
X504403Y-188386D01*
X503546D01*
X502689Y-188100D01*
X502403Y-187529D01*
X507659Y-182387D02*
Y-187243D01*
X507945Y-188100D01*
X508516Y-188386D01*
X509088D01*
X506802Y-184387D02*
X508802D01*
X456842Y-110387D02*
Y-116386D01*
Y-110387D02*
X459127Y-116386D01*
X461412Y-110387D02*
X459127Y-116386D01*
X461412Y-110387D02*
Y-116386D01*
X466554Y-112387D02*
Y-116386D01*
Y-113244D02*
X465983Y-112672D01*
X465411Y-112387D01*
X464554D01*
X463983Y-112672D01*
X463412Y-113244D01*
X463126Y-114101D01*
Y-114672D01*
X463412Y-115529D01*
X463983Y-116100D01*
X464554Y-116386D01*
X465411D01*
X465983Y-116100D01*
X466554Y-115529D01*
X469010Y-110387D02*
Y-115243D01*
X469296Y-116100D01*
X469868Y-116386D01*
X470439D01*
X468154Y-112387D02*
X470153D01*
X471296Y-114101D02*
X474724D01*
Y-113529D01*
X474438Y-112958D01*
X474152Y-112672D01*
X473581Y-112387D01*
X472724D01*
X472153Y-112672D01*
X471581Y-113244D01*
X471296Y-114101D01*
Y-114672D01*
X471581Y-115529D01*
X472153Y-116100D01*
X472724Y-116386D01*
X473581D01*
X474152Y-116100D01*
X474724Y-115529D01*
X476009Y-112387D02*
Y-116386D01*
Y-114101D02*
X476295Y-113244D01*
X476866Y-112672D01*
X477437Y-112387D01*
X478294D01*
X479408Y-110387D02*
X479694Y-110673D01*
X479980Y-110387D01*
X479694Y-110101D01*
X479408Y-110387D01*
X479694Y-112387D02*
Y-116386D01*
X484464Y-112387D02*
Y-116386D01*
Y-113244D02*
X483893Y-112672D01*
X483322Y-112387D01*
X482465D01*
X481893Y-112672D01*
X481322Y-113244D01*
X481037Y-114101D01*
Y-114672D01*
X481322Y-115529D01*
X481893Y-116100D01*
X482465Y-116386D01*
X483322D01*
X483893Y-116100D01*
X484464Y-115529D01*
X486064Y-110387D02*
Y-116386D01*
X382369Y-122387D02*
Y-128386D01*
X380369Y-122387D02*
X384368D01*
X386511Y-124387D02*
X385940Y-124672D01*
X385368Y-125244D01*
X385083Y-126101D01*
Y-126672D01*
X385368Y-127529D01*
X385940Y-128100D01*
X386511Y-128386D01*
X387368D01*
X387939Y-128100D01*
X388510Y-127529D01*
X388796Y-126672D01*
Y-126101D01*
X388510Y-125244D01*
X387939Y-124672D01*
X387368Y-124387D01*
X386511D01*
X390110D02*
Y-130385D01*
Y-125244D02*
X390682Y-124672D01*
X391253Y-124387D01*
X392110D01*
X392681Y-124672D01*
X393252Y-125244D01*
X393538Y-126101D01*
Y-126672D01*
X393252Y-127529D01*
X392681Y-128100D01*
X392110Y-128386D01*
X391253D01*
X390682Y-128100D01*
X390110Y-127529D01*
X401251Y-122387D02*
X400679Y-122673D01*
X400108Y-123244D01*
X399822Y-123815D01*
X399537Y-124672D01*
Y-126101D01*
X399822Y-126958D01*
X400108Y-127529D01*
X400679Y-128100D01*
X401251Y-128386D01*
X402393D01*
X402965Y-128100D01*
X403536Y-127529D01*
X403822Y-126958D01*
X404107Y-126101D01*
Y-124672D01*
X403822Y-123815D01*
X403536Y-123244D01*
X402965Y-122673D01*
X402393Y-122387D01*
X401251D01*
X405507Y-124387D02*
X407221Y-128386D01*
X408935Y-124387D02*
X407221Y-128386D01*
X409906Y-126101D02*
X413334D01*
Y-125529D01*
X413048Y-124958D01*
X412762Y-124672D01*
X412191Y-124387D01*
X411334D01*
X410763Y-124672D01*
X410192Y-125244D01*
X409906Y-126101D01*
Y-126672D01*
X410192Y-127529D01*
X410763Y-128100D01*
X411334Y-128386D01*
X412191D01*
X412762Y-128100D01*
X413334Y-127529D01*
X414619Y-124387D02*
Y-128386D01*
Y-126101D02*
X414905Y-125244D01*
X415476Y-124672D01*
X416047Y-124387D01*
X416904D01*
X417447Y-122387D02*
Y-128386D01*
X422132Y-124387D02*
Y-128386D01*
Y-125244D02*
X421561Y-124672D01*
X420989Y-124387D01*
X420132D01*
X419561Y-124672D01*
X418990Y-125244D01*
X418704Y-126101D01*
Y-126672D01*
X418990Y-127529D01*
X419561Y-128100D01*
X420132Y-128386D01*
X420989D01*
X421561Y-128100D01*
X422132Y-127529D01*
X424017Y-124387D02*
X425731Y-128386D01*
X427445Y-124387D02*
X425731Y-128386D01*
X425160Y-129528D01*
X424588Y-130100D01*
X424017Y-130385D01*
X423732D01*
X382369Y-134387D02*
Y-140386D01*
X380369Y-134387D02*
X384368D01*
X386511Y-136387D02*
X385940Y-136672D01*
X385368Y-137244D01*
X385083Y-138101D01*
Y-138672D01*
X385368Y-139529D01*
X385940Y-140100D01*
X386511Y-140386D01*
X387368D01*
X387939Y-140100D01*
X388510Y-139529D01*
X388796Y-138672D01*
Y-138101D01*
X388510Y-137244D01*
X387939Y-136672D01*
X387368Y-136387D01*
X386511D01*
X390110D02*
Y-142385D01*
Y-137244D02*
X390682Y-136672D01*
X391253Y-136387D01*
X392110D01*
X392681Y-136672D01*
X393252Y-137244D01*
X393538Y-138101D01*
Y-138672D01*
X393252Y-139529D01*
X392681Y-140100D01*
X392110Y-140386D01*
X391253D01*
X390682Y-140100D01*
X390110Y-139529D01*
X403536Y-135244D02*
X402965Y-134673D01*
X402108Y-134387D01*
X400965D01*
X400108Y-134673D01*
X399537Y-135244D01*
Y-135815D01*
X399822Y-136387D01*
X400108Y-136672D01*
X400679Y-136958D01*
X402393Y-137529D01*
X402965Y-137815D01*
X403250Y-138101D01*
X403536Y-138672D01*
Y-139529D01*
X402965Y-140100D01*
X402108Y-140386D01*
X400965D01*
X400108Y-140100D01*
X399537Y-139529D01*
X406307Y-136387D02*
X405735Y-136672D01*
X405164Y-137244D01*
X404878Y-138101D01*
Y-138672D01*
X405164Y-139529D01*
X405735Y-140100D01*
X406307Y-140386D01*
X407164D01*
X407735Y-140100D01*
X408306Y-139529D01*
X408592Y-138672D01*
Y-138101D01*
X408306Y-137244D01*
X407735Y-136672D01*
X407164Y-136387D01*
X406307D01*
X409906Y-134387D02*
Y-140386D01*
X414591Y-134387D02*
Y-140386D01*
Y-137244D02*
X414019Y-136672D01*
X413448Y-136387D01*
X412591D01*
X412020Y-136672D01*
X411448Y-137244D01*
X411163Y-138101D01*
Y-138672D01*
X411448Y-139529D01*
X412020Y-140100D01*
X412591Y-140386D01*
X413448D01*
X414019Y-140100D01*
X414591Y-139529D01*
X416190Y-138101D02*
X419618D01*
Y-137529D01*
X419333Y-136958D01*
X419047Y-136672D01*
X418475Y-136387D01*
X417619D01*
X417047Y-136672D01*
X416476Y-137244D01*
X416190Y-138101D01*
Y-138672D01*
X416476Y-139529D01*
X417047Y-140100D01*
X417619Y-140386D01*
X418475D01*
X419047Y-140100D01*
X419618Y-139529D01*
X420904Y-136387D02*
Y-140386D01*
Y-138101D02*
X421189Y-137244D01*
X421761Y-136672D01*
X422332Y-136387D01*
X423189D01*
X382369Y-146387D02*
Y-152386D01*
X380369Y-146387D02*
X384368D01*
X386511Y-148387D02*
X385940Y-148672D01*
X385368Y-149244D01*
X385083Y-150101D01*
Y-150672D01*
X385368Y-151529D01*
X385940Y-152100D01*
X386511Y-152386D01*
X387368D01*
X387939Y-152100D01*
X388510Y-151529D01*
X388796Y-150672D01*
Y-150101D01*
X388510Y-149244D01*
X387939Y-148672D01*
X387368Y-148387D01*
X386511D01*
X390110D02*
Y-154385D01*
Y-149244D02*
X390682Y-148672D01*
X391253Y-148387D01*
X392110D01*
X392681Y-148672D01*
X393252Y-149244D01*
X393538Y-150101D01*
Y-150672D01*
X393252Y-151529D01*
X392681Y-152100D01*
X392110Y-152386D01*
X391253D01*
X390682Y-152100D01*
X390110Y-151529D01*
X399537Y-146387D02*
Y-152386D01*
X402965D01*
X407049Y-148387D02*
Y-152386D01*
Y-149244D02*
X406478Y-148672D01*
X405907Y-148387D01*
X405050D01*
X404479Y-148672D01*
X403907Y-149244D01*
X403622Y-150101D01*
Y-150672D01*
X403907Y-151529D01*
X404479Y-152100D01*
X405050Y-152386D01*
X405907D01*
X406478Y-152100D01*
X407049Y-151529D01*
X408935Y-148387D02*
X410649Y-152386D01*
X412362Y-148387D02*
X410649Y-152386D01*
X410077Y-153528D01*
X409506Y-154100D01*
X408935Y-154385D01*
X408649D01*
X413362Y-150101D02*
X416790D01*
Y-149529D01*
X416504Y-148958D01*
X416219Y-148672D01*
X415648Y-148387D01*
X414791D01*
X414219Y-148672D01*
X413648Y-149244D01*
X413362Y-150101D01*
Y-150672D01*
X413648Y-151529D01*
X414219Y-152100D01*
X414791Y-152386D01*
X415648D01*
X416219Y-152100D01*
X416790Y-151529D01*
X418076Y-148387D02*
Y-152386D01*
Y-150101D02*
X418361Y-149244D01*
X418933Y-148672D01*
X419504Y-148387D01*
X420361D01*
X380369Y-158387D02*
Y-164386D01*
Y-158387D02*
X382369D01*
X383226Y-158673D01*
X383797Y-159244D01*
X384083Y-159815D01*
X384368Y-160672D01*
Y-162101D01*
X384083Y-162958D01*
X383797Y-163529D01*
X383226Y-164100D01*
X382369Y-164386D01*
X380369D01*
X386282Y-158387D02*
X386568Y-158673D01*
X386854Y-158387D01*
X386568Y-158101D01*
X386282Y-158387D01*
X386568Y-160387D02*
Y-164386D01*
X387911Y-162101D02*
X391338D01*
Y-161529D01*
X391053Y-160958D01*
X390767Y-160672D01*
X390196Y-160387D01*
X389339D01*
X388768Y-160672D01*
X388196Y-161244D01*
X387911Y-162101D01*
Y-162672D01*
X388196Y-163529D01*
X388768Y-164100D01*
X389339Y-164386D01*
X390196D01*
X390767Y-164100D01*
X391338Y-163529D01*
X392624Y-158387D02*
Y-164386D01*
X393881Y-162101D02*
X397309D01*
Y-161529D01*
X397023Y-160958D01*
X396737Y-160672D01*
X396166Y-160387D01*
X395309D01*
X394738Y-160672D01*
X394166Y-161244D01*
X393881Y-162101D01*
Y-162672D01*
X394166Y-163529D01*
X394738Y-164100D01*
X395309Y-164386D01*
X396166D01*
X396737Y-164100D01*
X397309Y-163529D01*
X402022Y-161244D02*
X401451Y-160672D01*
X400879Y-160387D01*
X400022D01*
X399451Y-160672D01*
X398880Y-161244D01*
X398594Y-162101D01*
Y-162672D01*
X398880Y-163529D01*
X399451Y-164100D01*
X400022Y-164386D01*
X400879D01*
X401451Y-164100D01*
X402022Y-163529D01*
X404164Y-158387D02*
Y-163243D01*
X404450Y-164100D01*
X405021Y-164386D01*
X405593D01*
X403307Y-160387D02*
X405307D01*
X406450D02*
Y-164386D01*
Y-162101D02*
X406735Y-161244D01*
X407306Y-160672D01*
X407878Y-160387D01*
X408735D01*
X409849Y-158387D02*
X410135Y-158673D01*
X410420Y-158387D01*
X410135Y-158101D01*
X409849Y-158387D01*
X410135Y-160387D02*
Y-164386D01*
X414905Y-161244D02*
X414334Y-160672D01*
X413762Y-160387D01*
X412905D01*
X412334Y-160672D01*
X411763Y-161244D01*
X411477Y-162101D01*
Y-162672D01*
X411763Y-163529D01*
X412334Y-164100D01*
X412905Y-164386D01*
X413762D01*
X414334Y-164100D01*
X414905Y-163529D01*
X420904Y-159530D02*
X421475Y-159244D01*
X422332Y-158387D01*
Y-164386D01*
X380369Y-170387D02*
Y-176386D01*
Y-170387D02*
X382940D01*
X383797Y-170673D01*
X384083Y-170958D01*
X384368Y-171530D01*
Y-172101D01*
X384083Y-172672D01*
X383797Y-172958D01*
X382940Y-173244D01*
X380369D02*
X382940D01*
X383797Y-173529D01*
X384083Y-173815D01*
X384368Y-174386D01*
Y-175243D01*
X384083Y-175814D01*
X383797Y-176100D01*
X382940Y-176386D01*
X380369D01*
X387139Y-172387D02*
X386568Y-172672D01*
X385997Y-173244D01*
X385711Y-174101D01*
Y-174672D01*
X385997Y-175529D01*
X386568Y-176100D01*
X387139Y-176386D01*
X387996D01*
X388568Y-176100D01*
X389139Y-175529D01*
X389425Y-174672D01*
Y-174101D01*
X389139Y-173244D01*
X388568Y-172672D01*
X387996Y-172387D01*
X387139D01*
X391596Y-170387D02*
Y-175243D01*
X391881Y-176100D01*
X392453Y-176386D01*
X393024D01*
X390739Y-172387D02*
X392738D01*
X394738Y-170387D02*
Y-175243D01*
X395023Y-176100D01*
X395595Y-176386D01*
X396166D01*
X393881Y-172387D02*
X395880D01*
X398451D02*
X397880Y-172672D01*
X397309Y-173244D01*
X397023Y-174101D01*
Y-174672D01*
X397309Y-175529D01*
X397880Y-176100D01*
X398451Y-176386D01*
X399308D01*
X399880Y-176100D01*
X400451Y-175529D01*
X400736Y-174672D01*
Y-174101D01*
X400451Y-173244D01*
X399880Y-172672D01*
X399308Y-172387D01*
X398451D01*
X402050D02*
Y-176386D01*
Y-173529D02*
X402907Y-172672D01*
X403479Y-172387D01*
X404336D01*
X404907Y-172672D01*
X405193Y-173529D01*
Y-176386D01*
Y-173529D02*
X406050Y-172672D01*
X406621Y-172387D01*
X407478D01*
X408049Y-172672D01*
X408335Y-173529D01*
Y-176386D01*
X414933Y-170387D02*
Y-176386D01*
X418361D01*
X422446Y-172387D02*
Y-176386D01*
Y-173244D02*
X421875Y-172672D01*
X421304Y-172387D01*
X420446D01*
X419875Y-172672D01*
X419304Y-173244D01*
X419018Y-174101D01*
Y-174672D01*
X419304Y-175529D01*
X419875Y-176100D01*
X420446Y-176386D01*
X421304D01*
X421875Y-176100D01*
X422446Y-175529D01*
X424331Y-172387D02*
X426045Y-176386D01*
X427759Y-172387D02*
X426045Y-176386D01*
X425474Y-177528D01*
X424903Y-178100D01*
X424331Y-178385D01*
X424046D01*
X428759Y-174101D02*
X432187D01*
Y-173529D01*
X431901Y-172958D01*
X431615Y-172672D01*
X431044Y-172387D01*
X430187D01*
X429616Y-172672D01*
X429045Y-173244D01*
X428759Y-174101D01*
Y-174672D01*
X429045Y-175529D01*
X429616Y-176100D01*
X430187Y-176386D01*
X431044D01*
X431615Y-176100D01*
X432187Y-175529D01*
X433472Y-172387D02*
Y-176386D01*
Y-174101D02*
X433758Y-173244D01*
X434329Y-172672D01*
X434901Y-172387D01*
X435757D01*
X380369Y-182387D02*
Y-188386D01*
Y-182387D02*
X382940D01*
X383797Y-182673D01*
X384083Y-182958D01*
X384368Y-183530D01*
Y-184101D01*
X384083Y-184672D01*
X383797Y-184958D01*
X382940Y-185244D01*
X380369D02*
X382940D01*
X383797Y-185529D01*
X384083Y-185815D01*
X384368Y-186386D01*
Y-187243D01*
X384083Y-187814D01*
X383797Y-188100D01*
X382940Y-188386D01*
X380369D01*
X387139Y-184387D02*
X386568Y-184672D01*
X385997Y-185244D01*
X385711Y-186101D01*
Y-186672D01*
X385997Y-187529D01*
X386568Y-188100D01*
X387139Y-188386D01*
X387996D01*
X388568Y-188100D01*
X389139Y-187529D01*
X389425Y-186672D01*
Y-186101D01*
X389139Y-185244D01*
X388568Y-184672D01*
X387996Y-184387D01*
X387139D01*
X391596Y-182387D02*
Y-187243D01*
X391881Y-188100D01*
X392453Y-188386D01*
X393024D01*
X390739Y-184387D02*
X392738D01*
X394738Y-182387D02*
Y-187243D01*
X395023Y-188100D01*
X395595Y-188386D01*
X396166D01*
X393881Y-184387D02*
X395880D01*
X398451D02*
X397880Y-184672D01*
X397309Y-185244D01*
X397023Y-186101D01*
Y-186672D01*
X397309Y-187529D01*
X397880Y-188100D01*
X398451Y-188386D01*
X399308D01*
X399880Y-188100D01*
X400451Y-187529D01*
X400736Y-186672D01*
Y-186101D01*
X400451Y-185244D01*
X399880Y-184672D01*
X399308Y-184387D01*
X398451D01*
X402050D02*
Y-188386D01*
Y-185529D02*
X402907Y-184672D01*
X403479Y-184387D01*
X404336D01*
X404907Y-184672D01*
X405193Y-185529D01*
Y-188386D01*
Y-185529D02*
X406050Y-184672D01*
X406621Y-184387D01*
X407478D01*
X408049Y-184672D01*
X408335Y-185529D01*
Y-188386D01*
X418932Y-183244D02*
X418361Y-182673D01*
X417504Y-182387D01*
X416362D01*
X415505Y-182673D01*
X414933Y-183244D01*
Y-183815D01*
X415219Y-184387D01*
X415505Y-184672D01*
X416076Y-184958D01*
X417790Y-185529D01*
X418361Y-185815D01*
X418647Y-186101D01*
X418932Y-186672D01*
Y-187529D01*
X418361Y-188100D01*
X417504Y-188386D01*
X416362D01*
X415505Y-188100D01*
X414933Y-187529D01*
X421703Y-184387D02*
X421132Y-184672D01*
X420561Y-185244D01*
X420275Y-186101D01*
Y-186672D01*
X420561Y-187529D01*
X421132Y-188100D01*
X421703Y-188386D01*
X422560D01*
X423132Y-188100D01*
X423703Y-187529D01*
X423989Y-186672D01*
Y-186101D01*
X423703Y-185244D01*
X423132Y-184672D01*
X422560Y-184387D01*
X421703D01*
X425303Y-182387D02*
Y-188386D01*
X429987Y-182387D02*
Y-188386D01*
Y-185244D02*
X429416Y-184672D01*
X428845Y-184387D01*
X427988D01*
X427416Y-184672D01*
X426845Y-185244D01*
X426559Y-186101D01*
Y-186672D01*
X426845Y-187529D01*
X427416Y-188100D01*
X427988Y-188386D01*
X428845D01*
X429416Y-188100D01*
X429987Y-187529D01*
X431587Y-186101D02*
X435015D01*
Y-185529D01*
X434729Y-184958D01*
X434444Y-184672D01*
X433872Y-184387D01*
X433015D01*
X432444Y-184672D01*
X431873Y-185244D01*
X431587Y-186101D01*
Y-186672D01*
X431873Y-187529D01*
X432444Y-188100D01*
X433015Y-188386D01*
X433872D01*
X434444Y-188100D01*
X435015Y-187529D01*
X436300Y-184387D02*
Y-188386D01*
Y-186101D02*
X436586Y-185244D01*
X437157Y-184672D01*
X437729Y-184387D01*
X438586D01*
X380369Y-194387D02*
Y-200386D01*
Y-194387D02*
X382940D01*
X383797Y-194673D01*
X384083Y-194958D01*
X384368Y-195530D01*
Y-196101D01*
X384083Y-196672D01*
X383797Y-196958D01*
X382940Y-197244D01*
X380369D02*
X382940D01*
X383797Y-197529D01*
X384083Y-197815D01*
X384368Y-198386D01*
Y-199243D01*
X384083Y-199814D01*
X383797Y-200100D01*
X382940Y-200386D01*
X380369D01*
X387139Y-196387D02*
X386568Y-196672D01*
X385997Y-197244D01*
X385711Y-198101D01*
Y-198672D01*
X385997Y-199529D01*
X386568Y-200100D01*
X387139Y-200386D01*
X387996D01*
X388568Y-200100D01*
X389139Y-199529D01*
X389425Y-198672D01*
Y-198101D01*
X389139Y-197244D01*
X388568Y-196672D01*
X387996Y-196387D01*
X387139D01*
X391596Y-194387D02*
Y-199243D01*
X391881Y-200100D01*
X392453Y-200386D01*
X393024D01*
X390739Y-196387D02*
X392738D01*
X394738Y-194387D02*
Y-199243D01*
X395023Y-200100D01*
X395595Y-200386D01*
X396166D01*
X393881Y-196387D02*
X395880D01*
X398451D02*
X397880Y-196672D01*
X397309Y-197244D01*
X397023Y-198101D01*
Y-198672D01*
X397309Y-199529D01*
X397880Y-200100D01*
X398451Y-200386D01*
X399308D01*
X399880Y-200100D01*
X400451Y-199529D01*
X400736Y-198672D01*
Y-198101D01*
X400451Y-197244D01*
X399880Y-196672D01*
X399308Y-196387D01*
X398451D01*
X402050D02*
Y-200386D01*
Y-197529D02*
X402907Y-196672D01*
X403479Y-196387D01*
X404336D01*
X404907Y-196672D01*
X405193Y-197529D01*
Y-200386D01*
Y-197529D02*
X406050Y-196672D01*
X406621Y-196387D01*
X407478D01*
X408049Y-196672D01*
X408335Y-197529D01*
Y-200386D01*
X416647Y-194387D02*
X416076Y-194673D01*
X415505Y-195244D01*
X415219Y-195815D01*
X414933Y-196672D01*
Y-198101D01*
X415219Y-198958D01*
X415505Y-199529D01*
X416076Y-200100D01*
X416647Y-200386D01*
X417790D01*
X418361Y-200100D01*
X418932Y-199529D01*
X419218Y-198958D01*
X419504Y-198101D01*
Y-196672D01*
X419218Y-195815D01*
X418932Y-195244D01*
X418361Y-194673D01*
X417790Y-194387D01*
X416647D01*
X420903Y-196387D02*
X422617Y-200386D01*
X424331Y-196387D02*
X422617Y-200386D01*
X425303Y-198101D02*
X428730D01*
Y-197529D01*
X428445Y-196958D01*
X428159Y-196672D01*
X427588Y-196387D01*
X426731D01*
X426160Y-196672D01*
X425588Y-197244D01*
X425303Y-198101D01*
Y-198672D01*
X425588Y-199529D01*
X426160Y-200100D01*
X426731Y-200386D01*
X427588D01*
X428159Y-200100D01*
X428730Y-199529D01*
X430016Y-196387D02*
Y-200386D01*
Y-198101D02*
X430302Y-197244D01*
X430873Y-196672D01*
X431444Y-196387D01*
X432301D01*
X432844Y-194387D02*
Y-200386D01*
X437529Y-196387D02*
Y-200386D01*
Y-197244D02*
X436957Y-196672D01*
X436386Y-196387D01*
X435529D01*
X434958Y-196672D01*
X434386Y-197244D01*
X434101Y-198101D01*
Y-198672D01*
X434386Y-199529D01*
X434958Y-200100D01*
X435529Y-200386D01*
X436386D01*
X436957Y-200100D01*
X437529Y-199529D01*
X439414Y-196387D02*
X441128Y-200386D01*
X442842Y-196387D02*
X441128Y-200386D01*
X440556Y-201528D01*
X439985Y-202100D01*
X439414Y-202385D01*
X439128D01*
X380369Y-110387D02*
Y-116386D01*
Y-110387D02*
X384368Y-116386D01*
Y-110387D02*
Y-116386D01*
X389453Y-112387D02*
Y-116386D01*
Y-113244D02*
X388882Y-112672D01*
X388311Y-112387D01*
X387454D01*
X386882Y-112672D01*
X386311Y-113244D01*
X386025Y-114101D01*
Y-114672D01*
X386311Y-115529D01*
X386882Y-116100D01*
X387454Y-116386D01*
X388311D01*
X388882Y-116100D01*
X389453Y-115529D01*
X391053Y-112387D02*
Y-116386D01*
Y-113529D02*
X391910Y-112672D01*
X392481Y-112387D01*
X393338D01*
X393909Y-112672D01*
X394195Y-113529D01*
Y-116386D01*
Y-113529D02*
X395052Y-112672D01*
X395623Y-112387D01*
X396480D01*
X397052Y-112672D01*
X397337Y-113529D01*
Y-116386D01*
X399222Y-114101D02*
X402650D01*
Y-113529D01*
X402365Y-112958D01*
X402079Y-112672D01*
X401508Y-112387D01*
X400651D01*
X400079Y-112672D01*
X399508Y-113244D01*
X399222Y-114101D01*
Y-114672D01*
X399508Y-115529D01*
X400079Y-116100D01*
X400651Y-116386D01*
X401508D01*
X402079Y-116100D01*
X402650Y-115529D01*
X345545Y-147530D02*
X346117Y-147244D01*
X346973Y-146387D01*
Y-152386D01*
X345831Y-171815D02*
Y-171530D01*
X346117Y-170958D01*
X346402Y-170673D01*
X346973Y-170387D01*
X348116D01*
X348688Y-170673D01*
X348973Y-170958D01*
X349259Y-171530D01*
Y-172101D01*
X348973Y-172672D01*
X348402Y-173529D01*
X345545Y-176386D01*
X349544D01*
X345545Y-110387D02*
Y-116386D01*
X348973D01*
X353058Y-112387D02*
Y-116386D01*
Y-113244D02*
X352487Y-112672D01*
X351915Y-112387D01*
X351058D01*
X350487Y-112672D01*
X349916Y-113244D01*
X349630Y-114101D01*
Y-114672D01*
X349916Y-115529D01*
X350487Y-116100D01*
X351058Y-116386D01*
X351915D01*
X352487Y-116100D01*
X353058Y-115529D01*
X354943Y-112387D02*
X356657Y-116386D01*
X358371Y-112387D02*
X356657Y-116386D01*
X356086Y-117528D01*
X355515Y-118100D01*
X354943Y-118385D01*
X354658D01*
X359371Y-114101D02*
X362799D01*
Y-113529D01*
X362513Y-112958D01*
X362227Y-112672D01*
X361656Y-112387D01*
X360799D01*
X360228Y-112672D01*
X359657Y-113244D01*
X359371Y-114101D01*
Y-114672D01*
X359657Y-115529D01*
X360228Y-116100D01*
X360799Y-116386D01*
X361656D01*
X362227Y-116100D01*
X362799Y-115529D01*
X364084Y-112387D02*
Y-116386D01*
Y-114101D02*
X364370Y-113244D01*
X364941Y-112672D01*
X365512Y-112387D01*
X366369D01*
X271654Y-196850D02*
X275591D01*
X275590Y-31496D02*
X275591Y-196850D01*
X0Y0D02*
X275590D01*
Y-31496D02*
Y0D01*
X263779Y-196850D02*
X271654D01*
X0D02*
X263779D01*
X0D02*
Y0D01*
X277091D02*
X285252D01*
X277091Y-196850D02*
X285252D01*
X284252Y-79572D02*
Y0D01*
Y-196850D02*
Y-120478D01*
X282252Y-6000D02*
X284252Y0D01*
X286252Y-6000D01*
X284252Y-196850D02*
X286252Y-190850D01*
X282252D02*
X284252Y-196850D01*
X275591Y-203707D02*
Y-198350D01*
X0Y-203707D02*
Y-198350D01*
X156648Y-202707D02*
X275591D01*
X0D02*
X115742D01*
X269591Y-200707D02*
X275591Y-202707D01*
X269591Y-204707D02*
X275591Y-202707D01*
X0D02*
X6000Y-204707D01*
X0Y-202707D02*
X6000Y-200707D01*
X523088Y-207530D02*
X523659Y-207244D01*
X524516Y-206387D01*
Y-212386D01*
X527772Y-211814D02*
X527487Y-212100D01*
X527772Y-212386D01*
X528058Y-212100D01*
X527772Y-211814D01*
X532800Y-206387D02*
X529943D01*
X529658Y-208958D01*
X529943Y-208672D01*
X530800Y-208387D01*
X531657D01*
X532514Y-208672D01*
X533085Y-209244D01*
X533371Y-210101D01*
Y-210672D01*
X533085Y-211529D01*
X532514Y-212100D01*
X531657Y-212386D01*
X530800D01*
X529943Y-212100D01*
X529658Y-211814D01*
X529372Y-211243D01*
X538427Y-208387D02*
X538142Y-209244D01*
X537570Y-209815D01*
X536713Y-210101D01*
X536428D01*
X535571Y-209815D01*
X534999Y-209244D01*
X534714Y-208387D01*
Y-208101D01*
X534999Y-207244D01*
X535571Y-206673D01*
X536428Y-206387D01*
X536713D01*
X537570Y-206673D01*
X538142Y-207244D01*
X538427Y-208387D01*
Y-209815D01*
X538142Y-211243D01*
X537570Y-212100D01*
X536713Y-212386D01*
X536142D01*
X535285Y-212100D01*
X534999Y-211529D01*
X540056Y-207530D02*
X540627Y-207244D01*
X541484Y-206387D01*
Y-212386D01*
X544454Y-208387D02*
Y-212386D01*
Y-209529D02*
X545311Y-208672D01*
X545883Y-208387D01*
X546740D01*
X547311Y-208672D01*
X547597Y-209529D01*
Y-212386D01*
Y-209529D02*
X548454Y-208672D01*
X549025Y-208387D01*
X549882D01*
X550453Y-208672D01*
X550739Y-209529D01*
Y-212386D01*
X552624Y-208387D02*
Y-212386D01*
Y-209529D02*
X553481Y-208672D01*
X554052Y-208387D01*
X554909D01*
X555481Y-208672D01*
X555766Y-209529D01*
Y-212386D01*
Y-209529D02*
X556623Y-208672D01*
X557195Y-208387D01*
X558052D01*
X558623Y-208672D01*
X558909Y-209529D01*
Y-212386D01*
X347545Y-206387D02*
Y-212386D01*
X345545Y-206387D02*
X349544D01*
X351687Y-208387D02*
X351115Y-208672D01*
X350544Y-209244D01*
X350259Y-210101D01*
Y-210672D01*
X350544Y-211529D01*
X351115Y-212100D01*
X351687Y-212386D01*
X352544D01*
X353115Y-212100D01*
X353686Y-211529D01*
X353972Y-210672D01*
Y-210101D01*
X353686Y-209244D01*
X353115Y-208672D01*
X352544Y-208387D01*
X351687D01*
X356143Y-206387D02*
Y-211243D01*
X356429Y-212100D01*
X357000Y-212386D01*
X357571D01*
X355286Y-208387D02*
X357286D01*
X361856D02*
Y-212386D01*
Y-209244D02*
X361285Y-208672D01*
X360714Y-208387D01*
X359857D01*
X359285Y-208672D01*
X358714Y-209244D01*
X358428Y-210101D01*
Y-210672D01*
X358714Y-211529D01*
X359285Y-212100D01*
X359857Y-212386D01*
X360714D01*
X361285Y-212100D01*
X361856Y-211529D01*
X363456Y-206387D02*
Y-212386D01*
X369426Y-206387D02*
Y-212386D01*
Y-209244D02*
X369997Y-208672D01*
X370568Y-208387D01*
X371425D01*
X371997Y-208672D01*
X372568Y-209244D01*
X372854Y-210101D01*
Y-210672D01*
X372568Y-211529D01*
X371997Y-212100D01*
X371425Y-212386D01*
X370568D01*
X369997Y-212100D01*
X369426Y-211529D01*
X375567Y-208387D02*
X374996Y-208672D01*
X374425Y-209244D01*
X374139Y-210101D01*
Y-210672D01*
X374425Y-211529D01*
X374996Y-212100D01*
X375567Y-212386D01*
X376424D01*
X376996Y-212100D01*
X377567Y-211529D01*
X377853Y-210672D01*
Y-210101D01*
X377567Y-209244D01*
X376996Y-208672D01*
X376424Y-208387D01*
X375567D01*
X382594D02*
Y-212386D01*
Y-209244D02*
X382023Y-208672D01*
X381452Y-208387D01*
X380595D01*
X380024Y-208672D01*
X379452Y-209244D01*
X379167Y-210101D01*
Y-210672D01*
X379452Y-211529D01*
X380024Y-212100D01*
X380595Y-212386D01*
X381452D01*
X382023Y-212100D01*
X382594Y-211529D01*
X384194Y-208387D02*
Y-212386D01*
Y-210101D02*
X384480Y-209244D01*
X385051Y-208672D01*
X385622Y-208387D01*
X386479D01*
X390450Y-206387D02*
Y-212386D01*
Y-209244D02*
X389879Y-208672D01*
X389307Y-208387D01*
X388450D01*
X387879Y-208672D01*
X387308Y-209244D01*
X387022Y-210101D01*
Y-210672D01*
X387308Y-211529D01*
X387879Y-212100D01*
X388450Y-212386D01*
X389307D01*
X389879Y-212100D01*
X390450Y-211529D01*
X397620Y-206387D02*
Y-211243D01*
X397905Y-212100D01*
X398477Y-212386D01*
X399048D01*
X396763Y-208387D02*
X398762D01*
X399905Y-206387D02*
Y-212386D01*
Y-209529D02*
X400762Y-208672D01*
X401333Y-208387D01*
X402190D01*
X402762Y-208672D01*
X403047Y-209529D01*
Y-212386D01*
X405190Y-206387D02*
X405475Y-206673D01*
X405761Y-206387D01*
X405475Y-206101D01*
X405190Y-206387D01*
X405475Y-208387D02*
Y-212386D01*
X410246Y-209244D02*
X409674Y-208672D01*
X409103Y-208387D01*
X408246D01*
X407675Y-208672D01*
X407103Y-209244D01*
X406818Y-210101D01*
Y-210672D01*
X407103Y-211529D01*
X407675Y-212100D01*
X408246Y-212386D01*
X409103D01*
X409674Y-212100D01*
X410246Y-211529D01*
X411531Y-206387D02*
Y-212386D01*
X414388Y-208387D02*
X411531Y-211243D01*
X412674Y-210101D02*
X414673Y-212386D01*
X415616Y-208387D02*
Y-212386D01*
Y-209529D02*
X416473Y-208672D01*
X417044Y-208387D01*
X417901D01*
X418472Y-208672D01*
X418758Y-209529D01*
Y-212386D01*
X420329Y-210101D02*
X423757D01*
Y-209529D01*
X423471Y-208958D01*
X423186Y-208672D01*
X422614Y-208387D01*
X421758D01*
X421186Y-208672D01*
X420615Y-209244D01*
X420329Y-210101D01*
Y-210672D01*
X420615Y-211529D01*
X421186Y-212100D01*
X421758Y-212386D01*
X422614D01*
X423186Y-212100D01*
X423757Y-211529D01*
X428185Y-209244D02*
X427899Y-208672D01*
X427042Y-208387D01*
X426185D01*
X425328Y-208672D01*
X425042Y-209244D01*
X425328Y-209815D01*
X425900Y-210101D01*
X427328Y-210386D01*
X427899Y-210672D01*
X428185Y-211243D01*
Y-211529D01*
X427899Y-212100D01*
X427042Y-212386D01*
X426185D01*
X425328Y-212100D01*
X425042Y-211529D01*
X432584Y-209244D02*
X432298Y-208672D01*
X431441Y-208387D01*
X430584D01*
X429727Y-208672D01*
X429442Y-209244D01*
X429727Y-209815D01*
X430299Y-210101D01*
X431727Y-210386D01*
X432298Y-210672D01*
X432584Y-211243D01*
Y-211529D01*
X432298Y-212100D01*
X431441Y-212386D01*
X430584D01*
X429727Y-212100D01*
X429442Y-211529D01*
X434126Y-208387D02*
X433841Y-208672D01*
X434126Y-208958D01*
X434412Y-208672D01*
X434126Y-208387D01*
Y-211814D02*
X433841Y-212100D01*
X434126Y-212386D01*
X434412Y-212100D01*
X434126Y-211814D01*
X623758Y-110387D02*
Y-116386D01*
Y-110387D02*
X626329D01*
X627186Y-110673D01*
X627471Y-110958D01*
X627757Y-111530D01*
Y-112101D01*
X627471Y-112672D01*
X627186Y-112958D01*
X626329Y-113244D01*
X623758D02*
X626329D01*
X627186Y-113529D01*
X627471Y-113815D01*
X627757Y-114386D01*
Y-115243D01*
X627471Y-115814D01*
X627186Y-116100D01*
X626329Y-116386D01*
X623758D01*
X630528Y-112387D02*
X629956Y-112672D01*
X629385Y-113244D01*
X629100Y-114101D01*
Y-114672D01*
X629385Y-115529D01*
X629956Y-116100D01*
X630528Y-116386D01*
X631385D01*
X631956Y-116100D01*
X632527Y-115529D01*
X632813Y-114672D01*
Y-114101D01*
X632527Y-113244D01*
X631956Y-112672D01*
X631385Y-112387D01*
X630528D01*
X637555D02*
Y-116386D01*
Y-113244D02*
X636984Y-112672D01*
X636412Y-112387D01*
X635555D01*
X634984Y-112672D01*
X634413Y-113244D01*
X634127Y-114101D01*
Y-114672D01*
X634413Y-115529D01*
X634984Y-116100D01*
X635555Y-116386D01*
X636412D01*
X636984Y-116100D01*
X637555Y-115529D01*
X639154Y-112387D02*
Y-116386D01*
Y-114101D02*
X639440Y-113244D01*
X640012Y-112672D01*
X640583Y-112387D01*
X641440D01*
X645410Y-110387D02*
Y-116386D01*
Y-113244D02*
X644839Y-112672D01*
X644268Y-112387D01*
X643411D01*
X642839Y-112672D01*
X642268Y-113244D01*
X641983Y-114101D01*
Y-114672D01*
X642268Y-115529D01*
X642839Y-116100D01*
X643411Y-116386D01*
X644268D01*
X644839Y-116100D01*
X645410Y-115529D01*
X651723Y-110387D02*
Y-116386D01*
X655151D01*
X659236Y-112387D02*
Y-116386D01*
Y-113244D02*
X658665Y-112672D01*
X658093Y-112387D01*
X657236D01*
X656665Y-112672D01*
X656094Y-113244D01*
X655808Y-114101D01*
Y-114672D01*
X656094Y-115529D01*
X656665Y-116100D01*
X657236Y-116386D01*
X658093D01*
X658665Y-116100D01*
X659236Y-115529D01*
X661121Y-112387D02*
X662835Y-116386D01*
X664549Y-112387D02*
X662835Y-116386D01*
X662264Y-117528D01*
X661692Y-118100D01*
X661121Y-118385D01*
X660836D01*
X665549Y-114101D02*
X668977D01*
Y-113529D01*
X668691Y-112958D01*
X668405Y-112672D01*
X667834Y-112387D01*
X666977D01*
X666406Y-112672D01*
X665835Y-113244D01*
X665549Y-114101D01*
Y-114672D01*
X665835Y-115529D01*
X666406Y-116100D01*
X666977Y-116386D01*
X667834D01*
X668405Y-116100D01*
X668977Y-115529D01*
X670262Y-112387D02*
Y-116386D01*
Y-114101D02*
X670548Y-113244D01*
X671119Y-112672D01*
X671690Y-112387D01*
X672547D01*
X681803Y-111244D02*
X681231Y-110673D01*
X680374Y-110387D01*
X679232D01*
X678375Y-110673D01*
X677803Y-111244D01*
Y-111815D01*
X678089Y-112387D01*
X678375Y-112672D01*
X678946Y-112958D01*
X680660Y-113529D01*
X681231Y-113815D01*
X681517Y-114101D01*
X681803Y-114672D01*
Y-115529D01*
X681231Y-116100D01*
X680374Y-116386D01*
X679232D01*
X678375Y-116100D01*
X677803Y-115529D01*
X684002Y-110387D02*
Y-115243D01*
X684288Y-116100D01*
X684859Y-116386D01*
X685430D01*
X683145Y-112387D02*
X685145D01*
X689715D02*
Y-116386D01*
Y-113244D02*
X689144Y-112672D01*
X688573Y-112387D01*
X687715D01*
X687144Y-112672D01*
X686573Y-113244D01*
X686287Y-114101D01*
Y-114672D01*
X686573Y-115529D01*
X687144Y-116100D01*
X687715Y-116386D01*
X688573D01*
X689144Y-116100D01*
X689715Y-115529D01*
X694743Y-113244D02*
X694171Y-112672D01*
X693600Y-112387D01*
X692743D01*
X692172Y-112672D01*
X691600Y-113244D01*
X691315Y-114101D01*
Y-114672D01*
X691600Y-115529D01*
X692172Y-116100D01*
X692743Y-116386D01*
X693600D01*
X694171Y-116100D01*
X694743Y-115529D01*
X696028Y-110387D02*
Y-116386D01*
X698885Y-112387D02*
X696028Y-115243D01*
X697171Y-114101D02*
X699170Y-116386D01*
X575051Y-134387D02*
X578193D01*
X576479Y-136672D01*
X577336D01*
X577908Y-136958D01*
X578193Y-137244D01*
X578479Y-138101D01*
Y-138672D01*
X578193Y-139529D01*
X577622Y-140100D01*
X576765Y-140386D01*
X575908D01*
X575051Y-140100D01*
X574765Y-139814D01*
X574480Y-139243D01*
X580107Y-139814D02*
X579821Y-140100D01*
X580107Y-140386D01*
X580393Y-140100D01*
X580107Y-139814D01*
X585135Y-134387D02*
X582278D01*
X581992Y-136958D01*
X582278Y-136672D01*
X583135Y-136387D01*
X583992D01*
X584849Y-136672D01*
X585420Y-137244D01*
X585706Y-138101D01*
Y-138672D01*
X585420Y-139529D01*
X584849Y-140100D01*
X583992Y-140386D01*
X583135D01*
X582278Y-140100D01*
X581992Y-139814D01*
X581707Y-139243D01*
X577336Y-158387D02*
X574480Y-162386D01*
X578764D01*
X577336Y-158387D02*
Y-164386D01*
X580107Y-163814D02*
X579821Y-164100D01*
X580107Y-164386D01*
X580393Y-164100D01*
X580107Y-163814D01*
X583135Y-158387D02*
X582278Y-158673D01*
X581992Y-159244D01*
Y-159815D01*
X582278Y-160387D01*
X582849Y-160672D01*
X583992Y-160958D01*
X584849Y-161244D01*
X585420Y-161815D01*
X585706Y-162386D01*
Y-163243D01*
X585420Y-163814D01*
X585135Y-164100D01*
X584278Y-164386D01*
X583135D01*
X582278Y-164100D01*
X581992Y-163814D01*
X581707Y-163243D01*
Y-162386D01*
X581992Y-161815D01*
X582564Y-161244D01*
X583421Y-160958D01*
X584563Y-160672D01*
X585135Y-160387D01*
X585420Y-159815D01*
Y-159244D01*
X585135Y-158673D01*
X584278Y-158387D01*
X583135D01*
X575051Y-182387D02*
X578193D01*
X576479Y-184672D01*
X577336D01*
X577908Y-184958D01*
X578193Y-185244D01*
X578479Y-186101D01*
Y-186672D01*
X578193Y-187529D01*
X577622Y-188100D01*
X576765Y-188386D01*
X575908D01*
X575051Y-188100D01*
X574765Y-187814D01*
X574480Y-187243D01*
X580107Y-187814D02*
X579821Y-188100D01*
X580107Y-188386D01*
X580393Y-188100D01*
X580107Y-187814D01*
X585135Y-182387D02*
X582278D01*
X581992Y-184958D01*
X582278Y-184672D01*
X583135Y-184387D01*
X583992D01*
X584849Y-184672D01*
X585420Y-185244D01*
X585706Y-186101D01*
Y-186672D01*
X585420Y-187529D01*
X584849Y-188100D01*
X583992Y-188386D01*
X583135D01*
X582278Y-188100D01*
X581992Y-187814D01*
X581707Y-187243D01*
X578764Y-111815D02*
X578479Y-111244D01*
X577908Y-110673D01*
X577336Y-110387D01*
X576194D01*
X575622Y-110673D01*
X575051Y-111244D01*
X574765Y-111815D01*
X574480Y-112672D01*
Y-114101D01*
X574765Y-114958D01*
X575051Y-115529D01*
X575622Y-116100D01*
X576194Y-116386D01*
X577336D01*
X577908Y-116100D01*
X578479Y-115529D01*
X578764Y-114958D01*
X581878Y-112387D02*
X581307Y-112672D01*
X580735Y-113244D01*
X580450Y-114101D01*
Y-114672D01*
X580735Y-115529D01*
X581307Y-116100D01*
X581878Y-116386D01*
X582735D01*
X583306Y-116100D01*
X583878Y-115529D01*
X584163Y-114672D01*
Y-114101D01*
X583878Y-113244D01*
X583306Y-112672D01*
X582735Y-112387D01*
X581878D01*
X585477D02*
Y-116386D01*
Y-113529D02*
X586334Y-112672D01*
X586906Y-112387D01*
X587762D01*
X588334Y-112672D01*
X588620Y-113529D01*
Y-116386D01*
X593333Y-113244D02*
X593047Y-112672D01*
X592190Y-112387D01*
X591333D01*
X590476Y-112672D01*
X590191Y-113244D01*
X590476Y-113815D01*
X591047Y-114101D01*
X592476Y-114386D01*
X593047Y-114672D01*
X593333Y-115243D01*
Y-115529D01*
X593047Y-116100D01*
X592190Y-116386D01*
X591333D01*
X590476Y-116100D01*
X590191Y-115529D01*
X595447Y-110387D02*
Y-115243D01*
X595732Y-116100D01*
X596304Y-116386D01*
X596875D01*
X594590Y-112387D02*
X596589D01*
X601160D02*
Y-116386D01*
Y-113244D02*
X600588Y-112672D01*
X600017Y-112387D01*
X599160D01*
X598589Y-112672D01*
X598018Y-113244D01*
X597732Y-114101D01*
Y-114672D01*
X598018Y-115529D01*
X598589Y-116100D01*
X599160Y-116386D01*
X600017D01*
X600588Y-116100D01*
X601160Y-115529D01*
X602759Y-112387D02*
Y-116386D01*
Y-113529D02*
X603616Y-112672D01*
X604188Y-112387D01*
X605045D01*
X605616Y-112672D01*
X605901Y-113529D01*
Y-116386D01*
X608330Y-110387D02*
Y-115243D01*
X608615Y-116100D01*
X609187Y-116386D01*
X609758D01*
X607473Y-112387D02*
X609472D01*
X524802Y-134387D02*
X523945Y-134673D01*
X523373Y-135530D01*
X523088Y-136958D01*
Y-137815D01*
X523373Y-139243D01*
X523945Y-140100D01*
X524802Y-140386D01*
X525373D01*
X526230Y-140100D01*
X526801Y-139243D01*
X527087Y-137815D01*
Y-136958D01*
X526801Y-135530D01*
X526230Y-134673D01*
X525373Y-134387D01*
X524802D01*
X528715Y-139814D02*
X528429Y-140100D01*
X528715Y-140386D01*
X529001Y-140100D01*
X528715Y-139814D01*
X532029Y-134387D02*
X531172Y-134673D01*
X530600Y-135530D01*
X530315Y-136958D01*
Y-137815D01*
X530600Y-139243D01*
X531172Y-140100D01*
X532029Y-140386D01*
X532600D01*
X533457Y-140100D01*
X534028Y-139243D01*
X534314Y-137815D01*
Y-136958D01*
X534028Y-135530D01*
X533457Y-134673D01*
X532600Y-134387D01*
X532029D01*
X535656Y-135530D02*
X536228Y-135244D01*
X537085Y-134387D01*
Y-140386D01*
X541769Y-134387D02*
X540912Y-134673D01*
X540341Y-135530D01*
X540056Y-136958D01*
Y-137815D01*
X540341Y-139243D01*
X540912Y-140100D01*
X541769Y-140386D01*
X542341D01*
X543198Y-140100D01*
X543769Y-139243D01*
X544055Y-137815D01*
Y-136958D01*
X543769Y-135530D01*
X543198Y-134673D01*
X542341Y-134387D01*
X541769D01*
X545397Y-136387D02*
Y-140386D01*
Y-137529D02*
X546254Y-136672D01*
X546825Y-136387D01*
X547682D01*
X548254Y-136672D01*
X548539Y-137529D01*
Y-140386D01*
Y-137529D02*
X549396Y-136672D01*
X549968Y-136387D01*
X550825D01*
X551396Y-136672D01*
X551682Y-137529D01*
Y-140386D01*
X553567Y-136387D02*
Y-140386D01*
Y-137529D02*
X554424Y-136672D01*
X554995Y-136387D01*
X555852D01*
X556423Y-136672D01*
X556709Y-137529D01*
Y-140386D01*
Y-137529D02*
X557566Y-136672D01*
X558137Y-136387D01*
X558994D01*
X559565Y-136672D01*
X559851Y-137529D01*
Y-140386D01*
X524802Y-146387D02*
X523945Y-146673D01*
X523373Y-147530D01*
X523088Y-148958D01*
Y-149815D01*
X523373Y-151243D01*
X523945Y-152100D01*
X524802Y-152386D01*
X525373D01*
X526230Y-152100D01*
X526801Y-151243D01*
X527087Y-149815D01*
Y-148958D01*
X526801Y-147530D01*
X526230Y-146673D01*
X525373Y-146387D01*
X524802D01*
X528715Y-151814D02*
X528429Y-152100D01*
X528715Y-152386D01*
X529001Y-152100D01*
X528715Y-151814D01*
X532029Y-146387D02*
X531172Y-146673D01*
X530600Y-147530D01*
X530315Y-148958D01*
Y-149815D01*
X530600Y-151243D01*
X531172Y-152100D01*
X532029Y-152386D01*
X532600D01*
X533457Y-152100D01*
X534028Y-151243D01*
X534314Y-149815D01*
Y-148958D01*
X534028Y-147530D01*
X533457Y-146673D01*
X532600Y-146387D01*
X532029D01*
X536228D02*
X539370D01*
X537656Y-148672D01*
X538513D01*
X539084Y-148958D01*
X539370Y-149244D01*
X539655Y-150101D01*
Y-150672D01*
X539370Y-151529D01*
X538799Y-152100D01*
X537942Y-152386D01*
X537085D01*
X536228Y-152100D01*
X535942Y-151814D01*
X535656Y-151243D01*
X544426Y-147244D02*
X544140Y-146673D01*
X543283Y-146387D01*
X542712D01*
X541855Y-146673D01*
X541284Y-147530D01*
X540998Y-148958D01*
Y-150386D01*
X541284Y-151529D01*
X541855Y-152100D01*
X542712Y-152386D01*
X542998D01*
X543855Y-152100D01*
X544426Y-151529D01*
X544712Y-150672D01*
Y-150386D01*
X544426Y-149529D01*
X543855Y-148958D01*
X542998Y-148672D01*
X542712D01*
X541855Y-148958D01*
X541284Y-149529D01*
X540998Y-150386D01*
X546026Y-148387D02*
Y-152386D01*
Y-149529D02*
X546882Y-148672D01*
X547454Y-148387D01*
X548311D01*
X548882Y-148672D01*
X549168Y-149529D01*
Y-152386D01*
Y-149529D02*
X550025Y-148672D01*
X550596Y-148387D01*
X551453D01*
X552024Y-148672D01*
X552310Y-149529D01*
Y-152386D01*
X554195Y-148387D02*
Y-152386D01*
Y-149529D02*
X555052Y-148672D01*
X555623Y-148387D01*
X556481D01*
X557052Y-148672D01*
X557337Y-149529D01*
Y-152386D01*
Y-149529D02*
X558194Y-148672D01*
X558766Y-148387D01*
X559623D01*
X560194Y-148672D01*
X560480Y-149529D01*
Y-152386D01*
X523088Y-159530D02*
X523659Y-159244D01*
X524516Y-158387D01*
Y-164386D01*
X527772Y-163814D02*
X527487Y-164100D01*
X527772Y-164386D01*
X528058Y-164100D01*
X527772Y-163814D01*
X532800Y-158387D02*
X529943D01*
X529658Y-160958D01*
X529943Y-160672D01*
X530800Y-160387D01*
X531657D01*
X532514Y-160672D01*
X533085Y-161244D01*
X533371Y-162101D01*
Y-162672D01*
X533085Y-163529D01*
X532514Y-164100D01*
X531657Y-164386D01*
X530800D01*
X529943Y-164100D01*
X529658Y-163814D01*
X529372Y-163243D01*
X536428Y-158387D02*
X535571Y-158673D01*
X534999Y-159530D01*
X534714Y-160958D01*
Y-161815D01*
X534999Y-163243D01*
X535571Y-164100D01*
X536428Y-164386D01*
X536999D01*
X537856Y-164100D01*
X538427Y-163243D01*
X538713Y-161815D01*
Y-160958D01*
X538427Y-159530D01*
X537856Y-158673D01*
X536999Y-158387D01*
X536428D01*
X541769D02*
X540912Y-158673D01*
X540341Y-159530D01*
X540056Y-160958D01*
Y-161815D01*
X540341Y-163243D01*
X540912Y-164100D01*
X541769Y-164386D01*
X542341D01*
X543198Y-164100D01*
X543769Y-163243D01*
X544055Y-161815D01*
Y-160958D01*
X543769Y-159530D01*
X543198Y-158673D01*
X542341Y-158387D01*
X541769D01*
X545397Y-160387D02*
Y-164386D01*
Y-161529D02*
X546254Y-160672D01*
X546825Y-160387D01*
X547682D01*
X548254Y-160672D01*
X548539Y-161529D01*
Y-164386D01*
Y-161529D02*
X549396Y-160672D01*
X549968Y-160387D01*
X550825D01*
X551396Y-160672D01*
X551682Y-161529D01*
Y-164386D01*
X553567Y-160387D02*
Y-164386D01*
Y-161529D02*
X554424Y-160672D01*
X554995Y-160387D01*
X555852D01*
X556423Y-160672D01*
X556709Y-161529D01*
Y-164386D01*
Y-161529D02*
X557566Y-160672D01*
X558137Y-160387D01*
X558994D01*
X559565Y-160672D01*
X559851Y-161529D01*
Y-164386D01*
X524802Y-170387D02*
X523945Y-170673D01*
X523373Y-171530D01*
X523088Y-172958D01*
Y-173815D01*
X523373Y-175243D01*
X523945Y-176100D01*
X524802Y-176386D01*
X525373D01*
X526230Y-176100D01*
X526801Y-175243D01*
X527087Y-173815D01*
Y-172958D01*
X526801Y-171530D01*
X526230Y-170673D01*
X525373Y-170387D01*
X524802D01*
X528715Y-175814D02*
X528429Y-176100D01*
X528715Y-176386D01*
X529001Y-176100D01*
X528715Y-175814D01*
X532029Y-170387D02*
X531172Y-170673D01*
X530600Y-171530D01*
X530315Y-172958D01*
Y-173815D01*
X530600Y-175243D01*
X531172Y-176100D01*
X532029Y-176386D01*
X532600D01*
X533457Y-176100D01*
X534028Y-175243D01*
X534314Y-173815D01*
Y-172958D01*
X534028Y-171530D01*
X533457Y-170673D01*
X532600Y-170387D01*
X532029D01*
X536228D02*
X539370D01*
X537656Y-172672D01*
X538513D01*
X539084Y-172958D01*
X539370Y-173244D01*
X539655Y-174101D01*
Y-174672D01*
X539370Y-175529D01*
X538799Y-176100D01*
X537942Y-176386D01*
X537085D01*
X536228Y-176100D01*
X535942Y-175814D01*
X535656Y-175243D01*
X544426Y-171244D02*
X544140Y-170673D01*
X543283Y-170387D01*
X542712D01*
X541855Y-170673D01*
X541284Y-171530D01*
X540998Y-172958D01*
Y-174386D01*
X541284Y-175529D01*
X541855Y-176100D01*
X542712Y-176386D01*
X542998D01*
X543855Y-176100D01*
X544426Y-175529D01*
X544712Y-174672D01*
Y-174386D01*
X544426Y-173529D01*
X543855Y-172958D01*
X542998Y-172672D01*
X542712D01*
X541855Y-172958D01*
X541284Y-173529D01*
X540998Y-174386D01*
X546026Y-172387D02*
Y-176386D01*
Y-173529D02*
X546882Y-172672D01*
X547454Y-172387D01*
X548311D01*
X548882Y-172672D01*
X549168Y-173529D01*
Y-176386D01*
Y-173529D02*
X550025Y-172672D01*
X550596Y-172387D01*
X551453D01*
X552024Y-172672D01*
X552310Y-173529D01*
Y-176386D01*
X554195Y-172387D02*
Y-176386D01*
Y-173529D02*
X555052Y-172672D01*
X555623Y-172387D01*
X556481D01*
X557052Y-172672D01*
X557337Y-173529D01*
Y-176386D01*
Y-173529D02*
X558194Y-172672D01*
X558766Y-172387D01*
X559623D01*
X560194Y-172672D01*
X560480Y-173529D01*
Y-176386D01*
X524802Y-182387D02*
X523945Y-182673D01*
X523373Y-183530D01*
X523088Y-184958D01*
Y-185815D01*
X523373Y-187243D01*
X523945Y-188100D01*
X524802Y-188386D01*
X525373D01*
X526230Y-188100D01*
X526801Y-187243D01*
X527087Y-185815D01*
Y-184958D01*
X526801Y-183530D01*
X526230Y-182673D01*
X525373Y-182387D01*
X524802D01*
X528715Y-187814D02*
X528429Y-188100D01*
X528715Y-188386D01*
X529001Y-188100D01*
X528715Y-187814D01*
X532029Y-182387D02*
X531172Y-182673D01*
X530600Y-183530D01*
X530315Y-184958D01*
Y-185815D01*
X530600Y-187243D01*
X531172Y-188100D01*
X532029Y-188386D01*
X532600D01*
X533457Y-188100D01*
X534028Y-187243D01*
X534314Y-185815D01*
Y-184958D01*
X534028Y-183530D01*
X533457Y-182673D01*
X532600Y-182387D01*
X532029D01*
X535656Y-183530D02*
X536228Y-183244D01*
X537085Y-182387D01*
Y-188386D01*
X541769Y-182387D02*
X540912Y-182673D01*
X540341Y-183530D01*
X540056Y-184958D01*
Y-185815D01*
X540341Y-187243D01*
X540912Y-188100D01*
X541769Y-188386D01*
X542341D01*
X543198Y-188100D01*
X543769Y-187243D01*
X544055Y-185815D01*
Y-184958D01*
X543769Y-183530D01*
X543198Y-182673D01*
X542341Y-182387D01*
X541769D01*
X545397Y-184387D02*
Y-188386D01*
Y-185529D02*
X546254Y-184672D01*
X546825Y-184387D01*
X547682D01*
X548254Y-184672D01*
X548539Y-185529D01*
Y-188386D01*
Y-185529D02*
X549396Y-184672D01*
X549968Y-184387D01*
X550825D01*
X551396Y-184672D01*
X551682Y-185529D01*
Y-188386D01*
X553567Y-184387D02*
Y-188386D01*
Y-185529D02*
X554424Y-184672D01*
X554995Y-184387D01*
X555852D01*
X556423Y-184672D01*
X556709Y-185529D01*
Y-188386D01*
Y-185529D02*
X557566Y-184672D01*
X558137Y-184387D01*
X558994D01*
X559565Y-184672D01*
X559851Y-185529D01*
Y-188386D01*
X525087Y-110387D02*
Y-116386D01*
X523088Y-110387D02*
X527087D01*
X527801D02*
Y-116386D01*
Y-113529D02*
X528658Y-112672D01*
X529229Y-112387D01*
X530086D01*
X530657Y-112672D01*
X530943Y-113529D01*
Y-116386D01*
X533085Y-110387D02*
X533371Y-110673D01*
X533657Y-110387D01*
X533371Y-110101D01*
X533085Y-110387D01*
X533371Y-112387D02*
Y-116386D01*
X538142Y-113244D02*
X537570Y-112672D01*
X536999Y-112387D01*
X536142D01*
X535571Y-112672D01*
X534999Y-113244D01*
X534714Y-114101D01*
Y-114672D01*
X534999Y-115529D01*
X535571Y-116100D01*
X536142Y-116386D01*
X536999D01*
X537570Y-116100D01*
X538142Y-115529D01*
X539427Y-110387D02*
Y-116386D01*
X542284Y-112387D02*
X539427Y-115243D01*
X540570Y-114101D02*
X542569Y-116386D01*
X543512Y-112387D02*
Y-116386D01*
Y-113529D02*
X544369Y-112672D01*
X544940Y-112387D01*
X545797D01*
X546368Y-112672D01*
X546654Y-113529D01*
Y-116386D01*
X548225Y-114101D02*
X551653D01*
Y-113529D01*
X551367Y-112958D01*
X551082Y-112672D01*
X550510Y-112387D01*
X549653D01*
X549082Y-112672D01*
X548511Y-113244D01*
X548225Y-114101D01*
Y-114672D01*
X548511Y-115529D01*
X549082Y-116100D01*
X549653Y-116386D01*
X550510D01*
X551082Y-116100D01*
X551653Y-115529D01*
X556081Y-113244D02*
X555795Y-112672D01*
X554938Y-112387D01*
X554081D01*
X553224Y-112672D01*
X552938Y-113244D01*
X553224Y-113815D01*
X553795Y-114101D01*
X555224Y-114386D01*
X555795Y-114672D01*
X556081Y-115243D01*
Y-115529D01*
X555795Y-116100D01*
X554938Y-116386D01*
X554081D01*
X553224Y-116100D01*
X552938Y-115529D01*
X560480Y-113244D02*
X560194Y-112672D01*
X559337Y-112387D01*
X558480D01*
X557623Y-112672D01*
X557338Y-113244D01*
X557623Y-113815D01*
X558194Y-114101D01*
X559623Y-114386D01*
X560194Y-114672D01*
X560480Y-115243D01*
Y-115529D01*
X560194Y-116100D01*
X559337Y-116386D01*
X558480D01*
X557623Y-116100D01*
X557338Y-115529D01*
X460841Y-135244D02*
X460269Y-134673D01*
X459413Y-134387D01*
X458270D01*
X457413Y-134673D01*
X456842Y-135244D01*
Y-135815D01*
X457127Y-136387D01*
X457413Y-136672D01*
X457984Y-136958D01*
X459698Y-137529D01*
X460269Y-137815D01*
X460555Y-138101D01*
X460841Y-138672D01*
Y-139529D01*
X460269Y-140100D01*
X459413Y-140386D01*
X458270D01*
X457413Y-140100D01*
X456842Y-139529D01*
X463612Y-136387D02*
X463040Y-136672D01*
X462469Y-137244D01*
X462183Y-138101D01*
Y-138672D01*
X462469Y-139529D01*
X463040Y-140100D01*
X463612Y-140386D01*
X464469D01*
X465040Y-140100D01*
X465611Y-139529D01*
X465897Y-138672D01*
Y-138101D01*
X465611Y-137244D01*
X465040Y-136672D01*
X464469Y-136387D01*
X463612D01*
X467211Y-134387D02*
Y-140386D01*
X471896Y-134387D02*
Y-140386D01*
Y-137244D02*
X471324Y-136672D01*
X470753Y-136387D01*
X469896D01*
X469325Y-136672D01*
X468753Y-137244D01*
X468468Y-138101D01*
Y-138672D01*
X468753Y-139529D01*
X469325Y-140100D01*
X469896Y-140386D01*
X470753D01*
X471324Y-140100D01*
X471896Y-139529D01*
X473495Y-138101D02*
X476923D01*
Y-137529D01*
X476637Y-136958D01*
X476352Y-136672D01*
X475780Y-136387D01*
X474924D01*
X474352Y-136672D01*
X473781Y-137244D01*
X473495Y-138101D01*
Y-138672D01*
X473781Y-139529D01*
X474352Y-140100D01*
X474924Y-140386D01*
X475780D01*
X476352Y-140100D01*
X476923Y-139529D01*
X478209Y-136387D02*
Y-140386D01*
Y-138101D02*
X478494Y-137244D01*
X479066Y-136672D01*
X479637Y-136387D01*
X480494D01*
X485750Y-134387D02*
Y-140386D01*
Y-134387D02*
X488321D01*
X489178Y-134673D01*
X489463Y-134958D01*
X489749Y-135530D01*
Y-136101D01*
X489463Y-136672D01*
X489178Y-136958D01*
X488321Y-137244D01*
X485750D01*
X487749D02*
X489749Y-140386D01*
X491091Y-138101D02*
X494519D01*
Y-137529D01*
X494234Y-136958D01*
X493948Y-136672D01*
X493377Y-136387D01*
X492520D01*
X491949Y-136672D01*
X491377Y-137244D01*
X491091Y-138101D01*
Y-138672D01*
X491377Y-139529D01*
X491949Y-140100D01*
X492520Y-140386D01*
X493377D01*
X493948Y-140100D01*
X494519Y-139529D01*
X498947Y-137244D02*
X498661Y-136672D01*
X497804Y-136387D01*
X496947D01*
X496090Y-136672D01*
X495805Y-137244D01*
X496090Y-137815D01*
X496662Y-138101D01*
X498090Y-138386D01*
X498661Y-138672D01*
X498947Y-139243D01*
Y-139529D01*
X498661Y-140100D01*
X497804Y-140386D01*
X496947D01*
X496090Y-140100D01*
X495805Y-139529D01*
X500775Y-134387D02*
X501061Y-134673D01*
X501346Y-134387D01*
X501061Y-134101D01*
X500775Y-134387D01*
X501061Y-136387D02*
Y-140386D01*
X505546Y-137244D02*
X505260Y-136672D01*
X504403Y-136387D01*
X503546D01*
X502689Y-136672D01*
X502403Y-137244D01*
X502689Y-137815D01*
X503260Y-138101D01*
X504689Y-138386D01*
X505260Y-138672D01*
X505546Y-139243D01*
Y-139529D01*
X505260Y-140100D01*
X504403Y-140386D01*
X503546D01*
X502689Y-140100D01*
X502403Y-139529D01*
X507659Y-134387D02*
Y-139243D01*
X507945Y-140100D01*
X508516Y-140386D01*
X509088D01*
X506802Y-136387D02*
X508802D01*
X461127Y-147815D02*
X460841Y-147244D01*
X460269Y-146673D01*
X459698Y-146387D01*
X458556D01*
X457984Y-146673D01*
X457413Y-147244D01*
X457127Y-147815D01*
X456842Y-148672D01*
Y-150101D01*
X457127Y-150958D01*
X457413Y-151529D01*
X457984Y-152100D01*
X458556Y-152386D01*
X459698D01*
X460269Y-152100D01*
X460841Y-151529D01*
X461127Y-150958D01*
X464240Y-148387D02*
X463669Y-148672D01*
X463097Y-149244D01*
X462812Y-150101D01*
Y-150672D01*
X463097Y-151529D01*
X463669Y-152100D01*
X464240Y-152386D01*
X465097D01*
X465668Y-152100D01*
X466240Y-151529D01*
X466525Y-150672D01*
Y-150101D01*
X466240Y-149244D01*
X465668Y-148672D01*
X465097Y-148387D01*
X464240D01*
X467839D02*
Y-154385D01*
Y-149244D02*
X468411Y-148672D01*
X468982Y-148387D01*
X469839D01*
X470410Y-148672D01*
X470982Y-149244D01*
X471267Y-150101D01*
Y-150672D01*
X470982Y-151529D01*
X470410Y-152100D01*
X469839Y-152386D01*
X468982D01*
X468411Y-152100D01*
X467839Y-151529D01*
X472553Y-148387D02*
Y-154385D01*
Y-149244D02*
X473124Y-148672D01*
X473695Y-148387D01*
X474552D01*
X475124Y-148672D01*
X475695Y-149244D01*
X475981Y-150101D01*
Y-150672D01*
X475695Y-151529D01*
X475124Y-152100D01*
X474552Y-152386D01*
X473695D01*
X473124Y-152100D01*
X472553Y-151529D01*
X477266Y-150101D02*
X480694D01*
Y-149529D01*
X480408Y-148958D01*
X480122Y-148672D01*
X479551Y-148387D01*
X478694D01*
X478123Y-148672D01*
X477552Y-149244D01*
X477266Y-150101D01*
Y-150672D01*
X477552Y-151529D01*
X478123Y-152100D01*
X478694Y-152386D01*
X479551D01*
X480122Y-152100D01*
X480694Y-151529D01*
X481979Y-148387D02*
Y-152386D01*
Y-150101D02*
X482265Y-149244D01*
X482836Y-148672D01*
X483407Y-148387D01*
X484264D01*
X456842Y-158387D02*
Y-164386D01*
Y-158387D02*
X460555D01*
X456842Y-161244D02*
X459127D01*
X461241Y-158387D02*
Y-164386D01*
Y-158387D02*
X463812D01*
X464669Y-158673D01*
X464954Y-158958D01*
X465240Y-159530D01*
Y-160101D01*
X464954Y-160672D01*
X464669Y-160958D01*
X463812Y-161244D01*
X461241D01*
X463240D02*
X465240Y-164386D01*
X466582Y-161815D02*
X471724D01*
X476352Y-158387D02*
X473495Y-162386D01*
X477780D01*
X476352Y-158387D02*
Y-164386D01*
X461127Y-171815D02*
X460841Y-171244D01*
X460269Y-170673D01*
X459698Y-170387D01*
X458556D01*
X457984Y-170673D01*
X457413Y-171244D01*
X457127Y-171815D01*
X456842Y-172672D01*
Y-174101D01*
X457127Y-174958D01*
X457413Y-175529D01*
X457984Y-176100D01*
X458556Y-176386D01*
X459698D01*
X460269Y-176100D01*
X460841Y-175529D01*
X461127Y-174958D01*
X464240Y-172387D02*
X463669Y-172672D01*
X463097Y-173244D01*
X462812Y-174101D01*
Y-174672D01*
X463097Y-175529D01*
X463669Y-176100D01*
X464240Y-176386D01*
X465097D01*
X465668Y-176100D01*
X466240Y-175529D01*
X466525Y-174672D01*
Y-174101D01*
X466240Y-173244D01*
X465668Y-172672D01*
X465097Y-172387D01*
X464240D01*
X467839D02*
Y-178385D01*
Y-173244D02*
X468411Y-172672D01*
X468982Y-172387D01*
X469839D01*
X470410Y-172672D01*
X470982Y-173244D01*
X471267Y-174101D01*
Y-174672D01*
X470982Y-175529D01*
X470410Y-176100D01*
X469839Y-176386D01*
X468982D01*
X468411Y-176100D01*
X467839Y-175529D01*
X472553Y-172387D02*
Y-178385D01*
Y-173244D02*
X473124Y-172672D01*
X473695Y-172387D01*
X474552D01*
X475124Y-172672D01*
X475695Y-173244D01*
X475981Y-174101D01*
Y-174672D01*
X475695Y-175529D01*
X475124Y-176100D01*
X474552Y-176386D01*
X473695D01*
X473124Y-176100D01*
X472553Y-175529D01*
X477266Y-174101D02*
X480694D01*
Y-173529D01*
X480408Y-172958D01*
X480122Y-172672D01*
X479551Y-172387D01*
X478694D01*
X478123Y-172672D01*
X477552Y-173244D01*
X477266Y-174101D01*
Y-174672D01*
X477552Y-175529D01*
X478123Y-176100D01*
X478694Y-176386D01*
X479551D01*
X480122Y-176100D01*
X480694Y-175529D01*
X481979Y-172387D02*
Y-176386D01*
Y-174101D02*
X482265Y-173244D01*
X482836Y-172672D01*
X483407Y-172387D01*
X484264D01*
X460841Y-183244D02*
X460269Y-182673D01*
X459413Y-182387D01*
X458270D01*
X457413Y-182673D01*
X456842Y-183244D01*
Y-183815D01*
X457127Y-184387D01*
X457413Y-184672D01*
X457984Y-184958D01*
X459698Y-185529D01*
X460269Y-185815D01*
X460555Y-186101D01*
X460841Y-186672D01*
Y-187529D01*
X460269Y-188100D01*
X459413Y-188386D01*
X458270D01*
X457413Y-188100D01*
X456842Y-187529D01*
X463612Y-184387D02*
X463040Y-184672D01*
X462469Y-185244D01*
X462183Y-186101D01*
Y-186672D01*
X462469Y-187529D01*
X463040Y-188100D01*
X463612Y-188386D01*
X464469D01*
X465040Y-188100D01*
X465611Y-187529D01*
X465897Y-186672D01*
Y-186101D01*
X465611Y-185244D01*
X465040Y-184672D01*
X464469Y-184387D01*
X463612D01*
X467211Y-182387D02*
Y-188386D01*
X471896Y-182387D02*
Y-188386D01*
Y-185244D02*
X471324Y-184672D01*
X470753Y-184387D01*
X469896D01*
X469325Y-184672D01*
X468753Y-185244D01*
X468468Y-186101D01*
Y-186672D01*
X468753Y-187529D01*
X469325Y-188100D01*
X469896Y-188386D01*
X470753D01*
X471324Y-188100D01*
X471896Y-187529D01*
X473495Y-186101D02*
X476923D01*
Y-185529D01*
X476637Y-184958D01*
X476352Y-184672D01*
X475780Y-184387D01*
X474924D01*
X474352Y-184672D01*
X473781Y-185244D01*
X473495Y-186101D01*
Y-186672D01*
X473781Y-187529D01*
X474352Y-188100D01*
X474924Y-188386D01*
X475780D01*
X476352Y-188100D01*
X476923Y-187529D01*
X478209Y-184387D02*
Y-188386D01*
Y-186101D02*
X478494Y-185244D01*
X479066Y-184672D01*
X479637Y-184387D01*
X480494D01*
X485750Y-182387D02*
Y-188386D01*
Y-182387D02*
X488321D01*
X489178Y-182673D01*
X489463Y-182958D01*
X489749Y-183530D01*
Y-184101D01*
X489463Y-184672D01*
X489178Y-184958D01*
X488321Y-185244D01*
X485750D01*
X487749D02*
X489749Y-188386D01*
X491091Y-186101D02*
X494519D01*
Y-185529D01*
X494234Y-184958D01*
X493948Y-184672D01*
X493377Y-184387D01*
X492520D01*
X491949Y-184672D01*
X491377Y-185244D01*
X491091Y-186101D01*
Y-186672D01*
X491377Y-187529D01*
X491949Y-188100D01*
X492520Y-188386D01*
X493377D01*
X493948Y-188100D01*
X494519Y-187529D01*
X498947Y-185244D02*
X498661Y-184672D01*
X497804Y-184387D01*
X496947D01*
X496090Y-184672D01*
X495805Y-185244D01*
X496090Y-185815D01*
X496662Y-186101D01*
X498090Y-186386D01*
X498661Y-186672D01*
X498947Y-187243D01*
Y-187529D01*
X498661Y-188100D01*
X497804Y-188386D01*
X496947D01*
X496090Y-188100D01*
X495805Y-187529D01*
X500775Y-182387D02*
X501061Y-182673D01*
X501346Y-182387D01*
X501061Y-182102D01*
X500775Y-182387D01*
X501061Y-184387D02*
Y-188386D01*
X505546Y-185244D02*
X505260Y-184672D01*
X504403Y-184387D01*
X503546D01*
X502689Y-184672D01*
X502403Y-185244D01*
X502689Y-185815D01*
X503260Y-186101D01*
X504689Y-186386D01*
X505260Y-186672D01*
X505546Y-187243D01*
Y-187529D01*
X505260Y-188100D01*
X504403Y-188386D01*
X503546D01*
X502689Y-188100D01*
X502403Y-187529D01*
X507659Y-182387D02*
Y-187243D01*
X507945Y-188100D01*
X508516Y-188386D01*
X509088D01*
X506802Y-184387D02*
X508802D01*
X456842Y-110387D02*
Y-116386D01*
Y-110387D02*
X459127Y-116386D01*
X461412Y-110387D02*
X459127Y-116386D01*
X461412Y-110387D02*
Y-116386D01*
X466554Y-112387D02*
Y-116386D01*
Y-113244D02*
X465983Y-112672D01*
X465411Y-112387D01*
X464554D01*
X463983Y-112672D01*
X463412Y-113244D01*
X463126Y-114101D01*
Y-114672D01*
X463412Y-115529D01*
X463983Y-116100D01*
X464554Y-116386D01*
X465411D01*
X465983Y-116100D01*
X466554Y-115529D01*
X469010Y-110387D02*
Y-115243D01*
X469296Y-116100D01*
X469868Y-116386D01*
X470439D01*
X468154Y-112387D02*
X470153D01*
X471296Y-114101D02*
X474724D01*
Y-113529D01*
X474438Y-112958D01*
X474152Y-112672D01*
X473581Y-112387D01*
X472724D01*
X472153Y-112672D01*
X471581Y-113244D01*
X471296Y-114101D01*
Y-114672D01*
X471581Y-115529D01*
X472153Y-116100D01*
X472724Y-116386D01*
X473581D01*
X474152Y-116100D01*
X474724Y-115529D01*
X476009Y-112387D02*
Y-116386D01*
Y-114101D02*
X476295Y-113244D01*
X476866Y-112672D01*
X477437Y-112387D01*
X478294D01*
X479408Y-110387D02*
X479694Y-110673D01*
X479980Y-110387D01*
X479694Y-110101D01*
X479408Y-110387D01*
X479694Y-112387D02*
Y-116386D01*
X484464Y-112387D02*
Y-116386D01*
Y-113244D02*
X483893Y-112672D01*
X483322Y-112387D01*
X482465D01*
X481893Y-112672D01*
X481322Y-113244D01*
X481037Y-114101D01*
Y-114672D01*
X481322Y-115529D01*
X481893Y-116100D01*
X482465Y-116386D01*
X483322D01*
X483893Y-116100D01*
X484464Y-115529D01*
X486064Y-110387D02*
Y-116386D01*
X382369Y-122387D02*
Y-128386D01*
X380369Y-122387D02*
X384368D01*
X386511Y-124387D02*
X385940Y-124672D01*
X385368Y-125244D01*
X385083Y-126101D01*
Y-126672D01*
X385368Y-127529D01*
X385940Y-128100D01*
X386511Y-128386D01*
X387368D01*
X387939Y-128100D01*
X388510Y-127529D01*
X388796Y-126672D01*
Y-126101D01*
X388510Y-125244D01*
X387939Y-124672D01*
X387368Y-124387D01*
X386511D01*
X390110D02*
Y-130385D01*
Y-125244D02*
X390682Y-124672D01*
X391253Y-124387D01*
X392110D01*
X392681Y-124672D01*
X393252Y-125244D01*
X393538Y-126101D01*
Y-126672D01*
X393252Y-127529D01*
X392681Y-128100D01*
X392110Y-128386D01*
X391253D01*
X390682Y-128100D01*
X390110Y-127529D01*
X401251Y-122387D02*
X400679Y-122673D01*
X400108Y-123244D01*
X399822Y-123815D01*
X399537Y-124672D01*
Y-126101D01*
X399822Y-126958D01*
X400108Y-127529D01*
X400679Y-128100D01*
X401251Y-128386D01*
X402393D01*
X402965Y-128100D01*
X403536Y-127529D01*
X403822Y-126958D01*
X404107Y-126101D01*
Y-124672D01*
X403822Y-123815D01*
X403536Y-123244D01*
X402965Y-122673D01*
X402393Y-122387D01*
X401251D01*
X405507Y-124387D02*
X407221Y-128386D01*
X408935Y-124387D02*
X407221Y-128386D01*
X409906Y-126101D02*
X413334D01*
Y-125529D01*
X413048Y-124958D01*
X412762Y-124672D01*
X412191Y-124387D01*
X411334D01*
X410763Y-124672D01*
X410192Y-125244D01*
X409906Y-126101D01*
Y-126672D01*
X410192Y-127529D01*
X410763Y-128100D01*
X411334Y-128386D01*
X412191D01*
X412762Y-128100D01*
X413334Y-127529D01*
X414619Y-124387D02*
Y-128386D01*
Y-126101D02*
X414905Y-125244D01*
X415476Y-124672D01*
X416047Y-124387D01*
X416904D01*
X417447Y-122387D02*
Y-128386D01*
X422132Y-124387D02*
Y-128386D01*
Y-125244D02*
X421561Y-124672D01*
X420989Y-124387D01*
X420132D01*
X419561Y-124672D01*
X418990Y-125244D01*
X418704Y-126101D01*
Y-126672D01*
X418990Y-127529D01*
X419561Y-128100D01*
X420132Y-128386D01*
X420989D01*
X421561Y-128100D01*
X422132Y-127529D01*
X424017Y-124387D02*
X425731Y-128386D01*
X427445Y-124387D02*
X425731Y-128386D01*
X425160Y-129528D01*
X424588Y-130100D01*
X424017Y-130385D01*
X423732D01*
X382369Y-134387D02*
Y-140386D01*
X380369Y-134387D02*
X384368D01*
X386511Y-136387D02*
X385940Y-136672D01*
X385368Y-137244D01*
X385083Y-138101D01*
Y-138672D01*
X385368Y-139529D01*
X385940Y-140100D01*
X386511Y-140386D01*
X387368D01*
X387939Y-140100D01*
X388510Y-139529D01*
X388796Y-138672D01*
Y-138101D01*
X388510Y-137244D01*
X387939Y-136672D01*
X387368Y-136387D01*
X386511D01*
X390110D02*
Y-142385D01*
Y-137244D02*
X390682Y-136672D01*
X391253Y-136387D01*
X392110D01*
X392681Y-136672D01*
X393252Y-137244D01*
X393538Y-138101D01*
Y-138672D01*
X393252Y-139529D01*
X392681Y-140100D01*
X392110Y-140386D01*
X391253D01*
X390682Y-140100D01*
X390110Y-139529D01*
X403536Y-135244D02*
X402965Y-134673D01*
X402108Y-134387D01*
X400965D01*
X400108Y-134673D01*
X399537Y-135244D01*
Y-135815D01*
X399822Y-136387D01*
X400108Y-136672D01*
X400679Y-136958D01*
X402393Y-137529D01*
X402965Y-137815D01*
X403250Y-138101D01*
X403536Y-138672D01*
Y-139529D01*
X402965Y-140100D01*
X402108Y-140386D01*
X400965D01*
X400108Y-140100D01*
X399537Y-139529D01*
X406307Y-136387D02*
X405735Y-136672D01*
X405164Y-137244D01*
X404878Y-138101D01*
Y-138672D01*
X405164Y-139529D01*
X405735Y-140100D01*
X406307Y-140386D01*
X407164D01*
X407735Y-140100D01*
X408306Y-139529D01*
X408592Y-138672D01*
Y-138101D01*
X408306Y-137244D01*
X407735Y-136672D01*
X407164Y-136387D01*
X406307D01*
X409906Y-134387D02*
Y-140386D01*
X414591Y-134387D02*
Y-140386D01*
Y-137244D02*
X414019Y-136672D01*
X413448Y-136387D01*
X412591D01*
X412020Y-136672D01*
X411448Y-137244D01*
X411163Y-138101D01*
Y-138672D01*
X411448Y-139529D01*
X412020Y-140100D01*
X412591Y-140386D01*
X413448D01*
X414019Y-140100D01*
X414591Y-139529D01*
X416190Y-138101D02*
X419618D01*
Y-137529D01*
X419333Y-136958D01*
X419047Y-136672D01*
X418475Y-136387D01*
X417619D01*
X417047Y-136672D01*
X416476Y-137244D01*
X416190Y-138101D01*
Y-138672D01*
X416476Y-139529D01*
X417047Y-140100D01*
X417619Y-140386D01*
X418475D01*
X419047Y-140100D01*
X419618Y-139529D01*
X420904Y-136387D02*
Y-140386D01*
Y-138101D02*
X421189Y-137244D01*
X421761Y-136672D01*
X422332Y-136387D01*
X423189D01*
X382369Y-146387D02*
Y-152386D01*
X380369Y-146387D02*
X384368D01*
X386511Y-148387D02*
X385940Y-148672D01*
X385368Y-149244D01*
X385083Y-150101D01*
Y-150672D01*
X385368Y-151529D01*
X385940Y-152100D01*
X386511Y-152386D01*
X387368D01*
X387939Y-152100D01*
X388510Y-151529D01*
X388796Y-150672D01*
Y-150101D01*
X388510Y-149244D01*
X387939Y-148672D01*
X387368Y-148387D01*
X386511D01*
X390110D02*
Y-154385D01*
Y-149244D02*
X390682Y-148672D01*
X391253Y-148387D01*
X392110D01*
X392681Y-148672D01*
X393252Y-149244D01*
X393538Y-150101D01*
Y-150672D01*
X393252Y-151529D01*
X392681Y-152100D01*
X392110Y-152386D01*
X391253D01*
X390682Y-152100D01*
X390110Y-151529D01*
X399537Y-146387D02*
Y-152386D01*
X402965D01*
X407049Y-148387D02*
Y-152386D01*
Y-149244D02*
X406478Y-148672D01*
X405907Y-148387D01*
X405050D01*
X404479Y-148672D01*
X403907Y-149244D01*
X403622Y-150101D01*
Y-150672D01*
X403907Y-151529D01*
X404479Y-152100D01*
X405050Y-152386D01*
X405907D01*
X406478Y-152100D01*
X407049Y-151529D01*
X408935Y-148387D02*
X410649Y-152386D01*
X412362Y-148387D02*
X410649Y-152386D01*
X410077Y-153528D01*
X409506Y-154100D01*
X408935Y-154385D01*
X408649D01*
X413362Y-150101D02*
X416790D01*
Y-149529D01*
X416504Y-148958D01*
X416219Y-148672D01*
X415648Y-148387D01*
X414791D01*
X414219Y-148672D01*
X413648Y-149244D01*
X413362Y-150101D01*
Y-150672D01*
X413648Y-151529D01*
X414219Y-152100D01*
X414791Y-152386D01*
X415648D01*
X416219Y-152100D01*
X416790Y-151529D01*
X418076Y-148387D02*
Y-152386D01*
Y-150101D02*
X418361Y-149244D01*
X418933Y-148672D01*
X419504Y-148387D01*
X420361D01*
X380369Y-158387D02*
Y-164386D01*
Y-158387D02*
X382369D01*
X383226Y-158673D01*
X383797Y-159244D01*
X384083Y-159815D01*
X384368Y-160672D01*
Y-162101D01*
X384083Y-162958D01*
X383797Y-163529D01*
X383226Y-164100D01*
X382369Y-164386D01*
X380369D01*
X386282Y-158387D02*
X386568Y-158673D01*
X386854Y-158387D01*
X386568Y-158101D01*
X386282Y-158387D01*
X386568Y-160387D02*
Y-164386D01*
X387911Y-162101D02*
X391338D01*
Y-161529D01*
X391053Y-160958D01*
X390767Y-160672D01*
X390196Y-160387D01*
X389339D01*
X388768Y-160672D01*
X388196Y-161244D01*
X387911Y-162101D01*
Y-162672D01*
X388196Y-163529D01*
X388768Y-164100D01*
X389339Y-164386D01*
X390196D01*
X390767Y-164100D01*
X391338Y-163529D01*
X392624Y-158387D02*
Y-164386D01*
X393881Y-162101D02*
X397309D01*
Y-161529D01*
X397023Y-160958D01*
X396737Y-160672D01*
X396166Y-160387D01*
X395309D01*
X394738Y-160672D01*
X394166Y-161244D01*
X393881Y-162101D01*
Y-162672D01*
X394166Y-163529D01*
X394738Y-164100D01*
X395309Y-164386D01*
X396166D01*
X396737Y-164100D01*
X397309Y-163529D01*
X402022Y-161244D02*
X401451Y-160672D01*
X400879Y-160387D01*
X400022D01*
X399451Y-160672D01*
X398880Y-161244D01*
X398594Y-162101D01*
Y-162672D01*
X398880Y-163529D01*
X399451Y-164100D01*
X400022Y-164386D01*
X400879D01*
X401451Y-164100D01*
X402022Y-163529D01*
X404164Y-158387D02*
Y-163243D01*
X404450Y-164100D01*
X405021Y-164386D01*
X405593D01*
X403307Y-160387D02*
X405307D01*
X406450D02*
Y-164386D01*
Y-162101D02*
X406735Y-161244D01*
X407306Y-160672D01*
X407878Y-160387D01*
X408735D01*
X409849Y-158387D02*
X410135Y-158673D01*
X410420Y-158387D01*
X410135Y-158101D01*
X409849Y-158387D01*
X410135Y-160387D02*
Y-164386D01*
X414905Y-161244D02*
X414334Y-160672D01*
X413762Y-160387D01*
X412905D01*
X412334Y-160672D01*
X411763Y-161244D01*
X411477Y-162101D01*
Y-162672D01*
X411763Y-163529D01*
X412334Y-164100D01*
X412905Y-164386D01*
X413762D01*
X414334Y-164100D01*
X414905Y-163529D01*
X420904Y-159530D02*
X421475Y-159244D01*
X422332Y-158387D01*
Y-164386D01*
X380369Y-170387D02*
Y-176386D01*
Y-170387D02*
X382940D01*
X383797Y-170673D01*
X384083Y-170958D01*
X384368Y-171530D01*
Y-172101D01*
X384083Y-172672D01*
X383797Y-172958D01*
X382940Y-173244D01*
X380369D02*
X382940D01*
X383797Y-173529D01*
X384083Y-173815D01*
X384368Y-174386D01*
Y-175243D01*
X384083Y-175814D01*
X383797Y-176100D01*
X382940Y-176386D01*
X380369D01*
X387139Y-172387D02*
X386568Y-172672D01*
X385997Y-173244D01*
X385711Y-174101D01*
Y-174672D01*
X385997Y-175529D01*
X386568Y-176100D01*
X387139Y-176386D01*
X387996D01*
X388568Y-176100D01*
X389139Y-175529D01*
X389425Y-174672D01*
Y-174101D01*
X389139Y-173244D01*
X388568Y-172672D01*
X387996Y-172387D01*
X387139D01*
X391596Y-170387D02*
Y-175243D01*
X391881Y-176100D01*
X392453Y-176386D01*
X393024D01*
X390739Y-172387D02*
X392738D01*
X394738Y-170387D02*
Y-175243D01*
X395023Y-176100D01*
X395595Y-176386D01*
X396166D01*
X393881Y-172387D02*
X395880D01*
X398451D02*
X397880Y-172672D01*
X397309Y-173244D01*
X397023Y-174101D01*
Y-174672D01*
X397309Y-175529D01*
X397880Y-176100D01*
X398451Y-176386D01*
X399308D01*
X399880Y-176100D01*
X400451Y-175529D01*
X400736Y-174672D01*
Y-174101D01*
X400451Y-173244D01*
X399880Y-172672D01*
X399308Y-172387D01*
X398451D01*
X402050D02*
Y-176386D01*
Y-173529D02*
X402907Y-172672D01*
X403479Y-172387D01*
X404336D01*
X404907Y-172672D01*
X405193Y-173529D01*
Y-176386D01*
Y-173529D02*
X406050Y-172672D01*
X406621Y-172387D01*
X407478D01*
X408049Y-172672D01*
X408335Y-173529D01*
Y-176386D01*
X414933Y-170387D02*
Y-176386D01*
X418361D01*
X422446Y-172387D02*
Y-176386D01*
Y-173244D02*
X421875Y-172672D01*
X421304Y-172387D01*
X420446D01*
X419875Y-172672D01*
X419304Y-173244D01*
X419018Y-174101D01*
Y-174672D01*
X419304Y-175529D01*
X419875Y-176100D01*
X420446Y-176386D01*
X421304D01*
X421875Y-176100D01*
X422446Y-175529D01*
X424331Y-172387D02*
X426045Y-176386D01*
X427759Y-172387D02*
X426045Y-176386D01*
X425474Y-177528D01*
X424903Y-178100D01*
X424331Y-178385D01*
X424046D01*
X428759Y-174101D02*
X432187D01*
Y-173529D01*
X431901Y-172958D01*
X431615Y-172672D01*
X431044Y-172387D01*
X430187D01*
X429616Y-172672D01*
X429045Y-173244D01*
X428759Y-174101D01*
Y-174672D01*
X429045Y-175529D01*
X429616Y-176100D01*
X430187Y-176386D01*
X431044D01*
X431615Y-176100D01*
X432187Y-175529D01*
X433472Y-172387D02*
Y-176386D01*
Y-174101D02*
X433758Y-173244D01*
X434329Y-172672D01*
X434901Y-172387D01*
X435757D01*
X380369Y-182387D02*
Y-188386D01*
Y-182387D02*
X382940D01*
X383797Y-182673D01*
X384083Y-182958D01*
X384368Y-183530D01*
Y-184101D01*
X384083Y-184672D01*
X383797Y-184958D01*
X382940Y-185244D01*
X380369D02*
X382940D01*
X383797Y-185529D01*
X384083Y-185815D01*
X384368Y-186386D01*
Y-187243D01*
X384083Y-187814D01*
X383797Y-188100D01*
X382940Y-188386D01*
X380369D01*
X387139Y-184387D02*
X386568Y-184672D01*
X385997Y-185244D01*
X385711Y-186101D01*
Y-186672D01*
X385997Y-187529D01*
X386568Y-188100D01*
X387139Y-188386D01*
X387996D01*
X388568Y-188100D01*
X389139Y-187529D01*
X389425Y-186672D01*
Y-186101D01*
X389139Y-185244D01*
X388568Y-184672D01*
X387996Y-184387D01*
X387139D01*
X391596Y-182387D02*
Y-187243D01*
X391881Y-188100D01*
X392453Y-188386D01*
X393024D01*
X390739Y-184387D02*
X392738D01*
X394738Y-182387D02*
Y-187243D01*
X395023Y-188100D01*
X395595Y-188386D01*
X396166D01*
X393881Y-184387D02*
X395880D01*
X398451D02*
X397880Y-184672D01*
X397309Y-185244D01*
X397023Y-186101D01*
Y-186672D01*
X397309Y-187529D01*
X397880Y-188100D01*
X398451Y-188386D01*
X399308D01*
X399880Y-188100D01*
X400451Y-187529D01*
X400736Y-186672D01*
Y-186101D01*
X400451Y-185244D01*
X399880Y-184672D01*
X399308Y-184387D01*
X398451D01*
X402050D02*
Y-188386D01*
Y-185529D02*
X402907Y-184672D01*
X403479Y-184387D01*
X404336D01*
X404907Y-184672D01*
X405193Y-185529D01*
Y-188386D01*
Y-185529D02*
X406050Y-184672D01*
X406621Y-184387D01*
X407478D01*
X408049Y-184672D01*
X408335Y-185529D01*
Y-188386D01*
X418932Y-183244D02*
X418361Y-182673D01*
X417504Y-182387D01*
X416362D01*
X415505Y-182673D01*
X414933Y-183244D01*
Y-183815D01*
X415219Y-184387D01*
X415505Y-184672D01*
X416076Y-184958D01*
X417790Y-185529D01*
X418361Y-185815D01*
X418647Y-186101D01*
X418932Y-186672D01*
Y-187529D01*
X418361Y-188100D01*
X417504Y-188386D01*
X416362D01*
X415505Y-188100D01*
X414933Y-187529D01*
X421703Y-184387D02*
X421132Y-184672D01*
X420561Y-185244D01*
X420275Y-186101D01*
Y-186672D01*
X420561Y-187529D01*
X421132Y-188100D01*
X421703Y-188386D01*
X422560D01*
X423132Y-188100D01*
X423703Y-187529D01*
X423989Y-186672D01*
Y-186101D01*
X423703Y-185244D01*
X423132Y-184672D01*
X422560Y-184387D01*
X421703D01*
X425303Y-182387D02*
Y-188386D01*
X429987Y-182387D02*
Y-188386D01*
Y-185244D02*
X429416Y-184672D01*
X428845Y-184387D01*
X427988D01*
X427416Y-184672D01*
X426845Y-185244D01*
X426559Y-186101D01*
Y-186672D01*
X426845Y-187529D01*
X427416Y-188100D01*
X427988Y-188386D01*
X428845D01*
X429416Y-188100D01*
X429987Y-187529D01*
X431587Y-186101D02*
X435015D01*
Y-185529D01*
X434729Y-184958D01*
X434444Y-184672D01*
X433872Y-184387D01*
X433015D01*
X432444Y-184672D01*
X431873Y-185244D01*
X431587Y-186101D01*
Y-186672D01*
X431873Y-187529D01*
X432444Y-188100D01*
X433015Y-188386D01*
X433872D01*
X434444Y-188100D01*
X435015Y-187529D01*
X436300Y-184387D02*
Y-188386D01*
Y-186101D02*
X436586Y-185244D01*
X437157Y-184672D01*
X437729Y-184387D01*
X438586D01*
X380369Y-194387D02*
Y-200386D01*
Y-194387D02*
X382940D01*
X383797Y-194673D01*
X384083Y-194958D01*
X384368Y-195530D01*
Y-196101D01*
X384083Y-196672D01*
X383797Y-196958D01*
X382940Y-197244D01*
X380369D02*
X382940D01*
X383797Y-197529D01*
X384083Y-197815D01*
X384368Y-198386D01*
Y-199243D01*
X384083Y-199814D01*
X383797Y-200100D01*
X382940Y-200386D01*
X380369D01*
X387139Y-196387D02*
X386568Y-196672D01*
X385997Y-197244D01*
X385711Y-198101D01*
Y-198672D01*
X385997Y-199529D01*
X386568Y-200100D01*
X387139Y-200386D01*
X387996D01*
X388568Y-200100D01*
X389139Y-199529D01*
X389425Y-198672D01*
Y-198101D01*
X389139Y-197244D01*
X388568Y-196672D01*
X387996Y-196387D01*
X387139D01*
X391596Y-194387D02*
Y-199243D01*
X391881Y-200100D01*
X392453Y-200386D01*
X393024D01*
X390739Y-196387D02*
X392738D01*
X394738Y-194387D02*
Y-199243D01*
X395023Y-200100D01*
X395595Y-200386D01*
X396166D01*
X393881Y-196387D02*
X395880D01*
X398451D02*
X397880Y-196672D01*
X397309Y-197244D01*
X397023Y-198101D01*
Y-198672D01*
X397309Y-199529D01*
X397880Y-200100D01*
X398451Y-200386D01*
X399308D01*
X399880Y-200100D01*
X400451Y-199529D01*
X400736Y-198672D01*
Y-198101D01*
X400451Y-197244D01*
X399880Y-196672D01*
X399308Y-196387D01*
X398451D01*
X402050D02*
Y-200386D01*
Y-197529D02*
X402907Y-196672D01*
X403479Y-196387D01*
X404336D01*
X404907Y-196672D01*
X405193Y-197529D01*
Y-200386D01*
Y-197529D02*
X406050Y-196672D01*
X406621Y-196387D01*
X407478D01*
X408049Y-196672D01*
X408335Y-197529D01*
Y-200386D01*
X416647Y-194387D02*
X416076Y-194673D01*
X415505Y-195244D01*
X415219Y-195815D01*
X414933Y-196672D01*
Y-198101D01*
X415219Y-198958D01*
X415505Y-199529D01*
X416076Y-200100D01*
X416647Y-200386D01*
X417790D01*
X418361Y-200100D01*
X418932Y-199529D01*
X419218Y-198958D01*
X419504Y-198101D01*
Y-196672D01*
X419218Y-195815D01*
X418932Y-195244D01*
X418361Y-194673D01*
X417790Y-194387D01*
X416647D01*
X420903Y-196387D02*
X422617Y-200386D01*
X424331Y-196387D02*
X422617Y-200386D01*
X425303Y-198101D02*
X428730D01*
Y-197529D01*
X428445Y-196958D01*
X428159Y-196672D01*
X427588Y-196387D01*
X426731D01*
X426160Y-196672D01*
X425588Y-197244D01*
X425303Y-198101D01*
Y-198672D01*
X425588Y-199529D01*
X426160Y-200100D01*
X426731Y-200386D01*
X427588D01*
X428159Y-200100D01*
X428730Y-199529D01*
X430016Y-196387D02*
Y-200386D01*
Y-198101D02*
X430302Y-197244D01*
X430873Y-196672D01*
X431444Y-196387D01*
X432301D01*
X432844Y-194387D02*
Y-200386D01*
X437529Y-196387D02*
Y-200386D01*
Y-197244D02*
X436957Y-196672D01*
X436386Y-196387D01*
X435529D01*
X434958Y-196672D01*
X434386Y-197244D01*
X434101Y-198101D01*
Y-198672D01*
X434386Y-199529D01*
X434958Y-200100D01*
X435529Y-200386D01*
X436386D01*
X436957Y-200100D01*
X437529Y-199529D01*
X439414Y-196387D02*
X441128Y-200386D01*
X442842Y-196387D02*
X441128Y-200386D01*
X440556Y-201528D01*
X439985Y-202100D01*
X439414Y-202385D01*
X439128D01*
X380369Y-110387D02*
Y-116386D01*
Y-110387D02*
X384368Y-116386D01*
Y-110387D02*
Y-116386D01*
X389453Y-112387D02*
Y-116386D01*
Y-113244D02*
X388882Y-112672D01*
X388311Y-112387D01*
X387454D01*
X386882Y-112672D01*
X386311Y-113244D01*
X386025Y-114101D01*
Y-114672D01*
X386311Y-115529D01*
X386882Y-116100D01*
X387454Y-116386D01*
X388311D01*
X388882Y-116100D01*
X389453Y-115529D01*
X391053Y-112387D02*
Y-116386D01*
Y-113529D02*
X391910Y-112672D01*
X392481Y-112387D01*
X393338D01*
X393909Y-112672D01*
X394195Y-113529D01*
Y-116386D01*
Y-113529D02*
X395052Y-112672D01*
X395623Y-112387D01*
X396480D01*
X397052Y-112672D01*
X397337Y-113529D01*
Y-116386D01*
X399222Y-114101D02*
X402650D01*
Y-113529D01*
X402365Y-112958D01*
X402079Y-112672D01*
X401508Y-112387D01*
X400651D01*
X400079Y-112672D01*
X399508Y-113244D01*
X399222Y-114101D01*
Y-114672D01*
X399508Y-115529D01*
X400079Y-116100D01*
X400651Y-116386D01*
X401508D01*
X402079Y-116100D01*
X402650Y-115529D01*
X345545Y-147530D02*
X346117Y-147244D01*
X346973Y-146387D01*
Y-152386D01*
X345831Y-171815D02*
Y-171530D01*
X346117Y-170958D01*
X346402Y-170673D01*
X346973Y-170387D01*
X348116D01*
X348688Y-170673D01*
X348973Y-170958D01*
X349259Y-171530D01*
Y-172101D01*
X348973Y-172672D01*
X348402Y-173529D01*
X345545Y-176386D01*
X349544D01*
X345545Y-110387D02*
Y-116386D01*
X348973D01*
X353058Y-112387D02*
Y-116386D01*
Y-113244D02*
X352487Y-112672D01*
X351915Y-112387D01*
X351058D01*
X350487Y-112672D01*
X349916Y-113244D01*
X349630Y-114101D01*
Y-114672D01*
X349916Y-115529D01*
X350487Y-116100D01*
X351058Y-116386D01*
X351915D01*
X352487Y-116100D01*
X353058Y-115529D01*
X354943Y-112387D02*
X356657Y-116386D01*
X358371Y-112387D02*
X356657Y-116386D01*
X356086Y-117528D01*
X355515Y-118100D01*
X354943Y-118385D01*
X354658D01*
X359371Y-114101D02*
X362799D01*
Y-113529D01*
X362513Y-112958D01*
X362227Y-112672D01*
X361656Y-112387D01*
X360799D01*
X360228Y-112672D01*
X359657Y-113244D01*
X359371Y-114101D01*
Y-114672D01*
X359657Y-115529D01*
X360228Y-116100D01*
X360799Y-116386D01*
X361656D01*
X362227Y-116100D01*
X362799Y-115529D01*
X364084Y-112387D02*
Y-116386D01*
Y-114101D02*
X364370Y-113244D01*
X364941Y-112672D01*
X365512Y-112387D01*
X366369D01*
D13*
X281853Y-115451D02*
Y-118307D01*
X284423Y-118593D01*
X284138Y-118307D01*
X283852Y-117450D01*
Y-116593D01*
X284138Y-115736D01*
X284709Y-115165D01*
X285566Y-114879D01*
X286137D01*
X286994Y-115165D01*
X287566Y-115736D01*
X287851Y-116593D01*
Y-117450D01*
X287566Y-118307D01*
X287280Y-118593D01*
X286709Y-118878D01*
X281853Y-111823D02*
X282138Y-112680D01*
X282995Y-113251D01*
X284423Y-113537D01*
X285280D01*
X286709Y-113251D01*
X287566Y-112680D01*
X287851Y-111823D01*
Y-111251D01*
X287566Y-110394D01*
X286709Y-109823D01*
X285280Y-109537D01*
X284423D01*
X282995Y-109823D01*
X282138Y-110394D01*
X281853Y-111251D01*
Y-111823D01*
X287280Y-107909D02*
X287566Y-108195D01*
X287851Y-107909D01*
X287566Y-107624D01*
X287280Y-107909D01*
X281853Y-104596D02*
X282138Y-105453D01*
X282995Y-106024D01*
X284423Y-106310D01*
X285280D01*
X286709Y-106024D01*
X287566Y-105453D01*
X287851Y-104596D01*
Y-104024D01*
X287566Y-103167D01*
X286709Y-102596D01*
X285280Y-102310D01*
X284423D01*
X282995Y-102596D01*
X282138Y-103167D01*
X281853Y-104024D01*
Y-104596D01*
Y-99254D02*
X282138Y-100111D01*
X282995Y-100682D01*
X284423Y-100968D01*
X285280D01*
X286709Y-100682D01*
X287566Y-100111D01*
X287851Y-99254D01*
Y-98683D01*
X287566Y-97826D01*
X286709Y-97254D01*
X285280Y-96969D01*
X284423D01*
X282995Y-97254D01*
X282138Y-97826D01*
X281853Y-98683D01*
Y-99254D01*
X283852Y-95626D02*
X287851D01*
X284995D02*
X284138Y-94769D01*
X283852Y-94198D01*
Y-93341D01*
X284138Y-92770D01*
X284995Y-92484D01*
X287851D01*
X284995D02*
X284138Y-91627D01*
X283852Y-91056D01*
Y-90199D01*
X284138Y-89627D01*
X284995Y-89342D01*
X287851D01*
X283852Y-87457D02*
X287851D01*
X284995D02*
X284138Y-86599D01*
X283852Y-86028D01*
Y-85171D01*
X284138Y-84600D01*
X284995Y-84314D01*
X287851D01*
X284995D02*
X284138Y-83457D01*
X283852Y-82886D01*
Y-82029D01*
X284138Y-81458D01*
X284995Y-81172D01*
X287851D01*
X121341Y-200308D02*
X118485Y-206307D01*
X117342Y-200308D02*
X121341D01*
X124398D02*
X123541Y-200594D01*
X122969Y-201450D01*
X122684Y-202879D01*
Y-203736D01*
X122969Y-205164D01*
X123541Y-206021D01*
X124398Y-206307D01*
X124969D01*
X125826Y-206021D01*
X126397Y-205164D01*
X126683Y-203736D01*
Y-202879D01*
X126397Y-201450D01*
X125826Y-200594D01*
X124969Y-200308D01*
X124398D01*
X128311Y-205735D02*
X128026Y-206021D01*
X128311Y-206307D01*
X128597Y-206021D01*
X128311Y-205735D01*
X131625Y-200308D02*
X130768Y-200594D01*
X130197Y-201450D01*
X129911Y-202879D01*
Y-203736D01*
X130197Y-205164D01*
X130768Y-206021D01*
X131625Y-206307D01*
X132196D01*
X133053Y-206021D01*
X133624Y-205164D01*
X133910Y-203736D01*
Y-202879D01*
X133624Y-201450D01*
X133053Y-200594D01*
X132196Y-200308D01*
X131625D01*
X136967D02*
X136110Y-200594D01*
X135538Y-201450D01*
X135253Y-202879D01*
Y-203736D01*
X135538Y-205164D01*
X136110Y-206021D01*
X136967Y-206307D01*
X137538D01*
X138395Y-206021D01*
X138966Y-205164D01*
X139252Y-203736D01*
Y-202879D01*
X138966Y-201450D01*
X138395Y-200594D01*
X137538Y-200308D01*
X136967D01*
X140594Y-202308D02*
Y-206307D01*
Y-203450D02*
X141451Y-202593D01*
X142023Y-202308D01*
X142879D01*
X143451Y-202593D01*
X143737Y-203450D01*
Y-206307D01*
Y-203450D02*
X144594Y-202593D01*
X145165Y-202308D01*
X146022D01*
X146593Y-202593D01*
X146879Y-203450D01*
Y-206307D01*
X148764Y-202308D02*
Y-206307D01*
Y-203450D02*
X149621Y-202593D01*
X150192Y-202308D01*
X151049D01*
X151620Y-202593D01*
X151906Y-203450D01*
Y-206307D01*
Y-203450D02*
X152763Y-202593D01*
X153334Y-202308D01*
X154191D01*
X154763Y-202593D01*
X155048Y-203450D01*
Y-206307D01*
X281853Y-115451D02*
Y-118307D01*
X284423Y-118593D01*
X284138Y-118307D01*
X283852Y-117450D01*
Y-116593D01*
X284138Y-115736D01*
X284709Y-115165D01*
X285566Y-114879D01*
X286137D01*
X286994Y-115165D01*
X287566Y-115736D01*
X287851Y-116593D01*
Y-117450D01*
X287566Y-118307D01*
X287280Y-118593D01*
X286709Y-118878D01*
X281853Y-111823D02*
X282138Y-112680D01*
X282995Y-113251D01*
X284423Y-113537D01*
X285280D01*
X286709Y-113251D01*
X287566Y-112680D01*
X287851Y-111823D01*
Y-111251D01*
X287566Y-110394D01*
X286709Y-109823D01*
X285280Y-109537D01*
X284423D01*
X282995Y-109823D01*
X282138Y-110394D01*
X281853Y-111251D01*
Y-111823D01*
X287280Y-107909D02*
X287566Y-108195D01*
X287851Y-107909D01*
X287566Y-107624D01*
X287280Y-107909D01*
X281853Y-104596D02*
X282138Y-105453D01*
X282995Y-106024D01*
X284423Y-106310D01*
X285280D01*
X286709Y-106024D01*
X287566Y-105453D01*
X287851Y-104596D01*
Y-104024D01*
X287566Y-103167D01*
X286709Y-102596D01*
X285280Y-102310D01*
X284423D01*
X282995Y-102596D01*
X282138Y-103167D01*
X281853Y-104024D01*
Y-104596D01*
Y-99254D02*
X282138Y-100111D01*
X282995Y-100682D01*
X284423Y-100968D01*
X285280D01*
X286709Y-100682D01*
X287566Y-100111D01*
X287851Y-99254D01*
Y-98683D01*
X287566Y-97826D01*
X286709Y-97254D01*
X285280Y-96969D01*
X284423D01*
X282995Y-97254D01*
X282138Y-97826D01*
X281853Y-98683D01*
Y-99254D01*
X283852Y-95626D02*
X287851D01*
X284995D02*
X284138Y-94769D01*
X283852Y-94198D01*
Y-93341D01*
X284138Y-92770D01*
X284995Y-92484D01*
X287851D01*
X284995D02*
X284138Y-91627D01*
X283852Y-91056D01*
Y-90199D01*
X284138Y-89627D01*
X284995Y-89342D01*
X287851D01*
X283852Y-87457D02*
X287851D01*
X284995D02*
X284138Y-86599D01*
X283852Y-86028D01*
Y-85171D01*
X284138Y-84600D01*
X284995Y-84314D01*
X287851D01*
X284995D02*
X284138Y-83457D01*
X283852Y-82886D01*
Y-82029D01*
X284138Y-81458D01*
X284995Y-81172D01*
X287851D01*
X121341Y-200308D02*
X118485Y-206307D01*
X117342Y-200308D02*
X121341D01*
X124398D02*
X123541Y-200594D01*
X122969Y-201450D01*
X122684Y-202879D01*
Y-203736D01*
X122969Y-205164D01*
X123541Y-206021D01*
X124398Y-206307D01*
X124969D01*
X125826Y-206021D01*
X126397Y-205164D01*
X126683Y-203736D01*
Y-202879D01*
X126397Y-201450D01*
X125826Y-200594D01*
X124969Y-200308D01*
X124398D01*
X128311Y-205735D02*
X128026Y-206021D01*
X128311Y-206307D01*
X128597Y-206021D01*
X128311Y-205735D01*
X131625Y-200308D02*
X130768Y-200594D01*
X130197Y-201450D01*
X129911Y-202879D01*
Y-203736D01*
X130197Y-205164D01*
X130768Y-206021D01*
X131625Y-206307D01*
X132196D01*
X133053Y-206021D01*
X133624Y-205164D01*
X133910Y-203736D01*
Y-202879D01*
X133624Y-201450D01*
X133053Y-200594D01*
X132196Y-200308D01*
X131625D01*
X136967D02*
X136110Y-200594D01*
X135538Y-201450D01*
X135253Y-202879D01*
Y-203736D01*
X135538Y-205164D01*
X136110Y-206021D01*
X136967Y-206307D01*
X137538D01*
X138395Y-206021D01*
X138966Y-205164D01*
X139252Y-203736D01*
Y-202879D01*
X138966Y-201450D01*
X138395Y-200594D01*
X137538Y-200308D01*
X136967D01*
X140594Y-202308D02*
Y-206307D01*
Y-203450D02*
X141451Y-202593D01*
X142023Y-202308D01*
X142879D01*
X143451Y-202593D01*
X143737Y-203450D01*
Y-206307D01*
Y-203450D02*
X144594Y-202593D01*
X145165Y-202308D01*
X146022D01*
X146593Y-202593D01*
X146879Y-203450D01*
Y-206307D01*
X148764Y-202308D02*
Y-206307D01*
Y-203450D02*
X149621Y-202593D01*
X150192Y-202308D01*
X151049D01*
X151620Y-202593D01*
X151906Y-203450D01*
Y-206307D01*
Y-203450D02*
X152763Y-202593D01*
X153334Y-202308D01*
X154191D01*
X154763Y-202593D01*
X155048Y-203450D01*
Y-206307D01*
M02*
