G04*
G04 #@! TF.GenerationSoftware,Altium Limited,Altium Designer,20.2.5 (213)*
G04*
G04 Layer_Physical_Order=1*
G04 Layer_Color=255*
%FSLAX25Y25*%
%MOIN*%
G70*
G04*
G04 #@! TF.SameCoordinates,60F93EC6-C58D-44ED-8A3A-9E4C80F0F1D9*
G04*
G04*
G04 #@! TF.FilePolarity,Positive*
G04*
G01*
G75*
%ADD10C,0.01000*%
%ADD21R,0.02402X0.01378*%
%ADD22R,0.01378X0.02402*%
G04:AMPARAMS|DCode=34|XSize=77.56mil|YSize=37.4mil|CornerRadius=4.68mil|HoleSize=0mil|Usage=FLASHONLY|Rotation=0.000|XOffset=0mil|YOffset=0mil|HoleType=Round|Shape=RoundedRectangle|*
%AMROUNDEDRECTD34*
21,1,0.07756,0.02805,0,0,0.0*
21,1,0.06821,0.03740,0,0,0.0*
1,1,0.00935,0.03410,-0.01403*
1,1,0.00935,-0.03410,-0.01403*
1,1,0.00935,-0.03410,0.01403*
1,1,0.00935,0.03410,0.01403*
%
%ADD34ROUNDEDRECTD34*%
G04:AMPARAMS|DCode=35|XSize=77.56mil|YSize=127.95mil|CornerRadius=9.7mil|HoleSize=0mil|Usage=FLASHONLY|Rotation=0.000|XOffset=0mil|YOffset=0mil|HoleType=Round|Shape=RoundedRectangle|*
%AMROUNDEDRECTD35*
21,1,0.07756,0.10856,0,0,0.0*
21,1,0.05817,0.12795,0,0,0.0*
1,1,0.01939,0.02909,-0.05428*
1,1,0.01939,-0.02909,-0.05428*
1,1,0.01939,-0.02909,0.05428*
1,1,0.01939,0.02909,0.05428*
%
%ADD35ROUNDEDRECTD35*%
G04:AMPARAMS|DCode=36|XSize=78.74mil|YSize=59.06mil|CornerRadius=7.38mil|HoleSize=0mil|Usage=FLASHONLY|Rotation=180.000|XOffset=0mil|YOffset=0mil|HoleType=Round|Shape=RoundedRectangle|*
%AMROUNDEDRECTD36*
21,1,0.07874,0.04429,0,0,180.0*
21,1,0.06398,0.05906,0,0,180.0*
1,1,0.01476,-0.03199,0.02215*
1,1,0.01476,0.03199,0.02215*
1,1,0.01476,0.03199,-0.02215*
1,1,0.01476,-0.03199,-0.02215*
%
%ADD36ROUNDEDRECTD36*%
G04:AMPARAMS|DCode=37|XSize=39.37mil|YSize=37.4mil|CornerRadius=9.35mil|HoleSize=0mil|Usage=FLASHONLY|Rotation=270.000|XOffset=0mil|YOffset=0mil|HoleType=Round|Shape=RoundedRectangle|*
%AMROUNDEDRECTD37*
21,1,0.03937,0.01870,0,0,270.0*
21,1,0.02067,0.03740,0,0,270.0*
1,1,0.01870,-0.00935,-0.01034*
1,1,0.01870,-0.00935,0.01034*
1,1,0.01870,0.00935,0.01034*
1,1,0.01870,0.00935,-0.01034*
%
%ADD37ROUNDEDRECTD37*%
G04:AMPARAMS|DCode=38|XSize=39.37mil|YSize=37.4mil|CornerRadius=9.35mil|HoleSize=0mil|Usage=FLASHONLY|Rotation=180.000|XOffset=0mil|YOffset=0mil|HoleType=Round|Shape=RoundedRectangle|*
%AMROUNDEDRECTD38*
21,1,0.03937,0.01870,0,0,180.0*
21,1,0.02067,0.03740,0,0,180.0*
1,1,0.01870,-0.01034,0.00935*
1,1,0.01870,0.01034,0.00935*
1,1,0.01870,0.01034,-0.00935*
1,1,0.01870,-0.01034,-0.00935*
%
%ADD38ROUNDEDRECTD38*%
G04:AMPARAMS|DCode=39|XSize=78.74mil|YSize=67.72mil|CornerRadius=8.47mil|HoleSize=0mil|Usage=FLASHONLY|Rotation=90.000|XOffset=0mil|YOffset=0mil|HoleType=Round|Shape=RoundedRectangle|*
%AMROUNDEDRECTD39*
21,1,0.07874,0.05079,0,0,90.0*
21,1,0.06181,0.06772,0,0,90.0*
1,1,0.01693,0.02539,0.03091*
1,1,0.01693,0.02539,-0.03091*
1,1,0.01693,-0.02539,-0.03091*
1,1,0.01693,-0.02539,0.03091*
%
%ADD39ROUNDEDRECTD39*%
G04:AMPARAMS|DCode=40|XSize=20.47mil|YSize=57.87mil|CornerRadius=2.56mil|HoleSize=0mil|Usage=FLASHONLY|Rotation=0.000|XOffset=0mil|YOffset=0mil|HoleType=Round|Shape=RoundedRectangle|*
%AMROUNDEDRECTD40*
21,1,0.02047,0.05276,0,0,0.0*
21,1,0.01535,0.05787,0,0,0.0*
1,1,0.00512,0.00768,-0.02638*
1,1,0.00512,-0.00768,-0.02638*
1,1,0.00512,-0.00768,0.02638*
1,1,0.00512,0.00768,0.02638*
%
%ADD40ROUNDEDRECTD40*%
G04:AMPARAMS|DCode=41|XSize=57.87mil|YSize=20.47mil|CornerRadius=2.56mil|HoleSize=0mil|Usage=FLASHONLY|Rotation=0.000|XOffset=0mil|YOffset=0mil|HoleType=Round|Shape=RoundedRectangle|*
%AMROUNDEDRECTD41*
21,1,0.05787,0.01535,0,0,0.0*
21,1,0.05276,0.02047,0,0,0.0*
1,1,0.00512,0.02638,-0.00768*
1,1,0.00512,-0.02638,-0.00768*
1,1,0.00512,-0.02638,0.00768*
1,1,0.00512,0.02638,0.00768*
%
%ADD41ROUNDEDRECTD41*%
G04:AMPARAMS|DCode=42|XSize=56.1mil|YSize=14.17mil|CornerRadius=3.54mil|HoleSize=0mil|Usage=FLASHONLY|Rotation=180.000|XOffset=0mil|YOffset=0mil|HoleType=Round|Shape=RoundedRectangle|*
%AMROUNDEDRECTD42*
21,1,0.05610,0.00709,0,0,180.0*
21,1,0.04902,0.01417,0,0,180.0*
1,1,0.00709,-0.02451,0.00354*
1,1,0.00709,0.02451,0.00354*
1,1,0.00709,0.02451,-0.00354*
1,1,0.00709,-0.02451,-0.00354*
%
%ADD42ROUNDEDRECTD42*%
G04:AMPARAMS|DCode=43|XSize=19.68mil|YSize=13.78mil|CornerRadius=1.72mil|HoleSize=0mil|Usage=FLASHONLY|Rotation=0.000|XOffset=0mil|YOffset=0mil|HoleType=Round|Shape=RoundedRectangle|*
%AMROUNDEDRECTD43*
21,1,0.01968,0.01034,0,0,0.0*
21,1,0.01624,0.01378,0,0,0.0*
1,1,0.00345,0.00812,-0.00517*
1,1,0.00345,-0.00812,-0.00517*
1,1,0.00345,-0.00812,0.00517*
1,1,0.00345,0.00812,0.00517*
%
%ADD43ROUNDEDRECTD43*%
%ADD44C,0.03937*%
%ADD45C,0.01968*%
%ADD46C,0.01181*%
%ADD47C,0.01378*%
%ADD48C,0.07677*%
G04:AMPARAMS|DCode=49|XSize=76.77mil|YSize=76.77mil|CornerRadius=19.19mil|HoleSize=0mil|Usage=FLASHONLY|Rotation=90.000|XOffset=0mil|YOffset=0mil|HoleType=Round|Shape=RoundedRectangle|*
%AMROUNDEDRECTD49*
21,1,0.07677,0.03839,0,0,90.0*
21,1,0.03839,0.07677,0,0,90.0*
1,1,0.03839,0.01919,0.01919*
1,1,0.03839,0.01919,-0.01919*
1,1,0.03839,-0.01919,-0.01919*
1,1,0.03839,-0.01919,0.01919*
%
%ADD49ROUNDEDRECTD49*%
G04:AMPARAMS|DCode=50|XSize=76.77mil|YSize=76.77mil|CornerRadius=19.19mil|HoleSize=0mil|Usage=FLASHONLY|Rotation=180.000|XOffset=0mil|YOffset=0mil|HoleType=Round|Shape=RoundedRectangle|*
%AMROUNDEDRECTD50*
21,1,0.07677,0.03839,0,0,180.0*
21,1,0.03839,0.07677,0,0,180.0*
1,1,0.03839,-0.01919,0.01919*
1,1,0.03839,0.01919,0.01919*
1,1,0.03839,0.01919,-0.01919*
1,1,0.03839,-0.01919,-0.01919*
%
%ADD50ROUNDEDRECTD50*%
%ADD51C,0.05118*%
%ADD52R,0.06496X0.06496*%
%ADD53C,0.06496*%
%ADD54R,0.06496X0.06496*%
%ADD55C,0.23622*%
%ADD56C,0.03937*%
G36*
X273584Y-31496D02*
X273584Y-194843D01*
X2007D01*
Y-2007D01*
X245116D01*
X245176Y-2507D01*
X243729Y-2854D01*
X241725Y-3684D01*
X239876Y-4818D01*
X238226Y-6226D01*
X236818Y-7876D01*
X235684Y-9725D01*
X234854Y-11729D01*
X234348Y-13838D01*
X234178Y-16000D01*
X234348Y-18162D01*
X234854Y-20271D01*
X235684Y-22275D01*
X236818Y-24124D01*
X238226Y-25774D01*
X239876Y-27182D01*
X241725Y-28316D01*
X243729Y-29146D01*
X245838Y-29652D01*
X248000Y-29822D01*
X250162Y-29652D01*
X252271Y-29146D01*
X254275Y-28316D01*
X256124Y-27182D01*
X257774Y-25774D01*
X259182Y-24124D01*
X260316Y-22275D01*
X261146Y-20271D01*
X261652Y-18162D01*
X261822Y-16000D01*
X261652Y-13838D01*
X261146Y-11729D01*
X260316Y-9725D01*
X259182Y-7876D01*
X257774Y-6226D01*
X256124Y-4818D01*
X254275Y-3684D01*
X252271Y-2854D01*
X250824Y-2507D01*
X250884Y-2007D01*
X273584D01*
Y-31496D01*
D02*
G37*
%LPC*%
G36*
X19685Y-5863D02*
X17523Y-6033D01*
X15414Y-6539D01*
X13410Y-7369D01*
X11561Y-8503D01*
X9911Y-9911D01*
X8503Y-11561D01*
X7369Y-13410D01*
X6539Y-15414D01*
X6033Y-17523D01*
X5863Y-19685D01*
X6033Y-21847D01*
X6539Y-23956D01*
X7369Y-25960D01*
X8503Y-27810D01*
X9911Y-29459D01*
X11561Y-30867D01*
X13410Y-32001D01*
X15414Y-32831D01*
X17523Y-33337D01*
X19685Y-33507D01*
X21847Y-33337D01*
X23956Y-32831D01*
X25960Y-32001D01*
X27810Y-30867D01*
X29459Y-29459D01*
X30867Y-27810D01*
X32001Y-25960D01*
X32831Y-23956D01*
X33337Y-21847D01*
X33507Y-19685D01*
X33337Y-17523D01*
X32831Y-15414D01*
X32001Y-13410D01*
X30867Y-11561D01*
X29459Y-9911D01*
X27810Y-8503D01*
X25960Y-7369D01*
X23956Y-6539D01*
X21847Y-6033D01*
X19685Y-5863D01*
D02*
G37*
G36*
X74803Y-49390D02*
X30709D01*
X30325Y-49467D01*
X29999Y-49684D01*
X26062Y-53621D01*
X25844Y-53947D01*
X25768Y-54331D01*
Y-62205D01*
X25844Y-62589D01*
X26062Y-62914D01*
X27283Y-64135D01*
X27316Y-64184D01*
X27365Y-64217D01*
X28450Y-65302D01*
X28555Y-65372D01*
X28700Y-65786D01*
X28719Y-65979D01*
X28273Y-66560D01*
X27786Y-67737D01*
X27697Y-68410D01*
X32500D01*
X37303D01*
X37214Y-67737D01*
X36726Y-66560D01*
X36331Y-66044D01*
X36552Y-65596D01*
X40132Y-65596D01*
X40516Y-65520D01*
X40841Y-65302D01*
X42935Y-63208D01*
X50815Y-63208D01*
X51051Y-63649D01*
X51012Y-63707D01*
X50862Y-64462D01*
Y-64806D01*
X53869D01*
X56875D01*
Y-64462D01*
X56725Y-63707D01*
X56686Y-63649D01*
X56922Y-63208D01*
X58315Y-63208D01*
X58551Y-63649D01*
X58512Y-63707D01*
X58362Y-64462D01*
Y-64806D01*
X61369D01*
X64375D01*
Y-64462D01*
X64225Y-63707D01*
X64186Y-63649D01*
X64422Y-63208D01*
X65419D01*
X66096Y-63760D01*
X66224Y-63829D01*
X66346Y-63910D01*
X66396Y-63920D01*
X66441Y-63944D01*
X66587Y-63958D01*
X66730Y-63986D01*
X75613D01*
X75997Y-63910D01*
X76323Y-63692D01*
X77875Y-62140D01*
X78092Y-61814D01*
X78169Y-61430D01*
X78169Y-52756D01*
X78092Y-52372D01*
X77875Y-52046D01*
X75513Y-49684D01*
X75187Y-49467D01*
X74803Y-49390D01*
D02*
G37*
G36*
X154331Y-4292D02*
X125984D01*
X125216Y-4445D01*
X124565Y-4880D01*
X113581Y-15864D01*
X113146Y-16515D01*
X112993Y-17284D01*
Y-18111D01*
X112568Y-18287D01*
X111560Y-19060D01*
X110787Y-20068D01*
X110301Y-21241D01*
X110135Y-22500D01*
X110301Y-23759D01*
X110787Y-24932D01*
X111560Y-25940D01*
X112568Y-26713D01*
X112993Y-26889D01*
Y-43224D01*
X109462Y-46755D01*
X109027Y-47406D01*
X108874Y-48174D01*
Y-57928D01*
Y-66480D01*
X108322Y-66849D01*
X108019Y-67303D01*
X106906D01*
X106830Y-67204D01*
X106213Y-66730D01*
X105495Y-66433D01*
X104724Y-66331D01*
X103954Y-66433D01*
X103235Y-66730D01*
X102619Y-67204D01*
X102145Y-67821D01*
X101848Y-68539D01*
X101746Y-69310D01*
X101848Y-70081D01*
X102145Y-70799D01*
X102619Y-71416D01*
X102717Y-71491D01*
Y-87113D01*
X99966Y-89864D01*
X57270D01*
X55604Y-88199D01*
Y-84468D01*
X74803D01*
X75187Y-84392D01*
X75513Y-84174D01*
X77875Y-81812D01*
X78092Y-81486D01*
X78169Y-81102D01*
Y-74803D01*
X78092Y-74419D01*
X77875Y-74094D01*
X76300Y-72519D01*
X75975Y-72301D01*
X75590Y-72225D01*
X66929Y-72225D01*
X66545Y-72301D01*
X66220Y-72519D01*
X65066Y-73672D01*
X64620Y-73444D01*
X64603Y-73428D01*
Y-73091D01*
X58590D01*
Y-73435D01*
X58720Y-74087D01*
X58450Y-74587D01*
X56744Y-74587D01*
X56474Y-74087D01*
X56603Y-73435D01*
Y-73091D01*
X50590D01*
Y-73435D01*
X50720Y-74087D01*
X50450Y-74587D01*
X48031D01*
X47647Y-74663D01*
X47322Y-74881D01*
X46534Y-75668D01*
X46317Y-75994D01*
X46241Y-76378D01*
Y-80315D01*
X46317Y-80699D01*
X46534Y-81024D01*
X49684Y-84174D01*
X50010Y-84392D01*
X50394Y-84468D01*
X51590D01*
Y-89030D01*
X51743Y-89798D01*
X52178Y-90449D01*
X55019Y-93290D01*
X55670Y-93726D01*
X56438Y-93878D01*
X76746D01*
Y-110021D01*
X76194Y-110390D01*
X75726Y-111090D01*
X75562Y-111915D01*
Y-113785D01*
X75726Y-114611D01*
X76194Y-115311D01*
X76816Y-115727D01*
X76859Y-116000D01*
X76816Y-116273D01*
X76194Y-116689D01*
X75726Y-117389D01*
X75562Y-118215D01*
Y-120085D01*
X75726Y-120910D01*
X76194Y-121610D01*
X76894Y-122078D01*
X77256Y-122150D01*
Y-123438D01*
X76926Y-123504D01*
X76226Y-123971D01*
X76040Y-124249D01*
X75542Y-124299D01*
X74474Y-123230D01*
X73983Y-122902D01*
X73404Y-122787D01*
X73107Y-122429D01*
Y-120110D01*
X72949Y-119319D01*
X72501Y-118649D01*
X71830Y-118200D01*
X71039Y-118043D01*
X65961D01*
X65170Y-118200D01*
X64499Y-118649D01*
X64051Y-119319D01*
X63893Y-120110D01*
Y-122787D01*
X59704D01*
Y-121566D01*
X59547Y-120775D01*
X59099Y-120105D01*
X58428Y-119656D01*
X57637Y-119499D01*
X52558D01*
X51767Y-119656D01*
X51096Y-120105D01*
X50648Y-120775D01*
X50491Y-121566D01*
Y-122987D01*
X38848D01*
Y-122581D01*
X38748Y-121823D01*
X38456Y-121116D01*
X37990Y-120510D01*
X37384Y-120045D01*
X36677Y-119752D01*
X35919Y-119652D01*
X32081D01*
X31323Y-119752D01*
X30616Y-120045D01*
X30010Y-120510D01*
X29544Y-121116D01*
X29252Y-121823D01*
X29152Y-122581D01*
Y-126419D01*
X29252Y-127177D01*
X29544Y-127884D01*
X30010Y-128490D01*
X30616Y-128955D01*
X31323Y-129248D01*
X32081Y-129348D01*
X32529D01*
X32629Y-129848D01*
X31568Y-130287D01*
X30560Y-131060D01*
X29787Y-132068D01*
X29301Y-133241D01*
X29136Y-134500D01*
X29301Y-135759D01*
X29787Y-136932D01*
X30560Y-137940D01*
X31568Y-138713D01*
X32741Y-139199D01*
X34000Y-139365D01*
X35259Y-139199D01*
X36432Y-138713D01*
X37440Y-137940D01*
X38213Y-136932D01*
X38593Y-136013D01*
X50491D01*
Y-137422D01*
X50648Y-138214D01*
X51096Y-138884D01*
X51767Y-139332D01*
X52558Y-139490D01*
X57637D01*
X58428Y-139332D01*
X59099Y-138884D01*
X59547Y-138214D01*
X59704Y-137422D01*
Y-136013D01*
X63893D01*
Y-138890D01*
X64051Y-139681D01*
X64499Y-140352D01*
X65170Y-140800D01*
X65961Y-140957D01*
X71039D01*
X71830Y-140800D01*
X72501Y-140352D01*
X72949Y-139681D01*
X73107Y-138890D01*
Y-136598D01*
X73362Y-136213D01*
X73941Y-136098D01*
X74432Y-135770D01*
X75378Y-134824D01*
X76022Y-134887D01*
X76226Y-135192D01*
X76926Y-135660D01*
X77256Y-135725D01*
Y-136834D01*
X76894Y-136906D01*
X76194Y-137374D01*
X75726Y-138074D01*
X75562Y-138900D01*
Y-140770D01*
X75726Y-141595D01*
X76194Y-142295D01*
X76894Y-142763D01*
X77189Y-142822D01*
Y-143332D01*
X76964Y-143376D01*
X76324Y-143804D01*
X75897Y-144444D01*
X75747Y-145199D01*
Y-145543D01*
X78753D01*
X81759D01*
Y-145199D01*
X81609Y-144444D01*
X81182Y-143804D01*
X80541Y-143376D01*
X80317Y-143332D01*
Y-142822D01*
X80612Y-142763D01*
X81312Y-142295D01*
X81780Y-141595D01*
X81944Y-140770D01*
Y-138900D01*
X81780Y-138074D01*
X81312Y-137374D01*
X80612Y-136906D01*
X80282Y-136841D01*
Y-135732D01*
X80644Y-135660D01*
X81344Y-135192D01*
X81812Y-134492D01*
X81861Y-134245D01*
X83819D01*
X83819Y-134245D01*
X84399Y-134130D01*
X84890Y-133801D01*
X86316Y-132375D01*
X89441D01*
X89851Y-132875D01*
X89813Y-133066D01*
Y-133775D01*
X89932Y-134374D01*
X90272Y-134882D01*
X90780Y-135221D01*
X91379Y-135340D01*
X92283D01*
Y-149538D01*
X92128Y-149568D01*
X91428Y-150036D01*
X90960Y-150736D01*
X90796Y-151562D01*
Y-153629D01*
X90960Y-154454D01*
X91428Y-155154D01*
X92128Y-155622D01*
X92954Y-155786D01*
X94824D01*
X95649Y-155622D01*
X96349Y-155154D01*
X96765Y-154532D01*
X97038Y-154489D01*
X97311Y-154532D01*
X97727Y-155154D01*
X98427Y-155622D01*
X98674Y-155671D01*
Y-157019D01*
X98427Y-157068D01*
X97727Y-157536D01*
X97259Y-158236D01*
X97201Y-158531D01*
X96691D01*
X96646Y-158307D01*
X96219Y-157667D01*
X95579Y-157239D01*
X94824Y-157089D01*
X94479D01*
Y-160095D01*
Y-163102D01*
X94824D01*
X95579Y-162951D01*
X96219Y-162524D01*
X96646Y-161884D01*
X96691Y-161660D01*
X97201D01*
X97259Y-161954D01*
X97727Y-162654D01*
X98427Y-163122D01*
X99253Y-163286D01*
X101123D01*
X101949Y-163122D01*
X102648Y-162654D01*
X103116Y-161954D01*
X103280Y-161129D01*
Y-159062D01*
X103116Y-158236D01*
X102648Y-157536D01*
X101949Y-157068D01*
X101701Y-157019D01*
Y-155671D01*
X101949Y-155622D01*
X102648Y-155154D01*
X103116Y-154454D01*
X103280Y-153629D01*
Y-151562D01*
X103116Y-150736D01*
X102648Y-150036D01*
X101949Y-149568D01*
X101123Y-149404D01*
X99253D01*
X98427Y-149568D01*
X97727Y-150036D01*
X97311Y-150658D01*
X97038Y-150701D01*
X96765Y-150658D01*
X96349Y-150036D01*
X95649Y-149568D01*
X95494Y-149538D01*
Y-135340D01*
X96280D01*
X96879Y-135221D01*
X97171Y-135026D01*
X98437D01*
X98437Y-135026D01*
X99052Y-134904D01*
X99573Y-134556D01*
X101479Y-132649D01*
X101827Y-132128D01*
X101949Y-131514D01*
X101949Y-131514D01*
Y-122207D01*
X102104Y-122176D01*
X102804Y-121709D01*
X103272Y-121009D01*
X103331Y-120714D01*
X103840D01*
X103885Y-120938D01*
X104313Y-121578D01*
X104953Y-122006D01*
X105708Y-122156D01*
X106052D01*
Y-119150D01*
Y-116143D01*
X105708D01*
X104953Y-116293D01*
X104313Y-116721D01*
X103885Y-117361D01*
X103840Y-117585D01*
X103331D01*
X103272Y-117290D01*
X102804Y-116590D01*
X102351Y-116287D01*
Y-93157D01*
X104724Y-90783D01*
X106401Y-92460D01*
X107052Y-92895D01*
X107820Y-93047D01*
X111619D01*
X111988Y-93599D01*
X112489Y-93934D01*
Y-97963D01*
X112642Y-98731D01*
X113077Y-99382D01*
X117581Y-103886D01*
X118232Y-104321D01*
X119000Y-104474D01*
X124248D01*
Y-115231D01*
X124400Y-115999D01*
X124836Y-116650D01*
X131254Y-123069D01*
X131905Y-123504D01*
X132673Y-123657D01*
X137534D01*
X137838Y-124110D01*
X138538Y-124578D01*
X139363Y-124742D01*
X141430D01*
X142256Y-124578D01*
X142956Y-124110D01*
X143259Y-123657D01*
X144638D01*
X144941Y-124110D01*
X145641Y-124578D01*
X146467Y-124742D01*
X148533D01*
X149359Y-124578D01*
X150059Y-124110D01*
X150362Y-123657D01*
X150742D01*
X151510Y-123504D01*
X152161Y-123069D01*
X153025Y-122205D01*
X153487Y-122396D01*
Y-140373D01*
X152373Y-141487D01*
X151102D01*
X150989Y-141213D01*
X150421Y-140473D01*
X149681Y-139905D01*
X148819Y-139548D01*
X147894Y-139426D01*
X146969Y-139548D01*
X146107Y-139905D01*
X145367Y-140473D01*
X144799Y-141213D01*
X144442Y-142075D01*
X144320Y-143000D01*
X144442Y-143925D01*
X144799Y-144787D01*
X145367Y-145527D01*
X146107Y-146095D01*
X146184Y-146127D01*
Y-154452D01*
X145739Y-154540D01*
X145039Y-155008D01*
X144572Y-155708D01*
X144407Y-156533D01*
Y-158600D01*
X144572Y-159426D01*
X145039Y-160126D01*
X145739Y-160593D01*
X146565Y-160758D01*
X148435D01*
X149261Y-160593D01*
X149961Y-160126D01*
X150428Y-159426D01*
X150487Y-159131D01*
X150997D01*
X151041Y-159355D01*
X151469Y-159995D01*
X152109Y-160423D01*
X152864Y-160573D01*
X153209D01*
Y-157567D01*
Y-154560D01*
X152864D01*
X152109Y-154710D01*
X151469Y-155138D01*
X151041Y-155778D01*
X150997Y-156002D01*
X150487D01*
X150428Y-155708D01*
X149961Y-155008D01*
X149261Y-154540D01*
X149210Y-154530D01*
Y-146290D01*
X149681Y-146095D01*
X150421Y-145527D01*
X150989Y-144787D01*
X151102Y-144513D01*
X153000D01*
X153000Y-144513D01*
X153579Y-144398D01*
X154070Y-144070D01*
X156070Y-142070D01*
X156070Y-142070D01*
X156398Y-141579D01*
X156513Y-141000D01*
X156513Y-141000D01*
Y-122283D01*
X156606Y-122225D01*
X157106Y-122501D01*
Y-123374D01*
X157217Y-123935D01*
X157535Y-124410D01*
X158010Y-124728D01*
X158571Y-124839D01*
X159695D01*
Y-141209D01*
X159695Y-141209D01*
X159810Y-141788D01*
X160139Y-142279D01*
X161930Y-144070D01*
X161930Y-144070D01*
X162421Y-144398D01*
X163000Y-144513D01*
X163000Y-144513D01*
X163898D01*
X164011Y-144787D01*
X164579Y-145527D01*
X165319Y-146095D01*
X165641Y-146228D01*
Y-154500D01*
X165441Y-154540D01*
X164741Y-155008D01*
X164273Y-155708D01*
X164215Y-156002D01*
X163705D01*
X163660Y-155778D01*
X163233Y-155138D01*
X162593Y-154710D01*
X161838Y-154560D01*
X161493D01*
Y-157567D01*
Y-160573D01*
X161838D01*
X162593Y-160423D01*
X163233Y-159995D01*
X163660Y-159355D01*
X163705Y-159131D01*
X164215D01*
X164273Y-159426D01*
X164741Y-160126D01*
X165441Y-160593D01*
X166267Y-160758D01*
X168137D01*
X168963Y-160593D01*
X169662Y-160126D01*
X170130Y-159426D01*
X170294Y-158600D01*
Y-156533D01*
X170130Y-155708D01*
X169662Y-155008D01*
X168963Y-154540D01*
X168667Y-154481D01*
Y-146189D01*
X168893Y-146095D01*
X169633Y-145527D01*
X170201Y-144787D01*
X170558Y-143925D01*
X170680Y-143000D01*
X170558Y-142075D01*
X170201Y-141213D01*
X169633Y-140473D01*
X168893Y-139905D01*
X168031Y-139548D01*
X167106Y-139426D01*
X166181Y-139548D01*
X165319Y-139905D01*
X164579Y-140473D01*
X164011Y-141213D01*
X163436Y-141296D01*
X162722Y-140582D01*
Y-124839D01*
X163847D01*
X163969Y-124815D01*
X164394Y-125240D01*
X164369Y-125362D01*
Y-130638D01*
X164481Y-131199D01*
X164799Y-131674D01*
X165274Y-131991D01*
X165835Y-132103D01*
X167370D01*
X167931Y-131991D01*
X168177Y-131827D01*
X168424Y-131991D01*
X168984Y-132103D01*
X170520D01*
X171080Y-131991D01*
X171327Y-131827D01*
X171573Y-131991D01*
X172134Y-132103D01*
X173669D01*
X174230Y-131991D01*
X174476Y-131827D01*
X174723Y-131991D01*
X175284Y-132103D01*
X176819D01*
X177380Y-131991D01*
X177626Y-131827D01*
X177872Y-131991D01*
X178433Y-132103D01*
X179969D01*
X180529Y-131991D01*
X180776Y-131827D01*
X181022Y-131991D01*
X181583Y-132103D01*
X183118D01*
X183487Y-132030D01*
X183917Y-132298D01*
X183987Y-132387D01*
Y-145124D01*
X183987Y-145124D01*
X184102Y-145704D01*
X184430Y-146195D01*
X194769Y-156534D01*
Y-163945D01*
X194455Y-164051D01*
X194269Y-164077D01*
X193396Y-163407D01*
X192367Y-162981D01*
X191262Y-162836D01*
X190157Y-162981D01*
X189128Y-163407D01*
X188243Y-164086D01*
X187565Y-164970D01*
X187138Y-165999D01*
X186993Y-167104D01*
X187138Y-168209D01*
X187565Y-169239D01*
X188243Y-170123D01*
X189128Y-170801D01*
X190157Y-171228D01*
X191262Y-171373D01*
X192367Y-171228D01*
X193396Y-170801D01*
X194269Y-170132D01*
X194455Y-170157D01*
X194769Y-170264D01*
Y-172125D01*
X194769Y-172125D01*
X194884Y-172704D01*
X195212Y-173195D01*
X197396Y-175378D01*
X197139Y-175999D01*
X196993Y-177104D01*
X197139Y-178209D01*
X197565Y-179239D01*
X198243Y-180123D01*
X199127Y-180801D01*
X200157Y-181228D01*
X201262Y-181373D01*
X202367Y-181228D01*
X203396Y-180801D01*
X204280Y-180123D01*
X204959Y-179239D01*
X205385Y-178209D01*
X205531Y-177104D01*
X205385Y-175999D01*
X204959Y-174970D01*
X204280Y-174086D01*
X203396Y-173407D01*
X202367Y-172981D01*
X201262Y-172836D01*
X200157Y-172981D01*
X199536Y-173238D01*
X197796Y-171498D01*
Y-170275D01*
X197824Y-170265D01*
X198296Y-170163D01*
X199127Y-170801D01*
X200157Y-171228D01*
X201262Y-171373D01*
X202367Y-171228D01*
X202988Y-170970D01*
X205015Y-172997D01*
X205015Y-172997D01*
X205506Y-173326D01*
X206085Y-173441D01*
X206085Y-173441D01*
X208306D01*
X208467Y-173914D01*
X208243Y-174086D01*
X207565Y-174970D01*
X207138Y-175999D01*
X206993Y-177104D01*
X207138Y-178209D01*
X207565Y-179239D01*
X208243Y-180123D01*
X209127Y-180801D01*
X210157Y-181228D01*
X211262Y-181373D01*
X212367Y-181228D01*
X213396Y-180801D01*
X214280Y-180123D01*
X214959Y-179239D01*
X215012Y-179111D01*
X220499D01*
X221268Y-178959D01*
X221919Y-178524D01*
X234741Y-165701D01*
X235176Y-165050D01*
X235329Y-164282D01*
Y-155035D01*
X236514Y-153851D01*
X241510D01*
X241598Y-154521D01*
X241891Y-155227D01*
X242356Y-155834D01*
X242963Y-156299D01*
X243669Y-156592D01*
X244427Y-156691D01*
X248266D01*
X249024Y-156592D01*
X249730Y-156299D01*
X250337Y-155834D01*
X250802Y-155227D01*
X251095Y-154521D01*
X251183Y-153851D01*
X252881D01*
X253649Y-153698D01*
X254300Y-153263D01*
X266919Y-140644D01*
X267354Y-139992D01*
X267507Y-139224D01*
Y-77953D01*
X267457Y-77700D01*
Y-50464D01*
X267304Y-49696D01*
X266869Y-49044D01*
X254988Y-37163D01*
X254337Y-36728D01*
X253569Y-36576D01*
X232662D01*
X214691Y-18605D01*
Y-17415D01*
X214527Y-16590D01*
X214059Y-15890D01*
X213507Y-15521D01*
Y-8658D01*
X213354Y-7889D01*
X212919Y-7238D01*
X211766Y-6085D01*
X211115Y-5650D01*
X210347Y-5497D01*
X194405D01*
X193637Y-5650D01*
X192986Y-6085D01*
X191833Y-7238D01*
X191398Y-7890D01*
X191245Y-8658D01*
Y-10777D01*
X190791Y-11080D01*
X190422Y-11632D01*
X174831D01*
X174063Y-11785D01*
X173412Y-12220D01*
X168251Y-17381D01*
X155750Y-4880D01*
X155099Y-4445D01*
X154331Y-4292D01*
D02*
G37*
G36*
X97639Y-60649D02*
X95321D01*
Y-67495D01*
X99647D01*
Y-62657D01*
X99494Y-61889D01*
X99059Y-61237D01*
X98407Y-60802D01*
X97639Y-60649D01*
D02*
G37*
G36*
X94140D02*
X91822D01*
X91053Y-60802D01*
X90402Y-61237D01*
X89966Y-61889D01*
X89814Y-62657D01*
Y-67495D01*
X94140D01*
Y-60649D01*
D02*
G37*
G36*
X74322Y-65187D02*
X71502D01*
Y-67495D01*
X75818D01*
Y-66683D01*
X75704Y-66110D01*
X75380Y-65625D01*
X74894Y-65301D01*
X74322Y-65187D01*
D02*
G37*
G36*
X70321D02*
X67501D01*
X66928Y-65301D01*
X66443Y-65625D01*
X66118Y-66110D01*
X66005Y-66683D01*
Y-67495D01*
X70321D01*
Y-65187D01*
D02*
G37*
G36*
X64375Y-65988D02*
X61959D01*
Y-68305D01*
X62402D01*
X63157Y-68155D01*
X63797Y-67727D01*
X64225Y-67087D01*
X64375Y-66332D01*
Y-65988D01*
D02*
G37*
G36*
X60778D02*
X58362D01*
Y-66332D01*
X58512Y-67087D01*
X58940Y-67727D01*
X59580Y-68155D01*
X60335Y-68305D01*
X60778D01*
Y-65988D01*
D02*
G37*
G36*
X56875D02*
X54459D01*
Y-68305D01*
X54902D01*
X55657Y-68155D01*
X56297Y-67727D01*
X56725Y-67087D01*
X56875Y-66332D01*
Y-65988D01*
D02*
G37*
G36*
X53278D02*
X50862D01*
Y-66332D01*
X51012Y-67087D01*
X51440Y-67727D01*
X52080Y-68155D01*
X52835Y-68305D01*
X53278D01*
Y-65988D01*
D02*
G37*
G36*
X75818Y-68676D02*
X71502D01*
Y-70984D01*
X74322D01*
X74894Y-70870D01*
X75380Y-70546D01*
X75704Y-70061D01*
X75818Y-69488D01*
Y-68676D01*
D02*
G37*
G36*
X70321D02*
X66005D01*
Y-69488D01*
X66118Y-70061D01*
X66443Y-70546D01*
X66928Y-70870D01*
X67501Y-70984D01*
X70321D01*
Y-68676D01*
D02*
G37*
G36*
X62630Y-69592D02*
X62187D01*
Y-71910D01*
X64603D01*
Y-71565D01*
X64453Y-70810D01*
X64025Y-70170D01*
X63385Y-69743D01*
X62630Y-69592D01*
D02*
G37*
G36*
X61006D02*
X60563D01*
X59808Y-69743D01*
X59168Y-70170D01*
X58741Y-70810D01*
X58590Y-71565D01*
Y-71910D01*
X61006D01*
Y-69592D01*
D02*
G37*
G36*
X54630D02*
X54187D01*
Y-71910D01*
X56603D01*
Y-71565D01*
X56453Y-70810D01*
X56025Y-70170D01*
X55385Y-69743D01*
X54630Y-69592D01*
D02*
G37*
G36*
X53006D02*
X52563D01*
X51808Y-69743D01*
X51168Y-70170D01*
X50741Y-70810D01*
X50590Y-71565D01*
Y-71910D01*
X53006D01*
Y-69592D01*
D02*
G37*
G36*
X37303Y-69591D02*
X33091D01*
Y-73803D01*
X33763Y-73714D01*
X34940Y-73226D01*
X35951Y-72451D01*
X36726Y-71440D01*
X37214Y-70263D01*
X37303Y-69591D01*
D02*
G37*
G36*
X31909D02*
X27697D01*
X27786Y-70263D01*
X28273Y-71440D01*
X29049Y-72451D01*
X30060Y-73226D01*
X31237Y-73714D01*
X31909Y-73803D01*
Y-69591D01*
D02*
G37*
G36*
X99647Y-68676D02*
X95321D01*
Y-75522D01*
X97639D01*
X98407Y-75369D01*
X99059Y-74933D01*
X99494Y-74282D01*
X99647Y-73514D01*
Y-68676D01*
D02*
G37*
G36*
X94140D02*
X89814D01*
Y-73514D01*
X89966Y-74282D01*
X90402Y-74933D01*
X91053Y-75369D01*
X91822Y-75522D01*
X94140D01*
Y-68676D01*
D02*
G37*
G36*
X57637Y-107085D02*
X55688D01*
Y-111468D01*
X59519D01*
Y-108968D01*
X59376Y-108247D01*
X58968Y-107637D01*
X58357Y-107229D01*
X57637Y-107085D01*
D02*
G37*
G36*
X54507D02*
X52558D01*
X51838Y-107229D01*
X51227Y-107637D01*
X50819Y-108247D01*
X50675Y-108968D01*
Y-111468D01*
X54507D01*
Y-107085D01*
D02*
G37*
G36*
X59519Y-112649D02*
X55688D01*
Y-117032D01*
X57637D01*
X58357Y-116888D01*
X58968Y-116480D01*
X59376Y-115869D01*
X59519Y-115149D01*
Y-112649D01*
D02*
G37*
G36*
X54507D02*
X50675D01*
Y-115149D01*
X50819Y-115869D01*
X51227Y-116480D01*
X51838Y-116888D01*
X52558Y-117032D01*
X54507D01*
Y-112649D01*
D02*
G37*
G36*
X107578Y-116143D02*
X107234D01*
Y-118559D01*
X109551D01*
Y-118116D01*
X109401Y-117361D01*
X108973Y-116721D01*
X108333Y-116293D01*
X107578Y-116143D01*
D02*
G37*
G36*
X109551Y-119740D02*
X107234D01*
Y-122156D01*
X107578D01*
X108333Y-122006D01*
X108973Y-121578D01*
X109401Y-120938D01*
X109551Y-120183D01*
Y-119740D01*
D02*
G37*
G36*
X119301Y-120732D02*
X118531Y-120834D01*
X117812Y-121131D01*
X117196Y-121605D01*
X116722Y-122222D01*
X116425Y-122940D01*
X116323Y-123711D01*
X116342Y-123854D01*
X116012Y-124230D01*
X114727D01*
X114297Y-123942D01*
X113698Y-123823D01*
X108796D01*
X108197Y-123942D01*
X107689Y-124282D01*
X107350Y-124790D01*
X107231Y-125389D01*
Y-126098D01*
X107350Y-126697D01*
X107568Y-127023D01*
X107350Y-127349D01*
X107231Y-127948D01*
Y-128656D01*
X107350Y-129256D01*
X107568Y-129582D01*
X107350Y-129908D01*
X107231Y-130507D01*
Y-131216D01*
X107350Y-131815D01*
X107568Y-132141D01*
X107350Y-132467D01*
X107231Y-133066D01*
Y-133775D01*
X107350Y-134374D01*
X107689Y-134882D01*
X108197Y-135221D01*
X108796Y-135340D01*
X113698D01*
X114297Y-135221D01*
X114727Y-134934D01*
X116012D01*
X116342Y-135310D01*
X116323Y-135453D01*
X116425Y-136224D01*
X116722Y-136942D01*
X117196Y-137559D01*
X117812Y-138032D01*
X118531Y-138330D01*
X119301Y-138431D01*
X120072Y-138330D01*
X120791Y-138032D01*
X121407Y-137559D01*
X121881Y-136942D01*
X122178Y-136224D01*
X122280Y-135453D01*
X122178Y-134682D01*
X121881Y-133964D01*
X121407Y-133347D01*
X120791Y-132874D01*
X120706Y-132839D01*
Y-132298D01*
X120994Y-132178D01*
X121611Y-131705D01*
X122084Y-131088D01*
X122382Y-130370D01*
X122483Y-129599D01*
X122382Y-128828D01*
X122084Y-128110D01*
X121611Y-127493D01*
X120994Y-127020D01*
X120665Y-126883D01*
Y-126342D01*
X120791Y-126290D01*
X121407Y-125817D01*
X121881Y-125200D01*
X122178Y-124481D01*
X122280Y-123711D01*
X122178Y-122940D01*
X121881Y-122222D01*
X121407Y-121605D01*
X120791Y-121131D01*
X120072Y-120834D01*
X119301Y-120732D01*
D02*
G37*
G36*
X57637Y-141957D02*
X55688D01*
Y-146340D01*
X59519D01*
Y-143840D01*
X59376Y-143119D01*
X58968Y-142508D01*
X58357Y-142100D01*
X57637Y-141957D01*
D02*
G37*
G36*
X54507D02*
X52558D01*
X51838Y-142100D01*
X51227Y-142508D01*
X50819Y-143119D01*
X50675Y-143840D01*
Y-146340D01*
X54507D01*
Y-141957D01*
D02*
G37*
G36*
X35919Y-142999D02*
X34591D01*
Y-147273D01*
X38864D01*
Y-145944D01*
X38763Y-145182D01*
X38469Y-144472D01*
X38001Y-143862D01*
X37391Y-143394D01*
X36681Y-143100D01*
X35919Y-142999D01*
D02*
G37*
G36*
X33409D02*
X32081D01*
X31319Y-143100D01*
X30608Y-143394D01*
X29999Y-143862D01*
X29531Y-144472D01*
X29237Y-145182D01*
X29136Y-145944D01*
Y-147273D01*
X33409D01*
Y-142999D01*
D02*
G37*
G36*
X81759Y-146724D02*
X79343D01*
Y-149042D01*
X79786D01*
X80541Y-148892D01*
X81182Y-148464D01*
X81609Y-147824D01*
X81759Y-147069D01*
Y-146724D01*
D02*
G37*
G36*
X78162D02*
X75747D01*
Y-147069D01*
X75897Y-147824D01*
X76324Y-148464D01*
X76964Y-148892D01*
X77719Y-149042D01*
X78162D01*
Y-146724D01*
D02*
G37*
G36*
X59519Y-147521D02*
X55688D01*
Y-151903D01*
X57637D01*
X58357Y-151760D01*
X58968Y-151352D01*
X59376Y-150741D01*
X59519Y-150021D01*
Y-147521D01*
D02*
G37*
G36*
X54507D02*
X50675D01*
Y-150021D01*
X50819Y-150741D01*
X51227Y-151352D01*
X51838Y-151760D01*
X52558Y-151903D01*
X54507D01*
Y-147521D01*
D02*
G37*
G36*
X154734Y-154560D02*
X154390D01*
Y-156976D01*
X156707D01*
Y-156533D01*
X156557Y-155778D01*
X156129Y-155138D01*
X155489Y-154710D01*
X154734Y-154560D01*
D02*
G37*
G36*
X160312D02*
X159968D01*
X159213Y-154710D01*
X158572Y-155138D01*
X158145Y-155778D01*
X157995Y-156533D01*
Y-156976D01*
X160312D01*
Y-154560D01*
D02*
G37*
G36*
X93298Y-157089D02*
X92954D01*
X92199Y-157239D01*
X91558Y-157667D01*
X91131Y-158307D01*
X90981Y-159062D01*
Y-159505D01*
X93298D01*
Y-157089D01*
D02*
G37*
G36*
X160312Y-158157D02*
X157995D01*
Y-158600D01*
X158145Y-159355D01*
X158572Y-159995D01*
X159213Y-160423D01*
X159968Y-160573D01*
X160312D01*
Y-158157D01*
D02*
G37*
G36*
X156707D02*
X154390D01*
Y-160573D01*
X154734D01*
X155489Y-160423D01*
X156129Y-159995D01*
X156557Y-159355D01*
X156707Y-158600D01*
Y-158157D01*
D02*
G37*
G36*
X38864Y-148454D02*
X34000D01*
X29136D01*
Y-149783D01*
X29237Y-150545D01*
X29531Y-151255D01*
X29999Y-151865D01*
X30608Y-152332D01*
X31319Y-152627D01*
X32081Y-152727D01*
X32491D01*
X32590Y-153227D01*
X31568Y-153650D01*
X30560Y-154423D01*
X29787Y-155431D01*
X29301Y-156604D01*
X29136Y-157863D01*
X29301Y-159122D01*
X29787Y-160295D01*
X30560Y-161303D01*
X31568Y-162076D01*
X32741Y-162562D01*
X34000Y-162728D01*
X35259Y-162562D01*
X36432Y-162076D01*
X37440Y-161303D01*
X38213Y-160295D01*
X38699Y-159122D01*
X38864Y-157863D01*
X38699Y-156604D01*
X38213Y-155431D01*
X37440Y-154423D01*
X36432Y-153650D01*
X35410Y-153227D01*
X35509Y-152727D01*
X35919D01*
X36681Y-152627D01*
X37391Y-152332D01*
X38001Y-151865D01*
X38469Y-151255D01*
X38763Y-150545D01*
X38864Y-149783D01*
Y-148454D01*
D02*
G37*
G36*
X93298Y-160686D02*
X90981D01*
Y-161129D01*
X91131Y-161884D01*
X91558Y-162524D01*
X92199Y-162951D01*
X92954Y-163102D01*
X93298D01*
Y-160686D01*
D02*
G37*
G36*
X191852Y-172897D02*
Y-176514D01*
X195469D01*
X195401Y-175995D01*
X194973Y-174962D01*
X194292Y-174075D01*
X193404Y-173394D01*
X192371Y-172966D01*
X191852Y-172897D01*
D02*
G37*
G36*
X190671D02*
X190153Y-172966D01*
X189120Y-173394D01*
X188232Y-174075D01*
X187551Y-174962D01*
X187123Y-175995D01*
X187055Y-176514D01*
X190671D01*
Y-172897D01*
D02*
G37*
G36*
X195469Y-177695D02*
X191852D01*
Y-181311D01*
X192371Y-181243D01*
X193404Y-180815D01*
X194292Y-180134D01*
X194973Y-179247D01*
X195401Y-178213D01*
X195469Y-177695D01*
D02*
G37*
G36*
X190671D02*
X187055D01*
X187123Y-178213D01*
X187551Y-179247D01*
X188232Y-180134D01*
X189120Y-180815D01*
X190153Y-181243D01*
X190671Y-181311D01*
Y-177695D01*
D02*
G37*
G36*
X19685Y-163343D02*
X17523Y-163513D01*
X15414Y-164020D01*
X13410Y-164850D01*
X11561Y-165983D01*
X9911Y-167392D01*
X8503Y-169041D01*
X7369Y-170890D01*
X6539Y-172894D01*
X6033Y-175003D01*
X5863Y-177165D01*
X6033Y-179328D01*
X6539Y-181437D01*
X7369Y-183440D01*
X8503Y-185290D01*
X9911Y-186939D01*
X11561Y-188348D01*
X13410Y-189481D01*
X15414Y-190311D01*
X17523Y-190817D01*
X19685Y-190988D01*
X21847Y-190817D01*
X23956Y-190311D01*
X25960Y-189481D01*
X27810Y-188348D01*
X29459Y-186939D01*
X30867Y-185290D01*
X32001Y-183440D01*
X32831Y-181437D01*
X33337Y-179328D01*
X33507Y-177165D01*
X33337Y-175003D01*
X32831Y-172894D01*
X32001Y-170890D01*
X30867Y-169041D01*
X29459Y-167392D01*
X27810Y-165983D01*
X25960Y-164850D01*
X23956Y-164020D01*
X21847Y-163513D01*
X19685Y-163343D01*
D02*
G37*
G36*
X244000Y-165178D02*
X241838Y-165348D01*
X239729Y-165854D01*
X237725Y-166684D01*
X235876Y-167818D01*
X234226Y-169226D01*
X232818Y-170876D01*
X231684Y-172725D01*
X230854Y-174729D01*
X230348Y-176838D01*
X230178Y-179000D01*
X230348Y-181162D01*
X230854Y-183271D01*
X231684Y-185275D01*
X232818Y-187124D01*
X234226Y-188774D01*
X235876Y-190182D01*
X237725Y-191316D01*
X239729Y-192146D01*
X241838Y-192652D01*
X244000Y-192822D01*
X246162Y-192652D01*
X248271Y-192146D01*
X250275Y-191316D01*
X252124Y-190182D01*
X253774Y-188774D01*
X255182Y-187124D01*
X256316Y-185275D01*
X257146Y-183271D01*
X257652Y-181162D01*
X257822Y-179000D01*
X257652Y-176838D01*
X257146Y-174729D01*
X256316Y-172725D01*
X255182Y-170876D01*
X253774Y-169226D01*
X252124Y-167818D01*
X250275Y-166684D01*
X248271Y-165854D01*
X246162Y-165348D01*
X244000Y-165178D01*
D02*
G37*
%LPD*%
G36*
X77165Y-52756D02*
X77165Y-61430D01*
X75613Y-62983D01*
X66730D01*
X65776Y-62205D01*
X63535D01*
X63383Y-61705D01*
X63797Y-61428D01*
X64225Y-60788D01*
X64375Y-60033D01*
Y-59688D01*
X61369D01*
X58362D01*
Y-60033D01*
X58512Y-60788D01*
X58940Y-61428D01*
X59354Y-61705D01*
X59202Y-62205D01*
X56035Y-62205D01*
X55883Y-61705D01*
X56297Y-61428D01*
X56725Y-60788D01*
X56875Y-60033D01*
Y-59688D01*
X53869D01*
X50862D01*
Y-60033D01*
X51012Y-60788D01*
X51440Y-61428D01*
X51854Y-61705D01*
X51702Y-62205D01*
X42520Y-62205D01*
X40132Y-64592D01*
X34462Y-64592D01*
X33910Y-64364D01*
X34009Y-63864D01*
X34419D01*
X35181Y-63763D01*
X35892Y-63469D01*
X36501Y-63001D01*
X36969Y-62392D01*
X37263Y-61681D01*
X37364Y-60919D01*
Y-59591D01*
X32500D01*
X27636D01*
Y-60919D01*
X27737Y-61681D01*
X28031Y-62392D01*
X28499Y-63001D01*
X29109Y-63469D01*
X29819Y-63763D01*
X30581Y-63864D01*
X30991D01*
X31090Y-64364D01*
X30538Y-64593D01*
X29159D01*
X26772Y-62205D01*
Y-54331D01*
X30709Y-50394D01*
X74803D01*
X77165Y-52756D01*
D02*
G37*
%LPC*%
G36*
X34419Y-54136D02*
X33091D01*
Y-58410D01*
X37364D01*
Y-57081D01*
X37263Y-56319D01*
X36969Y-55608D01*
X36501Y-54999D01*
X35892Y-54531D01*
X35181Y-54237D01*
X34419Y-54136D01*
D02*
G37*
G36*
X31909D02*
X30581D01*
X29819Y-54237D01*
X29109Y-54531D01*
X28499Y-54999D01*
X28031Y-55608D01*
X27737Y-56319D01*
X27636Y-57081D01*
Y-58410D01*
X31909D01*
Y-54136D01*
D02*
G37*
G36*
X74322Y-56132D02*
X71502D01*
Y-58440D01*
X75818D01*
Y-57628D01*
X75704Y-57055D01*
X75380Y-56570D01*
X74894Y-56245D01*
X74322Y-56132D01*
D02*
G37*
G36*
X70321D02*
X67501D01*
X66928Y-56245D01*
X66443Y-56570D01*
X66118Y-57055D01*
X66005Y-57628D01*
Y-58440D01*
X70321D01*
Y-56132D01*
D02*
G37*
G36*
X62402Y-56190D02*
X61959D01*
Y-58507D01*
X64375D01*
Y-58163D01*
X64225Y-57408D01*
X63797Y-56768D01*
X63157Y-56340D01*
X62402Y-56190D01*
D02*
G37*
G36*
X54902D02*
X54459D01*
Y-58507D01*
X56875D01*
Y-58163D01*
X56725Y-57408D01*
X56297Y-56768D01*
X55657Y-56340D01*
X54902Y-56190D01*
D02*
G37*
G36*
X60778D02*
X60335D01*
X59580Y-56340D01*
X58940Y-56768D01*
X58512Y-57408D01*
X58362Y-58163D01*
Y-58507D01*
X60778D01*
Y-56190D01*
D02*
G37*
G36*
X53278D02*
X52835D01*
X52080Y-56340D01*
X51440Y-56768D01*
X51012Y-57408D01*
X50862Y-58163D01*
Y-58507D01*
X53278D01*
Y-56190D01*
D02*
G37*
G36*
X75818Y-59621D02*
X71502D01*
Y-61929D01*
X74322D01*
X74894Y-61815D01*
X75380Y-61491D01*
X75704Y-61006D01*
X75818Y-60433D01*
Y-59621D01*
D02*
G37*
G36*
X70321D02*
X66005D01*
Y-60433D01*
X66118Y-61006D01*
X66443Y-61491D01*
X66928Y-61815D01*
X67501Y-61929D01*
X70321D01*
Y-59621D01*
D02*
G37*
%LPD*%
G36*
X209493Y-15521D02*
X208941Y-15890D01*
X208473Y-16590D01*
X208309Y-17415D01*
Y-19285D01*
X208347Y-19477D01*
X207936Y-19972D01*
X203956D01*
X203956Y-19972D01*
X203376Y-20087D01*
X202886Y-20415D01*
X202826Y-20475D01*
X202326Y-20268D01*
Y-19645D01*
X202235Y-19187D01*
X201976Y-18800D01*
X201588Y-18541D01*
X201131Y-18450D01*
X200909D01*
Y-20161D01*
X200319D01*
Y-20752D01*
X198326D01*
X198403Y-21136D01*
X198498Y-21278D01*
X198232Y-21676D01*
X198127Y-22204D01*
Y-23237D01*
X198232Y-23765D01*
X198389Y-24000D01*
X198232Y-24235D01*
X198127Y-24763D01*
Y-25796D01*
X198232Y-26324D01*
X198389Y-26559D01*
X198232Y-26794D01*
X198127Y-27322D01*
Y-28355D01*
X198232Y-28883D01*
X198531Y-29331D01*
X198806Y-29514D01*
Y-36575D01*
X198670Y-36631D01*
X198054Y-37105D01*
X197580Y-37721D01*
X197495Y-37928D01*
X195387D01*
X195197Y-37428D01*
X195578Y-36857D01*
X195742Y-36031D01*
Y-33964D01*
X195578Y-33138D01*
X195110Y-32438D01*
X194410Y-31971D01*
X194179Y-31925D01*
Y-29525D01*
X194469Y-29331D01*
X194768Y-28883D01*
X194873Y-28355D01*
Y-27322D01*
X194768Y-26794D01*
X194611Y-26559D01*
X194768Y-26324D01*
X194873Y-25796D01*
Y-24763D01*
X194768Y-24235D01*
X194502Y-23837D01*
X194597Y-23695D01*
X194674Y-23311D01*
X190595D01*
X190244Y-23640D01*
X189925Y-23703D01*
X189372Y-24073D01*
X188719Y-24726D01*
X188338Y-24689D01*
X187638Y-24221D01*
X187343Y-24163D01*
Y-23653D01*
X187567Y-23608D01*
X188207Y-23180D01*
X188635Y-22540D01*
X188785Y-21785D01*
Y-21441D01*
X185778D01*
X182772D01*
Y-21785D01*
X182922Y-22540D01*
X183350Y-23180D01*
X183990Y-23608D01*
X184214Y-23653D01*
Y-24163D01*
X183919Y-24221D01*
X183219Y-24689D01*
X182916Y-25142D01*
X176013D01*
X171089Y-20219D01*
X175663Y-15646D01*
X190422D01*
X190791Y-16198D01*
X190979Y-16323D01*
X190827Y-16551D01*
X190674Y-17319D01*
Y-18997D01*
X190594Y-19117D01*
X190489Y-19645D01*
Y-20678D01*
X190594Y-21206D01*
X190860Y-21604D01*
X190765Y-21746D01*
X190689Y-22130D01*
X194674D01*
X194597Y-21746D01*
X194502Y-21604D01*
X194768Y-21206D01*
X194873Y-20678D01*
Y-19645D01*
X194768Y-19117D01*
X194688Y-18997D01*
Y-18142D01*
X195106Y-17516D01*
X195259Y-16748D01*
Y-16501D01*
X195713Y-16198D01*
X196180Y-15498D01*
X196239Y-15203D01*
X196749D01*
X196793Y-15427D01*
X197221Y-16067D01*
X197861Y-16495D01*
X198616Y-16645D01*
X198961D01*
Y-13639D01*
Y-10632D01*
X198616D01*
X197861Y-10783D01*
X197221Y-11210D01*
X196793Y-11850D01*
X196749Y-12075D01*
X196239D01*
X196180Y-11780D01*
X195713Y-11080D01*
X195259Y-10777D01*
Y-9511D01*
X209493D01*
Y-15521D01*
D02*
G37*
G36*
X191768Y-58626D02*
X191768Y-58626D01*
X197925Y-64783D01*
Y-78675D01*
X191484Y-85116D01*
X191242Y-85095D01*
X191069Y-84701D01*
X191074Y-84556D01*
X195558Y-80072D01*
X195558Y-80072D01*
X195886Y-79581D01*
X196002Y-79001D01*
X196002Y-79001D01*
Y-65288D01*
X196002Y-65288D01*
X195886Y-64709D01*
X195558Y-64218D01*
X179592Y-48252D01*
X179101Y-47924D01*
X178522Y-47808D01*
X178522Y-47808D01*
X139876D01*
Y-27093D01*
X140795Y-26713D01*
X141803Y-25940D01*
X142576Y-24932D01*
X142999Y-23910D01*
X143499Y-24009D01*
Y-24419D01*
X143600Y-25181D01*
X143894Y-25892D01*
X144362Y-26501D01*
X144972Y-26969D01*
X145682Y-27263D01*
X146444Y-27364D01*
X147773D01*
Y-22500D01*
X148363D01*
Y-21910D01*
X153227D01*
Y-20792D01*
X153727Y-20585D01*
X191768Y-58626D01*
D02*
G37*
G36*
X230412Y-40002D02*
X231063Y-40437D01*
X231831Y-40590D01*
X252737D01*
X263442Y-51295D01*
Y-75845D01*
X254732D01*
Y-73620D01*
X246268D01*
Y-75845D01*
X243831D01*
X240569Y-72582D01*
X239918Y-72147D01*
X239150Y-71995D01*
X227862D01*
X227559Y-71541D01*
X226937Y-71125D01*
X226894Y-70852D01*
X226937Y-70579D01*
X227559Y-70163D01*
X228027Y-69463D01*
X228061Y-69291D01*
X246515D01*
X246803Y-69986D01*
X247481Y-70871D01*
X248366Y-71549D01*
X249395Y-71975D01*
X250500Y-72121D01*
X251605Y-71975D01*
X252634Y-71549D01*
X253519Y-70871D01*
X254197Y-69986D01*
X254623Y-68957D01*
X254769Y-67852D01*
X254623Y-66747D01*
X254197Y-65718D01*
X253519Y-64833D01*
X252634Y-64155D01*
X251605Y-63729D01*
X250500Y-63583D01*
X249395Y-63729D01*
X248366Y-64155D01*
X247481Y-64833D01*
X246803Y-65718D01*
X246577Y-66264D01*
X228091D01*
X228027Y-65942D01*
X227559Y-65242D01*
X226859Y-64774D01*
X226033Y-64610D01*
X223967D01*
X223141Y-64774D01*
X222441Y-65242D01*
X221973Y-65942D01*
X221924Y-66189D01*
X214975D01*
X214396Y-66304D01*
X213905Y-66632D01*
X213905Y-66632D01*
X207591Y-72946D01*
X207263Y-73437D01*
X207148Y-74016D01*
X207148Y-74016D01*
Y-94212D01*
X202314Y-99046D01*
X197911D01*
X197717Y-98755D01*
X197242Y-98438D01*
X196681Y-98326D01*
X191405D01*
X191283Y-98351D01*
X190858Y-97925D01*
X190883Y-97803D01*
Y-92528D01*
X190771Y-91967D01*
X190557Y-91647D01*
X190749Y-91164D01*
X190773Y-91138D01*
X191322Y-91066D01*
X192040Y-90768D01*
X192657Y-90295D01*
X193130Y-89678D01*
X193428Y-88960D01*
X193529Y-88189D01*
X193432Y-87448D01*
X200508Y-80372D01*
X200508Y-80372D01*
X200836Y-79881D01*
X200952Y-79302D01*
X200952Y-79302D01*
Y-64156D01*
X200952Y-64156D01*
X200836Y-63577D01*
X200508Y-63086D01*
X194978Y-57556D01*
X210273Y-42261D01*
X210273Y-42261D01*
X210601Y-41769D01*
X210717Y-41190D01*
Y-29342D01*
X210717Y-29342D01*
X210601Y-28762D01*
X210273Y-28271D01*
X210201Y-28199D01*
X210448Y-27738D01*
X210467Y-27742D01*
X212533D01*
X213359Y-27578D01*
X214059Y-27110D01*
X214527Y-26410D01*
X214691Y-25585D01*
Y-24935D01*
X215153Y-24743D01*
X230412Y-40002D01*
D02*
G37*
G36*
X166832Y-21639D02*
X166832Y-21639D01*
X173762Y-28569D01*
X174413Y-29004D01*
X175181Y-29157D01*
X182916D01*
X183219Y-29610D01*
X183919Y-30078D01*
X184745Y-30242D01*
X186812D01*
X187638Y-30078D01*
X188338Y-29610D01*
X188805Y-28910D01*
X188869Y-28591D01*
X188972D01*
X189625Y-28462D01*
X189989Y-28218D01*
X190257Y-28292D01*
X190475Y-28417D01*
X190509Y-28455D01*
X190594Y-28883D01*
X190893Y-29331D01*
X191152Y-29504D01*
Y-31918D01*
X190889Y-31971D01*
X190189Y-32438D01*
X189721Y-33138D01*
X189663Y-33433D01*
X189153D01*
X189108Y-33209D01*
X188681Y-32569D01*
X188040Y-32141D01*
X187285Y-31991D01*
X186941D01*
Y-34998D01*
X186350D01*
Y-35588D01*
X183442D01*
Y-36031D01*
X183593Y-36786D01*
X184020Y-37426D01*
X184022Y-37428D01*
X183871Y-37928D01*
X180225D01*
X153826Y-11528D01*
X153335Y-11200D01*
X152756Y-11085D01*
X152756Y-11085D01*
X140905D01*
X140490Y-10545D01*
X139874Y-10072D01*
X139155Y-9774D01*
X138385Y-9673D01*
X137614Y-9774D01*
X136896Y-10072D01*
X136279Y-10545D01*
X135805Y-11162D01*
X135508Y-11880D01*
X135406Y-12651D01*
X135508Y-13422D01*
X135805Y-14140D01*
X136279Y-14757D01*
X136342Y-14806D01*
X136173Y-15306D01*
X130681D01*
X130102Y-15421D01*
X129611Y-15749D01*
X129611Y-15749D01*
X127616Y-17744D01*
X126919Y-17652D01*
X123081D01*
X122323Y-17752D01*
X121616Y-18045D01*
X121010Y-18510D01*
X120545Y-19116D01*
X120252Y-19823D01*
X120152Y-20581D01*
Y-21029D01*
X119652Y-21128D01*
X119213Y-20068D01*
X118440Y-19060D01*
X117494Y-18335D01*
X117386Y-18084D01*
X117328Y-17794D01*
X126816Y-8306D01*
X153499D01*
X166832Y-21639D01*
D02*
G37*
G36*
X203187Y-27333D02*
X203804Y-27806D01*
X204522Y-28104D01*
X205293Y-28205D01*
X205853Y-28131D01*
X207690Y-29968D01*
Y-40563D01*
X192838Y-55415D01*
X178548Y-41126D01*
X178856Y-40730D01*
X179019Y-40839D01*
X179598Y-40954D01*
X179598Y-40954D01*
X197776D01*
X198054Y-41317D01*
X198670Y-41790D01*
X199389Y-42087D01*
X200159Y-42189D01*
X200930Y-42087D01*
X201649Y-41790D01*
X202265Y-41317D01*
X202739Y-40700D01*
X203036Y-39981D01*
X203138Y-39211D01*
X203036Y-38440D01*
X202739Y-37721D01*
X202265Y-37105D01*
X201832Y-36772D01*
Y-29514D01*
X202107Y-29331D01*
X202406Y-28883D01*
X202511Y-28355D01*
Y-27322D01*
X202505Y-27293D01*
X202534Y-27240D01*
X202965Y-27044D01*
X203187Y-27333D01*
D02*
G37*
G36*
X170304Y-51335D02*
X170301Y-51337D01*
X168145Y-53493D01*
X166857D01*
X166032Y-53657D01*
X165332Y-54125D01*
X165029Y-54579D01*
X163362D01*
X163059Y-54125D01*
X162359Y-53657D01*
X161533Y-53493D01*
X159467D01*
X158641Y-53657D01*
X157941Y-54125D01*
X157638Y-54579D01*
X153203D01*
X152435Y-54731D01*
X151784Y-55166D01*
X140819Y-66131D01*
X140696Y-66115D01*
X139925Y-66216D01*
X139206Y-66514D01*
X138590Y-66987D01*
X138116Y-67604D01*
X137819Y-68322D01*
X137717Y-69093D01*
X137819Y-69864D01*
X138116Y-70582D01*
X138339Y-70872D01*
X138287Y-71508D01*
X137872Y-72130D01*
X137598Y-72173D01*
X137325Y-72130D01*
X136909Y-71508D01*
X136209Y-71040D01*
X135384Y-70876D01*
X133514D01*
X132688Y-71040D01*
X131988Y-71508D01*
X131520Y-72208D01*
X131452Y-72554D01*
X129018D01*
X128681Y-72075D01*
X128680Y-72073D01*
X128861Y-71637D01*
X128963Y-70866D01*
X128865Y-70126D01*
X129898Y-69092D01*
X130226Y-68601D01*
X130341Y-68022D01*
Y-67181D01*
X130687Y-67113D01*
X131387Y-66645D01*
X131855Y-65945D01*
X131895Y-65741D01*
X135898D01*
X135898Y-65741D01*
X136477Y-65626D01*
X136968Y-65298D01*
X139433Y-62833D01*
X139433Y-62833D01*
X139761Y-62342D01*
X139876Y-61762D01*
X139876Y-61762D01*
Y-50835D01*
X170152D01*
X170304Y-51335D01*
D02*
G37*
G36*
X120152Y-23971D02*
Y-24419D01*
X120252Y-25177D01*
X120545Y-25884D01*
X121010Y-26490D01*
X121616Y-26956D01*
X122323Y-27248D01*
X123081Y-27348D01*
X123487D01*
Y-33334D01*
X122318Y-34502D01*
X121991Y-34993D01*
X121875Y-35572D01*
X121875Y-35572D01*
Y-62227D01*
X121540Y-62563D01*
X121046Y-62473D01*
X120999Y-62448D01*
X120544Y-61767D01*
X119921Y-61351D01*
X119878Y-61078D01*
X119921Y-60805D01*
X120544Y-60389D01*
X121011Y-59689D01*
X121176Y-58863D01*
Y-56993D01*
X121011Y-56168D01*
X120544Y-55468D01*
X120410Y-55379D01*
X120308Y-54709D01*
X120511Y-54443D01*
X120809Y-53725D01*
X120910Y-52954D01*
X120809Y-52184D01*
X120511Y-51465D01*
X120038Y-50848D01*
X119421Y-50375D01*
X118703Y-50078D01*
X117932Y-49976D01*
X117161Y-50078D01*
X116443Y-50375D01*
X115826Y-50848D01*
X115353Y-51465D01*
X115055Y-52184D01*
X114954Y-52954D01*
X115055Y-53725D01*
X115353Y-54443D01*
X115592Y-54755D01*
X115510Y-55411D01*
X115425Y-55468D01*
X115122Y-55921D01*
X112888D01*
Y-49005D01*
X116419Y-45474D01*
X116854Y-44823D01*
X117007Y-44055D01*
Y-26889D01*
X117432Y-26713D01*
X118440Y-25940D01*
X119213Y-24932D01*
X119652Y-23871D01*
X120152Y-23971D01*
D02*
G37*
G36*
X135255Y-18806D02*
X134924Y-19060D01*
X134151Y-20068D01*
X133665Y-21241D01*
X133499Y-22500D01*
X133665Y-23759D01*
X134151Y-24932D01*
X134924Y-25940D01*
X135931Y-26713D01*
X136850Y-27093D01*
Y-49322D01*
Y-61136D01*
X135271Y-62714D01*
X131913D01*
X131855Y-62423D01*
X131387Y-61724D01*
X130765Y-61308D01*
X130722Y-61035D01*
X130765Y-60761D01*
X131387Y-60346D01*
X131855Y-59646D01*
X132019Y-58820D01*
Y-56950D01*
X131855Y-56124D01*
X131387Y-55424D01*
X131254Y-55335D01*
X131151Y-54665D01*
X131355Y-54400D01*
X131652Y-53682D01*
X131754Y-52911D01*
X131652Y-52140D01*
X131355Y-51422D01*
X130881Y-50805D01*
X130265Y-50332D01*
X129546Y-50034D01*
X128776Y-49933D01*
X128005Y-50034D01*
X127286Y-50332D01*
X126670Y-50805D01*
X126196Y-51422D01*
X125899Y-52140D01*
X125797Y-52911D01*
X125899Y-53682D01*
X126196Y-54400D01*
X126435Y-54712D01*
X126354Y-55368D01*
X126269Y-55424D01*
X125801Y-56124D01*
X125637Y-56950D01*
Y-58820D01*
X125801Y-59646D01*
X126269Y-60346D01*
X126891Y-60761D01*
X126934Y-61035D01*
X126891Y-61308D01*
X126269Y-61724D01*
X125801Y-62423D01*
X125637Y-63249D01*
Y-65119D01*
X125801Y-65945D01*
X126269Y-66645D01*
X126922Y-67081D01*
X126981Y-67179D01*
X127068Y-67642D01*
X126725Y-67985D01*
X125984Y-67888D01*
X125213Y-67989D01*
X124495Y-68287D01*
X123878Y-68760D01*
X123405Y-69377D01*
X123338Y-69538D01*
X122797D01*
X122731Y-69377D01*
X122257Y-68760D01*
X121641Y-68287D01*
X120922Y-67989D01*
X120151Y-67888D01*
X120053Y-67901D01*
X119661Y-67513D01*
X119717Y-67181D01*
X119844Y-67156D01*
X120544Y-66688D01*
X121011Y-65988D01*
X121061Y-65741D01*
X122015D01*
X122015Y-65741D01*
X122594Y-65626D01*
X123085Y-65298D01*
X124459Y-63924D01*
X124459Y-63924D01*
X124787Y-63433D01*
X124902Y-62854D01*
Y-36199D01*
X126070Y-35031D01*
X126070Y-35031D01*
X126398Y-34540D01*
X126513Y-33961D01*
Y-27348D01*
X126919D01*
X127677Y-27248D01*
X128384Y-26956D01*
X128990Y-26490D01*
X129455Y-25884D01*
X129748Y-25177D01*
X129848Y-24419D01*
Y-20581D01*
X129756Y-19884D01*
X131308Y-18332D01*
X135094D01*
X135255Y-18806D01*
D02*
G37*
G36*
X77165Y-74803D02*
Y-81102D01*
X74803Y-83465D01*
X50394D01*
X47244Y-80315D01*
Y-76378D01*
X48031Y-75590D01*
X51652D01*
X51719Y-75785D01*
X51736Y-76091D01*
X51168Y-76469D01*
X50741Y-77110D01*
X50590Y-77865D01*
Y-78209D01*
X56603D01*
Y-77865D01*
X56453Y-77110D01*
X56025Y-76469D01*
X55458Y-76091D01*
X55474Y-75785D01*
X55541Y-75590D01*
X59652Y-75591D01*
X59720Y-75785D01*
X59736Y-76091D01*
X59168Y-76469D01*
X58741Y-77110D01*
X58590Y-77865D01*
Y-78209D01*
X64603D01*
Y-77865D01*
X64453Y-77110D01*
X64025Y-76469D01*
X63458Y-76091D01*
X63474Y-75785D01*
X63541Y-75591D01*
X64567D01*
X66929Y-73228D01*
X75590Y-73228D01*
X77165Y-74803D01*
D02*
G37*
G36*
X189331Y-66885D02*
Y-76578D01*
X187325Y-78584D01*
X185479D01*
X185110Y-78032D01*
X184410Y-77565D01*
X183585Y-77400D01*
X181715D01*
X180889Y-77565D01*
X180189Y-78032D01*
X179773Y-78655D01*
X179500Y-78698D01*
X179227Y-78655D01*
X178811Y-78032D01*
X178111Y-77565D01*
X177864Y-77516D01*
Y-76564D01*
X178111Y-76515D01*
X178811Y-76047D01*
X179279Y-75347D01*
X179337Y-75053D01*
X179847D01*
X179892Y-75277D01*
X180319Y-75917D01*
X180959Y-76344D01*
X181715Y-76495D01*
X182059D01*
Y-73488D01*
Y-70482D01*
X181715D01*
X180959Y-70632D01*
X180319Y-71060D01*
X179892Y-71700D01*
X179847Y-71924D01*
X179337D01*
X179279Y-71629D01*
X178811Y-70929D01*
X178111Y-70461D01*
X177864Y-70412D01*
Y-65304D01*
X179479D01*
X180228Y-65155D01*
X180863Y-64731D01*
X181287Y-64096D01*
X181436Y-63347D01*
Y-59642D01*
X181898Y-59451D01*
X189331Y-66885D01*
D02*
G37*
G36*
X157941Y-59046D02*
X158563Y-59462D01*
X158606Y-59735D01*
X158563Y-60008D01*
X157941Y-60424D01*
X157473Y-61124D01*
X157309Y-61950D01*
Y-63820D01*
X157473Y-64646D01*
X157941Y-65346D01*
X158641Y-65813D01*
X158987Y-65882D01*
Y-66991D01*
X158641Y-67060D01*
X157941Y-67528D01*
X157473Y-68227D01*
X157309Y-69053D01*
Y-70923D01*
X157473Y-71749D01*
X157941Y-72449D01*
X158563Y-72865D01*
X158606Y-73138D01*
X158563Y-73411D01*
X157941Y-73827D01*
X157473Y-74527D01*
X157309Y-75352D01*
Y-77223D01*
X157473Y-78048D01*
X157941Y-78748D01*
X158641Y-79216D01*
X158987Y-79285D01*
Y-81961D01*
X158987Y-81961D01*
X159102Y-82540D01*
X159430Y-83031D01*
X166961Y-90562D01*
X166754Y-91062D01*
X165835D01*
X165274Y-91174D01*
X164799Y-91492D01*
X164481Y-91967D01*
X164369Y-92528D01*
Y-97803D01*
X164394Y-97925D01*
X163969Y-98351D01*
X163847Y-98326D01*
X159026D01*
X141697Y-80997D01*
X141206Y-80669D01*
X140626Y-80554D01*
X140626Y-80554D01*
X130480D01*
Y-76260D01*
X129688D01*
X129439Y-75760D01*
X129574Y-75580D01*
X131452D01*
X131520Y-75926D01*
X131988Y-76626D01*
X132688Y-77094D01*
X133514Y-77258D01*
X135384D01*
X136209Y-77094D01*
X136909Y-76626D01*
X137325Y-76004D01*
X137598Y-75961D01*
X137872Y-76004D01*
X138287Y-76626D01*
X138987Y-77094D01*
X139813Y-77258D01*
X141683D01*
X142509Y-77094D01*
X143209Y-76626D01*
X143676Y-75926D01*
X143841Y-75100D01*
Y-73033D01*
X143676Y-72208D01*
X143209Y-71508D01*
X143199Y-71502D01*
X143088Y-70826D01*
X143275Y-70582D01*
X143572Y-69864D01*
X143674Y-69093D01*
X143657Y-68969D01*
X154034Y-58593D01*
X157638D01*
X157941Y-59046D01*
D02*
G37*
G36*
X108322Y-71770D02*
X108944Y-72186D01*
X108987Y-72459D01*
X108944Y-72732D01*
X108322Y-73148D01*
X107854Y-73848D01*
X107690Y-74674D01*
Y-76544D01*
X107854Y-77370D01*
X108322Y-78070D01*
X109022Y-78537D01*
X109848Y-78702D01*
X111915D01*
X112740Y-78537D01*
X113440Y-78070D01*
X113498Y-77983D01*
X113996Y-77934D01*
X115262Y-79200D01*
X115262Y-79200D01*
X115752Y-79528D01*
X116268Y-79631D01*
X116583Y-80000D01*
X116764Y-80425D01*
Y-82165D01*
X116583D01*
Y-82522D01*
X115282D01*
X114703Y-82637D01*
X114212Y-82965D01*
X114212Y-82965D01*
X114040Y-83138D01*
X113582Y-82948D01*
X112811Y-82846D01*
X112040Y-82948D01*
X111322Y-83245D01*
X110705Y-83719D01*
X110232Y-84336D01*
X109935Y-85054D01*
X109833Y-85825D01*
X109935Y-86595D01*
X110232Y-87314D01*
X110705Y-87931D01*
X111322Y-88404D01*
X111251Y-88916D01*
X111164Y-89033D01*
X108652D01*
X106731Y-87113D01*
Y-71491D01*
X106830Y-71416D01*
X106906Y-71317D01*
X108019D01*
X108322Y-71770D01*
D02*
G37*
G36*
X124122Y-86866D02*
X124909D01*
Y-84665D01*
X125716D01*
Y-85906D01*
X126091D01*
Y-86866D01*
X127189D01*
Y-85905D01*
X130159D01*
X132095Y-87841D01*
X132046Y-88338D01*
X131832Y-88481D01*
X131364Y-89181D01*
X131305Y-89476D01*
X130796D01*
X130751Y-89252D01*
X130323Y-88612D01*
X129683Y-88184D01*
X128928Y-88034D01*
X128584D01*
Y-91040D01*
X127993D01*
D01*
X128584D01*
Y-94047D01*
X128928D01*
X129683Y-93897D01*
X130323Y-93469D01*
X130751Y-92829D01*
X130796Y-92605D01*
X131305D01*
X131364Y-92900D01*
X131832Y-93599D01*
X132285Y-93903D01*
Y-96497D01*
X132438Y-97265D01*
X132873Y-97916D01*
X134604Y-99647D01*
Y-100460D01*
X119831D01*
X116503Y-97132D01*
Y-93871D01*
X116910Y-93599D01*
X117377Y-92900D01*
X117436Y-92605D01*
X117946D01*
X117990Y-92829D01*
X118418Y-93469D01*
X119058Y-93897D01*
X119813Y-94047D01*
X120158D01*
Y-91040D01*
X120748D01*
Y-90450D01*
X123656D01*
Y-90007D01*
X123506Y-89252D01*
X123078Y-88612D01*
X122438Y-88184D01*
X121802Y-88058D01*
X121646Y-87745D01*
X121619Y-87534D01*
X122106Y-87047D01*
X123433D01*
Y-86866D01*
X123433D01*
Y-84665D01*
X124122D01*
Y-86866D01*
D02*
G37*
G36*
X184172Y-99157D02*
X184732Y-99268D01*
X186268D01*
X186828Y-99157D01*
X187075Y-98992D01*
X187321Y-99157D01*
X187882Y-99268D01*
X189417D01*
X189539Y-99244D01*
X189965Y-99669D01*
X189940Y-99791D01*
Y-101327D01*
X190052Y-101888D01*
X190217Y-102134D01*
X190052Y-102380D01*
X189940Y-102941D01*
Y-104476D01*
X190052Y-105037D01*
X190217Y-105283D01*
X190052Y-105530D01*
X189940Y-106091D01*
Y-107626D01*
X190052Y-108187D01*
X190325Y-108596D01*
X190223Y-108750D01*
X190125Y-109240D01*
Y-109417D01*
X194043D01*
Y-110598D01*
X190125D01*
Y-110776D01*
X190223Y-111266D01*
X190325Y-111420D01*
X190052Y-111829D01*
X189940Y-112390D01*
Y-113925D01*
X190052Y-114486D01*
X190217Y-114732D01*
X190052Y-114979D01*
X189940Y-115539D01*
Y-117075D01*
X190052Y-117636D01*
X190217Y-117882D01*
X190052Y-118128D01*
X189940Y-118689D01*
Y-120224D01*
X190052Y-120785D01*
X190217Y-121031D01*
X190052Y-121278D01*
X189940Y-121839D01*
Y-123374D01*
X189965Y-123496D01*
X189539Y-123921D01*
X189417Y-123897D01*
X187882D01*
X187321Y-124009D01*
X187075Y-124173D01*
X186828Y-124009D01*
X186268Y-123897D01*
X184732D01*
X184172Y-124009D01*
X183925Y-124173D01*
X183679Y-124009D01*
X183118Y-123897D01*
X181583D01*
X181022Y-124009D01*
X180776Y-124173D01*
X180529Y-124009D01*
X179969Y-123897D01*
X178433D01*
X177872Y-124009D01*
X177626Y-124173D01*
X177380Y-124009D01*
X176819Y-123897D01*
X175284D01*
X174723Y-124009D01*
X174476Y-124173D01*
X174230Y-124009D01*
X173669Y-123897D01*
X172134D01*
X171573Y-124009D01*
X171327Y-124173D01*
X171080Y-124009D01*
X170520Y-123897D01*
X168984D01*
X168424Y-124009D01*
X168177Y-124173D01*
X167931Y-124009D01*
X167370Y-123897D01*
X165835D01*
X165712Y-123921D01*
X165287Y-123496D01*
X165312Y-123374D01*
Y-121839D01*
X165200Y-121278D01*
X165035Y-121031D01*
X165200Y-120785D01*
X165312Y-120224D01*
Y-118689D01*
X165200Y-118128D01*
X165035Y-117882D01*
X165200Y-117636D01*
X165312Y-117075D01*
Y-115539D01*
X165200Y-114979D01*
X164927Y-114569D01*
X165030Y-114415D01*
X165127Y-113925D01*
Y-113748D01*
X157290D01*
Y-113925D01*
X156983Y-114300D01*
X156084D01*
X155316Y-114453D01*
X154665Y-114888D01*
X150337Y-119216D01*
X150059Y-119189D01*
X149359Y-118721D01*
X149064Y-118663D01*
Y-118153D01*
X149288Y-118108D01*
X149928Y-117681D01*
X150356Y-117041D01*
X150506Y-116285D01*
Y-115941D01*
X144494D01*
Y-116285D01*
X144644Y-117041D01*
X145071Y-117681D01*
X145712Y-118108D01*
X145936Y-118153D01*
Y-118663D01*
X145641Y-118721D01*
X144941Y-119189D01*
X144638Y-119642D01*
X143259D01*
X142956Y-119189D01*
X142256Y-118721D01*
X141961Y-118663D01*
Y-118153D01*
X142185Y-118108D01*
X142825Y-117681D01*
X143253Y-117041D01*
X143403Y-116285D01*
Y-115941D01*
X137390D01*
Y-116285D01*
X137540Y-117041D01*
X137968Y-117681D01*
X138608Y-118108D01*
X138832Y-118153D01*
Y-118663D01*
X138538Y-118721D01*
X137838Y-119189D01*
X137534Y-119642D01*
X133505D01*
X128262Y-114400D01*
Y-104474D01*
X135934D01*
X140960Y-109500D01*
X141107Y-109719D01*
X141758Y-110154D01*
X142526Y-110307D01*
X142790Y-110254D01*
X144638D01*
X144941Y-110708D01*
X145641Y-111176D01*
X146467Y-111340D01*
X148533D01*
X149359Y-111176D01*
X149893Y-110819D01*
X150501Y-111427D01*
X151152Y-111862D01*
X151920Y-112015D01*
X156983D01*
X157290Y-112390D01*
Y-112567D01*
X165127D01*
Y-112390D01*
X165030Y-111900D01*
X164927Y-111746D01*
X165200Y-111336D01*
X165312Y-110776D01*
Y-109240D01*
X165200Y-108679D01*
X164927Y-108270D01*
X165030Y-108116D01*
X165127Y-107626D01*
Y-107566D01*
X165627Y-107396D01*
X165951Y-107818D01*
X166568Y-108291D01*
X167286Y-108589D01*
X168057Y-108691D01*
X168827Y-108589D01*
X169546Y-108291D01*
X170163Y-107818D01*
X170481Y-107404D01*
X170639Y-107369D01*
X171037Y-107401D01*
X171072Y-107419D01*
X171450Y-107911D01*
X172066Y-108384D01*
X172785Y-108681D01*
X173556Y-108783D01*
X174326Y-108681D01*
X175045Y-108384D01*
X175662Y-107911D01*
X176135Y-107294D01*
X176432Y-106576D01*
X176534Y-105805D01*
X176531Y-105785D01*
X176998Y-105498D01*
X177544Y-105724D01*
X178315Y-105825D01*
X179086Y-105724D01*
X179804Y-105427D01*
X180421Y-104953D01*
X180894Y-104336D01*
X181192Y-103618D01*
X181293Y-102847D01*
X181192Y-102076D01*
X180894Y-101358D01*
X180421Y-100741D01*
X179804Y-100268D01*
X179086Y-99971D01*
X178315Y-99869D01*
X177544Y-99971D01*
X177007Y-100193D01*
X176614Y-99801D01*
X176565Y-99768D01*
X176717Y-99268D01*
X176819D01*
X177380Y-99157D01*
X177626Y-98992D01*
X177872Y-99157D01*
X178433Y-99268D01*
X179969D01*
X180529Y-99157D01*
X180776Y-98992D01*
X181022Y-99157D01*
X181583Y-99268D01*
X183118D01*
X183679Y-99157D01*
X183925Y-98992D01*
X184172Y-99157D01*
D02*
G37*
G36*
X138105Y-89981D02*
X138824Y-90278D01*
X139594Y-90380D01*
X140335Y-90282D01*
X148635Y-98582D01*
X148386Y-99040D01*
X148091D01*
Y-101948D01*
X147500D01*
Y-102538D01*
X144494D01*
Y-102883D01*
X144644Y-103638D01*
X145071Y-104278D01*
X145712Y-104706D01*
X145936Y-104750D01*
Y-105260D01*
X145641Y-105319D01*
X144941Y-105786D01*
X144638Y-106240D01*
X143377D01*
X138618Y-101481D01*
Y-98816D01*
X138466Y-98048D01*
X138031Y-97397D01*
X136300Y-95666D01*
Y-93903D01*
X136753Y-93599D01*
X137221Y-92900D01*
X137385Y-92074D01*
Y-90058D01*
X137511Y-89947D01*
X137851Y-89785D01*
X138105Y-89981D01*
D02*
G37*
G36*
X217162Y-108250D02*
Y-127673D01*
X216822Y-127816D01*
X216816Y-127817D01*
X216811Y-127821D01*
X216710Y-127864D01*
X216289Y-127639D01*
Y-121558D01*
Y-115893D01*
X216137Y-115125D01*
X215702Y-114474D01*
X214548Y-113321D01*
X213897Y-112886D01*
X213129Y-112733D01*
X212444D01*
X212211Y-112431D01*
X211595Y-111957D01*
X210876Y-111660D01*
X210105Y-111558D01*
X209335Y-111660D01*
X208616Y-111957D01*
X208000Y-112431D01*
X207924Y-112530D01*
X206787D01*
X206559Y-112189D01*
X205859Y-111721D01*
X205564Y-111663D01*
Y-111153D01*
X205788Y-111108D01*
X206429Y-110680D01*
X206856Y-110040D01*
X207006Y-109285D01*
Y-108941D01*
X204000D01*
Y-107760D01*
X207006D01*
Y-107415D01*
X206856Y-106660D01*
X206429Y-106020D01*
X205982Y-105722D01*
X206134Y-105222D01*
X214134D01*
X217162Y-108250D01*
D02*
G37*
G36*
X221973Y-69463D02*
X222441Y-70163D01*
X223063Y-70579D01*
X223106Y-70852D01*
X223063Y-71125D01*
X222441Y-71541D01*
X221973Y-72241D01*
X221809Y-73067D01*
Y-74937D01*
X221973Y-75762D01*
X222441Y-76462D01*
X223141Y-76930D01*
X223967Y-77094D01*
X226033D01*
X226859Y-76930D01*
X227559Y-76462D01*
X227862Y-76009D01*
X238318D01*
X241581Y-79271D01*
X242232Y-79706D01*
X243000Y-79859D01*
X246268D01*
Y-82084D01*
X248831D01*
Y-94947D01*
X248378Y-95251D01*
X247910Y-95951D01*
X247851Y-96245D01*
X247341D01*
X247297Y-96021D01*
X246869Y-95381D01*
X246229Y-94953D01*
X245474Y-94803D01*
X245130D01*
Y-97810D01*
Y-100816D01*
X245474D01*
X246229Y-100666D01*
X246869Y-100238D01*
X247297Y-99598D01*
X247341Y-99374D01*
X247851D01*
X247910Y-99669D01*
X248378Y-100369D01*
X249078Y-100837D01*
X249903Y-101001D01*
X251773D01*
X252599Y-100837D01*
X253299Y-100369D01*
X253767Y-99669D01*
X253931Y-98843D01*
Y-96776D01*
X253767Y-95951D01*
X253299Y-95251D01*
X252845Y-94947D01*
Y-82084D01*
X254732D01*
Y-79859D01*
X263493D01*
Y-138393D01*
X252049Y-149836D01*
X251183D01*
X251095Y-149166D01*
X250802Y-148460D01*
X250337Y-147853D01*
X249730Y-147388D01*
X249024Y-147095D01*
X248266Y-146996D01*
X247858D01*
X247759Y-146496D01*
X248786Y-146070D01*
X249797Y-145294D01*
X250573Y-144284D01*
X251060Y-143107D01*
X251149Y-142434D01*
X246346D01*
X241544D01*
X241632Y-143107D01*
X242120Y-144284D01*
X242896Y-145294D01*
X243906Y-146070D01*
X244934Y-146496D01*
X244834Y-146996D01*
X244427D01*
X243669Y-147095D01*
X242963Y-147388D01*
X242356Y-147853D01*
X241891Y-148460D01*
X241598Y-149166D01*
X241510Y-149836D01*
X235682D01*
X234914Y-149989D01*
X234263Y-150424D01*
X232490Y-152197D01*
X227315D01*
X227012Y-151743D01*
X226312Y-151276D01*
X226017Y-151217D01*
Y-150707D01*
X226241Y-150663D01*
X226882Y-150235D01*
X227309Y-149595D01*
X227459Y-148840D01*
Y-148495D01*
X224453D01*
X221447D01*
Y-148840D01*
X221597Y-149595D01*
X222024Y-150235D01*
X222664Y-150663D01*
X222889Y-150707D01*
Y-151217D01*
X222594Y-151276D01*
X221894Y-151743D01*
X221591Y-152197D01*
X220735D01*
Y-144201D01*
X220834Y-144125D01*
X221307Y-143508D01*
X221605Y-142790D01*
X221706Y-142019D01*
X221605Y-141248D01*
X221307Y-140530D01*
X221068Y-140218D01*
X221150Y-139562D01*
X221234Y-139506D01*
X221702Y-138806D01*
X221866Y-137980D01*
Y-136110D01*
X221702Y-135284D01*
X221234Y-134584D01*
X220612Y-134168D01*
X220569Y-133895D01*
X220612Y-133622D01*
X221234Y-133206D01*
X221702Y-132506D01*
X221751Y-132259D01*
X234190D01*
X234190Y-132259D01*
X234769Y-132144D01*
X235260Y-131816D01*
X241174Y-125902D01*
X241648Y-126135D01*
X241592Y-126561D01*
Y-127890D01*
X246456D01*
X251319D01*
Y-126561D01*
X251219Y-125799D01*
X250925Y-125089D01*
X250457Y-124479D01*
X249847Y-124011D01*
X249137Y-123717D01*
X248375Y-123617D01*
X247965D01*
X247865Y-123117D01*
X248888Y-122693D01*
X249895Y-121920D01*
X250668Y-120913D01*
X251154Y-119739D01*
X251320Y-118480D01*
X251154Y-117221D01*
X250668Y-116048D01*
X249895Y-115041D01*
X248888Y-114268D01*
X247715Y-113782D01*
X246456Y-113616D01*
X245197Y-113782D01*
X244023Y-114268D01*
X243016Y-115041D01*
X242243Y-116048D01*
X241757Y-117221D01*
X241591Y-118480D01*
X241757Y-119739D01*
X242138Y-120658D01*
X233563Y-129232D01*
X221751D01*
X221702Y-128985D01*
X221234Y-128285D01*
X220534Y-127817D01*
X220189Y-127749D01*
Y-107623D01*
X220073Y-107044D01*
X219745Y-106553D01*
X219745Y-106553D01*
X215831Y-102639D01*
X215340Y-102311D01*
X214761Y-102195D01*
X214761Y-102195D01*
X204064D01*
X203912Y-101695D01*
X204011Y-101629D01*
X209732Y-95909D01*
X210059Y-95418D01*
X210175Y-94839D01*
X210175Y-94839D01*
Y-74643D01*
X215602Y-69216D01*
X221924D01*
X221973Y-69463D01*
D02*
G37*
G36*
X98337Y-116287D02*
X97883Y-116590D01*
X97415Y-117290D01*
X97251Y-118116D01*
Y-120183D01*
X97415Y-121009D01*
X97883Y-121709D01*
X98583Y-122176D01*
X98738Y-122207D01*
Y-130849D01*
X98328Y-131259D01*
X97846Y-131034D01*
Y-130507D01*
X97727Y-129908D01*
X97509Y-129582D01*
X97727Y-129256D01*
X97846Y-128656D01*
Y-127948D01*
X97727Y-127349D01*
X97400Y-126860D01*
X97556Y-126626D01*
X97614Y-126334D01*
X93830D01*
X90002D01*
X89656Y-126789D01*
X86032D01*
X84605Y-125362D01*
X84114Y-125034D01*
X83535Y-124919D01*
X83535Y-124919D01*
X81861D01*
X81812Y-124671D01*
X81344Y-123971D01*
X80644Y-123504D01*
X80282Y-123432D01*
Y-122144D01*
X80612Y-122078D01*
X81312Y-121610D01*
X81780Y-120910D01*
X81944Y-120085D01*
Y-118215D01*
X81780Y-117389D01*
X81312Y-116689D01*
X80690Y-116273D01*
X80647Y-116000D01*
X80690Y-115727D01*
X81312Y-115311D01*
X81780Y-114611D01*
X81944Y-113785D01*
Y-111915D01*
X81780Y-111090D01*
X81312Y-110390D01*
X80760Y-110021D01*
Y-93878D01*
X98337D01*
Y-116287D01*
D02*
G37*
G36*
X63893Y-126291D02*
X64051Y-127083D01*
X64499Y-127753D01*
X65170Y-128201D01*
X65961Y-128359D01*
X71039D01*
X71830Y-128201D01*
X72501Y-127753D01*
X72949Y-127083D01*
X73014Y-126758D01*
X73556Y-126593D01*
X74466Y-127502D01*
X74466Y-127502D01*
X74957Y-127830D01*
X75536Y-127945D01*
X75758Y-128193D01*
X76226Y-128893D01*
X76848Y-129309D01*
X76891Y-129582D01*
X76848Y-129855D01*
X76226Y-130271D01*
X75758Y-130971D01*
X75709Y-131218D01*
X75331D01*
X74752Y-131333D01*
X74260Y-131661D01*
X74260Y-131661D01*
X73549Y-132372D01*
X73007Y-132208D01*
X72949Y-131918D01*
X72501Y-131247D01*
X71830Y-130799D01*
X71039Y-130641D01*
X65961D01*
X65170Y-130799D01*
X64499Y-131247D01*
X64051Y-131918D01*
X63893Y-132709D01*
Y-132987D01*
X59704D01*
Y-131241D01*
X59547Y-130450D01*
X59099Y-129780D01*
X59046Y-129744D01*
Y-129244D01*
X59099Y-129209D01*
X59547Y-128539D01*
X59704Y-127747D01*
Y-125813D01*
X63893D01*
Y-126291D01*
D02*
G37*
G36*
X50491Y-127747D02*
X50648Y-128539D01*
X51096Y-129209D01*
X51149Y-129244D01*
Y-129744D01*
X51096Y-129780D01*
X50648Y-130450D01*
X50491Y-131241D01*
Y-132987D01*
X38593D01*
X38213Y-132068D01*
X37440Y-131060D01*
X36432Y-130287D01*
X35372Y-129848D01*
X35471Y-129348D01*
X35919D01*
X36677Y-129248D01*
X37384Y-128955D01*
X37990Y-128490D01*
X38456Y-127884D01*
X38748Y-127177D01*
X38848Y-126419D01*
Y-126013D01*
X50491D01*
Y-127747D01*
D02*
G37*
G36*
X198635Y-123402D02*
X198651Y-123412D01*
X199419Y-123565D01*
X201008D01*
X201441Y-124214D01*
X202141Y-124681D01*
X202436Y-124740D01*
Y-125250D01*
X202211Y-125294D01*
X201571Y-125722D01*
X201144Y-126362D01*
X200994Y-127117D01*
Y-127462D01*
X204000D01*
X207006D01*
Y-127117D01*
X206856Y-126362D01*
X206429Y-125722D01*
X205788Y-125294D01*
X205564Y-125250D01*
Y-124740D01*
X205859Y-124681D01*
X206559Y-124214D01*
X206914Y-123683D01*
X207788D01*
X207864Y-123782D01*
X208481Y-124255D01*
X209199Y-124553D01*
X209970Y-124654D01*
X210741Y-124553D01*
X211459Y-124255D01*
X211775Y-124013D01*
X212275Y-124259D01*
Y-133889D01*
X212428Y-134657D01*
X212863Y-135309D01*
X215133Y-137578D01*
X215484Y-137813D01*
Y-137980D01*
X215649Y-138806D01*
X216116Y-139506D01*
X216249Y-139595D01*
X216352Y-140265D01*
X216149Y-140530D01*
X215851Y-141248D01*
X215750Y-142019D01*
X215851Y-142790D01*
X216149Y-143508D01*
X216622Y-144125D01*
X216721Y-144201D01*
Y-153051D01*
X216874Y-153819D01*
X217309Y-154470D01*
X218462Y-155623D01*
X219113Y-156058D01*
X219881Y-156211D01*
X221591D01*
X221894Y-156665D01*
X222594Y-157132D01*
X223419Y-157297D01*
X225486D01*
X226312Y-157132D01*
X227012Y-156665D01*
X227315Y-156211D01*
X231315D01*
Y-163451D01*
X219668Y-175097D01*
X215012D01*
X214959Y-174970D01*
X214280Y-174086D01*
X214057Y-173914D01*
X214217Y-173441D01*
X217671D01*
X217671Y-173441D01*
X218250Y-173326D01*
X218741Y-172997D01*
X219327Y-172412D01*
X219327Y-172412D01*
X219655Y-171921D01*
X219770Y-171342D01*
Y-160402D01*
X219770Y-160402D01*
X219655Y-159822D01*
X219327Y-159332D01*
X195557Y-135562D01*
Y-124839D01*
X196681D01*
X197242Y-124728D01*
X197717Y-124410D01*
X198035Y-123935D01*
X198093Y-123641D01*
X198376Y-123458D01*
X198594Y-123399D01*
X198635Y-123402D01*
D02*
G37*
%LPC*%
G36*
X200486Y-10632D02*
X200142D01*
Y-13048D01*
X202459D01*
Y-12605D01*
X202309Y-11850D01*
X201881Y-11210D01*
X201241Y-10783D01*
X200486Y-10632D01*
D02*
G37*
G36*
X202459Y-14229D02*
X200142D01*
Y-16645D01*
X200486D01*
X201241Y-16495D01*
X201881Y-16067D01*
X202309Y-15427D01*
X202459Y-14672D01*
Y-14229D01*
D02*
G37*
G36*
X199728Y-18450D02*
X199507D01*
X199049Y-18541D01*
X198662Y-18800D01*
X198403Y-19187D01*
X198326Y-19571D01*
X199728D01*
Y-18450D01*
D02*
G37*
G36*
X186812Y-17942D02*
X186369D01*
Y-20260D01*
X188785D01*
Y-19915D01*
X188635Y-19160D01*
X188207Y-18520D01*
X187567Y-18093D01*
X186812Y-17942D01*
D02*
G37*
G36*
X185188D02*
X184745D01*
X183990Y-18093D01*
X183350Y-18520D01*
X182922Y-19160D01*
X182772Y-19915D01*
Y-20260D01*
X185188D01*
Y-17942D01*
D02*
G37*
G36*
X153227Y-23090D02*
X148954D01*
Y-27364D01*
X150283D01*
X151045Y-27263D01*
X151755Y-26969D01*
X152365Y-26501D01*
X152832Y-25892D01*
X153127Y-25181D01*
X153227Y-24419D01*
Y-23090D01*
D02*
G37*
G36*
X251091Y-43645D02*
Y-47262D01*
X254707D01*
X254639Y-46743D01*
X254211Y-45710D01*
X253530Y-44822D01*
X252642Y-44141D01*
X251609Y-43713D01*
X251091Y-43645D01*
D02*
G37*
G36*
X249909D02*
X249391Y-43713D01*
X248358Y-44141D01*
X247470Y-44822D01*
X246789Y-45710D01*
X246361Y-46743D01*
X246293Y-47262D01*
X249909D01*
Y-43645D01*
D02*
G37*
G36*
Y-48443D02*
X246293D01*
X246361Y-48961D01*
X246789Y-49994D01*
X247470Y-50882D01*
X248358Y-51563D01*
X249391Y-51991D01*
X249909Y-52059D01*
Y-48443D01*
D02*
G37*
G36*
X254707D02*
X251091D01*
Y-52059D01*
X251609Y-51991D01*
X252642Y-51563D01*
X253530Y-50882D01*
X254211Y-49994D01*
X254639Y-48961D01*
X254707Y-48443D01*
D02*
G37*
G36*
X251091Y-53645D02*
Y-57262D01*
X254707D01*
X254639Y-56743D01*
X254211Y-55710D01*
X253530Y-54822D01*
X252642Y-54141D01*
X251609Y-53713D01*
X251091Y-53645D01*
D02*
G37*
G36*
X249909D02*
X249391Y-53713D01*
X248358Y-54141D01*
X247470Y-54822D01*
X246789Y-55710D01*
X246361Y-56743D01*
X246293Y-57262D01*
X249909D01*
Y-53645D01*
D02*
G37*
G36*
X211762Y-57146D02*
X209154D01*
Y-60542D01*
X213535D01*
Y-58918D01*
X213400Y-58240D01*
X213016Y-57665D01*
X212441Y-57281D01*
X211762Y-57146D01*
D02*
G37*
G36*
X207973D02*
X205365D01*
X204686Y-57281D01*
X204112Y-57665D01*
X203727Y-58240D01*
X203592Y-58918D01*
Y-60542D01*
X207973D01*
Y-57146D01*
D02*
G37*
G36*
X249909Y-58443D02*
X246293D01*
X246361Y-58961D01*
X246789Y-59994D01*
X247470Y-60882D01*
X248358Y-61563D01*
X249391Y-61991D01*
X249909Y-62059D01*
Y-58443D01*
D02*
G37*
G36*
X254707D02*
X251091D01*
Y-62059D01*
X251609Y-61991D01*
X252642Y-61563D01*
X253530Y-60882D01*
X254211Y-59994D01*
X254639Y-58961D01*
X254707Y-58443D01*
D02*
G37*
G36*
X213535Y-61723D02*
X209154D01*
Y-65119D01*
X211762D01*
X212441Y-64985D01*
X213016Y-64600D01*
X213400Y-64025D01*
X213535Y-63347D01*
Y-61723D01*
D02*
G37*
G36*
X207973D02*
X203592D01*
Y-63347D01*
X203727Y-64025D01*
X204112Y-64600D01*
X204686Y-64985D01*
X205365Y-65119D01*
X207973D01*
Y-61723D01*
D02*
G37*
G36*
X185760Y-31991D02*
X185415D01*
X184660Y-32141D01*
X184020Y-32569D01*
X183593Y-33209D01*
X183442Y-33964D01*
Y-34407D01*
X185760D01*
Y-31991D01*
D02*
G37*
G36*
X74322Y-74242D02*
X71502D01*
Y-76550D01*
X75818D01*
Y-75738D01*
X75704Y-75165D01*
X75380Y-74680D01*
X74894Y-74356D01*
X74322Y-74242D01*
D02*
G37*
G36*
X70321D02*
X67501D01*
X66928Y-74356D01*
X66443Y-74680D01*
X66118Y-75165D01*
X66005Y-75738D01*
Y-76550D01*
X70321D01*
Y-74242D01*
D02*
G37*
G36*
X75818Y-77731D02*
X71502D01*
Y-80039D01*
X74322D01*
X74894Y-79926D01*
X75380Y-79601D01*
X75704Y-79116D01*
X75818Y-78543D01*
Y-77731D01*
D02*
G37*
G36*
X70321D02*
X66005D01*
Y-78543D01*
X66118Y-79116D01*
X66443Y-79601D01*
X66928Y-79926D01*
X67501Y-80039D01*
X70321D01*
Y-77731D01*
D02*
G37*
G36*
X64603Y-79390D02*
X62187D01*
Y-81708D01*
X62630D01*
X63385Y-81558D01*
X64025Y-81130D01*
X64453Y-80490D01*
X64603Y-79735D01*
Y-79390D01*
D02*
G37*
G36*
X61006D02*
X58590D01*
Y-79735D01*
X58741Y-80490D01*
X59168Y-81130D01*
X59808Y-81558D01*
X60563Y-81708D01*
X61006D01*
Y-79390D01*
D02*
G37*
G36*
X56603D02*
X54187D01*
Y-81708D01*
X54630D01*
X55385Y-81558D01*
X56025Y-81130D01*
X56453Y-80490D01*
X56603Y-79735D01*
Y-79390D01*
D02*
G37*
G36*
X53006D02*
X50590D01*
Y-79735D01*
X50741Y-80490D01*
X51168Y-81130D01*
X51808Y-81558D01*
X52563Y-81708D01*
X53006D01*
Y-79390D01*
D02*
G37*
G36*
X183585Y-70482D02*
X183240D01*
Y-72898D01*
X185558D01*
Y-72455D01*
X185407Y-71700D01*
X184980Y-71060D01*
X184340Y-70632D01*
X183585Y-70482D01*
D02*
G37*
G36*
X185558Y-74079D02*
X183240D01*
Y-76495D01*
X183585D01*
X184340Y-76344D01*
X184980Y-75917D01*
X185407Y-75277D01*
X185558Y-74522D01*
Y-74079D01*
D02*
G37*
G36*
X127403Y-88034D02*
X127058D01*
X126303Y-88184D01*
X125663Y-88612D01*
X125235Y-89252D01*
X125085Y-90007D01*
Y-90450D01*
X127403D01*
Y-88034D01*
D02*
G37*
G36*
Y-91631D02*
X125085D01*
Y-92074D01*
X125235Y-92829D01*
X125663Y-93469D01*
X126303Y-93897D01*
X127058Y-94047D01*
X127403D01*
Y-91631D01*
D02*
G37*
G36*
X123656D02*
X121339D01*
Y-94047D01*
X121683D01*
X122438Y-93897D01*
X123078Y-93469D01*
X123506Y-92829D01*
X123656Y-92074D01*
Y-91631D01*
D02*
G37*
G36*
X148533Y-112442D02*
X148091D01*
Y-114760D01*
X150506D01*
Y-114415D01*
X150356Y-113660D01*
X149928Y-113020D01*
X149288Y-112593D01*
X148533Y-112442D01*
D02*
G37*
G36*
X146909D02*
X146467D01*
X145712Y-112593D01*
X145071Y-113020D01*
X144644Y-113660D01*
X144494Y-114415D01*
Y-114760D01*
X146909D01*
Y-112442D01*
D02*
G37*
G36*
X141430D02*
X140987D01*
Y-114760D01*
X143403D01*
Y-114415D01*
X143253Y-113660D01*
X142825Y-113020D01*
X142185Y-112593D01*
X141430Y-112442D01*
D02*
G37*
G36*
X139806D02*
X139363D01*
X138608Y-112593D01*
X137968Y-113020D01*
X137540Y-113660D01*
X137390Y-114415D01*
Y-114760D01*
X139806D01*
Y-112442D01*
D02*
G37*
G36*
X146909Y-99040D02*
X146467D01*
X145712Y-99190D01*
X145071Y-99618D01*
X144644Y-100258D01*
X144494Y-101013D01*
Y-101357D01*
X146909D01*
Y-99040D01*
D02*
G37*
G36*
X243949Y-94803D02*
X243604D01*
X242849Y-94953D01*
X242209Y-95381D01*
X241781Y-96021D01*
X241631Y-96776D01*
Y-97219D01*
X243949D01*
Y-94803D01*
D02*
G37*
G36*
Y-98400D02*
X241631D01*
Y-98843D01*
X241781Y-99598D01*
X242209Y-100238D01*
X242849Y-100666D01*
X243604Y-100816D01*
X243949D01*
Y-98400D01*
D02*
G37*
G36*
X251319Y-129071D02*
X247046D01*
Y-133344D01*
X248375D01*
X249137Y-133244D01*
X249847Y-132950D01*
X250457Y-132482D01*
X250925Y-131872D01*
X251219Y-131162D01*
X251319Y-130400D01*
Y-129071D01*
D02*
G37*
G36*
X245865D02*
X241592D01*
Y-130400D01*
X241692Y-131162D01*
X241986Y-131872D01*
X242454Y-132482D01*
X243064Y-132950D01*
X243774Y-133244D01*
X244536Y-133344D01*
X245865D01*
Y-129071D01*
D02*
G37*
G36*
X246937Y-137041D02*
Y-141253D01*
X251149D01*
X251060Y-140580D01*
X250573Y-139403D01*
X249797Y-138393D01*
X248786Y-137617D01*
X247609Y-137129D01*
X246937Y-137041D01*
D02*
G37*
G36*
X245756Y-137041D02*
X245083Y-137129D01*
X243906Y-137617D01*
X242896Y-138393D01*
X242120Y-139403D01*
X241632Y-140580D01*
X241544Y-141253D01*
X245756D01*
Y-137041D01*
D02*
G37*
G36*
X225486Y-144997D02*
X225044D01*
Y-147314D01*
X227459D01*
Y-146970D01*
X227309Y-146215D01*
X226882Y-145575D01*
X226241Y-145147D01*
X225486Y-144997D01*
D02*
G37*
G36*
X223862D02*
X223419D01*
X222664Y-145147D01*
X222024Y-145575D01*
X221597Y-146215D01*
X221447Y-146970D01*
Y-147314D01*
X223862D01*
Y-144997D01*
D02*
G37*
G36*
X96280Y-124008D02*
X94420D01*
Y-125153D01*
X97614D01*
X97556Y-124860D01*
X97257Y-124412D01*
X96809Y-124113D01*
X96280Y-124008D01*
D02*
G37*
G36*
X93239D02*
X91379D01*
X90850Y-124113D01*
X90402Y-124412D01*
X90103Y-124860D01*
X90045Y-125153D01*
X93239D01*
Y-124008D01*
D02*
G37*
G36*
X207006Y-128643D02*
X204591D01*
Y-130960D01*
X205033D01*
X205788Y-130810D01*
X206429Y-130382D01*
X206856Y-129742D01*
X207006Y-128987D01*
Y-128643D01*
D02*
G37*
G36*
X203409D02*
X200994D01*
Y-128987D01*
X201144Y-129742D01*
X201571Y-130382D01*
X202211Y-130810D01*
X202966Y-130960D01*
X203409D01*
Y-128643D01*
D02*
G37*
%LPD*%
D10*
X28515Y-153685D02*
X39538Y-142661D01*
X28346Y-142520D02*
X39370Y-153543D01*
X33225Y-69752D02*
X36756Y-66221D01*
X33239Y-69739D02*
X37734Y-74234D01*
X32500Y-69000D02*
X33239Y-69739D01*
X31317Y-69000D02*
X32500D01*
X27786Y-65469D02*
X31317Y-69000D01*
X32500D02*
X32500D01*
X37734Y-74234D02*
Y-74234D01*
X28697Y-72803D02*
X32500Y-69000D01*
X243554Y-154636D02*
X246346Y-151844D01*
X125984Y-70866D02*
X128828Y-68022D01*
X123522Y-73328D02*
X125984Y-70866D01*
X69599Y-124300D02*
X73404D01*
X75536Y-126432D02*
X78785D01*
X73404Y-124300D02*
X75536Y-126432D01*
X69599Y-134700D02*
X73362D01*
X75331Y-132731D01*
X78785D01*
X190551Y-88189D02*
X199438Y-79302D01*
X192838Y-57556D02*
X199438Y-64156D01*
Y-79302D02*
Y-64156D01*
X183903Y-86105D02*
X186251Y-83757D01*
X179201Y-90807D02*
X183903Y-86105D01*
X194488Y-79001D02*
Y-65288D01*
X186251Y-83757D02*
X189732D01*
X194488Y-79001D01*
X128098Y-82067D02*
X140626D01*
X160685Y-100035D02*
X161209Y-100559D01*
X158595Y-100035D02*
X160685D01*
X140626Y-82067D02*
X158595Y-100035D01*
X176350Y-73488D02*
Y-61203D01*
X140397Y-115377D02*
Y-115350D01*
X134274Y-115377D02*
X140397D01*
X134066Y-115169D02*
X134274Y-115377D01*
X176280Y-61133D02*
X176350Y-61203D01*
X192838Y-57556D02*
X209203Y-41190D01*
X130681Y-16819D02*
X152101D01*
X192838Y-57556D01*
X209203Y-41190D02*
Y-29342D01*
X194043Y-103709D02*
X214761D01*
X218675Y-130746D02*
Y-107623D01*
X214761Y-103709D02*
X218675Y-107623D01*
X128134Y-97626D02*
X128275Y-97767D01*
X128134Y-97626D02*
Y-91181D01*
X127993Y-91040D02*
X128134Y-91181D01*
X147474Y-115377D02*
X147500Y-115350D01*
X200159Y-39211D02*
Y-38015D01*
X138385Y-12651D02*
X138437Y-12598D01*
X140397Y-115377D02*
X147474D01*
X200319Y-38015D02*
Y-27839D01*
X203956Y-21486D02*
X208336D01*
X202721Y-22720D02*
X203956Y-21486D01*
X208336D02*
X211500Y-24650D01*
X198733Y-39441D02*
X200379Y-37795D01*
X200159Y-38015D02*
X200379Y-37795D01*
X179598Y-39441D02*
X198733D01*
X152756Y-12598D02*
X179598Y-39441D01*
X200319Y-22720D02*
X202721D01*
X201262Y-167104D02*
X206085Y-171927D01*
X218257Y-171342D02*
Y-160402D01*
X206085Y-171927D02*
X217671D01*
X218257Y-171342D01*
X185500Y-145124D02*
X196282Y-155907D01*
Y-172125D02*
X201262Y-177104D01*
X196282Y-172125D02*
Y-155907D01*
X176051Y-95165D02*
Y-85391D01*
X179201Y-95165D02*
Y-90807D01*
X190551Y-88189D02*
Y-88189D01*
X190386Y-88189D02*
X190469D01*
X188497Y-90078D02*
X190386Y-88189D01*
X182350Y-95165D02*
Y-91301D01*
X183573Y-90078D02*
X188497D01*
X182350Y-91301D02*
X183573Y-90078D01*
X176174Y-85391D02*
Y-80767D01*
X167906Y-85422D02*
Y-76287D01*
X172849Y-95165D02*
Y-90364D01*
X167906Y-85422D02*
X172849Y-90364D01*
X160500Y-81961D02*
X169699Y-91161D01*
Y-95165D02*
Y-91161D01*
X160500Y-81961D02*
Y-76287D01*
X177520Y-102847D02*
X178315D01*
X175544Y-100871D02*
X177520Y-102847D01*
X173686Y-100871D02*
X175544D01*
X172902Y-100087D02*
X173686Y-100871D01*
X168057Y-105712D02*
Y-105712D01*
X166602Y-104258D02*
Y-95165D01*
Y-104258D02*
X168057Y-105712D01*
X169752Y-102001D02*
Y-95165D01*
Y-102001D02*
X173556Y-105805D01*
X28386Y-63114D02*
X32500Y-59000D01*
X27958Y-54458D02*
X32500Y-59000D01*
X38583Y-52917D01*
X32500Y-59000D02*
X36501Y-63001D01*
X125000Y-22500D02*
X130681Y-16819D01*
X122015Y-64227D02*
X123389Y-62854D01*
Y-35572D01*
X125000Y-33961D01*
X119724Y-70866D02*
Y-70438D01*
X117984Y-68699D02*
Y-64227D01*
Y-68699D02*
X119724Y-70438D01*
X120151Y-71509D02*
X121563Y-72920D01*
Y-77500D02*
Y-72920D01*
X120151Y-71509D02*
Y-70866D01*
X139594Y-87402D02*
X154135Y-101942D01*
X155211Y-102825D02*
X156095Y-103709D01*
X115282Y-84035D02*
X118965D01*
X112811Y-85825D02*
X113493D01*
X115282Y-84035D01*
X113012Y-80859D02*
X114854D01*
X115127Y-81133D01*
X110881Y-75609D02*
X113811D01*
X116332Y-78130D01*
X118965D01*
X123522Y-77491D02*
Y-73328D01*
Y-77491D02*
X123531Y-77500D01*
X128828Y-68022D02*
Y-64184D01*
X111247Y-133420D02*
X117323D01*
X119301Y-135399D01*
Y-135453D02*
Y-135399D01*
X111247Y-128302D02*
X111291Y-128347D01*
X115252D01*
X116504Y-129599D01*
X119301Y-123765D02*
Y-123711D01*
X117323Y-125743D02*
X119301Y-123765D01*
X111247Y-125743D02*
X117323D01*
X116504Y-129599D02*
X116504D01*
X119505D01*
X115260Y-130843D02*
X116504Y-129599D01*
X111265Y-130843D02*
X115260D01*
X111247Y-130861D02*
X111265Y-130843D01*
X53424Y-110385D02*
X55097Y-112058D01*
X56924Y-110232D01*
X67401Y-124300D02*
X68500Y-123201D01*
X55454Y-124300D02*
X67401D01*
X34000Y-124500D02*
X55254D01*
X55454Y-124300D01*
X194043Y-136188D02*
X218257Y-160402D01*
X194043Y-136188D02*
Y-122606D01*
X185500Y-145124D02*
Y-128000D01*
X188650Y-136306D02*
Y-128000D01*
Y-136306D02*
X210787Y-158444D01*
Y-166630D02*
Y-158444D01*
Y-166630D02*
X211262Y-167104D01*
X245016Y-119920D02*
Y-118102D01*
X234190Y-130746D02*
X245016Y-119920D01*
X218675Y-130746D02*
X234190D01*
X194043Y-100559D02*
X202941D01*
X208661Y-94839D02*
Y-74016D01*
X202941Y-100559D02*
X208661Y-94839D01*
X125000Y-33961D02*
Y-22500D01*
X117984Y-64227D02*
X122015D01*
X211500Y-18350D02*
X211598D01*
X214975Y-67702D02*
X225000D01*
X208661Y-74016D02*
X214975Y-67702D01*
X172902Y-100087D02*
Y-95165D01*
X128776Y-52911D02*
X128828Y-52964D01*
X117932Y-52954D02*
X117984Y-53007D01*
X138437Y-12598D02*
X152756D01*
X138363Y-49322D02*
Y-22500D01*
X178522Y-49322D02*
X194488Y-65288D01*
X138363Y-49322D02*
X178522D01*
X176350Y-80591D02*
Y-73488D01*
X138363Y-61762D02*
Y-49322D01*
X205240Y-25379D02*
X209203Y-29342D01*
X205240Y-25379D02*
Y-25280D01*
X176174Y-80767D02*
X176350Y-80591D01*
X128871Y-64227D02*
X135898D01*
X138363Y-61762D01*
X128828Y-64184D02*
X128871Y-64227D01*
X88967Y-160095D02*
X93889D01*
X100188D02*
Y-152595D01*
X78753Y-139835D02*
X78769Y-139819D01*
Y-132747D01*
X78785Y-132731D01*
X199437Y-13640D02*
X199500Y-13703D01*
X185806Y-20878D02*
X185806D01*
X180885D02*
X185806D01*
X185834Y-20905D01*
X185778Y-20850D02*
X185806Y-20878D01*
X182650Y-73488D02*
X187519D01*
X182597D02*
X182650D01*
X125398Y-77398D02*
X128729Y-74067D01*
X153000Y-143000D02*
X155000Y-141000D01*
X161209Y-141209D02*
X163000Y-143000D01*
X156815Y-119457D02*
X161209D01*
X167106Y-143000D02*
X167154Y-143048D01*
X167899Y-69980D02*
X167906Y-69988D01*
X160500D02*
Y-62885D01*
X167891D02*
X167899Y-62893D01*
Y-69980D02*
Y-62893D01*
X155000Y-141000D02*
Y-121272D01*
X161209Y-141209D02*
Y-122606D01*
X155000Y-121272D02*
X156815Y-119457D01*
X163000Y-143000D02*
X167106D01*
X204000Y-128052D02*
X208921D01*
X156095Y-103709D02*
X161209D01*
X152410Y-106858D02*
X161209D01*
X153799Y-162488D02*
Y-157567D01*
X160903Y-162488D02*
Y-157567D01*
X167154Y-157519D02*
X167202Y-157567D01*
X167154Y-157519D02*
Y-143048D01*
X147500Y-157567D02*
X147697Y-157370D01*
Y-143197D02*
X147894Y-143000D01*
X153000D01*
X142579Y-101948D02*
X147500D01*
X152410Y-106858D01*
X147697Y-157370D02*
Y-143197D01*
X147500Y-108247D02*
X147724Y-108471D01*
X115127Y-81133D02*
X116062Y-82067D01*
X120748Y-91040D02*
Y-90942D01*
X123531Y-88159D02*
Y-84665D01*
X125500Y-88213D02*
Y-84665D01*
X120748Y-95962D02*
Y-91040D01*
X115127Y-81133D02*
X116161Y-80098D01*
X116062Y-82067D02*
X118965D01*
X116161Y-80098D02*
X118965D01*
X128729Y-74067D02*
X134449D01*
X88908Y-125743D02*
X93830D01*
X78785Y-126432D02*
X83535D01*
X85405Y-128302D02*
X93830D01*
X83535Y-126432D02*
X85405Y-128302D01*
X78785Y-132731D02*
X83819D01*
X85690Y-130861D02*
X93830D01*
X83819Y-132731D02*
X85690Y-130861D01*
X106643Y-119150D02*
X111564D01*
X78769Y-126416D02*
X78785Y-126432D01*
X78769Y-126416D02*
Y-119166D01*
X78753Y-119150D02*
X78769Y-119166D01*
X73832Y-146134D02*
X78753D01*
X55266Y-134500D02*
X67201D01*
X55097Y-134332D02*
X55266Y-134500D01*
X67201D02*
X68500Y-135799D01*
X69599Y-134700D01*
X68500Y-123201D02*
X69599Y-124300D01*
X34000Y-134500D02*
X54929D01*
X55097Y-134332D01*
X250425Y-67777D02*
X250500Y-67852D01*
X225075Y-67777D02*
X250425D01*
X225000Y-67702D02*
X225075Y-67777D01*
X181429Y-34998D02*
X186350D01*
X192650D02*
X192665Y-34982D01*
Y-27854D01*
X192681Y-27839D01*
X188661Y-20905D02*
X190476Y-22720D01*
X192681D01*
X185834Y-20905D02*
X188661D01*
X200319Y-20161D02*
Y-17819D01*
X199500Y-17000D02*
Y-13703D01*
Y-17000D02*
X200319Y-17819D01*
Y-25280D02*
X205240D01*
D21*
X118965Y-78130D02*
D03*
Y-80098D02*
D03*
Y-82067D02*
D03*
Y-84035D02*
D03*
X128098D02*
D03*
Y-82067D02*
D03*
Y-80098D02*
D03*
Y-78130D02*
D03*
D22*
X121563Y-84665D02*
D03*
X123531D02*
D03*
X125500D02*
D03*
Y-77500D02*
D03*
X123531D02*
D03*
X121563D02*
D03*
D34*
X70911Y-59030D02*
D03*
Y-68085D02*
D03*
Y-77141D02*
D03*
D35*
X94730Y-68085D02*
D03*
D36*
X176280Y-61133D02*
D03*
X208563D02*
D03*
D37*
X250838Y-97810D02*
D03*
X244539D02*
D03*
X100188Y-152595D02*
D03*
X93889D02*
D03*
X176350Y-80591D02*
D03*
X182650D02*
D03*
Y-73488D02*
D03*
X176350D02*
D03*
X147500Y-157567D02*
D03*
X153799D02*
D03*
X167202D02*
D03*
X160903D02*
D03*
X100188Y-160095D02*
D03*
X93889D02*
D03*
X134449Y-74067D02*
D03*
X140748D02*
D03*
X120748Y-91040D02*
D03*
X114449D02*
D03*
X127993D02*
D03*
X134292D02*
D03*
X100344Y-119150D02*
D03*
X106643D02*
D03*
X199551Y-13639D02*
D03*
X193252D02*
D03*
X192650Y-34998D02*
D03*
X186350D02*
D03*
D38*
X61369Y-59098D02*
D03*
Y-65397D02*
D03*
X53869Y-59098D02*
D03*
Y-65397D02*
D03*
X224453Y-147905D02*
D03*
Y-154204D02*
D03*
X117984Y-57928D02*
D03*
Y-64227D02*
D03*
X160500Y-69988D02*
D03*
Y-76287D02*
D03*
Y-56586D02*
D03*
Y-62885D02*
D03*
X167906Y-69988D02*
D03*
Y-76287D02*
D03*
X167891Y-56586D02*
D03*
Y-62885D02*
D03*
X204000Y-114650D02*
D03*
Y-108350D02*
D03*
Y-121753D02*
D03*
Y-128052D02*
D03*
X140397Y-121650D02*
D03*
Y-115350D02*
D03*
X147500Y-121650D02*
D03*
Y-115350D02*
D03*
Y-108247D02*
D03*
Y-101948D02*
D03*
X110881Y-75609D02*
D03*
Y-69310D02*
D03*
X128828Y-64184D02*
D03*
Y-57885D02*
D03*
X78785Y-126432D02*
D03*
Y-132731D02*
D03*
X78753Y-139835D02*
D03*
Y-146134D02*
D03*
Y-112850D02*
D03*
Y-119150D02*
D03*
X61597Y-78800D02*
D03*
Y-72500D02*
D03*
X53597Y-78800D02*
D03*
Y-72500D02*
D03*
X185778Y-20850D02*
D03*
Y-27150D02*
D03*
X218675Y-137045D02*
D03*
Y-130746D02*
D03*
X225000Y-74002D02*
D03*
Y-67702D02*
D03*
X211500Y-18350D02*
D03*
Y-24650D02*
D03*
D39*
X55097Y-112058D02*
D03*
Y-124657D02*
D03*
Y-134332D02*
D03*
Y-146930D02*
D03*
X68500Y-135799D02*
D03*
Y-123201D02*
D03*
D40*
X166602Y-128000D02*
D03*
X169752D02*
D03*
X172902D02*
D03*
X176051D02*
D03*
X179201D02*
D03*
X182350D02*
D03*
X185500D02*
D03*
X188650D02*
D03*
Y-95165D02*
D03*
X185500D02*
D03*
X182350D02*
D03*
X179201D02*
D03*
X176051D02*
D03*
X172902D02*
D03*
X169752D02*
D03*
X166602D02*
D03*
D41*
X161209Y-100559D02*
D03*
Y-103709D02*
D03*
Y-106858D02*
D03*
Y-110008D02*
D03*
Y-113157D02*
D03*
Y-116307D02*
D03*
Y-119457D02*
D03*
Y-122606D02*
D03*
X194043D02*
D03*
Y-119457D02*
D03*
Y-116307D02*
D03*
Y-113157D02*
D03*
Y-110008D02*
D03*
Y-106858D02*
D03*
Y-103709D02*
D03*
Y-100559D02*
D03*
D42*
X111247Y-133420D02*
D03*
Y-130861D02*
D03*
Y-128302D02*
D03*
Y-125743D02*
D03*
X93830D02*
D03*
Y-128302D02*
D03*
Y-130861D02*
D03*
Y-133420D02*
D03*
D43*
X200319Y-25280D02*
D03*
Y-22720D02*
D03*
Y-27839D02*
D03*
X192681Y-25280D02*
D03*
Y-22720D02*
D03*
Y-20161D02*
D03*
Y-27839D02*
D03*
X200319Y-20161D02*
D03*
D44*
X37734Y-74234D02*
Y-74234D01*
X38583Y-52917D02*
Y-52756D01*
D45*
X218728Y-153051D02*
X219881Y-154204D01*
X218728Y-153051D02*
Y-142019D01*
X219881Y-154204D02*
X233322D01*
X235682Y-151844D01*
X246346D01*
X214282Y-121558D02*
Y-115893D01*
X210309Y-114740D02*
X213129D01*
X214282Y-115893D01*
X210105Y-114537D02*
X210309Y-114740D01*
X136611Y-102312D02*
X136766Y-102467D01*
X134292Y-96497D02*
X136611Y-98816D01*
Y-102312D02*
Y-98816D01*
X134292Y-96497D02*
Y-91040D01*
X114496Y-97963D02*
Y-91088D01*
X119000Y-102467D02*
X126255D01*
X114496Y-97963D02*
X119000Y-102467D01*
X204000Y-114650D02*
X204113Y-114537D01*
X210105D01*
X78753Y-91871D02*
X100344D01*
Y-92325D02*
X104724Y-87945D01*
X100344Y-119150D02*
Y-91871D01*
X104724Y-87945D02*
X107820Y-91040D01*
X168251Y-20219D02*
Y-20219D01*
X174831Y-13639D02*
X193252D01*
X168251Y-20219D02*
X174831Y-13639D01*
X136047Y-102467D02*
X136766D01*
X126255D02*
X136047D01*
X125984Y-6299D02*
X154331D01*
X168251Y-20219D01*
X265399Y-77852D02*
X265450Y-77902D01*
X104724Y-87490D02*
Y-69310D01*
Y-87945D02*
Y-87490D01*
X56438Y-91871D02*
X78753D01*
Y-112850D02*
Y-91871D01*
X53597Y-89030D02*
X56438Y-91871D01*
X107820Y-91040D02*
X114449D01*
X191339Y-77409D02*
Y-66053D01*
X182650Y-80591D02*
X188156D01*
X191339Y-77409D01*
X210088Y-121558D02*
X214282D01*
X209970Y-121676D02*
X210088Y-121558D01*
X204077Y-121676D02*
X209970D01*
X204000Y-121753D02*
X204077Y-121676D01*
X194043Y-113157D02*
X194083Y-113197D01*
X198558D01*
X199783Y-114422D01*
X203805Y-121558D02*
X204000Y-121753D01*
X199419Y-121558D02*
X203805D01*
X214282Y-133889D02*
X216552Y-136159D01*
X199783Y-114422D02*
X203773D01*
X197357Y-119496D02*
X199419Y-121558D01*
X216552Y-136159D02*
X217790D01*
X194083Y-119496D02*
X197357D01*
X217790Y-136159D02*
X218675Y-137045D01*
X214282Y-133889D02*
Y-121558D01*
X203773Y-114422D02*
X204000Y-114650D01*
X194043Y-119457D02*
X194083Y-119496D01*
X178041Y-52756D02*
X191339Y-66053D01*
X171721Y-52756D02*
X178041D01*
X265450Y-77902D02*
Y-50464D01*
Y-77902D02*
X265500Y-77953D01*
X253569Y-38583D02*
X265450Y-50464D01*
X250500Y-77852D02*
X265399D01*
X265500Y-139224D02*
Y-77953D01*
X250838Y-97810D02*
Y-78190D01*
X250500Y-77852D02*
X250838Y-78190D01*
X243000Y-77852D02*
X250500D01*
X211598Y-18350D02*
X231831Y-38583D01*
X253569D01*
X211500Y-18350D02*
Y-8658D01*
X210347Y-7504D02*
X211500Y-8658D01*
X193252Y-13639D02*
Y-8658D01*
X194405Y-7504D02*
X210347D01*
X193252Y-8658D02*
X194405Y-7504D01*
X168251Y-20219D02*
X175181Y-27150D01*
X185778D01*
X110881Y-57928D02*
Y-48174D01*
X115000Y-44055D02*
Y-22500D01*
X110881Y-48174D02*
X115000Y-44055D01*
X104724Y-69310D02*
X110881D01*
Y-57928D01*
X136766Y-102467D02*
X142526Y-108227D01*
X126255Y-115231D02*
Y-102467D01*
Y-115231D02*
X132673Y-121650D01*
X114449Y-91040D02*
X114496Y-91088D01*
X220499Y-177104D02*
X233322Y-164282D01*
X211262Y-177104D02*
X220499D01*
X233322Y-164282D02*
Y-154204D01*
X246346Y-151844D02*
X252881D01*
X265500Y-139224D01*
X115000Y-22500D02*
Y-17284D01*
X125984Y-6299D01*
X218675Y-141966D02*
X218728Y-142019D01*
X147500Y-121650D02*
X150742D01*
X140397D02*
X147500D01*
X218675Y-141966D02*
Y-137045D01*
X155075Y-113157D02*
X161209D01*
X156084Y-116307D02*
X161209D01*
X150742Y-121650D02*
X156084Y-116307D01*
X128828Y-57885D02*
Y-52964D01*
X117984Y-57928D02*
Y-53007D01*
X167891Y-56586D02*
X171721Y-52756D01*
X160500Y-56586D02*
X167891D01*
X153203D02*
X160500D01*
X140696Y-69093D02*
X153203Y-56586D01*
X110881Y-57928D02*
X117984D01*
X142526Y-108300D02*
Y-108227D01*
X53597Y-89030D02*
Y-78800D01*
X193252Y-16748D02*
Y-13639D01*
X150383Y-108471D02*
X151920Y-110008D01*
X199992D02*
X201650Y-108350D01*
X194043Y-110008D02*
X199992D01*
X204000Y-108350D02*
X208921D01*
X201650D02*
X204000D01*
X151920Y-110008D02*
X161209D01*
X132673Y-121650D02*
X140397D01*
X142579Y-108247D02*
X147500D01*
X147724Y-108471D02*
X150383D01*
X140748Y-74067D02*
Y-69146D01*
X239150Y-74002D02*
X243000Y-77852D01*
X225000Y-74002D02*
X239150D01*
X192681Y-17319D02*
X193252Y-16748D01*
X192681Y-19851D02*
Y-17319D01*
D46*
X88814Y-64525D02*
X100625D01*
X88976Y-71653D02*
X100787D01*
X93889Y-152595D02*
Y-133420D01*
X230613Y-141843D02*
X246346D01*
X224453Y-147905D02*
X224551D01*
X93889Y-133420D02*
X98437D01*
X93830D02*
X93889D01*
X100344Y-131514D02*
Y-119150D01*
X98437Y-133420D02*
X100344Y-131514D01*
D47*
X115478Y-90011D02*
Y-88888D01*
X117770Y-86596D02*
X120144D01*
X114449Y-91040D02*
X115478Y-90011D01*
Y-88888D02*
X117770Y-86596D01*
X120144D02*
X121563Y-85177D01*
X185778Y-27150D02*
X186043Y-26885D01*
X190578Y-25280D02*
X192681D01*
X186043Y-26885D02*
X188972D01*
X190578Y-25280D01*
X121563Y-85177D02*
Y-84665D01*
X128098Y-84035D02*
X130702D01*
X134292Y-91040D02*
Y-87626D01*
X130702Y-84035D02*
X134292Y-87626D01*
D48*
X246346Y-141843D02*
D03*
X32500Y-69000D02*
D03*
X34000Y-134500D02*
D03*
X115000Y-22500D02*
D03*
X246456Y-118480D02*
D03*
X138363Y-22500D02*
D03*
X34000Y-157863D02*
D03*
D49*
X246346Y-151844D02*
D03*
X32500Y-59000D02*
D03*
X34000Y-124500D02*
D03*
X246456Y-128480D02*
D03*
X34000Y-147863D02*
D03*
D50*
X125000Y-22500D02*
D03*
X148363D02*
D03*
D51*
X147894Y-143000D02*
D03*
X167106D02*
D03*
D52*
X211262Y-167104D02*
D03*
D53*
Y-177104D02*
D03*
X201262Y-167104D02*
D03*
Y-177104D02*
D03*
X191262Y-167104D02*
D03*
Y-177104D02*
D03*
X250500Y-47852D02*
D03*
Y-57852D02*
D03*
Y-67852D02*
D03*
D54*
Y-77852D02*
D03*
D55*
X19685Y-19685D02*
D03*
X248000Y-16000D02*
D03*
X244000Y-179000D02*
D03*
X19685Y-177165D02*
D03*
D56*
X182677Y-67716D02*
D03*
X61975Y-129796D02*
D03*
X44586Y-129874D02*
D03*
X185574Y-110136D02*
D03*
X225197Y-141732D02*
D03*
X238583Y-97638D02*
D03*
X192126Y-46457D02*
D03*
X119685Y-30709D02*
D03*
X131496Y-41732D02*
D03*
X144882Y-54331D02*
D03*
X151181Y-74803D02*
D03*
X210105Y-114537D02*
D03*
X209936Y-128240D02*
D03*
X209970Y-121676D02*
D03*
X216535Y-61417D02*
D03*
X211811Y-108661D02*
D03*
X200159Y-39211D02*
D03*
X206102Y-13240D02*
D03*
X179646Y-20656D02*
D03*
X183903Y-86105D02*
D03*
X190551Y-88189D02*
D03*
X176174Y-85391D02*
D03*
X168057Y-105712D02*
D03*
X173556Y-105805D02*
D03*
X178315Y-102847D02*
D03*
X120151Y-70866D02*
D03*
X139594Y-87402D02*
D03*
X154135Y-101942D02*
D03*
X112811Y-85825D02*
D03*
X113012Y-80859D02*
D03*
X104724Y-69310D02*
D03*
X120923Y-97526D02*
D03*
X128275Y-97767D02*
D03*
X125984Y-70866D02*
D03*
X134066Y-115169D02*
D03*
X119301Y-135453D02*
D03*
Y-123711D02*
D03*
X119505Y-129599D02*
D03*
X55905Y-154331D02*
D03*
X87527Y-66210D02*
D03*
Y-73297D02*
D03*
Y-59123D02*
D03*
X87178Y-123940D02*
D03*
X87527Y-80383D02*
D03*
X80440Y-52037D02*
D03*
X87527D02*
D03*
X80440Y-59123D02*
D03*
X55118Y-104724D02*
D03*
X218728Y-142019D02*
D03*
X128776Y-52911D02*
D03*
X117932Y-52954D02*
D03*
X138385Y-12651D02*
D03*
X205293Y-25227D02*
D03*
X80440Y-73297D02*
D03*
Y-80383D02*
D03*
Y-66210D02*
D03*
X88967Y-160095D02*
D03*
X142526Y-102000D02*
D03*
X153852Y-162541D02*
D03*
X160955D02*
D03*
X140696Y-69093D02*
D03*
X111617Y-119097D02*
D03*
X73779Y-146186D02*
D03*
X181376Y-35050D02*
D03*
M02*
