M48
;Layer_Color=9474304
;FILE_FORMAT=4:4
METRIC,TZ
;TYPE=PLATED
T1F00S00C0.3000
T2F00S00C0.4000
T3F00S00C0.6500
T4F00S00C0.8000
T5F00S00C0.9000
T6F00S00C1.3000
T7F00S00C1.5000
%
T01
X107171Y35122
X132659Y50197
X171047Y57823
X199000Y45007
X210929Y80429
X211243Y90833
X211243Y101833
X246004Y57823
X249500Y46131
X273000Y71597
X292300Y75054
X297720Y38760
X288769Y7000
X269870Y7000
X292300Y123025
X292300Y135725
X292300Y148425
X290830Y173825
X290830Y186525
X289370Y211925
X249500Y185812
X211000Y209600
X185485Y192374
X155945Y197256
X155945Y177025
X119540Y87808
X308127Y54913
X313243Y38947
X338551Y37481
X338551Y28648
X347744Y28621
X347744Y37823
X358202Y38091
X358067Y27921
X379234Y14460
X369154Y54441
X369665Y70741
X352195Y70597
X348520Y150000
X337695Y143910
X335695Y182075
X354045Y182075
X363220Y191250
X354045Y200425
X344870Y191250
X335695Y200425
X326520Y191250
X326520Y209600
X344870Y209600
X363220Y209600
X408601Y204370
X418766Y204370
X409147Y180848
X412750Y119380
X399320Y119380
X422345Y97000
X459050Y119380
X469513Y119237
X496868Y89250
X505015Y89250
X513180Y89357
X500430Y63750
X500430Y55748
X500430Y47322
X508984Y47422
X517574Y47422
X517560Y38636
X508970Y38636
X500416Y38536
X526643Y47841
X535430Y47828
X537240Y16872
X556068Y16872
X569930Y14460
X580430Y14460
X565430Y39875
X585680Y57642
X594152Y57534
X603102Y57534
X612009Y57534
X621000Y57434
X631000Y48279
X626465Y127784
X690533Y164505
X690533Y174505
X552047Y180102
X548240Y164963
X524049Y174201
X508277Y169000
X502925Y179000
X560913Y199747
X449351Y18217
X310420Y120650
X739650Y91020
X750650Y91020
X761650Y91020
X772650Y91020
X783650Y91020
X794650Y91020
X771880Y54525
X793615Y176426
X794945Y230418
X764650Y230418
X765000Y280090
X775000Y280000
X785000Y280000
X794945Y280000
X805000Y280000
X815000Y280000
X670500Y254000
X633500Y241110
X625242Y240984
X616000Y240984
X607220Y241110
X491560Y265580
X418831Y262725
X418935Y237325
X418935Y224625
X354045Y218775
X335695Y218775
X289370Y224625
X289370Y237325
X249800Y237158
X249664Y225240
X229153Y225240
X228592Y237160
X234844Y251692
X202872Y253160
X200000Y267927
X200000Y278000
X200000Y288000
X196624Y299955
X207000Y299955
X217453Y299955
X228523Y288688
X165648Y238455
X156935Y238455
X148547Y238455
X148547Y229826
X156935Y229826
X165790Y229826
T02
X53202Y17823
X63202Y17823
X73202Y17823
X83202Y17823
X93202Y17823
X103202Y17823
X113202Y17823
X98202Y27823
X88202Y27823
X118202Y47823
X123202Y57823
X113202Y57823
X113202Y77823
X123202Y77823
X103202Y77823
X108202Y87823
X103202Y97823
X108202Y127823
X108202Y167823
X118202Y167823
X163202Y137823
X173202Y137823
X158202Y127823
X158202Y107823
X168202Y107823
X173202Y97823
X173202Y77823
X173202Y17823
X73202Y77823
X63202Y77823
X53202Y77823
X53202Y57823
X283202Y77823
X278202Y87823
X288202Y87823
X283202Y97823
X253202Y117823
X253202Y137823
X293202Y197823
X303202Y177823
X318202Y147823
X323202Y137823
X313202Y137823
X369154Y154020
X382270Y154020
X378202Y187823
X378202Y207823
X438202Y67823
X523202Y77823
X593202Y157823
X593202Y177823
X593202Y197823
X683202Y37823
X703202Y37823
X708202Y47823
X738202Y47823
X743202Y37823
X753202Y37823
X733202Y37823
X783202Y37823
X793202Y37823
X803202Y37823
X798202Y47823
X808202Y47823
X788202Y47823
X843202Y57823
X853202Y57823
X863202Y57823
X873202Y57823
X883202Y57823
X878202Y67823
X888202Y67823
X898202Y67823
X908202Y67823
X913202Y77823
X903202Y77823
X893202Y77823
X883202Y77823
X873202Y77823
X863202Y77823
X853202Y77823
X843202Y77823
X848202Y87823
X858202Y87823
X868202Y87823
X878202Y87823
X888202Y87823
X898202Y87823
X908202Y87823
X913202Y97823
X903202Y97823
X893202Y97823
X883202Y97823
X873202Y97823
X863202Y97823
X853202Y97823
X843202Y97823
X848202Y107823
X858202Y107823
X868202Y107823
X878202Y107823
X888202Y107823
X898202Y107823
X908202Y107823
X913202Y117823
X903202Y117823
X893202Y117823
X883202Y117823
X873202Y117823
X863202Y117823
X853202Y117823
X843202Y117823
X848202Y127823
X858202Y127823
X868202Y127823
X878202Y127823
X888202Y127823
X898202Y127823
X908202Y127823
X913202Y137823
X903202Y137823
X893202Y137823
X883202Y137823
X873202Y137823
X863202Y137823
X853202Y137823
X843202Y137823
X848202Y147823
X858202Y147823
X868202Y147823
X873202Y157823
X863202Y157823
X853202Y157823
X843202Y157823
X848202Y167823
X858202Y167823
X868202Y167823
X863202Y177823
X853202Y177823
X843202Y177823
X808202Y167823
X778202Y167823
X768202Y167823
X758202Y167823
X763202Y177823
X773202Y177823
X773202Y197823
X783202Y197823
X793202Y197823
X803202Y197823
X763202Y197823
X753202Y197823
X743202Y197823
X733202Y197823
X723202Y197823
X698202Y187823
X698202Y147823
X708202Y147823
X703202Y137823
X698202Y127823
X708202Y127823
X703202Y117823
X698202Y107823
X808202Y107823
X803202Y117823
X848202Y67823
X858202Y67823
X868202Y67823
X868202Y47823
X878202Y47823
X873202Y37823
X868202Y27823
X878202Y27823
X883202Y17823
X893202Y17823
X903202Y17823
X913202Y17823
X913202Y57823
X873202Y17823
X863202Y17823
X853202Y17823
X843202Y17823
X753202Y177823
X748202Y227823
X738202Y227823
X728202Y227823
X718202Y227823
X723202Y237823
X733202Y237823
X743202Y237823
X738202Y247823
X728202Y247823
X718202Y247823
X723202Y257823
X733202Y257823
X728202Y267823
X738202Y267823
X733202Y277823
X723202Y277823
X718202Y267823
X738202Y287823
X743202Y297823
X753202Y297823
X763202Y297823
X773202Y297823
X783202Y297823
X793202Y297823
X803202Y297823
X813202Y297823
X823202Y297823
X818202Y307823
X828202Y307823
X823202Y317823
X813202Y317823
X803202Y317823
X793202Y317823
X783202Y317823
X773202Y317823
X763202Y317823
X753202Y317823
X743202Y317823
X738202Y307823
X748202Y307823
X758202Y307823
X768202Y307823
X778202Y307823
X788202Y307823
X798202Y307823
X808202Y307823
X878202Y307823
X883202Y297823
X878202Y287823
X888202Y287823
X898202Y287823
X908202Y287823
X913202Y277823
X903202Y277823
X893202Y277823
X883202Y277823
X878202Y267823
X888202Y267823
X898202Y267823
X908202Y267823
X913202Y257823
X903202Y257823
X893202Y257823
X883202Y257823
X878202Y247823
X888202Y247823
X898202Y247823
X908202Y247823
X913202Y237823
X903202Y237823
X893202Y237823
X883202Y237823
X803202Y237823
X808202Y227823
X778202Y227823
X783202Y237823
X878202Y327823
X888202Y327823
X893202Y337823
X903202Y337823
X913202Y337823
X883202Y337823
X583202Y337823
X573202Y337823
X563202Y337823
X553202Y337823
X543202Y337823
X533202Y337823
X523202Y337823
X513202Y337823
X503202Y337823
X493202Y337823
X483202Y337823
X473202Y337823
X463202Y337823
X453202Y337823
X458202Y327823
X468202Y327823
X408202Y227823
X398202Y227823
X378202Y227823
X373202Y237823
X363202Y237823
X353202Y237823
X343202Y237823
X333202Y237823
X323202Y237823
X318202Y247823
X328202Y247823
X338202Y247823
X348202Y247823
X358202Y247823
X368202Y247823
X378202Y247823
X388202Y247823
X583202Y237823
X593202Y237823
X73202Y237823
X63202Y237823
X53202Y237823
X58202Y247823
X68202Y247823
X78202Y247823
X73202Y257823
X63202Y257823
X53202Y257823
X58202Y267823
X68202Y267823
X78202Y267823
X83202Y277823
X73202Y277823
X63202Y277823
X53202Y277823
X58202Y287823
X68202Y287823
X78202Y287823
X83202Y297823
X88202Y307823
X93202Y317823
X103202Y317823
X98202Y327823
X88202Y327823
X78202Y327823
X83202Y337823
X93202Y337823
X73202Y337823
X63202Y337823
X53202Y337823
X58202Y227823
X68202Y227823
X78202Y227823
T03
X117000Y242800
X117000Y255500
X117000Y268200
X117000Y280900
X117000Y293600
X117000Y306300
X117000Y319000
X117000Y331700
T04
X707000Y200090
X843000Y200090
X843000Y220090
X843000Y240090
X843000Y260090
X843000Y280090
X843000Y300090
X843000Y320090
X843000Y340090
X707000Y340090
X707000Y320090
X707000Y300090
X707000Y280090
X707000Y260090
X707000Y240090
X707000Y220090
T05
X656831Y114784
X682231Y114784
X638970Y327660
X613570Y327660
X175868Y325957
X150469Y325957
T06
X668215Y57299
X693615Y57299
T07
X55951Y98874
X55951Y195874
M30
