G04*
G04 #@! TF.GenerationSoftware,Altium Limited,Altium Designer,21.0.9 (235)*
G04*
G04 Layer_Color=30967*
%FSLAX44Y44*%
%MOMM*%
G71*
G04*
G04 #@! TF.SameCoordinates,D83CB673-9EFF-4C90-BE85-E941A3A9D43F*
G04*
G04*
G04 #@! TF.FilePolarity,Positive*
G04*
G01*
G75*
%ADD10C,0.2000*%
%ADD11C,0.1270*%
%ADD12C,0.2540*%
%ADD14C,0.1778*%
%ADD15C,0.1500*%
%ADD16C,0.1000*%
%ADD17C,0.1800*%
%ADD18C,0.3500*%
%ADD123C,0.0900*%
%ADD124C,0.0600*%
%ADD127C,0.0500*%
%ADD128C,0.1524*%
%ADD129R,1.1000X0.1750*%
G36*
X546930Y44441D02*
X529930Y44441D01*
X529930Y47441D01*
X546930Y47441D01*
X546930Y44441D01*
X546930Y44441D02*
G37*
G36*
X-39698Y-1519113D02*
X-39504Y-1519113D01*
X-39282Y-1519141D01*
X-38754Y-1519252D01*
X-38172Y-1519391D01*
X-37561Y-1519613D01*
X-36950Y-1519946D01*
X-36645Y-1520140D01*
X-36367Y-1520362D01*
X-36339Y-1520390D01*
X-36311Y-1520418D01*
X-36228Y-1520501D01*
X-36145Y-1520584D01*
X-36006Y-1520723D01*
X-35895Y-1520890D01*
X-35590Y-1521278D01*
X-35284Y-1521778D01*
X-35007Y-1522389D01*
X-34757Y-1523083D01*
X-34590Y-1523860D01*
X-36950Y-1524055D01*
X-36950Y-1524027D01*
X-36978Y-1523999D01*
X-37006Y-1523833D01*
X-37089Y-1523583D01*
X-37200Y-1523277D01*
X-37311Y-1522944D01*
X-37477Y-1522611D01*
X-37672Y-1522306D01*
X-37866Y-1522056D01*
X-37922Y-1522000D01*
X-38033Y-1521889D01*
X-38227Y-1521723D01*
X-38505Y-1521528D01*
X-38866Y-1521362D01*
X-39254Y-1521195D01*
X-39726Y-1521084D01*
X-40226Y-1521028D01*
X-40420Y-1521028D01*
X-40642Y-1521056D01*
X-40892Y-1521112D01*
X-41225Y-1521195D01*
X-41558Y-1521306D01*
X-41892Y-1521445D01*
X-42225Y-1521667D01*
X-42280Y-1521695D01*
X-42419Y-1521806D01*
X-42614Y-1522000D01*
X-42863Y-1522278D01*
X-43141Y-1522611D01*
X-43446Y-1523000D01*
X-43724Y-1523499D01*
X-44002Y-1524055D01*
X-44002Y-1524082D01*
X-44029Y-1524138D01*
X-44057Y-1524221D01*
X-44113Y-1524332D01*
X-44140Y-1524499D01*
X-44196Y-1524693D01*
X-44251Y-1524915D01*
X-44307Y-1525193D01*
X-44390Y-1525498D01*
X-44446Y-1525831D01*
X-44501Y-1526192D01*
X-44529Y-1526581D01*
X-44585Y-1527025D01*
X-44612Y-1527469D01*
X-44640Y-1527969D01*
X-44640Y-1528469D01*
X-44612Y-1528441D01*
X-44501Y-1528274D01*
X-44307Y-1528052D01*
X-44057Y-1527775D01*
X-43780Y-1527442D01*
X-43419Y-1527136D01*
X-43030Y-1526831D01*
X-42586Y-1526553D01*
X-42558Y-1526553D01*
X-42530Y-1526525D01*
X-42364Y-1526442D01*
X-42114Y-1526359D01*
X-41781Y-1526220D01*
X-41392Y-1526109D01*
X-40948Y-1526026D01*
X-40476Y-1525942D01*
X-39976Y-1525915D01*
X-39754Y-1525915D01*
X-39587Y-1525942D01*
X-39365Y-1525970D01*
X-39143Y-1525998D01*
X-38866Y-1526053D01*
X-38588Y-1526137D01*
X-37949Y-1526331D01*
X-37616Y-1526470D01*
X-37283Y-1526664D01*
X-36950Y-1526859D01*
X-36589Y-1527081D01*
X-36256Y-1527358D01*
X-35951Y-1527664D01*
X-35923Y-1527691D01*
X-35867Y-1527747D01*
X-35784Y-1527830D01*
X-35701Y-1527969D01*
X-35562Y-1528163D01*
X-35423Y-1528358D01*
X-35284Y-1528608D01*
X-35118Y-1528885D01*
X-34951Y-1529191D01*
X-34812Y-1529524D01*
X-34674Y-1529912D01*
X-34535Y-1530301D01*
X-34451Y-1530717D01*
X-34368Y-1531190D01*
X-34313Y-1531661D01*
X-34285Y-1532161D01*
X-34285Y-1532189D01*
X-34285Y-1532244D01*
X-34285Y-1532328D01*
X-34285Y-1532466D01*
X-34313Y-1532633D01*
X-34313Y-1532800D01*
X-34396Y-1533244D01*
X-34479Y-1533771D01*
X-34618Y-1534327D01*
X-34812Y-1534937D01*
X-35090Y-1535520D01*
X-35090Y-1535548D01*
X-35118Y-1535576D01*
X-35173Y-1535659D01*
X-35229Y-1535770D01*
X-35395Y-1536048D01*
X-35645Y-1536409D01*
X-35951Y-1536797D01*
X-36311Y-1537186D01*
X-36756Y-1537575D01*
X-37228Y-1537908D01*
X-37255Y-1537908D01*
X-37283Y-1537936D01*
X-37366Y-1537991D01*
X-37477Y-1538019D01*
X-37755Y-1538158D01*
X-38116Y-1538297D01*
X-38588Y-1538463D01*
X-39115Y-1538574D01*
X-39698Y-1538685D01*
X-40337Y-1538713D01*
X-40476Y-1538713D01*
X-40615Y-1538685D01*
X-40837Y-1538685D01*
X-41087Y-1538658D01*
X-41364Y-1538602D01*
X-41697Y-1538519D01*
X-42030Y-1538435D01*
X-42419Y-1538324D01*
X-42808Y-1538185D01*
X-43197Y-1538019D01*
X-43613Y-1537797D01*
X-44002Y-1537547D01*
X-44390Y-1537269D01*
X-44779Y-1536936D01*
X-45140Y-1536548D01*
X-45168Y-1536520D01*
X-45223Y-1536436D01*
X-45306Y-1536326D01*
X-45417Y-1536131D01*
X-45584Y-1535881D01*
X-45723Y-1535604D01*
X-45889Y-1535243D01*
X-46056Y-1534854D01*
X-46250Y-1534382D01*
X-46417Y-1533855D01*
X-46556Y-1533272D01*
X-46694Y-1532633D01*
X-46833Y-1531911D01*
X-46917Y-1531134D01*
X-46972Y-1530301D01*
X-47000Y-1529413D01*
X-47000Y-1529385D01*
X-47000Y-1529357D01*
X-47000Y-1529274D01*
X-47000Y-1529163D01*
X-46972Y-1528885D01*
X-46972Y-1528497D01*
X-46944Y-1528052D01*
X-46889Y-1527525D01*
X-46833Y-1526942D01*
X-46750Y-1526303D01*
X-46639Y-1525665D01*
X-46500Y-1524971D01*
X-46334Y-1524304D01*
X-46139Y-1523638D01*
X-45889Y-1523000D01*
X-45612Y-1522389D01*
X-45306Y-1521806D01*
X-44946Y-1521306D01*
X-44918Y-1521278D01*
X-44862Y-1521223D01*
X-44751Y-1521112D01*
X-44612Y-1520945D01*
X-44446Y-1520779D01*
X-44224Y-1520612D01*
X-43946Y-1520390D01*
X-43668Y-1520196D01*
X-43335Y-1520001D01*
X-42974Y-1519779D01*
X-42558Y-1519613D01*
X-42141Y-1519418D01*
X-41670Y-1519279D01*
X-41170Y-1519168D01*
X-40642Y-1519113D01*
X-40087Y-1519085D01*
X-39865Y-1519085D01*
X-39698Y-1519113D01*
X-39698Y-1519113D02*
G37*
G36*
X494030Y-1518863D02*
X494280Y-1518891D01*
X494585Y-1518918D01*
X494891Y-1518946D01*
X495251Y-1519030D01*
X496001Y-1519196D01*
X496834Y-1519446D01*
X497250Y-1519612D01*
X497639Y-1519807D01*
X498028Y-1520057D01*
X498416Y-1520307D01*
X498444Y-1520334D01*
X498500Y-1520362D01*
X498611Y-1520445D01*
X498749Y-1520584D01*
X498888Y-1520723D01*
X499083Y-1520917D01*
X499277Y-1521140D01*
X499499Y-1521362D01*
X499721Y-1521639D01*
X499943Y-1521972D01*
X500193Y-1522305D01*
X500415Y-1522666D01*
X500610Y-1523083D01*
X500832Y-1523499D01*
X500998Y-1523943D01*
X501165Y-1524443D01*
X498666Y-1525026D01*
X498666Y-1524998D01*
X498638Y-1524943D01*
X498583Y-1524832D01*
X498527Y-1524693D01*
X498472Y-1524526D01*
X498388Y-1524304D01*
X498166Y-1523860D01*
X497889Y-1523360D01*
X497556Y-1522861D01*
X497139Y-1522389D01*
X496695Y-1521972D01*
X496640Y-1521917D01*
X496473Y-1521806D01*
X496195Y-1521667D01*
X495834Y-1521473D01*
X495363Y-1521306D01*
X494835Y-1521140D01*
X494196Y-1521028D01*
X493502Y-1521001D01*
X493280Y-1521001D01*
X493142Y-1521028D01*
X492947Y-1521028D01*
X492725Y-1521056D01*
X492198Y-1521140D01*
X491615Y-1521250D01*
X491004Y-1521445D01*
X490365Y-1521723D01*
X489782Y-1522083D01*
X489754Y-1522083D01*
X489727Y-1522139D01*
X489532Y-1522278D01*
X489282Y-1522500D01*
X488977Y-1522833D01*
X488616Y-1523249D01*
X488283Y-1523721D01*
X487978Y-1524304D01*
X487700Y-1524943D01*
X487700Y-1524971D01*
X487672Y-1525026D01*
X487645Y-1525109D01*
X487617Y-1525248D01*
X487561Y-1525415D01*
X487506Y-1525609D01*
X487422Y-1526081D01*
X487311Y-1526636D01*
X487200Y-1527247D01*
X487145Y-1527913D01*
X487117Y-1528635D01*
X487117Y-1528663D01*
X487117Y-1528746D01*
X487117Y-1528885D01*
X487117Y-1529052D01*
X487145Y-1529246D01*
X487145Y-1529496D01*
X487173Y-1529774D01*
X487200Y-1530079D01*
X487284Y-1530745D01*
X487422Y-1531467D01*
X487589Y-1532189D01*
X487811Y-1532911D01*
X487811Y-1532938D01*
X487839Y-1532994D01*
X487894Y-1533077D01*
X487950Y-1533216D01*
X488116Y-1533549D01*
X488366Y-1533938D01*
X488672Y-1534382D01*
X489060Y-1534854D01*
X489505Y-1535270D01*
X490032Y-1535659D01*
X490060Y-1535659D01*
X490115Y-1535687D01*
X490199Y-1535742D01*
X490310Y-1535798D01*
X490448Y-1535853D01*
X490615Y-1535937D01*
X491004Y-1536103D01*
X491503Y-1536270D01*
X492059Y-1536409D01*
X492669Y-1536520D01*
X493308Y-1536548D01*
X493502Y-1536548D01*
X493669Y-1536520D01*
X493863Y-1536520D01*
X494058Y-1536492D01*
X494557Y-1536381D01*
X495140Y-1536242D01*
X495723Y-1536020D01*
X496334Y-1535715D01*
X496640Y-1535548D01*
X496917Y-1535326D01*
X496945Y-1535298D01*
X496973Y-1535270D01*
X497056Y-1535187D01*
X497167Y-1535104D01*
X497278Y-1534965D01*
X497417Y-1534798D01*
X497583Y-1534632D01*
X497722Y-1534410D01*
X497889Y-1534160D01*
X498083Y-1533882D01*
X498250Y-1533605D01*
X498416Y-1533271D01*
X498555Y-1532911D01*
X498694Y-1532522D01*
X498833Y-1532106D01*
X498944Y-1531661D01*
X501498Y-1532300D01*
X501498Y-1532328D01*
X501470Y-1532439D01*
X501415Y-1532605D01*
X501331Y-1532827D01*
X501248Y-1533077D01*
X501137Y-1533383D01*
X500998Y-1533716D01*
X500832Y-1534077D01*
X500443Y-1534854D01*
X499943Y-1535631D01*
X499638Y-1536020D01*
X499333Y-1536409D01*
X498999Y-1536742D01*
X498611Y-1537075D01*
X498583Y-1537103D01*
X498527Y-1537158D01*
X498388Y-1537214D01*
X498250Y-1537325D01*
X498028Y-1537464D01*
X497805Y-1537602D01*
X497500Y-1537741D01*
X497195Y-1537880D01*
X496834Y-1538047D01*
X496445Y-1538185D01*
X496029Y-1538324D01*
X495585Y-1538463D01*
X495113Y-1538574D01*
X494613Y-1538630D01*
X494085Y-1538685D01*
X493530Y-1538713D01*
X493225Y-1538713D01*
X493003Y-1538685D01*
X492753Y-1538685D01*
X492447Y-1538657D01*
X492114Y-1538602D01*
X491726Y-1538546D01*
X490920Y-1538407D01*
X490088Y-1538185D01*
X489255Y-1537880D01*
X488866Y-1537686D01*
X488477Y-1537464D01*
X488450Y-1537436D01*
X488394Y-1537408D01*
X488283Y-1537325D01*
X488172Y-1537214D01*
X488005Y-1537103D01*
X487811Y-1536936D01*
X487589Y-1536742D01*
X487367Y-1536520D01*
X487145Y-1536270D01*
X486895Y-1536020D01*
X486395Y-1535381D01*
X485923Y-1534632D01*
X485507Y-1533799D01*
X485507Y-1533771D01*
X485451Y-1533688D01*
X485424Y-1533549D01*
X485340Y-1533383D01*
X485285Y-1533161D01*
X485201Y-1532883D01*
X485090Y-1532578D01*
X485007Y-1532244D01*
X484924Y-1531883D01*
X484813Y-1531467D01*
X484674Y-1530606D01*
X484563Y-1529635D01*
X484507Y-1528635D01*
X484507Y-1528607D01*
X484507Y-1528496D01*
X484507Y-1528330D01*
X484535Y-1528136D01*
X484535Y-1527858D01*
X484563Y-1527580D01*
X484591Y-1527219D01*
X484646Y-1526859D01*
X484785Y-1526053D01*
X484979Y-1525165D01*
X485257Y-1524277D01*
X485646Y-1523416D01*
X485673Y-1523388D01*
X485701Y-1523305D01*
X485757Y-1523194D01*
X485868Y-1523055D01*
X485979Y-1522861D01*
X486118Y-1522639D01*
X486479Y-1522139D01*
X486950Y-1521584D01*
X487506Y-1521028D01*
X488144Y-1520473D01*
X488894Y-1520001D01*
X488922Y-1519973D01*
X489005Y-1519946D01*
X489116Y-1519890D01*
X489255Y-1519807D01*
X489477Y-1519724D01*
X489699Y-1519640D01*
X489977Y-1519529D01*
X490282Y-1519418D01*
X490615Y-1519307D01*
X490976Y-1519196D01*
X491753Y-1519030D01*
X492642Y-1518891D01*
X493558Y-1518835D01*
X493835Y-1518835D01*
X494030Y-1518863D01*
X494030Y-1518863D02*
G37*
G36*
X331454Y-1518863D02*
X331704Y-1518891D01*
X332010Y-1518918D01*
X332315Y-1518946D01*
X332676Y-1519030D01*
X333425Y-1519196D01*
X334258Y-1519446D01*
X334675Y-1519613D01*
X335064Y-1519807D01*
X335452Y-1520057D01*
X335841Y-1520307D01*
X335869Y-1520334D01*
X335924Y-1520362D01*
X336035Y-1520445D01*
X336174Y-1520584D01*
X336313Y-1520723D01*
X336507Y-1520917D01*
X336702Y-1521140D01*
X336924Y-1521362D01*
X337146Y-1521639D01*
X337368Y-1521972D01*
X337618Y-1522305D01*
X337840Y-1522666D01*
X338034Y-1523083D01*
X338256Y-1523499D01*
X338423Y-1523943D01*
X338589Y-1524443D01*
X336091Y-1525026D01*
X336091Y-1524998D01*
X336063Y-1524943D01*
X336007Y-1524832D01*
X335952Y-1524693D01*
X335896Y-1524527D01*
X335813Y-1524304D01*
X335591Y-1523860D01*
X335313Y-1523360D01*
X334980Y-1522861D01*
X334564Y-1522389D01*
X334120Y-1521972D01*
X334064Y-1521917D01*
X333898Y-1521806D01*
X333620Y-1521667D01*
X333259Y-1521473D01*
X332787Y-1521306D01*
X332259Y-1521140D01*
X331621Y-1521028D01*
X330927Y-1521001D01*
X330705Y-1521001D01*
X330566Y-1521028D01*
X330372Y-1521028D01*
X330150Y-1521056D01*
X329622Y-1521140D01*
X329039Y-1521250D01*
X328428Y-1521445D01*
X327790Y-1521723D01*
X327207Y-1522083D01*
X327179Y-1522083D01*
X327151Y-1522139D01*
X326957Y-1522278D01*
X326707Y-1522500D01*
X326402Y-1522833D01*
X326041Y-1523249D01*
X325708Y-1523721D01*
X325402Y-1524304D01*
X325125Y-1524943D01*
X325125Y-1524971D01*
X325097Y-1525026D01*
X325069Y-1525110D01*
X325041Y-1525248D01*
X324986Y-1525415D01*
X324930Y-1525609D01*
X324847Y-1526081D01*
X324736Y-1526636D01*
X324625Y-1527247D01*
X324569Y-1527914D01*
X324542Y-1528635D01*
X324542Y-1528663D01*
X324542Y-1528746D01*
X324542Y-1528885D01*
X324542Y-1529052D01*
X324569Y-1529246D01*
X324569Y-1529496D01*
X324597Y-1529774D01*
X324625Y-1530079D01*
X324708Y-1530745D01*
X324847Y-1531467D01*
X325014Y-1532189D01*
X325236Y-1532911D01*
X325236Y-1532938D01*
X325263Y-1532994D01*
X325319Y-1533077D01*
X325374Y-1533216D01*
X325541Y-1533549D01*
X325791Y-1533938D01*
X326096Y-1534382D01*
X326485Y-1534854D01*
X326929Y-1535270D01*
X327457Y-1535659D01*
X327484Y-1535659D01*
X327540Y-1535687D01*
X327623Y-1535742D01*
X327734Y-1535798D01*
X327873Y-1535853D01*
X328040Y-1535937D01*
X328428Y-1536103D01*
X328928Y-1536270D01*
X329483Y-1536409D01*
X330094Y-1536520D01*
X330733Y-1536548D01*
X330927Y-1536548D01*
X331093Y-1536520D01*
X331288Y-1536520D01*
X331482Y-1536492D01*
X331982Y-1536381D01*
X332565Y-1536242D01*
X333148Y-1536020D01*
X333759Y-1535715D01*
X334064Y-1535548D01*
X334342Y-1535326D01*
X334370Y-1535298D01*
X334397Y-1535270D01*
X334481Y-1535187D01*
X334592Y-1535104D01*
X334703Y-1534965D01*
X334841Y-1534798D01*
X335008Y-1534632D01*
X335147Y-1534410D01*
X335313Y-1534160D01*
X335508Y-1533882D01*
X335674Y-1533605D01*
X335841Y-1533272D01*
X335980Y-1532911D01*
X336119Y-1532522D01*
X336257Y-1532106D01*
X336368Y-1531661D01*
X338923Y-1532300D01*
X338923Y-1532328D01*
X338895Y-1532439D01*
X338839Y-1532605D01*
X338756Y-1532827D01*
X338673Y-1533077D01*
X338562Y-1533383D01*
X338423Y-1533716D01*
X338256Y-1534077D01*
X337868Y-1534854D01*
X337368Y-1535631D01*
X337062Y-1536020D01*
X336757Y-1536409D01*
X336424Y-1536742D01*
X336035Y-1537075D01*
X336007Y-1537103D01*
X335952Y-1537158D01*
X335813Y-1537214D01*
X335674Y-1537325D01*
X335452Y-1537464D01*
X335230Y-1537603D01*
X334925Y-1537741D01*
X334619Y-1537880D01*
X334258Y-1538047D01*
X333870Y-1538185D01*
X333453Y-1538324D01*
X333009Y-1538463D01*
X332537Y-1538574D01*
X332037Y-1538630D01*
X331510Y-1538685D01*
X330955Y-1538713D01*
X330649Y-1538713D01*
X330427Y-1538685D01*
X330177Y-1538685D01*
X329872Y-1538657D01*
X329539Y-1538602D01*
X329150Y-1538546D01*
X328345Y-1538408D01*
X327512Y-1538185D01*
X326679Y-1537880D01*
X326291Y-1537686D01*
X325902Y-1537464D01*
X325874Y-1537436D01*
X325819Y-1537408D01*
X325708Y-1537325D01*
X325597Y-1537214D01*
X325430Y-1537103D01*
X325236Y-1536936D01*
X325014Y-1536742D01*
X324791Y-1536520D01*
X324569Y-1536270D01*
X324319Y-1536020D01*
X323820Y-1535381D01*
X323348Y-1534632D01*
X322931Y-1533799D01*
X322931Y-1533771D01*
X322876Y-1533688D01*
X322848Y-1533549D01*
X322765Y-1533383D01*
X322709Y-1533161D01*
X322626Y-1532883D01*
X322515Y-1532578D01*
X322432Y-1532244D01*
X322348Y-1531883D01*
X322237Y-1531467D01*
X322099Y-1530606D01*
X321987Y-1529635D01*
X321932Y-1528635D01*
X321932Y-1528607D01*
X321932Y-1528497D01*
X321932Y-1528330D01*
X321960Y-1528136D01*
X321960Y-1527858D01*
X321987Y-1527580D01*
X322015Y-1527219D01*
X322071Y-1526859D01*
X322210Y-1526053D01*
X322404Y-1525165D01*
X322682Y-1524277D01*
X323070Y-1523416D01*
X323098Y-1523388D01*
X323126Y-1523305D01*
X323181Y-1523194D01*
X323292Y-1523055D01*
X323403Y-1522861D01*
X323542Y-1522639D01*
X323903Y-1522139D01*
X324375Y-1521584D01*
X324930Y-1521028D01*
X325569Y-1520473D01*
X326318Y-1520001D01*
X326346Y-1519973D01*
X326429Y-1519946D01*
X326540Y-1519890D01*
X326679Y-1519807D01*
X326901Y-1519724D01*
X327123Y-1519640D01*
X327401Y-1519529D01*
X327706Y-1519418D01*
X328040Y-1519307D01*
X328401Y-1519196D01*
X329178Y-1519030D01*
X330066Y-1518891D01*
X330983Y-1518835D01*
X331260Y-1518835D01*
X331454Y-1518863D01*
X331454Y-1518863D02*
G37*
G36*
X43477Y-1518863D02*
X43727Y-1518891D01*
X44032Y-1518919D01*
X44338Y-1518946D01*
X44699Y-1519030D01*
X45448Y-1519196D01*
X46281Y-1519446D01*
X46698Y-1519613D01*
X47086Y-1519807D01*
X47475Y-1520057D01*
X47864Y-1520307D01*
X47891Y-1520334D01*
X47947Y-1520362D01*
X48058Y-1520446D01*
X48197Y-1520584D01*
X48335Y-1520723D01*
X48530Y-1520917D01*
X48724Y-1521140D01*
X48946Y-1521362D01*
X49168Y-1521639D01*
X49391Y-1521972D01*
X49640Y-1522305D01*
X49862Y-1522666D01*
X50057Y-1523083D01*
X50279Y-1523499D01*
X50445Y-1523943D01*
X50612Y-1524443D01*
X48113Y-1525026D01*
X48113Y-1524998D01*
X48086Y-1524943D01*
X48030Y-1524832D01*
X47975Y-1524693D01*
X47919Y-1524527D01*
X47836Y-1524304D01*
X47614Y-1523860D01*
X47336Y-1523360D01*
X47003Y-1522861D01*
X46586Y-1522389D01*
X46142Y-1521972D01*
X46087Y-1521917D01*
X45920Y-1521806D01*
X45643Y-1521667D01*
X45282Y-1521473D01*
X44810Y-1521306D01*
X44282Y-1521140D01*
X43644Y-1521028D01*
X42950Y-1521001D01*
X42727Y-1521001D01*
X42589Y-1521028D01*
X42394Y-1521028D01*
X42172Y-1521056D01*
X41645Y-1521140D01*
X41062Y-1521251D01*
X40451Y-1521445D01*
X39813Y-1521723D01*
X39230Y-1522083D01*
X39202Y-1522083D01*
X39174Y-1522139D01*
X38980Y-1522278D01*
X38730Y-1522500D01*
X38424Y-1522833D01*
X38063Y-1523250D01*
X37730Y-1523721D01*
X37425Y-1524304D01*
X37147Y-1524943D01*
X37147Y-1524971D01*
X37120Y-1525026D01*
X37092Y-1525110D01*
X37064Y-1525248D01*
X37009Y-1525415D01*
X36953Y-1525609D01*
X36870Y-1526081D01*
X36759Y-1526636D01*
X36648Y-1527247D01*
X36592Y-1527914D01*
X36564Y-1528635D01*
X36564Y-1528663D01*
X36564Y-1528746D01*
X36564Y-1528885D01*
X36564Y-1529052D01*
X36592Y-1529246D01*
X36592Y-1529496D01*
X36620Y-1529774D01*
X36648Y-1530079D01*
X36731Y-1530745D01*
X36870Y-1531467D01*
X37036Y-1532189D01*
X37258Y-1532911D01*
X37258Y-1532939D01*
X37286Y-1532994D01*
X37342Y-1533077D01*
X37397Y-1533216D01*
X37564Y-1533549D01*
X37814Y-1533938D01*
X38119Y-1534382D01*
X38508Y-1534854D01*
X38952Y-1535271D01*
X39479Y-1535659D01*
X39507Y-1535659D01*
X39563Y-1535687D01*
X39646Y-1535742D01*
X39757Y-1535798D01*
X39896Y-1535853D01*
X40062Y-1535937D01*
X40451Y-1536103D01*
X40951Y-1536270D01*
X41506Y-1536409D01*
X42117Y-1536520D01*
X42755Y-1536548D01*
X42950Y-1536548D01*
X43116Y-1536520D01*
X43311Y-1536520D01*
X43505Y-1536492D01*
X44005Y-1536381D01*
X44588Y-1536242D01*
X45171Y-1536020D01*
X45781Y-1535715D01*
X46087Y-1535548D01*
X46364Y-1535326D01*
X46392Y-1535298D01*
X46420Y-1535271D01*
X46503Y-1535187D01*
X46614Y-1535104D01*
X46725Y-1534965D01*
X46864Y-1534798D01*
X47031Y-1534632D01*
X47169Y-1534410D01*
X47336Y-1534160D01*
X47530Y-1533882D01*
X47697Y-1533605D01*
X47864Y-1533272D01*
X48002Y-1532911D01*
X48141Y-1532522D01*
X48280Y-1532106D01*
X48391Y-1531661D01*
X50945Y-1532300D01*
X50945Y-1532328D01*
X50917Y-1532439D01*
X50862Y-1532605D01*
X50779Y-1532827D01*
X50695Y-1533077D01*
X50584Y-1533383D01*
X50445Y-1533716D01*
X50279Y-1534077D01*
X49890Y-1534854D01*
X49391Y-1535631D01*
X49085Y-1536020D01*
X48780Y-1536409D01*
X48447Y-1536742D01*
X48058Y-1537075D01*
X48030Y-1537103D01*
X47975Y-1537158D01*
X47836Y-1537214D01*
X47697Y-1537325D01*
X47475Y-1537464D01*
X47253Y-1537603D01*
X46947Y-1537741D01*
X46642Y-1537880D01*
X46281Y-1538047D01*
X45892Y-1538185D01*
X45476Y-1538324D01*
X45032Y-1538463D01*
X44560Y-1538574D01*
X44060Y-1538630D01*
X43533Y-1538685D01*
X42977Y-1538713D01*
X42672Y-1538713D01*
X42450Y-1538685D01*
X42200Y-1538685D01*
X41895Y-1538658D01*
X41561Y-1538602D01*
X41173Y-1538546D01*
X40368Y-1538408D01*
X39535Y-1538185D01*
X38702Y-1537880D01*
X38313Y-1537686D01*
X37925Y-1537464D01*
X37897Y-1537436D01*
X37841Y-1537408D01*
X37730Y-1537325D01*
X37619Y-1537214D01*
X37453Y-1537103D01*
X37258Y-1536936D01*
X37036Y-1536742D01*
X36814Y-1536520D01*
X36592Y-1536270D01*
X36342Y-1536020D01*
X35842Y-1535381D01*
X35371Y-1534632D01*
X34954Y-1533799D01*
X34954Y-1533771D01*
X34899Y-1533688D01*
X34871Y-1533549D01*
X34788Y-1533383D01*
X34732Y-1533161D01*
X34649Y-1532883D01*
X34538Y-1532578D01*
X34454Y-1532244D01*
X34371Y-1531884D01*
X34260Y-1531467D01*
X34121Y-1530606D01*
X34010Y-1529635D01*
X33955Y-1528635D01*
X33955Y-1528608D01*
X33955Y-1528497D01*
X33955Y-1528330D01*
X33983Y-1528136D01*
X33983Y-1527858D01*
X34010Y-1527580D01*
X34038Y-1527220D01*
X34093Y-1526859D01*
X34232Y-1526053D01*
X34427Y-1525165D01*
X34704Y-1524277D01*
X35093Y-1523416D01*
X35121Y-1523388D01*
X35148Y-1523305D01*
X35204Y-1523194D01*
X35315Y-1523055D01*
X35426Y-1522861D01*
X35565Y-1522639D01*
X35926Y-1522139D01*
X36398Y-1521584D01*
X36953Y-1521028D01*
X37592Y-1520473D01*
X38341Y-1520001D01*
X38369Y-1519973D01*
X38452Y-1519946D01*
X38563Y-1519890D01*
X38702Y-1519807D01*
X38924Y-1519724D01*
X39146Y-1519640D01*
X39424Y-1519529D01*
X39729Y-1519418D01*
X40062Y-1519307D01*
X40423Y-1519196D01*
X41201Y-1519030D01*
X42089Y-1518891D01*
X43005Y-1518835D01*
X43283Y-1518835D01*
X43477Y-1518863D01*
X43477Y-1518863D02*
G37*
G36*
X257246Y-1538380D02*
X254692Y-1538380D01*
X254692Y-1529329D01*
X244753Y-1529329D01*
X244753Y-1538380D01*
X242199Y-1538380D01*
X242199Y-1519168D01*
X244753Y-1519168D01*
X244753Y-1527053D01*
X254692Y-1527053D01*
X254692Y-1519168D01*
X257246Y-1519168D01*
X257246Y-1538380D01*
X257246Y-1538380D02*
G37*
G36*
X454136Y-1538380D02*
X451498Y-1538380D01*
X441448Y-1523305D01*
X441448Y-1538380D01*
X439005Y-1538380D01*
X439005Y-1519168D01*
X441615Y-1519168D01*
X451693Y-1534271D01*
X451693Y-1519168D01*
X454136Y-1519168D01*
X454136Y-1538380D01*
X454136Y-1538380D02*
G37*
G36*
X419822Y-1538380D02*
X417184Y-1538380D01*
X407134Y-1523305D01*
X407134Y-1538380D01*
X404691Y-1538380D01*
X404691Y-1519168D01*
X407301Y-1519168D01*
X417378Y-1534271D01*
X417378Y-1519168D01*
X419822Y-1519168D01*
X419822Y-1538380D01*
X419822Y-1538380D02*
G37*
G36*
X213965Y-1538380D02*
X211327Y-1538380D01*
X201278Y-1523305D01*
X201278Y-1538380D01*
X198834Y-1538380D01*
X198834Y-1519168D01*
X201444Y-1519168D01*
X211522Y-1534271D01*
X211522Y-1519168D01*
X213965Y-1519168D01*
X213965Y-1538380D01*
X213965Y-1538380D02*
G37*
G36*
X579288Y-1538380D02*
X576595Y-1538380D01*
X576595Y-1535687D01*
X579288Y-1535687D01*
X579288Y-1538380D01*
X579288Y-1538380D02*
G37*
G36*
X564740Y-1519196D02*
X565295Y-1519224D01*
X565851Y-1519279D01*
X566406Y-1519363D01*
X566878Y-1519446D01*
X566906Y-1519446D01*
X566961Y-1519474D01*
X567044Y-1519474D01*
X567155Y-1519529D01*
X567461Y-1519612D01*
X567850Y-1519751D01*
X568294Y-1519946D01*
X568766Y-1520195D01*
X569238Y-1520473D01*
X569682Y-1520834D01*
X569710Y-1520862D01*
X569737Y-1520890D01*
X569821Y-1520973D01*
X569932Y-1521056D01*
X570209Y-1521334D01*
X570542Y-1521723D01*
X570903Y-1522194D01*
X571292Y-1522750D01*
X571653Y-1523388D01*
X571958Y-1524110D01*
X571958Y-1524138D01*
X571986Y-1524193D01*
X572042Y-1524304D01*
X572069Y-1524471D01*
X572153Y-1524665D01*
X572208Y-1524887D01*
X572264Y-1525137D01*
X572347Y-1525443D01*
X572430Y-1525748D01*
X572486Y-1526109D01*
X572625Y-1526886D01*
X572708Y-1527747D01*
X572736Y-1528691D01*
X572736Y-1528719D01*
X572736Y-1528774D01*
X572736Y-1528913D01*
X572736Y-1529052D01*
X572708Y-1529246D01*
X572708Y-1529468D01*
X572680Y-1529996D01*
X572597Y-1530606D01*
X572514Y-1531245D01*
X572375Y-1531911D01*
X572208Y-1532578D01*
X572208Y-1532605D01*
X572180Y-1532661D01*
X572153Y-1532744D01*
X572125Y-1532855D01*
X572014Y-1533161D01*
X571847Y-1533549D01*
X571681Y-1533993D01*
X571459Y-1534438D01*
X571181Y-1534910D01*
X570903Y-1535354D01*
X570876Y-1535409D01*
X570765Y-1535548D01*
X570598Y-1535742D01*
X570376Y-1535992D01*
X570126Y-1536270D01*
X569821Y-1536548D01*
X569515Y-1536853D01*
X569154Y-1537103D01*
X569099Y-1537130D01*
X568988Y-1537214D01*
X568793Y-1537325D01*
X568516Y-1537464D01*
X568183Y-1537630D01*
X567794Y-1537769D01*
X567350Y-1537936D01*
X566850Y-1538074D01*
X566795Y-1538074D01*
X566711Y-1538102D01*
X566628Y-1538130D01*
X566350Y-1538158D01*
X565962Y-1538213D01*
X565518Y-1538269D01*
X564990Y-1538324D01*
X564407Y-1538352D01*
X563769Y-1538380D01*
X556856Y-1538380D01*
X556856Y-1519168D01*
X564240Y-1519168D01*
X564740Y-1519196D01*
X564740Y-1519196D02*
G37*
G36*
X552886Y-1521445D02*
X541531Y-1521445D01*
X541531Y-1527303D01*
X552164Y-1527303D01*
X552164Y-1529579D01*
X541531Y-1529579D01*
X541531Y-1536103D01*
X553330Y-1536103D01*
X553330Y-1538380D01*
X538977Y-1538380D01*
X538977Y-1519168D01*
X552886Y-1519168D01*
X552886Y-1521445D01*
X552886Y-1521445D02*
G37*
G36*
X536312Y-1521445D02*
X529982Y-1521445D01*
X529982Y-1538380D01*
X527428Y-1538380D01*
X527428Y-1521445D01*
X521098Y-1521445D01*
X521098Y-1519168D01*
X536312Y-1519168D01*
X536312Y-1521445D01*
X536312Y-1521445D02*
G37*
G36*
X520487Y-1538380D02*
X517600Y-1538380D01*
X515351Y-1532550D01*
X507300Y-1532550D01*
X505218Y-1538380D01*
X502525Y-1538380D01*
X509854Y-1519168D01*
X512631Y-1519168D01*
X520487Y-1538380D01*
X520487Y-1538380D02*
G37*
G36*
X480760Y-1538380D02*
X478205Y-1538380D01*
X478205Y-1519168D01*
X480760Y-1519168D01*
X480760Y-1538380D01*
X480760Y-1538380D02*
G37*
G36*
X466295Y-1519196D02*
X466851Y-1519224D01*
X467406Y-1519279D01*
X467961Y-1519363D01*
X468433Y-1519446D01*
X468461Y-1519446D01*
X468516Y-1519474D01*
X468600Y-1519474D01*
X468711Y-1519529D01*
X469016Y-1519612D01*
X469405Y-1519751D01*
X469849Y-1519946D01*
X470321Y-1520195D01*
X470793Y-1520473D01*
X471237Y-1520834D01*
X471265Y-1520862D01*
X471293Y-1520890D01*
X471376Y-1520973D01*
X471487Y-1521056D01*
X471765Y-1521334D01*
X472098Y-1521723D01*
X472459Y-1522194D01*
X472847Y-1522750D01*
X473208Y-1523388D01*
X473514Y-1524110D01*
X473514Y-1524138D01*
X473541Y-1524193D01*
X473597Y-1524304D01*
X473625Y-1524471D01*
X473708Y-1524665D01*
X473764Y-1524887D01*
X473819Y-1525137D01*
X473902Y-1525443D01*
X473986Y-1525748D01*
X474041Y-1526109D01*
X474180Y-1526886D01*
X474263Y-1527747D01*
X474291Y-1528691D01*
X474291Y-1528719D01*
X474291Y-1528774D01*
X474291Y-1528913D01*
X474291Y-1529052D01*
X474263Y-1529246D01*
X474263Y-1529468D01*
X474235Y-1529996D01*
X474152Y-1530606D01*
X474069Y-1531245D01*
X473930Y-1531911D01*
X473764Y-1532578D01*
X473764Y-1532605D01*
X473736Y-1532661D01*
X473708Y-1532744D01*
X473680Y-1532855D01*
X473569Y-1533161D01*
X473403Y-1533549D01*
X473236Y-1533993D01*
X473014Y-1534438D01*
X472736Y-1534910D01*
X472459Y-1535354D01*
X472431Y-1535409D01*
X472320Y-1535548D01*
X472153Y-1535742D01*
X471931Y-1535992D01*
X471681Y-1536270D01*
X471376Y-1536548D01*
X471071Y-1536853D01*
X470710Y-1537103D01*
X470654Y-1537130D01*
X470543Y-1537214D01*
X470349Y-1537325D01*
X470071Y-1537464D01*
X469738Y-1537630D01*
X469349Y-1537769D01*
X468905Y-1537936D01*
X468405Y-1538074D01*
X468350Y-1538074D01*
X468267Y-1538102D01*
X468183Y-1538130D01*
X467906Y-1538158D01*
X467517Y-1538213D01*
X467073Y-1538269D01*
X466545Y-1538324D01*
X465962Y-1538352D01*
X465324Y-1538380D01*
X458411Y-1538380D01*
X458411Y-1519168D01*
X465796Y-1519168D01*
X466295Y-1519196D01*
X466295Y-1519196D02*
G37*
G36*
X434535Y-1538380D02*
X431981Y-1538380D01*
X431981Y-1519168D01*
X434535Y-1519168D01*
X434535Y-1538380D01*
X434535Y-1538380D02*
G37*
G36*
X379344Y-1538380D02*
X376790Y-1538380D01*
X376790Y-1519168D01*
X379344Y-1519168D01*
X379344Y-1538380D01*
X379344Y-1538380D02*
G37*
G36*
X373736Y-1521445D02*
X367407Y-1521445D01*
X367407Y-1538380D01*
X364852Y-1538380D01*
X364852Y-1521445D01*
X358523Y-1521445D01*
X358523Y-1519168D01*
X373736Y-1519168D01*
X373736Y-1521445D01*
X373736Y-1521445D02*
G37*
G36*
X357912Y-1538380D02*
X355024Y-1538380D01*
X352776Y-1532550D01*
X344725Y-1532550D01*
X342643Y-1538380D01*
X339950Y-1538380D01*
X347279Y-1519168D01*
X350055Y-1519168D01*
X357912Y-1538380D01*
X357912Y-1538380D02*
G37*
G36*
X289311Y-1536103D02*
X298778Y-1536103D01*
X298778Y-1538380D01*
X286757Y-1538380D01*
X286757Y-1519168D01*
X289311Y-1519168D01*
X289311Y-1536103D01*
X289311Y-1536103D02*
G37*
G36*
X275430Y-1521445D02*
X264076Y-1521445D01*
X264076Y-1527303D01*
X274708Y-1527303D01*
X274708Y-1529579D01*
X264076Y-1529579D01*
X264076Y-1536103D01*
X275875Y-1536103D01*
X275875Y-1538380D01*
X261521Y-1538380D01*
X261521Y-1519168D01*
X275430Y-1519168D01*
X275430Y-1521445D01*
X275430Y-1521445D02*
G37*
G36*
X239478Y-1521445D02*
X233148Y-1521445D01*
X233148Y-1538380D01*
X230594Y-1538380D01*
X230594Y-1521445D01*
X224265Y-1521445D01*
X224265Y-1519168D01*
X239478Y-1519168D01*
X239478Y-1521445D01*
X239478Y-1521445D02*
G37*
G36*
X150556Y-1536103D02*
X160023Y-1536103D01*
X160023Y-1538380D01*
X148002Y-1538380D01*
X148002Y-1519168D01*
X150556Y-1519168D01*
X150556Y-1536103D01*
X150556Y-1536103D02*
G37*
G36*
X144143Y-1521445D02*
X132788Y-1521445D01*
X132788Y-1527303D01*
X143421Y-1527303D01*
X143421Y-1529579D01*
X132788Y-1529579D01*
X132788Y-1536103D01*
X144587Y-1536103D01*
X144587Y-1538380D01*
X130234Y-1538380D01*
X130234Y-1519168D01*
X144143Y-1519168D01*
X144143Y-1521445D01*
X144143Y-1521445D02*
G37*
G36*
X119934Y-1519196D02*
X120156Y-1519196D01*
X120656Y-1519252D01*
X121211Y-1519307D01*
X121794Y-1519418D01*
X122377Y-1519557D01*
X122905Y-1519751D01*
X122933Y-1519751D01*
X122960Y-1519779D01*
X123127Y-1519863D01*
X123377Y-1520001D01*
X123654Y-1520196D01*
X123988Y-1520446D01*
X124348Y-1520751D01*
X124682Y-1521140D01*
X124987Y-1521556D01*
X125015Y-1521611D01*
X125098Y-1521778D01*
X125237Y-1522000D01*
X125376Y-1522333D01*
X125514Y-1522722D01*
X125653Y-1523138D01*
X125737Y-1523610D01*
X125764Y-1524082D01*
X125764Y-1524138D01*
X125764Y-1524277D01*
X125737Y-1524527D01*
X125681Y-1524832D01*
X125598Y-1525193D01*
X125459Y-1525582D01*
X125292Y-1525970D01*
X125070Y-1526387D01*
X125042Y-1526442D01*
X124959Y-1526553D01*
X124793Y-1526775D01*
X124571Y-1526997D01*
X124293Y-1527275D01*
X123960Y-1527580D01*
X123543Y-1527858D01*
X123071Y-1528136D01*
X123099Y-1528136D01*
X123155Y-1528163D01*
X123238Y-1528191D01*
X123349Y-1528247D01*
X123682Y-1528358D01*
X124071Y-1528552D01*
X124487Y-1528802D01*
X124959Y-1529107D01*
X125376Y-1529468D01*
X125764Y-1529912D01*
X125792Y-1529968D01*
X125903Y-1530134D01*
X126070Y-1530384D01*
X126236Y-1530717D01*
X126403Y-1531162D01*
X126569Y-1531634D01*
X126680Y-1532189D01*
X126708Y-1532800D01*
X126708Y-1532827D01*
X126708Y-1532855D01*
X126708Y-1533022D01*
X126680Y-1533299D01*
X126625Y-1533633D01*
X126569Y-1534021D01*
X126458Y-1534438D01*
X126320Y-1534882D01*
X126125Y-1535326D01*
X126097Y-1535381D01*
X126014Y-1535520D01*
X125903Y-1535715D01*
X125737Y-1535992D01*
X125514Y-1536270D01*
X125292Y-1536575D01*
X125015Y-1536881D01*
X124709Y-1537131D01*
X124682Y-1537158D01*
X124571Y-1537242D01*
X124376Y-1537353D01*
X124126Y-1537464D01*
X123821Y-1537630D01*
X123460Y-1537797D01*
X123071Y-1537936D01*
X122599Y-1538074D01*
X122544Y-1538074D01*
X122377Y-1538130D01*
X122100Y-1538158D01*
X121739Y-1538213D01*
X121295Y-1538269D01*
X120767Y-1538324D01*
X120184Y-1538352D01*
X119518Y-1538380D01*
X112189Y-1538380D01*
X112189Y-1519168D01*
X119740Y-1519168D01*
X119934Y-1519196D01*
X119934Y-1519196D02*
G37*
G36*
X110245Y-1538380D02*
X107358Y-1538380D01*
X105109Y-1532550D01*
X97058Y-1532550D01*
X94976Y-1538380D01*
X92283Y-1538380D01*
X99612Y-1519168D01*
X102388Y-1519168D01*
X110245Y-1538380D01*
X110245Y-1538380D02*
G37*
G36*
X81900Y-1536103D02*
X91367Y-1536103D01*
X91367Y-1538380D01*
X79346Y-1538380D01*
X79346Y-1519168D01*
X81900Y-1519168D01*
X81900Y-1536103D01*
X81900Y-1536103D02*
G37*
G36*
X68019Y-1521445D02*
X56664Y-1521445D01*
X56664Y-1527303D01*
X67297Y-1527303D01*
X67297Y-1529579D01*
X56664Y-1529579D01*
X56664Y-1536103D01*
X68463Y-1536103D01*
X68463Y-1538380D01*
X54110Y-1538380D01*
X54110Y-1519168D01*
X68019Y-1519168D01*
X68019Y-1521445D01*
X68019Y-1521445D02*
G37*
G36*
X32650Y-1538380D02*
X29763Y-1538380D01*
X27514Y-1532550D01*
X19463Y-1532550D01*
X17381Y-1538380D01*
X14688Y-1538380D01*
X22017Y-1519168D01*
X24793Y-1519168D01*
X32650Y-1538380D01*
X32650Y-1538380D02*
G37*
G36*
X4305Y-1536103D02*
X13772Y-1536103D01*
X13772Y-1538380D01*
X1751Y-1538380D01*
X1751Y-1519168D01*
X4305Y-1519168D01*
X4305Y-1536103D01*
X4305Y-1536103D02*
G37*
G36*
X-7744Y-1519196D02*
X-7272Y-1519224D01*
X-6773Y-1519252D01*
X-6301Y-1519307D01*
X-5884Y-1519363D01*
X-5828Y-1519363D01*
X-5634Y-1519418D01*
X-5384Y-1519474D01*
X-5051Y-1519557D01*
X-4690Y-1519696D01*
X-4302Y-1519863D01*
X-3885Y-1520057D01*
X-3524Y-1520279D01*
X-3469Y-1520307D01*
X-3358Y-1520390D01*
X-3191Y-1520556D01*
X-2969Y-1520751D01*
X-2719Y-1521001D01*
X-2469Y-1521334D01*
X-2192Y-1521695D01*
X-1970Y-1522111D01*
X-1942Y-1522167D01*
X-1886Y-1522306D01*
X-1775Y-1522555D01*
X-1664Y-1522889D01*
X-1581Y-1523277D01*
X-1470Y-1523721D01*
X-1414Y-1524221D01*
X-1387Y-1524749D01*
X-1387Y-1524776D01*
X-1387Y-1524860D01*
X-1387Y-1524971D01*
X-1414Y-1525165D01*
X-1442Y-1525359D01*
X-1470Y-1525609D01*
X-1525Y-1525887D01*
X-1581Y-1526192D01*
X-1775Y-1526831D01*
X-1886Y-1527164D01*
X-2053Y-1527525D01*
X-2247Y-1527886D01*
X-2441Y-1528219D01*
X-2691Y-1528552D01*
X-2969Y-1528885D01*
X-2997Y-1528913D01*
X-3052Y-1528969D01*
X-3136Y-1529052D01*
X-3274Y-1529135D01*
X-3441Y-1529274D01*
X-3663Y-1529413D01*
X-3941Y-1529579D01*
X-4246Y-1529718D01*
X-4607Y-1529885D01*
X-5023Y-1530051D01*
X-5468Y-1530190D01*
X-5995Y-1530301D01*
X-6550Y-1530412D01*
X-7161Y-1530495D01*
X-7855Y-1530551D01*
X-8577Y-1530579D01*
X-13491Y-1530579D01*
X-13491Y-1538380D01*
X-16045Y-1538380D01*
X-16045Y-1519168D01*
X-8161Y-1519168D01*
X-7744Y-1519196D01*
X-7744Y-1519196D02*
G37*
G36*
X-27927Y-1538380D02*
X-30620Y-1538380D01*
X-30620Y-1535687D01*
X-27927Y-1535687D01*
X-27927Y-1538380D01*
X-27927Y-1538380D02*
G37*
G36*
X392698Y-1518863D02*
X392948Y-1518863D01*
X393198Y-1518891D01*
X393531Y-1518946D01*
X393864Y-1519002D01*
X394586Y-1519141D01*
X395419Y-1519363D01*
X396224Y-1519696D01*
X396640Y-1519890D01*
X397057Y-1520112D01*
X397084Y-1520140D01*
X397140Y-1520168D01*
X397251Y-1520251D01*
X397417Y-1520334D01*
X397584Y-1520473D01*
X397806Y-1520640D01*
X398278Y-1521028D01*
X398778Y-1521528D01*
X399333Y-1522139D01*
X399860Y-1522861D01*
X400305Y-1523666D01*
X400305Y-1523694D01*
X400360Y-1523777D01*
X400416Y-1523888D01*
X400471Y-1524055D01*
X400582Y-1524277D01*
X400666Y-1524527D01*
X400777Y-1524832D01*
X400888Y-1525165D01*
X400971Y-1525526D01*
X401082Y-1525915D01*
X401193Y-1526359D01*
X401276Y-1526803D01*
X401387Y-1527775D01*
X401443Y-1528830D01*
X401443Y-1528857D01*
X401443Y-1528968D01*
X401443Y-1529107D01*
X401415Y-1529329D01*
X401415Y-1529579D01*
X401387Y-1529885D01*
X401332Y-1530218D01*
X401304Y-1530579D01*
X401165Y-1531384D01*
X400943Y-1532272D01*
X400638Y-1533161D01*
X400471Y-1533605D01*
X400249Y-1534049D01*
X400249Y-1534077D01*
X400194Y-1534160D01*
X400138Y-1534271D01*
X400027Y-1534438D01*
X399916Y-1534632D01*
X399777Y-1534826D01*
X399389Y-1535354D01*
X398917Y-1535909D01*
X398361Y-1536492D01*
X397695Y-1537047D01*
X396918Y-1537547D01*
X396890Y-1537547D01*
X396834Y-1537603D01*
X396696Y-1537658D01*
X396529Y-1537741D01*
X396335Y-1537825D01*
X396113Y-1537908D01*
X395835Y-1538019D01*
X395530Y-1538130D01*
X395196Y-1538241D01*
X394836Y-1538352D01*
X394030Y-1538519D01*
X393170Y-1538657D01*
X392254Y-1538713D01*
X391976Y-1538713D01*
X391810Y-1538685D01*
X391560Y-1538685D01*
X391282Y-1538630D01*
X390977Y-1538602D01*
X390616Y-1538546D01*
X389866Y-1538380D01*
X389061Y-1538158D01*
X388228Y-1537825D01*
X387812Y-1537630D01*
X387395Y-1537408D01*
X387368Y-1537380D01*
X387312Y-1537353D01*
X387201Y-1537269D01*
X387034Y-1537158D01*
X386868Y-1537047D01*
X386673Y-1536881D01*
X386202Y-1536464D01*
X385674Y-1535965D01*
X385119Y-1535354D01*
X384619Y-1534660D01*
X384147Y-1533855D01*
X384147Y-1533827D01*
X384092Y-1533743D01*
X384036Y-1533633D01*
X383980Y-1533466D01*
X383897Y-1533244D01*
X383814Y-1532994D01*
X383703Y-1532716D01*
X383620Y-1532411D01*
X383509Y-1532050D01*
X383397Y-1531689D01*
X383231Y-1530856D01*
X383120Y-1529996D01*
X383064Y-1529052D01*
X383064Y-1529024D01*
X383064Y-1528996D01*
X383064Y-1528830D01*
X383092Y-1528580D01*
X383092Y-1528247D01*
X383148Y-1527858D01*
X383203Y-1527386D01*
X383287Y-1526859D01*
X383397Y-1526303D01*
X383509Y-1525720D01*
X383675Y-1525110D01*
X383897Y-1524499D01*
X384147Y-1523860D01*
X384425Y-1523249D01*
X384786Y-1522639D01*
X385174Y-1522083D01*
X385619Y-1521556D01*
X385646Y-1521528D01*
X385729Y-1521445D01*
X385896Y-1521306D01*
X386090Y-1521140D01*
X386340Y-1520917D01*
X386646Y-1520695D01*
X387007Y-1520445D01*
X387423Y-1520196D01*
X387867Y-1519946D01*
X388367Y-1519696D01*
X388922Y-1519474D01*
X389505Y-1519252D01*
X390144Y-1519085D01*
X390810Y-1518946D01*
X391504Y-1518863D01*
X392254Y-1518835D01*
X392504Y-1518835D01*
X392698Y-1518863D01*
X392698Y-1518863D02*
G37*
G36*
X310660Y-1518863D02*
X310910Y-1518863D01*
X311160Y-1518891D01*
X311493Y-1518946D01*
X311827Y-1519002D01*
X312548Y-1519141D01*
X313381Y-1519363D01*
X314186Y-1519696D01*
X314603Y-1519890D01*
X315019Y-1520112D01*
X315047Y-1520140D01*
X315103Y-1520168D01*
X315214Y-1520251D01*
X315380Y-1520334D01*
X315547Y-1520473D01*
X315769Y-1520640D01*
X316241Y-1521028D01*
X316740Y-1521528D01*
X317296Y-1522139D01*
X317823Y-1522861D01*
X318267Y-1523666D01*
X318267Y-1523694D01*
X318323Y-1523777D01*
X318378Y-1523888D01*
X318434Y-1524055D01*
X318545Y-1524277D01*
X318628Y-1524527D01*
X318739Y-1524832D01*
X318850Y-1525165D01*
X318934Y-1525526D01*
X319045Y-1525915D01*
X319156Y-1526359D01*
X319239Y-1526803D01*
X319350Y-1527775D01*
X319406Y-1528830D01*
X319406Y-1528857D01*
X319406Y-1528968D01*
X319406Y-1529107D01*
X319378Y-1529329D01*
X319378Y-1529579D01*
X319350Y-1529885D01*
X319295Y-1530218D01*
X319267Y-1530579D01*
X319128Y-1531384D01*
X318906Y-1532272D01*
X318601Y-1533161D01*
X318434Y-1533605D01*
X318212Y-1534049D01*
X318212Y-1534077D01*
X318156Y-1534160D01*
X318101Y-1534271D01*
X317990Y-1534438D01*
X317879Y-1534632D01*
X317740Y-1534826D01*
X317351Y-1535354D01*
X316879Y-1535909D01*
X316324Y-1536492D01*
X315658Y-1537047D01*
X314880Y-1537547D01*
X314853Y-1537547D01*
X314797Y-1537603D01*
X314658Y-1537658D01*
X314492Y-1537741D01*
X314297Y-1537825D01*
X314075Y-1537908D01*
X313798Y-1538019D01*
X313492Y-1538130D01*
X313159Y-1538241D01*
X312798Y-1538352D01*
X311993Y-1538519D01*
X311133Y-1538658D01*
X310216Y-1538713D01*
X309939Y-1538713D01*
X309772Y-1538685D01*
X309522Y-1538685D01*
X309245Y-1538630D01*
X308939Y-1538602D01*
X308578Y-1538546D01*
X307829Y-1538380D01*
X307024Y-1538158D01*
X306191Y-1537825D01*
X305774Y-1537630D01*
X305358Y-1537408D01*
X305330Y-1537380D01*
X305275Y-1537353D01*
X305164Y-1537269D01*
X304997Y-1537158D01*
X304830Y-1537047D01*
X304636Y-1536881D01*
X304164Y-1536464D01*
X303637Y-1535965D01*
X303081Y-1535354D01*
X302582Y-1534660D01*
X302110Y-1533855D01*
X302110Y-1533827D01*
X302054Y-1533743D01*
X301999Y-1533633D01*
X301943Y-1533466D01*
X301860Y-1533244D01*
X301777Y-1532994D01*
X301666Y-1532716D01*
X301582Y-1532411D01*
X301471Y-1532050D01*
X301360Y-1531689D01*
X301194Y-1530856D01*
X301083Y-1529996D01*
X301027Y-1529052D01*
X301027Y-1529024D01*
X301027Y-1528996D01*
X301027Y-1528830D01*
X301055Y-1528580D01*
X301055Y-1528247D01*
X301110Y-1527858D01*
X301166Y-1527386D01*
X301249Y-1526859D01*
X301360Y-1526303D01*
X301471Y-1525720D01*
X301638Y-1525110D01*
X301860Y-1524499D01*
X302110Y-1523860D01*
X302387Y-1523249D01*
X302748Y-1522639D01*
X303137Y-1522083D01*
X303581Y-1521556D01*
X303609Y-1521528D01*
X303692Y-1521445D01*
X303859Y-1521306D01*
X304053Y-1521140D01*
X304303Y-1520917D01*
X304608Y-1520695D01*
X304969Y-1520445D01*
X305386Y-1520196D01*
X305830Y-1519946D01*
X306330Y-1519696D01*
X306885Y-1519474D01*
X307468Y-1519252D01*
X308106Y-1519085D01*
X308773Y-1518946D01*
X309467Y-1518863D01*
X310216Y-1518835D01*
X310466Y-1518835D01*
X310660Y-1518863D01*
X310660Y-1518863D02*
G37*
G36*
X186841Y-1518863D02*
X187091Y-1518863D01*
X187341Y-1518891D01*
X187674Y-1518946D01*
X188007Y-1519002D01*
X188729Y-1519141D01*
X189562Y-1519363D01*
X190367Y-1519696D01*
X190783Y-1519890D01*
X191200Y-1520112D01*
X191228Y-1520140D01*
X191283Y-1520168D01*
X191394Y-1520251D01*
X191561Y-1520334D01*
X191727Y-1520473D01*
X191949Y-1520640D01*
X192421Y-1521028D01*
X192921Y-1521528D01*
X193476Y-1522139D01*
X194004Y-1522861D01*
X194448Y-1523666D01*
X194448Y-1523694D01*
X194503Y-1523777D01*
X194559Y-1523888D01*
X194615Y-1524055D01*
X194726Y-1524277D01*
X194809Y-1524527D01*
X194920Y-1524832D01*
X195031Y-1525165D01*
X195114Y-1525526D01*
X195225Y-1525915D01*
X195336Y-1526359D01*
X195420Y-1526803D01*
X195531Y-1527775D01*
X195586Y-1528830D01*
X195586Y-1528857D01*
X195586Y-1528968D01*
X195586Y-1529107D01*
X195558Y-1529329D01*
X195558Y-1529579D01*
X195531Y-1529885D01*
X195475Y-1530218D01*
X195447Y-1530579D01*
X195309Y-1531384D01*
X195086Y-1532272D01*
X194781Y-1533161D01*
X194615Y-1533605D01*
X194392Y-1534049D01*
X194392Y-1534077D01*
X194337Y-1534160D01*
X194281Y-1534271D01*
X194170Y-1534438D01*
X194059Y-1534632D01*
X193920Y-1534826D01*
X193532Y-1535354D01*
X193060Y-1535909D01*
X192505Y-1536492D01*
X191838Y-1537047D01*
X191061Y-1537547D01*
X191033Y-1537547D01*
X190978Y-1537603D01*
X190839Y-1537658D01*
X190672Y-1537741D01*
X190478Y-1537825D01*
X190256Y-1537908D01*
X189978Y-1538019D01*
X189673Y-1538130D01*
X189340Y-1538241D01*
X188979Y-1538352D01*
X188174Y-1538519D01*
X187313Y-1538658D01*
X186397Y-1538713D01*
X186119Y-1538713D01*
X185953Y-1538685D01*
X185703Y-1538685D01*
X185425Y-1538630D01*
X185120Y-1538602D01*
X184759Y-1538546D01*
X184009Y-1538380D01*
X183204Y-1538158D01*
X182371Y-1537825D01*
X181955Y-1537630D01*
X181539Y-1537408D01*
X181511Y-1537380D01*
X181455Y-1537353D01*
X181344Y-1537269D01*
X181178Y-1537158D01*
X181011Y-1537047D01*
X180817Y-1536881D01*
X180345Y-1536464D01*
X179817Y-1535965D01*
X179262Y-1535354D01*
X178762Y-1534660D01*
X178290Y-1533855D01*
X178290Y-1533827D01*
X178235Y-1533743D01*
X178179Y-1533633D01*
X178124Y-1533466D01*
X178041Y-1533244D01*
X177957Y-1532994D01*
X177846Y-1532716D01*
X177763Y-1532411D01*
X177652Y-1532050D01*
X177541Y-1531689D01*
X177374Y-1530856D01*
X177263Y-1529996D01*
X177208Y-1529052D01*
X177208Y-1529024D01*
X177208Y-1528996D01*
X177208Y-1528830D01*
X177235Y-1528580D01*
X177235Y-1528247D01*
X177291Y-1527858D01*
X177346Y-1527386D01*
X177430Y-1526859D01*
X177541Y-1526303D01*
X177652Y-1525720D01*
X177818Y-1525110D01*
X178041Y-1524499D01*
X178290Y-1523860D01*
X178568Y-1523249D01*
X178929Y-1522639D01*
X179318Y-1522083D01*
X179762Y-1521556D01*
X179790Y-1521528D01*
X179873Y-1521445D01*
X180039Y-1521306D01*
X180234Y-1521140D01*
X180484Y-1520917D01*
X180789Y-1520695D01*
X181150Y-1520445D01*
X181566Y-1520196D01*
X182010Y-1519946D01*
X182510Y-1519696D01*
X183065Y-1519474D01*
X183648Y-1519252D01*
X184287Y-1519085D01*
X184953Y-1518946D01*
X185647Y-1518863D01*
X186397Y-1518835D01*
X186647Y-1518835D01*
X186841Y-1518863D01*
X186841Y-1518863D02*
G37*
G36*
X-28205Y-1568380D02*
X-30898Y-1568380D01*
X-30898Y-1565687D01*
X-28205Y-1565687D01*
X-28205Y-1568380D01*
X-28205Y-1568380D02*
G37*
G36*
X-34562Y-1551278D02*
X-34590Y-1551306D01*
X-34646Y-1551362D01*
X-34757Y-1551473D01*
X-34868Y-1551639D01*
X-35034Y-1551834D01*
X-35257Y-1552056D01*
X-35479Y-1552333D01*
X-35728Y-1552666D01*
X-35978Y-1553000D01*
X-36284Y-1553388D01*
X-36589Y-1553833D01*
X-36894Y-1554277D01*
X-37228Y-1554776D01*
X-37561Y-1555304D01*
X-37894Y-1555887D01*
X-38227Y-1556470D01*
X-38255Y-1556498D01*
X-38310Y-1556609D01*
X-38394Y-1556775D01*
X-38532Y-1557025D01*
X-38671Y-1557330D01*
X-38838Y-1557664D01*
X-39032Y-1558052D01*
X-39227Y-1558497D01*
X-39449Y-1558996D01*
X-39698Y-1559496D01*
X-39920Y-1560051D01*
X-40143Y-1560634D01*
X-40587Y-1561828D01*
X-41003Y-1563105D01*
X-41003Y-1563133D01*
X-41031Y-1563216D01*
X-41059Y-1563355D01*
X-41114Y-1563522D01*
X-41170Y-1563744D01*
X-41225Y-1564021D01*
X-41309Y-1564327D01*
X-41364Y-1564660D01*
X-41447Y-1565048D01*
X-41531Y-1565465D01*
X-41670Y-1566353D01*
X-41808Y-1567325D01*
X-41892Y-1568380D01*
X-44307Y-1568380D01*
X-44307Y-1568352D01*
X-44307Y-1568269D01*
X-44307Y-1568158D01*
X-44279Y-1567991D01*
X-44279Y-1567769D01*
X-44251Y-1567491D01*
X-44224Y-1567186D01*
X-44196Y-1566853D01*
X-44140Y-1566464D01*
X-44085Y-1566076D01*
X-44002Y-1565604D01*
X-43918Y-1565132D01*
X-43835Y-1564632D01*
X-43724Y-1564077D01*
X-43446Y-1562939D01*
X-43446Y-1562911D01*
X-43419Y-1562800D01*
X-43363Y-1562633D01*
X-43280Y-1562383D01*
X-43197Y-1562106D01*
X-43085Y-1561772D01*
X-42974Y-1561384D01*
X-42808Y-1560967D01*
X-42641Y-1560495D01*
X-42475Y-1560023D01*
X-42058Y-1558969D01*
X-41558Y-1557858D01*
X-41003Y-1556747D01*
X-40975Y-1556720D01*
X-40920Y-1556609D01*
X-40837Y-1556470D01*
X-40726Y-1556248D01*
X-40587Y-1555998D01*
X-40392Y-1555693D01*
X-40198Y-1555359D01*
X-39976Y-1554998D01*
X-39449Y-1554193D01*
X-38893Y-1553360D01*
X-38255Y-1552500D01*
X-37589Y-1551695D01*
X-47000Y-1551695D01*
X-47000Y-1549418D01*
X-34562Y-1549418D01*
X-34562Y-1551278D01*
X-34562Y-1551278D02*
G37*
G36*
X2593426Y-1601897D02*
X2594273Y-1602179D01*
X2595402Y-1602602D01*
X2596389Y-1603166D01*
X2597236Y-1604154D01*
X2597800Y-1605565D01*
X2598082Y-1607258D01*
X2598082Y-1607540D01*
X2597941Y-1608105D01*
X2597800Y-1609093D01*
X2597377Y-1610080D01*
X2596813Y-1611209D01*
X2595825Y-1612056D01*
X2594414Y-1612761D01*
X2592580Y-1613043D01*
X2592156Y-1613043D01*
X2591733Y-1612902D01*
X2591169Y-1612761D01*
X2589758Y-1612338D01*
X2589052Y-1611914D01*
X2588347Y-1611350D01*
X2588347Y-1611209D01*
X2588065Y-1611068D01*
X2587500Y-1610221D01*
X2586936Y-1608951D01*
X2586795Y-1608105D01*
X2586654Y-1607258D01*
X2586654Y-1607117D01*
X2586654Y-1606835D01*
X2586795Y-1606412D01*
X2586936Y-1605988D01*
X2587500Y-1604718D01*
X2587923Y-1604013D01*
X2588488Y-1603449D01*
X2588629Y-1603307D01*
X2588770Y-1603166D01*
X2589617Y-1602602D01*
X2590887Y-1602038D01*
X2591733Y-1601755D01*
X2592862Y-1601755D01*
X2593426Y-1601897D01*
X2593426Y-1601897D02*
G37*
G36*
X2557305Y-1596958D02*
X2558434Y-1597099D01*
X2559845Y-1597099D01*
X2561256Y-1597381D01*
X2564501Y-1597805D01*
X2568029Y-1598651D01*
X2571556Y-1599639D01*
X2575084Y-1601050D01*
X2606689Y-1651422D01*
X2606689Y-1651563D01*
X2606689Y-1651845D01*
X2606548Y-1652409D01*
X2606548Y-1652974D01*
X2606407Y-1653820D01*
X2606266Y-1654808D01*
X2605843Y-1656924D01*
X2605843Y-1657065D01*
X2605702Y-1657489D01*
X2605561Y-1658053D01*
X2605420Y-1658759D01*
X2605137Y-1659746D01*
X2604855Y-1660734D01*
X2604149Y-1663133D01*
X2576636Y-1620098D01*
X2576495Y-1619957D01*
X2576353Y-1619534D01*
X2575789Y-1618969D01*
X2575225Y-1618405D01*
X2574519Y-1617841D01*
X2573673Y-1617276D01*
X2572826Y-1616853D01*
X2571697Y-1616712D01*
X2571274Y-1616712D01*
X2570851Y-1616853D01*
X2570286Y-1617135D01*
X2569581Y-1617558D01*
X2568734Y-1618123D01*
X2568029Y-1618828D01*
X2567182Y-1619957D01*
X2558011Y-1632515D01*
X2590322Y-1683451D01*
X2590181Y-1683592D01*
X2589617Y-1684015D01*
X2588770Y-1684720D01*
X2587641Y-1685567D01*
X2586089Y-1686696D01*
X2584255Y-1687825D01*
X2582280Y-1689095D01*
X2579881Y-1690364D01*
X2577341Y-1691634D01*
X2574378Y-1692904D01*
X2571415Y-1694033D01*
X2568029Y-1695162D01*
X2564501Y-1696008D01*
X2560833Y-1696714D01*
X2557023Y-1697137D01*
X2552931Y-1697278D01*
X2551944Y-1697278D01*
X2550815Y-1697137D01*
X2549263Y-1696996D01*
X2547287Y-1696714D01*
X2545030Y-1696431D01*
X2542631Y-1695867D01*
X2539809Y-1695162D01*
X2536987Y-1694315D01*
X2533883Y-1693186D01*
X2530638Y-1691916D01*
X2527393Y-1690364D01*
X2524148Y-1688389D01*
X2520902Y-1686272D01*
X2517798Y-1683733D01*
X2514694Y-1680770D01*
X2528380Y-1661863D01*
X2528522Y-1661722D01*
X2528663Y-1661157D01*
X2528945Y-1660311D01*
X2529086Y-1659605D01*
X2529227Y-1658759D01*
X2529227Y-1658476D01*
X2529086Y-1657771D01*
X2528663Y-1656501D01*
X2527816Y-1654949D01*
X2517657Y-1639005D01*
X2502560Y-1660029D01*
X2502560Y-1659887D01*
X2502419Y-1659746D01*
X2502278Y-1658900D01*
X2501995Y-1657630D01*
X2501713Y-1655937D01*
X2501290Y-1653820D01*
X2501008Y-1651563D01*
X2500867Y-1648882D01*
X2500726Y-1646201D01*
X2500726Y-1645919D01*
X2500726Y-1645354D01*
X2500867Y-1644226D01*
X2501008Y-1642956D01*
X2501149Y-1641263D01*
X2501431Y-1639287D01*
X2501995Y-1637030D01*
X2502560Y-1634631D01*
X2503265Y-1632091D01*
X2504253Y-1629269D01*
X2505523Y-1626447D01*
X2506793Y-1623625D01*
X2508486Y-1620804D01*
X2510461Y-1617841D01*
X2512719Y-1615019D01*
X2515258Y-1612338D01*
X2515400Y-1612197D01*
X2515964Y-1611632D01*
X2516811Y-1610927D01*
X2518080Y-1609939D01*
X2519633Y-1608669D01*
X2521467Y-1607399D01*
X2523583Y-1605988D01*
X2525982Y-1604577D01*
X2528663Y-1603166D01*
X2531626Y-1601755D01*
X2534871Y-1600345D01*
X2538257Y-1599216D01*
X2541926Y-1598228D01*
X2545876Y-1597522D01*
X2549968Y-1596958D01*
X2554342Y-1596817D01*
X2556318Y-1596817D01*
X2557305Y-1596958D01*
X2557305Y-1596958D02*
G37*
G36*
X2609793Y-1711529D02*
X2610499Y-1711670D01*
X2611064Y-1711811D01*
X2611205Y-1711811D01*
X2611487Y-1711952D01*
X2612474Y-1712375D01*
X2613039Y-1712940D01*
X2613462Y-1713504D01*
X2613885Y-1714210D01*
X2614167Y-1715197D01*
X2614167Y-1715338D01*
X2614308Y-1715480D01*
X2614308Y-1715903D01*
X2614450Y-1716608D01*
X2614450Y-1717314D01*
X2614591Y-1718302D01*
X2614591Y-1719430D01*
X2614591Y-1720700D01*
X2595684Y-1720277D01*
X2595543Y-1720277D01*
X2594978Y-1720418D01*
X2594273Y-1720559D01*
X2593567Y-1721124D01*
X2592721Y-1721829D01*
X2592015Y-1723099D01*
X2591733Y-1723945D01*
X2591451Y-1724933D01*
X2591310Y-1725921D01*
X2591310Y-1727191D01*
X2591310Y-1731000D01*
X2591310Y-1731141D01*
X2591310Y-1731283D01*
X2591451Y-1732129D01*
X2591592Y-1733117D01*
X2591874Y-1734387D01*
X2592297Y-1735656D01*
X2593144Y-1736785D01*
X2594132Y-1737632D01*
X2594837Y-1737773D01*
X2595543Y-1737914D01*
X2614873Y-1737914D01*
X2614873Y-1738196D01*
X2614873Y-1738761D01*
X2614873Y-1739748D01*
X2614732Y-1740877D01*
X2614591Y-1742006D01*
X2614450Y-1743135D01*
X2614167Y-1744122D01*
X2613744Y-1744828D01*
X2613744Y-1744969D01*
X2613462Y-1745110D01*
X2613039Y-1745392D01*
X2612474Y-1745674D01*
X2611628Y-1746098D01*
X2610499Y-1746380D01*
X2609088Y-1746521D01*
X2607395Y-1746662D01*
X2593285Y-1746662D01*
X2592156Y-1746521D01*
X2590746Y-1746239D01*
X2589334Y-1745815D01*
X2587782Y-1745110D01*
X2586512Y-1744263D01*
X2585525Y-1742993D01*
X2585525Y-1742852D01*
X2585243Y-1742429D01*
X2584960Y-1741724D01*
X2584678Y-1740877D01*
X2584396Y-1739607D01*
X2584114Y-1738196D01*
X2583973Y-1736362D01*
X2583831Y-1734387D01*
X2583831Y-1723945D01*
X2583831Y-1723804D01*
X2583831Y-1723522D01*
X2583831Y-1723099D01*
X2583973Y-1722534D01*
X2584114Y-1721124D01*
X2584396Y-1719289D01*
X2584819Y-1717455D01*
X2585666Y-1715621D01*
X2586654Y-1714069D01*
X2587359Y-1713363D01*
X2588065Y-1712799D01*
X2588206Y-1712799D01*
X2588488Y-1712517D01*
X2588911Y-1712375D01*
X2589617Y-1712093D01*
X2590463Y-1711811D01*
X2591592Y-1711670D01*
X2592862Y-1711388D01*
X2608100Y-1711388D01*
X2609793Y-1711529D01*
X2609793Y-1711529D02*
G37*
G36*
X2649019Y-1746380D02*
X2641823Y-1746380D01*
X2641823Y-1733258D01*
X2626161Y-1733258D01*
X2626161Y-1746380D01*
X2619388Y-1746380D01*
X2619388Y-1711811D01*
X2626161Y-1711811D01*
X2626161Y-1723945D01*
X2641823Y-1723945D01*
X2641823Y-1711811D01*
X2649019Y-1711811D01*
X2649019Y-1746380D01*
X2649019Y-1746380D02*
G37*
G36*
X2452047Y-1700523D02*
X2452753Y-1700664D01*
X2453599Y-1701088D01*
X2454305Y-1701652D01*
X2455010Y-1702640D01*
X2455716Y-1703910D01*
X2455998Y-1705744D01*
X2460654Y-1746380D01*
X2451906Y-1746380D01*
X2449507Y-1717173D01*
X2449366Y-1717173D01*
X2440477Y-1740595D01*
X2440477Y-1740736D01*
X2440195Y-1741159D01*
X2439772Y-1741865D01*
X2439207Y-1742570D01*
X2438502Y-1743276D01*
X2437655Y-1743981D01*
X2436667Y-1744404D01*
X2435398Y-1744546D01*
X2434833Y-1744546D01*
X2434128Y-1744263D01*
X2433281Y-1743981D01*
X2432294Y-1743558D01*
X2431447Y-1742852D01*
X2430741Y-1741865D01*
X2430036Y-1740595D01*
X2421147Y-1717596D01*
X2421006Y-1717596D01*
X2418466Y-1746380D01*
X2410000Y-1746380D01*
X2414374Y-1705321D01*
X2414374Y-1705038D01*
X2414515Y-1704474D01*
X2414797Y-1703769D01*
X2415221Y-1702781D01*
X2415785Y-1701934D01*
X2416632Y-1701088D01*
X2417760Y-1700523D01*
X2419030Y-1700382D01*
X2419736Y-1700382D01*
X2420582Y-1700664D01*
X2421570Y-1700947D01*
X2422558Y-1701511D01*
X2423687Y-1702358D01*
X2424533Y-1703486D01*
X2425380Y-1705038D01*
X2435257Y-1730154D01*
X2435398Y-1730154D01*
X2445274Y-1705038D01*
X2445415Y-1704897D01*
X2445557Y-1704333D01*
X2446121Y-1703627D01*
X2446685Y-1702640D01*
X2447532Y-1701793D01*
X2448661Y-1701088D01*
X2449931Y-1700523D01*
X2451483Y-1700382D01*
X2451624Y-1700382D01*
X2452047Y-1700523D01*
X2452047Y-1700523D02*
G37*
G36*
X2690360Y-1711952D02*
X2691489Y-1712093D01*
X2692758Y-1712517D01*
X2694170Y-1713222D01*
X2695439Y-1714210D01*
X2696568Y-1715621D01*
X2697415Y-1717596D01*
X2697415Y-1717737D01*
X2697556Y-1718019D01*
X2697556Y-1718584D01*
X2697697Y-1719289D01*
X2697838Y-1720136D01*
X2697838Y-1721124D01*
X2697979Y-1722393D01*
X2697979Y-1723663D01*
X2697979Y-1726344D01*
X2697979Y-1726626D01*
X2697979Y-1727332D01*
X2697838Y-1728461D01*
X2697697Y-1729730D01*
X2697415Y-1731283D01*
X2697133Y-1732835D01*
X2696568Y-1734104D01*
X2695863Y-1735374D01*
X2695863Y-1735515D01*
X2695580Y-1735656D01*
X2695157Y-1736080D01*
X2694734Y-1736503D01*
X2694028Y-1736926D01*
X2693182Y-1737209D01*
X2692335Y-1737491D01*
X2691206Y-1737632D01*
X2673993Y-1737632D01*
X2673993Y-1746380D01*
X2666938Y-1746380D01*
X2666938Y-1711811D01*
X2689655Y-1711811D01*
X2690360Y-1711952D01*
X2690360Y-1711952D02*
G37*
G36*
X2662281Y-1746380D02*
X2654098Y-1746380D01*
X2654098Y-1711811D01*
X2662281Y-1711811D01*
X2662281Y-1746380D01*
X2662281Y-1746380D02*
G37*
G36*
X2537270Y-1711952D02*
X2538398Y-1712375D01*
X2539668Y-1713081D01*
X2540233Y-1713645D01*
X2540938Y-1714351D01*
X2541503Y-1715197D01*
X2541926Y-1716185D01*
X2542490Y-1717314D01*
X2542772Y-1718725D01*
X2542914Y-1720277D01*
X2543055Y-1722111D01*
X2543055Y-1724228D01*
X2543055Y-1724369D01*
X2543055Y-1724510D01*
X2543055Y-1725356D01*
X2542914Y-1726626D01*
X2542631Y-1728037D01*
X2542067Y-1729448D01*
X2541361Y-1730859D01*
X2540374Y-1731988D01*
X2539104Y-1732835D01*
X2539104Y-1732976D01*
X2539245Y-1732976D01*
X2539668Y-1733258D01*
X2540374Y-1733681D01*
X2541079Y-1734387D01*
X2541785Y-1735374D01*
X2542490Y-1736644D01*
X2542914Y-1738337D01*
X2543055Y-1740595D01*
X2543055Y-1746380D01*
X2535718Y-1746380D01*
X2535718Y-1742288D01*
X2535718Y-1742147D01*
X2535718Y-1741865D01*
X2535718Y-1741300D01*
X2535718Y-1740736D01*
X2535576Y-1739607D01*
X2535576Y-1739043D01*
X2535435Y-1738620D01*
X2535294Y-1738478D01*
X2534871Y-1737914D01*
X2534165Y-1737491D01*
X2532896Y-1737350D01*
X2520056Y-1737350D01*
X2520056Y-1746380D01*
X2512719Y-1746380D01*
X2512719Y-1711811D01*
X2536423Y-1711811D01*
X2537270Y-1711952D01*
X2537270Y-1711952D02*
G37*
G36*
X2473071Y-1746380D02*
X2465028Y-1746380D01*
X2465028Y-1711811D01*
X2473071Y-1711811D01*
X2473071Y-1746380D01*
X2473071Y-1746380D02*
G37*
G36*
X2571556Y-1711529D02*
X2572826Y-1711811D01*
X2574096Y-1712093D01*
X2575507Y-1712658D01*
X2576636Y-1713504D01*
X2577623Y-1714492D01*
X2577765Y-1714633D01*
X2578047Y-1715056D01*
X2578329Y-1715762D01*
X2578752Y-1716750D01*
X2579175Y-1718161D01*
X2579599Y-1719713D01*
X2579740Y-1721547D01*
X2579881Y-1723804D01*
X2579881Y-1734245D01*
X2579881Y-1734387D01*
X2579881Y-1734669D01*
X2579881Y-1735092D01*
X2579740Y-1735798D01*
X2579599Y-1737350D01*
X2579316Y-1739325D01*
X2578611Y-1741300D01*
X2577765Y-1743276D01*
X2576495Y-1744828D01*
X2575648Y-1745533D01*
X2574801Y-1745957D01*
X2574660Y-1745957D01*
X2574378Y-1746098D01*
X2573955Y-1746239D01*
X2573391Y-1746239D01*
X2572685Y-1746380D01*
X2571838Y-1746521D01*
X2569581Y-1746662D01*
X2556882Y-1746662D01*
X2555753Y-1746521D01*
X2554483Y-1746239D01*
X2553073Y-1745815D01*
X2551662Y-1745251D01*
X2550392Y-1744404D01*
X2549263Y-1743276D01*
X2549122Y-1743135D01*
X2548981Y-1742711D01*
X2548698Y-1742006D01*
X2548416Y-1741018D01*
X2547993Y-1739889D01*
X2547711Y-1738337D01*
X2547570Y-1736362D01*
X2547429Y-1734245D01*
X2547429Y-1723804D01*
X2547429Y-1723663D01*
X2547429Y-1723381D01*
X2547429Y-1722817D01*
X2547570Y-1722111D01*
X2547711Y-1720418D01*
X2548134Y-1718443D01*
X2548840Y-1716326D01*
X2549968Y-1714492D01*
X2550674Y-1713645D01*
X2551379Y-1712940D01*
X2552367Y-1712375D01*
X2553355Y-1711952D01*
X2553496Y-1711952D01*
X2553637Y-1711811D01*
X2554060Y-1711811D01*
X2554625Y-1711670D01*
X2556035Y-1711529D01*
X2557870Y-1711388D01*
X2570569Y-1711388D01*
X2571556Y-1711529D01*
X2571556Y-1711529D02*
G37*
G36*
X2500867Y-1711529D02*
X2502560Y-1711529D01*
X2504112Y-1711670D01*
X2505382Y-1711952D01*
X2505805Y-1712093D01*
X2506087Y-1712234D01*
X2506228Y-1712234D01*
X2506369Y-1712517D01*
X2506652Y-1712940D01*
X2507075Y-1713645D01*
X2507498Y-1714633D01*
X2507780Y-1716044D01*
X2507921Y-1717878D01*
X2508062Y-1720277D01*
X2489014Y-1720277D01*
X2488168Y-1720418D01*
X2487180Y-1720841D01*
X2486192Y-1721688D01*
X2486051Y-1721970D01*
X2485910Y-1722252D01*
X2485628Y-1722817D01*
X2485487Y-1723522D01*
X2485205Y-1724510D01*
X2485064Y-1725780D01*
X2485064Y-1727191D01*
X2485064Y-1731000D01*
X2485064Y-1731141D01*
X2485064Y-1731706D01*
X2485064Y-1732411D01*
X2485205Y-1733117D01*
X2485346Y-1734951D01*
X2485487Y-1735656D01*
X2485628Y-1736221D01*
X2485769Y-1736503D01*
X2486334Y-1737068D01*
X2486898Y-1737350D01*
X2487462Y-1737632D01*
X2488309Y-1737773D01*
X2489155Y-1737914D01*
X2508486Y-1737914D01*
X2508486Y-1738196D01*
X2508486Y-1738761D01*
X2508486Y-1739607D01*
X2508345Y-1740595D01*
X2508062Y-1742852D01*
X2507780Y-1743840D01*
X2507498Y-1744546D01*
X2507498Y-1744687D01*
X2507216Y-1744828D01*
X2506793Y-1745251D01*
X2506228Y-1745533D01*
X2505241Y-1745957D01*
X2504112Y-1746380D01*
X2502701Y-1746521D01*
X2501008Y-1746662D01*
X2487039Y-1746662D01*
X2486051Y-1746521D01*
X2484781Y-1746239D01*
X2483371Y-1745957D01*
X2481960Y-1745533D01*
X2480690Y-1744828D01*
X2479702Y-1743840D01*
X2479561Y-1743699D01*
X2479420Y-1743276D01*
X2478997Y-1742570D01*
X2478573Y-1741583D01*
X2478150Y-1740313D01*
X2477868Y-1738620D01*
X2477586Y-1736644D01*
X2477444Y-1734245D01*
X2477444Y-1723804D01*
X2477444Y-1723663D01*
X2477444Y-1723381D01*
X2477444Y-1722817D01*
X2477586Y-1722111D01*
X2477868Y-1720277D01*
X2478291Y-1718161D01*
X2479138Y-1716044D01*
X2480408Y-1714069D01*
X2481254Y-1713222D01*
X2482242Y-1712517D01*
X2483230Y-1711952D01*
X2484499Y-1711670D01*
X2484781Y-1711670D01*
X2485487Y-1711529D01*
X2486616Y-1711388D01*
X2499173Y-1711388D01*
X2500867Y-1711529D01*
X2500867Y-1711529D02*
G37*
%LPC*%
G36*
X-40448Y-1527997D02*
X-40615Y-1527997D01*
X-40726Y-1528025D01*
X-41003Y-1528052D01*
X-41392Y-1528136D01*
X-41808Y-1528274D01*
X-42280Y-1528497D01*
X-42724Y-1528774D01*
X-43169Y-1529163D01*
X-43224Y-1529218D01*
X-43335Y-1529357D01*
X-43530Y-1529607D01*
X-43724Y-1529968D01*
X-43918Y-1530384D01*
X-44113Y-1530912D01*
X-44224Y-1531495D01*
X-44279Y-1532161D01*
X-44279Y-1532217D01*
X-44279Y-1532355D01*
X-44251Y-1532605D01*
X-44224Y-1532911D01*
X-44168Y-1533272D01*
X-44057Y-1533660D01*
X-43946Y-1534077D01*
X-43780Y-1534493D01*
X-43752Y-1534549D01*
X-43668Y-1534688D01*
X-43557Y-1534882D01*
X-43391Y-1535132D01*
X-43197Y-1535382D01*
X-42947Y-1535687D01*
X-42669Y-1535937D01*
X-42336Y-1536187D01*
X-42280Y-1536214D01*
X-42169Y-1536270D01*
X-41975Y-1536381D01*
X-41725Y-1536464D01*
X-41447Y-1536575D01*
X-41114Y-1536686D01*
X-40753Y-1536742D01*
X-40365Y-1536770D01*
X-40226Y-1536770D01*
X-40115Y-1536742D01*
X-39837Y-1536714D01*
X-39476Y-1536631D01*
X-39088Y-1536464D01*
X-38644Y-1536270D01*
X-38199Y-1535965D01*
X-37977Y-1535798D01*
X-37783Y-1535576D01*
X-37783Y-1535548D01*
X-37727Y-1535520D01*
X-37616Y-1535354D01*
X-37450Y-1535076D01*
X-37228Y-1534715D01*
X-37033Y-1534243D01*
X-36867Y-1533688D01*
X-36756Y-1533049D01*
X-36700Y-1532300D01*
X-36700Y-1532272D01*
X-36700Y-1532217D01*
X-36700Y-1532106D01*
X-36728Y-1531967D01*
X-36728Y-1531800D01*
X-36756Y-1531606D01*
X-36839Y-1531162D01*
X-36950Y-1530662D01*
X-37144Y-1530134D01*
X-37422Y-1529635D01*
X-37783Y-1529163D01*
X-37838Y-1529107D01*
X-37977Y-1528969D01*
X-38199Y-1528802D01*
X-38505Y-1528580D01*
X-38893Y-1528358D01*
X-39337Y-1528191D01*
X-39865Y-1528052D01*
X-40448Y-1527997D01*
X-40448Y-1527997D02*
G37*
G36*
X563852Y-1521445D02*
X559410Y-1521445D01*
X559410Y-1536103D01*
X563963Y-1536103D01*
X564157Y-1536075D01*
X564574Y-1536048D01*
X565046Y-1536020D01*
X565545Y-1535965D01*
X566045Y-1535881D01*
X566461Y-1535770D01*
X566517Y-1535742D01*
X566656Y-1535715D01*
X566850Y-1535631D01*
X567100Y-1535520D01*
X567378Y-1535354D01*
X567655Y-1535187D01*
X567933Y-1534993D01*
X568210Y-1534771D01*
X568238Y-1534715D01*
X568349Y-1534604D01*
X568516Y-1534410D01*
X568710Y-1534132D01*
X568932Y-1533771D01*
X569182Y-1533355D01*
X569404Y-1532883D01*
X569599Y-1532355D01*
X569599Y-1532328D01*
X569626Y-1532272D01*
X569654Y-1532189D01*
X569682Y-1532078D01*
X569710Y-1531939D01*
X569765Y-1531745D01*
X569821Y-1531550D01*
X569876Y-1531328D01*
X569959Y-1530773D01*
X570043Y-1530134D01*
X570098Y-1529413D01*
X570126Y-1528635D01*
X570126Y-1528607D01*
X570126Y-1528496D01*
X570126Y-1528358D01*
X570098Y-1528136D01*
X570098Y-1527886D01*
X570070Y-1527608D01*
X570043Y-1527275D01*
X570015Y-1526942D01*
X569876Y-1526192D01*
X569710Y-1525415D01*
X569460Y-1524693D01*
X569293Y-1524332D01*
X569127Y-1524027D01*
X569127Y-1523999D01*
X569071Y-1523943D01*
X569016Y-1523860D01*
X568960Y-1523749D01*
X568738Y-1523472D01*
X568460Y-1523138D01*
X568099Y-1522777D01*
X567683Y-1522417D01*
X567211Y-1522111D01*
X566711Y-1521861D01*
X566656Y-1521833D01*
X566517Y-1521806D01*
X566267Y-1521723D01*
X565906Y-1521639D01*
X565462Y-1521584D01*
X564907Y-1521500D01*
X564574Y-1521473D01*
X564213Y-1521473D01*
X563852Y-1521445D01*
X563852Y-1521445D02*
G37*
G36*
X511187Y-1521167D02*
X511187Y-1521195D01*
X511159Y-1521250D01*
X511159Y-1521362D01*
X511104Y-1521473D01*
X511076Y-1521667D01*
X511020Y-1521861D01*
X510909Y-1522333D01*
X510770Y-1522888D01*
X510576Y-1523499D01*
X510382Y-1524165D01*
X510132Y-1524860D01*
X508050Y-1530468D01*
X514546Y-1530468D01*
X512547Y-1525193D01*
X512547Y-1525165D01*
X512519Y-1525082D01*
X512464Y-1524943D01*
X512408Y-1524776D01*
X512325Y-1524582D01*
X512242Y-1524332D01*
X512159Y-1524055D01*
X512048Y-1523777D01*
X511825Y-1523138D01*
X511603Y-1522472D01*
X511381Y-1521806D01*
X511187Y-1521167D01*
X511187Y-1521167D02*
G37*
G36*
X465407Y-1521445D02*
X460965Y-1521445D01*
X460965Y-1536103D01*
X465518Y-1536103D01*
X465712Y-1536075D01*
X466129Y-1536048D01*
X466601Y-1536020D01*
X467100Y-1535965D01*
X467600Y-1535881D01*
X468017Y-1535770D01*
X468072Y-1535742D01*
X468211Y-1535715D01*
X468405Y-1535631D01*
X468655Y-1535520D01*
X468933Y-1535354D01*
X469211Y-1535187D01*
X469488Y-1534993D01*
X469766Y-1534771D01*
X469794Y-1534715D01*
X469905Y-1534604D01*
X470071Y-1534410D01*
X470265Y-1534132D01*
X470488Y-1533771D01*
X470737Y-1533355D01*
X470960Y-1532883D01*
X471154Y-1532355D01*
X471154Y-1532328D01*
X471182Y-1532272D01*
X471209Y-1532189D01*
X471237Y-1532078D01*
X471265Y-1531939D01*
X471320Y-1531745D01*
X471376Y-1531550D01*
X471431Y-1531328D01*
X471515Y-1530773D01*
X471598Y-1530134D01*
X471654Y-1529413D01*
X471681Y-1528635D01*
X471681Y-1528607D01*
X471681Y-1528496D01*
X471681Y-1528358D01*
X471654Y-1528136D01*
X471654Y-1527886D01*
X471626Y-1527608D01*
X471598Y-1527275D01*
X471570Y-1526942D01*
X471431Y-1526192D01*
X471265Y-1525415D01*
X471015Y-1524693D01*
X470848Y-1524332D01*
X470682Y-1524027D01*
X470682Y-1523999D01*
X470626Y-1523943D01*
X470571Y-1523860D01*
X470515Y-1523749D01*
X470293Y-1523472D01*
X470016Y-1523138D01*
X469655Y-1522777D01*
X469238Y-1522417D01*
X468766Y-1522111D01*
X468267Y-1521861D01*
X468211Y-1521833D01*
X468072Y-1521806D01*
X467822Y-1521723D01*
X467461Y-1521639D01*
X467017Y-1521584D01*
X466462Y-1521500D01*
X466129Y-1521473D01*
X465768Y-1521473D01*
X465407Y-1521445D01*
X465407Y-1521445D02*
G37*
G36*
X348611Y-1521167D02*
X348611Y-1521195D01*
X348584Y-1521250D01*
X348584Y-1521362D01*
X348528Y-1521473D01*
X348500Y-1521667D01*
X348445Y-1521861D01*
X348334Y-1522333D01*
X348195Y-1522888D01*
X348001Y-1523499D01*
X347806Y-1524166D01*
X347556Y-1524860D01*
X345474Y-1530468D01*
X351971Y-1530468D01*
X349972Y-1525193D01*
X349972Y-1525165D01*
X349944Y-1525082D01*
X349888Y-1524943D01*
X349833Y-1524776D01*
X349750Y-1524582D01*
X349666Y-1524332D01*
X349583Y-1524055D01*
X349472Y-1523777D01*
X349250Y-1523138D01*
X349028Y-1522472D01*
X348806Y-1521806D01*
X348611Y-1521167D01*
X348611Y-1521167D02*
G37*
G36*
X119296Y-1521445D02*
X114743Y-1521445D01*
X114743Y-1527220D01*
X119462Y-1527220D01*
X119823Y-1527192D01*
X120212Y-1527164D01*
X120601Y-1527136D01*
X120989Y-1527081D01*
X121295Y-1527025D01*
X121350Y-1526997D01*
X121461Y-1526970D01*
X121628Y-1526886D01*
X121850Y-1526775D01*
X122072Y-1526664D01*
X122322Y-1526498D01*
X122572Y-1526275D01*
X122766Y-1526053D01*
X122794Y-1526026D01*
X122849Y-1525942D01*
X122933Y-1525776D01*
X123016Y-1525582D01*
X123099Y-1525359D01*
X123182Y-1525082D01*
X123238Y-1524749D01*
X123266Y-1524388D01*
X123266Y-1524332D01*
X123266Y-1524221D01*
X123238Y-1524055D01*
X123210Y-1523833D01*
X123155Y-1523555D01*
X123071Y-1523277D01*
X122960Y-1523000D01*
X122794Y-1522722D01*
X122766Y-1522694D01*
X122710Y-1522611D01*
X122599Y-1522472D01*
X122461Y-1522333D01*
X122266Y-1522167D01*
X122044Y-1522000D01*
X121767Y-1521834D01*
X121461Y-1521723D01*
X121433Y-1521723D01*
X121295Y-1521667D01*
X121100Y-1521639D01*
X120795Y-1521584D01*
X120378Y-1521528D01*
X119907Y-1521500D01*
X119296Y-1521445D01*
X119296Y-1521445D02*
G37*
G36*
X119795Y-1529496D02*
X114743Y-1529496D01*
X114743Y-1536103D01*
X120212Y-1536103D01*
X120795Y-1536076D01*
X121045Y-1536048D01*
X121267Y-1536020D01*
X121295Y-1536020D01*
X121406Y-1535992D01*
X121572Y-1535965D01*
X121767Y-1535909D01*
X122239Y-1535742D01*
X122710Y-1535520D01*
X122738Y-1535493D01*
X122822Y-1535437D01*
X122933Y-1535354D01*
X123071Y-1535243D01*
X123210Y-1535076D01*
X123405Y-1534910D01*
X123543Y-1534688D01*
X123710Y-1534438D01*
X123738Y-1534410D01*
X123765Y-1534327D01*
X123821Y-1534160D01*
X123904Y-1533966D01*
X123988Y-1533744D01*
X124043Y-1533466D01*
X124071Y-1533133D01*
X124099Y-1532800D01*
X124099Y-1532744D01*
X124099Y-1532633D01*
X124071Y-1532411D01*
X124015Y-1532161D01*
X123960Y-1531884D01*
X123849Y-1531578D01*
X123710Y-1531273D01*
X123516Y-1530967D01*
X123488Y-1530940D01*
X123405Y-1530829D01*
X123294Y-1530690D01*
X123127Y-1530523D01*
X122905Y-1530329D01*
X122627Y-1530134D01*
X122322Y-1529968D01*
X121961Y-1529829D01*
X121905Y-1529801D01*
X121794Y-1529774D01*
X121544Y-1529718D01*
X121239Y-1529662D01*
X120850Y-1529607D01*
X120378Y-1529552D01*
X119795Y-1529496D01*
X119795Y-1529496D02*
G37*
G36*
X100945Y-1521167D02*
X100945Y-1521195D01*
X100917Y-1521251D01*
X100917Y-1521362D01*
X100862Y-1521473D01*
X100834Y-1521667D01*
X100778Y-1521861D01*
X100667Y-1522333D01*
X100528Y-1522888D01*
X100334Y-1523499D01*
X100140Y-1524166D01*
X99890Y-1524860D01*
X97808Y-1530468D01*
X104304Y-1530468D01*
X102305Y-1525193D01*
X102305Y-1525165D01*
X102277Y-1525082D01*
X102222Y-1524943D01*
X102166Y-1524776D01*
X102083Y-1524582D01*
X102000Y-1524332D01*
X101917Y-1524055D01*
X101805Y-1523777D01*
X101583Y-1523138D01*
X101361Y-1522472D01*
X101139Y-1521806D01*
X100945Y-1521167D01*
X100945Y-1521167D02*
G37*
G36*
X23349Y-1521167D02*
X23349Y-1521195D01*
X23322Y-1521251D01*
X23322Y-1521362D01*
X23266Y-1521473D01*
X23238Y-1521667D01*
X23183Y-1521861D01*
X23072Y-1522333D01*
X22933Y-1522889D01*
X22739Y-1523499D01*
X22544Y-1524166D01*
X22295Y-1524860D01*
X20212Y-1530468D01*
X26709Y-1530468D01*
X24710Y-1525193D01*
X24710Y-1525165D01*
X24682Y-1525082D01*
X24627Y-1524943D01*
X24571Y-1524776D01*
X24488Y-1524582D01*
X24404Y-1524332D01*
X24321Y-1524055D01*
X24210Y-1523777D01*
X23988Y-1523138D01*
X23766Y-1522472D01*
X23544Y-1521806D01*
X23349Y-1521167D01*
X23349Y-1521167D02*
G37*
G36*
X-7994Y-1521445D02*
X-13491Y-1521445D01*
X-13491Y-1528302D01*
X-8327Y-1528302D01*
X-8133Y-1528274D01*
X-7939Y-1528274D01*
X-7716Y-1528247D01*
X-7189Y-1528191D01*
X-6606Y-1528080D01*
X-6023Y-1527914D01*
X-5495Y-1527691D01*
X-5246Y-1527553D01*
X-5051Y-1527386D01*
X-4996Y-1527330D01*
X-4885Y-1527220D01*
X-4718Y-1526997D01*
X-4524Y-1526720D01*
X-4329Y-1526359D01*
X-4163Y-1525915D01*
X-4052Y-1525415D01*
X-3996Y-1524832D01*
X-3996Y-1524804D01*
X-3996Y-1524776D01*
X-3996Y-1524638D01*
X-4024Y-1524388D01*
X-4080Y-1524110D01*
X-4135Y-1523805D01*
X-4246Y-1523444D01*
X-4413Y-1523111D01*
X-4607Y-1522778D01*
X-4635Y-1522750D01*
X-4718Y-1522639D01*
X-4857Y-1522500D01*
X-5023Y-1522306D01*
X-5273Y-1522111D01*
X-5551Y-1521945D01*
X-5856Y-1521778D01*
X-6217Y-1521639D01*
X-6245Y-1521639D01*
X-6356Y-1521611D01*
X-6523Y-1521584D01*
X-6745Y-1521528D01*
X-7078Y-1521501D01*
X-7494Y-1521473D01*
X-7994Y-1521445D01*
X-7994Y-1521445D02*
G37*
G36*
X392254Y-1521028D02*
X392004Y-1521028D01*
X391810Y-1521056D01*
X391560Y-1521084D01*
X391310Y-1521140D01*
X391004Y-1521195D01*
X390671Y-1521250D01*
X389949Y-1521473D01*
X389561Y-1521639D01*
X389172Y-1521806D01*
X388756Y-1522028D01*
X388367Y-1522278D01*
X387978Y-1522555D01*
X387617Y-1522888D01*
X387590Y-1522916D01*
X387534Y-1522972D01*
X387451Y-1523083D01*
X387312Y-1523249D01*
X387173Y-1523444D01*
X387007Y-1523694D01*
X386840Y-1523999D01*
X386646Y-1524360D01*
X386479Y-1524749D01*
X386285Y-1525220D01*
X386118Y-1525720D01*
X385979Y-1526275D01*
X385841Y-1526886D01*
X385757Y-1527580D01*
X385702Y-1528302D01*
X385674Y-1529079D01*
X385674Y-1529107D01*
X385674Y-1529218D01*
X385674Y-1529413D01*
X385702Y-1529662D01*
X385729Y-1529940D01*
X385785Y-1530273D01*
X385841Y-1530662D01*
X385896Y-1531051D01*
X386118Y-1531939D01*
X386285Y-1532383D01*
X386451Y-1532855D01*
X386673Y-1533299D01*
X386923Y-1533743D01*
X387201Y-1534160D01*
X387534Y-1534549D01*
X387562Y-1534576D01*
X387617Y-1534632D01*
X387728Y-1534743D01*
X387867Y-1534854D01*
X388062Y-1535021D01*
X388284Y-1535187D01*
X388534Y-1535354D01*
X388811Y-1535548D01*
X389144Y-1535742D01*
X389505Y-1535909D01*
X389894Y-1536075D01*
X390310Y-1536242D01*
X390755Y-1536353D01*
X391199Y-1536464D01*
X391698Y-1536520D01*
X392226Y-1536548D01*
X392365Y-1536548D01*
X392504Y-1536520D01*
X392698Y-1536520D01*
X392948Y-1536492D01*
X393225Y-1536436D01*
X393559Y-1536381D01*
X393892Y-1536298D01*
X394280Y-1536187D01*
X394641Y-1536048D01*
X395058Y-1535909D01*
X395446Y-1535715D01*
X395835Y-1535465D01*
X396224Y-1535215D01*
X396612Y-1534910D01*
X396973Y-1534549D01*
X397001Y-1534521D01*
X397057Y-1534465D01*
X397140Y-1534326D01*
X397279Y-1534160D01*
X397417Y-1533966D01*
X397556Y-1533716D01*
X397723Y-1533410D01*
X397917Y-1533077D01*
X398084Y-1532689D01*
X398250Y-1532244D01*
X398389Y-1531772D01*
X398556Y-1531273D01*
X398667Y-1530717D01*
X398750Y-1530107D01*
X398806Y-1529468D01*
X398833Y-1528802D01*
X398833Y-1528774D01*
X398833Y-1528691D01*
X398833Y-1528580D01*
X398833Y-1528413D01*
X398806Y-1528219D01*
X398806Y-1527969D01*
X398778Y-1527719D01*
X398722Y-1527414D01*
X398639Y-1526775D01*
X398500Y-1526109D01*
X398306Y-1525387D01*
X398028Y-1524721D01*
X398028Y-1524693D01*
X398000Y-1524637D01*
X397945Y-1524554D01*
X397889Y-1524443D01*
X397695Y-1524110D01*
X397445Y-1523721D01*
X397112Y-1523277D01*
X396696Y-1522833D01*
X396224Y-1522389D01*
X395696Y-1522000D01*
X395668Y-1522000D01*
X395641Y-1521945D01*
X395557Y-1521917D01*
X395419Y-1521833D01*
X395280Y-1521778D01*
X395113Y-1521695D01*
X394697Y-1521500D01*
X394197Y-1521334D01*
X393614Y-1521167D01*
X392948Y-1521056D01*
X392254Y-1521028D01*
X392254Y-1521028D02*
G37*
G36*
X310216Y-1521028D02*
X309967Y-1521028D01*
X309772Y-1521056D01*
X309522Y-1521084D01*
X309272Y-1521140D01*
X308967Y-1521195D01*
X308634Y-1521251D01*
X307912Y-1521473D01*
X307523Y-1521639D01*
X307135Y-1521806D01*
X306718Y-1522028D01*
X306330Y-1522278D01*
X305941Y-1522555D01*
X305580Y-1522888D01*
X305552Y-1522916D01*
X305497Y-1522972D01*
X305413Y-1523083D01*
X305275Y-1523249D01*
X305136Y-1523444D01*
X304969Y-1523694D01*
X304803Y-1523999D01*
X304608Y-1524360D01*
X304442Y-1524749D01*
X304247Y-1525220D01*
X304081Y-1525720D01*
X303942Y-1526275D01*
X303803Y-1526886D01*
X303720Y-1527580D01*
X303664Y-1528302D01*
X303637Y-1529079D01*
X303637Y-1529107D01*
X303637Y-1529218D01*
X303637Y-1529413D01*
X303664Y-1529662D01*
X303692Y-1529940D01*
X303748Y-1530273D01*
X303803Y-1530662D01*
X303859Y-1531051D01*
X304081Y-1531939D01*
X304247Y-1532383D01*
X304414Y-1532855D01*
X304636Y-1533299D01*
X304886Y-1533743D01*
X305164Y-1534160D01*
X305497Y-1534549D01*
X305525Y-1534576D01*
X305580Y-1534632D01*
X305691Y-1534743D01*
X305830Y-1534854D01*
X306024Y-1535021D01*
X306246Y-1535187D01*
X306496Y-1535354D01*
X306774Y-1535548D01*
X307107Y-1535742D01*
X307468Y-1535909D01*
X307857Y-1536076D01*
X308273Y-1536242D01*
X308717Y-1536353D01*
X309161Y-1536464D01*
X309661Y-1536520D01*
X310189Y-1536548D01*
X310327Y-1536548D01*
X310466Y-1536520D01*
X310660Y-1536520D01*
X310910Y-1536492D01*
X311188Y-1536436D01*
X311521Y-1536381D01*
X311854Y-1536298D01*
X312243Y-1536187D01*
X312604Y-1536048D01*
X313020Y-1535909D01*
X313409Y-1535715D01*
X313798Y-1535465D01*
X314186Y-1535215D01*
X314575Y-1534910D01*
X314936Y-1534549D01*
X314964Y-1534521D01*
X315019Y-1534465D01*
X315103Y-1534326D01*
X315241Y-1534160D01*
X315380Y-1533966D01*
X315519Y-1533716D01*
X315686Y-1533410D01*
X315880Y-1533077D01*
X316046Y-1532689D01*
X316213Y-1532244D01*
X316352Y-1531772D01*
X316518Y-1531273D01*
X316629Y-1530717D01*
X316713Y-1530107D01*
X316768Y-1529468D01*
X316796Y-1528802D01*
X316796Y-1528774D01*
X316796Y-1528691D01*
X316796Y-1528580D01*
X316796Y-1528413D01*
X316768Y-1528219D01*
X316768Y-1527969D01*
X316740Y-1527719D01*
X316685Y-1527414D01*
X316602Y-1526775D01*
X316463Y-1526109D01*
X316269Y-1525387D01*
X315991Y-1524721D01*
X315991Y-1524693D01*
X315963Y-1524637D01*
X315908Y-1524554D01*
X315852Y-1524443D01*
X315658Y-1524110D01*
X315408Y-1523721D01*
X315075Y-1523277D01*
X314658Y-1522833D01*
X314186Y-1522389D01*
X313659Y-1522000D01*
X313631Y-1522000D01*
X313603Y-1521945D01*
X313520Y-1521917D01*
X313381Y-1521834D01*
X313242Y-1521778D01*
X313076Y-1521695D01*
X312659Y-1521500D01*
X312160Y-1521334D01*
X311577Y-1521167D01*
X310910Y-1521056D01*
X310216Y-1521028D01*
X310216Y-1521028D02*
G37*
G36*
X186397Y-1521028D02*
X186147Y-1521028D01*
X185953Y-1521056D01*
X185703Y-1521084D01*
X185453Y-1521140D01*
X185148Y-1521195D01*
X184814Y-1521251D01*
X184093Y-1521473D01*
X183704Y-1521639D01*
X183315Y-1521806D01*
X182899Y-1522028D01*
X182510Y-1522278D01*
X182122Y-1522555D01*
X181761Y-1522888D01*
X181733Y-1522916D01*
X181677Y-1522972D01*
X181594Y-1523083D01*
X181455Y-1523249D01*
X181317Y-1523444D01*
X181150Y-1523694D01*
X180983Y-1523999D01*
X180789Y-1524360D01*
X180622Y-1524749D01*
X180428Y-1525220D01*
X180261Y-1525720D01*
X180123Y-1526275D01*
X179984Y-1526886D01*
X179901Y-1527580D01*
X179845Y-1528302D01*
X179817Y-1529079D01*
X179817Y-1529107D01*
X179817Y-1529218D01*
X179817Y-1529413D01*
X179845Y-1529662D01*
X179873Y-1529940D01*
X179928Y-1530273D01*
X179984Y-1530662D01*
X180039Y-1531051D01*
X180261Y-1531939D01*
X180428Y-1532383D01*
X180595Y-1532855D01*
X180817Y-1533299D01*
X181067Y-1533743D01*
X181344Y-1534160D01*
X181677Y-1534549D01*
X181705Y-1534576D01*
X181761Y-1534632D01*
X181872Y-1534743D01*
X182010Y-1534854D01*
X182205Y-1535021D01*
X182427Y-1535187D01*
X182677Y-1535354D01*
X182954Y-1535548D01*
X183288Y-1535742D01*
X183648Y-1535909D01*
X184037Y-1536076D01*
X184454Y-1536242D01*
X184898Y-1536353D01*
X185342Y-1536464D01*
X185842Y-1536520D01*
X186369Y-1536548D01*
X186508Y-1536548D01*
X186647Y-1536520D01*
X186841Y-1536520D01*
X187091Y-1536492D01*
X187369Y-1536436D01*
X187702Y-1536381D01*
X188035Y-1536298D01*
X188424Y-1536187D01*
X188785Y-1536048D01*
X189201Y-1535909D01*
X189590Y-1535715D01*
X189978Y-1535465D01*
X190367Y-1535215D01*
X190756Y-1534910D01*
X191117Y-1534549D01*
X191144Y-1534521D01*
X191200Y-1534465D01*
X191283Y-1534326D01*
X191422Y-1534160D01*
X191561Y-1533966D01*
X191700Y-1533716D01*
X191866Y-1533410D01*
X192060Y-1533077D01*
X192227Y-1532689D01*
X192394Y-1532244D01*
X192532Y-1531772D01*
X192699Y-1531273D01*
X192810Y-1530717D01*
X192893Y-1530107D01*
X192949Y-1529468D01*
X192977Y-1528802D01*
X192977Y-1528774D01*
X192977Y-1528691D01*
X192977Y-1528580D01*
X192977Y-1528413D01*
X192949Y-1528219D01*
X192949Y-1527969D01*
X192921Y-1527719D01*
X192866Y-1527414D01*
X192782Y-1526775D01*
X192643Y-1526109D01*
X192449Y-1525387D01*
X192171Y-1524721D01*
X192171Y-1524693D01*
X192144Y-1524637D01*
X192088Y-1524554D01*
X192033Y-1524443D01*
X191838Y-1524110D01*
X191588Y-1523721D01*
X191255Y-1523277D01*
X190839Y-1522833D01*
X190367Y-1522389D01*
X189839Y-1522000D01*
X189812Y-1522000D01*
X189784Y-1521945D01*
X189701Y-1521917D01*
X189562Y-1521834D01*
X189423Y-1521778D01*
X189256Y-1521695D01*
X188840Y-1521500D01*
X188340Y-1521334D01*
X187757Y-1521167D01*
X187091Y-1521056D01*
X186397Y-1521028D01*
X186397Y-1521028D02*
G37*
G36*
X2592580Y-1602743D02*
X2591874Y-1602743D01*
X2591028Y-1603025D01*
X2590181Y-1603307D01*
X2589193Y-1603872D01*
X2588488Y-1604577D01*
X2587923Y-1605706D01*
X2587641Y-1607258D01*
X2587641Y-1607399D01*
X2587641Y-1607540D01*
X2587782Y-1608387D01*
X2588206Y-1609516D01*
X2589052Y-1610786D01*
X2589334Y-1611068D01*
X2590040Y-1611491D01*
X2591169Y-1611914D01*
X2592580Y-1612197D01*
X2592721Y-1612197D01*
X2593285Y-1612056D01*
X2593990Y-1611914D01*
X2594978Y-1611632D01*
X2595825Y-1610927D01*
X2596530Y-1610080D01*
X2597095Y-1608951D01*
X2597236Y-1607258D01*
X2597236Y-1607117D01*
X2597236Y-1606553D01*
X2596954Y-1605847D01*
X2596671Y-1605001D01*
X2596107Y-1604154D01*
X2595261Y-1603449D01*
X2594132Y-1602884D01*
X2592580Y-1602743D01*
X2592580Y-1602743D02*
G37*
%LPD*%
G36*
X2593849Y-1604295D02*
X2594555Y-1604860D01*
X2594837Y-1605283D01*
X2594978Y-1605988D01*
X2594978Y-1606129D01*
X2594978Y-1606270D01*
X2594837Y-1606976D01*
X2594273Y-1607540D01*
X2593849Y-1607823D01*
X2593285Y-1607964D01*
X2595119Y-1610786D01*
X2593990Y-1610786D01*
X2592297Y-1607964D01*
X2591169Y-1607964D01*
X2591169Y-1610786D01*
X2590181Y-1610786D01*
X2590181Y-1604013D01*
X2593003Y-1604013D01*
X2593849Y-1604295D01*
X2593849Y-1604295D02*
G37*
%LPC*%
G36*
X2592862Y-1605001D02*
X2591169Y-1605001D01*
X2591169Y-1607117D01*
X2593003Y-1607117D01*
X2593426Y-1606976D01*
X2593708Y-1606694D01*
X2593849Y-1605988D01*
X2593849Y-1605847D01*
X2593708Y-1605424D01*
X2593426Y-1605142D01*
X2592862Y-1605001D01*
X2592862Y-1605001D02*
G37*
G36*
X2536000Y-1616571D02*
X2535576Y-1616571D01*
X2535012Y-1616712D01*
X2534448Y-1616994D01*
X2533742Y-1617417D01*
X2532896Y-1617982D01*
X2532049Y-1618687D01*
X2531203Y-1619816D01*
X2522313Y-1632374D01*
X2549263Y-1675126D01*
X2549404Y-1675267D01*
X2549686Y-1675690D01*
X2550110Y-1676396D01*
X2550674Y-1676960D01*
X2551379Y-1677666D01*
X2552226Y-1678371D01*
X2552931Y-1678794D01*
X2553778Y-1678936D01*
X2554201Y-1678936D01*
X2554766Y-1678794D01*
X2555330Y-1678512D01*
X2556035Y-1678230D01*
X2556882Y-1677807D01*
X2557729Y-1677101D01*
X2558434Y-1676114D01*
X2567888Y-1662568D01*
X2540797Y-1619957D01*
X2540656Y-1619816D01*
X2540374Y-1619393D01*
X2539951Y-1618828D01*
X2539386Y-1618264D01*
X2538681Y-1617699D01*
X2537834Y-1617135D01*
X2536987Y-1616712D01*
X2536000Y-1616571D01*
X2536000Y-1616571D02*
G37*
G36*
X2687679Y-1720136D02*
X2673993Y-1720136D01*
X2673993Y-1728884D01*
X2688526Y-1728884D01*
X2688808Y-1728743D01*
X2689231Y-1728461D01*
X2689655Y-1728037D01*
X2690078Y-1727332D01*
X2690219Y-1726485D01*
X2690360Y-1725356D01*
X2690360Y-1723945D01*
X2690360Y-1723804D01*
X2690360Y-1723381D01*
X2690219Y-1722676D01*
X2690078Y-1721970D01*
X2689655Y-1721406D01*
X2689231Y-1720700D01*
X2688526Y-1720277D01*
X2687679Y-1720136D01*
X2687679Y-1720136D02*
G37*
G36*
X2532613Y-1720136D02*
X2520056Y-1720136D01*
X2520056Y-1728743D01*
X2533742Y-1728743D01*
X2534165Y-1728602D01*
X2534730Y-1728320D01*
X2535294Y-1727896D01*
X2535718Y-1727191D01*
X2536000Y-1726344D01*
X2536141Y-1725074D01*
X2536141Y-1723945D01*
X2536141Y-1723804D01*
X2536141Y-1723381D01*
X2536000Y-1722676D01*
X2535718Y-1721970D01*
X2535294Y-1721406D01*
X2534589Y-1720700D01*
X2533742Y-1720277D01*
X2532613Y-1720136D01*
X2532613Y-1720136D02*
G37*
G36*
X2568593Y-1720136D02*
X2558999Y-1720136D01*
X2558152Y-1720277D01*
X2557023Y-1720841D01*
X2556459Y-1721124D01*
X2556035Y-1721688D01*
X2555894Y-1721970D01*
X2555753Y-1722393D01*
X2555471Y-1722958D01*
X2555330Y-1723663D01*
X2555048Y-1724651D01*
X2554907Y-1725780D01*
X2554907Y-1727191D01*
X2554907Y-1731000D01*
X2554907Y-1731141D01*
X2554907Y-1731706D01*
X2554907Y-1732270D01*
X2555048Y-1733117D01*
X2555189Y-1734951D01*
X2555330Y-1735798D01*
X2555612Y-1736503D01*
X2555753Y-1736785D01*
X2556318Y-1737209D01*
X2557305Y-1737632D01*
X2558011Y-1737914D01*
X2568311Y-1737914D01*
X2568875Y-1737773D01*
X2569581Y-1737491D01*
X2570428Y-1737068D01*
X2571274Y-1736221D01*
X2571979Y-1734951D01*
X2572262Y-1734245D01*
X2572544Y-1733258D01*
X2572685Y-1732270D01*
X2572685Y-1731000D01*
X2572685Y-1727191D01*
X2572685Y-1727050D01*
X2572685Y-1726485D01*
X2572685Y-1725921D01*
X2572544Y-1725074D01*
X2572121Y-1723240D01*
X2571697Y-1722393D01*
X2571274Y-1721688D01*
X2571274Y-1721547D01*
X2570992Y-1721406D01*
X2570286Y-1720841D01*
X2569299Y-1720418D01*
X2568593Y-1720136D01*
X2568593Y-1720136D02*
G37*
%LPD*%
D10*
X72997Y158678D02*
X72997Y162011D01*
X72997Y160345D01*
X64666Y160345D01*
X63000Y162011D01*
X63000Y163677D01*
X64666Y165343D01*
X63000Y155346D02*
X63000Y152014D01*
X63000Y153680D01*
X72997Y153680D01*
X71331Y155346D01*
X71331Y147015D02*
X72997Y145349D01*
X72997Y142017D01*
X71331Y140351D01*
X64666Y140351D01*
X63000Y142017D01*
X63000Y145349D01*
X64666Y147015D01*
X71331Y147015D01*
X679867Y109787D02*
X683199Y109787D01*
X681533Y109787D01*
X681533Y118118D01*
X683199Y119784D01*
X684865Y119784D01*
X686531Y118118D01*
X669870Y109787D02*
X673202Y111453D01*
X676534Y114785D01*
X676534Y118118D01*
X674868Y119784D01*
X671536Y119784D01*
X669870Y118118D01*
X669870Y116452D01*
X671536Y114785D01*
X676534Y114785D01*
X142645Y242075D02*
X145977Y242075D01*
X144311Y242075D01*
X144311Y252072D01*
X142645Y250406D01*
X150450Y267871D02*
X150450Y274536D01*
X148784Y276202D01*
X145451Y276202D01*
X143785Y274536D01*
X143785Y267871D01*
X145451Y266205D01*
X148784Y266205D01*
X147117Y269537D02*
X150450Y266205D01*
X148784Y266205D02*
X150450Y267871D01*
X153782Y274536D02*
X155448Y276202D01*
X158780Y276202D01*
X160446Y274536D01*
X160446Y272869D01*
X158780Y271203D01*
X157114Y271203D01*
X158780Y271203D01*
X160446Y269537D01*
X160446Y267871D01*
X158780Y266205D01*
X155448Y266205D01*
X153782Y267871D01*
X892003Y174091D02*
X892003Y170758D01*
X892003Y172425D01*
X900334Y172425D01*
X902000Y170758D01*
X902000Y169092D01*
X900334Y167426D01*
X902000Y177423D02*
X902000Y180755D01*
X902000Y179089D01*
X892003Y179089D01*
X893669Y177423D01*
X482974Y19837D02*
X491304Y19837D01*
X492970Y21503D01*
X492970Y24835D01*
X491304Y26501D01*
X482974Y26501D01*
X491304Y29834D02*
X492970Y31500D01*
X492970Y34832D01*
X491304Y36498D01*
X484640Y36498D01*
X482974Y34832D01*
X482974Y31500D01*
X484640Y29834D01*
X486306Y29834D01*
X487972Y31500D01*
X487972Y36498D01*
X124457Y330116D02*
X124457Y333448D01*
X124457Y331782D01*
X116126Y331782D01*
X114460Y333448D01*
X114460Y335114D01*
X116126Y336780D01*
X124457Y326783D02*
X124457Y320119D01*
X122791Y320119D01*
X116126Y326783D01*
X114460Y326783D01*
X111126Y333764D02*
X111126Y330432D01*
X111126Y332098D01*
X121123Y332098D01*
X119457Y333764D01*
X615934Y332657D02*
X612602Y332657D01*
X614268Y332657D01*
X614268Y324326D01*
X612602Y322660D01*
X610936Y322660D01*
X609270Y324326D01*
X624265Y322660D02*
X624265Y332657D01*
X619267Y327658D01*
X625931Y327658D01*
X551340Y273050D02*
X548008Y273050D01*
X549674Y273050D01*
X549674Y263053D01*
X551340Y264719D01*
X543895Y294833D02*
X547228Y294833D01*
X545562Y294833D01*
X545562Y303164D01*
X547228Y304830D01*
X548894Y304830D01*
X550560Y303164D01*
X533899Y304830D02*
X540563Y304830D01*
X533899Y298165D01*
X533899Y296499D01*
X535565Y294833D01*
X538897Y294833D01*
X540563Y296499D01*
X613434Y270526D02*
X613434Y277190D01*
X611768Y278856D01*
X608436Y278856D01*
X606770Y277190D01*
X606770Y270526D01*
X608436Y268860D01*
X611768Y268860D01*
X610102Y272192D02*
X613434Y268860D01*
X611768Y268860D02*
X613434Y270526D01*
X616767Y268860D02*
X620099Y268860D01*
X618433Y268860D01*
X618433Y278856D01*
X616767Y277190D01*
X605630Y244730D02*
X608962Y244730D01*
X607296Y244730D01*
X607296Y254726D01*
X605630Y253060D01*
X152833Y330954D02*
X149501Y330954D01*
X151167Y330954D01*
X151167Y322624D01*
X149501Y320957D01*
X147835Y320957D01*
X146168Y322624D01*
X162830Y330954D02*
X156165Y330954D01*
X156165Y325956D01*
X159497Y327622D01*
X161164Y327622D01*
X162830Y325956D01*
X162830Y322624D01*
X161164Y320957D01*
X157831Y320957D01*
X156165Y322624D01*
X3373571Y-1593883D02*
X3373571Y-1602453D01*
X3370000Y-1596025D02*
X3377142Y-1600310D01*
X3377142Y-1596025D02*
X3370000Y-1600310D01*
X3383783Y-1593883D02*
X3383783Y-1602453D01*
X3380212Y-1596025D02*
X3387354Y-1600310D01*
X3387354Y-1596025D02*
X3380212Y-1600310D01*
D11*
X3310000Y-1840580D02*
X3310000Y-1796380D01*
X3000000Y-1840580D02*
X3000000Y-1676380D01*
X3180000Y-1796380D02*
X3180000Y-1736380D01*
X3385000Y-1840580D02*
X3385000Y-1736380D01*
X2380000Y-1840580D02*
X2380000Y-1586380D01*
X2720000Y-1840580D02*
X2720000Y-1586380D01*
X3538200Y-1840580D02*
X3538200Y-1586380D01*
X2380000Y-1840580D02*
X3538200Y-1840580D01*
X2720000Y-1796380D02*
X3538200Y-1796380D01*
X2720000Y-1736380D02*
X3538200Y-1736380D01*
X2720000Y-1676380D02*
X3538200Y-1676380D01*
X2380000Y-1586380D02*
X3538200Y-1586380D01*
X2039600Y-1840580D02*
X2395200Y-1840580D01*
X414000Y-1891380D02*
X414000Y-1840580D01*
X-221000Y-1288130D02*
X-170200Y-1288130D01*
X-221000Y-684880D02*
X-170200Y-684880D01*
X-221000Y-81630D02*
X-170200Y-81630D01*
X-170200Y-1840580D02*
X3538200Y-1840580D01*
X-170200Y-1840580D02*
X-170200Y470820D01*
X-221000Y-1891380D02*
X3589000Y-1891380D01*
X-221000Y-1891380D02*
X-221000Y521620D01*
X3538200Y-1840580D02*
X3538200Y-1535780D01*
X1049000Y-1891380D02*
X1049000Y-1840580D01*
X1684000Y-1891380D02*
X1684000Y-1840580D01*
X2319000Y-1891380D02*
X2319000Y-1840580D01*
X2954000Y-1891380D02*
X2954000Y-1840580D01*
X3538200Y-1288130D02*
X3589000Y-1288130D01*
X3538200Y-684880D02*
X3589000Y-684880D01*
X3538200Y-81630D02*
X3589000Y-81630D01*
X3589000Y-1891380D02*
X3589000Y521620D01*
X3538200Y-1840580D02*
X3538200Y470820D01*
X414000Y470820D02*
X414000Y521620D01*
X-221000Y521620D02*
X3589000Y521620D01*
X-170200Y470820D02*
X3538200Y470820D01*
X1049000Y470820D02*
X1049000Y521620D01*
X1684000Y470820D02*
X1684000Y521620D01*
X2319000Y470820D02*
X2319000Y521620D01*
X2954000Y470820D02*
X2954000Y521620D01*
X3010000Y-1799952D02*
X3010000Y-1811380D01*
X3016530Y-1811380D01*
X3026489Y-1811380D02*
X3022135Y-1799952D01*
X3017782Y-1811380D01*
X3019414Y-1807571D02*
X3024856Y-1807571D01*
X3029155Y-1799952D02*
X3033508Y-1805394D01*
X3033508Y-1811380D01*
X3037862Y-1799952D02*
X3033508Y-1805394D01*
X3046405Y-1799952D02*
X3039331Y-1799952D01*
X3039331Y-1811380D01*
X3046405Y-1811380D01*
X3039331Y-1805394D02*
X3043684Y-1805394D01*
X3048310Y-1799952D02*
X3048310Y-1811380D01*
X3048310Y-1799952D02*
X3053207Y-1799952D01*
X3054840Y-1800497D01*
X3055384Y-1801041D01*
X3055928Y-1802129D01*
X3055928Y-1803217D01*
X3055384Y-1804306D01*
X3054840Y-1804850D01*
X3053207Y-1805394D01*
X3048310Y-1805394D01*
X3052119Y-1805394D02*
X3055928Y-1811380D01*
X3067464Y-1799952D02*
X3067464Y-1811380D01*
X3067464Y-1799952D02*
X3075083Y-1811380D01*
X3075083Y-1799952D02*
X3075083Y-1811380D01*
X3086945Y-1811380D02*
X3082592Y-1799952D01*
X3078239Y-1811380D01*
X3079872Y-1807571D02*
X3085313Y-1807571D01*
X3089612Y-1799952D02*
X3089612Y-1811380D01*
X3089612Y-1799952D02*
X3093965Y-1811380D01*
X3098319Y-1799952D02*
X3093965Y-1811380D01*
X3098319Y-1799952D02*
X3098319Y-1811380D01*
X3108658Y-1799952D02*
X3101584Y-1799952D01*
X3101584Y-1811380D01*
X3108658Y-1811380D01*
X3101584Y-1805394D02*
X3105937Y-1805394D01*
X3111107Y-1803761D02*
X3110563Y-1804306D01*
X3111107Y-1804850D01*
X3111651Y-1804306D01*
X3111107Y-1803761D01*
X3111107Y-1810291D02*
X3110563Y-1810836D01*
X3111107Y-1811380D01*
X3111651Y-1810836D01*
X3111107Y-1810291D01*
X3317500Y-1802452D02*
X3317500Y-1813880D01*
X3317500Y-1802452D02*
X3322397Y-1802452D01*
X3324030Y-1802997D01*
X3324574Y-1803541D01*
X3325118Y-1804629D01*
X3325118Y-1805717D01*
X3324574Y-1806806D01*
X3324030Y-1807350D01*
X3322397Y-1807894D01*
X3317500Y-1807894D01*
X3321309Y-1807894D02*
X3325118Y-1813880D01*
X3334750Y-1802452D02*
X3327676Y-1802452D01*
X3327676Y-1813880D01*
X3334750Y-1813880D01*
X3327676Y-1807894D02*
X3332029Y-1807894D01*
X3336655Y-1802452D02*
X3341008Y-1813880D01*
X3345362Y-1802452D02*
X3341008Y-1813880D01*
X3347375Y-1806261D02*
X3346831Y-1806806D01*
X3347375Y-1807350D01*
X3347919Y-1806806D01*
X3347375Y-1806261D01*
X3347375Y-1812791D02*
X3346831Y-1813336D01*
X3347375Y-1813880D01*
X3347919Y-1813336D01*
X3347375Y-1812791D01*
X3397000Y-1744952D02*
X3397000Y-1756380D01*
X3397000Y-1744952D02*
X3400809Y-1744952D01*
X3402442Y-1745497D01*
X3403530Y-1746585D01*
X3404074Y-1747673D01*
X3404619Y-1749306D01*
X3404619Y-1752027D01*
X3404074Y-1753659D01*
X3403530Y-1754747D01*
X3402442Y-1755836D01*
X3400809Y-1756380D01*
X3397000Y-1756380D01*
X3415883Y-1756380D02*
X3411530Y-1744952D01*
X3407176Y-1756380D01*
X3408809Y-1752571D02*
X3414250Y-1752571D01*
X3422358Y-1744952D02*
X3422358Y-1756380D01*
X3418549Y-1744952D02*
X3426168Y-1744952D01*
X3434602Y-1744952D02*
X3427528Y-1744952D01*
X3427528Y-1756380D01*
X3434602Y-1756380D01*
X3427528Y-1750394D02*
X3431881Y-1750394D01*
X3437051Y-1748761D02*
X3436507Y-1749306D01*
X3437051Y-1749850D01*
X3437595Y-1749306D01*
X3437051Y-1748761D01*
X3437051Y-1755291D02*
X3436507Y-1755836D01*
X3437051Y-1756380D01*
X3437595Y-1755836D01*
X3437051Y-1755291D01*
X2733809Y-1599952D02*
X2733809Y-1611380D01*
X2730000Y-1599952D02*
X2737618Y-1599952D01*
X2738979Y-1599952D02*
X2738979Y-1611380D01*
X2745182Y-1599952D02*
X2745182Y-1611380D01*
X2741373Y-1599952D02*
X2748992Y-1599952D01*
X2750352Y-1599952D02*
X2750352Y-1611380D01*
X2756882Y-1611380D01*
X2765208Y-1599952D02*
X2758134Y-1599952D01*
X2758134Y-1611380D01*
X2765208Y-1611380D01*
X2758134Y-1605394D02*
X2762487Y-1605394D01*
X2767657Y-1603761D02*
X2767112Y-1604306D01*
X2767657Y-1604850D01*
X2768201Y-1604306D01*
X2767657Y-1603761D01*
X2767657Y-1610291D02*
X2767112Y-1610836D01*
X2767657Y-1611380D01*
X2768201Y-1610836D01*
X2767657Y-1610291D01*
D12*
X491930Y114178D02*
X491930Y98943D01*
X502087Y98943D01*
X507165Y111639D02*
X509704Y114178D01*
X514782Y114178D01*
X517322Y111639D01*
X517322Y109099D01*
X514782Y106560D01*
X512243Y106560D01*
X514782Y106560D01*
X517322Y104021D01*
X517322Y101482D01*
X514782Y98943D01*
X509704Y98943D01*
X507165Y101482D01*
X627930Y93708D02*
X627930Y108943D01*
X617773Y108943D01*
X602538Y108943D02*
X612695Y108943D01*
X602538Y98786D01*
X602538Y96247D01*
X605077Y93708D01*
X610156Y93708D01*
X612695Y96247D01*
X3538200Y380820D02*
X3538200Y470820D01*
X2323200Y470820D02*
X3538200Y470820D01*
X2558200Y380820D02*
X2558200Y425820D01*
X2323200Y425820D02*
X2323200Y470820D01*
X2323200Y425820D02*
X3538200Y425820D01*
X2433200Y425820D02*
X2433200Y470820D01*
X2558200Y425820D02*
X2558200Y470820D01*
X3343200Y425820D02*
X3343200Y470820D01*
X2323200Y380820D02*
X2323200Y425820D01*
X2323200Y380820D02*
X3538200Y380820D01*
X3343200Y380820D02*
X3343200Y425820D01*
X2433200Y380820D02*
X2433200Y425820D01*
X2348200Y440820D02*
X2348200Y456055D01*
X2355818Y456055D01*
X2358357Y453516D01*
X2358357Y448438D01*
X2355818Y445899D01*
X2348200Y445899D01*
X2353279Y445899D02*
X2358357Y440820D01*
X2373592Y456055D02*
X2363435Y456055D01*
X2363435Y440820D01*
X2373592Y440820D01*
X2363435Y448438D02*
X2368514Y448438D01*
X2378670Y456055D02*
X2378670Y445899D01*
X2383749Y440820D01*
X2388827Y445899D01*
X2388827Y456055D01*
X2458357Y456055D02*
X2448200Y456055D01*
X2448200Y440820D01*
X2458357Y440820D01*
X2448200Y448438D02*
X2453279Y448438D01*
X2473592Y453516D02*
X2471053Y456055D01*
X2465974Y456055D01*
X2463435Y453516D01*
X2463435Y443359D01*
X2465974Y440820D01*
X2471053Y440820D01*
X2473592Y443359D01*
X2486288Y456055D02*
X2481210Y456055D01*
X2478670Y453516D01*
X2478670Y443359D01*
X2481210Y440820D01*
X2486288Y440820D01*
X2488827Y443359D01*
X2488827Y453516D01*
X2486288Y456055D01*
X2923357Y448516D02*
X2920818Y451055D01*
X2915739Y451055D01*
X2913200Y448516D01*
X2913200Y438359D01*
X2915739Y435820D01*
X2920818Y435820D01*
X2923357Y438359D01*
X2930974Y435820D02*
X2936053Y435820D01*
X2938592Y438359D01*
X2938592Y443438D01*
X2936053Y445977D01*
X2930974Y445977D01*
X2928435Y443438D01*
X2928435Y438359D01*
X2930974Y435820D01*
X2943670Y435820D02*
X2943670Y445977D01*
X2946209Y445977D01*
X2948748Y443438D01*
X2948748Y435820D01*
X2948748Y443438D01*
X2951288Y445977D01*
X2953827Y443438D01*
X2953827Y435820D01*
X2958905Y435820D02*
X2958905Y445977D01*
X2961444Y445977D01*
X2963984Y443438D01*
X2963984Y435820D01*
X2963984Y443438D01*
X2966523Y445977D01*
X2969062Y443438D01*
X2969062Y435820D01*
X2981758Y435820D02*
X2976680Y435820D01*
X2974140Y438359D01*
X2974140Y443438D01*
X2976680Y445977D01*
X2981758Y445977D01*
X2984297Y443438D01*
X2984297Y440899D01*
X2974140Y440899D01*
X2989376Y435820D02*
X2989376Y445977D01*
X2996993Y445977D01*
X2999532Y443438D01*
X2999532Y435820D01*
X3007150Y448516D02*
X3007150Y445977D01*
X3004611Y445977D01*
X3009689Y445977D01*
X3007150Y445977D01*
X3007150Y438359D01*
X3009689Y435820D01*
X3017307Y435820D02*
X3024924Y435820D01*
X3027463Y438359D01*
X3024924Y440899D01*
X3019846Y440899D01*
X3017307Y443438D01*
X3019846Y445977D01*
X3027463Y445977D01*
X3393200Y451055D02*
X3393200Y435820D01*
X3400818Y435820D01*
X3403357Y438359D01*
X3403357Y448516D01*
X3400818Y451055D01*
X3393200Y451055D01*
X3410974Y445977D02*
X3416053Y445977D01*
X3418592Y443438D01*
X3418592Y435820D01*
X3410974Y435820D01*
X3408435Y438359D01*
X3410974Y440899D01*
X3418592Y440899D01*
X3426209Y448516D02*
X3426209Y445977D01*
X3423670Y445977D01*
X3428748Y445977D01*
X3426209Y445977D01*
X3426209Y438359D01*
X3428748Y435820D01*
X3443984Y435820D02*
X3438905Y435820D01*
X3436366Y438359D01*
X3436366Y443438D01*
X3438905Y445977D01*
X3443984Y445977D01*
X3446523Y443438D01*
X3446523Y440899D01*
X3436366Y440899D01*
D14*
X3360349Y-1817106D02*
X3360349Y-1825676D01*
X3356778Y-1819249D02*
X3363919Y-1823533D01*
X3363919Y-1819249D02*
X3356778Y-1823533D01*
X3370561Y-1817106D02*
X3370561Y-1825676D01*
X3366990Y-1819249D02*
X3374131Y-1823533D01*
X3374131Y-1819249D02*
X3366990Y-1823533D01*
X2733809Y-1710383D02*
X2733809Y-1719524D01*
X2730000Y-1712668D02*
X2737617Y-1717239D01*
X2737617Y-1712668D02*
X2730000Y-1717239D01*
X2744702Y-1710383D02*
X2744702Y-1719524D01*
X2740893Y-1712668D02*
X2748510Y-1717239D01*
X2748510Y-1712668D02*
X2740893Y-1717239D01*
X2432697Y-1817836D02*
X2431851Y-1816143D01*
X2430158Y-1814450D01*
X2428465Y-1813604D01*
X2425079Y-1813604D01*
X2423386Y-1814450D01*
X2421693Y-1816143D01*
X2420847Y-1817836D01*
X2420000Y-1820376D01*
X2420000Y-1824608D01*
X2420847Y-1827148D01*
X2421693Y-1828840D01*
X2423386Y-1830533D01*
X2425079Y-1831380D01*
X2428465Y-1831380D01*
X2430158Y-1830533D01*
X2431851Y-1828840D01*
X2432697Y-1827148D01*
X2437692Y-1813604D02*
X2437692Y-1831380D01*
X2437692Y-1822915D02*
X2440231Y-1820376D01*
X2441924Y-1819529D01*
X2444464Y-1819529D01*
X2446156Y-1820376D01*
X2447003Y-1822915D01*
X2447003Y-1831380D01*
X2461817Y-1819529D02*
X2461817Y-1831380D01*
X2461817Y-1822068D02*
X2460123Y-1820376D01*
X2458431Y-1819529D01*
X2455891Y-1819529D01*
X2454198Y-1820376D01*
X2452505Y-1822068D01*
X2451659Y-1824608D01*
X2451659Y-1826301D01*
X2452505Y-1828840D01*
X2454198Y-1830533D01*
X2455891Y-1831380D01*
X2458431Y-1831380D01*
X2460123Y-1830533D01*
X2461817Y-1828840D01*
X2466557Y-1819529D02*
X2466557Y-1831380D01*
X2466557Y-1822915D02*
X2469096Y-1820376D01*
X2470789Y-1819529D01*
X2473329Y-1819529D01*
X2475022Y-1820376D01*
X2475868Y-1822915D01*
X2475868Y-1831380D01*
X2490682Y-1813604D02*
X2490682Y-1831380D01*
X2490682Y-1822068D02*
X2488989Y-1820376D01*
X2487296Y-1819529D01*
X2484756Y-1819529D01*
X2483063Y-1820376D01*
X2481370Y-1822068D01*
X2480524Y-1824608D01*
X2480524Y-1826301D01*
X2481370Y-1828840D01*
X2483063Y-1830533D01*
X2484756Y-1831380D01*
X2487296Y-1831380D01*
X2488989Y-1830533D01*
X2490682Y-1828840D01*
X2495422Y-1813604D02*
X2495422Y-1831380D01*
X2499147Y-1824608D02*
X2509304Y-1824608D01*
X2509304Y-1822915D01*
X2508458Y-1821222D01*
X2507611Y-1820376D01*
X2505918Y-1819529D01*
X2503379Y-1819529D01*
X2501686Y-1820376D01*
X2499993Y-1822068D01*
X2499147Y-1824608D01*
X2499147Y-1826301D01*
X2499993Y-1828840D01*
X2501686Y-1830533D01*
X2503379Y-1831380D01*
X2505918Y-1831380D01*
X2507611Y-1830533D01*
X2509304Y-1828840D01*
X2513114Y-1819529D02*
X2513114Y-1831380D01*
X2513114Y-1824608D02*
X2513960Y-1822068D01*
X2515653Y-1820376D01*
X2517346Y-1819529D01*
X2519885Y-1819529D01*
X2523187Y-1830533D02*
X2522340Y-1831380D01*
X2521494Y-1830533D01*
X2522340Y-1829687D01*
X2523187Y-1830533D01*
X2523187Y-1832226D01*
X2522340Y-1833919D01*
X2521494Y-1834766D01*
X2554591Y-1831380D02*
X2547819Y-1813604D01*
X2541048Y-1831380D01*
X2543587Y-1825455D02*
X2552052Y-1825455D01*
X2570590Y-1813604D02*
X2558739Y-1831380D01*
X2558739Y-1813604D02*
X2570590Y-1813604D01*
X2558739Y-1831380D02*
X2570590Y-1831380D01*
X2606735Y-1813604D02*
X2604195Y-1814450D01*
X2603349Y-1816143D01*
X2603349Y-1817836D01*
X2604195Y-1819529D01*
X2605888Y-1820376D01*
X2609274Y-1821222D01*
X2611814Y-1822068D01*
X2613506Y-1823761D01*
X2614353Y-1825455D01*
X2614353Y-1827994D01*
X2613506Y-1829687D01*
X2612660Y-1830533D01*
X2610121Y-1831380D01*
X2606735Y-1831380D01*
X2604195Y-1830533D01*
X2603349Y-1829687D01*
X2602502Y-1827994D01*
X2602502Y-1825455D01*
X2603349Y-1823761D01*
X2605042Y-1822068D01*
X2607581Y-1821222D01*
X2610967Y-1820376D01*
X2612660Y-1819529D01*
X2613506Y-1817836D01*
X2613506Y-1816143D01*
X2612660Y-1814450D01*
X2610121Y-1813604D01*
X2606735Y-1813604D01*
X2628489Y-1813604D02*
X2620025Y-1813604D01*
X2619178Y-1821222D01*
X2620025Y-1820376D01*
X2622564Y-1819529D01*
X2625103Y-1819529D01*
X2627643Y-1820376D01*
X2629336Y-1822068D01*
X2630182Y-1824608D01*
X2630182Y-1826301D01*
X2629336Y-1828840D01*
X2627643Y-1830533D01*
X2625103Y-1831380D01*
X2622564Y-1831380D01*
X2620025Y-1830533D01*
X2619178Y-1829687D01*
X2618332Y-1827994D01*
X2635007Y-1817836D02*
X2635007Y-1816990D01*
X2635854Y-1815297D01*
X2636700Y-1814450D01*
X2638393Y-1813604D01*
X2641779Y-1813604D01*
X2643472Y-1814450D01*
X2644319Y-1815297D01*
X2645165Y-1816990D01*
X2645165Y-1818683D01*
X2644319Y-1820376D01*
X2642626Y-1822915D01*
X2634161Y-1831380D01*
X2646012Y-1831380D01*
X2650836Y-1817836D02*
X2650836Y-1816990D01*
X2651683Y-1815297D01*
X2652530Y-1814450D01*
X2654223Y-1813604D01*
X2657609Y-1813604D01*
X2659301Y-1814450D01*
X2660148Y-1815297D01*
X2660994Y-1816990D01*
X2660994Y-1818683D01*
X2660148Y-1820376D01*
X2658455Y-1822915D01*
X2649990Y-1831380D01*
X2661841Y-1831380D01*
X2674284Y-1813604D02*
X2665819Y-1825455D01*
X2678517Y-1825455D01*
X2674284Y-1813604D02*
X2674284Y-1831380D01*
X2410847Y-1792836D02*
X2410847Y-1791990D01*
X2411693Y-1790297D01*
X2412540Y-1789450D01*
X2414233Y-1788604D01*
X2417619Y-1788604D01*
X2419312Y-1789450D01*
X2420158Y-1790297D01*
X2421004Y-1791990D01*
X2421004Y-1793683D01*
X2420158Y-1795376D01*
X2418465Y-1797915D01*
X2410000Y-1806380D01*
X2421851Y-1806380D01*
X2427522Y-1788604D02*
X2436834Y-1788604D01*
X2431755Y-1795376D01*
X2434294Y-1795376D01*
X2435987Y-1796222D01*
X2436834Y-1797068D01*
X2437680Y-1799608D01*
X2437680Y-1801301D01*
X2436834Y-1803840D01*
X2435141Y-1805533D01*
X2432601Y-1806380D01*
X2430062Y-1806380D01*
X2427522Y-1805533D01*
X2426676Y-1804687D01*
X2425829Y-1802994D01*
X2451817Y-1788604D02*
X2443352Y-1788604D01*
X2442505Y-1796222D01*
X2443352Y-1795376D01*
X2445891Y-1794529D01*
X2448431Y-1794529D01*
X2450970Y-1795376D01*
X2452663Y-1797068D01*
X2453510Y-1799608D01*
X2453510Y-1801301D01*
X2452663Y-1803840D01*
X2450970Y-1805533D01*
X2448431Y-1806380D01*
X2445891Y-1806380D01*
X2443352Y-1805533D01*
X2442505Y-1804687D01*
X2441659Y-1802994D01*
X2467646Y-1788604D02*
X2459181Y-1788604D01*
X2458335Y-1796222D01*
X2459181Y-1795376D01*
X2461720Y-1794529D01*
X2464260Y-1794529D01*
X2466799Y-1795376D01*
X2468492Y-1797068D01*
X2469339Y-1799608D01*
X2469339Y-1801301D01*
X2468492Y-1803840D01*
X2466799Y-1805533D01*
X2464260Y-1806380D01*
X2461720Y-1806380D01*
X2459181Y-1805533D01*
X2458335Y-1804687D01*
X2457488Y-1802994D01*
X2487284Y-1788604D02*
X2491517Y-1806380D01*
X2495749Y-1788604D02*
X2491517Y-1806380D01*
X2495749Y-1788604D02*
X2499982Y-1806380D01*
X2504214Y-1788604D02*
X2499982Y-1806380D01*
X2508616Y-1804687D02*
X2507769Y-1805533D01*
X2508616Y-1806380D01*
X2509462Y-1805533D01*
X2508616Y-1804687D01*
X2540020Y-1792836D02*
X2539174Y-1791143D01*
X2537481Y-1789450D01*
X2535788Y-1788604D01*
X2532402Y-1788604D01*
X2530709Y-1789450D01*
X2529016Y-1791143D01*
X2528170Y-1792836D01*
X2527323Y-1795376D01*
X2527323Y-1799608D01*
X2528170Y-1802147D01*
X2529016Y-1803840D01*
X2530709Y-1805533D01*
X2532402Y-1806380D01*
X2535788Y-1806380D01*
X2537481Y-1805533D01*
X2539174Y-1803840D01*
X2540020Y-1802147D01*
X2545014Y-1788604D02*
X2545014Y-1806380D01*
X2545014Y-1797915D02*
X2547554Y-1795376D01*
X2549247Y-1794529D01*
X2551786Y-1794529D01*
X2553479Y-1795376D01*
X2554326Y-1797915D01*
X2554326Y-1806380D01*
X2569139Y-1794529D02*
X2569139Y-1806380D01*
X2569139Y-1797068D02*
X2567446Y-1795376D01*
X2565753Y-1794529D01*
X2563214Y-1794529D01*
X2561521Y-1795376D01*
X2559828Y-1797068D01*
X2558981Y-1799608D01*
X2558981Y-1801301D01*
X2559828Y-1803840D01*
X2561521Y-1805533D01*
X2563214Y-1806380D01*
X2565753Y-1806380D01*
X2567446Y-1805533D01*
X2569139Y-1803840D01*
X2573880Y-1794529D02*
X2573880Y-1806380D01*
X2573880Y-1797915D02*
X2576419Y-1795376D01*
X2578112Y-1794529D01*
X2580652Y-1794529D01*
X2582344Y-1795376D01*
X2583191Y-1797915D01*
X2583191Y-1806380D01*
X2598004Y-1788604D02*
X2598004Y-1806380D01*
X2598004Y-1797068D02*
X2596312Y-1795376D01*
X2594619Y-1794529D01*
X2592079Y-1794529D01*
X2590386Y-1795376D01*
X2588693Y-1797068D01*
X2587847Y-1799608D01*
X2587847Y-1801301D01*
X2588693Y-1803840D01*
X2590386Y-1805533D01*
X2592079Y-1806380D01*
X2594619Y-1806380D01*
X2596312Y-1805533D01*
X2598004Y-1803840D01*
X2602745Y-1788604D02*
X2602745Y-1806380D01*
X2606469Y-1799608D02*
X2616627Y-1799608D01*
X2616627Y-1797915D01*
X2615781Y-1796222D01*
X2614934Y-1795376D01*
X2613241Y-1794529D01*
X2610702Y-1794529D01*
X2609009Y-1795376D01*
X2607316Y-1797068D01*
X2606469Y-1799608D01*
X2606469Y-1801301D01*
X2607316Y-1803840D01*
X2609009Y-1805533D01*
X2610702Y-1806380D01*
X2613241Y-1806380D01*
X2614934Y-1805533D01*
X2616627Y-1803840D01*
X2620436Y-1794529D02*
X2620436Y-1806380D01*
X2620436Y-1799608D02*
X2621283Y-1797068D01*
X2622976Y-1795376D01*
X2624669Y-1794529D01*
X2627208Y-1794529D01*
X2642784Y-1788604D02*
X2642784Y-1806380D01*
X2642784Y-1788604D02*
X2650402Y-1788604D01*
X2652941Y-1789450D01*
X2653788Y-1790297D01*
X2654634Y-1791990D01*
X2654634Y-1793683D01*
X2653788Y-1795376D01*
X2652941Y-1796222D01*
X2650402Y-1797068D01*
X2642784Y-1797068D02*
X2650402Y-1797068D01*
X2652941Y-1797915D01*
X2653788Y-1798761D01*
X2654634Y-1800455D01*
X2654634Y-1802994D01*
X2653788Y-1804687D01*
X2652941Y-1805533D01*
X2650402Y-1806380D01*
X2642784Y-1806380D01*
X2658613Y-1788604D02*
X2658613Y-1806380D01*
X2662337Y-1794529D02*
X2667416Y-1806380D01*
X2672495Y-1794529D02*
X2667416Y-1806380D01*
X2685531Y-1788604D02*
X2685531Y-1806380D01*
X2685531Y-1797068D02*
X2683838Y-1795376D01*
X2682145Y-1794529D01*
X2679606Y-1794529D01*
X2677913Y-1795376D01*
X2676220Y-1797068D01*
X2675373Y-1799608D01*
X2675373Y-1801301D01*
X2676220Y-1803840D01*
X2677913Y-1805533D01*
X2679606Y-1806380D01*
X2682145Y-1806380D01*
X2683838Y-1805533D01*
X2685531Y-1803840D01*
X2691118Y-1804687D02*
X2690271Y-1805533D01*
X2691118Y-1806380D01*
X2691964Y-1805533D01*
X2691118Y-1804687D01*
X2397700Y-1761204D02*
X2397700Y-1778980D01*
X2397700Y-1761204D02*
X2404472Y-1778980D01*
X2411244Y-1761204D02*
X2404472Y-1778980D01*
X2411244Y-1761204D02*
X2411244Y-1778980D01*
X2418016Y-1761204D02*
X2418862Y-1762050D01*
X2419709Y-1761204D01*
X2418862Y-1760357D01*
X2418016Y-1761204D01*
X2418862Y-1767129D02*
X2418862Y-1778980D01*
X2432999Y-1769668D02*
X2431306Y-1767976D01*
X2429613Y-1767129D01*
X2427073Y-1767129D01*
X2425380Y-1767976D01*
X2423687Y-1769668D01*
X2422841Y-1772208D01*
X2422841Y-1773901D01*
X2423687Y-1776440D01*
X2425380Y-1778133D01*
X2427073Y-1778980D01*
X2429613Y-1778980D01*
X2431306Y-1778133D01*
X2432999Y-1776440D01*
X2436808Y-1767129D02*
X2436808Y-1778980D01*
X2436808Y-1772208D02*
X2437654Y-1769668D01*
X2439347Y-1767976D01*
X2441040Y-1767129D01*
X2443580Y-1767129D01*
X2449420Y-1767129D02*
X2447727Y-1767976D01*
X2446035Y-1769668D01*
X2445188Y-1772208D01*
X2445188Y-1773901D01*
X2446035Y-1776440D01*
X2447727Y-1778133D01*
X2449420Y-1778980D01*
X2451960Y-1778980D01*
X2453653Y-1778133D01*
X2455346Y-1776440D01*
X2456192Y-1773901D01*
X2456192Y-1772208D01*
X2455346Y-1769668D01*
X2453653Y-1767976D01*
X2451960Y-1767129D01*
X2449420Y-1767129D01*
X2470244Y-1769668D02*
X2468551Y-1767976D01*
X2466858Y-1767129D01*
X2464319Y-1767129D01*
X2462626Y-1767976D01*
X2460933Y-1769668D01*
X2460086Y-1772208D01*
X2460086Y-1773901D01*
X2460933Y-1776440D01*
X2462626Y-1778133D01*
X2464319Y-1778980D01*
X2466858Y-1778980D01*
X2468551Y-1778133D01*
X2470244Y-1776440D01*
X2474053Y-1761204D02*
X2474053Y-1778980D01*
X2474053Y-1770515D02*
X2476593Y-1767976D01*
X2478286Y-1767129D01*
X2480825Y-1767129D01*
X2482518Y-1767976D01*
X2483365Y-1770515D01*
X2483365Y-1778980D01*
X2489713Y-1761204D02*
X2490560Y-1762050D01*
X2491406Y-1761204D01*
X2490560Y-1760357D01*
X2489713Y-1761204D01*
X2490560Y-1767129D02*
X2490560Y-1778980D01*
X2494538Y-1767129D02*
X2494538Y-1784905D01*
X2494538Y-1769668D02*
X2496231Y-1767976D01*
X2497924Y-1767129D01*
X2500464Y-1767129D01*
X2502156Y-1767976D01*
X2503849Y-1769668D01*
X2504696Y-1772208D01*
X2504696Y-1773901D01*
X2503849Y-1776440D01*
X2502156Y-1778133D01*
X2500464Y-1778980D01*
X2497924Y-1778980D01*
X2496231Y-1778133D01*
X2494538Y-1776440D01*
X2528398Y-1761204D02*
X2528398Y-1778980D01*
X2522472Y-1761204D02*
X2534323Y-1761204D01*
X2536439Y-1772208D02*
X2546597Y-1772208D01*
X2546597Y-1770515D01*
X2545750Y-1768822D01*
X2544904Y-1767976D01*
X2543211Y-1767129D01*
X2540672Y-1767129D01*
X2538978Y-1767976D01*
X2537286Y-1769668D01*
X2536439Y-1772208D01*
X2536439Y-1773901D01*
X2537286Y-1776440D01*
X2538978Y-1778133D01*
X2540672Y-1778980D01*
X2543211Y-1778980D01*
X2544904Y-1778133D01*
X2546597Y-1776440D01*
X2560564Y-1769668D02*
X2558871Y-1767976D01*
X2557178Y-1767129D01*
X2554639Y-1767129D01*
X2552946Y-1767976D01*
X2551253Y-1769668D01*
X2550406Y-1772208D01*
X2550406Y-1773901D01*
X2551253Y-1776440D01*
X2552946Y-1778133D01*
X2554639Y-1778980D01*
X2557178Y-1778980D01*
X2558871Y-1778133D01*
X2560564Y-1776440D01*
X2564373Y-1761204D02*
X2564373Y-1778980D01*
X2564373Y-1770515D02*
X2566913Y-1767976D01*
X2568606Y-1767129D01*
X2571145Y-1767129D01*
X2572838Y-1767976D01*
X2573684Y-1770515D01*
X2573684Y-1778980D01*
X2578340Y-1767129D02*
X2578340Y-1778980D01*
X2578340Y-1770515D02*
X2580880Y-1767976D01*
X2582573Y-1767129D01*
X2585112Y-1767129D01*
X2586805Y-1767976D01*
X2587651Y-1770515D01*
X2587651Y-1778980D01*
X2596540Y-1767129D02*
X2594846Y-1767976D01*
X2593154Y-1769668D01*
X2592307Y-1772208D01*
X2592307Y-1773901D01*
X2593154Y-1776440D01*
X2594846Y-1778133D01*
X2596540Y-1778980D01*
X2599079Y-1778980D01*
X2600772Y-1778133D01*
X2602465Y-1776440D01*
X2603311Y-1773901D01*
X2603311Y-1772208D01*
X2602465Y-1769668D01*
X2600772Y-1767976D01*
X2599079Y-1767129D01*
X2596540Y-1767129D01*
X2607205Y-1761204D02*
X2607205Y-1778980D01*
X2615162Y-1767129D02*
X2613469Y-1767976D01*
X2611776Y-1769668D01*
X2610930Y-1772208D01*
X2610930Y-1773901D01*
X2611776Y-1776440D01*
X2613469Y-1778133D01*
X2615162Y-1778980D01*
X2617702Y-1778980D01*
X2619395Y-1778133D01*
X2621088Y-1776440D01*
X2621934Y-1773901D01*
X2621934Y-1772208D01*
X2621088Y-1769668D01*
X2619395Y-1767976D01*
X2617702Y-1767129D01*
X2615162Y-1767129D01*
X2635986Y-1767129D02*
X2635986Y-1780673D01*
X2635139Y-1783212D01*
X2634293Y-1784059D01*
X2632600Y-1784905D01*
X2630060Y-1784905D01*
X2628367Y-1784059D01*
X2635986Y-1769668D02*
X2634293Y-1767976D01*
X2632600Y-1767129D01*
X2630060Y-1767129D01*
X2628367Y-1767976D01*
X2626674Y-1769668D01*
X2625828Y-1772208D01*
X2625828Y-1773901D01*
X2626674Y-1776440D01*
X2628367Y-1778133D01*
X2630060Y-1778980D01*
X2632600Y-1778980D01*
X2634293Y-1778133D01*
X2635986Y-1776440D01*
X2641573Y-1767129D02*
X2646651Y-1778980D01*
X2651730Y-1767129D02*
X2646651Y-1778980D01*
X2644958Y-1782366D01*
X2643265Y-1784059D01*
X2641573Y-1784905D01*
X2640726Y-1784905D01*
X2668660Y-1761204D02*
X2668660Y-1778980D01*
X2672385Y-1767129D02*
X2672385Y-1778980D01*
X2672385Y-1770515D02*
X2674924Y-1767976D01*
X2676617Y-1767129D01*
X2679156Y-1767129D01*
X2680849Y-1767976D01*
X2681696Y-1770515D01*
X2681696Y-1778980D01*
X2696509Y-1769668D02*
X2694816Y-1767976D01*
X2693123Y-1767129D01*
X2690584Y-1767129D01*
X2688891Y-1767976D01*
X2687198Y-1769668D01*
X2686352Y-1772208D01*
X2686352Y-1773901D01*
X2687198Y-1776440D01*
X2688891Y-1778133D01*
X2690584Y-1778980D01*
X2693123Y-1778980D01*
X2694816Y-1778133D01*
X2696509Y-1776440D01*
X2701165Y-1777287D02*
X2700319Y-1778133D01*
X2701165Y-1778980D01*
X2702011Y-1778133D01*
X2701165Y-1777287D01*
X3010714Y-1712811D02*
X3010000Y-1712097D01*
X3010714Y-1711383D01*
X3011429Y-1712097D01*
X3011429Y-1713526D01*
X3010714Y-1714954D01*
X3010000Y-1715668D01*
X3018998Y-1711383D02*
X3016856Y-1712097D01*
X3015428Y-1714240D01*
X3014713Y-1717810D01*
X3014713Y-1719953D01*
X3015428Y-1723523D01*
X3016856Y-1725666D01*
X3018998Y-1726380D01*
X3020427Y-1726380D01*
X3022569Y-1725666D01*
X3023997Y-1723523D01*
X3024711Y-1719953D01*
X3024711Y-1717810D01*
X3023997Y-1714240D01*
X3022569Y-1712097D01*
X3020427Y-1711383D01*
X3018998Y-1711383D01*
X3036637Y-1711383D02*
X3029496Y-1711383D01*
X3028782Y-1717810D01*
X3029496Y-1717096D01*
X3031638Y-1716382D01*
X3033781Y-1716382D01*
X3035923Y-1717096D01*
X3037351Y-1718524D01*
X3038065Y-1720667D01*
X3038065Y-1722095D01*
X3037351Y-1724238D01*
X3035923Y-1725666D01*
X3033781Y-1726380D01*
X3031638Y-1726380D01*
X3029496Y-1725666D01*
X3028782Y-1724952D01*
X3028068Y-1723523D01*
X3041422Y-1719953D02*
X3054276Y-1719953D01*
X3058704Y-1731379D02*
X3070130Y-1731379D01*
X3072058Y-1731379D02*
X3083484Y-1731379D01*
X3085413Y-1719953D02*
X3098267Y-1719953D01*
X3102694Y-1711383D02*
X3102694Y-1726380D01*
X3102694Y-1711383D02*
X3109122Y-1711383D01*
X3111264Y-1712097D01*
X3111978Y-1712811D01*
X3112692Y-1714240D01*
X3112692Y-1715668D01*
X3111978Y-1717096D01*
X3111264Y-1717810D01*
X3109122Y-1718524D01*
X3102694Y-1718524D01*
X3107693Y-1718524D02*
X3112692Y-1726380D01*
X3116049Y-1731379D02*
X3127475Y-1731379D01*
X3129403Y-1731379D02*
X3140829Y-1731379D01*
X3143471Y-1724952D02*
X3142757Y-1725666D01*
X3143471Y-1726380D01*
X3144185Y-1725666D01*
X3143471Y-1724952D01*
X3158183Y-1714954D02*
X3157469Y-1713526D01*
X3156040Y-1712097D01*
X3154612Y-1711383D01*
X3151755Y-1711383D01*
X3150327Y-1712097D01*
X3148899Y-1713526D01*
X3148185Y-1714954D01*
X3147471Y-1717096D01*
X3147471Y-1720667D01*
X3148185Y-1722809D01*
X3148899Y-1724238D01*
X3150327Y-1725666D01*
X3151755Y-1726380D01*
X3154612Y-1726380D01*
X3156040Y-1725666D01*
X3157469Y-1724238D01*
X3158183Y-1722809D01*
X3158183Y-1720667D01*
X3154612Y-1720667D02*
X3158183Y-1720667D01*
X3161610Y-1711383D02*
X3161610Y-1726380D01*
X3161610Y-1711383D02*
X3167324Y-1726380D01*
X3173036Y-1711383D02*
X3167324Y-1726380D01*
X3173036Y-1711383D02*
X3173036Y-1726380D01*
X3177321Y-1714240D02*
X3178750Y-1713526D01*
X3180892Y-1711383D01*
X3180892Y-1726380D01*
X3188319Y-1714240D02*
X3189747Y-1713526D01*
X3191890Y-1711383D01*
X3191890Y-1726380D01*
X3200031Y-1712811D02*
X3199317Y-1712097D01*
X3200031Y-1711383D01*
X3200745Y-1712097D01*
X3200745Y-1713526D01*
X3200031Y-1714954D01*
X3199317Y-1715668D01*
X3275816Y-1858363D02*
X3274969Y-1856670D01*
X3272430Y-1855824D01*
X3270737Y-1855824D01*
X3268198Y-1856670D01*
X3266505Y-1859210D01*
X3265658Y-1863442D01*
X3265658Y-1867675D01*
X3266505Y-1871060D01*
X3268198Y-1872753D01*
X3270737Y-1873600D01*
X3271584Y-1873600D01*
X3274123Y-1872753D01*
X3275816Y-1871060D01*
X3276662Y-1868521D01*
X3276662Y-1867675D01*
X3275816Y-1865135D01*
X3274123Y-1863442D01*
X3271584Y-1862596D01*
X3270737Y-1862596D01*
X3268198Y-1863442D01*
X3266505Y-1865135D01*
X3265658Y-1867675D01*
X2639546Y-1855824D02*
X2631081Y-1855824D01*
X2630235Y-1863442D01*
X2631081Y-1862596D01*
X2633621Y-1861749D01*
X2636160Y-1861749D01*
X2638700Y-1862596D01*
X2640392Y-1864288D01*
X2641239Y-1866828D01*
X2641239Y-1868521D01*
X2640392Y-1871060D01*
X2638700Y-1872753D01*
X2636160Y-1873600D01*
X2633621Y-1873600D01*
X2631081Y-1872753D01*
X2630235Y-1871907D01*
X2629388Y-1870214D01*
X2003110Y-1855824D02*
X1994645Y-1867675D01*
X2007342Y-1867675D01*
X2003110Y-1855824D02*
X2003110Y-1873600D01*
X1359644Y-1855824D02*
X1368956Y-1855824D01*
X1363877Y-1862596D01*
X1366416Y-1862596D01*
X1368109Y-1863442D01*
X1368956Y-1864288D01*
X1369802Y-1866828D01*
X1369802Y-1868521D01*
X1368956Y-1871060D01*
X1367263Y-1872753D01*
X1364723Y-1873600D01*
X1362184Y-1873600D01*
X1359644Y-1872753D01*
X1358798Y-1871907D01*
X1357951Y-1870214D01*
X726505Y-1860056D02*
X726505Y-1859210D01*
X727351Y-1857517D01*
X728198Y-1856670D01*
X729891Y-1855824D01*
X733277Y-1855824D01*
X734969Y-1856670D01*
X735816Y-1857517D01*
X736662Y-1859210D01*
X736662Y-1860903D01*
X735816Y-1862596D01*
X734123Y-1865135D01*
X725658Y-1873600D01*
X737509Y-1873600D01*
X91760Y-1859210D02*
X93453Y-1858363D01*
X95992Y-1855824D01*
X95992Y-1873600D01*
X-201950Y-1593696D02*
X-201950Y-1611472D01*
X-201950Y-1593696D02*
X-196024Y-1593696D01*
X-193485Y-1594542D01*
X-191792Y-1596235D01*
X-190946Y-1597928D01*
X-190099Y-1600468D01*
X-190099Y-1604700D01*
X-190946Y-1607240D01*
X-191792Y-1608932D01*
X-193485Y-1610625D01*
X-196024Y-1611472D01*
X-201950Y-1611472D01*
X-189253Y-995948D02*
X-190099Y-994255D01*
X-191792Y-992562D01*
X-193485Y-991716D01*
X-196871Y-991716D01*
X-198564Y-992562D01*
X-200257Y-994255D01*
X-201103Y-995948D01*
X-201950Y-998488D01*
X-201950Y-1002720D01*
X-201103Y-1005259D01*
X-200257Y-1006952D01*
X-198564Y-1008645D01*
X-196871Y-1009492D01*
X-193485Y-1009492D01*
X-191792Y-1008645D01*
X-190099Y-1006952D01*
X-189253Y-1005259D01*
X-201950Y-388466D02*
X-201950Y-406242D01*
X-201950Y-388466D02*
X-194331Y-388466D01*
X-191792Y-389312D01*
X-190946Y-390159D01*
X-190099Y-391852D01*
X-190099Y-393545D01*
X-190946Y-395238D01*
X-191792Y-396084D01*
X-194331Y-396931D01*
X-201950Y-396931D02*
X-194331Y-396931D01*
X-191792Y-397777D01*
X-190946Y-398624D01*
X-190099Y-400317D01*
X-190099Y-402856D01*
X-190946Y-404549D01*
X-191792Y-405395D01*
X-194331Y-406242D01*
X-201950Y-406242D01*
X-188406Y198278D02*
X-195178Y216054D01*
X-201950Y198278D01*
X-199410Y204203D02*
X-190946Y204203D01*
X3557250Y-1593696D02*
X3557250Y-1611472D01*
X3557250Y-1593696D02*
X3563175Y-1593696D01*
X3565715Y-1594542D01*
X3567408Y-1596235D01*
X3568254Y-1597928D01*
X3569101Y-1600468D01*
X3569101Y-1604700D01*
X3568254Y-1607240D01*
X3567408Y-1608932D01*
X3565715Y-1610625D01*
X3563175Y-1611472D01*
X3557250Y-1611472D01*
X3569948Y-995948D02*
X3569101Y-994255D01*
X3567408Y-992562D01*
X3565715Y-991716D01*
X3562329Y-991716D01*
X3560636Y-992562D01*
X3558943Y-994255D01*
X3558097Y-995948D01*
X3557250Y-998488D01*
X3557250Y-1002720D01*
X3558097Y-1005259D01*
X3558943Y-1006952D01*
X3560636Y-1008645D01*
X3562329Y-1009492D01*
X3565715Y-1009492D01*
X3567408Y-1008645D01*
X3569101Y-1006952D01*
X3569948Y-1005259D01*
X3557250Y-388466D02*
X3557250Y-406242D01*
X3557250Y-388466D02*
X3564868Y-388466D01*
X3567408Y-389312D01*
X3568254Y-390159D01*
X3569101Y-391852D01*
X3569101Y-393545D01*
X3568254Y-395238D01*
X3567408Y-396084D01*
X3564868Y-396931D01*
X3557250Y-396931D02*
X3564868Y-396931D01*
X3567408Y-397777D01*
X3568254Y-398624D01*
X3569101Y-400317D01*
X3569101Y-402856D01*
X3568254Y-404549D01*
X3567408Y-405395D01*
X3564868Y-406242D01*
X3557250Y-406242D01*
X3570794Y198278D02*
X3564022Y216054D01*
X3557250Y198278D01*
X3559790Y204203D02*
X3568254Y204203D01*
X3275816Y503837D02*
X3274969Y505530D01*
X3272430Y506376D01*
X3270737Y506376D01*
X3268198Y505530D01*
X3266505Y502990D01*
X3265658Y498758D01*
X3265658Y494525D01*
X3266505Y491140D01*
X3268198Y489447D01*
X3270737Y488600D01*
X3271584Y488600D01*
X3274123Y489447D01*
X3275816Y491140D01*
X3276662Y493679D01*
X3276662Y494525D01*
X3275816Y497065D01*
X3274123Y498758D01*
X3271584Y499604D01*
X3270737Y499604D01*
X3268198Y498758D01*
X3266505Y497065D01*
X3265658Y494525D01*
X2639546Y506376D02*
X2631081Y506376D01*
X2630235Y498758D01*
X2631081Y499604D01*
X2633621Y500451D01*
X2636160Y500451D01*
X2638700Y499604D01*
X2640392Y497911D01*
X2641239Y495372D01*
X2641239Y493679D01*
X2640392Y491140D01*
X2638700Y489447D01*
X2636160Y488600D01*
X2633621Y488600D01*
X2631081Y489447D01*
X2630235Y490293D01*
X2629388Y491986D01*
X2003110Y506376D02*
X1994645Y494525D01*
X2007342Y494525D01*
X2003110Y506376D02*
X2003110Y488600D01*
X1359644Y506376D02*
X1368956Y506376D01*
X1363877Y499604D01*
X1366416Y499604D01*
X1368109Y498758D01*
X1368956Y497911D01*
X1369802Y495372D01*
X1369802Y493679D01*
X1368956Y491140D01*
X1367263Y489447D01*
X1364723Y488600D01*
X1362184Y488600D01*
X1359644Y489447D01*
X1358798Y490293D01*
X1357951Y491986D01*
X726505Y502144D02*
X726505Y502990D01*
X727351Y504683D01*
X728198Y505530D01*
X729891Y506376D01*
X733277Y506376D01*
X734969Y505530D01*
X735816Y504683D01*
X736662Y502990D01*
X736662Y501297D01*
X735816Y499604D01*
X734123Y497065D01*
X725658Y488600D01*
X737509Y488600D01*
X91760Y502990D02*
X93453Y503837D01*
X95992Y506376D01*
X95992Y488600D01*
D15*
X673411Y64795D02*
X668413Y64795D01*
X670912Y64795D01*
X670912Y52299D01*
X668413Y49799D01*
X665914Y49799D01*
X663415Y52299D01*
X678410Y52299D02*
X680909Y49799D01*
X685908Y49799D01*
X688407Y52299D01*
X688407Y62295D01*
X685908Y64795D01*
X680909Y64795D01*
X678410Y62295D01*
X678410Y59796D01*
X680909Y57297D01*
X688407Y57297D01*
X136317Y36375D02*
X136317Y41707D01*
X134984Y43039D01*
X132318Y43039D01*
X130985Y41707D01*
X130985Y36375D01*
X132318Y35042D01*
X134984Y35042D01*
X133651Y37708D02*
X136317Y35042D01*
X134984Y35042D02*
X136317Y36375D01*
X144314Y43039D02*
X138983Y43039D01*
X138983Y39041D01*
X141648Y40374D01*
X142981Y40374D01*
X144314Y39041D01*
X144314Y36375D01*
X142981Y35042D01*
X140316Y35042D01*
X138983Y36375D01*
X582528Y154890D02*
X582528Y161888D01*
X579030Y161888D01*
X577863Y160722D01*
X577863Y156057D01*
X579030Y154890D01*
X582528Y154890D01*
X572032Y161888D02*
X572032Y154890D01*
X575531Y158389D01*
X570865Y158389D01*
X593932Y53248D02*
X592682Y51999D01*
X592682Y49500D01*
X593932Y48250D01*
X598930Y48250D01*
X600180Y49500D01*
X600180Y51999D01*
X598930Y53248D01*
X600180Y55748D02*
X600180Y58247D01*
X600180Y56997D01*
X592682Y56997D01*
X593932Y55748D01*
X600180Y61996D02*
X600180Y64495D01*
X600180Y63245D01*
X592682Y63245D01*
X593932Y61996D01*
X199485Y29449D02*
X199485Y36447D01*
X195986Y36447D01*
X194820Y35281D01*
X194820Y30615D01*
X195986Y29449D01*
X199485Y29449D01*
X192487Y36447D02*
X190155Y36447D01*
X191321Y36447D01*
X191321Y29449D01*
X192487Y30615D01*
X461019Y31868D02*
X461019Y26536D01*
X462352Y25203D01*
X465018Y25203D01*
X466351Y26536D01*
X466351Y31868D01*
X465018Y33201D01*
X462352Y33201D01*
X463685Y30535D02*
X461019Y33201D01*
X462352Y33201D02*
X461019Y31868D01*
X453022Y33201D02*
X458353Y33201D01*
X453022Y27869D01*
X453022Y26536D01*
X454355Y25203D01*
X457020Y25203D01*
X458353Y26536D01*
X664341Y286569D02*
X671339Y286569D01*
X671339Y290068D01*
X670172Y291234D01*
X665507Y291234D01*
X664341Y290068D01*
X664341Y286569D01*
X671339Y298232D02*
X671339Y293567D01*
X666674Y298232D01*
X665507Y298232D01*
X664341Y297066D01*
X664341Y294733D01*
X665507Y293567D01*
X582486Y140671D02*
X582486Y147668D01*
X578987Y147668D01*
X577821Y146502D01*
X577821Y141837D01*
X578987Y140671D01*
X582486Y140671D01*
X570823Y140671D02*
X575488Y140671D01*
X575488Y144170D01*
X573155Y143003D01*
X571989Y143003D01*
X570823Y144170D01*
X570823Y146502D01*
X571989Y147668D01*
X574322Y147668D01*
X575488Y146502D01*
X199874Y231160D02*
X206872Y231160D01*
X206872Y234659D01*
X205705Y235825D01*
X201040Y235825D01*
X199874Y234659D01*
X199874Y231160D01*
X201040Y238158D02*
X199874Y239324D01*
X199874Y241657D01*
X201040Y242823D01*
X202207Y242823D01*
X203373Y241657D01*
X203373Y240490D01*
X203373Y241657D01*
X204539Y242823D01*
X205705Y242823D01*
X206872Y241657D01*
X206872Y239324D01*
X205705Y238158D01*
X2731856Y-1673880D02*
X2728428Y-1664882D01*
X2725000Y-1673880D01*
X2726286Y-1670880D02*
X2730570Y-1670880D01*
X2739954Y-1666167D02*
X2739097Y-1665310D01*
X2737812Y-1664882D01*
X2736098Y-1664882D01*
X2734812Y-1665310D01*
X2733955Y-1666167D01*
X2733955Y-1667024D01*
X2734384Y-1667881D01*
X2734812Y-1668310D01*
X2735669Y-1668738D01*
X2738240Y-1669595D01*
X2739097Y-1670024D01*
X2739525Y-1670452D01*
X2739954Y-1671309D01*
X2739954Y-1672594D01*
X2739097Y-1673451D01*
X2737812Y-1673880D01*
X2736098Y-1673880D01*
X2734812Y-1673451D01*
X2733955Y-1672594D01*
X2747967Y-1666167D02*
X2747110Y-1665310D01*
X2745824Y-1664882D01*
X2744110Y-1664882D01*
X2742825Y-1665310D01*
X2741968Y-1666167D01*
X2741968Y-1667024D01*
X2742397Y-1667881D01*
X2742825Y-1668310D01*
X2743682Y-1668738D01*
X2746253Y-1669595D01*
X2747110Y-1670024D01*
X2747538Y-1670452D01*
X2747967Y-1671309D01*
X2747967Y-1672594D01*
X2747110Y-1673451D01*
X2745824Y-1673880D01*
X2744110Y-1673880D01*
X2742825Y-1673451D01*
X2741968Y-1672594D01*
X2755551Y-1664882D02*
X2749980Y-1664882D01*
X2749980Y-1673880D01*
X2755551Y-1673880D01*
X2749980Y-1669167D02*
X2753409Y-1669167D01*
X2757050Y-1664882D02*
X2757050Y-1673880D01*
X2757050Y-1664882D02*
X2760478Y-1673880D01*
X2763906Y-1664882D02*
X2760478Y-1673880D01*
X2763906Y-1664882D02*
X2763906Y-1673880D01*
X2766477Y-1664882D02*
X2766477Y-1673880D01*
X2766477Y-1664882D02*
X2770333Y-1664882D01*
X2771619Y-1665310D01*
X2772047Y-1665739D01*
X2772476Y-1666596D01*
X2772476Y-1667453D01*
X2772047Y-1668310D01*
X2771619Y-1668738D01*
X2770333Y-1669167D01*
X2766477Y-1669167D02*
X2770333Y-1669167D01*
X2771619Y-1669595D01*
X2772047Y-1670024D01*
X2772476Y-1670880D01*
X2772476Y-1672166D01*
X2772047Y-1673023D01*
X2771619Y-1673451D01*
X2770333Y-1673880D01*
X2766477Y-1673880D01*
X2774490Y-1664882D02*
X2774490Y-1673880D01*
X2779631Y-1673880D01*
X2780617Y-1664882D02*
X2784045Y-1669167D01*
X2784045Y-1673880D01*
X2787473Y-1664882D02*
X2784045Y-1669167D01*
X2795699Y-1664882D02*
X2799127Y-1673880D01*
X2802555Y-1664882D02*
X2799127Y-1673880D01*
X2810568Y-1673880D02*
X2807140Y-1664882D01*
X2803712Y-1673880D01*
X2804997Y-1670880D02*
X2809282Y-1670880D01*
X2812667Y-1664882D02*
X2812667Y-1673880D01*
X2812667Y-1664882D02*
X2816523Y-1664882D01*
X2817809Y-1665310D01*
X2818237Y-1665739D01*
X2818666Y-1666596D01*
X2818666Y-1667453D01*
X2818237Y-1668310D01*
X2817809Y-1668738D01*
X2816523Y-1669167D01*
X2812667Y-1669167D01*
X2815667Y-1669167D02*
X2818666Y-1673880D01*
X2820680Y-1664882D02*
X2820680Y-1673880D01*
X2829421Y-1673880D02*
X2825993Y-1664882D01*
X2822565Y-1673880D01*
X2823850Y-1670880D02*
X2828135Y-1670880D01*
X2831520Y-1664882D02*
X2831520Y-1673880D01*
X2831520Y-1664882D02*
X2837519Y-1673880D01*
X2837519Y-1664882D02*
X2837519Y-1673880D01*
X2843004Y-1664882D02*
X2843004Y-1673880D01*
X2840004Y-1664882D02*
X2846003Y-1664882D01*
X2847503Y-1667881D02*
X2847074Y-1668310D01*
X2847503Y-1668738D01*
X2847931Y-1668310D01*
X2847503Y-1667881D01*
X2847503Y-1673023D02*
X2847074Y-1673451D01*
X2847503Y-1673880D01*
X2847931Y-1673451D01*
X2847503Y-1673023D01*
X3008333Y-1823882D02*
X3008333Y-1833880D01*
X3005000Y-1823882D02*
X3011665Y-1823882D01*
X3015236Y-1827215D02*
X3014284Y-1827691D01*
X3013332Y-1828643D01*
X3012856Y-1830071D01*
X3012856Y-1831023D01*
X3013332Y-1832452D01*
X3014284Y-1833404D01*
X3015236Y-1833880D01*
X3016664Y-1833880D01*
X3017617Y-1833404D01*
X3018569Y-1832452D01*
X3019045Y-1831023D01*
X3019045Y-1830071D01*
X3018569Y-1828643D01*
X3017617Y-1827691D01*
X3016664Y-1827215D01*
X3015236Y-1827215D01*
X3021235Y-1827215D02*
X3021235Y-1837213D01*
X3021235Y-1828643D02*
X3022187Y-1827691D01*
X3023139Y-1827215D01*
X3024567Y-1827215D01*
X3025519Y-1827691D01*
X3026472Y-1828643D01*
X3026948Y-1830071D01*
X3026948Y-1831023D01*
X3026472Y-1832452D01*
X3025519Y-1833404D01*
X3024567Y-1833880D01*
X3023139Y-1833880D01*
X3022187Y-1833404D01*
X3021235Y-1832452D01*
X3044563Y-1833880D02*
X3040754Y-1823882D01*
X3036945Y-1833880D01*
X3038374Y-1830547D02*
X3043135Y-1830547D01*
X3052133Y-1828643D02*
X3051657Y-1827691D01*
X3050229Y-1827215D01*
X3048800Y-1827215D01*
X3047372Y-1827691D01*
X3046896Y-1828643D01*
X3047372Y-1829595D01*
X3048324Y-1830071D01*
X3050705Y-1830547D01*
X3051657Y-1831023D01*
X3052133Y-1831976D01*
X3052133Y-1832452D01*
X3051657Y-1833404D01*
X3050229Y-1833880D01*
X3048800Y-1833880D01*
X3047372Y-1833404D01*
X3046896Y-1832452D01*
X3059465Y-1828643D02*
X3058989Y-1827691D01*
X3057560Y-1827215D01*
X3056132Y-1827215D01*
X3054704Y-1827691D01*
X3054228Y-1828643D01*
X3054704Y-1829595D01*
X3055656Y-1830071D01*
X3058036Y-1830547D01*
X3058989Y-1831023D01*
X3059465Y-1831976D01*
X3059465Y-1832452D01*
X3058989Y-1833404D01*
X3057560Y-1833880D01*
X3056132Y-1833880D01*
X3054704Y-1833404D01*
X3054228Y-1832452D01*
X3061559Y-1830071D02*
X3067273Y-1830071D01*
X3067273Y-1829119D01*
X3066796Y-1828167D01*
X3066320Y-1827691D01*
X3065368Y-1827215D01*
X3063940Y-1827215D01*
X3062988Y-1827691D01*
X3062036Y-1828643D01*
X3061559Y-1830071D01*
X3061559Y-1831023D01*
X3062036Y-1832452D01*
X3062988Y-1833404D01*
X3063940Y-1833880D01*
X3065368Y-1833880D01*
X3066320Y-1833404D01*
X3067273Y-1832452D01*
X3069415Y-1827215D02*
X3069415Y-1833880D01*
X3069415Y-1829119D02*
X3070843Y-1827691D01*
X3071795Y-1827215D01*
X3073224Y-1827215D01*
X3074176Y-1827691D01*
X3074652Y-1829119D01*
X3074652Y-1833880D01*
X3074652Y-1829119D02*
X3076080Y-1827691D01*
X3077032Y-1827215D01*
X3078460Y-1827215D01*
X3079413Y-1827691D01*
X3079889Y-1829119D01*
X3079889Y-1833880D01*
X3083031Y-1823882D02*
X3083031Y-1833880D01*
X3083031Y-1828643D02*
X3083983Y-1827691D01*
X3084935Y-1827215D01*
X3086364Y-1827215D01*
X3087316Y-1827691D01*
X3088268Y-1828643D01*
X3088744Y-1830071D01*
X3088744Y-1831023D01*
X3088268Y-1832452D01*
X3087316Y-1833404D01*
X3086364Y-1833880D01*
X3084935Y-1833880D01*
X3083983Y-1833404D01*
X3083031Y-1832452D01*
X3090887Y-1823882D02*
X3090887Y-1833880D01*
X3093457Y-1827215D02*
X3096314Y-1833880D01*
X3099171Y-1827215D02*
X3096314Y-1833880D01*
X3095362Y-1835784D01*
X3094409Y-1836736D01*
X3093457Y-1837213D01*
X3092981Y-1837213D01*
X3187500Y-1744882D02*
X3187500Y-1756380D01*
X3187500Y-1744882D02*
X3191333Y-1744882D01*
X3192975Y-1745430D01*
X3194070Y-1746525D01*
X3194618Y-1747620D01*
X3195165Y-1749262D01*
X3195165Y-1752000D01*
X3194618Y-1753642D01*
X3194070Y-1754737D01*
X3192975Y-1755832D01*
X3191333Y-1756380D01*
X3187500Y-1756380D01*
X3201023Y-1744882D02*
X3199928Y-1745430D01*
X3198833Y-1746525D01*
X3198286Y-1747620D01*
X3197738Y-1749262D01*
X3197738Y-1752000D01*
X3198286Y-1753642D01*
X3198833Y-1754737D01*
X3199928Y-1755832D01*
X3201023Y-1756380D01*
X3203214Y-1756380D01*
X3204308Y-1755832D01*
X3205403Y-1754737D01*
X3205951Y-1753642D01*
X3206498Y-1752000D01*
X3206498Y-1749262D01*
X3205951Y-1747620D01*
X3205403Y-1746525D01*
X3204308Y-1745430D01*
X3203214Y-1744882D01*
X3201023Y-1744882D01*
X3217394Y-1747620D02*
X3216846Y-1746525D01*
X3215751Y-1745430D01*
X3214656Y-1744882D01*
X3212466Y-1744882D01*
X3211371Y-1745430D01*
X3210276Y-1746525D01*
X3209729Y-1747620D01*
X3209181Y-1749262D01*
X3209181Y-1752000D01*
X3209729Y-1753642D01*
X3210276Y-1754737D01*
X3211371Y-1755832D01*
X3212466Y-1756380D01*
X3214656Y-1756380D01*
X3215751Y-1755832D01*
X3216846Y-1754737D01*
X3217394Y-1753642D01*
X3220624Y-1744882D02*
X3220624Y-1753095D01*
X3221172Y-1754737D01*
X3222267Y-1755832D01*
X3223909Y-1756380D01*
X3225004Y-1756380D01*
X3226646Y-1755832D01*
X3227741Y-1754737D01*
X3228289Y-1753095D01*
X3228289Y-1744882D01*
X3231465Y-1744882D02*
X3231465Y-1756380D01*
X3231465Y-1744882D02*
X3235845Y-1756380D01*
X3240225Y-1744882D02*
X3235845Y-1756380D01*
X3240225Y-1744882D02*
X3240225Y-1756380D01*
X3250627Y-1744882D02*
X3243510Y-1744882D01*
X3243510Y-1756380D01*
X3250627Y-1756380D01*
X3243510Y-1750357D02*
X3247890Y-1750357D01*
X3252543Y-1744882D02*
X3252543Y-1756380D01*
X3252543Y-1744882D02*
X3260208Y-1756380D01*
X3260208Y-1744882D02*
X3260208Y-1756380D01*
X3267216Y-1744882D02*
X3267216Y-1756380D01*
X3263384Y-1744882D02*
X3271049Y-1744882D01*
X3281451Y-1744882D02*
X3281451Y-1756380D01*
X3281451Y-1744882D02*
X3289117Y-1756380D01*
X3289117Y-1744882D02*
X3289117Y-1756380D01*
X3292292Y-1744882D02*
X3292292Y-1753095D01*
X3292839Y-1754737D01*
X3293935Y-1755832D01*
X3295577Y-1756380D01*
X3296672Y-1756380D01*
X3298315Y-1755832D01*
X3299409Y-1754737D01*
X3299957Y-1753095D01*
X3299957Y-1744882D01*
X3303133Y-1744882D02*
X3303133Y-1756380D01*
X3303133Y-1744882D02*
X3307513Y-1756380D01*
X3311893Y-1744882D02*
X3307513Y-1756380D01*
X3311893Y-1744882D02*
X3311893Y-1756380D01*
X3315178Y-1744882D02*
X3315178Y-1756380D01*
X3315178Y-1744882D02*
X3320105Y-1744882D01*
X3321748Y-1745430D01*
X3322295Y-1745977D01*
X3322843Y-1747072D01*
X3322843Y-1748167D01*
X3322295Y-1749262D01*
X3321748Y-1749810D01*
X3320105Y-1750357D01*
X3315178Y-1750357D02*
X3320105Y-1750357D01*
X3321748Y-1750905D01*
X3322295Y-1751452D01*
X3322843Y-1752547D01*
X3322843Y-1754190D01*
X3322295Y-1755285D01*
X3321748Y-1755832D01*
X3320105Y-1756380D01*
X3315178Y-1756380D01*
X3332533Y-1744882D02*
X3325416Y-1744882D01*
X3325416Y-1756380D01*
X3332533Y-1756380D01*
X3325416Y-1750357D02*
X3329796Y-1750357D01*
X3334450Y-1744882D02*
X3334450Y-1756380D01*
X3334450Y-1744882D02*
X3339377Y-1744882D01*
X3341020Y-1745430D01*
X3341567Y-1745977D01*
X3342115Y-1747072D01*
X3342115Y-1748167D01*
X3341567Y-1749262D01*
X3341020Y-1749810D01*
X3339377Y-1750357D01*
X3334450Y-1750357D01*
X3338282Y-1750357D02*
X3342115Y-1756380D01*
X3345236Y-1748715D02*
X3344688Y-1749262D01*
X3345236Y-1749810D01*
X3345783Y-1749262D01*
X3345236Y-1748715D01*
X3345236Y-1755285D02*
X3344688Y-1755832D01*
X3345236Y-1756380D01*
X3345783Y-1755832D01*
X3345236Y-1755285D01*
X2867500Y-1665739D02*
X2867500Y-1674308D01*
X2867928Y-1665739D02*
X2867928Y-1674308D01*
X2867500Y-1665739D02*
X2869643Y-1665739D01*
X2867500Y-1674308D02*
X2869643Y-1674308D01*
X2870799Y-1664882D02*
X2870799Y-1673880D01*
X2870799Y-1664882D02*
X2876798Y-1673880D01*
X2876798Y-1664882D02*
X2876798Y-1673880D01*
X2881426Y-1667881D02*
X2880569Y-1668310D01*
X2879712Y-1669167D01*
X2879283Y-1670452D01*
X2879283Y-1671309D01*
X2879712Y-1672594D01*
X2880569Y-1673451D01*
X2881426Y-1673880D01*
X2882711Y-1673880D01*
X2883568Y-1673451D01*
X2884425Y-1672594D01*
X2884854Y-1671309D01*
X2884854Y-1670452D01*
X2884425Y-1669167D01*
X2883568Y-1668310D01*
X2882711Y-1667881D01*
X2881426Y-1667881D01*
X2893894Y-1664882D02*
X2897322Y-1673880D01*
X2900750Y-1664882D02*
X2897322Y-1673880D01*
X2907049Y-1667881D02*
X2907049Y-1673880D01*
X2907049Y-1669167D02*
X2906192Y-1668310D01*
X2905335Y-1667881D01*
X2904049Y-1667881D01*
X2903192Y-1668310D01*
X2902336Y-1669167D01*
X2901907Y-1670452D01*
X2901907Y-1671309D01*
X2902336Y-1672594D01*
X2903192Y-1673451D01*
X2904049Y-1673880D01*
X2905335Y-1673880D01*
X2906192Y-1673451D01*
X2907049Y-1672594D01*
X2909448Y-1667881D02*
X2909448Y-1673880D01*
X2909448Y-1670452D02*
X2909877Y-1669167D01*
X2910734Y-1668310D01*
X2911591Y-1667881D01*
X2912876Y-1667881D01*
X2914547Y-1664882D02*
X2914976Y-1665310D01*
X2915404Y-1664882D01*
X2914976Y-1664453D01*
X2914547Y-1664882D01*
X2914976Y-1667881D02*
X2914976Y-1673880D01*
X2922131Y-1667881D02*
X2922131Y-1673880D01*
X2922131Y-1669167D02*
X2921274Y-1668310D01*
X2920417Y-1667881D01*
X2919132Y-1667881D01*
X2918275Y-1668310D01*
X2917418Y-1669167D01*
X2916990Y-1670452D01*
X2916990Y-1671309D01*
X2917418Y-1672594D01*
X2918275Y-1673451D01*
X2919132Y-1673880D01*
X2920417Y-1673880D01*
X2921274Y-1673451D01*
X2922131Y-1672594D01*
X2925816Y-1664882D02*
X2925816Y-1672166D01*
X2926245Y-1673451D01*
X2927102Y-1673880D01*
X2927959Y-1673880D01*
X2924531Y-1667881D02*
X2927530Y-1667881D01*
X2930101Y-1664882D02*
X2930529Y-1665310D01*
X2930958Y-1664882D01*
X2930529Y-1664453D01*
X2930101Y-1664882D01*
X2930529Y-1667881D02*
X2930529Y-1673880D01*
X2934686Y-1667881D02*
X2933829Y-1668310D01*
X2932972Y-1669167D01*
X2932543Y-1670452D01*
X2932543Y-1671309D01*
X2932972Y-1672594D01*
X2933829Y-1673451D01*
X2934686Y-1673880D01*
X2935971Y-1673880D01*
X2936828Y-1673451D01*
X2937685Y-1672594D01*
X2938114Y-1671309D01*
X2938114Y-1670452D01*
X2937685Y-1669167D01*
X2936828Y-1668310D01*
X2935971Y-1667881D01*
X2934686Y-1667881D01*
X2940085Y-1667881D02*
X2940085Y-1673880D01*
X2940085Y-1669595D02*
X2941370Y-1668310D01*
X2942227Y-1667881D01*
X2943513Y-1667881D01*
X2944370Y-1668310D01*
X2944798Y-1669595D01*
X2944798Y-1673880D01*
X2951868Y-1669167D02*
X2951439Y-1668310D01*
X2950154Y-1667881D01*
X2948868Y-1667881D01*
X2947583Y-1668310D01*
X2947155Y-1669167D01*
X2947583Y-1670023D01*
X2948440Y-1670452D01*
X2950582Y-1670880D01*
X2951439Y-1671309D01*
X2951868Y-1672166D01*
X2951868Y-1672594D01*
X2951439Y-1673451D01*
X2950154Y-1673880D01*
X2948868Y-1673880D01*
X2947583Y-1673451D01*
X2947155Y-1672594D01*
X2955467Y-1665739D02*
X2955467Y-1674308D01*
X2955895Y-1665739D02*
X2955895Y-1674308D01*
X2953753Y-1665739D02*
X2955895Y-1665739D01*
X2953753Y-1674308D02*
X2955895Y-1674308D01*
X2730000Y-1808405D02*
X2734928Y-1808405D01*
X2736570Y-1807857D01*
X2737118Y-1807310D01*
X2737665Y-1806215D01*
X2737665Y-1804572D01*
X2737118Y-1803477D01*
X2736570Y-1802930D01*
X2734928Y-1802382D01*
X2730000Y-1802382D01*
X2730000Y-1813880D01*
X2748451Y-1805120D02*
X2747903Y-1804025D01*
X2746808Y-1802930D01*
X2745714Y-1802382D01*
X2743523Y-1802382D01*
X2742428Y-1802930D01*
X2741333Y-1804025D01*
X2740786Y-1805120D01*
X2740238Y-1806762D01*
X2740238Y-1809500D01*
X2740786Y-1811142D01*
X2741333Y-1812237D01*
X2742428Y-1813332D01*
X2743523Y-1813880D01*
X2745714Y-1813880D01*
X2746808Y-1813332D01*
X2747903Y-1812237D01*
X2748451Y-1811142D01*
X2751681Y-1802382D02*
X2751681Y-1813880D01*
X2751681Y-1802382D02*
X2756609Y-1802382D01*
X2758251Y-1802930D01*
X2758799Y-1803477D01*
X2759346Y-1804572D01*
X2759346Y-1805667D01*
X2758799Y-1806762D01*
X2758251Y-1807310D01*
X2756609Y-1807857D01*
X2751681Y-1807857D02*
X2756609Y-1807857D01*
X2758251Y-1808405D01*
X2758799Y-1808952D01*
X2759346Y-1810047D01*
X2759346Y-1811690D01*
X2758799Y-1812785D01*
X2758251Y-1813332D01*
X2756609Y-1813880D01*
X2751681Y-1813880D01*
X2770953Y-1802382D02*
X2770953Y-1813880D01*
X2770953Y-1802382D02*
X2778071Y-1802382D01*
X2770953Y-1807857D02*
X2775333Y-1807857D01*
X2779385Y-1802382D02*
X2779385Y-1813880D01*
X2781794Y-1802382D02*
X2781794Y-1813880D01*
X2788364Y-1813880D01*
X2796741Y-1802382D02*
X2789623Y-1802382D01*
X2789623Y-1813880D01*
X2796741Y-1813880D01*
X2789623Y-1807857D02*
X2794003Y-1807857D01*
X2807691Y-1802382D02*
X2807691Y-1813880D01*
X2807691Y-1802382D02*
X2815356Y-1813880D01*
X2815356Y-1802382D02*
X2815356Y-1813880D01*
X2827291Y-1813880D02*
X2822911Y-1802382D01*
X2818531Y-1813880D01*
X2820174Y-1810047D02*
X2825649Y-1810047D01*
X2829974Y-1802382D02*
X2829974Y-1813880D01*
X2829974Y-1802382D02*
X2834354Y-1813880D01*
X2838734Y-1802382D02*
X2834354Y-1813880D01*
X2838734Y-1802382D02*
X2838734Y-1813880D01*
X2849137Y-1802382D02*
X2842019Y-1802382D01*
X2842019Y-1813880D01*
X2849137Y-1813880D01*
X2842019Y-1807857D02*
X2846399Y-1807857D01*
X2851600Y-1806215D02*
X2851053Y-1806762D01*
X2851600Y-1807310D01*
X2852148Y-1806762D01*
X2851600Y-1806215D01*
X2851600Y-1812785D02*
X2851053Y-1813332D01*
X2851600Y-1813880D01*
X2852148Y-1813332D01*
X2851600Y-1812785D01*
X2730476Y-1826263D02*
X2730476Y-1825786D01*
X2730952Y-1824834D01*
X2731429Y-1824358D01*
X2732381Y-1823882D01*
X2734285Y-1823882D01*
X2735237Y-1824358D01*
X2735713Y-1824834D01*
X2736189Y-1825786D01*
X2736189Y-1826738D01*
X2735713Y-1827691D01*
X2734761Y-1829119D01*
X2730000Y-1833880D01*
X2736665Y-1833880D01*
X2746758Y-1823882D02*
X2746758Y-1833880D01*
X2752472Y-1833880D01*
X2759279Y-1827215D02*
X2759279Y-1833880D01*
X2759279Y-1828643D02*
X2758327Y-1827691D01*
X2757375Y-1827215D01*
X2755947Y-1827215D01*
X2754995Y-1827691D01*
X2754043Y-1828643D01*
X2753567Y-1830071D01*
X2753567Y-1831023D01*
X2754043Y-1832452D01*
X2754995Y-1833404D01*
X2755947Y-1833880D01*
X2757375Y-1833880D01*
X2758327Y-1833404D01*
X2759279Y-1832452D01*
X2762422Y-1827215D02*
X2765278Y-1833880D01*
X2768135Y-1827215D02*
X2765278Y-1833880D01*
X2764326Y-1835784D01*
X2763374Y-1836736D01*
X2762422Y-1837213D01*
X2761946Y-1837213D01*
X2769801Y-1830071D02*
X2775514Y-1830071D01*
X2775514Y-1829119D01*
X2775038Y-1828167D01*
X2774562Y-1827691D01*
X2773610Y-1827215D01*
X2772182Y-1827215D01*
X2771229Y-1827691D01*
X2770277Y-1828643D01*
X2769801Y-1830071D01*
X2769801Y-1831023D01*
X2770277Y-1832452D01*
X2771229Y-1833404D01*
X2772182Y-1833880D01*
X2773610Y-1833880D01*
X2774562Y-1833404D01*
X2775514Y-1832452D01*
X2777657Y-1827215D02*
X2777657Y-1833880D01*
X2777657Y-1830071D02*
X2778133Y-1828643D01*
X2779085Y-1827691D01*
X2780037Y-1827215D01*
X2781465Y-1827215D01*
X2787607Y-1828643D02*
X2787131Y-1827691D01*
X2785703Y-1827215D01*
X2784274Y-1827215D01*
X2782846Y-1827691D01*
X2782370Y-1828643D01*
X2782846Y-1829595D01*
X2783798Y-1830071D01*
X2786179Y-1830547D01*
X2787131Y-1831023D01*
X2787607Y-1831976D01*
X2787607Y-1832452D01*
X2787131Y-1833404D01*
X2785703Y-1833880D01*
X2784274Y-1833880D01*
X2782846Y-1833404D01*
X2782370Y-1832452D01*
X2790178Y-1832928D02*
X2789702Y-1833404D01*
X2790178Y-1833880D01*
X2790654Y-1833404D01*
X2790178Y-1832928D01*
X2792844Y-1829119D02*
X2797129Y-1829119D01*
X2798557Y-1828643D01*
X2799033Y-1828167D01*
X2799509Y-1827215D01*
X2799509Y-1825786D01*
X2799033Y-1824834D01*
X2798557Y-1824358D01*
X2797129Y-1823882D01*
X2792844Y-1823882D01*
X2792844Y-1833880D01*
X2807460Y-1828643D02*
X2806508Y-1827691D01*
X2805555Y-1827215D01*
X2804127Y-1827215D01*
X2803175Y-1827691D01*
X2802223Y-1828643D01*
X2801747Y-1830071D01*
X2801747Y-1831023D01*
X2802223Y-1832452D01*
X2803175Y-1833404D01*
X2804127Y-1833880D01*
X2805555Y-1833880D01*
X2806508Y-1833404D01*
X2807460Y-1832452D01*
X2809602Y-1823882D02*
X2809602Y-1833880D01*
X2809602Y-1828643D02*
X2810554Y-1827691D01*
X2811506Y-1827215D01*
X2812935Y-1827215D01*
X2813887Y-1827691D01*
X2814839Y-1828643D01*
X2815315Y-1830071D01*
X2815315Y-1831023D01*
X2814839Y-1832452D01*
X2813887Y-1833404D01*
X2812935Y-1833880D01*
X2811506Y-1833880D01*
X2810554Y-1833404D01*
X2809602Y-1832452D01*
X2817458Y-1823882D02*
X2817458Y-1833880D01*
X2817458Y-1823882D02*
X2820790Y-1823882D01*
X2822219Y-1824358D01*
X2823170Y-1825310D01*
X2823647Y-1826263D01*
X2824123Y-1827691D01*
X2824123Y-1830071D01*
X2823647Y-1831499D01*
X2823170Y-1832452D01*
X2822219Y-1833404D01*
X2820790Y-1833880D01*
X2817458Y-1833880D01*
X2828741Y-1827215D02*
X2827789Y-1827691D01*
X2826837Y-1828643D01*
X2826360Y-1830071D01*
X2826360Y-1831023D01*
X2826837Y-1832452D01*
X2827789Y-1833404D01*
X2828741Y-1833880D01*
X2830169Y-1833880D01*
X2831121Y-1833404D01*
X2832073Y-1832452D01*
X2832550Y-1831023D01*
X2832550Y-1830071D01*
X2832073Y-1828643D01*
X2831121Y-1827691D01*
X2830169Y-1827215D01*
X2828741Y-1827215D01*
X2840453Y-1828643D02*
X2839500Y-1827691D01*
X2838548Y-1827215D01*
X2837120Y-1827215D01*
X2836168Y-1827691D01*
X2835216Y-1828643D01*
X2834740Y-1830071D01*
X2834740Y-1831023D01*
X2835216Y-1832452D01*
X2836168Y-1833404D01*
X2837120Y-1833880D01*
X2838548Y-1833880D01*
X2839500Y-1833404D01*
X2840453Y-1832452D01*
X2730000Y-1690905D02*
X2734928Y-1690905D01*
X2736570Y-1690357D01*
X2737118Y-1689810D01*
X2737665Y-1688715D01*
X2737665Y-1687072D01*
X2737118Y-1685977D01*
X2736570Y-1685430D01*
X2734928Y-1684882D01*
X2730000Y-1684882D01*
X2730000Y-1696380D01*
X2748451Y-1687620D02*
X2747903Y-1686525D01*
X2746808Y-1685430D01*
X2745714Y-1684882D01*
X2743523Y-1684882D01*
X2742428Y-1685430D01*
X2741333Y-1686525D01*
X2740786Y-1687620D01*
X2740238Y-1689262D01*
X2740238Y-1692000D01*
X2740786Y-1693642D01*
X2741333Y-1694737D01*
X2742428Y-1695832D01*
X2743523Y-1696380D01*
X2745714Y-1696380D01*
X2746808Y-1695832D01*
X2747903Y-1694737D01*
X2748451Y-1693642D01*
X2751681Y-1684882D02*
X2751681Y-1696380D01*
X2751681Y-1684882D02*
X2756609Y-1684882D01*
X2758251Y-1685430D01*
X2758799Y-1685977D01*
X2759346Y-1687072D01*
X2759346Y-1688167D01*
X2758799Y-1689262D01*
X2758251Y-1689810D01*
X2756609Y-1690357D01*
X2751681Y-1690357D02*
X2756609Y-1690357D01*
X2758251Y-1690905D01*
X2758799Y-1691452D01*
X2759346Y-1692547D01*
X2759346Y-1694190D01*
X2758799Y-1695285D01*
X2758251Y-1695832D01*
X2756609Y-1696380D01*
X2751681Y-1696380D01*
X2770953Y-1684882D02*
X2770953Y-1696380D01*
X2777523Y-1696380D01*
X2785352Y-1688715D02*
X2785352Y-1696380D01*
X2785352Y-1690357D02*
X2784258Y-1689262D01*
X2783163Y-1688715D01*
X2781520Y-1688715D01*
X2780425Y-1689262D01*
X2779330Y-1690357D01*
X2778783Y-1692000D01*
X2778783Y-1693095D01*
X2779330Y-1694737D01*
X2780425Y-1695832D01*
X2781520Y-1696380D01*
X2783163Y-1696380D01*
X2784258Y-1695832D01*
X2785352Y-1694737D01*
X2788966Y-1688715D02*
X2792251Y-1696380D01*
X2795536Y-1688715D02*
X2792251Y-1696380D01*
X2791156Y-1698570D01*
X2790061Y-1699665D01*
X2788966Y-1700212D01*
X2788419Y-1700212D01*
X2800190Y-1688715D02*
X2799095Y-1689262D01*
X2798000Y-1690357D01*
X2797452Y-1692000D01*
X2797452Y-1693095D01*
X2798000Y-1694737D01*
X2799095Y-1695832D01*
X2800190Y-1696380D01*
X2801832Y-1696380D01*
X2802928Y-1695832D01*
X2804023Y-1694737D01*
X2804570Y-1693095D01*
X2804570Y-1692000D01*
X2804023Y-1690357D01*
X2802928Y-1689262D01*
X2801832Y-1688715D01*
X2800190Y-1688715D01*
X2807088Y-1688715D02*
X2807088Y-1694190D01*
X2807636Y-1695832D01*
X2808731Y-1696380D01*
X2810374Y-1696380D01*
X2811469Y-1695832D01*
X2813111Y-1694190D01*
X2813111Y-1688715D02*
X2813111Y-1696380D01*
X2817765Y-1684882D02*
X2817765Y-1694190D01*
X2818312Y-1695832D01*
X2819407Y-1696380D01*
X2820502Y-1696380D01*
X2816122Y-1688715D02*
X2819955Y-1688715D01*
X2839391Y-1687620D02*
X2838843Y-1686525D01*
X2837748Y-1685430D01*
X2836653Y-1684882D01*
X2834464Y-1684882D01*
X2833369Y-1685430D01*
X2832274Y-1686525D01*
X2831726Y-1687620D01*
X2831179Y-1689262D01*
X2831179Y-1692000D01*
X2831726Y-1693642D01*
X2832274Y-1694737D01*
X2833369Y-1695832D01*
X2834464Y-1696380D01*
X2836653Y-1696380D01*
X2837748Y-1695832D01*
X2838843Y-1694737D01*
X2839391Y-1693642D01*
X2845359Y-1688715D02*
X2844264Y-1689262D01*
X2843169Y-1690357D01*
X2842621Y-1692000D01*
X2842621Y-1693095D01*
X2843169Y-1694737D01*
X2844264Y-1695832D01*
X2845359Y-1696380D01*
X2847001Y-1696380D01*
X2848096Y-1695832D01*
X2849191Y-1694737D01*
X2849739Y-1693095D01*
X2849739Y-1692000D01*
X2849191Y-1690357D01*
X2848096Y-1689262D01*
X2847001Y-1688715D01*
X2845359Y-1688715D01*
X2852257Y-1688715D02*
X2852257Y-1696380D01*
X2852257Y-1690905D02*
X2853900Y-1689262D01*
X2854995Y-1688715D01*
X2856637Y-1688715D01*
X2857732Y-1689262D01*
X2858280Y-1690905D01*
X2858280Y-1696380D01*
X2862934Y-1684882D02*
X2862934Y-1694190D01*
X2863481Y-1695832D01*
X2864576Y-1696380D01*
X2865671Y-1696380D01*
X2861291Y-1688715D02*
X2865124Y-1688715D01*
X2873884Y-1688715D02*
X2873884Y-1696380D01*
X2873884Y-1690357D02*
X2872789Y-1689262D01*
X2871694Y-1688715D01*
X2870051Y-1688715D01*
X2868956Y-1689262D01*
X2867861Y-1690357D01*
X2867314Y-1692000D01*
X2867314Y-1693095D01*
X2867861Y-1694737D01*
X2868956Y-1695832D01*
X2870051Y-1696380D01*
X2871694Y-1696380D01*
X2872789Y-1695832D01*
X2873884Y-1694737D01*
X2883520Y-1690357D02*
X2882425Y-1689262D01*
X2881330Y-1688715D01*
X2879687Y-1688715D01*
X2878592Y-1689262D01*
X2877497Y-1690357D01*
X2876949Y-1692000D01*
X2876949Y-1693095D01*
X2877497Y-1694737D01*
X2878592Y-1695832D01*
X2879687Y-1696380D01*
X2881330Y-1696380D01*
X2882425Y-1695832D01*
X2883520Y-1694737D01*
X2887626Y-1684882D02*
X2887626Y-1694190D01*
X2888174Y-1695832D01*
X2889268Y-1696380D01*
X2890363Y-1696380D01*
X2885983Y-1688715D02*
X2889816Y-1688715D01*
X2892553Y-1688715D02*
X2892006Y-1689262D01*
X2892553Y-1689810D01*
X2893101Y-1689262D01*
X2892553Y-1688715D01*
X2892553Y-1695285D02*
X2892006Y-1695832D01*
X2892553Y-1696380D01*
X2893101Y-1695832D01*
X2892553Y-1695285D01*
X2730000Y-1750905D02*
X2734928Y-1750905D01*
X2736570Y-1750357D01*
X2737118Y-1749810D01*
X2737665Y-1748715D01*
X2737665Y-1747072D01*
X2737118Y-1745977D01*
X2736570Y-1745430D01*
X2734928Y-1744882D01*
X2730000Y-1744882D01*
X2730000Y-1756380D01*
X2740238Y-1748715D02*
X2740238Y-1756380D01*
X2740238Y-1752000D02*
X2740786Y-1750357D01*
X2741881Y-1749262D01*
X2742976Y-1748715D01*
X2744619Y-1748715D01*
X2748396Y-1748715D02*
X2747301Y-1749262D01*
X2746206Y-1750357D01*
X2745659Y-1752000D01*
X2745659Y-1753095D01*
X2746206Y-1754737D01*
X2747301Y-1755832D01*
X2748396Y-1756380D01*
X2750039Y-1756380D01*
X2751134Y-1755832D01*
X2752229Y-1754737D01*
X2752776Y-1753095D01*
X2752776Y-1752000D01*
X2752229Y-1750357D01*
X2751134Y-1749262D01*
X2750039Y-1748715D01*
X2748396Y-1748715D01*
X2757485Y-1744882D02*
X2758032Y-1745430D01*
X2758580Y-1744882D01*
X2758032Y-1744335D01*
X2757485Y-1744882D01*
X2758032Y-1748715D02*
X2758032Y-1758022D01*
X2757485Y-1759665D01*
X2756390Y-1760212D01*
X2755295Y-1760212D01*
X2760715Y-1752000D02*
X2767285Y-1752000D01*
X2767285Y-1750905D01*
X2766737Y-1749810D01*
X2766190Y-1749262D01*
X2765095Y-1748715D01*
X2763452Y-1748715D01*
X2762357Y-1749262D01*
X2761263Y-1750357D01*
X2760715Y-1752000D01*
X2760715Y-1753095D01*
X2761263Y-1754737D01*
X2762357Y-1755832D01*
X2763452Y-1756380D01*
X2765095Y-1756380D01*
X2766190Y-1755832D01*
X2767285Y-1754737D01*
X2776319Y-1750357D02*
X2775224Y-1749262D01*
X2774129Y-1748715D01*
X2772486Y-1748715D01*
X2771391Y-1749262D01*
X2770296Y-1750357D01*
X2769749Y-1752000D01*
X2769749Y-1753095D01*
X2770296Y-1754737D01*
X2771391Y-1755832D01*
X2772486Y-1756380D01*
X2774129Y-1756380D01*
X2775224Y-1755832D01*
X2776319Y-1754737D01*
X2780425Y-1744882D02*
X2780425Y-1754190D01*
X2780973Y-1755832D01*
X2782068Y-1756380D01*
X2783163Y-1756380D01*
X2778782Y-1748715D02*
X2782615Y-1748715D01*
X2797124Y-1744882D02*
X2796029Y-1745430D01*
X2794934Y-1746525D01*
X2794386Y-1747620D01*
X2793839Y-1749262D01*
X2793839Y-1752000D01*
X2794386Y-1753642D01*
X2794934Y-1754737D01*
X2796029Y-1755832D01*
X2797124Y-1756380D01*
X2799314Y-1756380D01*
X2800409Y-1755832D01*
X2801504Y-1754737D01*
X2802051Y-1753642D01*
X2802599Y-1752000D01*
X2802599Y-1749262D01*
X2802051Y-1747620D01*
X2801504Y-1746525D01*
X2800409Y-1745430D01*
X2799314Y-1744882D01*
X2797124Y-1744882D01*
X2805282Y-1748715D02*
X2807472Y-1756380D01*
X2809662Y-1748715D02*
X2807472Y-1756380D01*
X2809662Y-1748715D02*
X2811852Y-1756380D01*
X2814042Y-1748715D02*
X2811852Y-1756380D01*
X2816725Y-1748715D02*
X2816725Y-1756380D01*
X2816725Y-1750905D02*
X2818367Y-1749262D01*
X2819462Y-1748715D01*
X2821104Y-1748715D01*
X2822199Y-1749262D01*
X2822747Y-1750905D01*
X2822747Y-1756380D01*
X2825758Y-1752000D02*
X2832328Y-1752000D01*
X2832328Y-1750905D01*
X2831781Y-1749810D01*
X2831233Y-1749262D01*
X2830138Y-1748715D01*
X2828496Y-1748715D01*
X2827401Y-1749262D01*
X2826306Y-1750357D01*
X2825758Y-1752000D01*
X2825758Y-1753095D01*
X2826306Y-1754737D01*
X2827401Y-1755832D01*
X2828496Y-1756380D01*
X2830138Y-1756380D01*
X2831233Y-1755832D01*
X2832328Y-1754737D01*
X2834792Y-1748715D02*
X2834792Y-1756380D01*
X2834792Y-1752000D02*
X2835339Y-1750357D01*
X2836435Y-1749262D01*
X2837530Y-1748715D01*
X2839172Y-1748715D01*
X2840760Y-1748715D02*
X2840212Y-1749262D01*
X2840760Y-1749810D01*
X2841307Y-1749262D01*
X2840760Y-1748715D01*
X2840760Y-1755285D02*
X2840212Y-1755832D01*
X2840760Y-1756380D01*
X2841307Y-1755832D01*
X2840760Y-1755285D01*
X3010000Y-1744882D02*
X3010000Y-1756380D01*
X3010000Y-1744882D02*
X3014928Y-1744882D01*
X3016570Y-1745430D01*
X3017118Y-1745977D01*
X3017665Y-1747072D01*
X3017665Y-1748167D01*
X3017118Y-1749262D01*
X3016570Y-1749810D01*
X3014928Y-1750357D01*
X3010000Y-1750357D02*
X3014928Y-1750357D01*
X3016570Y-1750905D01*
X3017118Y-1751452D01*
X3017665Y-1752547D01*
X3017665Y-1754190D01*
X3017118Y-1755285D01*
X3016570Y-1755832D01*
X3014928Y-1756380D01*
X3010000Y-1756380D01*
X3023523Y-1744882D02*
X3022428Y-1745430D01*
X3021333Y-1746525D01*
X3020786Y-1747620D01*
X3020238Y-1749262D01*
X3020238Y-1752000D01*
X3020786Y-1753642D01*
X3021333Y-1754737D01*
X3022428Y-1755832D01*
X3023523Y-1756380D01*
X3025714Y-1756380D01*
X3026808Y-1755832D01*
X3027903Y-1754737D01*
X3028451Y-1753642D01*
X3028998Y-1752000D01*
X3028998Y-1749262D01*
X3028451Y-1747620D01*
X3027903Y-1746525D01*
X3026808Y-1745430D01*
X3025714Y-1744882D01*
X3023523Y-1744882D01*
X3040441Y-1756380D02*
X3036061Y-1744882D01*
X3031681Y-1756380D01*
X3033324Y-1752547D02*
X3038799Y-1752547D01*
X3043124Y-1744882D02*
X3043124Y-1756380D01*
X3043124Y-1744882D02*
X3048051Y-1744882D01*
X3049694Y-1745430D01*
X3050241Y-1745977D01*
X3050789Y-1747072D01*
X3050789Y-1748167D01*
X3050241Y-1749262D01*
X3049694Y-1749810D01*
X3048051Y-1750357D01*
X3043124Y-1750357D01*
X3046956Y-1750357D02*
X3050789Y-1756380D01*
X3053362Y-1744882D02*
X3053362Y-1756380D01*
X3053362Y-1744882D02*
X3057195Y-1744882D01*
X3058837Y-1745430D01*
X3059932Y-1746525D01*
X3060480Y-1747620D01*
X3061027Y-1749262D01*
X3061027Y-1752000D01*
X3060480Y-1753642D01*
X3059932Y-1754737D01*
X3058837Y-1755832D01*
X3057195Y-1756380D01*
X3053362Y-1756380D01*
X3072634Y-1744882D02*
X3072634Y-1756380D01*
X3072634Y-1744882D02*
X3080299Y-1756380D01*
X3080299Y-1744882D02*
X3080299Y-1756380D01*
X3083475Y-1744882D02*
X3083475Y-1753095D01*
X3084023Y-1754737D01*
X3085117Y-1755832D01*
X3086760Y-1756380D01*
X3087855Y-1756380D01*
X3089497Y-1755832D01*
X3090592Y-1754737D01*
X3091140Y-1753095D01*
X3091140Y-1744882D01*
X3094315Y-1744882D02*
X3094315Y-1756380D01*
X3094315Y-1744882D02*
X3098695Y-1756380D01*
X3103076Y-1744882D02*
X3098695Y-1756380D01*
X3103076Y-1744882D02*
X3103076Y-1756380D01*
X3106360Y-1744882D02*
X3106360Y-1756380D01*
X3106360Y-1744882D02*
X3111288Y-1744882D01*
X3112931Y-1745430D01*
X3113478Y-1745977D01*
X3114026Y-1747072D01*
X3114026Y-1748167D01*
X3113478Y-1749262D01*
X3112931Y-1749810D01*
X3111288Y-1750357D01*
X3106360Y-1750357D02*
X3111288Y-1750357D01*
X3112931Y-1750905D01*
X3113478Y-1751452D01*
X3114026Y-1752547D01*
X3114026Y-1754190D01*
X3113478Y-1755285D01*
X3112931Y-1755832D01*
X3111288Y-1756380D01*
X3106360Y-1756380D01*
X3123716Y-1744882D02*
X3116599Y-1744882D01*
X3116599Y-1756380D01*
X3123716Y-1756380D01*
X3116599Y-1750357D02*
X3120979Y-1750357D01*
X3125633Y-1744882D02*
X3125633Y-1756380D01*
X3125633Y-1744882D02*
X3130560Y-1744882D01*
X3132202Y-1745430D01*
X3132750Y-1745977D01*
X3133298Y-1747072D01*
X3133298Y-1748167D01*
X3132750Y-1749262D01*
X3132202Y-1749810D01*
X3130560Y-1750357D01*
X3125633Y-1750357D01*
X3129465Y-1750357D02*
X3133298Y-1756380D01*
X3136418Y-1748715D02*
X3135871Y-1749262D01*
X3136418Y-1749810D01*
X3136966Y-1749262D01*
X3136418Y-1748715D01*
X3136418Y-1755285D02*
X3135871Y-1755832D01*
X3136418Y-1756380D01*
X3136966Y-1755832D01*
X3136418Y-1755285D01*
X3018213Y-1687620D02*
X3017665Y-1686525D01*
X3016570Y-1685430D01*
X3015475Y-1684882D01*
X3013285Y-1684882D01*
X3012190Y-1685430D01*
X3011095Y-1686525D01*
X3010547Y-1687620D01*
X3010000Y-1689262D01*
X3010000Y-1692000D01*
X3010547Y-1693642D01*
X3011095Y-1694737D01*
X3012190Y-1695832D01*
X3013285Y-1696380D01*
X3015475Y-1696380D01*
X3016570Y-1695832D01*
X3017665Y-1694737D01*
X3018213Y-1693642D01*
X3018213Y-1692000D01*
X3015475Y-1692000D02*
X3018213Y-1692000D01*
X3027958Y-1684882D02*
X3020841Y-1684882D01*
X3020841Y-1696380D01*
X3027958Y-1696380D01*
X3020841Y-1690357D02*
X3025221Y-1690357D01*
X3029875Y-1684882D02*
X3029875Y-1696380D01*
X3029875Y-1684882D02*
X3034802Y-1684882D01*
X3036444Y-1685430D01*
X3036992Y-1685977D01*
X3037539Y-1687072D01*
X3037539Y-1688167D01*
X3036992Y-1689262D01*
X3036444Y-1689810D01*
X3034802Y-1690357D01*
X3029875Y-1690357D01*
X3033707Y-1690357D02*
X3037539Y-1696380D01*
X3040113Y-1684882D02*
X3040113Y-1696380D01*
X3040113Y-1684882D02*
X3045040Y-1684882D01*
X3046683Y-1685430D01*
X3047230Y-1685977D01*
X3047778Y-1687072D01*
X3047778Y-1688167D01*
X3047230Y-1689262D01*
X3046683Y-1689810D01*
X3045040Y-1690357D01*
X3040113Y-1690357D02*
X3045040Y-1690357D01*
X3046683Y-1690905D01*
X3047230Y-1691452D01*
X3047778Y-1692547D01*
X3047778Y-1694190D01*
X3047230Y-1695285D01*
X3046683Y-1695832D01*
X3045040Y-1696380D01*
X3040113Y-1696380D01*
X3057469Y-1684882D02*
X3050351Y-1684882D01*
X3050351Y-1696380D01*
X3057469Y-1696380D01*
X3050351Y-1690357D02*
X3054731Y-1690357D01*
X3059385Y-1684882D02*
X3059385Y-1696380D01*
X3059385Y-1684882D02*
X3064312Y-1684882D01*
X3065955Y-1685430D01*
X3066502Y-1685977D01*
X3067050Y-1687072D01*
X3067050Y-1688167D01*
X3066502Y-1689262D01*
X3065955Y-1689810D01*
X3064312Y-1690357D01*
X3059385Y-1690357D01*
X3063217Y-1690357D02*
X3067050Y-1696380D01*
X3078657Y-1684882D02*
X3078657Y-1696380D01*
X3078657Y-1684882D02*
X3085775Y-1684882D01*
X3078657Y-1690357D02*
X3083037Y-1690357D01*
X3087088Y-1684882D02*
X3087088Y-1696380D01*
X3089497Y-1684882D02*
X3089497Y-1696380D01*
X3096068Y-1696380D01*
X3104444Y-1684882D02*
X3097327Y-1684882D01*
X3097327Y-1696380D01*
X3104444Y-1696380D01*
X3097327Y-1690357D02*
X3101707Y-1690357D01*
X3106908Y-1688715D02*
X3106360Y-1689262D01*
X3106908Y-1689810D01*
X3107455Y-1689262D01*
X3106908Y-1688715D01*
X3106908Y-1695285D02*
X3106360Y-1695832D01*
X3106908Y-1696380D01*
X3107455Y-1695832D01*
X3106908Y-1695285D01*
X3397714Y-1774954D02*
X3397714Y-1774240D01*
X3398428Y-1772811D01*
X3399142Y-1772097D01*
X3400571Y-1771383D01*
X3403427Y-1771383D01*
X3404856Y-1772097D01*
X3405570Y-1772811D01*
X3406284Y-1774240D01*
X3406284Y-1775668D01*
X3405570Y-1777096D01*
X3404142Y-1779238D01*
X3397000Y-1786380D01*
X3406998Y-1786380D01*
X3418924Y-1773526D02*
X3418210Y-1772097D01*
X3416068Y-1771383D01*
X3414639Y-1771383D01*
X3412497Y-1772097D01*
X3411068Y-1774240D01*
X3410354Y-1777810D01*
X3410354Y-1781381D01*
X3411068Y-1784238D01*
X3412497Y-1785666D01*
X3414639Y-1786380D01*
X3415353Y-1786380D01*
X3417496Y-1785666D01*
X3418924Y-1784238D01*
X3419638Y-1782095D01*
X3419638Y-1781381D01*
X3418924Y-1779238D01*
X3417496Y-1777810D01*
X3415353Y-1777096D01*
X3414639Y-1777096D01*
X3412497Y-1777810D01*
X3411068Y-1779238D01*
X3410354Y-1781381D01*
X3423637Y-1784952D02*
X3422923Y-1785666D01*
X3423637Y-1786380D01*
X3424352Y-1785666D01*
X3423637Y-1784952D01*
X3431921Y-1771383D02*
X3429779Y-1772097D01*
X3428351Y-1774240D01*
X3427636Y-1777810D01*
X3427636Y-1779953D01*
X3428351Y-1783523D01*
X3429779Y-1785666D01*
X3431921Y-1786380D01*
X3433350Y-1786380D01*
X3435492Y-1785666D01*
X3436920Y-1783523D01*
X3437634Y-1779953D01*
X3437634Y-1777810D01*
X3436920Y-1774240D01*
X3435492Y-1772097D01*
X3433350Y-1771383D01*
X3431921Y-1771383D01*
X3440991Y-1774240D02*
X3442419Y-1773526D01*
X3444561Y-1771383D01*
X3444561Y-1786380D01*
X3452702Y-1784952D02*
X3451988Y-1785666D01*
X3452702Y-1786380D01*
X3453417Y-1785666D01*
X3452702Y-1784952D01*
X3457416Y-1774954D02*
X3457416Y-1774240D01*
X3458130Y-1772811D01*
X3458844Y-1772097D01*
X3460272Y-1771383D01*
X3463129Y-1771383D01*
X3464557Y-1772097D01*
X3465271Y-1772811D01*
X3465985Y-1774240D01*
X3465985Y-1775668D01*
X3465271Y-1777096D01*
X3463843Y-1779238D01*
X3456702Y-1786380D01*
X3466700Y-1786380D01*
X3474341Y-1771383D02*
X3472198Y-1772097D01*
X3470770Y-1774240D01*
X3470056Y-1777810D01*
X3470056Y-1779953D01*
X3470770Y-1783523D01*
X3472198Y-1785666D01*
X3474341Y-1786380D01*
X3475769Y-1786380D01*
X3477911Y-1785666D01*
X3479340Y-1783523D01*
X3480054Y-1779953D01*
X3480054Y-1777810D01*
X3479340Y-1774240D01*
X3477911Y-1772097D01*
X3475769Y-1771383D01*
X3474341Y-1771383D01*
X3484124Y-1774954D02*
X3484124Y-1774240D01*
X3484838Y-1772811D01*
X3485552Y-1772097D01*
X3486981Y-1771383D01*
X3489837Y-1771383D01*
X3491266Y-1772097D01*
X3491980Y-1772811D01*
X3492694Y-1774240D01*
X3492694Y-1775668D01*
X3491980Y-1777096D01*
X3490551Y-1779238D01*
X3483410Y-1786380D01*
X3493408Y-1786380D01*
X3497479Y-1774954D02*
X3497479Y-1774240D01*
X3498193Y-1772811D01*
X3498907Y-1772097D01*
X3500335Y-1771383D01*
X3503192Y-1771383D01*
X3504620Y-1772097D01*
X3505334Y-1772811D01*
X3506048Y-1774240D01*
X3506048Y-1775668D01*
X3505334Y-1777096D01*
X3503906Y-1779238D01*
X3496765Y-1786380D01*
X3506762Y-1786380D01*
X3250000Y-1601619D02*
X3254285Y-1601619D01*
X3255713Y-1601143D01*
X3256189Y-1600667D01*
X3256666Y-1599715D01*
X3256666Y-1598286D01*
X3256189Y-1597334D01*
X3255713Y-1596858D01*
X3254285Y-1596382D01*
X3250000Y-1596382D01*
X3250000Y-1606380D01*
X3266520Y-1606380D02*
X3262712Y-1596382D01*
X3258903Y-1606380D01*
X3260331Y-1603047D02*
X3265092Y-1603047D01*
X3268853Y-1596382D02*
X3268853Y-1606380D01*
X3268853Y-1596382D02*
X3273138Y-1596382D01*
X3274566Y-1596858D01*
X3275042Y-1597334D01*
X3275518Y-1598286D01*
X3275518Y-1599238D01*
X3275042Y-1600191D01*
X3274566Y-1600667D01*
X3273138Y-1601143D01*
X3268853Y-1601143D01*
X3272186Y-1601143D02*
X3275518Y-1606380D01*
X3281089Y-1596382D02*
X3281089Y-1606380D01*
X3277756Y-1596382D02*
X3284421Y-1596382D01*
X3293467Y-1596382D02*
X3293467Y-1606380D01*
X3293467Y-1596382D02*
X3300132Y-1606380D01*
X3300132Y-1596382D02*
X3300132Y-1606380D01*
X3302894Y-1596382D02*
X3302894Y-1603523D01*
X3303370Y-1604951D01*
X3304322Y-1605904D01*
X3305750Y-1606380D01*
X3306702Y-1606380D01*
X3308130Y-1605904D01*
X3309083Y-1604951D01*
X3309559Y-1603523D01*
X3309559Y-1596382D01*
X3312320Y-1596382D02*
X3312320Y-1606380D01*
X3312320Y-1596382D02*
X3316129Y-1606380D01*
X3319938Y-1596382D02*
X3316129Y-1606380D01*
X3319938Y-1596382D02*
X3319938Y-1606380D01*
X3322794Y-1596382D02*
X3322794Y-1606380D01*
X3322794Y-1596382D02*
X3327079Y-1596382D01*
X3328507Y-1596858D01*
X3328983Y-1597334D01*
X3329460Y-1598286D01*
X3329460Y-1599238D01*
X3328983Y-1600191D01*
X3328507Y-1600667D01*
X3327079Y-1601143D01*
X3322794Y-1601143D02*
X3327079Y-1601143D01*
X3328507Y-1601619D01*
X3328983Y-1602095D01*
X3329460Y-1603047D01*
X3329460Y-1604475D01*
X3328983Y-1605428D01*
X3328507Y-1605904D01*
X3327079Y-1606380D01*
X3322794Y-1606380D01*
X3337886Y-1596382D02*
X3331697Y-1596382D01*
X3331697Y-1606380D01*
X3337886Y-1606380D01*
X3331697Y-1601143D02*
X3335506Y-1601143D01*
X3339553Y-1596382D02*
X3339553Y-1606380D01*
X3339553Y-1596382D02*
X3343837Y-1596382D01*
X3345266Y-1596858D01*
X3345742Y-1597334D01*
X3346218Y-1598286D01*
X3346218Y-1599238D01*
X3345742Y-1600191D01*
X3345266Y-1600667D01*
X3343837Y-1601143D01*
X3339553Y-1601143D01*
X3342885Y-1601143D02*
X3346218Y-1606380D01*
X3348931Y-1599715D02*
X3348455Y-1600191D01*
X3348931Y-1600667D01*
X3349407Y-1600191D01*
X3348931Y-1599715D01*
X3348931Y-1605428D02*
X3348455Y-1605904D01*
X3348931Y-1606380D01*
X3349407Y-1605904D01*
X3348931Y-1605428D01*
D16*
X40000Y100343D02*
X93000Y100343D01*
X93000Y194343D01*
X40000Y194343D02*
X93000Y194343D01*
X40000Y100343D02*
X40000Y194343D01*
X-57000Y115343D02*
X40000Y115343D01*
X-57000Y115343D02*
X-57000Y179343D01*
X40000Y179343D01*
X627000Y32279D02*
X635000Y32279D01*
X627000Y48279D02*
X635000Y48279D01*
X627000Y32279D02*
X627000Y48279D01*
X635000Y32279D02*
X635000Y48279D01*
X653515Y24799D02*
X653515Y89799D01*
X653515Y24799D02*
X708315Y24799D01*
X708315Y89799D01*
X653515Y89799D02*
X708315Y89799D01*
X643531Y100784D02*
X643531Y128284D01*
X643531Y100784D02*
X695531Y100784D01*
X695531Y125384D01*
X692631Y128284D02*
X695531Y125384D01*
X643531Y128284D02*
X692631Y128284D01*
X138285Y240205D02*
X188285Y240205D01*
X138285Y300205D02*
X188285Y300205D01*
X188285Y240205D02*
X188285Y300205D01*
X138285Y240205D02*
X138285Y300205D01*
X872000Y232426D02*
X925000Y232426D01*
X872000Y138426D02*
X872000Y232426D01*
X872000Y138426D02*
X925000Y138426D01*
X925000Y232426D01*
X925000Y217426D02*
X1022000Y217426D01*
X1022000Y153426D02*
X1022000Y217426D01*
X925000Y153426D02*
X1022000Y153426D01*
X145498Y7234D02*
X145498Y12234D01*
X145498Y7234D02*
X155498Y7234D01*
X155498Y12234D01*
X145498Y12234D02*
X155498Y12234D01*
X123502Y31629D02*
X128502Y31629D01*
X123502Y21629D02*
X123502Y31629D01*
X123502Y21629D02*
X128502Y21629D01*
X128502Y31629D01*
X146232Y43884D02*
X146232Y49726D01*
X149788Y49726D01*
X149788Y43884D02*
X149788Y49726D01*
X159238Y26358D02*
X159238Y32200D01*
X155682Y26358D02*
X159238Y26358D01*
X155682Y26358D02*
X155682Y32200D01*
X136682Y26358D02*
X136682Y32200D01*
X136682Y26358D02*
X140238Y26358D01*
X140238Y32200D01*
X134523Y32200D02*
X134523Y43884D01*
X161447Y43884D01*
X161447Y32200D02*
X161447Y43884D01*
X134523Y32200D02*
X161447Y32200D01*
X218592Y234658D02*
X228592Y234658D01*
X218592Y234658D02*
X218592Y239658D01*
X228592Y239658D01*
X228592Y234658D02*
X228592Y239658D01*
X239800Y234658D02*
X249800Y234658D01*
X239800Y234658D02*
X239800Y239658D01*
X249800Y239658D01*
X249800Y234658D02*
X249800Y239658D01*
X218522Y210862D02*
X218522Y215862D01*
X218522Y210862D02*
X228522Y210862D01*
X228522Y215862D01*
X218522Y215862D02*
X228522Y215862D01*
X219153Y222739D02*
X229153Y222739D01*
X219153Y222739D02*
X219153Y227739D01*
X229153Y227739D01*
X229153Y222739D02*
X229153Y227739D01*
X240163Y222739D02*
X250163Y222739D01*
X240163Y222739D02*
X240163Y227739D01*
X250163Y227739D01*
X250163Y222739D02*
X250163Y227739D01*
X250679Y211282D02*
X250679Y216282D01*
X240679Y216282D02*
X250679Y216282D01*
X240679Y211282D02*
X240679Y216282D01*
X240679Y211282D02*
X250679Y211282D01*
X553528Y151888D02*
X553528Y163888D01*
X552528Y151888D02*
X552528Y163888D01*
X552528Y151888D02*
X582528Y151888D01*
X552528Y163888D02*
X582528Y163888D01*
X582528Y151888D02*
X582528Y163888D01*
X519431Y33252D02*
X519431Y38252D01*
X519431Y33252D02*
X529431Y33252D01*
X529431Y38252D01*
X519431Y38252D02*
X529431Y38252D01*
X608690Y36717D02*
X619690Y36717D01*
X608690Y13717D02*
X619690Y13717D01*
X608690Y13717D02*
X608690Y36717D01*
X619690Y13717D02*
X619690Y36717D01*
X516930Y120943D02*
X553930Y120943D01*
X516930Y86943D02*
X516930Y120943D01*
X553930Y86943D02*
X553930Y120943D01*
X516930Y86943D02*
X553930Y86943D01*
X565930Y86943D02*
X602930Y86943D01*
X602930Y120943D01*
X565930Y86943D02*
X565930Y120943D01*
X602930Y120943D01*
X555430Y81500D02*
X575430Y81500D01*
X555430Y68999D02*
X575430Y68999D01*
X555430Y68999D02*
X555430Y81500D01*
X575430Y68999D02*
X575430Y81500D01*
X536692Y35969D02*
X541692Y35969D01*
X536692Y25969D02*
X536692Y35969D01*
X536692Y25969D02*
X541692Y25969D01*
X541692Y35969D01*
X529930Y82941D02*
X546930Y82941D01*
X529930Y44441D02*
X529930Y82941D01*
X529930Y44441D02*
X546930Y44441D01*
X546930Y82941D01*
X199000Y41007D02*
X215000Y41007D01*
X199000Y49007D02*
X215000Y49007D01*
X215000Y41007D02*
X215000Y49007D01*
X199000Y41007D02*
X199000Y49007D01*
X408352Y77442D02*
X413101Y77442D01*
X413101Y73442D02*
X413101Y77442D01*
X408352Y73442D02*
X413101Y73442D01*
X408352Y64441D02*
X413101Y64441D01*
X413101Y60441D02*
X413101Y64441D01*
X408352Y60441D02*
X413101Y60441D01*
X391102Y70942D02*
X395851Y70942D01*
X391102Y66942D02*
X391102Y70942D01*
X391102Y66942D02*
X395851Y66942D01*
X408351Y57942D02*
X408351Y79942D01*
X395851Y57942D02*
X395851Y79942D01*
X395851Y57942D02*
X408351Y57942D01*
X395851Y79942D02*
X408351Y79942D01*
X444547Y56440D02*
X444547Y61440D01*
X434547Y61440D02*
X444547Y61440D01*
X434547Y56440D02*
X434547Y61440D01*
X434547Y56440D02*
X444547Y56440D01*
X567233Y49092D02*
X567233Y54934D01*
X563677Y54934D02*
X567233Y54934D01*
X563677Y49092D02*
X563677Y54934D01*
X554127Y31566D02*
X554127Y37408D01*
X554127Y31566D02*
X557683Y31566D01*
X557683Y37408D01*
X573127Y31566D02*
X573127Y37408D01*
X573127Y31566D02*
X576683Y31566D01*
X576683Y37408D01*
X551968Y49092D02*
X578892Y49092D01*
X551968Y37408D02*
X551968Y49092D01*
X551968Y37408D02*
X578892Y37408D01*
X578892Y49092D01*
X573177Y49092D02*
X573177Y54934D01*
X576733Y54934D01*
X576733Y49092D02*
X576733Y54934D01*
X557733Y49092D02*
X557733Y54934D01*
X554177Y54934D02*
X557733Y54934D01*
X554177Y49092D02*
X554177Y54934D01*
X588526Y12536D02*
X601027Y12536D01*
X588526Y32536D02*
X601027Y32536D01*
X588526Y12536D02*
X588526Y32536D01*
X601027Y12536D02*
X601027Y32536D01*
X516430Y48347D02*
X516430Y64347D01*
X524430Y48347D02*
X524430Y64347D01*
X516430Y48347D02*
X524430Y48347D01*
X516430Y64347D02*
X524430Y64347D01*
X604430Y46250D02*
X604430Y78250D01*
X588430Y46250D02*
X588430Y78250D01*
X604430Y78250D01*
X588430Y46250D02*
X604430Y46250D01*
X546570Y19373D02*
X556570Y19373D01*
X556570Y14373D02*
X556570Y19373D01*
X546570Y14373D02*
X556570Y14373D01*
X546570Y14373D02*
X546570Y19373D01*
X466970Y17837D02*
X508970Y17837D01*
X466970Y53837D02*
X508970Y53837D01*
X466970Y17837D02*
X466970Y53837D01*
X508970Y17837D02*
X508970Y53837D01*
X494180Y83250D02*
X506681Y83250D01*
X494180Y63250D02*
X506681Y63250D01*
X506681Y83250D01*
X494180Y63250D02*
X494180Y83250D01*
X204498Y29793D02*
X214498Y29793D01*
X204498Y29793D02*
X204498Y34793D01*
X214498Y34793D01*
X214498Y29793D02*
X214498Y34793D01*
X170485Y26447D02*
X170485Y38447D01*
X169485Y26447D02*
X169485Y38447D01*
X169485Y26447D02*
X199485Y26447D01*
X169485Y38447D02*
X199485Y38447D01*
X199485Y26447D02*
X199485Y38447D01*
X435889Y36043D02*
X462813Y36043D01*
X435889Y24359D02*
X435889Y36043D01*
X435889Y24359D02*
X462813Y24359D01*
X462813Y36043D01*
X457098Y36043D02*
X457098Y41885D01*
X460654Y41885D01*
X460654Y36043D02*
X460654Y41885D01*
X441654Y36043D02*
X441654Y41885D01*
X438098Y41885D02*
X441654Y41885D01*
X438098Y36043D02*
X438098Y41885D01*
X447548Y18517D02*
X447548Y24359D01*
X447548Y18517D02*
X451104Y18517D01*
X451104Y24359D01*
X472180Y83250D02*
X484681Y83250D01*
X472180Y63250D02*
X484681Y63250D01*
X484681Y83250D01*
X472180Y63250D02*
X472180Y83250D01*
X272502Y67392D02*
X282502Y67392D01*
X282502Y62393D02*
X282502Y67392D01*
X272502Y62393D02*
X282502Y62393D01*
X272502Y62393D02*
X272502Y67392D01*
X295318Y13713D02*
X295318Y23713D01*
X300318Y23713D01*
X300318Y13713D02*
X300318Y23713D01*
X295318Y13713D02*
X300318Y13713D01*
X277678Y13893D02*
X277678Y23893D01*
X282678Y23893D01*
X282678Y13893D02*
X282678Y23893D01*
X277678Y13893D02*
X282678Y13893D01*
X362904Y73941D02*
X375405Y73941D01*
X362904Y53941D02*
X375405Y53941D01*
X375405Y73941D01*
X362904Y53941D02*
X362904Y73941D01*
X348195Y54441D02*
X348195Y70441D01*
X356194Y54441D02*
X356194Y70441D01*
X348195Y54441D02*
X356194Y54441D01*
X348195Y70441D02*
X356194Y70441D01*
X225859Y26131D02*
X238360Y26131D01*
X225859Y46131D02*
X238360Y46131D01*
X225859Y26131D02*
X225859Y46131D01*
X238360Y26131D02*
X238360Y46131D01*
X252869Y28131D02*
X252869Y44131D01*
X244869Y28131D02*
X244869Y44131D01*
X252869Y44131D01*
X244869Y28131D02*
X252869Y28131D01*
X104600Y236450D02*
X104600Y338050D01*
X129400Y338050D01*
X104600Y236450D02*
X129400Y236450D01*
X129400Y338050D01*
X116902Y127498D02*
X121902Y127498D01*
X116902Y117498D02*
X116902Y127498D01*
X116902Y117498D02*
X121902Y117498D01*
X121902Y127498D01*
X122040Y96825D02*
X122040Y106825D01*
X117040Y96825D02*
X122040Y96825D01*
X117040Y96825D02*
X117040Y106825D01*
X122040Y106825D01*
X116900Y148613D02*
X121900Y148613D01*
X116900Y138614D02*
X116900Y148613D01*
X116900Y138614D02*
X121900Y138614D01*
X121900Y148613D01*
X182385Y192374D02*
X190385Y192374D01*
X182385Y176374D02*
X190385Y176374D01*
X190385Y192374D01*
X182385Y176374D02*
X182385Y192374D01*
X169000Y176374D02*
X169000Y192374D01*
X177000Y176374D02*
X177000Y192374D01*
X169000Y176374D02*
X177000Y176374D01*
X169000Y192374D02*
X177000Y192374D01*
X195060Y176000D02*
X195060Y186000D01*
X200060Y186000D01*
X200060Y176000D02*
X200060Y186000D01*
X195060Y176000D02*
X200060Y176000D01*
X652270Y314160D02*
X652270Y341660D01*
X600270Y341660D02*
X652270Y341660D01*
X600270Y317060D02*
X600270Y341660D01*
X600270Y317060D02*
X603170Y314160D01*
X652270Y314160D01*
X583059Y259080D02*
X583059Y349580D01*
X484060Y259080D02*
X484060Y349580D01*
X484060Y259080D02*
X583059Y259080D01*
X484060Y349580D02*
X583059Y349580D01*
X601270Y242860D02*
X601270Y302860D01*
X651270Y242860D02*
X651270Y302860D01*
X601270Y302860D02*
X651270Y302860D01*
X601270Y242860D02*
X651270Y242860D01*
X575557Y130087D02*
X575557Y135087D01*
X565557Y135087D02*
X575557Y135087D01*
X565557Y130087D02*
X565557Y135087D01*
X565557Y130087D02*
X575557Y130087D01*
X566143Y167502D02*
X566143Y172502D01*
X566143Y167502D02*
X576143Y167502D01*
X576143Y172502D01*
X566143Y172502D02*
X576143Y172502D01*
X664837Y267890D02*
X669837Y267890D01*
X669837Y277890D01*
X664837Y277890D02*
X669837Y277890D01*
X664837Y267890D02*
X664837Y277890D01*
X651758Y224215D02*
X651758Y229215D01*
X641758Y229215D02*
X651758Y229215D01*
X641758Y224215D02*
X641758Y229215D01*
X641758Y224215D02*
X651758Y224215D01*
X661339Y286569D02*
X673339Y286569D01*
X673339Y316569D01*
X661339Y286569D02*
X661339Y316569D01*
X673339Y316569D01*
X661339Y315569D02*
X673339Y315569D01*
X670998Y224215D02*
X670998Y229215D01*
X660998Y229215D02*
X670998Y229215D01*
X660998Y224215D02*
X660998Y229215D01*
X660998Y224215D02*
X670998Y224215D01*
X560741Y182258D02*
X570741Y182258D01*
X560741Y182258D02*
X560741Y187258D01*
X570741Y187258D01*
X570741Y182258D02*
X570741Y187258D01*
X560430Y242590D02*
X570430Y242590D01*
X570430Y237590D02*
X570430Y242590D01*
X560430Y237590D02*
X570430Y237590D01*
X560430Y237590D02*
X560430Y242590D01*
X582486Y137668D02*
X582486Y149668D01*
X552486Y149668D02*
X582486Y149668D01*
X552486Y137668D02*
X582486Y137668D01*
X552486Y137668D02*
X552486Y149668D01*
X553486Y137668D02*
X553486Y149668D01*
X464048Y56440D02*
X464048Y61440D01*
X454048Y61440D02*
X464048Y61440D01*
X454048Y56440D02*
X454048Y61440D01*
X454048Y56440D02*
X464048Y56440D01*
X516160Y124270D02*
X516160Y132270D01*
X500160Y124270D02*
X500160Y132270D01*
X500160Y124270D02*
X516160Y124270D01*
X500160Y132270D02*
X516160Y132270D01*
X688033Y164505D02*
X693033Y164505D01*
X693033Y174505D01*
X688033Y174505D02*
X693033Y174505D01*
X688033Y164505D02*
X688033Y174505D01*
X399498Y40752D02*
X404498Y40752D01*
X404498Y50752D01*
X399498Y50752D02*
X404498Y50752D01*
X399498Y40752D02*
X399498Y50752D01*
X408250Y29035D02*
X412999Y29035D01*
X412999Y25035D02*
X412999Y29035D01*
X408250Y25035D02*
X412999Y25035D01*
X408250Y16035D02*
X412999Y16035D01*
X412999Y12035D02*
X412999Y16035D01*
X408250Y12035D02*
X412999Y12035D01*
X391000Y22536D02*
X395749Y22536D01*
X391000Y18536D02*
X391000Y22536D01*
X391000Y18536D02*
X395749Y18536D01*
X408249Y9536D02*
X408249Y31536D01*
X395749Y9536D02*
X395749Y31536D01*
X395749Y9536D02*
X408249Y9536D01*
X395749Y31536D02*
X408249Y31536D01*
X302368Y67598D02*
X307368Y67598D01*
X307368Y77598D01*
X302368Y77598D02*
X307368Y77598D01*
X302368Y67598D02*
X302368Y77598D01*
X162195Y176525D02*
X162195Y196525D01*
X149694Y176525D02*
X149694Y196525D01*
X162195Y196525D01*
X149694Y176525D02*
X162195Y176525D01*
X189168Y312457D02*
X189168Y339957D01*
X137169Y339957D02*
X189168Y339957D01*
X137169Y315357D02*
X137169Y339957D01*
X137169Y315357D02*
X140069Y312457D01*
X189168Y312457D01*
X196872Y231160D02*
X208872Y231160D01*
X208872Y261160D01*
X196872Y231160D02*
X196872Y261160D01*
X208872Y261160D01*
X196872Y260160D02*
X208872Y260160D01*
X175868Y220282D02*
X175868Y225282D01*
X165868Y225282D02*
X175868Y225282D01*
X165868Y220282D02*
X165868Y225282D01*
X165868Y220282D02*
X175868Y220282D01*
X199869Y213777D02*
X204869Y213777D01*
X204869Y223777D01*
X199869Y223777D02*
X204869Y223777D01*
X199869Y213777D02*
X199869Y223777D01*
X185774Y213285D02*
X190774Y213285D01*
X190774Y223285D01*
X185774Y223285D02*
X190774Y223285D01*
X185774Y213285D02*
X185774Y223285D01*
X218844Y247692D02*
X218844Y255692D01*
X234844Y247692D02*
X234844Y255692D01*
X218844Y255692D02*
X234844Y255692D01*
X218844Y247692D02*
X234844Y247692D01*
X246300Y249135D02*
X251300Y249135D01*
X251300Y259135D01*
X246300Y259135D02*
X251300Y259135D01*
X246300Y249135D02*
X246300Y259135D01*
X244802Y286897D02*
X252802Y286897D01*
X244802Y270897D02*
X252802Y270897D01*
X252802Y286897D01*
X244802Y270897D02*
X244802Y286897D01*
X223594Y270897D02*
X223594Y290897D01*
X236095Y270897D02*
X236095Y290897D01*
X223594Y270897D02*
X236095Y270897D01*
X223594Y290897D02*
X236095Y290897D01*
X412502Y50748D02*
X417502Y50748D01*
X412502Y40748D02*
X412502Y50748D01*
X412502Y40748D02*
X417502Y40748D01*
X417502Y50748D01*
X252802Y183874D02*
X252802Y199874D01*
X244802Y183874D02*
X244802Y199874D01*
X252802Y199874D01*
X244802Y183874D02*
X252802Y183874D01*
X230522Y191848D02*
X230522Y201848D01*
X225522Y191848D02*
X230522Y191848D01*
X225522Y191848D02*
X225522Y201848D01*
X230522Y201848D01*
X405268Y62274D02*
X401936Y62274D01*
X401102Y61441D01*
X401102Y59774D01*
X401936Y58941D01*
X405268Y58941D01*
X406101Y59774D01*
X406101Y61441D01*
X404435Y60608D02*
X406101Y62274D01*
X406101Y61441D02*
X405268Y62274D01*
X401102Y67272D02*
X401936Y65606D01*
X403602Y63940D01*
X405268Y63940D01*
X406101Y64773D01*
X406101Y66439D01*
X405268Y67272D01*
X404435Y67272D01*
X403602Y66439D01*
X403602Y63940D01*
X611441Y15467D02*
X616440Y15467D01*
X616440Y17966D01*
X615607Y18799D01*
X612274Y18799D01*
X611441Y17966D01*
X611441Y15467D01*
X611441Y20465D02*
X611441Y23798D01*
X612274Y23798D01*
X615607Y20465D01*
X616440Y20465D01*
X541678Y69941D02*
X536680Y69941D01*
X536680Y67442D01*
X537513Y66609D01*
X540845Y66609D01*
X541678Y67442D01*
X541678Y69941D01*
X541678Y61611D02*
X540845Y63277D01*
X539179Y64943D01*
X537513Y64943D01*
X536680Y64110D01*
X536680Y62444D01*
X537513Y61611D01*
X538346Y61611D01*
X539179Y62444D01*
X539179Y64943D01*
X580429Y55748D02*
X578763Y55748D01*
X579596Y55748D01*
X579596Y50750D01*
X580429Y51583D01*
X405166Y13867D02*
X401834Y13867D01*
X401001Y13034D01*
X401001Y11368D01*
X401834Y10535D01*
X405166Y10535D01*
X405999Y11368D01*
X405999Y13034D01*
X404333Y12201D02*
X405999Y13867D01*
X405999Y13034D02*
X405166Y13867D01*
X405999Y18032D02*
X401001Y18032D01*
X403500Y15533D01*
X403500Y18865D01*
X3477000Y-1812380D02*
X3477000Y-1806380D01*
X3538200Y-1616380D02*
X3538200Y-1616380D01*
X3427000Y-1814380D02*
X3427000Y-1804380D01*
X3425400Y-1832730D02*
X3425400Y-1820030D01*
X3450800Y-1832730D02*
X3450800Y-1820030D01*
X3476200Y-1832730D02*
X3476200Y-1820030D01*
X3501600Y-1832730D02*
X3501600Y-1820030D01*
X3527000Y-1814380D02*
X3527000Y-1804380D01*
X3527000Y-1832730D02*
X3527000Y-1820030D01*
X3240000Y-1616380D02*
X3240000Y-1586380D01*
X3425400Y-1826380D02*
X3527000Y-1826380D01*
X3427000Y-1809380D02*
X3527000Y-1809380D01*
X3240000Y-1616380D02*
X3538200Y-1616380D01*
X2720000Y-1661380D02*
X3538200Y-1661380D01*
X3392333Y-1822381D02*
X3389000Y-1827047D01*
X3393999Y-1827047D01*
X3392333Y-1822381D02*
X3392333Y-1829380D01*
X3397232Y-1822381D02*
X3396232Y-1822715D01*
X3395565Y-1823714D01*
X3395232Y-1825381D01*
X3395232Y-1826380D01*
X3395565Y-1828047D01*
X3396232Y-1829047D01*
X3397232Y-1829380D01*
X3397898Y-1829380D01*
X3398898Y-1829047D01*
X3399565Y-1828047D01*
X3399898Y-1826380D01*
X3399898Y-1825381D01*
X3399565Y-1823714D01*
X3398898Y-1822715D01*
X3397898Y-1822381D01*
X3397232Y-1822381D01*
X3403464Y-1822381D02*
X3402464Y-1822715D01*
X3401797Y-1823714D01*
X3401464Y-1825381D01*
X3401464Y-1826380D01*
X3401797Y-1828047D01*
X3402464Y-1829047D01*
X3403464Y-1829380D01*
X3404130Y-1829380D01*
X3405130Y-1829047D01*
X3405797Y-1828047D01*
X3406130Y-1826380D01*
X3406130Y-1825381D01*
X3405797Y-1823714D01*
X3405130Y-1822715D01*
X3404130Y-1822381D01*
X3403464Y-1822381D01*
X3407696Y-1824714D02*
X3407696Y-1829380D01*
X3407696Y-1826047D02*
X3408696Y-1825047D01*
X3409362Y-1824714D01*
X3410362Y-1824714D01*
X3411029Y-1825047D01*
X3411362Y-1826047D01*
X3411362Y-1829380D01*
X3411362Y-1826047D02*
X3412362Y-1825047D01*
X3413028Y-1824714D01*
X3414028Y-1824714D01*
X3414695Y-1825047D01*
X3415028Y-1826047D01*
X3415028Y-1829380D01*
X3417894Y-1822381D02*
X3418227Y-1822715D01*
X3418560Y-1822381D01*
X3418227Y-1822048D01*
X3417894Y-1822381D01*
X3418227Y-1824714D02*
X3418227Y-1829380D01*
X3419794Y-1822381D02*
X3419794Y-1829380D01*
X3390000Y-1806714D02*
X3390667Y-1806381D01*
X3391666Y-1805381D01*
X3391666Y-1812380D01*
X3397132Y-1805381D02*
X3396132Y-1805715D01*
X3395466Y-1806714D01*
X3395132Y-1808381D01*
X3395132Y-1809380D01*
X3395466Y-1811047D01*
X3396132Y-1812047D01*
X3397132Y-1812380D01*
X3397798Y-1812380D01*
X3398798Y-1812047D01*
X3399465Y-1811047D01*
X3399798Y-1809380D01*
X3399798Y-1808381D01*
X3399465Y-1806714D01*
X3398798Y-1805715D01*
X3397798Y-1805381D01*
X3397132Y-1805381D01*
X3401364Y-1807714D02*
X3401364Y-1812380D01*
X3401364Y-1809047D02*
X3402364Y-1808047D01*
X3403031Y-1807714D01*
X3404030Y-1807714D01*
X3404697Y-1808047D01*
X3405030Y-1809047D01*
X3405030Y-1812380D01*
X3405030Y-1809047D02*
X3406030Y-1808047D01*
X3406696Y-1807714D01*
X3407697Y-1807714D01*
X3408363Y-1808047D01*
X3408696Y-1809047D01*
X3408696Y-1812380D01*
X3410896Y-1807714D02*
X3410896Y-1812380D01*
X3410896Y-1809047D02*
X3411895Y-1808047D01*
X3412562Y-1807714D01*
X3413562Y-1807714D01*
X3414228Y-1808047D01*
X3414561Y-1809047D01*
X3414561Y-1812380D01*
X3414561Y-1809047D02*
X3415561Y-1808047D01*
X3416228Y-1807714D01*
X3417228Y-1807714D01*
X3417894Y-1808047D01*
X3418228Y-1809047D01*
X3418228Y-1812380D01*
D17*
X3194571Y-1770383D02*
X3192285Y-1771145D01*
X3190762Y-1773430D01*
X3190000Y-1777239D01*
X3190000Y-1779524D01*
X3190762Y-1783333D01*
X3192285Y-1785618D01*
X3194571Y-1786380D01*
X3196094Y-1786380D01*
X3198379Y-1785618D01*
X3199903Y-1783333D01*
X3200664Y-1779524D01*
X3200664Y-1777239D01*
X3199903Y-1773430D01*
X3198379Y-1771145D01*
X3196094Y-1770383D01*
X3194571Y-1770383D01*
X3205006Y-1774192D02*
X3205006Y-1773430D01*
X3205768Y-1771907D01*
X3206530Y-1771145D01*
X3208053Y-1770383D01*
X3211100Y-1770383D01*
X3212624Y-1771145D01*
X3213386Y-1771907D01*
X3214147Y-1773430D01*
X3214147Y-1774954D01*
X3213386Y-1776477D01*
X3211862Y-1778763D01*
X3204245Y-1786380D01*
X3214909Y-1786380D01*
X3218489Y-1779524D02*
X3232201Y-1779524D01*
X3240732Y-1770383D02*
X3240732Y-1779524D01*
X3236923Y-1772668D02*
X3244541Y-1777239D01*
X3244541Y-1772668D02*
X3236923Y-1777239D01*
X3251625Y-1770383D02*
X3251625Y-1779524D01*
X3247816Y-1772668D02*
X3255434Y-1777239D01*
X3255434Y-1772668D02*
X3247816Y-1777239D01*
X3258709Y-1779524D02*
X3272420Y-1779524D01*
X3277143Y-1770383D02*
X3277143Y-1786380D01*
X3277143Y-1770383D02*
X3282476Y-1770383D01*
X3284761Y-1771145D01*
X3286284Y-1772668D01*
X3287046Y-1774192D01*
X3287808Y-1776477D01*
X3287808Y-1780286D01*
X3287046Y-1782571D01*
X3286284Y-1784095D01*
X3284761Y-1785618D01*
X3282476Y-1786380D01*
X3277143Y-1786380D01*
X2733809Y-1770383D02*
X2733809Y-1779524D01*
X2730000Y-1772668D02*
X2737617Y-1777239D01*
X2737617Y-1772668D02*
X2730000Y-1777239D01*
X2744702Y-1770383D02*
X2744702Y-1779524D01*
X2740893Y-1772668D02*
X2748510Y-1777239D01*
X2748510Y-1772668D02*
X2740893Y-1777239D01*
X3014571Y-1770383D02*
X3012285Y-1771145D01*
X3010762Y-1773430D01*
X3010000Y-1777239D01*
X3010000Y-1779524D01*
X3010762Y-1783333D01*
X3012285Y-1785618D01*
X3014571Y-1786380D01*
X3016094Y-1786380D01*
X3018379Y-1785618D01*
X3019903Y-1783333D01*
X3020664Y-1779524D01*
X3020664Y-1777239D01*
X3019903Y-1773430D01*
X3018379Y-1771145D01*
X3016094Y-1770383D01*
X3014571Y-1770383D01*
X3031862Y-1770383D02*
X3024245Y-1781048D01*
X3035671Y-1781048D01*
X3031862Y-1770383D02*
X3031862Y-1786380D01*
X3038489Y-1779524D02*
X3052201Y-1779524D01*
X3060732Y-1770383D02*
X3060732Y-1779524D01*
X3056924Y-1772668D02*
X3064541Y-1777239D01*
X3064541Y-1772668D02*
X3056924Y-1777239D01*
X3071625Y-1770383D02*
X3071625Y-1779524D01*
X3067816Y-1772668D02*
X3075434Y-1777239D01*
X3075434Y-1772668D02*
X3067816Y-1777239D01*
D18*
X2735951Y-1626385D02*
X2735951Y-1640668D01*
X2730000Y-1629956D02*
X2741902Y-1637097D01*
X2741902Y-1629956D02*
X2730000Y-1637097D01*
X2752971Y-1626385D02*
X2752971Y-1640668D01*
X2747020Y-1629956D02*
X2758922Y-1637097D01*
X2758922Y-1629956D02*
X2747020Y-1637097D01*
D123*
X570430Y73500D02*
X571180Y72751D01*
X572679Y72751D01*
X573429Y73500D01*
X573429Y76499D01*
X572679Y77249D01*
X571180Y77249D01*
X570430Y76499D01*
X565932Y73500D02*
X566681Y72751D01*
X568181Y72751D01*
X568931Y73500D01*
X568931Y76499D01*
X568181Y77249D01*
X566681Y77249D01*
X565932Y76499D01*
X593027Y17536D02*
X592278Y16786D01*
X592278Y15286D01*
X593027Y14536D01*
X596027Y14536D01*
X596776Y15286D01*
X596776Y16786D01*
X596027Y17536D01*
X596776Y19035D02*
X596776Y20535D01*
X596776Y19785D01*
X592278Y19785D01*
X593027Y19035D01*
X596776Y25033D02*
X592278Y25033D01*
X594527Y22784D01*
X594527Y25783D01*
X502179Y78250D02*
X502929Y79000D01*
X502929Y80499D01*
X502179Y81249D01*
X499180Y81249D01*
X498431Y80499D01*
X498431Y79000D01*
X499180Y78250D01*
X498431Y73752D02*
X498431Y76751D01*
X501430Y73752D01*
X502179Y73752D01*
X502929Y74501D01*
X502929Y76001D01*
X502179Y76751D01*
X498431Y69253D02*
X498431Y72252D01*
X501430Y69253D01*
X502179Y69253D01*
X502929Y70003D01*
X502929Y71502D01*
X502179Y72252D01*
X480179Y78250D02*
X480929Y79000D01*
X480929Y80499D01*
X480179Y81249D01*
X477180Y81249D01*
X476431Y80499D01*
X476431Y79000D01*
X477180Y78250D01*
X476431Y73752D02*
X476431Y76751D01*
X479430Y73752D01*
X480179Y73752D01*
X480929Y74501D01*
X480929Y76001D01*
X480179Y76751D01*
X476431Y72252D02*
X476431Y70753D01*
X476431Y71502D01*
X480929Y71502D01*
X480179Y72252D01*
X370904Y68942D02*
X371653Y69691D01*
X371653Y71191D01*
X370904Y71941D01*
X367904Y71941D01*
X367155Y71191D01*
X367155Y69691D01*
X367904Y68942D01*
X367155Y67442D02*
X367155Y65943D01*
X367155Y66692D01*
X371653Y66692D01*
X370904Y67442D01*
X371653Y60694D02*
X370904Y62194D01*
X369404Y63693D01*
X367904Y63693D01*
X367155Y62944D01*
X367155Y61444D01*
X367904Y60694D01*
X368654Y60694D01*
X369404Y61444D01*
X369404Y63693D01*
X230360Y31131D02*
X229610Y30381D01*
X229610Y28882D01*
X230360Y28132D01*
X233359Y28132D01*
X234109Y28882D01*
X234109Y30381D01*
X233359Y31131D01*
X234109Y35629D02*
X234109Y32630D01*
X231110Y35629D01*
X230360Y35629D01*
X229610Y34880D01*
X229610Y33380D01*
X230360Y32630D01*
X229610Y40128D02*
X229610Y37129D01*
X231860Y37129D01*
X231110Y38628D01*
X231110Y39378D01*
X231860Y40128D01*
X233359Y40128D01*
X234109Y39378D01*
X234109Y37879D01*
X233359Y37129D01*
X154195Y181525D02*
X153446Y180775D01*
X153446Y179276D01*
X154195Y178526D01*
X157194Y178526D01*
X157944Y179276D01*
X157944Y180775D01*
X157194Y181525D01*
X157944Y186023D02*
X157944Y183024D01*
X154945Y186023D01*
X154195Y186023D01*
X153446Y185274D01*
X153446Y183774D01*
X154195Y183024D01*
X154195Y187523D02*
X153446Y188273D01*
X153446Y189772D01*
X154195Y190522D01*
X154945Y190522D01*
X155695Y189772D01*
X155695Y189022D01*
X155695Y189772D01*
X156445Y190522D01*
X157194Y190522D01*
X157944Y189772D01*
X157944Y188273D01*
X157194Y187523D01*
X231594Y285898D02*
X232344Y286647D01*
X232344Y288147D01*
X231594Y288897D01*
X228595Y288897D01*
X227845Y288147D01*
X227845Y286647D01*
X228595Y285898D01*
X227845Y281399D02*
X227845Y284398D01*
X230844Y281399D01*
X231594Y281399D01*
X232344Y282149D01*
X232344Y283648D01*
X231594Y284398D01*
X227845Y277650D02*
X232344Y277650D01*
X230094Y279900D01*
X230094Y276901D01*
D124*
X633000Y33779D02*
X629501Y33779D01*
X629501Y35529D01*
X630084Y36112D01*
X631251Y36112D01*
X631834Y35529D01*
X631834Y33779D01*
X631834Y34945D02*
X633000Y36112D01*
X630084Y37278D02*
X629501Y37861D01*
X629501Y39027D01*
X630084Y39611D01*
X630667Y39611D01*
X631251Y39027D01*
X631251Y38444D01*
X631251Y39027D01*
X631834Y39611D01*
X632417Y39611D01*
X633000Y39027D01*
X633000Y37861D01*
X632417Y37278D01*
X630084Y40777D02*
X629501Y41360D01*
X629501Y42526D01*
X630084Y43109D01*
X630667Y43109D01*
X631251Y42526D01*
X631251Y41943D01*
X631251Y42526D01*
X631834Y43109D01*
X632417Y43109D01*
X633000Y42526D01*
X633000Y41360D01*
X632417Y40777D01*
X200500Y43007D02*
X200500Y46506D01*
X202250Y46506D01*
X202833Y45922D01*
X202833Y44756D01*
X202250Y44173D01*
X200500Y44173D01*
X201666Y44173D02*
X202833Y43007D01*
X203999Y45922D02*
X204582Y46506D01*
X205748Y46506D01*
X206332Y45922D01*
X206332Y45339D01*
X205748Y44756D01*
X205165Y44756D01*
X205748Y44756D01*
X206332Y44173D01*
X206332Y43590D01*
X205748Y43007D01*
X204582Y43007D01*
X203999Y43590D01*
X207498Y45922D02*
X208081Y46506D01*
X209247Y46506D01*
X209830Y45922D01*
X209830Y43590D01*
X209247Y43007D01*
X208081Y43007D01*
X207498Y43590D01*
X207498Y45922D01*
X521346Y60514D02*
X521929Y61097D01*
X521929Y62263D01*
X521346Y62847D01*
X519013Y62847D01*
X518430Y62263D01*
X518430Y61097D01*
X519013Y60514D01*
X518430Y59348D02*
X518430Y58181D01*
X518430Y58765D01*
X521929Y58765D01*
X521346Y59348D01*
X518430Y54099D02*
X518430Y56432D01*
X520762Y54099D01*
X521346Y54099D01*
X521929Y54683D01*
X521929Y55849D01*
X521346Y56432D01*
X353110Y66609D02*
X353693Y67192D01*
X353693Y68358D01*
X353110Y68941D01*
X350778Y68941D01*
X350195Y68358D01*
X350195Y67192D01*
X350778Y66609D01*
X350195Y63110D02*
X350195Y65443D01*
X352527Y63110D01*
X353110Y63110D01*
X353693Y63693D01*
X353693Y64859D01*
X353110Y65443D01*
X247953Y31964D02*
X247370Y31381D01*
X247370Y30214D01*
X247953Y29631D01*
X250286Y29631D01*
X250869Y30214D01*
X250869Y31381D01*
X250286Y31964D01*
X247370Y33130D02*
X247370Y35463D01*
X247953Y35463D01*
X250286Y33130D01*
X250869Y33130D01*
X187301Y188541D02*
X187884Y189124D01*
X187884Y190291D01*
X187301Y190874D01*
X184968Y190874D01*
X184385Y190291D01*
X184385Y189124D01*
X184968Y188541D01*
X184385Y185626D02*
X187884Y185626D01*
X186135Y187375D01*
X186135Y185042D01*
X171000Y190874D02*
X174499Y190874D01*
X174499Y189124D01*
X173916Y188541D01*
X172749Y188541D01*
X172166Y189124D01*
X172166Y190874D01*
X172166Y189708D02*
X171000Y188541D01*
X171000Y185042D02*
X171000Y187375D01*
X173333Y185042D01*
X173916Y185042D01*
X174499Y185625D01*
X174499Y186792D01*
X173916Y187375D01*
X512327Y127354D02*
X512911Y126771D01*
X514077Y126771D01*
X514660Y127354D01*
X514660Y129687D01*
X514077Y130270D01*
X512911Y130270D01*
X512327Y129687D01*
X511161Y130270D02*
X509995Y130270D01*
X510578Y130270D01*
X510578Y126771D01*
X511161Y127354D01*
X508246Y129687D02*
X507662Y130270D01*
X506496Y130270D01*
X505913Y129687D01*
X505913Y127354D01*
X506496Y126771D01*
X507662Y126771D01*
X508246Y127354D01*
X508246Y127937D01*
X507662Y128521D01*
X505913Y128521D01*
X222677Y252607D02*
X222094Y253190D01*
X220927Y253190D01*
X220344Y252607D01*
X220344Y250275D01*
X220927Y249692D01*
X222094Y249692D01*
X222677Y250275D01*
X223843Y249692D02*
X225009Y249692D01*
X224426Y249692D01*
X224426Y253190D01*
X223843Y252607D01*
X249718Y283065D02*
X250301Y283648D01*
X250301Y284814D01*
X249718Y285397D01*
X247385Y285397D01*
X246802Y284814D01*
X246802Y283648D01*
X247385Y283065D01*
X250301Y279566D02*
X249718Y280732D01*
X248551Y281899D01*
X247385Y281899D01*
X246802Y281315D01*
X246802Y280149D01*
X247385Y279566D01*
X247968Y279566D01*
X248551Y280149D01*
X248551Y281899D01*
X247886Y187707D02*
X247303Y187123D01*
X247303Y185957D01*
X247886Y185374D01*
X250219Y185374D01*
X250802Y185957D01*
X250802Y187123D01*
X250219Y187707D01*
X250802Y188873D02*
X250802Y190039D01*
X250802Y189456D01*
X247303Y189456D01*
X247886Y188873D01*
X247886Y191789D02*
X247303Y192372D01*
X247303Y193538D01*
X247886Y194121D01*
X248469Y194121D01*
X249053Y193538D01*
X249053Y192955D01*
X249053Y193538D01*
X249636Y194121D01*
X250219Y194121D01*
X250802Y193538D01*
X250802Y192372D01*
X250219Y191789D01*
D127*
X154498Y11234D02*
X154498Y8235D01*
X152998Y8235D01*
X152498Y8735D01*
X152498Y9735D01*
X152998Y10235D01*
X154498Y10235D01*
X153498Y10235D02*
X152498Y11234D01*
X151499Y8735D02*
X150999Y8235D01*
X149999Y8235D01*
X149499Y8735D01*
X149499Y9235D01*
X149999Y9735D01*
X150499Y9735D01*
X149999Y9735D01*
X149499Y10235D01*
X149499Y10734D01*
X149999Y11234D01*
X150999Y11234D01*
X151499Y10734D01*
X146500Y11234D02*
X148500Y11234D01*
X146500Y9235D01*
X146500Y8735D01*
X147000Y8235D01*
X148000Y8235D01*
X148500Y8735D01*
X127502Y22629D02*
X124503Y22629D01*
X124503Y24129D01*
X125002Y24629D01*
X126002Y24629D01*
X126502Y24129D01*
X126502Y22629D01*
X126502Y23629D02*
X127502Y24629D01*
X125002Y25628D02*
X124503Y26128D01*
X124503Y27128D01*
X125002Y27628D01*
X125502Y27628D01*
X126002Y27128D01*
X126002Y26628D01*
X126002Y27128D01*
X126502Y27628D01*
X127002Y27628D01*
X127502Y27128D01*
X127502Y26128D01*
X127002Y25628D01*
X127502Y28628D02*
X127502Y29627D01*
X127502Y29127D01*
X124503Y29127D01*
X125002Y28628D01*
X219592Y235658D02*
X219592Y238657D01*
X221092Y238657D01*
X221592Y238158D01*
X221592Y237158D01*
X221092Y236658D01*
X219592Y236658D01*
X220592Y236658D02*
X221592Y235658D01*
X222592Y235658D02*
X223591Y235658D01*
X223091Y235658D01*
X223091Y238657D01*
X222592Y238158D01*
X225091Y238158D02*
X225591Y238657D01*
X226590Y238657D01*
X227090Y238158D01*
X227090Y237658D01*
X226590Y237158D01*
X227090Y236658D01*
X227090Y236158D01*
X226590Y235658D01*
X225591Y235658D01*
X225091Y236158D01*
X225091Y236658D01*
X225591Y237158D01*
X225091Y237658D01*
X225091Y238158D01*
X225591Y237158D02*
X226590Y237158D01*
X240800Y235658D02*
X240800Y238657D01*
X242300Y238657D01*
X242800Y238158D01*
X242800Y237158D01*
X242300Y236658D01*
X240800Y236658D01*
X241800Y236658D02*
X242800Y235658D01*
X243799Y235658D02*
X244799Y235658D01*
X244299Y235658D01*
X244299Y238657D01*
X243799Y238158D01*
X248298Y238657D02*
X247298Y238158D01*
X246299Y237158D01*
X246299Y236158D01*
X246798Y235658D01*
X247798Y235658D01*
X248298Y236158D01*
X248298Y236658D01*
X247798Y237158D01*
X246299Y237158D01*
X227522Y214862D02*
X227522Y211863D01*
X226022Y211863D01*
X225522Y212362D01*
X225522Y213362D01*
X226022Y213862D01*
X227522Y213862D01*
X226522Y213862D02*
X225522Y214862D01*
X224523Y214862D02*
X223523Y214862D01*
X224023Y214862D01*
X224023Y211863D01*
X224523Y212362D01*
X222023Y212362D02*
X221524Y211863D01*
X220524Y211863D01*
X220024Y212362D01*
X220024Y214362D01*
X220524Y214862D01*
X221524Y214862D01*
X222023Y214362D01*
X222023Y212362D01*
X220152Y223739D02*
X220152Y226738D01*
X221652Y226738D01*
X222152Y226238D01*
X222152Y225238D01*
X221652Y224738D01*
X220152Y224738D01*
X221152Y224738D02*
X222152Y223739D01*
X225151Y223739D02*
X223152Y223739D01*
X225151Y225738D01*
X225151Y226238D01*
X224651Y226738D01*
X223651Y226738D01*
X223152Y226238D01*
X228150Y226738D02*
X227150Y226238D01*
X226151Y225238D01*
X226151Y224239D01*
X226650Y223739D01*
X227650Y223739D01*
X228150Y224239D01*
X228150Y224738D01*
X227650Y225238D01*
X226151Y225238D01*
X241162Y223739D02*
X241162Y226738D01*
X242662Y226738D01*
X243162Y226238D01*
X243162Y225238D01*
X242662Y224738D01*
X241162Y224738D01*
X242162Y224738D02*
X243162Y223739D01*
X246161Y223739D02*
X244162Y223739D01*
X246161Y225738D01*
X246161Y226238D01*
X245661Y226738D01*
X244661Y226738D01*
X244162Y226238D01*
X249160Y223739D02*
X247161Y223739D01*
X249160Y225738D01*
X249160Y226238D01*
X248660Y226738D01*
X247660Y226738D01*
X247161Y226238D01*
X241679Y212282D02*
X241679Y215281D01*
X243179Y215281D01*
X243679Y214781D01*
X243679Y213781D01*
X243179Y213282D01*
X241679Y213282D01*
X242679Y213282D02*
X243679Y212282D01*
X244678Y212282D02*
X245678Y212282D01*
X245178Y212282D01*
X245178Y215281D01*
X244678Y214781D01*
X249177Y212282D02*
X247177Y212282D01*
X249177Y214281D01*
X249177Y214781D01*
X248677Y215281D01*
X247677Y215281D01*
X247177Y214781D01*
X528432Y37252D02*
X528432Y34253D01*
X526932Y34253D01*
X526432Y34752D01*
X526432Y35752D01*
X526932Y36252D01*
X528432Y36252D01*
X527432Y36252D02*
X526432Y37252D01*
X525433Y34253D02*
X523433Y34253D01*
X524433Y34253D01*
X524433Y37252D01*
X540692Y26969D02*
X537693Y26969D01*
X537693Y28469D01*
X538193Y28969D01*
X539192Y28969D01*
X539692Y28469D01*
X539692Y26969D01*
X539692Y27969D02*
X540692Y28969D01*
X537693Y29968D02*
X540692Y29968D01*
X540692Y31468D01*
X540192Y31968D01*
X539692Y31968D01*
X539192Y31468D01*
X539192Y29968D01*
X539192Y31468D01*
X538692Y31968D01*
X538193Y31968D01*
X537693Y31468D01*
X537693Y29968D01*
X435547Y57440D02*
X435547Y60439D01*
X437047Y60439D01*
X437547Y59939D01*
X437547Y58939D01*
X437047Y58439D01*
X435547Y58439D01*
X436547Y58439D02*
X437547Y57440D01*
X438546Y57440D02*
X439546Y57440D01*
X439046Y57440D01*
X439046Y60439D01*
X438546Y59939D01*
X441045Y60439D02*
X443045Y60439D01*
X443045Y59939D01*
X441045Y57940D01*
X441045Y57440D01*
X555570Y18373D02*
X555570Y15374D01*
X554070Y15374D01*
X553570Y15874D01*
X553570Y16874D01*
X554070Y17373D01*
X555570Y17373D01*
X554570Y17373D02*
X553570Y18373D01*
X552571Y17873D02*
X552071Y18373D01*
X551071Y18373D01*
X550571Y17873D01*
X550571Y15874D01*
X551071Y15374D01*
X552071Y15374D01*
X552571Y15874D01*
X552571Y16374D01*
X552071Y16874D01*
X550571Y16874D01*
X205498Y30793D02*
X205498Y33792D01*
X206998Y33792D01*
X207498Y33292D01*
X207498Y32292D01*
X206998Y31792D01*
X205498Y31792D01*
X206498Y31792D02*
X207498Y30793D01*
X208497Y30793D02*
X209497Y30793D01*
X208997Y30793D01*
X208997Y33792D01*
X208497Y33292D01*
X210997Y30793D02*
X211996Y30793D01*
X211496Y30793D01*
X211496Y33792D01*
X210997Y33292D01*
X281502Y66392D02*
X281502Y63393D01*
X280002Y63393D01*
X279502Y63893D01*
X279502Y64893D01*
X280002Y65393D01*
X281502Y65393D01*
X280502Y65393D02*
X279502Y66392D01*
X276503Y63393D02*
X277503Y63893D01*
X278503Y64893D01*
X278503Y65893D01*
X278003Y66392D01*
X277003Y66392D01*
X276503Y65893D01*
X276503Y65393D01*
X277003Y64893D01*
X278503Y64893D01*
X296318Y22713D02*
X299317Y22713D01*
X299317Y21214D01*
X298818Y20714D01*
X297818Y20714D01*
X297318Y21214D01*
X297318Y22713D01*
X297318Y21714D02*
X296318Y20714D01*
X298818Y19714D02*
X299317Y19214D01*
X299317Y18215D01*
X298818Y17715D01*
X298318Y17715D01*
X297818Y18215D01*
X297818Y18715D01*
X297818Y18215D01*
X297318Y17715D01*
X296818Y17715D01*
X296318Y18215D01*
X296318Y19214D01*
X296818Y19714D01*
X278678Y22893D02*
X281677Y22893D01*
X281677Y21394D01*
X281178Y20894D01*
X280178Y20894D01*
X279678Y21394D01*
X279678Y22893D01*
X279678Y21894D02*
X278678Y20894D01*
X278678Y18395D02*
X281677Y18395D01*
X280178Y19894D01*
X280178Y17895D01*
X120902Y118498D02*
X117903Y118498D01*
X117903Y119998D01*
X118402Y120498D01*
X119402Y120498D01*
X119902Y119998D01*
X119902Y118498D01*
X119902Y119498D02*
X120902Y120498D01*
X117903Y123497D02*
X117903Y121497D01*
X119402Y121497D01*
X118902Y122497D01*
X118902Y122997D01*
X119402Y123497D01*
X120402Y123497D01*
X120902Y122997D01*
X120902Y121997D01*
X120402Y121497D01*
X118541Y99824D02*
X118041Y99325D01*
X118041Y98325D01*
X118541Y97825D01*
X120540Y97825D01*
X121040Y98325D01*
X121040Y99325D01*
X120540Y99824D01*
X118541Y100824D02*
X118041Y101324D01*
X118041Y102324D01*
X118541Y102823D01*
X119041Y102823D01*
X119541Y102324D01*
X119541Y101824D01*
X119541Y102324D01*
X120040Y102823D01*
X120540Y102823D01*
X121040Y102324D01*
X121040Y101324D01*
X120540Y100824D01*
X117901Y139614D02*
X120900Y139614D01*
X120900Y141613D01*
X120900Y142612D02*
X120900Y143612D01*
X120900Y143112D01*
X117901Y143112D01*
X118401Y142612D01*
X198559Y183001D02*
X199059Y183500D01*
X199059Y184500D01*
X198559Y185000D01*
X196560Y185000D01*
X196060Y184500D01*
X196060Y183500D01*
X196560Y183001D01*
X199059Y180002D02*
X199059Y182001D01*
X197560Y182001D01*
X198060Y181001D01*
X198060Y180501D01*
X197560Y180002D01*
X196560Y180002D01*
X196060Y180501D01*
X196060Y181501D01*
X196560Y182001D01*
X566557Y131087D02*
X566557Y134086D01*
X568056Y134086D01*
X568556Y133586D01*
X568556Y132586D01*
X568056Y132086D01*
X566557Y132086D01*
X567556Y132086D02*
X568556Y131087D01*
X571555Y131087D02*
X569556Y131087D01*
X571555Y133086D01*
X571555Y133586D01*
X571055Y134086D01*
X570056Y134086D01*
X569556Y133586D01*
X574554Y134086D02*
X572555Y134086D01*
X572555Y132586D01*
X573554Y133086D01*
X574054Y133086D01*
X574554Y132586D01*
X574554Y131587D01*
X574054Y131087D01*
X573055Y131087D01*
X572555Y131587D01*
X575143Y171502D02*
X575143Y168503D01*
X573643Y168503D01*
X573144Y169002D01*
X573144Y170002D01*
X573643Y170502D01*
X575143Y170502D01*
X574143Y170502D02*
X573144Y171502D01*
X570145Y171502D02*
X572144Y171502D01*
X570145Y169502D01*
X570145Y169002D01*
X570644Y168503D01*
X571644Y168503D01*
X572144Y169002D01*
X567645Y171502D02*
X567645Y168503D01*
X569145Y170002D01*
X567146Y170002D01*
X665837Y276890D02*
X668836Y276890D01*
X668836Y275390D01*
X668336Y274890D01*
X667337Y274890D01*
X666837Y275390D01*
X666837Y276890D01*
X666837Y275890D02*
X665837Y274890D01*
X665837Y273891D02*
X665837Y272891D01*
X665837Y273391D01*
X668836Y273391D01*
X668336Y273891D01*
X665837Y269892D02*
X668836Y269892D01*
X667337Y271392D01*
X667337Y269392D01*
X642758Y225215D02*
X642758Y228214D01*
X644258Y228214D01*
X644758Y227714D01*
X644758Y226715D01*
X644258Y226215D01*
X642758Y226215D01*
X643758Y226215D02*
X644758Y225215D01*
X645758Y225215D02*
X646757Y225215D01*
X646257Y225215D01*
X646257Y228214D01*
X645758Y227714D01*
X648257Y225715D02*
X648756Y225215D01*
X649756Y225215D01*
X650256Y225715D01*
X650256Y227714D01*
X649756Y228214D01*
X648756Y228214D01*
X648257Y227714D01*
X648257Y227215D01*
X648756Y226715D01*
X650256Y226715D01*
X661998Y225215D02*
X661998Y228214D01*
X663498Y228214D01*
X663998Y227714D01*
X663998Y226715D01*
X663498Y226215D01*
X661998Y226215D01*
X662998Y226215D02*
X663998Y225215D01*
X664997Y225215D02*
X665997Y225215D01*
X665497Y225215D01*
X665497Y228214D01*
X664997Y227714D01*
X669496Y228214D02*
X667497Y228214D01*
X667497Y226715D01*
X668496Y227215D01*
X668996Y227215D01*
X669496Y226715D01*
X669496Y225715D01*
X668996Y225215D01*
X667997Y225215D01*
X667497Y225715D01*
X563740Y185757D02*
X563240Y186257D01*
X562241Y186257D01*
X561741Y185757D01*
X561741Y183758D01*
X562241Y183258D01*
X563240Y183258D01*
X563740Y183758D01*
X566739Y183258D02*
X564740Y183258D01*
X566739Y185258D01*
X566739Y185757D01*
X566239Y186257D01*
X565240Y186257D01*
X564740Y185757D01*
X567739Y185757D02*
X568239Y186257D01*
X569238Y186257D01*
X569738Y185757D01*
X569738Y183758D01*
X569238Y183258D01*
X568239Y183258D01*
X567739Y183758D01*
X567739Y185757D01*
X567430Y239091D02*
X567930Y238591D01*
X568930Y238591D01*
X569430Y239091D01*
X569430Y241090D01*
X568930Y241590D01*
X567930Y241590D01*
X567430Y241090D01*
X566431Y241590D02*
X565431Y241590D01*
X565931Y241590D01*
X565931Y238591D01*
X566431Y239091D01*
X563932Y239091D02*
X563432Y238591D01*
X562432Y238591D01*
X561932Y239091D01*
X561932Y239591D01*
X562432Y240091D01*
X561932Y240590D01*
X561932Y241090D01*
X562432Y241590D01*
X563432Y241590D01*
X563932Y241090D01*
X563932Y240590D01*
X563432Y240091D01*
X563932Y239591D01*
X563932Y239091D01*
X563432Y240091D02*
X562432Y240091D01*
X455048Y57440D02*
X455048Y60439D01*
X456548Y60439D01*
X457048Y59939D01*
X457048Y58939D01*
X456548Y58439D01*
X455048Y58439D01*
X456048Y58439D02*
X457048Y57440D01*
X458047Y59939D02*
X458547Y60439D01*
X459547Y60439D01*
X460047Y59939D01*
X460047Y59439D01*
X459547Y58939D01*
X460047Y58439D01*
X460047Y57940D01*
X459547Y57440D01*
X458547Y57440D01*
X458047Y57940D01*
X458047Y58439D01*
X458547Y58939D01*
X458047Y59439D01*
X458047Y59939D01*
X458547Y58939D02*
X459547Y58939D01*
X689033Y173505D02*
X692032Y173505D01*
X692032Y172006D01*
X691533Y171506D01*
X690533Y171506D01*
X690033Y172006D01*
X690033Y173505D01*
X690033Y172505D02*
X689033Y171506D01*
X692032Y170506D02*
X692032Y168507D01*
X691533Y168507D01*
X689533Y170506D01*
X689033Y170506D01*
X400498Y49752D02*
X403497Y49752D01*
X403497Y48252D01*
X402998Y47752D01*
X401998Y47752D01*
X401498Y48252D01*
X401498Y49752D01*
X401498Y48752D02*
X400498Y47752D01*
X400498Y44753D02*
X400498Y46753D01*
X402498Y44753D01*
X402998Y44753D01*
X403497Y45253D01*
X403497Y46253D01*
X402998Y46753D01*
X402998Y43753D02*
X403497Y43254D01*
X403497Y42254D01*
X402998Y41754D01*
X402498Y41754D01*
X401998Y42254D01*
X401998Y42754D01*
X401998Y42254D01*
X401498Y41754D01*
X400998Y41754D01*
X400498Y42254D01*
X400498Y43254D01*
X400998Y43753D01*
X303368Y76598D02*
X306367Y76598D01*
X306367Y75099D01*
X305868Y74599D01*
X304868Y74599D01*
X304368Y75099D01*
X304368Y76598D01*
X304368Y75599D02*
X303368Y74599D01*
X303368Y71600D02*
X303368Y73599D01*
X305368Y71600D01*
X305868Y71600D01*
X306367Y72100D01*
X306367Y73099D01*
X305868Y73599D01*
X303868Y70600D02*
X303368Y70100D01*
X303368Y69101D01*
X303868Y68601D01*
X305868Y68601D01*
X306367Y69101D01*
X306367Y70100D01*
X305868Y70600D01*
X305368Y70600D01*
X304868Y70100D01*
X304868Y68601D01*
X166868Y221282D02*
X166868Y224281D01*
X168368Y224281D01*
X168868Y223781D01*
X168868Y222781D01*
X168368Y222281D01*
X166868Y222281D01*
X167868Y222281D02*
X168868Y221282D01*
X171867Y221282D02*
X169867Y221282D01*
X171867Y223281D01*
X171867Y223781D01*
X171367Y224281D01*
X170367Y224281D01*
X169867Y223781D01*
X172867Y224281D02*
X174866Y224281D01*
X174866Y223781D01*
X172867Y221782D01*
X172867Y221282D01*
X200868Y222777D02*
X203867Y222777D01*
X203867Y221277D01*
X203368Y220777D01*
X202368Y220777D01*
X201868Y221277D01*
X201868Y222777D01*
X201868Y221777D02*
X200868Y220777D01*
X200868Y217778D02*
X200868Y219778D01*
X202868Y217778D01*
X203368Y217778D01*
X203867Y218278D01*
X203867Y219278D01*
X203368Y219778D01*
X203368Y216779D02*
X203867Y216279D01*
X203867Y215279D01*
X203368Y214779D01*
X201368Y214779D01*
X200868Y215279D01*
X200868Y216279D01*
X201368Y216779D01*
X203368Y216779D01*
X186773Y222285D02*
X189772Y222285D01*
X189772Y220786D01*
X189273Y220286D01*
X188273Y220286D01*
X187773Y220786D01*
X187773Y222285D01*
X187773Y221285D02*
X186773Y220286D01*
X186773Y217287D02*
X186773Y219286D01*
X188773Y217287D01*
X189273Y217287D01*
X189772Y217787D01*
X189772Y218786D01*
X189273Y219286D01*
X186773Y216287D02*
X186773Y215287D01*
X186773Y215787D01*
X189772Y215787D01*
X189273Y216287D01*
X247300Y258135D02*
X250299Y258135D01*
X250299Y256635D01*
X249799Y256136D01*
X248800Y256136D01*
X248300Y256635D01*
X248300Y258135D01*
X248300Y257135D02*
X247300Y256136D01*
X247300Y255136D02*
X247300Y254136D01*
X247300Y254636D01*
X250299Y254636D01*
X249799Y255136D01*
X416502Y41748D02*
X413503Y41748D01*
X413503Y43248D01*
X414002Y43748D01*
X415002Y43748D01*
X415502Y43248D01*
X415502Y41748D01*
X415502Y42748D02*
X416502Y43748D01*
X416502Y46747D02*
X416502Y44747D01*
X414502Y46747D01*
X414002Y46747D01*
X413503Y46247D01*
X413503Y45247D01*
X414002Y44747D01*
X414002Y47746D02*
X413503Y48246D01*
X413503Y49246D01*
X414002Y49746D01*
X414502Y49746D01*
X415002Y49246D01*
X415502Y49746D01*
X416002Y49746D01*
X416502Y49246D01*
X416502Y48246D01*
X416002Y47746D01*
X415502Y47746D01*
X415002Y48246D01*
X414502Y47746D01*
X414002Y47746D01*
X415002Y48246D02*
X415002Y49246D01*
X229522Y192848D02*
X226523Y192848D01*
X226523Y194348D01*
X227022Y194848D01*
X228022Y194848D01*
X228522Y194348D01*
X228522Y192848D01*
X228522Y193848D02*
X229522Y194848D01*
X229522Y195847D02*
X229522Y196847D01*
X229522Y196347D01*
X226523Y196347D01*
X227022Y195847D01*
X227022Y198347D02*
X226523Y198846D01*
X226523Y199846D01*
X227022Y200346D01*
X227522Y200346D01*
X228022Y199846D01*
X228022Y199346D01*
X228022Y199846D01*
X228522Y200346D01*
X229022Y200346D01*
X229522Y199846D01*
X229522Y198846D01*
X229022Y198347D01*
D128*
X579430Y38632D02*
X579430Y44980D01*
X578160Y46250D01*
X575621Y46250D01*
X574352Y44980D01*
X574352Y38632D01*
X571812Y39902D02*
X570543Y38632D01*
X568004Y38632D01*
X566734Y39902D01*
X566734Y41172D01*
X568004Y42441D01*
X569273Y42441D01*
X568004Y42441D01*
X566734Y43711D01*
X566734Y44980D01*
X568004Y46250D01*
X570543Y46250D01*
X571812Y44980D01*
D129*
X614194Y35842D02*
D03*
M02*
