G04*
G04 #@! TF.GenerationSoftware,Altium Limited,Altium Designer,21.0.9 (235)*
G04*
G04 Layer_Physical_Order=4*
G04 Layer_Color=16711680*
%FSLAX44Y44*%
%MOMM*%
G71*
G04*
G04 #@! TF.SameCoordinates,D83CB673-9EFF-4C90-BE85-E941A3A9D43F*
G04*
G04*
G04 #@! TF.FilePolarity,Positive*
G04*
G01*
G75*
%ADD10C,0.2000*%
%ADD11C,0.1270*%
%ADD12C,0.2540*%
%ADD14C,0.1778*%
%ADD15C,0.1500*%
%ADD16C,0.1000*%
%ADD17C,0.1800*%
%ADD18C,0.3500*%
%ADD21R,4.1910X1.7780*%
G04:AMPARAMS|DCode=22|XSize=0.9mm|YSize=0.8mm|CornerRadius=0.2mm|HoleSize=0mm|Usage=FLASHONLY|Rotation=180.000|XOffset=0mm|YOffset=0mm|HoleType=Round|Shape=RoundedRectangle|*
%AMROUNDEDRECTD22*
21,1,0.9000,0.4000,0,0,180.0*
21,1,0.5000,0.8000,0,0,180.0*
1,1,0.4000,-0.2500,0.2000*
1,1,0.4000,0.2500,0.2000*
1,1,0.4000,0.2500,-0.2000*
1,1,0.4000,-0.2500,-0.2000*
%
%ADD22ROUNDEDRECTD22*%
G04:AMPARAMS|DCode=32|XSize=1.4mm|YSize=0.9mm|CornerRadius=0.225mm|HoleSize=0mm|Usage=FLASHONLY|Rotation=270.000|XOffset=0mm|YOffset=0mm|HoleType=Round|Shape=RoundedRectangle|*
%AMROUNDEDRECTD32*
21,1,1.4000,0.4500,0,0,270.0*
21,1,0.9500,0.9000,0,0,270.0*
1,1,0.4500,-0.2250,-0.4750*
1,1,0.4500,-0.2250,0.4750*
1,1,0.4500,0.2250,0.4750*
1,1,0.4500,0.2250,-0.4750*
%
%ADD32ROUNDEDRECTD32*%
G04:AMPARAMS|DCode=34|XSize=0.9mm|YSize=0.8mm|CornerRadius=0.2mm|HoleSize=0mm|Usage=FLASHONLY|Rotation=90.000|XOffset=0mm|YOffset=0mm|HoleType=Round|Shape=RoundedRectangle|*
%AMROUNDEDRECTD34*
21,1,0.9000,0.4000,0,0,90.0*
21,1,0.5000,0.8000,0,0,90.0*
1,1,0.4000,0.2000,0.2500*
1,1,0.4000,0.2000,-0.2500*
1,1,0.4000,-0.2000,-0.2500*
1,1,0.4000,-0.2000,0.2500*
%
%ADD34ROUNDEDRECTD34*%
G04:AMPARAMS|DCode=37|XSize=1.4mm|YSize=0.9mm|CornerRadius=0.225mm|HoleSize=0mm|Usage=FLASHONLY|Rotation=180.000|XOffset=0mm|YOffset=0mm|HoleType=Round|Shape=RoundedRectangle|*
%AMROUNDEDRECTD37*
21,1,1.4000,0.4500,0,0,180.0*
21,1,0.9500,0.9000,0,0,180.0*
1,1,0.4500,-0.4750,0.2250*
1,1,0.4500,0.4750,0.2250*
1,1,0.4500,0.4750,-0.2250*
1,1,0.4500,-0.4750,-0.2250*
%
%ADD37ROUNDEDRECTD37*%
%ADD48C,7.0000*%
%ADD93C,1.0000*%
%ADD99C,1.2000*%
%ADD104C,0.7000*%
%ADD106C,0.3000*%
%ADD107C,0.5000*%
%ADD110C,0.8000*%
G04:AMPARAMS|DCode=111|XSize=1.95mm|YSize=1.95mm|CornerRadius=0.4875mm|HoleSize=0mm|Usage=FLASHONLY|Rotation=0.000|XOffset=0mm|YOffset=0mm|HoleType=Round|Shape=RoundedRectangle|*
%AMROUNDEDRECTD111*
21,1,1.9500,0.9750,0,0,0.0*
21,1,0.9750,1.9500,0,0,0.0*
1,1,0.9750,0.4875,-0.4875*
1,1,0.9750,-0.4875,-0.4875*
1,1,0.9750,-0.4875,0.4875*
1,1,0.9750,0.4875,0.4875*
%
%ADD111ROUNDEDRECTD111*%
%ADD112C,1.9500*%
%ADD113C,1.7000*%
%ADD114P,1.8401X8X202.5*%
%ADD115C,0.7000*%
%ADD116C,1.5000*%
%ADD117R,2.2500X1.5000*%
%ADD118R,3.2000X2.5000*%
G36*
X919902Y5098D02*
X296071Y5098D01*
X295269Y6144D01*
X295269Y7856D01*
X294826Y9509D01*
X293970Y10991D01*
X292760Y12201D01*
X291278Y13057D01*
X289625Y13500D01*
X287913Y13500D01*
X286260Y13057D01*
X284778Y12201D01*
X283568Y10991D01*
X282712Y9509D01*
X282269Y7856D01*
X282269Y7098D01*
X280702Y5098D01*
X277173Y5098D01*
X276370Y6144D01*
X276370Y7856D01*
X275927Y9509D01*
X275071Y10991D01*
X273861Y12201D01*
X272379Y13057D01*
X270726Y13500D01*
X269014Y13500D01*
X267361Y13057D01*
X265879Y12201D01*
X264669Y10991D01*
X263813Y9509D01*
X263370Y7856D01*
X263370Y7098D01*
X261803Y5098D01*
X47536Y5098D01*
X46124Y6514D01*
X46133Y10468D01*
X46295Y82856D01*
X46313Y90834D01*
X48315Y91660D01*
X49504Y90472D01*
X51898Y89089D01*
X54569Y88374D01*
X57333Y88374D01*
X60004Y89089D01*
X62398Y90472D01*
X64353Y92427D01*
X65736Y94821D01*
X66451Y97492D01*
X66451Y100256D01*
X65736Y102927D01*
X64353Y105321D01*
X62398Y107276D01*
X60004Y108658D01*
X57333Y109374D01*
X54569Y109374D01*
X51898Y108658D01*
X49504Y107276D01*
X48348Y106120D01*
X46350Y106950D01*
X46531Y187616D01*
X48533Y188443D01*
X49504Y187472D01*
X51898Y186089D01*
X54569Y185374D01*
X57333Y185374D01*
X60004Y186089D01*
X62398Y187472D01*
X64353Y189427D01*
X65736Y191821D01*
X66451Y194492D01*
X66451Y197256D01*
X65736Y199927D01*
X64353Y202321D01*
X62398Y204276D01*
X60004Y205658D01*
X57333Y206374D01*
X54569Y206374D01*
X51898Y205658D01*
X49504Y204276D01*
X48567Y203339D01*
X46568Y204169D01*
X46887Y345522D01*
X261811Y345522D01*
X261811Y287325D01*
X262044Y286154D01*
X262707Y285162D01*
X263699Y284499D01*
X264870Y284266D01*
X444870Y284266D01*
X446040Y284499D01*
X447033Y285162D01*
X447696Y286154D01*
X447929Y287325D01*
X447929Y345522D01*
X833744Y345522D01*
X834744Y343790D01*
X834613Y343564D01*
X834000Y341275D01*
X834000Y338905D01*
X834613Y336616D01*
X835798Y334564D01*
X837474Y332888D01*
X839526Y331703D01*
X841815Y331090D01*
X844185Y331090D01*
X846474Y331703D01*
X848526Y332888D01*
X850202Y334564D01*
X851387Y336616D01*
X852000Y338905D01*
X852000Y341275D01*
X851387Y343564D01*
X851256Y343790D01*
X852256Y345522D01*
X919902Y345522D01*
X919902Y5098D01*
X919902Y5098D02*
G37*
G36*
X2593426Y-1601897D02*
X2594273Y-1602179D01*
X2595402Y-1602602D01*
X2596389Y-1603166D01*
X2597236Y-1604154D01*
X2597800Y-1605565D01*
X2598082Y-1607258D01*
X2598082Y-1607540D01*
X2597941Y-1608105D01*
X2597800Y-1609093D01*
X2597377Y-1610080D01*
X2596813Y-1611209D01*
X2595825Y-1612056D01*
X2594414Y-1612761D01*
X2592580Y-1613043D01*
X2592156Y-1613043D01*
X2591733Y-1612902D01*
X2591169Y-1612761D01*
X2589758Y-1612338D01*
X2589052Y-1611914D01*
X2588347Y-1611350D01*
X2588347Y-1611209D01*
X2588065Y-1611068D01*
X2587500Y-1610221D01*
X2586936Y-1608951D01*
X2586795Y-1608105D01*
X2586654Y-1607258D01*
X2586654Y-1607117D01*
X2586654Y-1606835D01*
X2586795Y-1606412D01*
X2586936Y-1605988D01*
X2587500Y-1604718D01*
X2587923Y-1604013D01*
X2588488Y-1603449D01*
X2588629Y-1603307D01*
X2588770Y-1603166D01*
X2589617Y-1602602D01*
X2590887Y-1602038D01*
X2591733Y-1601755D01*
X2592862Y-1601755D01*
X2593426Y-1601897D01*
X2593426Y-1601897D02*
G37*
G36*
X2557305Y-1596958D02*
X2558434Y-1597099D01*
X2559845Y-1597099D01*
X2561256Y-1597381D01*
X2564501Y-1597805D01*
X2568029Y-1598651D01*
X2571556Y-1599639D01*
X2575084Y-1601050D01*
X2606689Y-1651422D01*
X2606689Y-1651563D01*
X2606689Y-1651845D01*
X2606548Y-1652409D01*
X2606548Y-1652974D01*
X2606407Y-1653820D01*
X2606266Y-1654808D01*
X2605843Y-1656924D01*
X2605843Y-1657065D01*
X2605702Y-1657489D01*
X2605561Y-1658053D01*
X2605420Y-1658759D01*
X2605137Y-1659746D01*
X2604855Y-1660734D01*
X2604149Y-1663133D01*
X2576636Y-1620098D01*
X2576495Y-1619957D01*
X2576353Y-1619534D01*
X2575789Y-1618969D01*
X2575225Y-1618405D01*
X2574519Y-1617841D01*
X2573673Y-1617276D01*
X2572826Y-1616853D01*
X2571697Y-1616712D01*
X2571274Y-1616712D01*
X2570851Y-1616853D01*
X2570286Y-1617135D01*
X2569581Y-1617558D01*
X2568734Y-1618123D01*
X2568029Y-1618828D01*
X2567182Y-1619957D01*
X2558011Y-1632515D01*
X2590322Y-1683451D01*
X2590181Y-1683592D01*
X2589617Y-1684015D01*
X2588770Y-1684720D01*
X2587641Y-1685567D01*
X2586089Y-1686696D01*
X2584255Y-1687825D01*
X2582280Y-1689095D01*
X2579881Y-1690364D01*
X2577341Y-1691634D01*
X2574378Y-1692904D01*
X2571415Y-1694033D01*
X2568029Y-1695162D01*
X2564501Y-1696008D01*
X2560833Y-1696714D01*
X2557023Y-1697137D01*
X2552931Y-1697278D01*
X2551944Y-1697278D01*
X2550815Y-1697137D01*
X2549263Y-1696996D01*
X2547287Y-1696714D01*
X2545030Y-1696431D01*
X2542631Y-1695867D01*
X2539809Y-1695162D01*
X2536987Y-1694315D01*
X2533883Y-1693186D01*
X2530638Y-1691916D01*
X2527393Y-1690364D01*
X2524148Y-1688389D01*
X2520902Y-1686272D01*
X2517798Y-1683733D01*
X2514694Y-1680770D01*
X2528380Y-1661863D01*
X2528522Y-1661722D01*
X2528663Y-1661157D01*
X2528945Y-1660311D01*
X2529086Y-1659605D01*
X2529227Y-1658759D01*
X2529227Y-1658476D01*
X2529086Y-1657771D01*
X2528663Y-1656501D01*
X2527816Y-1654949D01*
X2517657Y-1639005D01*
X2502560Y-1660029D01*
X2502560Y-1659887D01*
X2502419Y-1659746D01*
X2502278Y-1658900D01*
X2501995Y-1657630D01*
X2501713Y-1655937D01*
X2501290Y-1653820D01*
X2501008Y-1651563D01*
X2500867Y-1648882D01*
X2500726Y-1646201D01*
X2500726Y-1645919D01*
X2500726Y-1645354D01*
X2500867Y-1644226D01*
X2501008Y-1642956D01*
X2501149Y-1641263D01*
X2501431Y-1639287D01*
X2501995Y-1637030D01*
X2502560Y-1634631D01*
X2503265Y-1632091D01*
X2504253Y-1629269D01*
X2505523Y-1626447D01*
X2506793Y-1623625D01*
X2508486Y-1620804D01*
X2510461Y-1617841D01*
X2512719Y-1615019D01*
X2515258Y-1612338D01*
X2515400Y-1612197D01*
X2515964Y-1611632D01*
X2516811Y-1610927D01*
X2518080Y-1609939D01*
X2519633Y-1608669D01*
X2521467Y-1607399D01*
X2523583Y-1605988D01*
X2525982Y-1604577D01*
X2528663Y-1603166D01*
X2531626Y-1601755D01*
X2534871Y-1600345D01*
X2538257Y-1599216D01*
X2541926Y-1598228D01*
X2545876Y-1597522D01*
X2549968Y-1596958D01*
X2554342Y-1596817D01*
X2556318Y-1596817D01*
X2557305Y-1596958D01*
X2557305Y-1596958D02*
G37*
G36*
X2609793Y-1711529D02*
X2610499Y-1711670D01*
X2611064Y-1711811D01*
X2611205Y-1711811D01*
X2611487Y-1711952D01*
X2612474Y-1712375D01*
X2613039Y-1712940D01*
X2613462Y-1713504D01*
X2613885Y-1714210D01*
X2614167Y-1715197D01*
X2614167Y-1715338D01*
X2614308Y-1715480D01*
X2614308Y-1715903D01*
X2614450Y-1716608D01*
X2614450Y-1717314D01*
X2614591Y-1718302D01*
X2614591Y-1719430D01*
X2614591Y-1720700D01*
X2595684Y-1720277D01*
X2595543Y-1720277D01*
X2594978Y-1720418D01*
X2594273Y-1720559D01*
X2593567Y-1721124D01*
X2592721Y-1721829D01*
X2592015Y-1723099D01*
X2591733Y-1723945D01*
X2591451Y-1724933D01*
X2591310Y-1725921D01*
X2591310Y-1727191D01*
X2591310Y-1731000D01*
X2591310Y-1731141D01*
X2591310Y-1731283D01*
X2591451Y-1732129D01*
X2591592Y-1733117D01*
X2591874Y-1734387D01*
X2592297Y-1735656D01*
X2593144Y-1736785D01*
X2594132Y-1737632D01*
X2594837Y-1737773D01*
X2595543Y-1737914D01*
X2614873Y-1737914D01*
X2614873Y-1738196D01*
X2614873Y-1738761D01*
X2614873Y-1739748D01*
X2614732Y-1740877D01*
X2614591Y-1742006D01*
X2614450Y-1743135D01*
X2614167Y-1744122D01*
X2613744Y-1744828D01*
X2613744Y-1744969D01*
X2613462Y-1745110D01*
X2613039Y-1745392D01*
X2612474Y-1745674D01*
X2611628Y-1746098D01*
X2610499Y-1746380D01*
X2609088Y-1746521D01*
X2607395Y-1746662D01*
X2593285Y-1746662D01*
X2592156Y-1746521D01*
X2590746Y-1746239D01*
X2589334Y-1745815D01*
X2587782Y-1745110D01*
X2586512Y-1744263D01*
X2585525Y-1742993D01*
X2585525Y-1742852D01*
X2585243Y-1742429D01*
X2584960Y-1741724D01*
X2584678Y-1740877D01*
X2584396Y-1739607D01*
X2584114Y-1738196D01*
X2583973Y-1736362D01*
X2583831Y-1734387D01*
X2583831Y-1723945D01*
X2583831Y-1723804D01*
X2583831Y-1723522D01*
X2583831Y-1723099D01*
X2583973Y-1722534D01*
X2584114Y-1721124D01*
X2584396Y-1719289D01*
X2584819Y-1717455D01*
X2585666Y-1715621D01*
X2586654Y-1714069D01*
X2587359Y-1713363D01*
X2588065Y-1712799D01*
X2588206Y-1712799D01*
X2588488Y-1712517D01*
X2588911Y-1712375D01*
X2589617Y-1712093D01*
X2590463Y-1711811D01*
X2591592Y-1711670D01*
X2592862Y-1711388D01*
X2608100Y-1711388D01*
X2609793Y-1711529D01*
X2609793Y-1711529D02*
G37*
G36*
X2649019Y-1746380D02*
X2641823Y-1746380D01*
X2641823Y-1733258D01*
X2626161Y-1733258D01*
X2626161Y-1746380D01*
X2619388Y-1746380D01*
X2619388Y-1711811D01*
X2626161Y-1711811D01*
X2626161Y-1723945D01*
X2641823Y-1723945D01*
X2641823Y-1711811D01*
X2649019Y-1711811D01*
X2649019Y-1746380D01*
X2649019Y-1746380D02*
G37*
G36*
X2452047Y-1700523D02*
X2452753Y-1700664D01*
X2453599Y-1701088D01*
X2454305Y-1701652D01*
X2455010Y-1702640D01*
X2455716Y-1703910D01*
X2455998Y-1705744D01*
X2460654Y-1746380D01*
X2451906Y-1746380D01*
X2449507Y-1717173D01*
X2449366Y-1717173D01*
X2440477Y-1740595D01*
X2440477Y-1740736D01*
X2440195Y-1741159D01*
X2439772Y-1741865D01*
X2439207Y-1742570D01*
X2438502Y-1743276D01*
X2437655Y-1743981D01*
X2436667Y-1744404D01*
X2435398Y-1744546D01*
X2434833Y-1744546D01*
X2434128Y-1744263D01*
X2433281Y-1743981D01*
X2432294Y-1743558D01*
X2431447Y-1742852D01*
X2430741Y-1741865D01*
X2430036Y-1740595D01*
X2421147Y-1717596D01*
X2421006Y-1717596D01*
X2418466Y-1746380D01*
X2410000Y-1746380D01*
X2414374Y-1705321D01*
X2414374Y-1705038D01*
X2414515Y-1704474D01*
X2414797Y-1703769D01*
X2415221Y-1702781D01*
X2415785Y-1701934D01*
X2416632Y-1701088D01*
X2417760Y-1700523D01*
X2419030Y-1700382D01*
X2419736Y-1700382D01*
X2420582Y-1700664D01*
X2421570Y-1700947D01*
X2422558Y-1701511D01*
X2423687Y-1702358D01*
X2424533Y-1703486D01*
X2425380Y-1705038D01*
X2435257Y-1730154D01*
X2435398Y-1730154D01*
X2445274Y-1705038D01*
X2445415Y-1704897D01*
X2445557Y-1704333D01*
X2446121Y-1703627D01*
X2446685Y-1702640D01*
X2447532Y-1701793D01*
X2448661Y-1701088D01*
X2449931Y-1700523D01*
X2451483Y-1700382D01*
X2451624Y-1700382D01*
X2452047Y-1700523D01*
X2452047Y-1700523D02*
G37*
G36*
X2690360Y-1711952D02*
X2691489Y-1712093D01*
X2692758Y-1712517D01*
X2694170Y-1713222D01*
X2695439Y-1714210D01*
X2696568Y-1715621D01*
X2697415Y-1717596D01*
X2697415Y-1717737D01*
X2697556Y-1718019D01*
X2697556Y-1718584D01*
X2697697Y-1719289D01*
X2697838Y-1720136D01*
X2697838Y-1721124D01*
X2697979Y-1722393D01*
X2697979Y-1723663D01*
X2697979Y-1726344D01*
X2697979Y-1726626D01*
X2697979Y-1727332D01*
X2697838Y-1728461D01*
X2697697Y-1729730D01*
X2697415Y-1731283D01*
X2697133Y-1732835D01*
X2696568Y-1734104D01*
X2695863Y-1735374D01*
X2695863Y-1735515D01*
X2695580Y-1735656D01*
X2695157Y-1736080D01*
X2694734Y-1736503D01*
X2694028Y-1736926D01*
X2693182Y-1737209D01*
X2692335Y-1737491D01*
X2691206Y-1737632D01*
X2673993Y-1737632D01*
X2673993Y-1746380D01*
X2666938Y-1746380D01*
X2666938Y-1711811D01*
X2689655Y-1711811D01*
X2690360Y-1711952D01*
X2690360Y-1711952D02*
G37*
G36*
X2662281Y-1746380D02*
X2654098Y-1746380D01*
X2654098Y-1711811D01*
X2662281Y-1711811D01*
X2662281Y-1746380D01*
X2662281Y-1746380D02*
G37*
G36*
X2537270Y-1711952D02*
X2538398Y-1712375D01*
X2539668Y-1713081D01*
X2540233Y-1713645D01*
X2540938Y-1714351D01*
X2541503Y-1715197D01*
X2541926Y-1716185D01*
X2542490Y-1717314D01*
X2542772Y-1718725D01*
X2542914Y-1720277D01*
X2543055Y-1722111D01*
X2543055Y-1724228D01*
X2543055Y-1724369D01*
X2543055Y-1724510D01*
X2543055Y-1725356D01*
X2542914Y-1726626D01*
X2542631Y-1728037D01*
X2542067Y-1729448D01*
X2541361Y-1730859D01*
X2540374Y-1731988D01*
X2539104Y-1732835D01*
X2539104Y-1732976D01*
X2539245Y-1732976D01*
X2539668Y-1733258D01*
X2540374Y-1733681D01*
X2541079Y-1734387D01*
X2541785Y-1735374D01*
X2542490Y-1736644D01*
X2542914Y-1738337D01*
X2543055Y-1740595D01*
X2543055Y-1746380D01*
X2535718Y-1746380D01*
X2535718Y-1742288D01*
X2535718Y-1742147D01*
X2535718Y-1741865D01*
X2535718Y-1741300D01*
X2535718Y-1740736D01*
X2535576Y-1739607D01*
X2535576Y-1739043D01*
X2535435Y-1738620D01*
X2535294Y-1738478D01*
X2534871Y-1737914D01*
X2534165Y-1737491D01*
X2532896Y-1737350D01*
X2520056Y-1737350D01*
X2520056Y-1746380D01*
X2512719Y-1746380D01*
X2512719Y-1711811D01*
X2536423Y-1711811D01*
X2537270Y-1711952D01*
X2537270Y-1711952D02*
G37*
G36*
X2473071Y-1746380D02*
X2465028Y-1746380D01*
X2465028Y-1711811D01*
X2473071Y-1711811D01*
X2473071Y-1746380D01*
X2473071Y-1746380D02*
G37*
G36*
X2571556Y-1711529D02*
X2572826Y-1711811D01*
X2574096Y-1712093D01*
X2575507Y-1712658D01*
X2576636Y-1713504D01*
X2577623Y-1714492D01*
X2577765Y-1714633D01*
X2578047Y-1715056D01*
X2578329Y-1715762D01*
X2578752Y-1716750D01*
X2579175Y-1718161D01*
X2579599Y-1719713D01*
X2579740Y-1721547D01*
X2579881Y-1723804D01*
X2579881Y-1734245D01*
X2579881Y-1734387D01*
X2579881Y-1734669D01*
X2579881Y-1735092D01*
X2579740Y-1735798D01*
X2579599Y-1737350D01*
X2579316Y-1739325D01*
X2578611Y-1741300D01*
X2577765Y-1743276D01*
X2576495Y-1744828D01*
X2575648Y-1745533D01*
X2574801Y-1745957D01*
X2574660Y-1745957D01*
X2574378Y-1746098D01*
X2573955Y-1746239D01*
X2573391Y-1746239D01*
X2572685Y-1746380D01*
X2571838Y-1746521D01*
X2569581Y-1746662D01*
X2556882Y-1746662D01*
X2555753Y-1746521D01*
X2554483Y-1746239D01*
X2553073Y-1745815D01*
X2551662Y-1745251D01*
X2550392Y-1744404D01*
X2549263Y-1743276D01*
X2549122Y-1743135D01*
X2548981Y-1742711D01*
X2548698Y-1742006D01*
X2548416Y-1741018D01*
X2547993Y-1739889D01*
X2547711Y-1738337D01*
X2547570Y-1736362D01*
X2547429Y-1734245D01*
X2547429Y-1723804D01*
X2547429Y-1723663D01*
X2547429Y-1723381D01*
X2547429Y-1722817D01*
X2547570Y-1722111D01*
X2547711Y-1720418D01*
X2548134Y-1718443D01*
X2548840Y-1716326D01*
X2549968Y-1714492D01*
X2550674Y-1713645D01*
X2551379Y-1712940D01*
X2552367Y-1712375D01*
X2553355Y-1711952D01*
X2553496Y-1711952D01*
X2553637Y-1711811D01*
X2554060Y-1711811D01*
X2554625Y-1711670D01*
X2556035Y-1711529D01*
X2557870Y-1711388D01*
X2570569Y-1711388D01*
X2571556Y-1711529D01*
X2571556Y-1711529D02*
G37*
G36*
X2500867Y-1711529D02*
X2502560Y-1711529D01*
X2504112Y-1711670D01*
X2505382Y-1711952D01*
X2505805Y-1712093D01*
X2506087Y-1712234D01*
X2506228Y-1712234D01*
X2506369Y-1712517D01*
X2506652Y-1712940D01*
X2507075Y-1713645D01*
X2507498Y-1714633D01*
X2507780Y-1716044D01*
X2507921Y-1717878D01*
X2508062Y-1720277D01*
X2489014Y-1720277D01*
X2488168Y-1720418D01*
X2487180Y-1720841D01*
X2486192Y-1721688D01*
X2486051Y-1721970D01*
X2485910Y-1722252D01*
X2485628Y-1722817D01*
X2485487Y-1723522D01*
X2485205Y-1724510D01*
X2485064Y-1725780D01*
X2485064Y-1727191D01*
X2485064Y-1731000D01*
X2485064Y-1731141D01*
X2485064Y-1731706D01*
X2485064Y-1732411D01*
X2485205Y-1733117D01*
X2485346Y-1734951D01*
X2485487Y-1735656D01*
X2485628Y-1736221D01*
X2485769Y-1736503D01*
X2486334Y-1737068D01*
X2486898Y-1737350D01*
X2487462Y-1737632D01*
X2488309Y-1737773D01*
X2489155Y-1737914D01*
X2508486Y-1737914D01*
X2508486Y-1738196D01*
X2508486Y-1738761D01*
X2508486Y-1739607D01*
X2508345Y-1740595D01*
X2508062Y-1742852D01*
X2507780Y-1743840D01*
X2507498Y-1744546D01*
X2507498Y-1744687D01*
X2507216Y-1744828D01*
X2506793Y-1745251D01*
X2506228Y-1745533D01*
X2505241Y-1745957D01*
X2504112Y-1746380D01*
X2502701Y-1746521D01*
X2501008Y-1746662D01*
X2487039Y-1746662D01*
X2486051Y-1746521D01*
X2484781Y-1746239D01*
X2483371Y-1745957D01*
X2481960Y-1745533D01*
X2480690Y-1744828D01*
X2479702Y-1743840D01*
X2479561Y-1743699D01*
X2479420Y-1743276D01*
X2478997Y-1742570D01*
X2478573Y-1741583D01*
X2478150Y-1740313D01*
X2477868Y-1738620D01*
X2477586Y-1736644D01*
X2477444Y-1734245D01*
X2477444Y-1723804D01*
X2477444Y-1723663D01*
X2477444Y-1723381D01*
X2477444Y-1722817D01*
X2477586Y-1722111D01*
X2477868Y-1720277D01*
X2478291Y-1718161D01*
X2479138Y-1716044D01*
X2480408Y-1714069D01*
X2481254Y-1713222D01*
X2482242Y-1712517D01*
X2483230Y-1711952D01*
X2484499Y-1711670D01*
X2484781Y-1711670D01*
X2485487Y-1711529D01*
X2486616Y-1711388D01*
X2499173Y-1711388D01*
X2500867Y-1711529D01*
X2500867Y-1711529D02*
G37*
%LPC*%
G36*
X640484Y339160D02*
X637456Y339160D01*
X634531Y338376D01*
X631909Y336862D01*
X629768Y334721D01*
X628254Y332099D01*
X627470Y329174D01*
X627470Y326146D01*
X628254Y323221D01*
X629768Y320599D01*
X631909Y318458D01*
X634531Y316944D01*
X637456Y316160D01*
X640484Y316160D01*
X643409Y316944D01*
X646031Y318458D01*
X648172Y320599D01*
X649686Y323221D01*
X650470Y326146D01*
X650470Y329174D01*
X649686Y332099D01*
X648172Y334721D01*
X646031Y336862D01*
X643409Y338376D01*
X640484Y339160D01*
X640484Y339160D02*
G37*
G36*
X619320Y339160D02*
X607820Y339160D01*
X602070Y333410D01*
X602070Y321910D01*
X607820Y316160D01*
X619320Y316160D01*
X625070Y321910D01*
X625070Y333410D01*
X619320Y339160D01*
X619320Y339160D02*
G37*
G36*
X177383Y337457D02*
X174354Y337457D01*
X171430Y336674D01*
X168807Y335160D01*
X166666Y333019D01*
X165152Y330396D01*
X164368Y327471D01*
X164368Y324443D01*
X165152Y321519D01*
X166666Y318896D01*
X168807Y316755D01*
X171430Y315241D01*
X174354Y314457D01*
X177383Y314457D01*
X180307Y315241D01*
X182930Y316755D01*
X185071Y318896D01*
X186585Y321519D01*
X187369Y324443D01*
X187369Y327471D01*
X186585Y330396D01*
X185071Y333019D01*
X182930Y335160D01*
X180307Y336674D01*
X177383Y337457D01*
X177383Y337457D02*
G37*
G36*
X156219Y337457D02*
X144719Y337457D01*
X138968Y331707D01*
X138968Y320207D01*
X144719Y314457D01*
X156219Y314457D01*
X161968Y320207D01*
X161968Y331707D01*
X156219Y337457D01*
X156219Y337457D02*
G37*
G36*
X844185Y329090D02*
X841815Y329090D01*
X839526Y328477D01*
X837474Y327292D01*
X835798Y325616D01*
X834613Y323564D01*
X834000Y321275D01*
X834000Y318905D01*
X834613Y316616D01*
X835798Y314564D01*
X837474Y312888D01*
X839526Y311703D01*
X841815Y311090D01*
X844185Y311090D01*
X846474Y311703D01*
X848526Y312888D01*
X850202Y314564D01*
X851387Y316616D01*
X852000Y318905D01*
X852000Y321275D01*
X851387Y323564D01*
X850202Y325616D01*
X848526Y327292D01*
X846474Y328477D01*
X844185Y329090D01*
X844185Y329090D02*
G37*
G36*
X708185Y329090D02*
X705815Y329090D01*
X703526Y328477D01*
X701474Y327292D01*
X699798Y325616D01*
X698613Y323564D01*
X698000Y321275D01*
X698000Y318905D01*
X698613Y316616D01*
X699798Y314564D01*
X701474Y312888D01*
X703526Y311703D01*
X705815Y311090D01*
X708185Y311090D01*
X710474Y311703D01*
X712526Y312888D01*
X714202Y314564D01*
X715387Y316616D01*
X716000Y318905D01*
X716000Y321275D01*
X715387Y323564D01*
X714202Y325616D01*
X712526Y327292D01*
X710474Y328477D01*
X708185Y329090D01*
X708185Y329090D02*
G37*
G36*
X901326Y326000D02*
X898174Y326000D01*
X895083Y325385D01*
X892171Y324179D01*
X889551Y322428D01*
X887322Y320199D01*
X885571Y317579D01*
X884365Y314667D01*
X883750Y311576D01*
X883750Y308424D01*
X884365Y305333D01*
X885571Y302421D01*
X887322Y299801D01*
X889551Y297572D01*
X892171Y295821D01*
X895083Y294615D01*
X898174Y294000D01*
X901326Y294000D01*
X904417Y294615D01*
X907329Y295821D01*
X909949Y297572D01*
X912178Y299801D01*
X913929Y302421D01*
X915135Y305333D01*
X915750Y308424D01*
X915750Y311576D01*
X915135Y314667D01*
X913929Y317579D01*
X912178Y320199D01*
X909949Y322428D01*
X907329Y324179D01*
X904417Y325385D01*
X901326Y326000D01*
X901326Y326000D02*
G37*
G36*
X68566Y326000D02*
X65414Y326000D01*
X62323Y325385D01*
X59411Y324179D01*
X56791Y322428D01*
X54562Y320199D01*
X52811Y317579D01*
X51605Y314667D01*
X50990Y311576D01*
X50990Y308424D01*
X51605Y305333D01*
X52811Y302421D01*
X54562Y299801D01*
X56791Y297572D01*
X59411Y295821D01*
X62323Y294615D01*
X65414Y294000D01*
X68566Y294000D01*
X71657Y294615D01*
X74569Y295821D01*
X77189Y297572D01*
X79418Y299801D01*
X81169Y302421D01*
X82375Y305333D01*
X82990Y308424D01*
X82990Y311576D01*
X82375Y314667D01*
X81169Y317579D01*
X79418Y320199D01*
X77189Y322428D01*
X74569Y324179D01*
X71657Y325385D01*
X68566Y326000D01*
X68566Y326000D02*
G37*
G36*
X844185Y309090D02*
X841815Y309090D01*
X839526Y308477D01*
X837474Y307292D01*
X835798Y305616D01*
X834613Y303564D01*
X834000Y301275D01*
X834000Y298905D01*
X834613Y296616D01*
X835798Y294564D01*
X837474Y292888D01*
X839526Y291703D01*
X841815Y291090D01*
X844185Y291090D01*
X846474Y291703D01*
X848526Y292888D01*
X850202Y294564D01*
X851387Y296616D01*
X852000Y298905D01*
X852000Y301275D01*
X851387Y303564D01*
X850202Y305616D01*
X848526Y307292D01*
X846474Y308477D01*
X844185Y309090D01*
X844185Y309090D02*
G37*
G36*
X708185Y309090D02*
X705815Y309090D01*
X703526Y308477D01*
X701474Y307292D01*
X699798Y305616D01*
X698613Y303564D01*
X698000Y301275D01*
X698000Y298905D01*
X698613Y296616D01*
X699798Y294564D01*
X701474Y292888D01*
X703526Y291703D01*
X705815Y291090D01*
X708185Y291090D01*
X710474Y291703D01*
X712526Y292888D01*
X714202Y294564D01*
X715387Y296616D01*
X716000Y298905D01*
X716000Y301275D01*
X715387Y303564D01*
X714202Y305616D01*
X712526Y307292D01*
X710474Y308477D01*
X708185Y309090D01*
X708185Y309090D02*
G37*
G36*
X552047Y293080D02*
X550073Y293080D01*
X548165Y292569D01*
X546455Y291581D01*
X545059Y290185D01*
X544071Y288475D01*
X543560Y286567D01*
X543560Y284593D01*
X544071Y282685D01*
X545059Y280975D01*
X546455Y279578D01*
X548165Y278591D01*
X550073Y278080D01*
X552047Y278080D01*
X553955Y278591D01*
X555665Y279578D01*
X557061Y280975D01*
X558049Y282685D01*
X558560Y284593D01*
X558560Y286567D01*
X558049Y288475D01*
X557061Y290185D01*
X555665Y291581D01*
X553955Y292569D01*
X552047Y293080D01*
X552047Y293080D02*
G37*
G36*
X517047Y293080D02*
X515073Y293080D01*
X513165Y292569D01*
X511455Y291581D01*
X510059Y290185D01*
X509071Y288475D01*
X508560Y286567D01*
X508560Y284593D01*
X509071Y282685D01*
X510059Y280975D01*
X511455Y279578D01*
X513165Y278591D01*
X515073Y278080D01*
X517047Y278080D01*
X518955Y278591D01*
X520665Y279578D01*
X522061Y280975D01*
X523049Y282685D01*
X523560Y284593D01*
X523560Y286567D01*
X523049Y288475D01*
X522061Y290185D01*
X520665Y291581D01*
X518955Y292569D01*
X517047Y293080D01*
X517047Y293080D02*
G37*
G36*
X844185Y289090D02*
X841815Y289090D01*
X839526Y288477D01*
X837474Y287292D01*
X835798Y285616D01*
X834613Y283564D01*
X834000Y281275D01*
X834000Y278905D01*
X834613Y276616D01*
X835798Y274564D01*
X837474Y272888D01*
X839526Y271703D01*
X841815Y271090D01*
X844185Y271090D01*
X846474Y271703D01*
X848526Y272888D01*
X850202Y274564D01*
X851387Y276616D01*
X852000Y278905D01*
X852000Y281275D01*
X851387Y283564D01*
X850202Y285616D01*
X848526Y287292D01*
X846474Y288477D01*
X844185Y289090D01*
X844185Y289090D02*
G37*
G36*
X708185Y289090D02*
X705815Y289090D01*
X703526Y288477D01*
X701474Y287292D01*
X699798Y285616D01*
X698613Y283564D01*
X698000Y281275D01*
X698000Y278905D01*
X698613Y276616D01*
X699798Y274564D01*
X701474Y272888D01*
X703526Y271703D01*
X705815Y271090D01*
X708185Y271090D01*
X710474Y271703D01*
X712526Y272888D01*
X714202Y274564D01*
X715387Y276616D01*
X716000Y278905D01*
X716000Y281275D01*
X715387Y283564D01*
X714202Y285616D01*
X712526Y287292D01*
X710474Y288477D01*
X708185Y289090D01*
X708185Y289090D02*
G37*
G36*
X200856Y294500D02*
X199144Y294500D01*
X197491Y294057D01*
X196009Y293201D01*
X194799Y291991D01*
X193943Y290509D01*
X193500Y288856D01*
X193500Y287144D01*
X193943Y285491D01*
X194799Y284009D01*
X195808Y283000D01*
X194799Y281991D01*
X193943Y280509D01*
X193500Y278856D01*
X193500Y277144D01*
X193943Y275491D01*
X194799Y274009D01*
X195844Y272963D01*
X194799Y271918D01*
X193943Y270435D01*
X193500Y268782D01*
X193500Y267071D01*
X193943Y265418D01*
X194799Y263935D01*
X196009Y262725D01*
X197491Y261870D01*
X199144Y261427D01*
X200856Y261427D01*
X202509Y261870D01*
X203991Y262725D01*
X205201Y263935D01*
X206057Y265418D01*
X206500Y267071D01*
X206500Y268782D01*
X206057Y270435D01*
X205201Y271918D01*
X204156Y272963D01*
X205201Y274009D01*
X206057Y275491D01*
X206500Y277144D01*
X206500Y278856D01*
X206057Y280509D01*
X205201Y281991D01*
X204192Y283000D01*
X205201Y284009D01*
X206057Y285491D01*
X206500Y287144D01*
X206500Y288856D01*
X206057Y290509D01*
X205201Y291991D01*
X203991Y293201D01*
X202509Y294057D01*
X200856Y294500D01*
X200856Y294500D02*
G37*
G36*
X118053Y339700D02*
X115947Y339700D01*
X113912Y339155D01*
X112088Y338102D01*
X110598Y336612D01*
X109545Y334788D01*
X109000Y332753D01*
X109000Y330647D01*
X109545Y328612D01*
X110598Y326788D01*
X112036Y325350D01*
X110598Y323912D01*
X109545Y322088D01*
X109000Y320053D01*
X109000Y317947D01*
X109545Y315912D01*
X110598Y314088D01*
X112036Y312650D01*
X110598Y311212D01*
X109545Y309388D01*
X109000Y307353D01*
X109000Y305247D01*
X109545Y303212D01*
X110598Y301388D01*
X112036Y299950D01*
X110598Y298512D01*
X109545Y296688D01*
X109000Y294653D01*
X109000Y292547D01*
X109545Y290512D01*
X110598Y288688D01*
X112036Y287250D01*
X110598Y285812D01*
X109545Y283988D01*
X109000Y281953D01*
X109000Y279847D01*
X109545Y277812D01*
X110598Y275988D01*
X112036Y274550D01*
X110598Y273112D01*
X109545Y271288D01*
X109000Y269253D01*
X109000Y267147D01*
X109545Y265112D01*
X110598Y263288D01*
X112088Y261798D01*
X113912Y260745D01*
X115947Y260200D01*
X118053Y260200D01*
X120088Y260745D01*
X121912Y261798D01*
X123402Y263288D01*
X124455Y265112D01*
X125000Y267147D01*
X125000Y269253D01*
X124455Y271288D01*
X123402Y273112D01*
X121964Y274550D01*
X123402Y275988D01*
X124455Y277812D01*
X125000Y279847D01*
X125000Y281953D01*
X124455Y283988D01*
X123402Y285812D01*
X121964Y287250D01*
X123402Y288688D01*
X124455Y290512D01*
X125000Y292547D01*
X125000Y294653D01*
X124455Y296688D01*
X123402Y298512D01*
X121964Y299950D01*
X123402Y301388D01*
X124455Y303212D01*
X125000Y305247D01*
X125000Y307353D01*
X124455Y309388D01*
X123402Y311212D01*
X121964Y312650D01*
X123402Y314088D01*
X124455Y315912D01*
X125000Y317947D01*
X125000Y320053D01*
X124455Y322088D01*
X123402Y323912D01*
X121964Y325350D01*
X123402Y326788D01*
X124455Y328612D01*
X125000Y330647D01*
X125000Y332753D01*
X124455Y334788D01*
X123402Y336612D01*
X121912Y338102D01*
X120088Y339155D01*
X118053Y339700D01*
X118053Y339700D02*
G37*
G36*
X822357Y289478D02*
X822357Y289478D01*
X748150Y289478D01*
X746980Y289245D01*
X745987Y288582D01*
X745324Y287590D01*
X745091Y286419D01*
X745091Y260500D01*
X745324Y259329D01*
X745987Y258337D01*
X746980Y257674D01*
X748150Y257441D01*
X823202Y257441D01*
X824373Y257674D01*
X825365Y258337D01*
X826028Y259329D01*
X826261Y260500D01*
X826261Y285574D01*
X826261Y285574D01*
X826028Y286744D01*
X825365Y287737D01*
X825365Y287737D01*
X824520Y288582D01*
X823527Y289245D01*
X822357Y289478D01*
X822357Y289478D02*
G37*
G36*
X419687Y269225D02*
X417975Y269225D01*
X416322Y268782D01*
X414840Y267926D01*
X413630Y266716D01*
X412774Y265234D01*
X412331Y263581D01*
X412331Y261869D01*
X412774Y260216D01*
X413630Y258734D01*
X414840Y257524D01*
X416322Y256668D01*
X417975Y256225D01*
X419687Y256225D01*
X421340Y256668D01*
X422822Y257524D01*
X424032Y258734D01*
X424888Y260216D01*
X425331Y261869D01*
X425331Y263581D01*
X424888Y265234D01*
X424032Y266716D01*
X422822Y267926D01*
X421340Y268782D01*
X419687Y269225D01*
X419687Y269225D02*
G37*
G36*
X844185Y269090D02*
X841815Y269090D01*
X839526Y268477D01*
X837474Y267292D01*
X835798Y265616D01*
X834613Y263564D01*
X834000Y261275D01*
X834000Y258905D01*
X834613Y256616D01*
X835798Y254564D01*
X837474Y252888D01*
X839526Y251703D01*
X841815Y251090D01*
X844185Y251090D01*
X846474Y251703D01*
X848526Y252888D01*
X850202Y254564D01*
X851387Y256616D01*
X852000Y258905D01*
X852000Y261275D01*
X851387Y263564D01*
X850202Y265616D01*
X848526Y267292D01*
X846474Y268477D01*
X844185Y269090D01*
X844185Y269090D02*
G37*
G36*
X708185Y269090D02*
X705815Y269090D01*
X703526Y268477D01*
X701474Y267292D01*
X699798Y265616D01*
X698613Y263564D01*
X698000Y261275D01*
X698000Y258905D01*
X698613Y256616D01*
X699798Y254564D01*
X701474Y252888D01*
X703526Y251703D01*
X705815Y251090D01*
X708185Y251090D01*
X710474Y251703D01*
X712526Y252888D01*
X714202Y254564D01*
X715387Y256616D01*
X716000Y258905D01*
X716000Y261275D01*
X715387Y263564D01*
X714202Y265616D01*
X712526Y267292D01*
X710474Y268477D01*
X708185Y269090D01*
X708185Y269090D02*
G37*
G36*
X671356Y260500D02*
X669644Y260500D01*
X667991Y260057D01*
X666509Y259201D01*
X665299Y257991D01*
X664443Y256509D01*
X664000Y254856D01*
X664000Y253144D01*
X664443Y251491D01*
X665299Y250009D01*
X666509Y248799D01*
X667991Y247943D01*
X669644Y247500D01*
X671356Y247500D01*
X673009Y247943D01*
X674491Y248799D01*
X675701Y250009D01*
X676557Y251491D01*
X677000Y253144D01*
X677000Y254856D01*
X676557Y256509D01*
X675701Y257991D01*
X674491Y259201D01*
X673009Y260057D01*
X671356Y260500D01*
X671356Y260500D02*
G37*
G36*
X235700Y258192D02*
X233988Y258192D01*
X232335Y257749D01*
X230853Y256893D01*
X229643Y255683D01*
X228787Y254200D01*
X228344Y252547D01*
X228344Y250836D01*
X228787Y249183D01*
X229643Y247701D01*
X230853Y246490D01*
X232335Y245635D01*
X233988Y245192D01*
X235700Y245192D01*
X237353Y245635D01*
X238835Y246490D01*
X240045Y247701D01*
X240901Y249183D01*
X241344Y250836D01*
X241344Y252547D01*
X240901Y254200D01*
X240045Y255683D01*
X238835Y256893D01*
X237353Y257749D01*
X235700Y258192D01*
X235700Y258192D02*
G37*
G36*
X844185Y249090D02*
X841815Y249090D01*
X839526Y248477D01*
X837474Y247292D01*
X835798Y245616D01*
X834613Y243564D01*
X834000Y241275D01*
X834000Y238905D01*
X834613Y236616D01*
X835798Y234564D01*
X837474Y232888D01*
X839526Y231703D01*
X841815Y231090D01*
X844185Y231090D01*
X846474Y231703D01*
X848526Y232888D01*
X850202Y234564D01*
X851387Y236616D01*
X852000Y238905D01*
X852000Y241275D01*
X851387Y243564D01*
X850202Y245616D01*
X848526Y247292D01*
X846474Y248477D01*
X844185Y249090D01*
X844185Y249090D02*
G37*
G36*
X708185Y249090D02*
X705815Y249090D01*
X703526Y248477D01*
X701474Y247292D01*
X699798Y245616D01*
X698613Y243564D01*
X698000Y241275D01*
X698000Y238905D01*
X698613Y236616D01*
X699798Y234564D01*
X701474Y232888D01*
X703526Y231703D01*
X705815Y231090D01*
X708185Y231090D01*
X710474Y231703D01*
X712526Y232888D01*
X714202Y234564D01*
X715387Y236616D01*
X716000Y238905D01*
X716000Y241275D01*
X715387Y243564D01*
X714202Y245616D01*
X712526Y247292D01*
X710474Y248477D01*
X708185Y249090D01*
X708185Y249090D02*
G37*
G36*
X250656Y243658D02*
X248945Y243658D01*
X247291Y243215D01*
X245809Y242360D01*
X244599Y241150D01*
X243743Y239667D01*
X243300Y238014D01*
X243300Y236303D01*
X243743Y234650D01*
X244599Y233167D01*
X245256Y232510D01*
X245545Y231076D01*
X245219Y229988D01*
X244463Y229231D01*
X243607Y227749D01*
X243164Y226096D01*
X243164Y224385D01*
X243607Y222731D01*
X244463Y221249D01*
X245673Y220039D01*
X247155Y219183D01*
X248808Y218740D01*
X250520Y218740D01*
X252173Y219183D01*
X253655Y220039D01*
X254865Y221249D01*
X255721Y222731D01*
X256164Y224385D01*
X256164Y226096D01*
X255721Y227749D01*
X254865Y229231D01*
X254208Y229888D01*
X253919Y231323D01*
X254245Y232411D01*
X255002Y233167D01*
X255857Y234650D01*
X256300Y236303D01*
X256300Y238014D01*
X255857Y239667D01*
X255002Y241150D01*
X253791Y242360D01*
X252309Y243215D01*
X250656Y243658D01*
X250656Y243658D02*
G37*
G36*
X229448Y243660D02*
X227737Y243660D01*
X226084Y243217D01*
X224601Y242361D01*
X223391Y241151D01*
X222535Y239669D01*
X222092Y238016D01*
X222092Y236304D01*
X222535Y234651D01*
X223391Y233169D01*
X224304Y232256D01*
X224582Y231668D01*
X224454Y229734D01*
X223951Y229231D01*
X223095Y227749D01*
X222652Y226096D01*
X222652Y224385D01*
X223095Y222731D01*
X223951Y221249D01*
X225161Y220039D01*
X226644Y219183D01*
X228297Y218740D01*
X230008Y218740D01*
X231661Y219183D01*
X233144Y220039D01*
X234354Y221249D01*
X235210Y222731D01*
X235653Y224385D01*
X235653Y226096D01*
X235210Y227749D01*
X234354Y229231D01*
X233441Y230144D01*
X233163Y230733D01*
X233291Y232666D01*
X233794Y233169D01*
X234650Y234651D01*
X235093Y236304D01*
X235093Y238016D01*
X234650Y239669D01*
X233794Y241151D01*
X232584Y242361D01*
X231101Y243217D01*
X229448Y243660D01*
X229448Y243660D02*
G37*
G36*
X419791Y243825D02*
X418079Y243825D01*
X416426Y243382D01*
X414944Y242526D01*
X413734Y241316D01*
X412878Y239834D01*
X412435Y238181D01*
X412435Y236469D01*
X412878Y234816D01*
X413734Y233334D01*
X414944Y232124D01*
X414944Y229826D01*
X413734Y228616D01*
X412878Y227134D01*
X412435Y225481D01*
X412435Y223769D01*
X412878Y222116D01*
X413734Y220634D01*
X414944Y219424D01*
X416426Y218568D01*
X418079Y218125D01*
X419791Y218125D01*
X421444Y218568D01*
X422926Y219424D01*
X424136Y220634D01*
X424992Y222116D01*
X425435Y223769D01*
X425435Y225481D01*
X424992Y227134D01*
X424136Y228616D01*
X422926Y229826D01*
X422926Y232124D01*
X424136Y233334D01*
X424992Y234816D01*
X425435Y236469D01*
X425435Y238181D01*
X424992Y239834D01*
X424136Y241316D01*
X422926Y242526D01*
X421444Y243382D01*
X419791Y243825D01*
X419791Y243825D02*
G37*
G36*
X708185Y229090D02*
X705815Y229090D01*
X703526Y228477D01*
X701474Y227292D01*
X699798Y225616D01*
X698613Y223564D01*
X698000Y221275D01*
X698000Y218905D01*
X698613Y216616D01*
X699798Y214564D01*
X701474Y212888D01*
X703526Y211703D01*
X705815Y211090D01*
X708185Y211090D01*
X710474Y211703D01*
X712526Y212888D01*
X714202Y214564D01*
X715387Y216616D01*
X716000Y218905D01*
X716000Y221275D01*
X715387Y223564D01*
X714202Y225616D01*
X712526Y227292D01*
X710474Y228477D01*
X708185Y229090D01*
X708185Y229090D02*
G37*
G36*
X419621Y210870D02*
X417910Y210870D01*
X416257Y210427D01*
X414775Y209571D01*
X413683Y208480D01*
X412592Y209571D01*
X411110Y210427D01*
X409457Y210870D01*
X407745Y210870D01*
X406092Y210427D01*
X404610Y209571D01*
X403400Y208361D01*
X402544Y206879D01*
X402101Y205226D01*
X402101Y203514D01*
X402544Y201861D01*
X403400Y200379D01*
X404610Y199169D01*
X406092Y198313D01*
X407745Y197870D01*
X409457Y197870D01*
X411110Y198313D01*
X412592Y199169D01*
X413683Y200260D01*
X414775Y199169D01*
X416257Y198313D01*
X417910Y197870D01*
X419621Y197870D01*
X421275Y198313D01*
X422757Y199169D01*
X423967Y200379D01*
X424823Y201861D01*
X425266Y203514D01*
X425266Y205226D01*
X424823Y206879D01*
X423967Y208361D01*
X422757Y209571D01*
X421275Y210427D01*
X419621Y210870D01*
X419621Y210870D02*
G37*
G36*
X290226Y243825D02*
X288514Y243825D01*
X286861Y243382D01*
X285379Y242526D01*
X284169Y241316D01*
X283313Y239834D01*
X282870Y238181D01*
X282870Y236469D01*
X283313Y234816D01*
X284169Y233334D01*
X285379Y232124D01*
X285379Y229826D01*
X284169Y228616D01*
X283313Y227134D01*
X282870Y225481D01*
X282870Y223769D01*
X283313Y222116D01*
X284169Y220634D01*
X285379Y219424D01*
X285379Y217126D01*
X284169Y215916D01*
X283313Y214434D01*
X282870Y212781D01*
X282870Y211069D01*
X283313Y209416D01*
X284169Y207934D01*
X285379Y206724D01*
X286861Y205868D01*
X288514Y205425D01*
X290226Y205425D01*
X291879Y205868D01*
X293361Y206724D01*
X294571Y207934D01*
X295427Y209416D01*
X295870Y211069D01*
X295870Y212781D01*
X295427Y214434D01*
X294571Y215916D01*
X293361Y217126D01*
X293361Y219424D01*
X294571Y220634D01*
X295427Y222116D01*
X295870Y223769D01*
X295870Y225481D01*
X295427Y227134D01*
X294571Y228616D01*
X293361Y229826D01*
X293361Y232124D01*
X294571Y233334D01*
X295427Y234816D01*
X295870Y236469D01*
X295870Y238181D01*
X295427Y239834D01*
X294571Y241316D01*
X293361Y242526D01*
X291879Y243382D01*
X290226Y243825D01*
X290226Y243825D02*
G37*
G36*
X211856Y216100D02*
X210144Y216100D01*
X208491Y215657D01*
X207009Y214801D01*
X205799Y213591D01*
X204943Y212109D01*
X204500Y210456D01*
X204500Y208744D01*
X204943Y207091D01*
X205799Y205609D01*
X207009Y204399D01*
X208491Y203543D01*
X210144Y203100D01*
X211856Y203100D01*
X213509Y203543D01*
X214991Y204399D01*
X216201Y205609D01*
X217057Y207091D01*
X217500Y208744D01*
X217500Y210456D01*
X217057Y212109D01*
X216201Y213591D01*
X214991Y214801D01*
X213509Y215657D01*
X211856Y216100D01*
X211856Y216100D02*
G37*
G36*
X844185Y209090D02*
X841815Y209090D01*
X839526Y208477D01*
X837474Y207292D01*
X835798Y205616D01*
X834613Y203564D01*
X834000Y201275D01*
X834000Y198905D01*
X834613Y196616D01*
X835798Y194564D01*
X837474Y192888D01*
X839526Y191703D01*
X841815Y191090D01*
X844185Y191090D01*
X846474Y191703D01*
X848526Y192888D01*
X850202Y194564D01*
X851387Y196616D01*
X852000Y198905D01*
X852000Y201275D01*
X851387Y203564D01*
X850202Y205616D01*
X848526Y207292D01*
X846474Y208477D01*
X844185Y209090D01*
X844185Y209090D02*
G37*
G36*
X156801Y203756D02*
X155089Y203756D01*
X153436Y203313D01*
X151954Y202458D01*
X150744Y201247D01*
X149888Y199765D01*
X149445Y198112D01*
X149445Y196400D01*
X149888Y194747D01*
X150744Y193265D01*
X151954Y192055D01*
X153436Y191199D01*
X155089Y190756D01*
X156801Y190756D01*
X158454Y191199D01*
X159936Y192055D01*
X161146Y193265D01*
X162002Y194747D01*
X162445Y196400D01*
X162445Y198112D01*
X162002Y199765D01*
X161146Y201247D01*
X159936Y202458D01*
X158454Y203313D01*
X156801Y203756D01*
X156801Y203756D02*
G37*
G36*
X410003Y187348D02*
X408291Y187348D01*
X406638Y186905D01*
X405156Y186049D01*
X403946Y184839D01*
X403090Y183357D01*
X402647Y181704D01*
X402647Y179993D01*
X403090Y178339D01*
X403946Y176857D01*
X405156Y175647D01*
X406638Y174791D01*
X408291Y174348D01*
X410003Y174348D01*
X411656Y174791D01*
X413138Y175647D01*
X414348Y176857D01*
X415204Y178339D01*
X415647Y179993D01*
X415647Y181704D01*
X415204Y183357D01*
X414348Y184839D01*
X413138Y186049D01*
X411656Y186905D01*
X410003Y187348D01*
X410003Y187348D02*
G37*
G36*
X552903Y186602D02*
X551192Y186602D01*
X549538Y186159D01*
X548056Y185303D01*
X546846Y184093D01*
X545990Y182611D01*
X545547Y180958D01*
X545547Y179246D01*
X545990Y177593D01*
X546846Y176111D01*
X548056Y174900D01*
X549538Y174045D01*
X551192Y173602D01*
X552903Y173602D01*
X554556Y174045D01*
X556038Y174900D01*
X557249Y176111D01*
X558104Y177593D01*
X558547Y179246D01*
X558547Y180958D01*
X558104Y182611D01*
X557249Y184093D01*
X556038Y185303D01*
X554556Y186159D01*
X552903Y186602D01*
X552903Y186602D02*
G37*
G36*
X524905Y180701D02*
X523193Y180701D01*
X521540Y180258D01*
X520058Y179403D01*
X518848Y178192D01*
X517992Y176710D01*
X517549Y175057D01*
X517549Y173346D01*
X517992Y171692D01*
X518848Y170210D01*
X520058Y169000D01*
X521540Y168144D01*
X523193Y167701D01*
X524905Y167701D01*
X526558Y168144D01*
X528040Y169000D01*
X529250Y170210D01*
X530106Y171692D01*
X530549Y173346D01*
X530549Y175057D01*
X530106Y176710D01*
X529250Y178192D01*
X528040Y179403D01*
X526558Y180258D01*
X524905Y180701D01*
X524905Y180701D02*
G37*
G36*
X291686Y193025D02*
X289974Y193025D01*
X288321Y192582D01*
X286839Y191726D01*
X285629Y190516D01*
X284773Y189034D01*
X284330Y187381D01*
X284330Y185669D01*
X284773Y184016D01*
X285629Y182534D01*
X286839Y181324D01*
X286839Y179026D01*
X285629Y177816D01*
X284773Y176334D01*
X284330Y174681D01*
X284330Y172969D01*
X284773Y171316D01*
X285629Y169834D01*
X286839Y168624D01*
X288321Y167768D01*
X289974Y167325D01*
X291686Y167325D01*
X293339Y167768D01*
X294821Y168624D01*
X296031Y169834D01*
X296887Y171316D01*
X297330Y172969D01*
X297330Y174681D01*
X296887Y176334D01*
X296031Y177816D01*
X294821Y179026D01*
X294821Y181324D01*
X296031Y182534D01*
X296887Y184016D01*
X297330Y185669D01*
X297330Y187381D01*
X296887Y189034D01*
X296031Y190516D01*
X294821Y191726D01*
X293339Y192582D01*
X291686Y193025D01*
X291686Y193025D02*
G37*
G36*
X503781Y185500D02*
X502069Y185500D01*
X500416Y185057D01*
X498934Y184201D01*
X497724Y182991D01*
X496868Y181509D01*
X496425Y179856D01*
X496425Y178144D01*
X496868Y176491D01*
X497724Y175009D01*
X498934Y173799D01*
X500416Y172943D01*
X500696Y172868D01*
X502024Y171684D01*
X501962Y170544D01*
X501777Y169856D01*
X501777Y168144D01*
X502220Y166491D01*
X503076Y165009D01*
X504286Y163799D01*
X505769Y162943D01*
X507422Y162500D01*
X509133Y162500D01*
X510786Y162943D01*
X512268Y163799D01*
X513479Y165009D01*
X514334Y166491D01*
X514777Y168144D01*
X514777Y169856D01*
X514334Y171509D01*
X513479Y172991D01*
X512268Y174201D01*
X510786Y175057D01*
X510507Y175132D01*
X509178Y176316D01*
X509240Y177456D01*
X509425Y178144D01*
X509425Y179856D01*
X508982Y181509D01*
X508126Y182991D01*
X506916Y184201D01*
X505434Y185057D01*
X503781Y185500D01*
X503781Y185500D02*
G37*
G36*
X549096Y171463D02*
X547384Y171463D01*
X545731Y171020D01*
X544249Y170164D01*
X543039Y168954D01*
X542183Y167472D01*
X541740Y165819D01*
X541740Y164107D01*
X542183Y162454D01*
X543039Y160972D01*
X544249Y159762D01*
X545731Y158906D01*
X547384Y158463D01*
X549096Y158463D01*
X550749Y158906D01*
X552231Y159762D01*
X553441Y160972D01*
X554297Y162454D01*
X554740Y164107D01*
X554740Y165819D01*
X554297Y167472D01*
X553441Y168954D01*
X552231Y170164D01*
X550749Y171020D01*
X549096Y171463D01*
X549096Y171463D02*
G37*
G36*
X383192Y161020D02*
X381348Y161020D01*
X379568Y160543D01*
X377972Y159621D01*
X376920Y158569D01*
X375712Y158429D01*
X374504Y158569D01*
X373452Y159621D01*
X371856Y160543D01*
X370075Y161020D01*
X368232Y161020D01*
X366452Y160543D01*
X364856Y159621D01*
X363553Y158318D01*
X362631Y156722D01*
X362154Y154942D01*
X362154Y153098D01*
X362631Y151318D01*
X363553Y149722D01*
X364856Y148419D01*
X366452Y147497D01*
X368232Y147020D01*
X370075Y147020D01*
X371856Y147497D01*
X373452Y148419D01*
X374504Y149471D01*
X375712Y149611D01*
X376920Y149471D01*
X377972Y148419D01*
X379568Y147497D01*
X381348Y147020D01*
X383192Y147020D01*
X384972Y147497D01*
X386568Y148419D01*
X387871Y149722D01*
X388793Y151318D01*
X389270Y153098D01*
X389270Y154942D01*
X388793Y156722D01*
X387871Y158318D01*
X386568Y159621D01*
X384972Y160543D01*
X383192Y161020D01*
X383192Y161020D02*
G37*
G36*
X691389Y181005D02*
X689678Y181005D01*
X688025Y180562D01*
X686542Y179706D01*
X685332Y178496D01*
X684476Y177014D01*
X684033Y175361D01*
X684033Y173649D01*
X684476Y171996D01*
X685332Y170514D01*
X686341Y169505D01*
X685332Y168496D01*
X684476Y167014D01*
X684033Y165361D01*
X684033Y163649D01*
X684476Y161996D01*
X685332Y160514D01*
X686542Y159304D01*
X688025Y158448D01*
X689678Y158005D01*
X691389Y158005D01*
X693042Y158448D01*
X694524Y159304D01*
X695735Y160514D01*
X696590Y161996D01*
X697033Y163649D01*
X697033Y165361D01*
X696590Y167014D01*
X695735Y168496D01*
X694726Y169505D01*
X695735Y170514D01*
X696590Y171996D01*
X697033Y173649D01*
X697033Y175361D01*
X696590Y177014D01*
X695735Y178496D01*
X694524Y179706D01*
X693042Y180562D01*
X691389Y181005D01*
X691389Y181005D02*
G37*
G36*
X349376Y156500D02*
X347664Y156500D01*
X346011Y156057D01*
X344529Y155201D01*
X343319Y153991D01*
X342463Y152509D01*
X342106Y151178D01*
X340686Y150203D01*
X340438Y150082D01*
X340020Y150016D01*
X338551Y150410D01*
X336839Y150410D01*
X335186Y149967D01*
X333704Y149111D01*
X332494Y147901D01*
X331638Y146419D01*
X331195Y144766D01*
X331195Y143054D01*
X331638Y141401D01*
X332494Y139919D01*
X333704Y138709D01*
X335186Y137853D01*
X336839Y137410D01*
X338551Y137410D01*
X340204Y137853D01*
X341686Y138709D01*
X342896Y139919D01*
X343752Y141401D01*
X344109Y142732D01*
X345530Y143707D01*
X345777Y143828D01*
X346195Y143894D01*
X347664Y143500D01*
X349376Y143500D01*
X351029Y143943D01*
X352511Y144799D01*
X353721Y146009D01*
X354577Y147491D01*
X355020Y149144D01*
X355020Y150856D01*
X354577Y152509D01*
X353721Y153991D01*
X352511Y155201D01*
X351029Y156057D01*
X349376Y156500D01*
X349376Y156500D02*
G37*
G36*
X642491Y208000D02*
X637509Y208000D01*
X632571Y207350D01*
X627759Y206061D01*
X623157Y204154D01*
X618843Y201664D01*
X614891Y198631D01*
X611369Y195109D01*
X608336Y191157D01*
X605846Y186843D01*
X603940Y182241D01*
X602650Y177429D01*
X602000Y172491D01*
X602000Y167509D01*
X602650Y162571D01*
X603940Y157759D01*
X605846Y153157D01*
X608336Y148843D01*
X611369Y144891D01*
X614891Y141369D01*
X618843Y138336D01*
X623157Y135846D01*
X623402Y135744D01*
X623573Y135156D01*
X623461Y133555D01*
X622474Y132985D01*
X621264Y131775D01*
X620409Y130293D01*
X619966Y128640D01*
X619966Y126928D01*
X620409Y125275D01*
X621264Y123793D01*
X622474Y122583D01*
X623957Y121727D01*
X625610Y121284D01*
X627321Y121284D01*
X628974Y121727D01*
X630457Y122583D01*
X631667Y123793D01*
X632523Y125275D01*
X632966Y126928D01*
X632966Y128640D01*
X632523Y130293D01*
X632305Y130670D01*
X633545Y132522D01*
X637509Y132000D01*
X642491Y132000D01*
X647429Y132650D01*
X652241Y133939D01*
X656843Y135846D01*
X661157Y138336D01*
X665109Y141369D01*
X668631Y144891D01*
X671664Y148843D01*
X674154Y153157D01*
X676061Y157759D01*
X677350Y162571D01*
X678000Y167509D01*
X678000Y172491D01*
X677350Y177429D01*
X676061Y182241D01*
X674154Y186843D01*
X671664Y191157D01*
X668631Y195109D01*
X665109Y198631D01*
X661157Y201664D01*
X656843Y204154D01*
X652241Y206061D01*
X647429Y207350D01*
X642491Y208000D01*
X642491Y208000D02*
G37*
G36*
X819950Y158120D02*
X716145Y158120D01*
X714974Y157887D01*
X713982Y157225D01*
X713319Y156232D01*
X713086Y155062D01*
X713086Y134308D01*
X713319Y133138D01*
X713982Y132145D01*
X714974Y131482D01*
X716145Y131249D01*
X819950Y131249D01*
X821121Y131482D01*
X822113Y132145D01*
X822776Y133138D01*
X823009Y134308D01*
X823009Y155062D01*
X822776Y156232D01*
X822113Y157225D01*
X821121Y157887D01*
X819950Y158120D01*
X819950Y158120D02*
G37*
G36*
X413606Y125880D02*
X411894Y125880D01*
X410241Y125437D01*
X408759Y124581D01*
X407549Y123371D01*
X407139Y122662D01*
X404931Y122662D01*
X404521Y123371D01*
X403311Y124581D01*
X401829Y125437D01*
X400176Y125880D01*
X398464Y125880D01*
X396811Y125437D01*
X395329Y124581D01*
X394119Y123371D01*
X393263Y121889D01*
X392820Y120236D01*
X392820Y118524D01*
X393263Y116871D01*
X394119Y115389D01*
X395329Y114179D01*
X396811Y113323D01*
X398464Y112880D01*
X400176Y112880D01*
X401829Y113323D01*
X403311Y114179D01*
X404521Y115389D01*
X404931Y116098D01*
X407139Y116098D01*
X407549Y115389D01*
X408759Y114179D01*
X410241Y113323D01*
X411894Y112880D01*
X413606Y112880D01*
X415259Y113323D01*
X416741Y114179D01*
X417951Y115389D01*
X418807Y116871D01*
X419250Y118524D01*
X419250Y120236D01*
X418807Y121889D01*
X417951Y123371D01*
X416741Y124581D01*
X415259Y125437D01*
X413606Y125880D01*
X413606Y125880D02*
G37*
G36*
X293156Y154925D02*
X291444Y154925D01*
X289791Y154482D01*
X288309Y153626D01*
X287099Y152416D01*
X286243Y150934D01*
X285800Y149281D01*
X285800Y147569D01*
X286243Y145916D01*
X287099Y144434D01*
X288309Y143224D01*
X288309Y140926D01*
X287099Y139716D01*
X286243Y138234D01*
X285800Y136581D01*
X285800Y134869D01*
X286243Y133216D01*
X287099Y131734D01*
X288309Y130524D01*
X288309Y128226D01*
X287099Y127016D01*
X286243Y125534D01*
X285800Y123881D01*
X285800Y122169D01*
X286243Y120516D01*
X287099Y119034D01*
X288309Y117824D01*
X289791Y116968D01*
X291444Y116525D01*
X293156Y116525D01*
X294809Y116968D01*
X296291Y117824D01*
X297501Y119034D01*
X298357Y120516D01*
X298800Y122169D01*
X298800Y123881D01*
X298357Y125534D01*
X297501Y127016D01*
X296291Y128226D01*
X296291Y130524D01*
X297501Y131734D01*
X298357Y133216D01*
X298800Y134869D01*
X298800Y136581D01*
X298357Y138234D01*
X297501Y139716D01*
X296291Y140926D01*
X296291Y143224D01*
X297501Y144434D01*
X298357Y145916D01*
X298800Y147569D01*
X298800Y149281D01*
X298357Y150934D01*
X297501Y152416D01*
X296291Y153626D01*
X294809Y154482D01*
X293156Y154925D01*
X293156Y154925D02*
G37*
G36*
X311276Y127150D02*
X309564Y127150D01*
X307911Y126707D01*
X306429Y125851D01*
X305219Y124641D01*
X304363Y123159D01*
X303920Y121506D01*
X303920Y119794D01*
X304363Y118141D01*
X305219Y116659D01*
X306429Y115449D01*
X307911Y114593D01*
X309564Y114150D01*
X311276Y114150D01*
X312929Y114593D01*
X314411Y115449D01*
X315621Y116659D01*
X316477Y118141D01*
X316920Y119794D01*
X316920Y121506D01*
X316477Y123159D01*
X315621Y124641D01*
X314411Y125851D01*
X312929Y126707D01*
X311276Y127150D01*
X311276Y127150D02*
G37*
G36*
X171922Y127114D02*
X170078Y127114D01*
X168298Y126637D01*
X166702Y125716D01*
X165399Y124412D01*
X164477Y122816D01*
X164000Y121036D01*
X164000Y119193D01*
X164477Y117412D01*
X165399Y115816D01*
X166702Y114513D01*
X168298Y113591D01*
X170078Y113114D01*
X171922Y113114D01*
X173702Y113591D01*
X175298Y114513D01*
X176601Y115816D01*
X177523Y117412D01*
X178000Y119193D01*
X178000Y121036D01*
X177523Y122816D01*
X176601Y124412D01*
X175298Y125716D01*
X173702Y126637D01*
X171922Y127114D01*
X171922Y127114D02*
G37*
G36*
X459906Y125880D02*
X458194Y125880D01*
X456541Y125437D01*
X455059Y124581D01*
X453849Y123371D01*
X452993Y121889D01*
X452550Y120236D01*
X452550Y118524D01*
X452993Y116871D01*
X453849Y115389D01*
X455059Y114179D01*
X456541Y113323D01*
X458194Y112880D01*
X459906Y112880D01*
X461559Y113323D01*
X463041Y114179D01*
X463283Y114420D01*
X464312Y115246D01*
X465522Y114035D01*
X467004Y113180D01*
X468657Y112737D01*
X470369Y112737D01*
X472022Y113180D01*
X473504Y114035D01*
X474715Y115246D01*
X475570Y116728D01*
X476013Y118381D01*
X476013Y120092D01*
X475570Y121746D01*
X474715Y123228D01*
X473504Y124438D01*
X472022Y125294D01*
X470369Y125737D01*
X468657Y125737D01*
X467004Y125294D01*
X465522Y124438D01*
X465281Y124196D01*
X464251Y123371D01*
X463041Y124581D01*
X461559Y125437D01*
X459906Y125880D01*
X459906Y125880D02*
G37*
G36*
X687981Y126284D02*
X676481Y126284D01*
X670731Y120534D01*
X670731Y109034D01*
X676481Y103284D01*
X687981Y103284D01*
X693731Y109034D01*
X693731Y120534D01*
X687981Y126284D01*
X687981Y126284D02*
G37*
G36*
X658345Y126284D02*
X655317Y126284D01*
X652392Y125500D01*
X649770Y123986D01*
X647629Y121845D01*
X646115Y119223D01*
X645331Y116298D01*
X645331Y113270D01*
X646115Y110345D01*
X647629Y107723D01*
X649770Y105582D01*
X652392Y104068D01*
X655317Y103284D01*
X658345Y103284D01*
X661270Y104068D01*
X663892Y105582D01*
X666033Y107723D01*
X667547Y110345D01*
X668331Y113270D01*
X668331Y116298D01*
X667547Y119223D01*
X666033Y121845D01*
X663892Y123986D01*
X661270Y125500D01*
X658345Y126284D01*
X658345Y126284D02*
G37*
G36*
X795506Y97520D02*
X793794Y97520D01*
X792141Y97077D01*
X790659Y96221D01*
X790507Y96070D01*
X789150Y95202D01*
X787793Y96070D01*
X787641Y96221D01*
X786159Y97077D01*
X784506Y97520D01*
X782794Y97520D01*
X781141Y97077D01*
X779659Y96221D01*
X779507Y96070D01*
X778150Y95202D01*
X776793Y96070D01*
X776641Y96221D01*
X775159Y97077D01*
X773506Y97520D01*
X771794Y97520D01*
X770141Y97077D01*
X768659Y96221D01*
X768507Y96070D01*
X767150Y95202D01*
X765793Y96070D01*
X765641Y96221D01*
X764159Y97077D01*
X762506Y97520D01*
X760794Y97520D01*
X759141Y97077D01*
X757659Y96221D01*
X756449Y95011D01*
X755593Y93529D01*
X755150Y91876D01*
X755150Y90164D01*
X755593Y88511D01*
X756449Y87029D01*
X757659Y85819D01*
X759141Y84963D01*
X760794Y84520D01*
X762506Y84520D01*
X764159Y84963D01*
X765559Y85771D01*
X766693Y85444D01*
X767514Y84963D01*
X767535Y84951D01*
X767705Y83563D01*
X767406Y83264D01*
X766411Y81776D01*
X766062Y80020D01*
X766062Y79804D01*
X765045Y79125D01*
X763940Y77471D01*
X763552Y75520D01*
X763552Y70520D01*
X763940Y68569D01*
X765045Y66915D01*
X765792Y66416D01*
X765792Y63508D01*
X765156Y63020D01*
X764314Y61923D01*
X763785Y60646D01*
X763605Y59275D01*
X763605Y49776D01*
X763785Y48405D01*
X764314Y47128D01*
X765156Y46031D01*
X766252Y45190D01*
X767530Y44661D01*
X768900Y44480D01*
X773400Y44480D01*
X774771Y44661D01*
X776048Y45190D01*
X777144Y46031D01*
X777986Y47128D01*
X778515Y48405D01*
X778695Y49776D01*
X778695Y59275D01*
X778515Y60646D01*
X777986Y61923D01*
X777144Y63020D01*
X776048Y63861D01*
X775192Y64216D01*
X775119Y66156D01*
X776255Y66915D01*
X777360Y68569D01*
X777748Y70520D01*
X777748Y75520D01*
X777360Y77471D01*
X776255Y79125D01*
X776167Y79184D01*
X776889Y80264D01*
X777238Y82020D01*
X777238Y85411D01*
X779146Y86201D01*
X779507Y85970D01*
X779659Y85819D01*
X781141Y84963D01*
X782794Y84520D01*
X784506Y84520D01*
X786159Y84963D01*
X787641Y85819D01*
X787793Y85970D01*
X789150Y86838D01*
X790507Y85970D01*
X790659Y85819D01*
X792141Y84963D01*
X793794Y84520D01*
X795506Y84520D01*
X797159Y84963D01*
X798641Y85819D01*
X799851Y87029D01*
X800707Y88511D01*
X801150Y90164D01*
X801150Y91876D01*
X800707Y93529D01*
X799851Y95011D01*
X798641Y96221D01*
X797159Y97077D01*
X795506Y97520D01*
X795506Y97520D02*
G37*
G36*
X423201Y103500D02*
X421489Y103500D01*
X419836Y103057D01*
X418354Y102201D01*
X417144Y100991D01*
X416288Y99509D01*
X415845Y97856D01*
X415845Y96144D01*
X416288Y94491D01*
X417144Y93009D01*
X418354Y91799D01*
X419836Y90943D01*
X421489Y90500D01*
X423201Y90500D01*
X424854Y90943D01*
X426336Y91799D01*
X427546Y93009D01*
X428402Y94491D01*
X428845Y96144D01*
X428845Y97856D01*
X428402Y99509D01*
X427546Y100991D01*
X426336Y102201D01*
X424854Y103057D01*
X423201Y103500D01*
X423201Y103500D02*
G37*
G36*
X740506Y97520D02*
X738794Y97520D01*
X737141Y97077D01*
X735659Y96221D01*
X734449Y95011D01*
X733593Y93529D01*
X733150Y91876D01*
X733150Y90164D01*
X733593Y88511D01*
X734449Y87029D01*
X735659Y85819D01*
X737141Y84963D01*
X738794Y84520D01*
X740506Y84520D01*
X742159Y84963D01*
X743641Y85819D01*
X744851Y87029D01*
X745707Y88511D01*
X746150Y90164D01*
X746150Y91876D01*
X745707Y93529D01*
X744851Y95011D01*
X743641Y96221D01*
X742159Y97077D01*
X740506Y97520D01*
X740506Y97520D02*
G37*
G36*
X273856Y78097D02*
X272144Y78097D01*
X270491Y77654D01*
X269009Y76798D01*
X267799Y75588D01*
X266943Y74106D01*
X266500Y72452D01*
X266500Y70741D01*
X266943Y69088D01*
X267799Y67606D01*
X269009Y66395D01*
X270491Y65540D01*
X272144Y65097D01*
X273856Y65097D01*
X275509Y65540D01*
X276991Y66395D01*
X278201Y67606D01*
X279057Y69088D01*
X279500Y70741D01*
X279500Y72452D01*
X279057Y74106D01*
X278201Y75588D01*
X276991Y76798D01*
X275509Y77654D01*
X273856Y78097D01*
X273856Y78097D02*
G37*
G36*
X212099Y108333D02*
X210387Y108333D01*
X208734Y107890D01*
X207252Y107034D01*
X206041Y105824D01*
X205186Y104342D01*
X204743Y102689D01*
X204743Y100977D01*
X205186Y99324D01*
X206041Y97842D01*
X206193Y97690D01*
X207061Y96333D01*
X206193Y94976D01*
X206041Y94824D01*
X205186Y93342D01*
X204743Y91688D01*
X204743Y89977D01*
X205186Y88324D01*
X206041Y86842D01*
X206197Y86686D01*
X206938Y85631D01*
X205727Y84420D01*
X204872Y82938D01*
X204429Y81285D01*
X204429Y79574D01*
X204872Y77920D01*
X205727Y76438D01*
X206938Y75228D01*
X208420Y74372D01*
X210073Y73929D01*
X211784Y73929D01*
X213438Y74372D01*
X214920Y75228D01*
X216130Y76438D01*
X216986Y77920D01*
X217429Y79574D01*
X217429Y81285D01*
X216986Y82938D01*
X216130Y84420D01*
X215974Y84576D01*
X215974Y84576D01*
X215234Y85632D01*
X216444Y86842D01*
X217300Y88324D01*
X217500Y89071D01*
X219500Y88808D01*
X219500Y71416D01*
X212263Y64179D01*
X172568Y64179D01*
X172318Y64212D01*
X171903Y64323D01*
X171473Y64323D01*
X171047Y64379D01*
X170622Y64323D01*
X170192Y64323D01*
X169776Y64212D01*
X169350Y64156D01*
X168954Y63991D01*
X168538Y63880D01*
X168166Y63665D01*
X167769Y63501D01*
X167428Y63239D01*
X167056Y63024D01*
X166752Y62720D01*
X166412Y62459D01*
X166150Y62118D01*
X165846Y61814D01*
X165631Y61442D01*
X165370Y61101D01*
X165205Y60704D01*
X164990Y60332D01*
X164879Y59917D01*
X164715Y59520D01*
X164659Y59094D01*
X164547Y58679D01*
X164547Y58249D01*
X164491Y57823D01*
X164547Y57397D01*
X164547Y56967D01*
X164659Y56552D01*
X164715Y56126D01*
X164879Y55729D01*
X164990Y55314D01*
X165205Y54942D01*
X165370Y54545D01*
X165631Y54204D01*
X165846Y53832D01*
X166150Y53528D01*
X166412Y53187D01*
X166612Y52987D01*
X166612Y52987D01*
X166812Y52786D01*
X167238Y52460D01*
X166559Y50460D01*
X154802Y50460D01*
X154047Y51215D01*
X154047Y65644D01*
X167500Y65644D01*
X167500Y96644D01*
X129500Y96644D01*
X129500Y65644D01*
X142952Y65644D01*
X142952Y48917D01*
X143141Y47481D01*
X143696Y46143D01*
X144577Y44994D01*
X147650Y41921D01*
X146822Y39921D01*
X111564Y39921D01*
X111162Y40323D01*
X109680Y41179D01*
X108027Y41622D01*
X106315Y41622D01*
X104662Y41179D01*
X103180Y40323D01*
X101970Y39113D01*
X101114Y37631D01*
X100671Y35978D01*
X100671Y34266D01*
X101114Y32613D01*
X101970Y31131D01*
X103180Y29921D01*
X104662Y29065D01*
X106315Y28622D01*
X108027Y28622D01*
X109680Y29065D01*
X111162Y29921D01*
X111986Y30745D01*
X223514Y30745D01*
X225270Y31094D01*
X226758Y32089D01*
X241000Y46330D01*
X243000Y45502D01*
X243000Y45275D01*
X243443Y43622D01*
X244299Y42140D01*
X245509Y40930D01*
X246991Y40074D01*
X248644Y39631D01*
X250356Y39631D01*
X252009Y40074D01*
X253491Y40930D01*
X254701Y42140D01*
X255557Y43622D01*
X256000Y45275D01*
X256000Y46987D01*
X255557Y48640D01*
X254701Y50122D01*
X253491Y51332D01*
X252250Y52049D01*
X251913Y52624D01*
X251526Y54388D01*
X252061Y55314D01*
X252504Y56967D01*
X252504Y58679D01*
X252061Y60332D01*
X251205Y61814D01*
X249995Y63024D01*
X248921Y63644D01*
X249267Y65644D01*
X257500Y65644D01*
X257500Y96644D01*
X219500Y96644D01*
X219500Y92858D01*
X217500Y92594D01*
X217300Y93342D01*
X216444Y94824D01*
X216292Y94976D01*
X216147Y95202D01*
X215425Y96333D01*
X215425Y96333D01*
X215425Y96333D01*
X216292Y97690D01*
X216444Y97842D01*
X217300Y99324D01*
X217743Y100977D01*
X217743Y102689D01*
X217300Y104342D01*
X216444Y105824D01*
X215234Y107034D01*
X213752Y107890D01*
X212099Y108333D01*
X212099Y108333D02*
G37*
G36*
X308983Y61413D02*
X307272Y61413D01*
X305618Y60970D01*
X304136Y60115D01*
X302926Y58905D01*
X302070Y57422D01*
X301627Y55769D01*
X301627Y54058D01*
X302070Y52404D01*
X302926Y50922D01*
X304136Y49712D01*
X305618Y48856D01*
X307272Y48413D01*
X308983Y48413D01*
X310636Y48856D01*
X312118Y49712D01*
X313329Y50922D01*
X314184Y52404D01*
X314627Y54058D01*
X314627Y55769D01*
X314184Y57422D01*
X313329Y58905D01*
X312118Y60115D01*
X310636Y60970D01*
X308983Y61413D01*
X308983Y61413D02*
G37*
G36*
X370010Y60941D02*
X368298Y60941D01*
X366645Y60498D01*
X365163Y59643D01*
X363952Y58432D01*
X363097Y56950D01*
X362654Y55297D01*
X362654Y53586D01*
X363097Y51933D01*
X363952Y50450D01*
X365163Y49240D01*
X366645Y48384D01*
X368298Y47941D01*
X370010Y47941D01*
X371663Y48384D01*
X373145Y49240D01*
X374355Y50450D01*
X375211Y51933D01*
X375654Y53586D01*
X375654Y55297D01*
X375211Y56950D01*
X374355Y58432D01*
X373145Y59643D01*
X371663Y60498D01*
X370010Y60941D01*
X370010Y60941D02*
G37*
G36*
X673090Y70117D02*
X663340Y70117D01*
X661284Y69847D01*
X659368Y69053D01*
X657723Y67791D01*
X656461Y66146D01*
X655667Y64230D01*
X655397Y62174D01*
X655397Y52424D01*
X655667Y50369D01*
X656461Y48453D01*
X657723Y46808D01*
X659368Y45546D01*
X661284Y44752D01*
X663340Y44482D01*
X673090Y44482D01*
X675145Y44752D01*
X677061Y45546D01*
X678706Y46808D01*
X679968Y48453D01*
X680762Y50369D01*
X681033Y52424D01*
X681033Y62174D01*
X680762Y64230D01*
X679968Y66146D01*
X678706Y67791D01*
X677061Y69053D01*
X675145Y69847D01*
X673090Y70117D01*
X673090Y70117D02*
G37*
G36*
X133514Y56697D02*
X131803Y56697D01*
X130150Y56254D01*
X128667Y55398D01*
X127457Y54188D01*
X126602Y52706D01*
X126159Y51053D01*
X126159Y49341D01*
X126602Y47688D01*
X127457Y46206D01*
X128667Y44996D01*
X130150Y44140D01*
X131803Y43697D01*
X133514Y43697D01*
X135168Y44140D01*
X136650Y44996D01*
X137860Y46206D01*
X138716Y47688D01*
X139159Y49341D01*
X139159Y51053D01*
X138716Y52706D01*
X137860Y54188D01*
X136650Y55398D01*
X135168Y56254D01*
X133514Y56697D01*
X133514Y56697D02*
G37*
G36*
X631856Y54779D02*
X630144Y54779D01*
X628491Y54336D01*
X627009Y53481D01*
X625799Y52270D01*
X624943Y50788D01*
X624500Y49135D01*
X624500Y47423D01*
X624943Y45770D01*
X625799Y44288D01*
X627009Y43078D01*
X628491Y42222D01*
X630144Y41779D01*
X631856Y41779D01*
X633509Y42222D01*
X634991Y43078D01*
X636201Y44288D01*
X637057Y45770D01*
X637500Y47423D01*
X637500Y49135D01*
X637057Y50788D01*
X636201Y52270D01*
X634991Y53481D01*
X633509Y54336D01*
X631856Y54779D01*
X631856Y54779D02*
G37*
G36*
X501286Y70250D02*
X499574Y70250D01*
X497921Y69807D01*
X496439Y68951D01*
X495229Y67741D01*
X494373Y66259D01*
X493930Y64606D01*
X493930Y62894D01*
X494373Y61241D01*
X495229Y59759D01*
X495238Y59749D01*
X495229Y59739D01*
X494373Y58257D01*
X493930Y56604D01*
X493930Y54893D01*
X494373Y53239D01*
X495229Y51757D01*
X495451Y51535D01*
X495229Y51313D01*
X494373Y49831D01*
X493930Y48178D01*
X493930Y46466D01*
X494373Y44813D01*
X495229Y43331D01*
X495624Y42936D01*
X495215Y42527D01*
X494359Y41045D01*
X493916Y39391D01*
X493916Y37680D01*
X494359Y36027D01*
X495215Y34545D01*
X496425Y33334D01*
X497907Y32479D01*
X499560Y32036D01*
X501272Y32036D01*
X502925Y32479D01*
X504407Y33334D01*
X504743Y33670D01*
X504979Y33434D01*
X506461Y32579D01*
X508115Y32136D01*
X509826Y32136D01*
X511479Y32579D01*
X512962Y33434D01*
X513265Y33738D01*
X513569Y33434D01*
X515051Y32579D01*
X516704Y32136D01*
X518416Y32136D01*
X520069Y32579D01*
X521551Y33434D01*
X522761Y34645D01*
X523617Y36127D01*
X524060Y37780D01*
X524060Y39492D01*
X523990Y39753D01*
X525623Y41385D01*
X525788Y41341D01*
X527499Y41341D01*
X529152Y41784D01*
X530634Y42640D01*
X531030Y43035D01*
X531439Y42626D01*
X532921Y41771D01*
X534574Y41328D01*
X536286Y41328D01*
X537939Y41771D01*
X539421Y42626D01*
X540631Y43836D01*
X541487Y45319D01*
X541930Y46972D01*
X541930Y48683D01*
X541487Y50336D01*
X540631Y51818D01*
X539421Y53029D01*
X537939Y53885D01*
X536286Y54328D01*
X534574Y54328D01*
X532921Y53885D01*
X531439Y53029D01*
X531044Y52634D01*
X530634Y53043D01*
X529152Y53898D01*
X527499Y54341D01*
X525788Y54341D01*
X524135Y53898D01*
X522652Y53043D01*
X521899Y52289D01*
X521565Y52623D01*
X520083Y53479D01*
X518430Y53922D01*
X516718Y53922D01*
X515065Y53479D01*
X513583Y52623D01*
X513279Y52320D01*
X512975Y52623D01*
X511493Y53479D01*
X509840Y53922D01*
X508740Y53922D01*
X507773Y54441D01*
X506930Y55672D01*
X506930Y56604D01*
X506487Y58257D01*
X505631Y59739D01*
X505621Y59749D01*
X505631Y59759D01*
X506487Y61241D01*
X506930Y62894D01*
X506930Y64606D01*
X506487Y66259D01*
X505631Y67741D01*
X504421Y68951D01*
X502939Y69807D01*
X501286Y70250D01*
X501286Y70250D02*
G37*
G36*
X314098Y45447D02*
X312387Y45447D01*
X310734Y45004D01*
X309251Y44148D01*
X308041Y42938D01*
X307186Y41456D01*
X306743Y39803D01*
X306743Y38091D01*
X307186Y36438D01*
X308041Y34956D01*
X309251Y33746D01*
X310734Y32890D01*
X312387Y32447D01*
X314098Y32447D01*
X315751Y32890D01*
X317234Y33746D01*
X318444Y34956D01*
X319300Y36438D01*
X319743Y38091D01*
X319743Y39803D01*
X319300Y41456D01*
X318444Y42938D01*
X317234Y44148D01*
X315751Y45004D01*
X314098Y45447D01*
X314098Y45447D02*
G37*
G36*
X298576Y45261D02*
X296864Y45261D01*
X295211Y44818D01*
X293729Y43962D01*
X292519Y42752D01*
X291663Y41269D01*
X291220Y39616D01*
X291220Y37905D01*
X291663Y36252D01*
X292519Y34769D01*
X293729Y33559D01*
X295211Y32703D01*
X296864Y32260D01*
X298576Y32260D01*
X300229Y32703D01*
X301711Y33559D01*
X302921Y34769D01*
X303777Y36252D01*
X304220Y37905D01*
X304220Y39616D01*
X303777Y41269D01*
X302921Y42752D01*
X301711Y43962D01*
X300229Y44818D01*
X298576Y45261D01*
X298576Y45261D02*
G37*
G36*
X901326Y56000D02*
X898174Y56000D01*
X895083Y55385D01*
X892171Y54179D01*
X889551Y52428D01*
X887322Y50199D01*
X885571Y47579D01*
X884365Y44667D01*
X883750Y41576D01*
X883750Y38424D01*
X884365Y35333D01*
X885571Y32421D01*
X887322Y29801D01*
X889551Y27572D01*
X892171Y25821D01*
X895083Y24615D01*
X898174Y24000D01*
X901326Y24000D01*
X904417Y24615D01*
X907329Y25821D01*
X909949Y27572D01*
X912178Y29801D01*
X913929Y32421D01*
X915135Y35333D01*
X915750Y38424D01*
X915750Y41576D01*
X915135Y44667D01*
X913929Y47579D01*
X912178Y50199D01*
X909949Y52428D01*
X907329Y54179D01*
X904417Y55385D01*
X901326Y56000D01*
X901326Y56000D02*
G37*
G36*
X68566Y56000D02*
X65414Y56000D01*
X62323Y55385D01*
X59411Y54179D01*
X56791Y52428D01*
X54562Y50199D01*
X52811Y47579D01*
X51605Y44667D01*
X50990Y41576D01*
X50990Y38424D01*
X51605Y35333D01*
X52811Y32421D01*
X54562Y29801D01*
X56791Y27572D01*
X59411Y25821D01*
X62323Y24615D01*
X65414Y24000D01*
X68566Y24000D01*
X71657Y24615D01*
X74569Y25821D01*
X77189Y27572D01*
X79418Y29801D01*
X81169Y32421D01*
X82375Y35333D01*
X82990Y38424D01*
X82990Y41576D01*
X82375Y44667D01*
X81169Y47579D01*
X79418Y50199D01*
X77189Y52428D01*
X74569Y54179D01*
X71657Y55385D01*
X68566Y56000D01*
X68566Y56000D02*
G37*
G36*
X450206Y24717D02*
X448495Y24717D01*
X446842Y24274D01*
X445360Y23418D01*
X444150Y22208D01*
X443294Y20726D01*
X442851Y19073D01*
X442851Y17361D01*
X443294Y15708D01*
X444150Y14226D01*
X445360Y13016D01*
X446842Y12160D01*
X448495Y11717D01*
X450206Y11717D01*
X451860Y12160D01*
X453342Y13016D01*
X454552Y14226D01*
X455408Y15708D01*
X455851Y17361D01*
X455851Y19073D01*
X455408Y20726D01*
X454552Y22208D01*
X453342Y23418D01*
X451860Y24274D01*
X450206Y24717D01*
X450206Y24717D02*
G37*
G36*
X556924Y23372D02*
X555212Y23372D01*
X553559Y22929D01*
X552077Y22073D01*
X550867Y20863D01*
X550011Y19380D01*
X549568Y17727D01*
X549568Y16016D01*
X550011Y14363D01*
X550867Y12880D01*
X552077Y11670D01*
X553559Y10814D01*
X555212Y10372D01*
X556924Y10372D01*
X558577Y10814D01*
X560059Y11670D01*
X561269Y12880D01*
X562125Y14363D01*
X562568Y16016D01*
X562568Y17727D01*
X562125Y19380D01*
X561269Y20863D01*
X560059Y22073D01*
X558577Y22929D01*
X556924Y23372D01*
X556924Y23372D02*
G37*
G36*
X538096Y23372D02*
X536384Y23372D01*
X534731Y22929D01*
X533249Y22073D01*
X532039Y20863D01*
X531183Y19380D01*
X530740Y17727D01*
X530740Y16016D01*
X531183Y14363D01*
X532039Y12880D01*
X533249Y11670D01*
X534731Y10814D01*
X536384Y10372D01*
X538096Y10372D01*
X539749Y10814D01*
X541231Y11670D01*
X542441Y12880D01*
X543297Y14363D01*
X543740Y16016D01*
X543740Y17727D01*
X543297Y19380D01*
X542441Y20863D01*
X541231Y22073D01*
X539749Y22929D01*
X538096Y23372D01*
X538096Y23372D02*
G37*
G36*
X380090Y20959D02*
X378379Y20959D01*
X376725Y20517D01*
X375243Y19661D01*
X374033Y18451D01*
X373177Y16968D01*
X372734Y15315D01*
X372734Y13604D01*
X373177Y11951D01*
X374033Y10468D01*
X375243Y9258D01*
X376725Y8403D01*
X378379Y7959D01*
X380090Y7959D01*
X381743Y8403D01*
X383225Y9258D01*
X384436Y10468D01*
X385291Y11951D01*
X385734Y13604D01*
X385734Y15315D01*
X385291Y16968D01*
X384436Y18451D01*
X383225Y19661D01*
X381743Y20517D01*
X380090Y20959D01*
X380090Y20959D02*
G37*
%LPD*%
G36*
X823202Y285574D02*
X823202Y260500D01*
X748150Y260500D01*
X748150Y286419D01*
X822357Y286419D01*
X823202Y285574D01*
X823202Y285574D02*
G37*
%LPC*%
G36*
X2592580Y-1602743D02*
X2591874Y-1602743D01*
X2591028Y-1603025D01*
X2590181Y-1603307D01*
X2589193Y-1603872D01*
X2588488Y-1604577D01*
X2587923Y-1605706D01*
X2587641Y-1607258D01*
X2587641Y-1607399D01*
X2587641Y-1607540D01*
X2587782Y-1608387D01*
X2588206Y-1609516D01*
X2589052Y-1610786D01*
X2589334Y-1611068D01*
X2590040Y-1611491D01*
X2591169Y-1611914D01*
X2592580Y-1612197D01*
X2592721Y-1612197D01*
X2593285Y-1612056D01*
X2593990Y-1611914D01*
X2594978Y-1611632D01*
X2595825Y-1610927D01*
X2596530Y-1610080D01*
X2597095Y-1608951D01*
X2597236Y-1607258D01*
X2597236Y-1607117D01*
X2597236Y-1606553D01*
X2596954Y-1605847D01*
X2596671Y-1605001D01*
X2596107Y-1604154D01*
X2595261Y-1603449D01*
X2594132Y-1602884D01*
X2592580Y-1602743D01*
X2592580Y-1602743D02*
G37*
%LPD*%
G36*
X2593849Y-1604295D02*
X2594555Y-1604860D01*
X2594837Y-1605283D01*
X2594978Y-1605988D01*
X2594978Y-1606129D01*
X2594978Y-1606270D01*
X2594837Y-1606976D01*
X2594273Y-1607540D01*
X2593849Y-1607823D01*
X2593285Y-1607964D01*
X2595119Y-1610786D01*
X2593990Y-1610786D01*
X2592297Y-1607964D01*
X2591169Y-1607964D01*
X2591169Y-1610786D01*
X2590181Y-1610786D01*
X2590181Y-1604013D01*
X2593003Y-1604013D01*
X2593849Y-1604295D01*
X2593849Y-1604295D02*
G37*
%LPC*%
G36*
X2592862Y-1605001D02*
X2591169Y-1605001D01*
X2591169Y-1607117D01*
X2593003Y-1607117D01*
X2593426Y-1606976D01*
X2593708Y-1606694D01*
X2593849Y-1605988D01*
X2593849Y-1605847D01*
X2593708Y-1605424D01*
X2593426Y-1605142D01*
X2592862Y-1605001D01*
X2592862Y-1605001D02*
G37*
G36*
X2536000Y-1616571D02*
X2535576Y-1616571D01*
X2535012Y-1616712D01*
X2534448Y-1616994D01*
X2533742Y-1617417D01*
X2532896Y-1617982D01*
X2532049Y-1618687D01*
X2531203Y-1619816D01*
X2522313Y-1632374D01*
X2549263Y-1675126D01*
X2549404Y-1675267D01*
X2549686Y-1675690D01*
X2550110Y-1676396D01*
X2550674Y-1676960D01*
X2551379Y-1677666D01*
X2552226Y-1678371D01*
X2552931Y-1678794D01*
X2553778Y-1678936D01*
X2554201Y-1678936D01*
X2554766Y-1678794D01*
X2555330Y-1678512D01*
X2556035Y-1678230D01*
X2556882Y-1677807D01*
X2557729Y-1677101D01*
X2558434Y-1676114D01*
X2567888Y-1662568D01*
X2540797Y-1619957D01*
X2540656Y-1619816D01*
X2540374Y-1619393D01*
X2539951Y-1618828D01*
X2539386Y-1618264D01*
X2538681Y-1617699D01*
X2537834Y-1617135D01*
X2536987Y-1616712D01*
X2536000Y-1616571D01*
X2536000Y-1616571D02*
G37*
G36*
X2687679Y-1720136D02*
X2673993Y-1720136D01*
X2673993Y-1728884D01*
X2688526Y-1728884D01*
X2688808Y-1728743D01*
X2689231Y-1728461D01*
X2689655Y-1728037D01*
X2690078Y-1727332D01*
X2690219Y-1726485D01*
X2690360Y-1725356D01*
X2690360Y-1723945D01*
X2690360Y-1723804D01*
X2690360Y-1723381D01*
X2690219Y-1722676D01*
X2690078Y-1721970D01*
X2689655Y-1721406D01*
X2689231Y-1720700D01*
X2688526Y-1720277D01*
X2687679Y-1720136D01*
X2687679Y-1720136D02*
G37*
G36*
X2532613Y-1720136D02*
X2520056Y-1720136D01*
X2520056Y-1728743D01*
X2533742Y-1728743D01*
X2534165Y-1728602D01*
X2534730Y-1728320D01*
X2535294Y-1727896D01*
X2535718Y-1727191D01*
X2536000Y-1726344D01*
X2536141Y-1725074D01*
X2536141Y-1723945D01*
X2536141Y-1723804D01*
X2536141Y-1723381D01*
X2536000Y-1722676D01*
X2535718Y-1721970D01*
X2535294Y-1721406D01*
X2534589Y-1720700D01*
X2533742Y-1720277D01*
X2532613Y-1720136D01*
X2532613Y-1720136D02*
G37*
G36*
X2568593Y-1720136D02*
X2558999Y-1720136D01*
X2558152Y-1720277D01*
X2557023Y-1720841D01*
X2556459Y-1721124D01*
X2556035Y-1721688D01*
X2555894Y-1721970D01*
X2555753Y-1722393D01*
X2555471Y-1722958D01*
X2555330Y-1723663D01*
X2555048Y-1724651D01*
X2554907Y-1725780D01*
X2554907Y-1727191D01*
X2554907Y-1731000D01*
X2554907Y-1731141D01*
X2554907Y-1731706D01*
X2554907Y-1732270D01*
X2555048Y-1733117D01*
X2555189Y-1734951D01*
X2555330Y-1735798D01*
X2555612Y-1736503D01*
X2555753Y-1736785D01*
X2556318Y-1737209D01*
X2557305Y-1737632D01*
X2558011Y-1737914D01*
X2568311Y-1737914D01*
X2568875Y-1737773D01*
X2569581Y-1737491D01*
X2570428Y-1737068D01*
X2571274Y-1736221D01*
X2571979Y-1734951D01*
X2572262Y-1734245D01*
X2572544Y-1733258D01*
X2572685Y-1732270D01*
X2572685Y-1731000D01*
X2572685Y-1727191D01*
X2572685Y-1727050D01*
X2572685Y-1726485D01*
X2572685Y-1725921D01*
X2572544Y-1725074D01*
X2572121Y-1723240D01*
X2571697Y-1722393D01*
X2571274Y-1721688D01*
X2571274Y-1721547D01*
X2570992Y-1721406D01*
X2570286Y-1720841D01*
X2569299Y-1720418D01*
X2568593Y-1720136D01*
X2568593Y-1720136D02*
G37*
%LPD*%
D10*
X2420000Y-1321383D02*
X2418001Y-1319384D01*
X2414002Y-1319384D01*
X2412003Y-1321383D01*
X2412003Y-1329381D01*
X2414002Y-1331380D01*
X2418001Y-1331380D01*
X2420000Y-1329381D01*
X2420000Y-1321383D01*
X2402006Y-1331380D02*
X2402006Y-1319384D01*
X2408004Y-1325382D01*
X2400007Y-1325382D01*
X2396008Y-1325382D02*
X2388010Y-1325382D01*
X2384012Y-1321383D02*
X2376014Y-1329381D01*
X2384012Y-1329381D02*
X2376014Y-1321383D01*
X2384012Y-1325382D02*
X2376014Y-1325382D01*
X2380013Y-1329381D02*
X2380013Y-1321383D01*
X2372016Y-1321383D02*
X2364018Y-1329381D01*
X2372016Y-1329381D02*
X2364018Y-1321383D01*
X2372016Y-1325382D02*
X2364018Y-1325382D01*
X2368017Y-1329381D02*
X2368017Y-1321383D01*
X2360019Y-1325382D02*
X2352022Y-1325382D01*
X2348023Y-1331380D02*
X2348023Y-1319384D01*
X2342025Y-1319384D01*
X2340026Y-1321383D01*
X2340026Y-1325382D01*
X2342025Y-1327381D01*
X2348023Y-1327381D01*
X2344025Y-1327381D02*
X2340026Y-1331380D01*
X2336027Y-1321383D02*
X2328030Y-1329381D01*
X2336027Y-1329381D02*
X2328030Y-1321383D01*
X2336027Y-1325382D02*
X2328030Y-1325382D01*
X2332029Y-1329381D02*
X2332029Y-1321383D01*
X2324031Y-1321383D02*
X2316034Y-1329381D01*
X2324031Y-1329381D02*
X2316034Y-1321383D01*
X2324031Y-1325382D02*
X2316034Y-1325382D01*
X2320032Y-1329381D02*
X2320032Y-1321383D01*
X3373571Y-1593883D02*
X3373571Y-1602453D01*
X3370000Y-1596025D02*
X3377142Y-1600310D01*
X3377142Y-1596025D02*
X3370000Y-1600310D01*
X3383783Y-1593883D02*
X3383783Y-1602453D01*
X3380212Y-1596025D02*
X3387354Y-1600310D01*
X3387354Y-1596025D02*
X3380212Y-1600310D01*
D11*
X3310000Y-1840580D02*
X3310000Y-1796380D01*
X3000000Y-1840580D02*
X3000000Y-1676380D01*
X3180000Y-1796380D02*
X3180000Y-1736380D01*
X3385000Y-1840580D02*
X3385000Y-1736380D01*
X2380000Y-1840580D02*
X2380000Y-1586380D01*
X2720000Y-1840580D02*
X2720000Y-1586380D01*
X3538200Y-1840580D02*
X3538200Y-1586380D01*
X2380000Y-1840580D02*
X3538200Y-1840580D01*
X2720000Y-1796380D02*
X3538200Y-1796380D01*
X2720000Y-1736380D02*
X3538200Y-1736380D01*
X2720000Y-1676380D02*
X3538200Y-1676380D01*
X2380000Y-1586380D02*
X3538200Y-1586380D01*
X2039600Y-1840580D02*
X2395200Y-1840580D01*
X414000Y-1891380D02*
X414000Y-1840580D01*
X-221000Y-1288130D02*
X-170200Y-1288130D01*
X-221000Y-684880D02*
X-170200Y-684880D01*
X-221000Y-81630D02*
X-170200Y-81630D01*
X-170200Y-1840580D02*
X3538200Y-1840580D01*
X-170200Y-1840580D02*
X-170200Y470820D01*
X-221000Y-1891380D02*
X3589000Y-1891380D01*
X-221000Y-1891380D02*
X-221000Y521620D01*
X3538200Y-1840580D02*
X3538200Y-1535780D01*
X1049000Y-1891380D02*
X1049000Y-1840580D01*
X1684000Y-1891380D02*
X1684000Y-1840580D01*
X2319000Y-1891380D02*
X2319000Y-1840580D01*
X2954000Y-1891380D02*
X2954000Y-1840580D01*
X3538200Y-1288130D02*
X3589000Y-1288130D01*
X3538200Y-684880D02*
X3589000Y-684880D01*
X3538200Y-81630D02*
X3589000Y-81630D01*
X3589000Y-1891380D02*
X3589000Y521620D01*
X3538200Y-1840580D02*
X3538200Y470820D01*
X414000Y470820D02*
X414000Y521620D01*
X-221000Y521620D02*
X3589000Y521620D01*
X-170200Y470820D02*
X3538200Y470820D01*
X1049000Y470820D02*
X1049000Y521620D01*
X1684000Y470820D02*
X1684000Y521620D01*
X2319000Y470820D02*
X2319000Y521620D01*
X2954000Y470820D02*
X2954000Y521620D01*
X3010000Y-1799952D02*
X3010000Y-1811380D01*
X3016530Y-1811380D01*
X3026489Y-1811380D02*
X3022135Y-1799952D01*
X3017782Y-1811380D01*
X3019414Y-1807571D02*
X3024856Y-1807571D01*
X3029155Y-1799952D02*
X3033508Y-1805394D01*
X3033508Y-1811380D01*
X3037862Y-1799952D02*
X3033508Y-1805394D01*
X3046405Y-1799952D02*
X3039331Y-1799952D01*
X3039331Y-1811380D01*
X3046405Y-1811380D01*
X3039331Y-1805394D02*
X3043684Y-1805394D01*
X3048310Y-1799952D02*
X3048310Y-1811380D01*
X3048310Y-1799952D02*
X3053207Y-1799952D01*
X3054840Y-1800497D01*
X3055384Y-1801041D01*
X3055928Y-1802129D01*
X3055928Y-1803217D01*
X3055384Y-1804306D01*
X3054840Y-1804850D01*
X3053207Y-1805394D01*
X3048310Y-1805394D01*
X3052119Y-1805394D02*
X3055928Y-1811380D01*
X3067464Y-1799952D02*
X3067464Y-1811380D01*
X3067464Y-1799952D02*
X3075083Y-1811380D01*
X3075083Y-1799952D02*
X3075083Y-1811380D01*
X3086945Y-1811380D02*
X3082592Y-1799952D01*
X3078239Y-1811380D01*
X3079872Y-1807571D02*
X3085313Y-1807571D01*
X3089612Y-1799952D02*
X3089612Y-1811380D01*
X3089612Y-1799952D02*
X3093965Y-1811380D01*
X3098319Y-1799952D02*
X3093965Y-1811380D01*
X3098319Y-1799952D02*
X3098319Y-1811380D01*
X3108658Y-1799952D02*
X3101584Y-1799952D01*
X3101584Y-1811380D01*
X3108658Y-1811380D01*
X3101584Y-1805394D02*
X3105937Y-1805394D01*
X3111107Y-1803761D02*
X3110563Y-1804306D01*
X3111107Y-1804850D01*
X3111651Y-1804306D01*
X3111107Y-1803761D01*
X3111107Y-1810291D02*
X3110563Y-1810836D01*
X3111107Y-1811380D01*
X3111651Y-1810836D01*
X3111107Y-1810291D01*
X3317500Y-1802452D02*
X3317500Y-1813880D01*
X3317500Y-1802452D02*
X3322397Y-1802452D01*
X3324030Y-1802997D01*
X3324574Y-1803541D01*
X3325118Y-1804629D01*
X3325118Y-1805717D01*
X3324574Y-1806806D01*
X3324030Y-1807350D01*
X3322397Y-1807894D01*
X3317500Y-1807894D01*
X3321309Y-1807894D02*
X3325118Y-1813880D01*
X3334750Y-1802452D02*
X3327676Y-1802452D01*
X3327676Y-1813880D01*
X3334750Y-1813880D01*
X3327676Y-1807894D02*
X3332029Y-1807894D01*
X3336655Y-1802452D02*
X3341008Y-1813880D01*
X3345362Y-1802452D02*
X3341008Y-1813880D01*
X3347375Y-1806261D02*
X3346831Y-1806806D01*
X3347375Y-1807350D01*
X3347919Y-1806806D01*
X3347375Y-1806261D01*
X3347375Y-1812791D02*
X3346831Y-1813336D01*
X3347375Y-1813880D01*
X3347919Y-1813336D01*
X3347375Y-1812791D01*
X3397000Y-1744952D02*
X3397000Y-1756380D01*
X3397000Y-1744952D02*
X3400809Y-1744952D01*
X3402442Y-1745497D01*
X3403530Y-1746585D01*
X3404074Y-1747673D01*
X3404619Y-1749306D01*
X3404619Y-1752027D01*
X3404074Y-1753659D01*
X3403530Y-1754747D01*
X3402442Y-1755836D01*
X3400809Y-1756380D01*
X3397000Y-1756380D01*
X3415883Y-1756380D02*
X3411530Y-1744952D01*
X3407176Y-1756380D01*
X3408809Y-1752571D02*
X3414250Y-1752571D01*
X3422358Y-1744952D02*
X3422358Y-1756380D01*
X3418549Y-1744952D02*
X3426168Y-1744952D01*
X3434602Y-1744952D02*
X3427528Y-1744952D01*
X3427528Y-1756380D01*
X3434602Y-1756380D01*
X3427528Y-1750394D02*
X3431881Y-1750394D01*
X3437051Y-1748761D02*
X3436507Y-1749306D01*
X3437051Y-1749850D01*
X3437595Y-1749306D01*
X3437051Y-1748761D01*
X3437051Y-1755291D02*
X3436507Y-1755836D01*
X3437051Y-1756380D01*
X3437595Y-1755836D01*
X3437051Y-1755291D01*
X2733809Y-1599952D02*
X2733809Y-1611380D01*
X2730000Y-1599952D02*
X2737618Y-1599952D01*
X2738979Y-1599952D02*
X2738979Y-1611380D01*
X2745182Y-1599952D02*
X2745182Y-1611380D01*
X2741373Y-1599952D02*
X2748992Y-1599952D01*
X2750352Y-1599952D02*
X2750352Y-1611380D01*
X2756882Y-1611380D01*
X2765208Y-1599952D02*
X2758134Y-1599952D01*
X2758134Y-1611380D01*
X2765208Y-1611380D01*
X2758134Y-1605394D02*
X2762487Y-1605394D01*
X2767657Y-1603761D02*
X2767112Y-1604306D01*
X2767657Y-1604850D01*
X2768201Y-1604306D01*
X2767657Y-1603761D01*
X2767657Y-1610291D02*
X2767112Y-1610836D01*
X2767657Y-1611380D01*
X2768201Y-1610836D01*
X2767657Y-1610291D01*
D12*
X3538200Y380820D02*
X3538200Y470820D01*
X2323200Y470820D02*
X3538200Y470820D01*
X2558200Y380820D02*
X2558200Y425820D01*
X2323200Y425820D02*
X2323200Y470820D01*
X2323200Y425820D02*
X3538200Y425820D01*
X2433200Y425820D02*
X2433200Y470820D01*
X2558200Y425820D02*
X2558200Y470820D01*
X3343200Y425820D02*
X3343200Y470820D01*
X2323200Y380820D02*
X2323200Y425820D01*
X2323200Y380820D02*
X3538200Y380820D01*
X3343200Y380820D02*
X3343200Y425820D01*
X2433200Y380820D02*
X2433200Y425820D01*
X2348200Y440820D02*
X2348200Y456055D01*
X2355818Y456055D01*
X2358357Y453516D01*
X2358357Y448438D01*
X2355818Y445899D01*
X2348200Y445899D01*
X2353279Y445899D02*
X2358357Y440820D01*
X2373592Y456055D02*
X2363435Y456055D01*
X2363435Y440820D01*
X2373592Y440820D01*
X2363435Y448438D02*
X2368514Y448438D01*
X2378670Y456055D02*
X2378670Y445899D01*
X2383749Y440820D01*
X2388827Y445899D01*
X2388827Y456055D01*
X2458357Y456055D02*
X2448200Y456055D01*
X2448200Y440820D01*
X2458357Y440820D01*
X2448200Y448438D02*
X2453279Y448438D01*
X2473592Y453516D02*
X2471053Y456055D01*
X2465974Y456055D01*
X2463435Y453516D01*
X2463435Y443359D01*
X2465974Y440820D01*
X2471053Y440820D01*
X2473592Y443359D01*
X2486288Y456055D02*
X2481210Y456055D01*
X2478670Y453516D01*
X2478670Y443359D01*
X2481210Y440820D01*
X2486288Y440820D01*
X2488827Y443359D01*
X2488827Y453516D01*
X2486288Y456055D01*
X2923357Y448516D02*
X2920818Y451055D01*
X2915739Y451055D01*
X2913200Y448516D01*
X2913200Y438359D01*
X2915739Y435820D01*
X2920818Y435820D01*
X2923357Y438359D01*
X2930974Y435820D02*
X2936053Y435820D01*
X2938592Y438359D01*
X2938592Y443438D01*
X2936053Y445977D01*
X2930974Y445977D01*
X2928435Y443438D01*
X2928435Y438359D01*
X2930974Y435820D01*
X2943670Y435820D02*
X2943670Y445977D01*
X2946209Y445977D01*
X2948748Y443438D01*
X2948748Y435820D01*
X2948748Y443438D01*
X2951288Y445977D01*
X2953827Y443438D01*
X2953827Y435820D01*
X2958905Y435820D02*
X2958905Y445977D01*
X2961444Y445977D01*
X2963984Y443438D01*
X2963984Y435820D01*
X2963984Y443438D01*
X2966523Y445977D01*
X2969062Y443438D01*
X2969062Y435820D01*
X2981758Y435820D02*
X2976680Y435820D01*
X2974140Y438359D01*
X2974140Y443438D01*
X2976680Y445977D01*
X2981758Y445977D01*
X2984297Y443438D01*
X2984297Y440899D01*
X2974140Y440899D01*
X2989376Y435820D02*
X2989376Y445977D01*
X2996993Y445977D01*
X2999532Y443438D01*
X2999532Y435820D01*
X3007150Y448516D02*
X3007150Y445977D01*
X3004611Y445977D01*
X3009689Y445977D01*
X3007150Y445977D01*
X3007150Y438359D01*
X3009689Y435820D01*
X3017307Y435820D02*
X3024924Y435820D01*
X3027463Y438359D01*
X3024924Y440899D01*
X3019846Y440899D01*
X3017307Y443438D01*
X3019846Y445977D01*
X3027463Y445977D01*
X3393200Y451055D02*
X3393200Y435820D01*
X3400818Y435820D01*
X3403357Y438359D01*
X3403357Y448516D01*
X3400818Y451055D01*
X3393200Y451055D01*
X3410974Y445977D02*
X3416053Y445977D01*
X3418592Y443438D01*
X3418592Y435820D01*
X3410974Y435820D01*
X3408435Y438359D01*
X3410974Y440899D01*
X3418592Y440899D01*
X3426209Y448516D02*
X3426209Y445977D01*
X3423670Y445977D01*
X3428748Y445977D01*
X3426209Y445977D01*
X3426209Y438359D01*
X3428748Y435820D01*
X3443984Y435820D02*
X3438905Y435820D01*
X3436366Y438359D01*
X3436366Y443438D01*
X3438905Y445977D01*
X3443984Y445977D01*
X3446523Y443438D01*
X3446523Y440899D01*
X3436366Y440899D01*
D14*
X3360349Y-1817106D02*
X3360349Y-1825676D01*
X3356778Y-1819249D02*
X3363919Y-1823533D01*
X3363919Y-1819249D02*
X3356778Y-1823533D01*
X3370561Y-1817106D02*
X3370561Y-1825676D01*
X3366990Y-1819249D02*
X3374131Y-1823533D01*
X3374131Y-1819249D02*
X3366990Y-1823533D01*
X3360349Y-1817106D02*
X3360349Y-1825676D01*
X3356778Y-1819249D02*
X3363919Y-1823533D01*
X3363919Y-1819249D02*
X3356778Y-1823533D01*
X3370561Y-1817106D02*
X3370561Y-1825676D01*
X3366990Y-1819249D02*
X3374131Y-1823533D01*
X3374131Y-1819249D02*
X3366990Y-1823533D01*
X3360349Y-1817106D02*
X3360349Y-1825676D01*
X3356778Y-1819249D02*
X3363919Y-1823533D01*
X3363919Y-1819249D02*
X3356778Y-1823533D01*
X3370561Y-1817106D02*
X3370561Y-1825676D01*
X3366990Y-1819249D02*
X3374131Y-1823533D01*
X3374131Y-1819249D02*
X3366990Y-1823533D01*
X2733809Y-1710383D02*
X2733809Y-1719524D01*
X2730000Y-1712668D02*
X2737617Y-1717239D01*
X2737617Y-1712668D02*
X2730000Y-1717239D01*
X2744702Y-1710383D02*
X2744702Y-1719524D01*
X2740893Y-1712668D02*
X2748510Y-1717239D01*
X2748510Y-1712668D02*
X2740893Y-1717239D01*
X2432697Y-1817836D02*
X2431851Y-1816143D01*
X2430158Y-1814450D01*
X2428465Y-1813604D01*
X2425079Y-1813604D01*
X2423386Y-1814450D01*
X2421693Y-1816143D01*
X2420847Y-1817836D01*
X2420000Y-1820376D01*
X2420000Y-1824608D01*
X2420847Y-1827148D01*
X2421693Y-1828840D01*
X2423386Y-1830533D01*
X2425079Y-1831380D01*
X2428465Y-1831380D01*
X2430158Y-1830533D01*
X2431851Y-1828840D01*
X2432697Y-1827148D01*
X2437692Y-1813604D02*
X2437692Y-1831380D01*
X2437692Y-1822915D02*
X2440231Y-1820376D01*
X2441924Y-1819529D01*
X2444464Y-1819529D01*
X2446156Y-1820376D01*
X2447003Y-1822915D01*
X2447003Y-1831380D01*
X2461817Y-1819529D02*
X2461817Y-1831380D01*
X2461817Y-1822068D02*
X2460123Y-1820376D01*
X2458431Y-1819529D01*
X2455891Y-1819529D01*
X2454198Y-1820376D01*
X2452505Y-1822068D01*
X2451659Y-1824608D01*
X2451659Y-1826301D01*
X2452505Y-1828840D01*
X2454198Y-1830533D01*
X2455891Y-1831380D01*
X2458431Y-1831380D01*
X2460123Y-1830533D01*
X2461817Y-1828840D01*
X2466557Y-1819529D02*
X2466557Y-1831380D01*
X2466557Y-1822915D02*
X2469096Y-1820376D01*
X2470789Y-1819529D01*
X2473329Y-1819529D01*
X2475022Y-1820376D01*
X2475868Y-1822915D01*
X2475868Y-1831380D01*
X2490682Y-1813604D02*
X2490682Y-1831380D01*
X2490682Y-1822068D02*
X2488989Y-1820376D01*
X2487296Y-1819529D01*
X2484756Y-1819529D01*
X2483063Y-1820376D01*
X2481370Y-1822068D01*
X2480524Y-1824608D01*
X2480524Y-1826301D01*
X2481370Y-1828840D01*
X2483063Y-1830533D01*
X2484756Y-1831380D01*
X2487296Y-1831380D01*
X2488989Y-1830533D01*
X2490682Y-1828840D01*
X2495422Y-1813604D02*
X2495422Y-1831380D01*
X2499147Y-1824608D02*
X2509304Y-1824608D01*
X2509304Y-1822915D01*
X2508458Y-1821222D01*
X2507611Y-1820376D01*
X2505918Y-1819529D01*
X2503379Y-1819529D01*
X2501686Y-1820376D01*
X2499993Y-1822068D01*
X2499147Y-1824608D01*
X2499147Y-1826301D01*
X2499993Y-1828840D01*
X2501686Y-1830533D01*
X2503379Y-1831380D01*
X2505918Y-1831380D01*
X2507611Y-1830533D01*
X2509304Y-1828840D01*
X2513114Y-1819529D02*
X2513114Y-1831380D01*
X2513114Y-1824608D02*
X2513960Y-1822068D01*
X2515653Y-1820376D01*
X2517346Y-1819529D01*
X2519885Y-1819529D01*
X2523187Y-1830533D02*
X2522340Y-1831380D01*
X2521494Y-1830533D01*
X2522340Y-1829687D01*
X2523187Y-1830533D01*
X2523187Y-1832226D01*
X2522340Y-1833919D01*
X2521494Y-1834766D01*
X2554591Y-1831380D02*
X2547819Y-1813604D01*
X2541048Y-1831380D01*
X2543587Y-1825455D02*
X2552052Y-1825455D01*
X2570590Y-1813604D02*
X2558739Y-1831380D01*
X2558739Y-1813604D02*
X2570590Y-1813604D01*
X2558739Y-1831380D02*
X2570590Y-1831380D01*
X2606735Y-1813604D02*
X2604195Y-1814450D01*
X2603349Y-1816143D01*
X2603349Y-1817836D01*
X2604195Y-1819529D01*
X2605888Y-1820376D01*
X2609274Y-1821222D01*
X2611814Y-1822068D01*
X2613506Y-1823761D01*
X2614353Y-1825455D01*
X2614353Y-1827994D01*
X2613506Y-1829687D01*
X2612660Y-1830533D01*
X2610121Y-1831380D01*
X2606735Y-1831380D01*
X2604195Y-1830533D01*
X2603349Y-1829687D01*
X2602502Y-1827994D01*
X2602502Y-1825455D01*
X2603349Y-1823761D01*
X2605042Y-1822068D01*
X2607581Y-1821222D01*
X2610967Y-1820376D01*
X2612660Y-1819529D01*
X2613506Y-1817836D01*
X2613506Y-1816143D01*
X2612660Y-1814450D01*
X2610121Y-1813604D01*
X2606735Y-1813604D01*
X2628489Y-1813604D02*
X2620025Y-1813604D01*
X2619178Y-1821222D01*
X2620025Y-1820376D01*
X2622564Y-1819529D01*
X2625103Y-1819529D01*
X2627643Y-1820376D01*
X2629336Y-1822068D01*
X2630182Y-1824608D01*
X2630182Y-1826301D01*
X2629336Y-1828840D01*
X2627643Y-1830533D01*
X2625103Y-1831380D01*
X2622564Y-1831380D01*
X2620025Y-1830533D01*
X2619178Y-1829687D01*
X2618332Y-1827994D01*
X2635007Y-1817836D02*
X2635007Y-1816990D01*
X2635854Y-1815297D01*
X2636700Y-1814450D01*
X2638393Y-1813604D01*
X2641779Y-1813604D01*
X2643472Y-1814450D01*
X2644319Y-1815297D01*
X2645165Y-1816990D01*
X2645165Y-1818683D01*
X2644319Y-1820376D01*
X2642626Y-1822915D01*
X2634161Y-1831380D01*
X2646012Y-1831380D01*
X2650836Y-1817836D02*
X2650836Y-1816990D01*
X2651683Y-1815297D01*
X2652530Y-1814450D01*
X2654223Y-1813604D01*
X2657609Y-1813604D01*
X2659301Y-1814450D01*
X2660148Y-1815297D01*
X2660994Y-1816990D01*
X2660994Y-1818683D01*
X2660148Y-1820376D01*
X2658455Y-1822915D01*
X2649990Y-1831380D01*
X2661841Y-1831380D01*
X2674284Y-1813604D02*
X2665819Y-1825455D01*
X2678517Y-1825455D01*
X2674284Y-1813604D02*
X2674284Y-1831380D01*
X2410847Y-1792836D02*
X2410847Y-1791990D01*
X2411693Y-1790297D01*
X2412540Y-1789450D01*
X2414233Y-1788604D01*
X2417619Y-1788604D01*
X2419312Y-1789450D01*
X2420158Y-1790297D01*
X2421004Y-1791990D01*
X2421004Y-1793683D01*
X2420158Y-1795376D01*
X2418465Y-1797915D01*
X2410000Y-1806380D01*
X2421851Y-1806380D01*
X2427522Y-1788604D02*
X2436834Y-1788604D01*
X2431755Y-1795376D01*
X2434294Y-1795376D01*
X2435987Y-1796222D01*
X2436834Y-1797068D01*
X2437680Y-1799608D01*
X2437680Y-1801301D01*
X2436834Y-1803840D01*
X2435141Y-1805533D01*
X2432601Y-1806380D01*
X2430062Y-1806380D01*
X2427522Y-1805533D01*
X2426676Y-1804687D01*
X2425829Y-1802994D01*
X2451817Y-1788604D02*
X2443352Y-1788604D01*
X2442505Y-1796222D01*
X2443352Y-1795376D01*
X2445891Y-1794529D01*
X2448431Y-1794529D01*
X2450970Y-1795376D01*
X2452663Y-1797068D01*
X2453510Y-1799608D01*
X2453510Y-1801301D01*
X2452663Y-1803840D01*
X2450970Y-1805533D01*
X2448431Y-1806380D01*
X2445891Y-1806380D01*
X2443352Y-1805533D01*
X2442505Y-1804687D01*
X2441659Y-1802994D01*
X2467646Y-1788604D02*
X2459181Y-1788604D01*
X2458335Y-1796222D01*
X2459181Y-1795376D01*
X2461720Y-1794529D01*
X2464260Y-1794529D01*
X2466799Y-1795376D01*
X2468492Y-1797068D01*
X2469339Y-1799608D01*
X2469339Y-1801301D01*
X2468492Y-1803840D01*
X2466799Y-1805533D01*
X2464260Y-1806380D01*
X2461720Y-1806380D01*
X2459181Y-1805533D01*
X2458335Y-1804687D01*
X2457488Y-1802994D01*
X2487284Y-1788604D02*
X2491517Y-1806380D01*
X2495749Y-1788604D02*
X2491517Y-1806380D01*
X2495749Y-1788604D02*
X2499982Y-1806380D01*
X2504214Y-1788604D02*
X2499982Y-1806380D01*
X2508616Y-1804687D02*
X2507769Y-1805533D01*
X2508616Y-1806380D01*
X2509462Y-1805533D01*
X2508616Y-1804687D01*
X2540020Y-1792836D02*
X2539174Y-1791143D01*
X2537481Y-1789450D01*
X2535788Y-1788604D01*
X2532402Y-1788604D01*
X2530709Y-1789450D01*
X2529016Y-1791143D01*
X2528170Y-1792836D01*
X2527323Y-1795376D01*
X2527323Y-1799608D01*
X2528170Y-1802147D01*
X2529016Y-1803840D01*
X2530709Y-1805533D01*
X2532402Y-1806380D01*
X2535788Y-1806380D01*
X2537481Y-1805533D01*
X2539174Y-1803840D01*
X2540020Y-1802147D01*
X2545014Y-1788604D02*
X2545014Y-1806380D01*
X2545014Y-1797915D02*
X2547554Y-1795376D01*
X2549247Y-1794529D01*
X2551786Y-1794529D01*
X2553479Y-1795376D01*
X2554326Y-1797915D01*
X2554326Y-1806380D01*
X2569139Y-1794529D02*
X2569139Y-1806380D01*
X2569139Y-1797068D02*
X2567446Y-1795376D01*
X2565753Y-1794529D01*
X2563214Y-1794529D01*
X2561521Y-1795376D01*
X2559828Y-1797068D01*
X2558981Y-1799608D01*
X2558981Y-1801301D01*
X2559828Y-1803840D01*
X2561521Y-1805533D01*
X2563214Y-1806380D01*
X2565753Y-1806380D01*
X2567446Y-1805533D01*
X2569139Y-1803840D01*
X2573880Y-1794529D02*
X2573880Y-1806380D01*
X2573880Y-1797915D02*
X2576419Y-1795376D01*
X2578112Y-1794529D01*
X2580652Y-1794529D01*
X2582344Y-1795376D01*
X2583191Y-1797915D01*
X2583191Y-1806380D01*
X2598004Y-1788604D02*
X2598004Y-1806380D01*
X2598004Y-1797068D02*
X2596312Y-1795376D01*
X2594619Y-1794529D01*
X2592079Y-1794529D01*
X2590386Y-1795376D01*
X2588693Y-1797068D01*
X2587847Y-1799608D01*
X2587847Y-1801301D01*
X2588693Y-1803840D01*
X2590386Y-1805533D01*
X2592079Y-1806380D01*
X2594619Y-1806380D01*
X2596312Y-1805533D01*
X2598004Y-1803840D01*
X2602745Y-1788604D02*
X2602745Y-1806380D01*
X2606469Y-1799608D02*
X2616627Y-1799608D01*
X2616627Y-1797915D01*
X2615781Y-1796222D01*
X2614934Y-1795376D01*
X2613241Y-1794529D01*
X2610702Y-1794529D01*
X2609009Y-1795376D01*
X2607316Y-1797068D01*
X2606469Y-1799608D01*
X2606469Y-1801301D01*
X2607316Y-1803840D01*
X2609009Y-1805533D01*
X2610702Y-1806380D01*
X2613241Y-1806380D01*
X2614934Y-1805533D01*
X2616627Y-1803840D01*
X2620436Y-1794529D02*
X2620436Y-1806380D01*
X2620436Y-1799608D02*
X2621283Y-1797068D01*
X2622976Y-1795376D01*
X2624669Y-1794529D01*
X2627208Y-1794529D01*
X2642784Y-1788604D02*
X2642784Y-1806380D01*
X2642784Y-1788604D02*
X2650402Y-1788604D01*
X2652941Y-1789450D01*
X2653788Y-1790297D01*
X2654634Y-1791990D01*
X2654634Y-1793683D01*
X2653788Y-1795376D01*
X2652941Y-1796222D01*
X2650402Y-1797068D01*
X2642784Y-1797068D02*
X2650402Y-1797068D01*
X2652941Y-1797915D01*
X2653788Y-1798761D01*
X2654634Y-1800455D01*
X2654634Y-1802994D01*
X2653788Y-1804687D01*
X2652941Y-1805533D01*
X2650402Y-1806380D01*
X2642784Y-1806380D01*
X2658613Y-1788604D02*
X2658613Y-1806380D01*
X2662337Y-1794529D02*
X2667416Y-1806380D01*
X2672495Y-1794529D02*
X2667416Y-1806380D01*
X2685531Y-1788604D02*
X2685531Y-1806380D01*
X2685531Y-1797068D02*
X2683838Y-1795376D01*
X2682145Y-1794529D01*
X2679606Y-1794529D01*
X2677913Y-1795376D01*
X2676220Y-1797068D01*
X2675373Y-1799608D01*
X2675373Y-1801301D01*
X2676220Y-1803840D01*
X2677913Y-1805533D01*
X2679606Y-1806380D01*
X2682145Y-1806380D01*
X2683838Y-1805533D01*
X2685531Y-1803840D01*
X2691118Y-1804687D02*
X2690271Y-1805533D01*
X2691118Y-1806380D01*
X2691964Y-1805533D01*
X2691118Y-1804687D01*
X2397700Y-1761204D02*
X2397700Y-1778980D01*
X2397700Y-1761204D02*
X2404472Y-1778980D01*
X2411244Y-1761204D02*
X2404472Y-1778980D01*
X2411244Y-1761204D02*
X2411244Y-1778980D01*
X2418016Y-1761204D02*
X2418862Y-1762050D01*
X2419709Y-1761204D01*
X2418862Y-1760357D01*
X2418016Y-1761204D01*
X2418862Y-1767129D02*
X2418862Y-1778980D01*
X2432999Y-1769668D02*
X2431306Y-1767976D01*
X2429613Y-1767129D01*
X2427073Y-1767129D01*
X2425380Y-1767976D01*
X2423687Y-1769668D01*
X2422841Y-1772208D01*
X2422841Y-1773901D01*
X2423687Y-1776440D01*
X2425380Y-1778133D01*
X2427073Y-1778980D01*
X2429613Y-1778980D01*
X2431306Y-1778133D01*
X2432999Y-1776440D01*
X2436808Y-1767129D02*
X2436808Y-1778980D01*
X2436808Y-1772208D02*
X2437654Y-1769668D01*
X2439347Y-1767976D01*
X2441040Y-1767129D01*
X2443580Y-1767129D01*
X2449420Y-1767129D02*
X2447727Y-1767976D01*
X2446035Y-1769668D01*
X2445188Y-1772208D01*
X2445188Y-1773901D01*
X2446035Y-1776440D01*
X2447727Y-1778133D01*
X2449420Y-1778980D01*
X2451960Y-1778980D01*
X2453653Y-1778133D01*
X2455346Y-1776440D01*
X2456192Y-1773901D01*
X2456192Y-1772208D01*
X2455346Y-1769668D01*
X2453653Y-1767976D01*
X2451960Y-1767129D01*
X2449420Y-1767129D01*
X2470244Y-1769668D02*
X2468551Y-1767976D01*
X2466858Y-1767129D01*
X2464319Y-1767129D01*
X2462626Y-1767976D01*
X2460933Y-1769668D01*
X2460086Y-1772208D01*
X2460086Y-1773901D01*
X2460933Y-1776440D01*
X2462626Y-1778133D01*
X2464319Y-1778980D01*
X2466858Y-1778980D01*
X2468551Y-1778133D01*
X2470244Y-1776440D01*
X2474053Y-1761204D02*
X2474053Y-1778980D01*
X2474053Y-1770515D02*
X2476593Y-1767976D01*
X2478286Y-1767129D01*
X2480825Y-1767129D01*
X2482518Y-1767976D01*
X2483365Y-1770515D01*
X2483365Y-1778980D01*
X2489713Y-1761204D02*
X2490560Y-1762050D01*
X2491406Y-1761204D01*
X2490560Y-1760357D01*
X2489713Y-1761204D01*
X2490560Y-1767129D02*
X2490560Y-1778980D01*
X2494538Y-1767129D02*
X2494538Y-1784905D01*
X2494538Y-1769668D02*
X2496231Y-1767976D01*
X2497924Y-1767129D01*
X2500464Y-1767129D01*
X2502156Y-1767976D01*
X2503849Y-1769668D01*
X2504696Y-1772208D01*
X2504696Y-1773901D01*
X2503849Y-1776440D01*
X2502156Y-1778133D01*
X2500464Y-1778980D01*
X2497924Y-1778980D01*
X2496231Y-1778133D01*
X2494538Y-1776440D01*
X2528398Y-1761204D02*
X2528398Y-1778980D01*
X2522472Y-1761204D02*
X2534323Y-1761204D01*
X2536439Y-1772208D02*
X2546597Y-1772208D01*
X2546597Y-1770515D01*
X2545750Y-1768822D01*
X2544904Y-1767976D01*
X2543211Y-1767129D01*
X2540672Y-1767129D01*
X2538978Y-1767976D01*
X2537286Y-1769668D01*
X2536439Y-1772208D01*
X2536439Y-1773901D01*
X2537286Y-1776440D01*
X2538978Y-1778133D01*
X2540672Y-1778980D01*
X2543211Y-1778980D01*
X2544904Y-1778133D01*
X2546597Y-1776440D01*
X2560564Y-1769668D02*
X2558871Y-1767976D01*
X2557178Y-1767129D01*
X2554639Y-1767129D01*
X2552946Y-1767976D01*
X2551253Y-1769668D01*
X2550406Y-1772208D01*
X2550406Y-1773901D01*
X2551253Y-1776440D01*
X2552946Y-1778133D01*
X2554639Y-1778980D01*
X2557178Y-1778980D01*
X2558871Y-1778133D01*
X2560564Y-1776440D01*
X2564373Y-1761204D02*
X2564373Y-1778980D01*
X2564373Y-1770515D02*
X2566913Y-1767976D01*
X2568606Y-1767129D01*
X2571145Y-1767129D01*
X2572838Y-1767976D01*
X2573684Y-1770515D01*
X2573684Y-1778980D01*
X2578340Y-1767129D02*
X2578340Y-1778980D01*
X2578340Y-1770515D02*
X2580880Y-1767976D01*
X2582573Y-1767129D01*
X2585112Y-1767129D01*
X2586805Y-1767976D01*
X2587651Y-1770515D01*
X2587651Y-1778980D01*
X2596540Y-1767129D02*
X2594846Y-1767976D01*
X2593154Y-1769668D01*
X2592307Y-1772208D01*
X2592307Y-1773901D01*
X2593154Y-1776440D01*
X2594846Y-1778133D01*
X2596540Y-1778980D01*
X2599079Y-1778980D01*
X2600772Y-1778133D01*
X2602465Y-1776440D01*
X2603311Y-1773901D01*
X2603311Y-1772208D01*
X2602465Y-1769668D01*
X2600772Y-1767976D01*
X2599079Y-1767129D01*
X2596540Y-1767129D01*
X2607205Y-1761204D02*
X2607205Y-1778980D01*
X2615162Y-1767129D02*
X2613469Y-1767976D01*
X2611776Y-1769668D01*
X2610930Y-1772208D01*
X2610930Y-1773901D01*
X2611776Y-1776440D01*
X2613469Y-1778133D01*
X2615162Y-1778980D01*
X2617702Y-1778980D01*
X2619395Y-1778133D01*
X2621088Y-1776440D01*
X2621934Y-1773901D01*
X2621934Y-1772208D01*
X2621088Y-1769668D01*
X2619395Y-1767976D01*
X2617702Y-1767129D01*
X2615162Y-1767129D01*
X2635986Y-1767129D02*
X2635986Y-1780673D01*
X2635139Y-1783212D01*
X2634293Y-1784059D01*
X2632600Y-1784905D01*
X2630060Y-1784905D01*
X2628367Y-1784059D01*
X2635986Y-1769668D02*
X2634293Y-1767976D01*
X2632600Y-1767129D01*
X2630060Y-1767129D01*
X2628367Y-1767976D01*
X2626674Y-1769668D01*
X2625828Y-1772208D01*
X2625828Y-1773901D01*
X2626674Y-1776440D01*
X2628367Y-1778133D01*
X2630060Y-1778980D01*
X2632600Y-1778980D01*
X2634293Y-1778133D01*
X2635986Y-1776440D01*
X2641573Y-1767129D02*
X2646651Y-1778980D01*
X2651730Y-1767129D02*
X2646651Y-1778980D01*
X2644958Y-1782366D01*
X2643265Y-1784059D01*
X2641573Y-1784905D01*
X2640726Y-1784905D01*
X2668660Y-1761204D02*
X2668660Y-1778980D01*
X2672385Y-1767129D02*
X2672385Y-1778980D01*
X2672385Y-1770515D02*
X2674924Y-1767976D01*
X2676617Y-1767129D01*
X2679156Y-1767129D01*
X2680849Y-1767976D01*
X2681696Y-1770515D01*
X2681696Y-1778980D01*
X2696509Y-1769668D02*
X2694816Y-1767976D01*
X2693123Y-1767129D01*
X2690584Y-1767129D01*
X2688891Y-1767976D01*
X2687198Y-1769668D01*
X2686352Y-1772208D01*
X2686352Y-1773901D01*
X2687198Y-1776440D01*
X2688891Y-1778133D01*
X2690584Y-1778980D01*
X2693123Y-1778980D01*
X2694816Y-1778133D01*
X2696509Y-1776440D01*
X2701165Y-1777287D02*
X2700319Y-1778133D01*
X2701165Y-1778980D01*
X2702011Y-1778133D01*
X2701165Y-1777287D01*
X3010714Y-1712811D02*
X3010000Y-1712097D01*
X3010714Y-1711383D01*
X3011429Y-1712097D01*
X3011429Y-1713526D01*
X3010714Y-1714954D01*
X3010000Y-1715668D01*
X3018998Y-1711383D02*
X3016856Y-1712097D01*
X3015428Y-1714240D01*
X3014713Y-1717810D01*
X3014713Y-1719953D01*
X3015428Y-1723523D01*
X3016856Y-1725666D01*
X3018998Y-1726380D01*
X3020427Y-1726380D01*
X3022569Y-1725666D01*
X3023997Y-1723523D01*
X3024711Y-1719953D01*
X3024711Y-1717810D01*
X3023997Y-1714240D01*
X3022569Y-1712097D01*
X3020427Y-1711383D01*
X3018998Y-1711383D01*
X3036637Y-1711383D02*
X3029496Y-1711383D01*
X3028782Y-1717810D01*
X3029496Y-1717096D01*
X3031638Y-1716382D01*
X3033781Y-1716382D01*
X3035923Y-1717096D01*
X3037351Y-1718524D01*
X3038065Y-1720667D01*
X3038065Y-1722095D01*
X3037351Y-1724238D01*
X3035923Y-1725666D01*
X3033781Y-1726380D01*
X3031638Y-1726380D01*
X3029496Y-1725666D01*
X3028782Y-1724952D01*
X3028068Y-1723523D01*
X3041422Y-1719953D02*
X3054276Y-1719953D01*
X3058704Y-1731379D02*
X3070130Y-1731379D01*
X3072058Y-1731379D02*
X3083484Y-1731379D01*
X3085413Y-1719953D02*
X3098267Y-1719953D01*
X3102694Y-1711383D02*
X3102694Y-1726380D01*
X3102694Y-1711383D02*
X3109122Y-1711383D01*
X3111264Y-1712097D01*
X3111978Y-1712811D01*
X3112692Y-1714240D01*
X3112692Y-1715668D01*
X3111978Y-1717096D01*
X3111264Y-1717810D01*
X3109122Y-1718524D01*
X3102694Y-1718524D01*
X3107693Y-1718524D02*
X3112692Y-1726380D01*
X3116049Y-1731379D02*
X3127475Y-1731379D01*
X3129403Y-1731379D02*
X3140829Y-1731379D01*
X3143471Y-1724952D02*
X3142757Y-1725666D01*
X3143471Y-1726380D01*
X3144185Y-1725666D01*
X3143471Y-1724952D01*
X3158183Y-1714954D02*
X3157469Y-1713526D01*
X3156040Y-1712097D01*
X3154612Y-1711383D01*
X3151755Y-1711383D01*
X3150327Y-1712097D01*
X3148899Y-1713526D01*
X3148185Y-1714954D01*
X3147471Y-1717096D01*
X3147471Y-1720667D01*
X3148185Y-1722809D01*
X3148899Y-1724238D01*
X3150327Y-1725666D01*
X3151755Y-1726380D01*
X3154612Y-1726380D01*
X3156040Y-1725666D01*
X3157469Y-1724238D01*
X3158183Y-1722809D01*
X3158183Y-1720667D01*
X3154612Y-1720667D02*
X3158183Y-1720667D01*
X3161610Y-1711383D02*
X3161610Y-1726380D01*
X3161610Y-1711383D02*
X3168038Y-1711383D01*
X3170180Y-1712097D01*
X3170894Y-1712811D01*
X3171608Y-1714240D01*
X3171608Y-1715668D01*
X3170894Y-1717096D01*
X3170180Y-1717810D01*
X3168038Y-1718524D01*
X3161610Y-1718524D02*
X3168038Y-1718524D01*
X3170180Y-1719238D01*
X3170894Y-1719953D01*
X3171608Y-1721381D01*
X3171608Y-1723523D01*
X3170894Y-1724952D01*
X3170180Y-1725666D01*
X3168038Y-1726380D01*
X3161610Y-1726380D01*
X3174965Y-1711383D02*
X3174965Y-1726380D01*
X3183534Y-1726380D01*
X3185891Y-1712811D02*
X3185177Y-1712097D01*
X3185891Y-1711383D01*
X3186605Y-1712097D01*
X3186605Y-1713526D01*
X3185891Y-1714954D01*
X3185177Y-1715668D01*
X3275816Y-1858363D02*
X3274969Y-1856670D01*
X3272430Y-1855824D01*
X3270737Y-1855824D01*
X3268198Y-1856670D01*
X3266505Y-1859210D01*
X3265658Y-1863442D01*
X3265658Y-1867675D01*
X3266505Y-1871060D01*
X3268198Y-1872753D01*
X3270737Y-1873600D01*
X3271584Y-1873600D01*
X3274123Y-1872753D01*
X3275816Y-1871060D01*
X3276662Y-1868521D01*
X3276662Y-1867675D01*
X3275816Y-1865135D01*
X3274123Y-1863442D01*
X3271584Y-1862596D01*
X3270737Y-1862596D01*
X3268198Y-1863442D01*
X3266505Y-1865135D01*
X3265658Y-1867675D01*
X2639546Y-1855824D02*
X2631081Y-1855824D01*
X2630235Y-1863442D01*
X2631081Y-1862596D01*
X2633621Y-1861749D01*
X2636160Y-1861749D01*
X2638700Y-1862596D01*
X2640392Y-1864288D01*
X2641239Y-1866828D01*
X2641239Y-1868521D01*
X2640392Y-1871060D01*
X2638700Y-1872753D01*
X2636160Y-1873600D01*
X2633621Y-1873600D01*
X2631081Y-1872753D01*
X2630235Y-1871907D01*
X2629388Y-1870214D01*
X2003110Y-1855824D02*
X1994645Y-1867675D01*
X2007342Y-1867675D01*
X2003110Y-1855824D02*
X2003110Y-1873600D01*
X1359644Y-1855824D02*
X1368956Y-1855824D01*
X1363877Y-1862596D01*
X1366416Y-1862596D01*
X1368109Y-1863442D01*
X1368956Y-1864288D01*
X1369802Y-1866828D01*
X1369802Y-1868521D01*
X1368956Y-1871060D01*
X1367263Y-1872753D01*
X1364723Y-1873600D01*
X1362184Y-1873600D01*
X1359644Y-1872753D01*
X1358798Y-1871907D01*
X1357951Y-1870214D01*
X726505Y-1860056D02*
X726505Y-1859210D01*
X727351Y-1857517D01*
X728198Y-1856670D01*
X729891Y-1855824D01*
X733277Y-1855824D01*
X734969Y-1856670D01*
X735816Y-1857517D01*
X736662Y-1859210D01*
X736662Y-1860903D01*
X735816Y-1862596D01*
X734123Y-1865135D01*
X725658Y-1873600D01*
X737509Y-1873600D01*
X91760Y-1859210D02*
X93453Y-1858363D01*
X95992Y-1855824D01*
X95992Y-1873600D01*
X-201950Y-1593696D02*
X-201950Y-1611472D01*
X-201950Y-1593696D02*
X-196024Y-1593696D01*
X-193485Y-1594542D01*
X-191792Y-1596235D01*
X-190946Y-1597928D01*
X-190099Y-1600468D01*
X-190099Y-1604700D01*
X-190946Y-1607240D01*
X-191792Y-1608932D01*
X-193485Y-1610625D01*
X-196024Y-1611472D01*
X-201950Y-1611472D01*
X-189253Y-995948D02*
X-190099Y-994255D01*
X-191792Y-992562D01*
X-193485Y-991716D01*
X-196871Y-991716D01*
X-198564Y-992562D01*
X-200257Y-994255D01*
X-201103Y-995948D01*
X-201950Y-998488D01*
X-201950Y-1002720D01*
X-201103Y-1005259D01*
X-200257Y-1006952D01*
X-198564Y-1008645D01*
X-196871Y-1009492D01*
X-193485Y-1009492D01*
X-191792Y-1008645D01*
X-190099Y-1006952D01*
X-189253Y-1005259D01*
X-201950Y-388466D02*
X-201950Y-406242D01*
X-201950Y-388466D02*
X-194331Y-388466D01*
X-191792Y-389312D01*
X-190946Y-390159D01*
X-190099Y-391852D01*
X-190099Y-393545D01*
X-190946Y-395238D01*
X-191792Y-396084D01*
X-194331Y-396931D01*
X-201950Y-396931D02*
X-194331Y-396931D01*
X-191792Y-397777D01*
X-190946Y-398624D01*
X-190099Y-400317D01*
X-190099Y-402856D01*
X-190946Y-404549D01*
X-191792Y-405395D01*
X-194331Y-406242D01*
X-201950Y-406242D01*
X-188406Y198278D02*
X-195178Y216054D01*
X-201950Y198278D01*
X-199410Y204203D02*
X-190946Y204203D01*
X3557250Y-1593696D02*
X3557250Y-1611472D01*
X3557250Y-1593696D02*
X3563175Y-1593696D01*
X3565715Y-1594542D01*
X3567408Y-1596235D01*
X3568254Y-1597928D01*
X3569101Y-1600468D01*
X3569101Y-1604700D01*
X3568254Y-1607240D01*
X3567408Y-1608932D01*
X3565715Y-1610625D01*
X3563175Y-1611472D01*
X3557250Y-1611472D01*
X3569948Y-995948D02*
X3569101Y-994255D01*
X3567408Y-992562D01*
X3565715Y-991716D01*
X3562329Y-991716D01*
X3560636Y-992562D01*
X3558943Y-994255D01*
X3558097Y-995948D01*
X3557250Y-998488D01*
X3557250Y-1002720D01*
X3558097Y-1005259D01*
X3558943Y-1006952D01*
X3560636Y-1008645D01*
X3562329Y-1009492D01*
X3565715Y-1009492D01*
X3567408Y-1008645D01*
X3569101Y-1006952D01*
X3569948Y-1005259D01*
X3557250Y-388466D02*
X3557250Y-406242D01*
X3557250Y-388466D02*
X3564868Y-388466D01*
X3567408Y-389312D01*
X3568254Y-390159D01*
X3569101Y-391852D01*
X3569101Y-393545D01*
X3568254Y-395238D01*
X3567408Y-396084D01*
X3564868Y-396931D01*
X3557250Y-396931D02*
X3564868Y-396931D01*
X3567408Y-397777D01*
X3568254Y-398624D01*
X3569101Y-400317D01*
X3569101Y-402856D01*
X3568254Y-404549D01*
X3567408Y-405395D01*
X3564868Y-406242D01*
X3557250Y-406242D01*
X3570794Y198278D02*
X3564022Y216054D01*
X3557250Y198278D01*
X3559790Y204203D02*
X3568254Y204203D01*
X3275816Y503837D02*
X3274969Y505530D01*
X3272430Y506376D01*
X3270737Y506376D01*
X3268198Y505530D01*
X3266505Y502990D01*
X3265658Y498758D01*
X3265658Y494525D01*
X3266505Y491140D01*
X3268198Y489447D01*
X3270737Y488600D01*
X3271584Y488600D01*
X3274123Y489447D01*
X3275816Y491140D01*
X3276662Y493679D01*
X3276662Y494525D01*
X3275816Y497065D01*
X3274123Y498758D01*
X3271584Y499604D01*
X3270737Y499604D01*
X3268198Y498758D01*
X3266505Y497065D01*
X3265658Y494525D01*
X2639546Y506376D02*
X2631081Y506376D01*
X2630235Y498758D01*
X2631081Y499604D01*
X2633621Y500451D01*
X2636160Y500451D01*
X2638700Y499604D01*
X2640392Y497911D01*
X2641239Y495372D01*
X2641239Y493679D01*
X2640392Y491140D01*
X2638700Y489447D01*
X2636160Y488600D01*
X2633621Y488600D01*
X2631081Y489447D01*
X2630235Y490293D01*
X2629388Y491986D01*
X2003110Y506376D02*
X1994645Y494525D01*
X2007342Y494525D01*
X2003110Y506376D02*
X2003110Y488600D01*
X1359644Y506376D02*
X1368956Y506376D01*
X1363877Y499604D01*
X1366416Y499604D01*
X1368109Y498758D01*
X1368956Y497911D01*
X1369802Y495372D01*
X1369802Y493679D01*
X1368956Y491140D01*
X1367263Y489447D01*
X1364723Y488600D01*
X1362184Y488600D01*
X1359644Y489447D01*
X1358798Y490293D01*
X1357951Y491986D01*
X726505Y502144D02*
X726505Y502990D01*
X727351Y504683D01*
X728198Y505530D01*
X729891Y506376D01*
X733277Y506376D01*
X734969Y505530D01*
X735816Y504683D01*
X736662Y502990D01*
X736662Y501297D01*
X735816Y499604D01*
X734123Y497065D01*
X725658Y488600D01*
X737509Y488600D01*
X91760Y502990D02*
X93453Y503837D01*
X95992Y506376D01*
X95992Y488600D01*
D15*
X3005000Y-1818883D02*
X3005000Y-1833880D01*
X3005000Y-1818883D02*
X3011427Y-1818883D01*
X3013570Y-1819597D01*
X3014284Y-1820311D01*
X3014998Y-1821740D01*
X3014998Y-1823168D01*
X3014284Y-1824596D01*
X3013570Y-1825310D01*
X3011427Y-1826024D01*
X3005000Y-1826024D02*
X3011427Y-1826024D01*
X3013570Y-1826738D01*
X3014284Y-1827453D01*
X3014998Y-1828881D01*
X3014998Y-1831023D01*
X3014284Y-1832452D01*
X3013570Y-1833166D01*
X3011427Y-1833880D01*
X3005000Y-1833880D01*
X3021925Y-1823882D02*
X3020497Y-1824596D01*
X3019069Y-1826024D01*
X3018354Y-1828167D01*
X3018354Y-1829595D01*
X3019069Y-1831738D01*
X3020497Y-1833166D01*
X3021925Y-1833880D01*
X3024067Y-1833880D01*
X3025496Y-1833166D01*
X3026924Y-1831738D01*
X3027638Y-1829595D01*
X3027638Y-1828167D01*
X3026924Y-1826024D01*
X3025496Y-1824596D01*
X3024067Y-1823882D01*
X3021925Y-1823882D01*
X3033065Y-1818883D02*
X3033065Y-1831023D01*
X3033780Y-1833166D01*
X3035208Y-1833880D01*
X3036636Y-1833880D01*
X3030923Y-1823882D02*
X3035922Y-1823882D01*
X3040921Y-1818883D02*
X3040921Y-1831023D01*
X3041635Y-1833166D01*
X3043063Y-1833880D01*
X3044492Y-1833880D01*
X3038779Y-1823882D02*
X3043777Y-1823882D01*
X3050205Y-1823882D02*
X3048777Y-1824596D01*
X3047348Y-1826024D01*
X3046634Y-1828167D01*
X3046634Y-1829595D01*
X3047348Y-1831738D01*
X3048777Y-1833166D01*
X3050205Y-1833880D01*
X3052347Y-1833880D01*
X3053775Y-1833166D01*
X3055204Y-1831738D01*
X3055918Y-1829595D01*
X3055918Y-1828167D01*
X3055204Y-1826024D01*
X3053775Y-1824596D01*
X3052347Y-1823882D01*
X3050205Y-1823882D01*
X3059203Y-1823882D02*
X3059203Y-1833880D01*
X3059203Y-1826738D02*
X3061345Y-1824596D01*
X3062773Y-1823882D01*
X3064916Y-1823882D01*
X3066344Y-1824596D01*
X3067058Y-1826738D01*
X3067058Y-1833880D01*
X3067058Y-1826738D02*
X3069201Y-1824596D01*
X3070629Y-1823882D01*
X3072771Y-1823882D01*
X3074200Y-1824596D01*
X3074914Y-1826738D01*
X3074914Y-1833880D01*
X3091410Y-1818883D02*
X3091410Y-1833880D01*
X3099980Y-1833880D01*
X3110192Y-1823882D02*
X3110192Y-1833880D01*
X3110192Y-1826024D02*
X3108764Y-1824596D01*
X3107335Y-1823882D01*
X3105193Y-1823882D01*
X3103765Y-1824596D01*
X3102336Y-1826024D01*
X3101622Y-1828167D01*
X3101622Y-1829595D01*
X3102336Y-1831738D01*
X3103765Y-1833166D01*
X3105193Y-1833880D01*
X3107335Y-1833880D01*
X3108764Y-1833166D01*
X3110192Y-1831738D01*
X3114905Y-1823882D02*
X3119190Y-1833880D01*
X3123475Y-1823882D02*
X3119190Y-1833880D01*
X3117762Y-1836736D01*
X3116333Y-1838165D01*
X3114905Y-1838879D01*
X3114191Y-1838879D01*
X3125974Y-1828167D02*
X3134544Y-1828167D01*
X3134544Y-1826738D01*
X3133830Y-1825310D01*
X3133116Y-1824596D01*
X3131687Y-1823882D01*
X3129545Y-1823882D01*
X3128116Y-1824596D01*
X3126688Y-1826024D01*
X3125974Y-1828167D01*
X3125974Y-1829595D01*
X3126688Y-1831738D01*
X3128116Y-1833166D01*
X3129545Y-1833880D01*
X3131687Y-1833880D01*
X3133116Y-1833166D01*
X3134544Y-1831738D01*
X3137757Y-1823882D02*
X3137757Y-1833880D01*
X3137757Y-1828167D02*
X3138471Y-1826024D01*
X3139900Y-1824596D01*
X3141328Y-1823882D01*
X3143470Y-1823882D01*
X3156610Y-1821740D02*
X3158039Y-1821026D01*
X3160181Y-1818883D01*
X3160181Y-1833880D01*
X2730000Y-1808405D02*
X2734928Y-1808405D01*
X2736570Y-1807857D01*
X2737118Y-1807310D01*
X2737665Y-1806215D01*
X2737665Y-1804572D01*
X2737118Y-1803477D01*
X2736570Y-1802930D01*
X2734928Y-1802382D01*
X2730000Y-1802382D01*
X2730000Y-1813880D01*
X2748451Y-1805120D02*
X2747903Y-1804025D01*
X2746808Y-1802930D01*
X2745714Y-1802382D01*
X2743523Y-1802382D01*
X2742428Y-1802930D01*
X2741333Y-1804025D01*
X2740786Y-1805120D01*
X2740238Y-1806762D01*
X2740238Y-1809500D01*
X2740786Y-1811142D01*
X2741333Y-1812237D01*
X2742428Y-1813332D01*
X2743523Y-1813880D01*
X2745714Y-1813880D01*
X2746808Y-1813332D01*
X2747903Y-1812237D01*
X2748451Y-1811142D01*
X2751681Y-1802382D02*
X2751681Y-1813880D01*
X2751681Y-1802382D02*
X2756609Y-1802382D01*
X2758251Y-1802930D01*
X2758799Y-1803477D01*
X2759346Y-1804572D01*
X2759346Y-1805667D01*
X2758799Y-1806762D01*
X2758251Y-1807310D01*
X2756609Y-1807857D01*
X2751681Y-1807857D02*
X2756609Y-1807857D01*
X2758251Y-1808405D01*
X2758799Y-1808952D01*
X2759346Y-1810047D01*
X2759346Y-1811690D01*
X2758799Y-1812785D01*
X2758251Y-1813332D01*
X2756609Y-1813880D01*
X2751681Y-1813880D01*
X2770953Y-1802382D02*
X2770953Y-1813880D01*
X2770953Y-1802382D02*
X2778071Y-1802382D01*
X2770953Y-1807857D02*
X2775333Y-1807857D01*
X2779385Y-1802382D02*
X2779385Y-1813880D01*
X2781794Y-1802382D02*
X2781794Y-1813880D01*
X2788364Y-1813880D01*
X2796741Y-1802382D02*
X2789623Y-1802382D01*
X2789623Y-1813880D01*
X2796741Y-1813880D01*
X2789623Y-1807857D02*
X2794003Y-1807857D01*
X2807691Y-1802382D02*
X2807691Y-1813880D01*
X2807691Y-1802382D02*
X2815356Y-1813880D01*
X2815356Y-1802382D02*
X2815356Y-1813880D01*
X2827291Y-1813880D02*
X2822911Y-1802382D01*
X2818531Y-1813880D01*
X2820174Y-1810047D02*
X2825649Y-1810047D01*
X2829974Y-1802382D02*
X2829974Y-1813880D01*
X2829974Y-1802382D02*
X2834354Y-1813880D01*
X2838734Y-1802382D02*
X2834354Y-1813880D01*
X2838734Y-1802382D02*
X2838734Y-1813880D01*
X2849137Y-1802382D02*
X2842019Y-1802382D01*
X2842019Y-1813880D01*
X2849137Y-1813880D01*
X2842019Y-1807857D02*
X2846399Y-1807857D01*
X2851600Y-1806215D02*
X2851053Y-1806762D01*
X2851600Y-1807310D01*
X2852148Y-1806762D01*
X2851600Y-1806215D01*
X2851600Y-1812785D02*
X2851053Y-1813332D01*
X2851600Y-1813880D01*
X2852148Y-1813332D01*
X2851600Y-1812785D01*
X2730476Y-1826263D02*
X2730476Y-1825786D01*
X2730952Y-1824834D01*
X2731429Y-1824358D01*
X2732381Y-1823882D01*
X2734285Y-1823882D01*
X2735237Y-1824358D01*
X2735713Y-1824834D01*
X2736189Y-1825786D01*
X2736189Y-1826738D01*
X2735713Y-1827691D01*
X2734761Y-1829119D01*
X2730000Y-1833880D01*
X2736665Y-1833880D01*
X2746758Y-1823882D02*
X2746758Y-1833880D01*
X2752472Y-1833880D01*
X2759279Y-1827215D02*
X2759279Y-1833880D01*
X2759279Y-1828643D02*
X2758327Y-1827691D01*
X2757375Y-1827215D01*
X2755947Y-1827215D01*
X2754995Y-1827691D01*
X2754043Y-1828643D01*
X2753567Y-1830071D01*
X2753567Y-1831023D01*
X2754043Y-1832452D01*
X2754995Y-1833404D01*
X2755947Y-1833880D01*
X2757375Y-1833880D01*
X2758327Y-1833404D01*
X2759279Y-1832452D01*
X2762422Y-1827215D02*
X2765278Y-1833880D01*
X2768135Y-1827215D02*
X2765278Y-1833880D01*
X2764326Y-1835784D01*
X2763374Y-1836736D01*
X2762422Y-1837213D01*
X2761946Y-1837213D01*
X2769801Y-1830071D02*
X2775514Y-1830071D01*
X2775514Y-1829119D01*
X2775038Y-1828167D01*
X2774562Y-1827691D01*
X2773610Y-1827215D01*
X2772182Y-1827215D01*
X2771229Y-1827691D01*
X2770277Y-1828643D01*
X2769801Y-1830071D01*
X2769801Y-1831023D01*
X2770277Y-1832452D01*
X2771229Y-1833404D01*
X2772182Y-1833880D01*
X2773610Y-1833880D01*
X2774562Y-1833404D01*
X2775514Y-1832452D01*
X2777657Y-1827215D02*
X2777657Y-1833880D01*
X2777657Y-1830071D02*
X2778133Y-1828643D01*
X2779085Y-1827691D01*
X2780037Y-1827215D01*
X2781465Y-1827215D01*
X2787607Y-1828643D02*
X2787131Y-1827691D01*
X2785703Y-1827215D01*
X2784274Y-1827215D01*
X2782846Y-1827691D01*
X2782370Y-1828643D01*
X2782846Y-1829595D01*
X2783798Y-1830071D01*
X2786179Y-1830547D01*
X2787131Y-1831023D01*
X2787607Y-1831976D01*
X2787607Y-1832452D01*
X2787131Y-1833404D01*
X2785703Y-1833880D01*
X2784274Y-1833880D01*
X2782846Y-1833404D01*
X2782370Y-1832452D01*
X2790178Y-1832928D02*
X2789702Y-1833404D01*
X2790178Y-1833880D01*
X2790654Y-1833404D01*
X2790178Y-1832928D01*
X2792844Y-1829119D02*
X2797129Y-1829119D01*
X2798557Y-1828643D01*
X2799033Y-1828167D01*
X2799509Y-1827215D01*
X2799509Y-1825786D01*
X2799033Y-1824834D01*
X2798557Y-1824358D01*
X2797129Y-1823882D01*
X2792844Y-1823882D01*
X2792844Y-1833880D01*
X2807460Y-1828643D02*
X2806508Y-1827691D01*
X2805555Y-1827215D01*
X2804127Y-1827215D01*
X2803175Y-1827691D01*
X2802223Y-1828643D01*
X2801747Y-1830071D01*
X2801747Y-1831023D01*
X2802223Y-1832452D01*
X2803175Y-1833404D01*
X2804127Y-1833880D01*
X2805555Y-1833880D01*
X2806508Y-1833404D01*
X2807460Y-1832452D01*
X2809602Y-1823882D02*
X2809602Y-1833880D01*
X2809602Y-1828643D02*
X2810554Y-1827691D01*
X2811506Y-1827215D01*
X2812935Y-1827215D01*
X2813887Y-1827691D01*
X2814839Y-1828643D01*
X2815315Y-1830071D01*
X2815315Y-1831023D01*
X2814839Y-1832452D01*
X2813887Y-1833404D01*
X2812935Y-1833880D01*
X2811506Y-1833880D01*
X2810554Y-1833404D01*
X2809602Y-1832452D01*
X2817458Y-1823882D02*
X2817458Y-1833880D01*
X2817458Y-1823882D02*
X2820790Y-1823882D01*
X2822219Y-1824358D01*
X2823170Y-1825310D01*
X2823647Y-1826263D01*
X2824123Y-1827691D01*
X2824123Y-1830071D01*
X2823647Y-1831499D01*
X2823170Y-1832452D01*
X2822219Y-1833404D01*
X2820790Y-1833880D01*
X2817458Y-1833880D01*
X2828741Y-1827215D02*
X2827789Y-1827691D01*
X2826837Y-1828643D01*
X2826360Y-1830071D01*
X2826360Y-1831023D01*
X2826837Y-1832452D01*
X2827789Y-1833404D01*
X2828741Y-1833880D01*
X2830169Y-1833880D01*
X2831121Y-1833404D01*
X2832073Y-1832452D01*
X2832550Y-1831023D01*
X2832550Y-1830071D01*
X2832073Y-1828643D01*
X2831121Y-1827691D01*
X2830169Y-1827215D01*
X2828741Y-1827215D01*
X2840453Y-1828643D02*
X2839500Y-1827691D01*
X2838548Y-1827215D01*
X2837120Y-1827215D01*
X2836168Y-1827691D01*
X2835216Y-1828643D01*
X2834740Y-1830071D01*
X2834740Y-1831023D01*
X2835216Y-1832452D01*
X2836168Y-1833404D01*
X2837120Y-1833880D01*
X2838548Y-1833880D01*
X2839500Y-1833404D01*
X2840453Y-1832452D01*
X2730000Y-1690905D02*
X2734928Y-1690905D01*
X2736570Y-1690357D01*
X2737118Y-1689810D01*
X2737665Y-1688715D01*
X2737665Y-1687072D01*
X2737118Y-1685977D01*
X2736570Y-1685430D01*
X2734928Y-1684882D01*
X2730000Y-1684882D01*
X2730000Y-1696380D01*
X2748451Y-1687620D02*
X2747903Y-1686525D01*
X2746808Y-1685430D01*
X2745714Y-1684882D01*
X2743523Y-1684882D01*
X2742428Y-1685430D01*
X2741333Y-1686525D01*
X2740786Y-1687620D01*
X2740238Y-1689262D01*
X2740238Y-1692000D01*
X2740786Y-1693642D01*
X2741333Y-1694737D01*
X2742428Y-1695832D01*
X2743523Y-1696380D01*
X2745714Y-1696380D01*
X2746808Y-1695832D01*
X2747903Y-1694737D01*
X2748451Y-1693642D01*
X2751681Y-1684882D02*
X2751681Y-1696380D01*
X2751681Y-1684882D02*
X2756609Y-1684882D01*
X2758251Y-1685430D01*
X2758799Y-1685977D01*
X2759346Y-1687072D01*
X2759346Y-1688167D01*
X2758799Y-1689262D01*
X2758251Y-1689810D01*
X2756609Y-1690357D01*
X2751681Y-1690357D02*
X2756609Y-1690357D01*
X2758251Y-1690905D01*
X2758799Y-1691452D01*
X2759346Y-1692547D01*
X2759346Y-1694190D01*
X2758799Y-1695285D01*
X2758251Y-1695832D01*
X2756609Y-1696380D01*
X2751681Y-1696380D01*
X2770953Y-1684882D02*
X2770953Y-1696380D01*
X2777523Y-1696380D01*
X2785352Y-1688715D02*
X2785352Y-1696380D01*
X2785352Y-1690357D02*
X2784258Y-1689262D01*
X2783163Y-1688715D01*
X2781520Y-1688715D01*
X2780425Y-1689262D01*
X2779330Y-1690357D01*
X2778783Y-1692000D01*
X2778783Y-1693095D01*
X2779330Y-1694737D01*
X2780425Y-1695832D01*
X2781520Y-1696380D01*
X2783163Y-1696380D01*
X2784258Y-1695832D01*
X2785352Y-1694737D01*
X2788966Y-1688715D02*
X2792251Y-1696380D01*
X2795536Y-1688715D02*
X2792251Y-1696380D01*
X2791156Y-1698570D01*
X2790061Y-1699665D01*
X2788966Y-1700212D01*
X2788419Y-1700212D01*
X2800190Y-1688715D02*
X2799095Y-1689262D01*
X2798000Y-1690357D01*
X2797452Y-1692000D01*
X2797452Y-1693095D01*
X2798000Y-1694737D01*
X2799095Y-1695832D01*
X2800190Y-1696380D01*
X2801832Y-1696380D01*
X2802928Y-1695832D01*
X2804023Y-1694737D01*
X2804570Y-1693095D01*
X2804570Y-1692000D01*
X2804023Y-1690357D01*
X2802928Y-1689262D01*
X2801832Y-1688715D01*
X2800190Y-1688715D01*
X2807088Y-1688715D02*
X2807088Y-1694190D01*
X2807636Y-1695832D01*
X2808731Y-1696380D01*
X2810374Y-1696380D01*
X2811469Y-1695832D01*
X2813111Y-1694190D01*
X2813111Y-1688715D02*
X2813111Y-1696380D01*
X2817765Y-1684882D02*
X2817765Y-1694190D01*
X2818312Y-1695832D01*
X2819407Y-1696380D01*
X2820502Y-1696380D01*
X2816122Y-1688715D02*
X2819955Y-1688715D01*
X2839391Y-1687620D02*
X2838843Y-1686525D01*
X2837748Y-1685430D01*
X2836653Y-1684882D01*
X2834464Y-1684882D01*
X2833369Y-1685430D01*
X2832274Y-1686525D01*
X2831726Y-1687620D01*
X2831179Y-1689262D01*
X2831179Y-1692000D01*
X2831726Y-1693642D01*
X2832274Y-1694737D01*
X2833369Y-1695832D01*
X2834464Y-1696380D01*
X2836653Y-1696380D01*
X2837748Y-1695832D01*
X2838843Y-1694737D01*
X2839391Y-1693642D01*
X2845359Y-1688715D02*
X2844264Y-1689262D01*
X2843169Y-1690357D01*
X2842621Y-1692000D01*
X2842621Y-1693095D01*
X2843169Y-1694737D01*
X2844264Y-1695832D01*
X2845359Y-1696380D01*
X2847001Y-1696380D01*
X2848096Y-1695832D01*
X2849191Y-1694737D01*
X2849739Y-1693095D01*
X2849739Y-1692000D01*
X2849191Y-1690357D01*
X2848096Y-1689262D01*
X2847001Y-1688715D01*
X2845359Y-1688715D01*
X2852257Y-1688715D02*
X2852257Y-1696380D01*
X2852257Y-1690905D02*
X2853900Y-1689262D01*
X2854995Y-1688715D01*
X2856637Y-1688715D01*
X2857732Y-1689262D01*
X2858280Y-1690905D01*
X2858280Y-1696380D01*
X2862934Y-1684882D02*
X2862934Y-1694190D01*
X2863481Y-1695832D01*
X2864576Y-1696380D01*
X2865671Y-1696380D01*
X2861291Y-1688715D02*
X2865124Y-1688715D01*
X2873884Y-1688715D02*
X2873884Y-1696380D01*
X2873884Y-1690357D02*
X2872789Y-1689262D01*
X2871694Y-1688715D01*
X2870051Y-1688715D01*
X2868956Y-1689262D01*
X2867861Y-1690357D01*
X2867314Y-1692000D01*
X2867314Y-1693095D01*
X2867861Y-1694737D01*
X2868956Y-1695832D01*
X2870051Y-1696380D01*
X2871694Y-1696380D01*
X2872789Y-1695832D01*
X2873884Y-1694737D01*
X2883520Y-1690357D02*
X2882425Y-1689262D01*
X2881330Y-1688715D01*
X2879687Y-1688715D01*
X2878592Y-1689262D01*
X2877497Y-1690357D01*
X2876949Y-1692000D01*
X2876949Y-1693095D01*
X2877497Y-1694737D01*
X2878592Y-1695832D01*
X2879687Y-1696380D01*
X2881330Y-1696380D01*
X2882425Y-1695832D01*
X2883520Y-1694737D01*
X2887626Y-1684882D02*
X2887626Y-1694190D01*
X2888174Y-1695832D01*
X2889268Y-1696380D01*
X2890363Y-1696380D01*
X2885983Y-1688715D02*
X2889816Y-1688715D01*
X2892553Y-1688715D02*
X2892006Y-1689262D01*
X2892553Y-1689810D01*
X2893101Y-1689262D01*
X2892553Y-1688715D01*
X2892553Y-1695285D02*
X2892006Y-1695832D01*
X2892553Y-1696380D01*
X2893101Y-1695832D01*
X2892553Y-1695285D01*
X2730000Y-1750905D02*
X2734928Y-1750905D01*
X2736570Y-1750357D01*
X2737118Y-1749810D01*
X2737665Y-1748715D01*
X2737665Y-1747072D01*
X2737118Y-1745977D01*
X2736570Y-1745430D01*
X2734928Y-1744882D01*
X2730000Y-1744882D01*
X2730000Y-1756380D01*
X2740238Y-1748715D02*
X2740238Y-1756380D01*
X2740238Y-1752000D02*
X2740786Y-1750357D01*
X2741881Y-1749262D01*
X2742976Y-1748715D01*
X2744619Y-1748715D01*
X2748396Y-1748715D02*
X2747301Y-1749262D01*
X2746206Y-1750357D01*
X2745659Y-1752000D01*
X2745659Y-1753095D01*
X2746206Y-1754737D01*
X2747301Y-1755832D01*
X2748396Y-1756380D01*
X2750039Y-1756380D01*
X2751134Y-1755832D01*
X2752229Y-1754737D01*
X2752776Y-1753095D01*
X2752776Y-1752000D01*
X2752229Y-1750357D01*
X2751134Y-1749262D01*
X2750039Y-1748715D01*
X2748396Y-1748715D01*
X2757485Y-1744882D02*
X2758032Y-1745430D01*
X2758580Y-1744882D01*
X2758032Y-1744335D01*
X2757485Y-1744882D01*
X2758032Y-1748715D02*
X2758032Y-1758022D01*
X2757485Y-1759665D01*
X2756390Y-1760212D01*
X2755295Y-1760212D01*
X2760715Y-1752000D02*
X2767285Y-1752000D01*
X2767285Y-1750905D01*
X2766737Y-1749810D01*
X2766190Y-1749262D01*
X2765095Y-1748715D01*
X2763452Y-1748715D01*
X2762357Y-1749262D01*
X2761263Y-1750357D01*
X2760715Y-1752000D01*
X2760715Y-1753095D01*
X2761263Y-1754737D01*
X2762357Y-1755832D01*
X2763452Y-1756380D01*
X2765095Y-1756380D01*
X2766190Y-1755832D01*
X2767285Y-1754737D01*
X2776319Y-1750357D02*
X2775224Y-1749262D01*
X2774129Y-1748715D01*
X2772486Y-1748715D01*
X2771391Y-1749262D01*
X2770296Y-1750357D01*
X2769749Y-1752000D01*
X2769749Y-1753095D01*
X2770296Y-1754737D01*
X2771391Y-1755832D01*
X2772486Y-1756380D01*
X2774129Y-1756380D01*
X2775224Y-1755832D01*
X2776319Y-1754737D01*
X2780425Y-1744882D02*
X2780425Y-1754190D01*
X2780973Y-1755832D01*
X2782068Y-1756380D01*
X2783163Y-1756380D01*
X2778782Y-1748715D02*
X2782615Y-1748715D01*
X2797124Y-1744882D02*
X2796029Y-1745430D01*
X2794934Y-1746525D01*
X2794386Y-1747620D01*
X2793839Y-1749262D01*
X2793839Y-1752000D01*
X2794386Y-1753642D01*
X2794934Y-1754737D01*
X2796029Y-1755832D01*
X2797124Y-1756380D01*
X2799314Y-1756380D01*
X2800409Y-1755832D01*
X2801504Y-1754737D01*
X2802051Y-1753642D01*
X2802599Y-1752000D01*
X2802599Y-1749262D01*
X2802051Y-1747620D01*
X2801504Y-1746525D01*
X2800409Y-1745430D01*
X2799314Y-1744882D01*
X2797124Y-1744882D01*
X2805282Y-1748715D02*
X2807472Y-1756380D01*
X2809662Y-1748715D02*
X2807472Y-1756380D01*
X2809662Y-1748715D02*
X2811852Y-1756380D01*
X2814042Y-1748715D02*
X2811852Y-1756380D01*
X2816725Y-1748715D02*
X2816725Y-1756380D01*
X2816725Y-1750905D02*
X2818367Y-1749262D01*
X2819462Y-1748715D01*
X2821104Y-1748715D01*
X2822199Y-1749262D01*
X2822747Y-1750905D01*
X2822747Y-1756380D01*
X2825758Y-1752000D02*
X2832328Y-1752000D01*
X2832328Y-1750905D01*
X2831781Y-1749810D01*
X2831233Y-1749262D01*
X2830138Y-1748715D01*
X2828496Y-1748715D01*
X2827401Y-1749262D01*
X2826306Y-1750357D01*
X2825758Y-1752000D01*
X2825758Y-1753095D01*
X2826306Y-1754737D01*
X2827401Y-1755832D01*
X2828496Y-1756380D01*
X2830138Y-1756380D01*
X2831233Y-1755832D01*
X2832328Y-1754737D01*
X2834792Y-1748715D02*
X2834792Y-1756380D01*
X2834792Y-1752000D02*
X2835339Y-1750357D01*
X2836435Y-1749262D01*
X2837530Y-1748715D01*
X2839172Y-1748715D01*
X2840760Y-1748715D02*
X2840212Y-1749262D01*
X2840760Y-1749810D01*
X2841307Y-1749262D01*
X2840760Y-1748715D01*
X2840760Y-1755285D02*
X2840212Y-1755832D01*
X2840760Y-1756380D01*
X2841307Y-1755832D01*
X2840760Y-1755285D01*
X3010000Y-1744882D02*
X3010000Y-1756380D01*
X3010000Y-1744882D02*
X3014928Y-1744882D01*
X3016570Y-1745430D01*
X3017118Y-1745977D01*
X3017665Y-1747072D01*
X3017665Y-1748167D01*
X3017118Y-1749262D01*
X3016570Y-1749810D01*
X3014928Y-1750357D01*
X3010000Y-1750357D02*
X3014928Y-1750357D01*
X3016570Y-1750905D01*
X3017118Y-1751452D01*
X3017665Y-1752547D01*
X3017665Y-1754190D01*
X3017118Y-1755285D01*
X3016570Y-1755832D01*
X3014928Y-1756380D01*
X3010000Y-1756380D01*
X3023523Y-1744882D02*
X3022428Y-1745430D01*
X3021333Y-1746525D01*
X3020786Y-1747620D01*
X3020238Y-1749262D01*
X3020238Y-1752000D01*
X3020786Y-1753642D01*
X3021333Y-1754737D01*
X3022428Y-1755832D01*
X3023523Y-1756380D01*
X3025714Y-1756380D01*
X3026808Y-1755832D01*
X3027903Y-1754737D01*
X3028451Y-1753642D01*
X3028998Y-1752000D01*
X3028998Y-1749262D01*
X3028451Y-1747620D01*
X3027903Y-1746525D01*
X3026808Y-1745430D01*
X3025714Y-1744882D01*
X3023523Y-1744882D01*
X3040441Y-1756380D02*
X3036061Y-1744882D01*
X3031681Y-1756380D01*
X3033324Y-1752547D02*
X3038799Y-1752547D01*
X3043124Y-1744882D02*
X3043124Y-1756380D01*
X3043124Y-1744882D02*
X3048051Y-1744882D01*
X3049694Y-1745430D01*
X3050241Y-1745977D01*
X3050789Y-1747072D01*
X3050789Y-1748167D01*
X3050241Y-1749262D01*
X3049694Y-1749810D01*
X3048051Y-1750357D01*
X3043124Y-1750357D01*
X3046956Y-1750357D02*
X3050789Y-1756380D01*
X3053362Y-1744882D02*
X3053362Y-1756380D01*
X3053362Y-1744882D02*
X3057195Y-1744882D01*
X3058837Y-1745430D01*
X3059932Y-1746525D01*
X3060480Y-1747620D01*
X3061027Y-1749262D01*
X3061027Y-1752000D01*
X3060480Y-1753642D01*
X3059932Y-1754737D01*
X3058837Y-1755832D01*
X3057195Y-1756380D01*
X3053362Y-1756380D01*
X3072634Y-1744882D02*
X3072634Y-1756380D01*
X3072634Y-1744882D02*
X3080299Y-1756380D01*
X3080299Y-1744882D02*
X3080299Y-1756380D01*
X3083475Y-1744882D02*
X3083475Y-1753095D01*
X3084023Y-1754737D01*
X3085117Y-1755832D01*
X3086760Y-1756380D01*
X3087855Y-1756380D01*
X3089497Y-1755832D01*
X3090592Y-1754737D01*
X3091140Y-1753095D01*
X3091140Y-1744882D01*
X3094315Y-1744882D02*
X3094315Y-1756380D01*
X3094315Y-1744882D02*
X3098695Y-1756380D01*
X3103076Y-1744882D02*
X3098695Y-1756380D01*
X3103076Y-1744882D02*
X3103076Y-1756380D01*
X3106360Y-1744882D02*
X3106360Y-1756380D01*
X3106360Y-1744882D02*
X3111288Y-1744882D01*
X3112931Y-1745430D01*
X3113478Y-1745977D01*
X3114026Y-1747072D01*
X3114026Y-1748167D01*
X3113478Y-1749262D01*
X3112931Y-1749810D01*
X3111288Y-1750357D01*
X3106360Y-1750357D02*
X3111288Y-1750357D01*
X3112931Y-1750905D01*
X3113478Y-1751452D01*
X3114026Y-1752547D01*
X3114026Y-1754190D01*
X3113478Y-1755285D01*
X3112931Y-1755832D01*
X3111288Y-1756380D01*
X3106360Y-1756380D01*
X3123716Y-1744882D02*
X3116599Y-1744882D01*
X3116599Y-1756380D01*
X3123716Y-1756380D01*
X3116599Y-1750357D02*
X3120979Y-1750357D01*
X3125633Y-1744882D02*
X3125633Y-1756380D01*
X3125633Y-1744882D02*
X3130560Y-1744882D01*
X3132202Y-1745430D01*
X3132750Y-1745977D01*
X3133298Y-1747072D01*
X3133298Y-1748167D01*
X3132750Y-1749262D01*
X3132202Y-1749810D01*
X3130560Y-1750357D01*
X3125633Y-1750357D01*
X3129465Y-1750357D02*
X3133298Y-1756380D01*
X3136418Y-1748715D02*
X3135871Y-1749262D01*
X3136418Y-1749810D01*
X3136966Y-1749262D01*
X3136418Y-1748715D01*
X3136418Y-1755285D02*
X3135871Y-1755832D01*
X3136418Y-1756380D01*
X3136966Y-1755832D01*
X3136418Y-1755285D01*
X3018213Y-1687620D02*
X3017665Y-1686525D01*
X3016570Y-1685430D01*
X3015475Y-1684882D01*
X3013285Y-1684882D01*
X3012190Y-1685430D01*
X3011095Y-1686525D01*
X3010547Y-1687620D01*
X3010000Y-1689262D01*
X3010000Y-1692000D01*
X3010547Y-1693642D01*
X3011095Y-1694737D01*
X3012190Y-1695832D01*
X3013285Y-1696380D01*
X3015475Y-1696380D01*
X3016570Y-1695832D01*
X3017665Y-1694737D01*
X3018213Y-1693642D01*
X3018213Y-1692000D01*
X3015475Y-1692000D02*
X3018213Y-1692000D01*
X3027958Y-1684882D02*
X3020841Y-1684882D01*
X3020841Y-1696380D01*
X3027958Y-1696380D01*
X3020841Y-1690357D02*
X3025221Y-1690357D01*
X3029875Y-1684882D02*
X3029875Y-1696380D01*
X3029875Y-1684882D02*
X3034802Y-1684882D01*
X3036444Y-1685430D01*
X3036992Y-1685977D01*
X3037539Y-1687072D01*
X3037539Y-1688167D01*
X3036992Y-1689262D01*
X3036444Y-1689810D01*
X3034802Y-1690357D01*
X3029875Y-1690357D01*
X3033707Y-1690357D02*
X3037539Y-1696380D01*
X3040113Y-1684882D02*
X3040113Y-1696380D01*
X3040113Y-1684882D02*
X3045040Y-1684882D01*
X3046683Y-1685430D01*
X3047230Y-1685977D01*
X3047778Y-1687072D01*
X3047778Y-1688167D01*
X3047230Y-1689262D01*
X3046683Y-1689810D01*
X3045040Y-1690357D01*
X3040113Y-1690357D02*
X3045040Y-1690357D01*
X3046683Y-1690905D01*
X3047230Y-1691452D01*
X3047778Y-1692547D01*
X3047778Y-1694190D01*
X3047230Y-1695285D01*
X3046683Y-1695832D01*
X3045040Y-1696380D01*
X3040113Y-1696380D01*
X3057469Y-1684882D02*
X3050351Y-1684882D01*
X3050351Y-1696380D01*
X3057469Y-1696380D01*
X3050351Y-1690357D02*
X3054731Y-1690357D01*
X3059385Y-1684882D02*
X3059385Y-1696380D01*
X3059385Y-1684882D02*
X3064312Y-1684882D01*
X3065955Y-1685430D01*
X3066502Y-1685977D01*
X3067050Y-1687072D01*
X3067050Y-1688167D01*
X3066502Y-1689262D01*
X3065955Y-1689810D01*
X3064312Y-1690357D01*
X3059385Y-1690357D01*
X3063217Y-1690357D02*
X3067050Y-1696380D01*
X3078657Y-1684882D02*
X3078657Y-1696380D01*
X3078657Y-1684882D02*
X3085775Y-1684882D01*
X3078657Y-1690357D02*
X3083037Y-1690357D01*
X3087088Y-1684882D02*
X3087088Y-1696380D01*
X3089497Y-1684882D02*
X3089497Y-1696380D01*
X3096068Y-1696380D01*
X3104444Y-1684882D02*
X3097327Y-1684882D01*
X3097327Y-1696380D01*
X3104444Y-1696380D01*
X3097327Y-1690357D02*
X3101707Y-1690357D01*
X3106908Y-1688715D02*
X3106360Y-1689262D01*
X3106908Y-1689810D01*
X3107455Y-1689262D01*
X3106908Y-1688715D01*
X3106908Y-1695285D02*
X3106360Y-1695832D01*
X3106908Y-1696380D01*
X3107455Y-1695832D01*
X3106908Y-1695285D01*
X3397714Y-1774954D02*
X3397714Y-1774240D01*
X3398428Y-1772811D01*
X3399142Y-1772097D01*
X3400571Y-1771383D01*
X3403427Y-1771383D01*
X3404856Y-1772097D01*
X3405570Y-1772811D01*
X3406284Y-1774240D01*
X3406284Y-1775668D01*
X3405570Y-1777096D01*
X3404142Y-1779238D01*
X3397000Y-1786380D01*
X3406998Y-1786380D01*
X3418924Y-1773526D02*
X3418210Y-1772097D01*
X3416068Y-1771383D01*
X3414639Y-1771383D01*
X3412497Y-1772097D01*
X3411068Y-1774240D01*
X3410354Y-1777810D01*
X3410354Y-1781381D01*
X3411068Y-1784238D01*
X3412497Y-1785666D01*
X3414639Y-1786380D01*
X3415353Y-1786380D01*
X3417496Y-1785666D01*
X3418924Y-1784238D01*
X3419638Y-1782095D01*
X3419638Y-1781381D01*
X3418924Y-1779238D01*
X3417496Y-1777810D01*
X3415353Y-1777096D01*
X3414639Y-1777096D01*
X3412497Y-1777810D01*
X3411068Y-1779238D01*
X3410354Y-1781381D01*
X3423637Y-1784952D02*
X3422923Y-1785666D01*
X3423637Y-1786380D01*
X3424352Y-1785666D01*
X3423637Y-1784952D01*
X3431921Y-1771383D02*
X3429779Y-1772097D01*
X3428351Y-1774240D01*
X3427636Y-1777810D01*
X3427636Y-1779953D01*
X3428351Y-1783523D01*
X3429779Y-1785666D01*
X3431921Y-1786380D01*
X3433350Y-1786380D01*
X3435492Y-1785666D01*
X3436920Y-1783523D01*
X3437634Y-1779953D01*
X3437634Y-1777810D01*
X3436920Y-1774240D01*
X3435492Y-1772097D01*
X3433350Y-1771383D01*
X3431921Y-1771383D01*
X3440991Y-1774240D02*
X3442419Y-1773526D01*
X3444561Y-1771383D01*
X3444561Y-1786380D01*
X3452702Y-1784952D02*
X3451988Y-1785666D01*
X3452702Y-1786380D01*
X3453417Y-1785666D01*
X3452702Y-1784952D01*
X3457416Y-1774954D02*
X3457416Y-1774240D01*
X3458130Y-1772811D01*
X3458844Y-1772097D01*
X3460272Y-1771383D01*
X3463129Y-1771383D01*
X3464557Y-1772097D01*
X3465271Y-1772811D01*
X3465985Y-1774240D01*
X3465985Y-1775668D01*
X3465271Y-1777096D01*
X3463843Y-1779238D01*
X3456702Y-1786380D01*
X3466700Y-1786380D01*
X3474341Y-1771383D02*
X3472198Y-1772097D01*
X3470770Y-1774240D01*
X3470056Y-1777810D01*
X3470056Y-1779953D01*
X3470770Y-1783523D01*
X3472198Y-1785666D01*
X3474341Y-1786380D01*
X3475769Y-1786380D01*
X3477911Y-1785666D01*
X3479340Y-1783523D01*
X3480054Y-1779953D01*
X3480054Y-1777810D01*
X3479340Y-1774240D01*
X3477911Y-1772097D01*
X3475769Y-1771383D01*
X3474341Y-1771383D01*
X3484124Y-1774954D02*
X3484124Y-1774240D01*
X3484838Y-1772811D01*
X3485552Y-1772097D01*
X3486981Y-1771383D01*
X3489837Y-1771383D01*
X3491266Y-1772097D01*
X3491980Y-1772811D01*
X3492694Y-1774240D01*
X3492694Y-1775668D01*
X3491980Y-1777096D01*
X3490551Y-1779238D01*
X3483410Y-1786380D01*
X3493408Y-1786380D01*
X3497479Y-1774954D02*
X3497479Y-1774240D01*
X3498193Y-1772811D01*
X3498907Y-1772097D01*
X3500335Y-1771383D01*
X3503192Y-1771383D01*
X3504620Y-1772097D01*
X3505334Y-1772811D01*
X3506048Y-1774240D01*
X3506048Y-1775668D01*
X3505334Y-1777096D01*
X3503906Y-1779238D01*
X3496765Y-1786380D01*
X3506762Y-1786380D01*
X3250000Y-1601619D02*
X3254285Y-1601619D01*
X3255713Y-1601143D01*
X3256189Y-1600667D01*
X3256666Y-1599715D01*
X3256666Y-1598286D01*
X3256189Y-1597334D01*
X3255713Y-1596858D01*
X3254285Y-1596382D01*
X3250000Y-1596382D01*
X3250000Y-1606380D01*
X3266520Y-1606380D02*
X3262712Y-1596382D01*
X3258903Y-1606380D01*
X3260331Y-1603047D02*
X3265092Y-1603047D01*
X3268853Y-1596382D02*
X3268853Y-1606380D01*
X3268853Y-1596382D02*
X3273138Y-1596382D01*
X3274566Y-1596858D01*
X3275042Y-1597334D01*
X3275518Y-1598286D01*
X3275518Y-1599238D01*
X3275042Y-1600191D01*
X3274566Y-1600667D01*
X3273138Y-1601143D01*
X3268853Y-1601143D01*
X3272186Y-1601143D02*
X3275518Y-1606380D01*
X3281089Y-1596382D02*
X3281089Y-1606380D01*
X3277756Y-1596382D02*
X3284421Y-1596382D01*
X3293467Y-1596382D02*
X3293467Y-1606380D01*
X3293467Y-1596382D02*
X3300132Y-1606380D01*
X3300132Y-1596382D02*
X3300132Y-1606380D01*
X3302894Y-1596382D02*
X3302894Y-1603523D01*
X3303370Y-1604951D01*
X3304322Y-1605904D01*
X3305750Y-1606380D01*
X3306702Y-1606380D01*
X3308130Y-1605904D01*
X3309083Y-1604951D01*
X3309559Y-1603523D01*
X3309559Y-1596382D01*
X3312320Y-1596382D02*
X3312320Y-1606380D01*
X3312320Y-1596382D02*
X3316129Y-1606380D01*
X3319938Y-1596382D02*
X3316129Y-1606380D01*
X3319938Y-1596382D02*
X3319938Y-1606380D01*
X3322794Y-1596382D02*
X3322794Y-1606380D01*
X3322794Y-1596382D02*
X3327079Y-1596382D01*
X3328507Y-1596858D01*
X3328983Y-1597334D01*
X3329460Y-1598286D01*
X3329460Y-1599238D01*
X3328983Y-1600191D01*
X3328507Y-1600667D01*
X3327079Y-1601143D01*
X3322794Y-1601143D02*
X3327079Y-1601143D01*
X3328507Y-1601619D01*
X3328983Y-1602095D01*
X3329460Y-1603047D01*
X3329460Y-1604475D01*
X3328983Y-1605428D01*
X3328507Y-1605904D01*
X3327079Y-1606380D01*
X3322794Y-1606380D01*
X3337886Y-1596382D02*
X3331697Y-1596382D01*
X3331697Y-1606380D01*
X3337886Y-1606380D01*
X3331697Y-1601143D02*
X3335506Y-1601143D01*
X3339553Y-1596382D02*
X3339553Y-1606380D01*
X3339553Y-1596382D02*
X3343837Y-1596382D01*
X3345266Y-1596858D01*
X3345742Y-1597334D01*
X3346218Y-1598286D01*
X3346218Y-1599238D01*
X3345742Y-1600191D01*
X3345266Y-1600667D01*
X3343837Y-1601143D01*
X3339553Y-1601143D01*
X3342885Y-1601143D02*
X3346218Y-1606380D01*
X3348931Y-1599715D02*
X3348455Y-1600191D01*
X3348931Y-1600667D01*
X3349407Y-1600191D01*
X3348931Y-1599715D01*
X3348931Y-1605428D02*
X3348455Y-1605904D01*
X3348931Y-1606380D01*
X3349407Y-1605904D01*
X3348931Y-1605428D01*
D16*
X3477000Y-1812380D02*
X3477000Y-1806380D01*
X3538200Y-1616380D02*
X3538200Y-1616380D01*
X3427000Y-1814380D02*
X3427000Y-1804380D01*
X3425400Y-1832730D02*
X3425400Y-1820030D01*
X3450800Y-1832730D02*
X3450800Y-1820030D01*
X3476200Y-1832730D02*
X3476200Y-1820030D01*
X3501600Y-1832730D02*
X3501600Y-1820030D01*
X3527000Y-1814380D02*
X3527000Y-1804380D01*
X3527000Y-1832730D02*
X3527000Y-1820030D01*
X3240000Y-1616380D02*
X3240000Y-1586380D01*
X3425400Y-1826380D02*
X3527000Y-1826380D01*
X3427000Y-1809380D02*
X3527000Y-1809380D01*
X3240000Y-1616380D02*
X3538200Y-1616380D01*
X2720000Y-1661380D02*
X3538200Y-1661380D01*
X3392333Y-1822381D02*
X3389000Y-1827047D01*
X3393999Y-1827047D01*
X3392333Y-1822381D02*
X3392333Y-1829380D01*
X3397232Y-1822381D02*
X3396232Y-1822715D01*
X3395565Y-1823714D01*
X3395232Y-1825381D01*
X3395232Y-1826380D01*
X3395565Y-1828047D01*
X3396232Y-1829047D01*
X3397232Y-1829380D01*
X3397898Y-1829380D01*
X3398898Y-1829047D01*
X3399565Y-1828047D01*
X3399898Y-1826380D01*
X3399898Y-1825381D01*
X3399565Y-1823714D01*
X3398898Y-1822715D01*
X3397898Y-1822381D01*
X3397232Y-1822381D01*
X3403464Y-1822381D02*
X3402464Y-1822715D01*
X3401797Y-1823714D01*
X3401464Y-1825381D01*
X3401464Y-1826380D01*
X3401797Y-1828047D01*
X3402464Y-1829047D01*
X3403464Y-1829380D01*
X3404130Y-1829380D01*
X3405130Y-1829047D01*
X3405797Y-1828047D01*
X3406130Y-1826380D01*
X3406130Y-1825381D01*
X3405797Y-1823714D01*
X3405130Y-1822715D01*
X3404130Y-1822381D01*
X3403464Y-1822381D01*
X3407696Y-1824714D02*
X3407696Y-1829380D01*
X3407696Y-1826047D02*
X3408696Y-1825047D01*
X3409362Y-1824714D01*
X3410362Y-1824714D01*
X3411029Y-1825047D01*
X3411362Y-1826047D01*
X3411362Y-1829380D01*
X3411362Y-1826047D02*
X3412362Y-1825047D01*
X3413028Y-1824714D01*
X3414028Y-1824714D01*
X3414695Y-1825047D01*
X3415028Y-1826047D01*
X3415028Y-1829380D01*
X3417894Y-1822381D02*
X3418227Y-1822715D01*
X3418560Y-1822381D01*
X3418227Y-1822048D01*
X3417894Y-1822381D01*
X3418227Y-1824714D02*
X3418227Y-1829380D01*
X3419794Y-1822381D02*
X3419794Y-1829380D01*
X3390000Y-1806714D02*
X3390667Y-1806381D01*
X3391666Y-1805381D01*
X3391666Y-1812380D01*
X3397132Y-1805381D02*
X3396132Y-1805715D01*
X3395466Y-1806714D01*
X3395132Y-1808381D01*
X3395132Y-1809380D01*
X3395466Y-1811047D01*
X3396132Y-1812047D01*
X3397132Y-1812380D01*
X3397798Y-1812380D01*
X3398798Y-1812047D01*
X3399465Y-1811047D01*
X3399798Y-1809380D01*
X3399798Y-1808381D01*
X3399465Y-1806714D01*
X3398798Y-1805715D01*
X3397798Y-1805381D01*
X3397132Y-1805381D01*
X3401364Y-1807714D02*
X3401364Y-1812380D01*
X3401364Y-1809047D02*
X3402364Y-1808047D01*
X3403031Y-1807714D01*
X3404030Y-1807714D01*
X3404697Y-1808047D01*
X3405030Y-1809047D01*
X3405030Y-1812380D01*
X3405030Y-1809047D02*
X3406030Y-1808047D01*
X3406696Y-1807714D01*
X3407697Y-1807714D01*
X3408363Y-1808047D01*
X3408696Y-1809047D01*
X3408696Y-1812380D01*
X3410896Y-1807714D02*
X3410896Y-1812380D01*
X3410896Y-1809047D02*
X3411895Y-1808047D01*
X3412562Y-1807714D01*
X3413562Y-1807714D01*
X3414228Y-1808047D01*
X3414561Y-1809047D01*
X3414561Y-1812380D01*
X3414561Y-1809047D02*
X3415561Y-1808047D01*
X3416228Y-1807714D01*
X3417228Y-1807714D01*
X3417894Y-1808047D01*
X3418228Y-1809047D01*
X3418228Y-1812380D01*
D17*
X2733809Y-1770383D02*
X2733809Y-1779524D01*
X2730000Y-1772668D02*
X2737617Y-1777239D01*
X2737617Y-1772668D02*
X2730000Y-1777239D01*
X2744702Y-1770383D02*
X2744702Y-1779524D01*
X2740893Y-1772668D02*
X2748510Y-1777239D01*
X2748510Y-1772668D02*
X2740893Y-1777239D01*
X3014571Y-1770383D02*
X3012285Y-1771145D01*
X3010762Y-1773430D01*
X3010000Y-1777239D01*
X3010000Y-1779524D01*
X3010762Y-1783333D01*
X3012285Y-1785618D01*
X3014571Y-1786380D01*
X3016094Y-1786380D01*
X3018379Y-1785618D01*
X3019903Y-1783333D01*
X3020664Y-1779524D01*
X3020664Y-1777239D01*
X3019903Y-1773430D01*
X3018379Y-1771145D01*
X3016094Y-1770383D01*
X3014571Y-1770383D01*
X3031862Y-1770383D02*
X3024245Y-1781048D01*
X3035671Y-1781048D01*
X3031862Y-1770383D02*
X3031862Y-1786380D01*
X3038489Y-1779524D02*
X3052201Y-1779524D01*
X3060732Y-1770383D02*
X3060732Y-1779524D01*
X3056924Y-1772668D02*
X3064541Y-1777239D01*
X3064541Y-1772668D02*
X3056924Y-1777239D01*
X3071625Y-1770383D02*
X3071625Y-1779524D01*
X3067816Y-1772668D02*
X3075434Y-1777239D01*
X3075434Y-1772668D02*
X3067816Y-1777239D01*
D18*
X2735951Y-1626385D02*
X2735951Y-1640668D01*
X2730000Y-1629956D02*
X2741902Y-1637097D01*
X2741902Y-1629956D02*
X2730000Y-1637097D01*
X2752971Y-1626385D02*
X2752971Y-1640668D01*
X2747020Y-1629956D02*
X2758922Y-1637097D01*
X2758922Y-1629956D02*
X2747020Y-1637097D01*
D21*
X65000Y177823D02*
D03*
X65000Y116863D02*
D03*
X900000Y154946D02*
D03*
X900000Y215906D02*
D03*
D22*
X814180Y266629D02*
D03*
X814180Y250629D02*
D03*
D32*
X752150Y54525D02*
D03*
X771150Y54525D02*
D03*
D34*
X770650Y73020D02*
D03*
X754650Y73020D02*
D03*
D37*
X795130Y267129D02*
D03*
X795130Y248129D02*
D03*
D48*
X640000Y170000D02*
D03*
D93*
X117000Y242800D02*
D03*
X117000Y255500D02*
D03*
X117000Y268200D02*
D03*
X117000Y331700D02*
D03*
X117000Y319000D02*
D03*
X117000Y306300D02*
D03*
X117000Y293600D02*
D03*
X117000Y280900D02*
D03*
D99*
X843000Y200090D02*
D03*
X843000Y340090D02*
D03*
X843000Y320090D02*
D03*
X843000Y300090D02*
D03*
X843000Y280090D02*
D03*
X843000Y260090D02*
D03*
X843000Y240090D02*
D03*
X843000Y220090D02*
D03*
X707000Y200090D02*
D03*
X707000Y220090D02*
D03*
X707000Y240090D02*
D03*
X707000Y260090D02*
D03*
X707000Y280090D02*
D03*
X707000Y300090D02*
D03*
X707000Y320090D02*
D03*
X707000Y340090D02*
D03*
D104*
X171248Y57623D02*
X171448Y57422D01*
X171047Y57823D02*
X171248Y57623D01*
X214778Y57422D02*
X236750Y79394D01*
X171248Y57623D02*
X214578Y57623D01*
X235000Y81144D02*
X238500Y81144D01*
D106*
X107382Y35333D02*
X223514Y35333D01*
X246004Y57823D01*
X107171Y35122D02*
X107382Y35333D01*
X764650Y275919D02*
X764650Y279740D01*
X765000Y280090D01*
X770380Y56025D02*
X771880Y54525D01*
X794945Y267314D02*
X794945Y277669D01*
X794945Y267314D02*
X795130Y267129D01*
X814180Y266629D02*
X814180Y277669D01*
X770650Y73020D02*
X770650Y80020D01*
X770650Y72545D02*
X770650Y73020D01*
X750650Y82729D02*
X750650Y91020D01*
X750650Y82729D02*
X754650Y78729D01*
X754650Y73020D02*
X754650Y78729D01*
X753650Y72275D02*
X754650Y73275D01*
X770380Y72275D02*
X770650Y72545D01*
X770650Y80020D02*
X772650Y82020D01*
X772650Y91020D01*
X770380Y56025D02*
X770380Y72275D01*
X753650Y55295D02*
X753650Y72275D01*
X752880Y54525D02*
X753650Y55295D01*
X289287Y237243D02*
X289370Y237325D01*
X289062Y224933D02*
X289370Y224625D01*
D107*
X148500Y48917D02*
X152505Y44912D01*
X182866Y44912D02*
X182960Y45007D01*
X152505Y44912D02*
X182866Y44912D01*
X148500Y48917D02*
X148500Y81144D01*
X182960Y45007D02*
X199000Y45007D01*
X203408Y70500D02*
X206178Y70500D01*
X202187Y71721D02*
X203408Y70500D01*
X202500Y93088D02*
X202501Y93161D01*
X214764Y110333D02*
X219743Y105354D01*
X218661Y97230D02*
X219743Y98312D01*
X202501Y105112D02*
X207722Y110333D01*
X214764Y110333D01*
X202501Y93161D02*
X202501Y105112D01*
X219743Y98312D02*
X219743Y105354D01*
D110*
X171000Y120114D02*
D03*
X232470Y58644D02*
D03*
X913202Y337823D02*
D03*
X908202Y287823D02*
D03*
X913202Y277823D02*
D03*
X908202Y267823D02*
D03*
X913202Y257823D02*
D03*
X908202Y247823D02*
D03*
X913202Y237823D02*
D03*
X913202Y137823D02*
D03*
X908202Y127823D02*
D03*
X913202Y117823D02*
D03*
X908202Y107823D02*
D03*
X913202Y97823D02*
D03*
X908202Y87823D02*
D03*
X913202Y77823D02*
D03*
X908202Y67823D02*
D03*
X913202Y57823D02*
D03*
X913202Y17823D02*
D03*
X903202Y337823D02*
D03*
X898202Y287823D02*
D03*
X903202Y277823D02*
D03*
X898202Y267823D02*
D03*
X903202Y257823D02*
D03*
X898202Y247823D02*
D03*
X903202Y237823D02*
D03*
X903202Y137823D02*
D03*
X898202Y127823D02*
D03*
X903202Y117823D02*
D03*
X898202Y107823D02*
D03*
X903202Y97823D02*
D03*
X898202Y87823D02*
D03*
X903202Y77823D02*
D03*
X898202Y67823D02*
D03*
X903202Y17823D02*
D03*
X893202Y337823D02*
D03*
X888202Y327823D02*
D03*
X888202Y287823D02*
D03*
X893202Y277823D02*
D03*
X888202Y267823D02*
D03*
X893202Y257823D02*
D03*
X888202Y247823D02*
D03*
X893202Y237823D02*
D03*
X893202Y137823D02*
D03*
X888202Y127823D02*
D03*
X893202Y117823D02*
D03*
X888202Y107823D02*
D03*
X893202Y97823D02*
D03*
X888202Y87823D02*
D03*
X893202Y77823D02*
D03*
X888202Y67823D02*
D03*
X893202Y17823D02*
D03*
X883202Y337823D02*
D03*
X878202Y327823D02*
D03*
X878202Y307823D02*
D03*
X883202Y297823D02*
D03*
X878202Y287823D02*
D03*
X883202Y277823D02*
D03*
X878202Y267823D02*
D03*
X883202Y257823D02*
D03*
X878202Y247823D02*
D03*
X883202Y237823D02*
D03*
X883202Y137823D02*
D03*
X878202Y127823D02*
D03*
X883202Y117823D02*
D03*
X878202Y107823D02*
D03*
X883202Y97823D02*
D03*
X878202Y87823D02*
D03*
X883202Y77823D02*
D03*
X878202Y67823D02*
D03*
X883202Y57823D02*
D03*
X878202Y47823D02*
D03*
X878202Y27823D02*
D03*
X883202Y17823D02*
D03*
X868202Y167823D02*
D03*
X873202Y157823D02*
D03*
X868202Y147823D02*
D03*
X873202Y137823D02*
D03*
X868202Y127823D02*
D03*
X873202Y117823D02*
D03*
X868202Y107823D02*
D03*
X873202Y97823D02*
D03*
X868202Y87823D02*
D03*
X873202Y77823D02*
D03*
X868202Y67823D02*
D03*
X873202Y57823D02*
D03*
X868202Y47823D02*
D03*
X873202Y37823D02*
D03*
X868202Y27823D02*
D03*
X873202Y17823D02*
D03*
X863202Y177823D02*
D03*
X858202Y167823D02*
D03*
X863202Y157823D02*
D03*
X858202Y147823D02*
D03*
X863202Y137823D02*
D03*
X858202Y127823D02*
D03*
X863202Y117823D02*
D03*
X858202Y107823D02*
D03*
X863202Y97823D02*
D03*
X858202Y87823D02*
D03*
X863202Y77823D02*
D03*
X858202Y67823D02*
D03*
X863202Y57823D02*
D03*
X863202Y17823D02*
D03*
X853202Y177823D02*
D03*
X848202Y167823D02*
D03*
X853202Y157823D02*
D03*
X848202Y147823D02*
D03*
X853202Y137823D02*
D03*
X848202Y127823D02*
D03*
X853202Y117823D02*
D03*
X848202Y107823D02*
D03*
X853202Y97823D02*
D03*
X848202Y87823D02*
D03*
X853202Y77823D02*
D03*
X848202Y67823D02*
D03*
X853202Y57823D02*
D03*
X853202Y17823D02*
D03*
X843202Y177823D02*
D03*
X843202Y157823D02*
D03*
X843202Y137823D02*
D03*
X843202Y117823D02*
D03*
X843202Y97823D02*
D03*
X843202Y77823D02*
D03*
X843202Y57823D02*
D03*
X843202Y17823D02*
D03*
X828202Y307823D02*
D03*
X823202Y317823D02*
D03*
X818202Y307823D02*
D03*
X823202Y297823D02*
D03*
X813202Y317823D02*
D03*
X808202Y307823D02*
D03*
X813202Y297823D02*
D03*
X808202Y227823D02*
D03*
X808202Y167823D02*
D03*
X808202Y107823D02*
D03*
X808202Y47823D02*
D03*
X803202Y317823D02*
D03*
X798202Y307823D02*
D03*
X803202Y297823D02*
D03*
X803202Y237823D02*
D03*
X803202Y197823D02*
D03*
X803202Y117823D02*
D03*
X798202Y47823D02*
D03*
X803202Y37823D02*
D03*
X793202Y317823D02*
D03*
X788202Y307823D02*
D03*
X793202Y297823D02*
D03*
X793202Y197823D02*
D03*
X788202Y47823D02*
D03*
X793202Y37823D02*
D03*
X783202Y317823D02*
D03*
X778202Y307823D02*
D03*
X783202Y297823D02*
D03*
X783202Y237823D02*
D03*
X778202Y227823D02*
D03*
X783202Y197823D02*
D03*
X778202Y167823D02*
D03*
X783202Y37823D02*
D03*
X773202Y317823D02*
D03*
X768202Y307823D02*
D03*
X773202Y297823D02*
D03*
X773202Y197823D02*
D03*
X773202Y177823D02*
D03*
X768202Y167823D02*
D03*
X763202Y317823D02*
D03*
X758202Y307823D02*
D03*
X763202Y297823D02*
D03*
X763202Y197823D02*
D03*
X763202Y177823D02*
D03*
X758202Y167823D02*
D03*
X753202Y317823D02*
D03*
X748202Y307823D02*
D03*
X753202Y297823D02*
D03*
X748202Y227823D02*
D03*
X753202Y197823D02*
D03*
X753202Y177823D02*
D03*
X753202Y37823D02*
D03*
X743202Y317823D02*
D03*
X738202Y307823D02*
D03*
X743202Y297823D02*
D03*
X738202Y287823D02*
D03*
X738202Y267823D02*
D03*
X738202Y247823D02*
D03*
X743202Y237823D02*
D03*
X738202Y227823D02*
D03*
X743202Y197823D02*
D03*
X738202Y47823D02*
D03*
X743202Y37823D02*
D03*
X733202Y277823D02*
D03*
X728202Y267823D02*
D03*
X733202Y257823D02*
D03*
X728202Y247823D02*
D03*
X733202Y237823D02*
D03*
X728202Y227823D02*
D03*
X733202Y197823D02*
D03*
X733202Y37823D02*
D03*
X723202Y277823D02*
D03*
X718202Y267823D02*
D03*
X723202Y257823D02*
D03*
X718202Y247823D02*
D03*
X723202Y237823D02*
D03*
X718202Y227823D02*
D03*
X723202Y197823D02*
D03*
X708202Y147823D02*
D03*
X708202Y127823D02*
D03*
X708202Y47823D02*
D03*
X698202Y187823D02*
D03*
X698202Y147823D02*
D03*
X703202Y137823D02*
D03*
X698202Y127823D02*
D03*
X703202Y117823D02*
D03*
X698202Y107823D02*
D03*
X703202Y37823D02*
D03*
X683202Y37823D02*
D03*
X593202Y237823D02*
D03*
X593202Y197823D02*
D03*
X593202Y177823D02*
D03*
X593202Y157823D02*
D03*
X583202Y337823D02*
D03*
X583202Y237823D02*
D03*
X573202Y337823D02*
D03*
X563202Y337823D02*
D03*
X553202Y337823D02*
D03*
X543202Y337823D02*
D03*
X533202Y337823D02*
D03*
X523202Y337823D02*
D03*
X523202Y77823D02*
D03*
X513202Y337823D02*
D03*
X503202Y337823D02*
D03*
X493202Y337823D02*
D03*
X483202Y337823D02*
D03*
X473202Y337823D02*
D03*
X468202Y327823D02*
D03*
X463202Y337823D02*
D03*
X458202Y327823D02*
D03*
X453202Y337823D02*
D03*
X438202Y67823D02*
D03*
X408202Y227823D02*
D03*
X398202Y227823D02*
D03*
X388202Y247823D02*
D03*
X378202Y247823D02*
D03*
X378202Y227823D02*
D03*
X378202Y207823D02*
D03*
X378202Y187823D02*
D03*
X368202Y247823D02*
D03*
X373202Y237823D02*
D03*
X358202Y247823D02*
D03*
X363202Y237823D02*
D03*
X348202Y247823D02*
D03*
X353202Y237823D02*
D03*
X338202Y247823D02*
D03*
X343202Y237823D02*
D03*
X328202Y247823D02*
D03*
X333202Y237823D02*
D03*
X318202Y247823D02*
D03*
X323202Y237823D02*
D03*
X318202Y147823D02*
D03*
X323202Y137823D02*
D03*
X313202Y137823D02*
D03*
X303202Y177823D02*
D03*
X293202Y197823D02*
D03*
X288202Y87823D02*
D03*
X283202Y97823D02*
D03*
X278202Y87823D02*
D03*
X283202Y77823D02*
D03*
X253202Y137823D02*
D03*
X253202Y117823D02*
D03*
X173202Y137823D02*
D03*
X168202Y107823D02*
D03*
X173202Y97823D02*
D03*
X173202Y77823D02*
D03*
X173202Y17823D02*
D03*
X163202Y137823D02*
D03*
X158202Y127823D02*
D03*
X158202Y107823D02*
D03*
X118202Y167823D02*
D03*
X123202Y77823D02*
D03*
X123202Y57823D02*
D03*
X118202Y47823D02*
D03*
X108202Y167823D02*
D03*
X108202Y127823D02*
D03*
X108202Y87823D02*
D03*
X113202Y77823D02*
D03*
X113202Y57823D02*
D03*
X113202Y17823D02*
D03*
X98202Y327823D02*
D03*
X103202Y317823D02*
D03*
X103202Y97823D02*
D03*
X103202Y77823D02*
D03*
X98202Y27823D02*
D03*
X103202Y17823D02*
D03*
X93202Y337823D02*
D03*
X88202Y327823D02*
D03*
X93202Y317823D02*
D03*
X88202Y307823D02*
D03*
X88202Y27823D02*
D03*
X93202Y17823D02*
D03*
X83202Y337823D02*
D03*
X78202Y327823D02*
D03*
X83202Y297823D02*
D03*
X78202Y287823D02*
D03*
X83202Y277823D02*
D03*
X78202Y267823D02*
D03*
X78202Y247823D02*
D03*
X78202Y227823D02*
D03*
X83202Y17823D02*
D03*
X73202Y337823D02*
D03*
X68202Y287823D02*
D03*
X73202Y277823D02*
D03*
X68202Y267823D02*
D03*
X73202Y257823D02*
D03*
X68202Y247823D02*
D03*
X73202Y237823D02*
D03*
X68202Y227823D02*
D03*
X73202Y77823D02*
D03*
X73202Y17823D02*
D03*
X63202Y337823D02*
D03*
X58202Y287823D02*
D03*
X63202Y277823D02*
D03*
X58202Y267823D02*
D03*
X63202Y257823D02*
D03*
X58202Y247823D02*
D03*
X63202Y237823D02*
D03*
X58202Y227823D02*
D03*
X63202Y77823D02*
D03*
X63202Y17823D02*
D03*
X53202Y337823D02*
D03*
X53202Y277823D02*
D03*
X53202Y257823D02*
D03*
X53202Y237823D02*
D03*
X53202Y77823D02*
D03*
X53202Y57823D02*
D03*
X53202Y17823D02*
D03*
X369154Y154020D02*
D03*
X382270Y154020D02*
D03*
D111*
X668215Y57299D02*
D03*
D112*
X693615Y57299D02*
D03*
D113*
X656831Y114784D02*
D03*
X638970Y327660D02*
D03*
X175868Y325957D02*
D03*
D114*
X682231Y114784D02*
D03*
X613570Y327660D02*
D03*
X150469Y325957D02*
D03*
D115*
X354045Y182075D02*
D03*
X335695Y182075D02*
D03*
X363220Y191250D02*
D03*
X344870Y191250D02*
D03*
X326520Y191250D02*
D03*
X354045Y200425D02*
D03*
X335695Y200425D02*
D03*
X363220Y209600D02*
D03*
X344870Y209600D02*
D03*
X326520Y209600D02*
D03*
X354045Y218775D02*
D03*
X335695Y218775D02*
D03*
X217453Y299955D02*
D03*
X207000Y299955D02*
D03*
X196624Y299955D02*
D03*
X228523Y288688D02*
D03*
X626465Y127784D02*
D03*
X496868Y89250D02*
D03*
X505015Y89250D02*
D03*
X513180Y89357D02*
D03*
X621000Y57434D02*
D03*
X603102Y57534D02*
D03*
X594152Y57534D02*
D03*
X107171Y35122D02*
D03*
X246004Y57823D02*
D03*
X132659Y50197D02*
D03*
X211243Y101833D02*
D03*
X210929Y80429D02*
D03*
X211243Y90833D02*
D03*
X765000Y280090D02*
D03*
X815000Y280000D02*
D03*
X805000Y280000D02*
D03*
X794945Y280000D02*
D03*
X785000Y280000D02*
D03*
X775000Y280000D02*
D03*
X585680Y57642D02*
D03*
X612009Y57534D02*
D03*
X580430Y14460D02*
D03*
X569930Y14460D02*
D03*
X565430Y39875D02*
D03*
X537240Y16872D02*
D03*
X288769Y7000D02*
D03*
X269870Y7000D02*
D03*
X358067Y27921D02*
D03*
X347744Y28621D02*
D03*
X358202Y38091D02*
D03*
X347744Y37823D02*
D03*
X338551Y28648D02*
D03*
X338551Y37481D02*
D03*
X148547Y229826D02*
D03*
X156935Y229826D02*
D03*
X165648Y238455D02*
D03*
X156935Y238455D02*
D03*
X148547Y238455D02*
D03*
X633500Y241110D02*
D03*
X625242Y240984D02*
D03*
X616000Y240984D02*
D03*
X607220Y241110D02*
D03*
X199000Y45007D02*
D03*
X171047Y57823D02*
D03*
X249500Y46131D02*
D03*
X631000Y48279D02*
D03*
X556068Y16872D02*
D03*
X449351Y18217D02*
D03*
X313243Y38947D02*
D03*
X526643Y47841D02*
D03*
X535430Y47828D02*
D03*
X517574Y47422D02*
D03*
X517560Y38636D02*
D03*
X508984Y47422D02*
D03*
X508970Y38636D02*
D03*
X500430Y55748D02*
D03*
X500416Y38536D02*
D03*
X500430Y47322D02*
D03*
X500430Y63750D02*
D03*
X409147Y180848D02*
D03*
X290830Y173825D02*
D03*
X308127Y54913D02*
D03*
X297720Y38760D02*
D03*
X273000Y71597D02*
D03*
X369665Y70741D02*
D03*
X352195Y70597D02*
D03*
X155945Y177025D02*
D03*
X165790Y229826D02*
D03*
X771880Y54525D02*
D03*
X560913Y199747D02*
D03*
X249500Y185812D02*
D03*
X202872Y253160D02*
D03*
X119540Y87808D02*
D03*
X793615Y176426D02*
D03*
X491560Y265580D02*
D03*
X670500Y254000D02*
D03*
X185485Y192374D02*
D03*
X155945Y197256D02*
D03*
X764650Y230418D02*
D03*
X794945Y230418D02*
D03*
X552047Y180102D02*
D03*
X508277Y169000D02*
D03*
X502925Y179000D02*
D03*
X524049Y174201D02*
D03*
X548240Y164963D02*
D03*
X292300Y75054D02*
D03*
X690533Y174505D02*
D03*
X211000Y209600D02*
D03*
X369154Y54441D02*
D03*
X200000Y267927D02*
D03*
X200000Y278000D02*
D03*
X200000Y288000D02*
D03*
X249800Y237158D02*
D03*
X249664Y225240D02*
D03*
X379234Y14460D02*
D03*
X234844Y251692D02*
D03*
X690533Y164505D02*
D03*
X348520Y150000D02*
D03*
X337695Y143910D02*
D03*
X412750Y119380D02*
D03*
X289370Y211925D02*
D03*
X290830Y186525D02*
D03*
X228592Y237160D02*
D03*
X229153Y225240D02*
D03*
X289370Y224625D02*
D03*
X289370Y237325D02*
D03*
X469513Y119237D02*
D03*
X459050Y119380D02*
D03*
X418935Y224625D02*
D03*
X418935Y237325D02*
D03*
X292300Y123025D02*
D03*
X310420Y120650D02*
D03*
X794650Y91020D02*
D03*
X783650Y91020D02*
D03*
X772650Y91020D02*
D03*
X761650Y91020D02*
D03*
X750650Y91020D02*
D03*
X739650Y91020D02*
D03*
X399320Y119380D02*
D03*
X422345Y97000D02*
D03*
X292300Y135725D02*
D03*
X292300Y148425D02*
D03*
X408601Y204370D02*
D03*
X418766Y204370D02*
D03*
X418831Y262725D02*
D03*
D116*
X55951Y98874D02*
D03*
X55951Y195874D02*
D03*
D117*
X764650Y244419D02*
D03*
X764650Y275919D02*
D03*
D118*
X238500Y81144D02*
D03*
X148500Y81144D02*
D03*
M02*
