G04*
G04 #@! TF.GenerationSoftware,Altium Limited,Altium Designer,21.0.9 (235)*
G04*
G04 Layer_Color=128*
%FSLAX44Y44*%
%MOMM*%
G71*
G04*
G04 #@! TF.SameCoordinates,D83CB673-9EFF-4C90-BE85-E941A3A9D43F*
G04*
G04*
G04 #@! TF.FilePolarity,Positive*
G04*
G01*
G75*
%ADD10C,0.2000*%
%ADD11C,0.1270*%
%ADD12C,0.2540*%
%ADD14C,0.1778*%
%ADD15C,0.1500*%
%ADD16C,0.1000*%
%ADD17C,0.1800*%
%ADD18C,0.3500*%
%ADD130C,0.0508*%
G36*
X2593426Y-1601897D02*
X2594273Y-1602179D01*
X2595402Y-1602602D01*
X2596389Y-1603166D01*
X2597236Y-1604154D01*
X2597800Y-1605565D01*
X2598082Y-1607258D01*
X2598082Y-1607540D01*
X2597941Y-1608105D01*
X2597800Y-1609093D01*
X2597377Y-1610080D01*
X2596813Y-1611209D01*
X2595825Y-1612056D01*
X2594414Y-1612761D01*
X2592580Y-1613043D01*
X2592156Y-1613043D01*
X2591733Y-1612902D01*
X2591169Y-1612761D01*
X2589758Y-1612338D01*
X2589052Y-1611914D01*
X2588347Y-1611350D01*
X2588347Y-1611209D01*
X2588065Y-1611068D01*
X2587500Y-1610221D01*
X2586936Y-1608951D01*
X2586795Y-1608105D01*
X2586654Y-1607258D01*
X2586654Y-1607117D01*
X2586654Y-1606835D01*
X2586795Y-1606412D01*
X2586936Y-1605988D01*
X2587500Y-1604718D01*
X2587923Y-1604013D01*
X2588488Y-1603449D01*
X2588629Y-1603307D01*
X2588770Y-1603166D01*
X2589617Y-1602602D01*
X2590887Y-1602038D01*
X2591733Y-1601755D01*
X2592862Y-1601755D01*
X2593426Y-1601897D01*
X2593426Y-1601897D02*
G37*
G36*
X2557305Y-1596958D02*
X2558434Y-1597099D01*
X2559845Y-1597099D01*
X2561256Y-1597381D01*
X2564501Y-1597805D01*
X2568029Y-1598651D01*
X2571556Y-1599639D01*
X2575084Y-1601050D01*
X2606689Y-1651422D01*
X2606689Y-1651563D01*
X2606689Y-1651845D01*
X2606548Y-1652409D01*
X2606548Y-1652974D01*
X2606407Y-1653820D01*
X2606266Y-1654808D01*
X2605843Y-1656924D01*
X2605843Y-1657065D01*
X2605702Y-1657489D01*
X2605561Y-1658053D01*
X2605420Y-1658759D01*
X2605137Y-1659746D01*
X2604855Y-1660734D01*
X2604149Y-1663133D01*
X2576636Y-1620098D01*
X2576495Y-1619957D01*
X2576353Y-1619534D01*
X2575789Y-1618969D01*
X2575225Y-1618405D01*
X2574519Y-1617841D01*
X2573673Y-1617276D01*
X2572826Y-1616853D01*
X2571697Y-1616712D01*
X2571274Y-1616712D01*
X2570851Y-1616853D01*
X2570286Y-1617135D01*
X2569581Y-1617558D01*
X2568734Y-1618123D01*
X2568029Y-1618828D01*
X2567182Y-1619957D01*
X2558011Y-1632515D01*
X2590322Y-1683451D01*
X2590181Y-1683592D01*
X2589617Y-1684015D01*
X2588770Y-1684720D01*
X2587641Y-1685567D01*
X2586089Y-1686696D01*
X2584255Y-1687825D01*
X2582280Y-1689095D01*
X2579881Y-1690364D01*
X2577341Y-1691634D01*
X2574378Y-1692904D01*
X2571415Y-1694033D01*
X2568029Y-1695162D01*
X2564501Y-1696008D01*
X2560833Y-1696714D01*
X2557023Y-1697137D01*
X2552931Y-1697278D01*
X2551944Y-1697278D01*
X2550815Y-1697137D01*
X2549263Y-1696996D01*
X2547287Y-1696714D01*
X2545030Y-1696431D01*
X2542631Y-1695867D01*
X2539809Y-1695162D01*
X2536987Y-1694315D01*
X2533883Y-1693186D01*
X2530638Y-1691916D01*
X2527393Y-1690364D01*
X2524148Y-1688389D01*
X2520902Y-1686272D01*
X2517798Y-1683733D01*
X2514694Y-1680770D01*
X2528380Y-1661863D01*
X2528522Y-1661722D01*
X2528663Y-1661157D01*
X2528945Y-1660311D01*
X2529086Y-1659605D01*
X2529227Y-1658759D01*
X2529227Y-1658476D01*
X2529086Y-1657771D01*
X2528663Y-1656501D01*
X2527816Y-1654949D01*
X2517657Y-1639005D01*
X2502560Y-1660029D01*
X2502560Y-1659887D01*
X2502419Y-1659746D01*
X2502278Y-1658900D01*
X2501995Y-1657630D01*
X2501713Y-1655937D01*
X2501290Y-1653820D01*
X2501008Y-1651563D01*
X2500867Y-1648882D01*
X2500726Y-1646201D01*
X2500726Y-1645919D01*
X2500726Y-1645354D01*
X2500867Y-1644226D01*
X2501008Y-1642956D01*
X2501149Y-1641263D01*
X2501431Y-1639287D01*
X2501995Y-1637030D01*
X2502560Y-1634631D01*
X2503265Y-1632091D01*
X2504253Y-1629269D01*
X2505523Y-1626447D01*
X2506793Y-1623625D01*
X2508486Y-1620804D01*
X2510461Y-1617841D01*
X2512719Y-1615019D01*
X2515258Y-1612338D01*
X2515400Y-1612197D01*
X2515964Y-1611632D01*
X2516811Y-1610927D01*
X2518080Y-1609939D01*
X2519633Y-1608669D01*
X2521467Y-1607399D01*
X2523583Y-1605988D01*
X2525982Y-1604577D01*
X2528663Y-1603166D01*
X2531626Y-1601755D01*
X2534871Y-1600345D01*
X2538257Y-1599216D01*
X2541926Y-1598228D01*
X2545876Y-1597522D01*
X2549968Y-1596958D01*
X2554342Y-1596817D01*
X2556318Y-1596817D01*
X2557305Y-1596958D01*
X2557305Y-1596958D02*
G37*
G36*
X2609793Y-1711529D02*
X2610499Y-1711670D01*
X2611064Y-1711811D01*
X2611205Y-1711811D01*
X2611487Y-1711952D01*
X2612474Y-1712375D01*
X2613039Y-1712940D01*
X2613462Y-1713504D01*
X2613885Y-1714210D01*
X2614167Y-1715197D01*
X2614167Y-1715338D01*
X2614308Y-1715480D01*
X2614308Y-1715903D01*
X2614450Y-1716608D01*
X2614450Y-1717314D01*
X2614591Y-1718302D01*
X2614591Y-1719430D01*
X2614591Y-1720700D01*
X2595684Y-1720277D01*
X2595543Y-1720277D01*
X2594978Y-1720418D01*
X2594273Y-1720559D01*
X2593567Y-1721124D01*
X2592721Y-1721829D01*
X2592015Y-1723099D01*
X2591733Y-1723945D01*
X2591451Y-1724933D01*
X2591310Y-1725921D01*
X2591310Y-1727191D01*
X2591310Y-1731000D01*
X2591310Y-1731141D01*
X2591310Y-1731283D01*
X2591451Y-1732129D01*
X2591592Y-1733117D01*
X2591874Y-1734387D01*
X2592297Y-1735656D01*
X2593144Y-1736785D01*
X2594132Y-1737632D01*
X2594837Y-1737773D01*
X2595543Y-1737914D01*
X2614873Y-1737914D01*
X2614873Y-1738196D01*
X2614873Y-1738761D01*
X2614873Y-1739748D01*
X2614732Y-1740877D01*
X2614591Y-1742006D01*
X2614450Y-1743135D01*
X2614167Y-1744122D01*
X2613744Y-1744828D01*
X2613744Y-1744969D01*
X2613462Y-1745110D01*
X2613039Y-1745392D01*
X2612474Y-1745674D01*
X2611628Y-1746098D01*
X2610499Y-1746380D01*
X2609088Y-1746521D01*
X2607395Y-1746662D01*
X2593285Y-1746662D01*
X2592156Y-1746521D01*
X2590746Y-1746239D01*
X2589334Y-1745815D01*
X2587782Y-1745110D01*
X2586512Y-1744263D01*
X2585525Y-1742993D01*
X2585525Y-1742852D01*
X2585243Y-1742429D01*
X2584960Y-1741724D01*
X2584678Y-1740877D01*
X2584396Y-1739607D01*
X2584114Y-1738196D01*
X2583973Y-1736362D01*
X2583831Y-1734387D01*
X2583831Y-1723945D01*
X2583831Y-1723804D01*
X2583831Y-1723522D01*
X2583831Y-1723099D01*
X2583973Y-1722534D01*
X2584114Y-1721124D01*
X2584396Y-1719289D01*
X2584819Y-1717455D01*
X2585666Y-1715621D01*
X2586654Y-1714069D01*
X2587359Y-1713363D01*
X2588065Y-1712799D01*
X2588206Y-1712799D01*
X2588488Y-1712517D01*
X2588911Y-1712375D01*
X2589617Y-1712093D01*
X2590463Y-1711811D01*
X2591592Y-1711670D01*
X2592862Y-1711388D01*
X2608100Y-1711388D01*
X2609793Y-1711529D01*
X2609793Y-1711529D02*
G37*
G36*
X2649019Y-1746380D02*
X2641823Y-1746380D01*
X2641823Y-1733258D01*
X2626161Y-1733258D01*
X2626161Y-1746380D01*
X2619388Y-1746380D01*
X2619388Y-1711811D01*
X2626161Y-1711811D01*
X2626161Y-1723945D01*
X2641823Y-1723945D01*
X2641823Y-1711811D01*
X2649019Y-1711811D01*
X2649019Y-1746380D01*
X2649019Y-1746380D02*
G37*
G36*
X2452047Y-1700523D02*
X2452753Y-1700664D01*
X2453599Y-1701088D01*
X2454305Y-1701652D01*
X2455010Y-1702640D01*
X2455716Y-1703910D01*
X2455998Y-1705744D01*
X2460654Y-1746380D01*
X2451906Y-1746380D01*
X2449507Y-1717173D01*
X2449366Y-1717173D01*
X2440477Y-1740595D01*
X2440477Y-1740736D01*
X2440195Y-1741159D01*
X2439772Y-1741865D01*
X2439207Y-1742570D01*
X2438502Y-1743276D01*
X2437655Y-1743981D01*
X2436667Y-1744404D01*
X2435398Y-1744546D01*
X2434833Y-1744546D01*
X2434128Y-1744263D01*
X2433281Y-1743981D01*
X2432294Y-1743558D01*
X2431447Y-1742852D01*
X2430741Y-1741865D01*
X2430036Y-1740595D01*
X2421147Y-1717596D01*
X2421006Y-1717596D01*
X2418466Y-1746380D01*
X2410000Y-1746380D01*
X2414374Y-1705321D01*
X2414374Y-1705038D01*
X2414515Y-1704474D01*
X2414797Y-1703769D01*
X2415221Y-1702781D01*
X2415785Y-1701934D01*
X2416632Y-1701088D01*
X2417760Y-1700523D01*
X2419030Y-1700382D01*
X2419736Y-1700382D01*
X2420582Y-1700664D01*
X2421570Y-1700947D01*
X2422558Y-1701511D01*
X2423687Y-1702358D01*
X2424533Y-1703486D01*
X2425380Y-1705038D01*
X2435257Y-1730154D01*
X2435398Y-1730154D01*
X2445274Y-1705038D01*
X2445415Y-1704897D01*
X2445557Y-1704333D01*
X2446121Y-1703627D01*
X2446685Y-1702640D01*
X2447532Y-1701793D01*
X2448661Y-1701088D01*
X2449931Y-1700523D01*
X2451483Y-1700382D01*
X2451624Y-1700382D01*
X2452047Y-1700523D01*
X2452047Y-1700523D02*
G37*
G36*
X2690360Y-1711952D02*
X2691489Y-1712093D01*
X2692758Y-1712517D01*
X2694170Y-1713222D01*
X2695439Y-1714210D01*
X2696568Y-1715621D01*
X2697415Y-1717596D01*
X2697415Y-1717737D01*
X2697556Y-1718019D01*
X2697556Y-1718584D01*
X2697697Y-1719289D01*
X2697838Y-1720136D01*
X2697838Y-1721124D01*
X2697979Y-1722393D01*
X2697979Y-1723663D01*
X2697979Y-1726344D01*
X2697979Y-1726626D01*
X2697979Y-1727332D01*
X2697838Y-1728461D01*
X2697697Y-1729730D01*
X2697415Y-1731283D01*
X2697133Y-1732835D01*
X2696568Y-1734104D01*
X2695863Y-1735374D01*
X2695863Y-1735515D01*
X2695580Y-1735656D01*
X2695157Y-1736080D01*
X2694734Y-1736503D01*
X2694028Y-1736926D01*
X2693182Y-1737209D01*
X2692335Y-1737491D01*
X2691206Y-1737632D01*
X2673993Y-1737632D01*
X2673993Y-1746380D01*
X2666938Y-1746380D01*
X2666938Y-1711811D01*
X2689655Y-1711811D01*
X2690360Y-1711952D01*
X2690360Y-1711952D02*
G37*
G36*
X2662281Y-1746380D02*
X2654098Y-1746380D01*
X2654098Y-1711811D01*
X2662281Y-1711811D01*
X2662281Y-1746380D01*
X2662281Y-1746380D02*
G37*
G36*
X2537270Y-1711952D02*
X2538398Y-1712375D01*
X2539668Y-1713081D01*
X2540233Y-1713645D01*
X2540938Y-1714351D01*
X2541503Y-1715197D01*
X2541926Y-1716185D01*
X2542490Y-1717314D01*
X2542772Y-1718725D01*
X2542914Y-1720277D01*
X2543055Y-1722111D01*
X2543055Y-1724228D01*
X2543055Y-1724369D01*
X2543055Y-1724510D01*
X2543055Y-1725356D01*
X2542914Y-1726626D01*
X2542631Y-1728037D01*
X2542067Y-1729448D01*
X2541361Y-1730859D01*
X2540374Y-1731988D01*
X2539104Y-1732835D01*
X2539104Y-1732976D01*
X2539245Y-1732976D01*
X2539668Y-1733258D01*
X2540374Y-1733681D01*
X2541079Y-1734387D01*
X2541785Y-1735374D01*
X2542490Y-1736644D01*
X2542914Y-1738337D01*
X2543055Y-1740595D01*
X2543055Y-1746380D01*
X2535718Y-1746380D01*
X2535718Y-1742288D01*
X2535718Y-1742147D01*
X2535718Y-1741865D01*
X2535718Y-1741300D01*
X2535718Y-1740736D01*
X2535576Y-1739607D01*
X2535576Y-1739043D01*
X2535435Y-1738620D01*
X2535294Y-1738478D01*
X2534871Y-1737914D01*
X2534165Y-1737491D01*
X2532896Y-1737350D01*
X2520056Y-1737350D01*
X2520056Y-1746380D01*
X2512719Y-1746380D01*
X2512719Y-1711811D01*
X2536423Y-1711811D01*
X2537270Y-1711952D01*
X2537270Y-1711952D02*
G37*
G36*
X2473071Y-1746380D02*
X2465028Y-1746380D01*
X2465028Y-1711811D01*
X2473071Y-1711811D01*
X2473071Y-1746380D01*
X2473071Y-1746380D02*
G37*
G36*
X2571556Y-1711529D02*
X2572826Y-1711811D01*
X2574096Y-1712093D01*
X2575507Y-1712658D01*
X2576636Y-1713504D01*
X2577623Y-1714492D01*
X2577765Y-1714633D01*
X2578047Y-1715056D01*
X2578329Y-1715762D01*
X2578752Y-1716750D01*
X2579175Y-1718161D01*
X2579599Y-1719713D01*
X2579740Y-1721547D01*
X2579881Y-1723804D01*
X2579881Y-1734245D01*
X2579881Y-1734387D01*
X2579881Y-1734669D01*
X2579881Y-1735092D01*
X2579740Y-1735798D01*
X2579599Y-1737350D01*
X2579316Y-1739325D01*
X2578611Y-1741300D01*
X2577765Y-1743276D01*
X2576495Y-1744828D01*
X2575648Y-1745533D01*
X2574801Y-1745957D01*
X2574660Y-1745957D01*
X2574378Y-1746098D01*
X2573955Y-1746239D01*
X2573391Y-1746239D01*
X2572685Y-1746380D01*
X2571838Y-1746521D01*
X2569581Y-1746662D01*
X2556882Y-1746662D01*
X2555753Y-1746521D01*
X2554483Y-1746239D01*
X2553073Y-1745815D01*
X2551662Y-1745251D01*
X2550392Y-1744404D01*
X2549263Y-1743276D01*
X2549122Y-1743135D01*
X2548981Y-1742711D01*
X2548698Y-1742006D01*
X2548416Y-1741018D01*
X2547993Y-1739889D01*
X2547711Y-1738337D01*
X2547570Y-1736362D01*
X2547429Y-1734245D01*
X2547429Y-1723804D01*
X2547429Y-1723663D01*
X2547429Y-1723381D01*
X2547429Y-1722817D01*
X2547570Y-1722111D01*
X2547711Y-1720418D01*
X2548134Y-1718443D01*
X2548840Y-1716326D01*
X2549968Y-1714492D01*
X2550674Y-1713645D01*
X2551379Y-1712940D01*
X2552367Y-1712375D01*
X2553355Y-1711952D01*
X2553496Y-1711952D01*
X2553637Y-1711811D01*
X2554060Y-1711811D01*
X2554625Y-1711670D01*
X2556035Y-1711529D01*
X2557870Y-1711388D01*
X2570569Y-1711388D01*
X2571556Y-1711529D01*
X2571556Y-1711529D02*
G37*
G36*
X2500867Y-1711529D02*
X2502560Y-1711529D01*
X2504112Y-1711670D01*
X2505382Y-1711952D01*
X2505805Y-1712093D01*
X2506087Y-1712234D01*
X2506228Y-1712234D01*
X2506369Y-1712517D01*
X2506652Y-1712940D01*
X2507075Y-1713645D01*
X2507498Y-1714633D01*
X2507780Y-1716044D01*
X2507921Y-1717878D01*
X2508062Y-1720277D01*
X2489014Y-1720277D01*
X2488168Y-1720418D01*
X2487180Y-1720841D01*
X2486192Y-1721688D01*
X2486051Y-1721970D01*
X2485910Y-1722252D01*
X2485628Y-1722817D01*
X2485487Y-1723522D01*
X2485205Y-1724510D01*
X2485064Y-1725780D01*
X2485064Y-1727191D01*
X2485064Y-1731000D01*
X2485064Y-1731141D01*
X2485064Y-1731706D01*
X2485064Y-1732411D01*
X2485205Y-1733117D01*
X2485346Y-1734951D01*
X2485487Y-1735656D01*
X2485628Y-1736221D01*
X2485769Y-1736503D01*
X2486334Y-1737068D01*
X2486898Y-1737350D01*
X2487462Y-1737632D01*
X2488309Y-1737773D01*
X2489155Y-1737914D01*
X2508486Y-1737914D01*
X2508486Y-1738196D01*
X2508486Y-1738761D01*
X2508486Y-1739607D01*
X2508345Y-1740595D01*
X2508062Y-1742852D01*
X2507780Y-1743840D01*
X2507498Y-1744546D01*
X2507498Y-1744687D01*
X2507216Y-1744828D01*
X2506793Y-1745251D01*
X2506228Y-1745533D01*
X2505241Y-1745957D01*
X2504112Y-1746380D01*
X2502701Y-1746521D01*
X2501008Y-1746662D01*
X2487039Y-1746662D01*
X2486051Y-1746521D01*
X2484781Y-1746239D01*
X2483371Y-1745957D01*
X2481960Y-1745533D01*
X2480690Y-1744828D01*
X2479702Y-1743840D01*
X2479561Y-1743699D01*
X2479420Y-1743276D01*
X2478997Y-1742570D01*
X2478573Y-1741583D01*
X2478150Y-1740313D01*
X2477868Y-1738620D01*
X2477586Y-1736644D01*
X2477444Y-1734245D01*
X2477444Y-1723804D01*
X2477444Y-1723663D01*
X2477444Y-1723381D01*
X2477444Y-1722817D01*
X2477586Y-1722111D01*
X2477868Y-1720277D01*
X2478291Y-1718161D01*
X2479138Y-1716044D01*
X2480408Y-1714069D01*
X2481254Y-1713222D01*
X2482242Y-1712517D01*
X2483230Y-1711952D01*
X2484499Y-1711670D01*
X2484781Y-1711670D01*
X2485487Y-1711529D01*
X2486616Y-1711388D01*
X2499173Y-1711388D01*
X2500867Y-1711529D01*
X2500867Y-1711529D02*
G37*
%LPC*%
G36*
X2592580Y-1602743D02*
X2591874Y-1602743D01*
X2591028Y-1603025D01*
X2590181Y-1603307D01*
X2589193Y-1603872D01*
X2588488Y-1604577D01*
X2587923Y-1605706D01*
X2587641Y-1607258D01*
X2587641Y-1607399D01*
X2587641Y-1607540D01*
X2587782Y-1608387D01*
X2588206Y-1609516D01*
X2589052Y-1610786D01*
X2589334Y-1611068D01*
X2590040Y-1611491D01*
X2591169Y-1611914D01*
X2592580Y-1612197D01*
X2592721Y-1612197D01*
X2593285Y-1612056D01*
X2593990Y-1611914D01*
X2594978Y-1611632D01*
X2595825Y-1610927D01*
X2596530Y-1610080D01*
X2597095Y-1608951D01*
X2597236Y-1607258D01*
X2597236Y-1607117D01*
X2597236Y-1606553D01*
X2596954Y-1605847D01*
X2596671Y-1605001D01*
X2596107Y-1604154D01*
X2595261Y-1603449D01*
X2594132Y-1602884D01*
X2592580Y-1602743D01*
X2592580Y-1602743D02*
G37*
%LPD*%
G36*
X2593849Y-1604295D02*
X2594555Y-1604860D01*
X2594837Y-1605283D01*
X2594978Y-1605988D01*
X2594978Y-1606129D01*
X2594978Y-1606270D01*
X2594837Y-1606976D01*
X2594273Y-1607540D01*
X2593849Y-1607823D01*
X2593285Y-1607964D01*
X2595119Y-1610786D01*
X2593990Y-1610786D01*
X2592297Y-1607964D01*
X2591169Y-1607964D01*
X2591169Y-1610786D01*
X2590181Y-1610786D01*
X2590181Y-1604013D01*
X2593003Y-1604013D01*
X2593849Y-1604295D01*
X2593849Y-1604295D02*
G37*
%LPC*%
G36*
X2592862Y-1605001D02*
X2591169Y-1605001D01*
X2591169Y-1607117D01*
X2593003Y-1607117D01*
X2593426Y-1606976D01*
X2593708Y-1606694D01*
X2593849Y-1605988D01*
X2593849Y-1605847D01*
X2593708Y-1605424D01*
X2593426Y-1605142D01*
X2592862Y-1605001D01*
X2592862Y-1605001D02*
G37*
G36*
X2536000Y-1616571D02*
X2535576Y-1616571D01*
X2535012Y-1616712D01*
X2534448Y-1616994D01*
X2533742Y-1617417D01*
X2532896Y-1617982D01*
X2532049Y-1618687D01*
X2531203Y-1619816D01*
X2522313Y-1632374D01*
X2549263Y-1675126D01*
X2549404Y-1675267D01*
X2549686Y-1675690D01*
X2550110Y-1676396D01*
X2550674Y-1676960D01*
X2551379Y-1677666D01*
X2552226Y-1678371D01*
X2552931Y-1678794D01*
X2553778Y-1678936D01*
X2554201Y-1678936D01*
X2554766Y-1678794D01*
X2555330Y-1678512D01*
X2556035Y-1678230D01*
X2556882Y-1677807D01*
X2557729Y-1677101D01*
X2558434Y-1676114D01*
X2567888Y-1662568D01*
X2540797Y-1619957D01*
X2540656Y-1619816D01*
X2540374Y-1619393D01*
X2539951Y-1618828D01*
X2539386Y-1618264D01*
X2538681Y-1617699D01*
X2537834Y-1617135D01*
X2536987Y-1616712D01*
X2536000Y-1616571D01*
X2536000Y-1616571D02*
G37*
G36*
X2687679Y-1720136D02*
X2673993Y-1720136D01*
X2673993Y-1728884D01*
X2688526Y-1728884D01*
X2688808Y-1728743D01*
X2689231Y-1728461D01*
X2689655Y-1728037D01*
X2690078Y-1727332D01*
X2690219Y-1726485D01*
X2690360Y-1725356D01*
X2690360Y-1723945D01*
X2690360Y-1723804D01*
X2690360Y-1723381D01*
X2690219Y-1722676D01*
X2690078Y-1721970D01*
X2689655Y-1721406D01*
X2689231Y-1720700D01*
X2688526Y-1720277D01*
X2687679Y-1720136D01*
X2687679Y-1720136D02*
G37*
G36*
X2532613Y-1720136D02*
X2520056Y-1720136D01*
X2520056Y-1728743D01*
X2533742Y-1728743D01*
X2534165Y-1728602D01*
X2534730Y-1728320D01*
X2535294Y-1727896D01*
X2535718Y-1727191D01*
X2536000Y-1726344D01*
X2536141Y-1725074D01*
X2536141Y-1723945D01*
X2536141Y-1723804D01*
X2536141Y-1723381D01*
X2536000Y-1722676D01*
X2535718Y-1721970D01*
X2535294Y-1721406D01*
X2534589Y-1720700D01*
X2533742Y-1720277D01*
X2532613Y-1720136D01*
X2532613Y-1720136D02*
G37*
G36*
X2568593Y-1720136D02*
X2558999Y-1720136D01*
X2558152Y-1720277D01*
X2557023Y-1720841D01*
X2556459Y-1721124D01*
X2556035Y-1721688D01*
X2555894Y-1721970D01*
X2555753Y-1722393D01*
X2555471Y-1722958D01*
X2555330Y-1723663D01*
X2555048Y-1724651D01*
X2554907Y-1725780D01*
X2554907Y-1727191D01*
X2554907Y-1731000D01*
X2554907Y-1731141D01*
X2554907Y-1731706D01*
X2554907Y-1732270D01*
X2555048Y-1733117D01*
X2555189Y-1734951D01*
X2555330Y-1735798D01*
X2555612Y-1736503D01*
X2555753Y-1736785D01*
X2556318Y-1737209D01*
X2557305Y-1737632D01*
X2558011Y-1737914D01*
X2568311Y-1737914D01*
X2568875Y-1737773D01*
X2569581Y-1737491D01*
X2570428Y-1737068D01*
X2571274Y-1736221D01*
X2571979Y-1734951D01*
X2572262Y-1734245D01*
X2572544Y-1733258D01*
X2572685Y-1732270D01*
X2572685Y-1731000D01*
X2572685Y-1727191D01*
X2572685Y-1727050D01*
X2572685Y-1726485D01*
X2572685Y-1725921D01*
X2572544Y-1725074D01*
X2572121Y-1723240D01*
X2571697Y-1722393D01*
X2571274Y-1721688D01*
X2571274Y-1721547D01*
X2570992Y-1721406D01*
X2570286Y-1720841D01*
X2569299Y-1720418D01*
X2568593Y-1720136D01*
X2568593Y-1720136D02*
G37*
%LPD*%
D10*
X3373571Y-1593883D02*
X3373571Y-1602453D01*
X3370000Y-1596025D02*
X3377142Y-1600310D01*
X3377142Y-1596025D02*
X3370000Y-1600310D01*
X3383783Y-1593883D02*
X3383783Y-1602453D01*
X3380212Y-1596025D02*
X3387354Y-1600310D01*
X3387354Y-1596025D02*
X3380212Y-1600310D01*
D11*
X3310000Y-1840580D02*
X3310000Y-1796380D01*
X3000000Y-1840580D02*
X3000000Y-1676380D01*
X3180000Y-1796380D02*
X3180000Y-1736380D01*
X3385000Y-1840580D02*
X3385000Y-1736380D01*
X2380000Y-1840580D02*
X2380000Y-1586380D01*
X2720000Y-1840580D02*
X2720000Y-1586380D01*
X3538200Y-1840580D02*
X3538200Y-1586380D01*
X2380000Y-1840580D02*
X3538200Y-1840580D01*
X2720000Y-1796380D02*
X3538200Y-1796380D01*
X2720000Y-1736380D02*
X3538200Y-1736380D01*
X2720000Y-1676380D02*
X3538200Y-1676380D01*
X2380000Y-1586380D02*
X3538200Y-1586380D01*
X2039600Y-1840580D02*
X2395200Y-1840580D01*
X414000Y-1891380D02*
X414000Y-1840580D01*
X-221000Y-1288130D02*
X-170200Y-1288130D01*
X-221000Y-684880D02*
X-170200Y-684880D01*
X-221000Y-81630D02*
X-170200Y-81630D01*
X-170200Y-1840580D02*
X3538200Y-1840580D01*
X-170200Y-1840580D02*
X-170200Y470820D01*
X-221000Y-1891380D02*
X3589000Y-1891380D01*
X-221000Y-1891380D02*
X-221000Y521620D01*
X3538200Y-1840580D02*
X3538200Y-1535780D01*
X1049000Y-1891380D02*
X1049000Y-1840580D01*
X1684000Y-1891380D02*
X1684000Y-1840580D01*
X2319000Y-1891380D02*
X2319000Y-1840580D01*
X2954000Y-1891380D02*
X2954000Y-1840580D01*
X3538200Y-1288130D02*
X3589000Y-1288130D01*
X3538200Y-684880D02*
X3589000Y-684880D01*
X3538200Y-81630D02*
X3589000Y-81630D01*
X3589000Y-1891380D02*
X3589000Y521620D01*
X3538200Y-1840580D02*
X3538200Y470820D01*
X414000Y470820D02*
X414000Y521620D01*
X-221000Y521620D02*
X3589000Y521620D01*
X-170200Y470820D02*
X3538200Y470820D01*
X1049000Y470820D02*
X1049000Y521620D01*
X1684000Y470820D02*
X1684000Y521620D01*
X2319000Y470820D02*
X2319000Y521620D01*
X2954000Y470820D02*
X2954000Y521620D01*
X3010000Y-1799952D02*
X3010000Y-1811380D01*
X3016530Y-1811380D01*
X3026489Y-1811380D02*
X3022135Y-1799952D01*
X3017782Y-1811380D01*
X3019414Y-1807571D02*
X3024856Y-1807571D01*
X3029155Y-1799952D02*
X3033508Y-1805394D01*
X3033508Y-1811380D01*
X3037862Y-1799952D02*
X3033508Y-1805394D01*
X3046405Y-1799952D02*
X3039331Y-1799952D01*
X3039331Y-1811380D01*
X3046405Y-1811380D01*
X3039331Y-1805394D02*
X3043684Y-1805394D01*
X3048310Y-1799952D02*
X3048310Y-1811380D01*
X3048310Y-1799952D02*
X3053207Y-1799952D01*
X3054840Y-1800497D01*
X3055384Y-1801041D01*
X3055928Y-1802129D01*
X3055928Y-1803217D01*
X3055384Y-1804306D01*
X3054840Y-1804850D01*
X3053207Y-1805394D01*
X3048310Y-1805394D01*
X3052119Y-1805394D02*
X3055928Y-1811380D01*
X3067464Y-1799952D02*
X3067464Y-1811380D01*
X3067464Y-1799952D02*
X3075083Y-1811380D01*
X3075083Y-1799952D02*
X3075083Y-1811380D01*
X3086945Y-1811380D02*
X3082592Y-1799952D01*
X3078239Y-1811380D01*
X3079872Y-1807571D02*
X3085313Y-1807571D01*
X3089612Y-1799952D02*
X3089612Y-1811380D01*
X3089612Y-1799952D02*
X3093965Y-1811380D01*
X3098319Y-1799952D02*
X3093965Y-1811380D01*
X3098319Y-1799952D02*
X3098319Y-1811380D01*
X3108658Y-1799952D02*
X3101584Y-1799952D01*
X3101584Y-1811380D01*
X3108658Y-1811380D01*
X3101584Y-1805394D02*
X3105937Y-1805394D01*
X3111107Y-1803761D02*
X3110563Y-1804306D01*
X3111107Y-1804850D01*
X3111651Y-1804306D01*
X3111107Y-1803761D01*
X3111107Y-1810291D02*
X3110563Y-1810836D01*
X3111107Y-1811380D01*
X3111651Y-1810836D01*
X3111107Y-1810291D01*
X3317500Y-1802452D02*
X3317500Y-1813880D01*
X3317500Y-1802452D02*
X3322397Y-1802452D01*
X3324030Y-1802997D01*
X3324574Y-1803541D01*
X3325118Y-1804629D01*
X3325118Y-1805717D01*
X3324574Y-1806806D01*
X3324030Y-1807350D01*
X3322397Y-1807894D01*
X3317500Y-1807894D01*
X3321309Y-1807894D02*
X3325118Y-1813880D01*
X3334750Y-1802452D02*
X3327676Y-1802452D01*
X3327676Y-1813880D01*
X3334750Y-1813880D01*
X3327676Y-1807894D02*
X3332029Y-1807894D01*
X3336655Y-1802452D02*
X3341008Y-1813880D01*
X3345362Y-1802452D02*
X3341008Y-1813880D01*
X3347375Y-1806261D02*
X3346831Y-1806806D01*
X3347375Y-1807350D01*
X3347919Y-1806806D01*
X3347375Y-1806261D01*
X3347375Y-1812791D02*
X3346831Y-1813336D01*
X3347375Y-1813880D01*
X3347919Y-1813336D01*
X3347375Y-1812791D01*
X3397000Y-1744952D02*
X3397000Y-1756380D01*
X3397000Y-1744952D02*
X3400809Y-1744952D01*
X3402442Y-1745497D01*
X3403530Y-1746585D01*
X3404074Y-1747673D01*
X3404619Y-1749306D01*
X3404619Y-1752027D01*
X3404074Y-1753659D01*
X3403530Y-1754747D01*
X3402442Y-1755836D01*
X3400809Y-1756380D01*
X3397000Y-1756380D01*
X3415883Y-1756380D02*
X3411530Y-1744952D01*
X3407176Y-1756380D01*
X3408809Y-1752571D02*
X3414250Y-1752571D01*
X3422358Y-1744952D02*
X3422358Y-1756380D01*
X3418549Y-1744952D02*
X3426168Y-1744952D01*
X3434602Y-1744952D02*
X3427528Y-1744952D01*
X3427528Y-1756380D01*
X3434602Y-1756380D01*
X3427528Y-1750394D02*
X3431881Y-1750394D01*
X3437051Y-1748761D02*
X3436507Y-1749306D01*
X3437051Y-1749850D01*
X3437595Y-1749306D01*
X3437051Y-1748761D01*
X3437051Y-1755291D02*
X3436507Y-1755836D01*
X3437051Y-1756380D01*
X3437595Y-1755836D01*
X3437051Y-1755291D01*
X2733809Y-1599952D02*
X2733809Y-1611380D01*
X2730000Y-1599952D02*
X2737618Y-1599952D01*
X2738979Y-1599952D02*
X2738979Y-1611380D01*
X2745182Y-1599952D02*
X2745182Y-1611380D01*
X2741373Y-1599952D02*
X2748992Y-1599952D01*
X2750352Y-1599952D02*
X2750352Y-1611380D01*
X2756882Y-1611380D01*
X2765208Y-1599952D02*
X2758134Y-1599952D01*
X2758134Y-1611380D01*
X2765208Y-1611380D01*
X2758134Y-1605394D02*
X2762487Y-1605394D01*
X2767657Y-1603761D02*
X2767112Y-1604306D01*
X2767657Y-1604850D01*
X2768201Y-1604306D01*
X2767657Y-1603761D01*
X2767657Y-1610291D02*
X2767112Y-1610836D01*
X2767657Y-1611380D01*
X2768201Y-1610836D01*
X2767657Y-1610291D01*
D12*
X3538200Y380820D02*
X3538200Y470820D01*
X2323200Y470820D02*
X3538200Y470820D01*
X2558200Y380820D02*
X2558200Y425820D01*
X2323200Y425820D02*
X2323200Y470820D01*
X2323200Y425820D02*
X3538200Y425820D01*
X2433200Y425820D02*
X2433200Y470820D01*
X2558200Y425820D02*
X2558200Y470820D01*
X3343200Y425820D02*
X3343200Y470820D01*
X2323200Y380820D02*
X2323200Y425820D01*
X2323200Y380820D02*
X3538200Y380820D01*
X3343200Y380820D02*
X3343200Y425820D01*
X2433200Y380820D02*
X2433200Y425820D01*
X2348200Y440820D02*
X2348200Y456055D01*
X2355818Y456055D01*
X2358357Y453516D01*
X2358357Y448438D01*
X2355818Y445899D01*
X2348200Y445899D01*
X2353279Y445899D02*
X2358357Y440820D01*
X2373592Y456055D02*
X2363435Y456055D01*
X2363435Y440820D01*
X2373592Y440820D01*
X2363435Y448438D02*
X2368514Y448438D01*
X2378670Y456055D02*
X2378670Y445899D01*
X2383749Y440820D01*
X2388827Y445899D01*
X2388827Y456055D01*
X2458357Y456055D02*
X2448200Y456055D01*
X2448200Y440820D01*
X2458357Y440820D01*
X2448200Y448438D02*
X2453279Y448438D01*
X2473592Y453516D02*
X2471053Y456055D01*
X2465974Y456055D01*
X2463435Y453516D01*
X2463435Y443359D01*
X2465974Y440820D01*
X2471053Y440820D01*
X2473592Y443359D01*
X2486288Y456055D02*
X2481210Y456055D01*
X2478670Y453516D01*
X2478670Y443359D01*
X2481210Y440820D01*
X2486288Y440820D01*
X2488827Y443359D01*
X2488827Y453516D01*
X2486288Y456055D01*
X2923357Y448516D02*
X2920818Y451055D01*
X2915739Y451055D01*
X2913200Y448516D01*
X2913200Y438359D01*
X2915739Y435820D01*
X2920818Y435820D01*
X2923357Y438359D01*
X2930974Y435820D02*
X2936053Y435820D01*
X2938592Y438359D01*
X2938592Y443438D01*
X2936053Y445977D01*
X2930974Y445977D01*
X2928435Y443438D01*
X2928435Y438359D01*
X2930974Y435820D01*
X2943670Y435820D02*
X2943670Y445977D01*
X2946209Y445977D01*
X2948748Y443438D01*
X2948748Y435820D01*
X2948748Y443438D01*
X2951288Y445977D01*
X2953827Y443438D01*
X2953827Y435820D01*
X2958905Y435820D02*
X2958905Y445977D01*
X2961444Y445977D01*
X2963984Y443438D01*
X2963984Y435820D01*
X2963984Y443438D01*
X2966523Y445977D01*
X2969062Y443438D01*
X2969062Y435820D01*
X2981758Y435820D02*
X2976680Y435820D01*
X2974140Y438359D01*
X2974140Y443438D01*
X2976680Y445977D01*
X2981758Y445977D01*
X2984297Y443438D01*
X2984297Y440899D01*
X2974140Y440899D01*
X2989376Y435820D02*
X2989376Y445977D01*
X2996993Y445977D01*
X2999532Y443438D01*
X2999532Y435820D01*
X3007150Y448516D02*
X3007150Y445977D01*
X3004611Y445977D01*
X3009689Y445977D01*
X3007150Y445977D01*
X3007150Y438359D01*
X3009689Y435820D01*
X3017307Y435820D02*
X3024924Y435820D01*
X3027463Y438359D01*
X3024924Y440899D01*
X3019846Y440899D01*
X3017307Y443438D01*
X3019846Y445977D01*
X3027463Y445977D01*
X3393200Y451055D02*
X3393200Y435820D01*
X3400818Y435820D01*
X3403357Y438359D01*
X3403357Y448516D01*
X3400818Y451055D01*
X3393200Y451055D01*
X3410974Y445977D02*
X3416053Y445977D01*
X3418592Y443438D01*
X3418592Y435820D01*
X3410974Y435820D01*
X3408435Y438359D01*
X3410974Y440899D01*
X3418592Y440899D01*
X3426209Y448516D02*
X3426209Y445977D01*
X3423670Y445977D01*
X3428748Y445977D01*
X3426209Y445977D01*
X3426209Y438359D01*
X3428748Y435820D01*
X3443984Y435820D02*
X3438905Y435820D01*
X3436366Y438359D01*
X3436366Y443438D01*
X3438905Y445977D01*
X3443984Y445977D01*
X3446523Y443438D01*
X3446523Y440899D01*
X3436366Y440899D01*
D14*
X2733809Y-1710383D02*
X2733809Y-1719524D01*
X2730000Y-1712668D02*
X2737617Y-1717239D01*
X2737617Y-1712668D02*
X2730000Y-1717239D01*
X2744702Y-1710383D02*
X2744702Y-1719524D01*
X2740893Y-1712668D02*
X2748510Y-1717239D01*
X2748510Y-1712668D02*
X2740893Y-1717239D01*
X2432697Y-1817836D02*
X2431851Y-1816143D01*
X2430158Y-1814450D01*
X2428465Y-1813604D01*
X2425079Y-1813604D01*
X2423386Y-1814450D01*
X2421693Y-1816143D01*
X2420847Y-1817836D01*
X2420000Y-1820376D01*
X2420000Y-1824608D01*
X2420847Y-1827148D01*
X2421693Y-1828840D01*
X2423386Y-1830533D01*
X2425079Y-1831380D01*
X2428465Y-1831380D01*
X2430158Y-1830533D01*
X2431851Y-1828840D01*
X2432697Y-1827148D01*
X2437692Y-1813604D02*
X2437692Y-1831380D01*
X2437692Y-1822915D02*
X2440231Y-1820376D01*
X2441924Y-1819529D01*
X2444464Y-1819529D01*
X2446156Y-1820376D01*
X2447003Y-1822915D01*
X2447003Y-1831380D01*
X2461817Y-1819529D02*
X2461817Y-1831380D01*
X2461817Y-1822068D02*
X2460123Y-1820376D01*
X2458431Y-1819529D01*
X2455891Y-1819529D01*
X2454198Y-1820376D01*
X2452505Y-1822068D01*
X2451659Y-1824608D01*
X2451659Y-1826301D01*
X2452505Y-1828840D01*
X2454198Y-1830533D01*
X2455891Y-1831380D01*
X2458431Y-1831380D01*
X2460123Y-1830533D01*
X2461817Y-1828840D01*
X2466557Y-1819529D02*
X2466557Y-1831380D01*
X2466557Y-1822915D02*
X2469096Y-1820376D01*
X2470789Y-1819529D01*
X2473329Y-1819529D01*
X2475022Y-1820376D01*
X2475868Y-1822915D01*
X2475868Y-1831380D01*
X2490682Y-1813604D02*
X2490682Y-1831380D01*
X2490682Y-1822068D02*
X2488989Y-1820376D01*
X2487296Y-1819529D01*
X2484756Y-1819529D01*
X2483063Y-1820376D01*
X2481370Y-1822068D01*
X2480524Y-1824608D01*
X2480524Y-1826301D01*
X2481370Y-1828840D01*
X2483063Y-1830533D01*
X2484756Y-1831380D01*
X2487296Y-1831380D01*
X2488989Y-1830533D01*
X2490682Y-1828840D01*
X2495422Y-1813604D02*
X2495422Y-1831380D01*
X2499147Y-1824608D02*
X2509304Y-1824608D01*
X2509304Y-1822915D01*
X2508458Y-1821222D01*
X2507611Y-1820376D01*
X2505918Y-1819529D01*
X2503379Y-1819529D01*
X2501686Y-1820376D01*
X2499993Y-1822068D01*
X2499147Y-1824608D01*
X2499147Y-1826301D01*
X2499993Y-1828840D01*
X2501686Y-1830533D01*
X2503379Y-1831380D01*
X2505918Y-1831380D01*
X2507611Y-1830533D01*
X2509304Y-1828840D01*
X2513114Y-1819529D02*
X2513114Y-1831380D01*
X2513114Y-1824608D02*
X2513960Y-1822068D01*
X2515653Y-1820376D01*
X2517346Y-1819529D01*
X2519885Y-1819529D01*
X2523187Y-1830533D02*
X2522340Y-1831380D01*
X2521494Y-1830533D01*
X2522340Y-1829687D01*
X2523187Y-1830533D01*
X2523187Y-1832226D01*
X2522340Y-1833919D01*
X2521494Y-1834766D01*
X2554591Y-1831380D02*
X2547819Y-1813604D01*
X2541048Y-1831380D01*
X2543587Y-1825455D02*
X2552052Y-1825455D01*
X2570590Y-1813604D02*
X2558739Y-1831380D01*
X2558739Y-1813604D02*
X2570590Y-1813604D01*
X2558739Y-1831380D02*
X2570590Y-1831380D01*
X2606735Y-1813604D02*
X2604195Y-1814450D01*
X2603349Y-1816143D01*
X2603349Y-1817836D01*
X2604195Y-1819529D01*
X2605888Y-1820376D01*
X2609274Y-1821222D01*
X2611814Y-1822068D01*
X2613506Y-1823761D01*
X2614353Y-1825455D01*
X2614353Y-1827994D01*
X2613506Y-1829687D01*
X2612660Y-1830533D01*
X2610121Y-1831380D01*
X2606735Y-1831380D01*
X2604195Y-1830533D01*
X2603349Y-1829687D01*
X2602502Y-1827994D01*
X2602502Y-1825455D01*
X2603349Y-1823761D01*
X2605042Y-1822068D01*
X2607581Y-1821222D01*
X2610967Y-1820376D01*
X2612660Y-1819529D01*
X2613506Y-1817836D01*
X2613506Y-1816143D01*
X2612660Y-1814450D01*
X2610121Y-1813604D01*
X2606735Y-1813604D01*
X2628489Y-1813604D02*
X2620025Y-1813604D01*
X2619178Y-1821222D01*
X2620025Y-1820376D01*
X2622564Y-1819529D01*
X2625103Y-1819529D01*
X2627643Y-1820376D01*
X2629336Y-1822068D01*
X2630182Y-1824608D01*
X2630182Y-1826301D01*
X2629336Y-1828840D01*
X2627643Y-1830533D01*
X2625103Y-1831380D01*
X2622564Y-1831380D01*
X2620025Y-1830533D01*
X2619178Y-1829687D01*
X2618332Y-1827994D01*
X2635007Y-1817836D02*
X2635007Y-1816990D01*
X2635854Y-1815297D01*
X2636700Y-1814450D01*
X2638393Y-1813604D01*
X2641779Y-1813604D01*
X2643472Y-1814450D01*
X2644319Y-1815297D01*
X2645165Y-1816990D01*
X2645165Y-1818683D01*
X2644319Y-1820376D01*
X2642626Y-1822915D01*
X2634161Y-1831380D01*
X2646012Y-1831380D01*
X2650836Y-1817836D02*
X2650836Y-1816990D01*
X2651683Y-1815297D01*
X2652530Y-1814450D01*
X2654223Y-1813604D01*
X2657609Y-1813604D01*
X2659301Y-1814450D01*
X2660148Y-1815297D01*
X2660994Y-1816990D01*
X2660994Y-1818683D01*
X2660148Y-1820376D01*
X2658455Y-1822915D01*
X2649990Y-1831380D01*
X2661841Y-1831380D01*
X2674284Y-1813604D02*
X2665819Y-1825455D01*
X2678517Y-1825455D01*
X2674284Y-1813604D02*
X2674284Y-1831380D01*
X2410847Y-1792836D02*
X2410847Y-1791990D01*
X2411693Y-1790297D01*
X2412540Y-1789450D01*
X2414233Y-1788604D01*
X2417619Y-1788604D01*
X2419312Y-1789450D01*
X2420158Y-1790297D01*
X2421004Y-1791990D01*
X2421004Y-1793683D01*
X2420158Y-1795376D01*
X2418465Y-1797915D01*
X2410000Y-1806380D01*
X2421851Y-1806380D01*
X2427522Y-1788604D02*
X2436834Y-1788604D01*
X2431755Y-1795376D01*
X2434294Y-1795376D01*
X2435987Y-1796222D01*
X2436834Y-1797068D01*
X2437680Y-1799608D01*
X2437680Y-1801301D01*
X2436834Y-1803840D01*
X2435141Y-1805533D01*
X2432601Y-1806380D01*
X2430062Y-1806380D01*
X2427522Y-1805533D01*
X2426676Y-1804687D01*
X2425829Y-1802994D01*
X2451817Y-1788604D02*
X2443352Y-1788604D01*
X2442505Y-1796222D01*
X2443352Y-1795376D01*
X2445891Y-1794529D01*
X2448431Y-1794529D01*
X2450970Y-1795376D01*
X2452663Y-1797068D01*
X2453510Y-1799608D01*
X2453510Y-1801301D01*
X2452663Y-1803840D01*
X2450970Y-1805533D01*
X2448431Y-1806380D01*
X2445891Y-1806380D01*
X2443352Y-1805533D01*
X2442505Y-1804687D01*
X2441659Y-1802994D01*
X2467646Y-1788604D02*
X2459181Y-1788604D01*
X2458335Y-1796222D01*
X2459181Y-1795376D01*
X2461720Y-1794529D01*
X2464260Y-1794529D01*
X2466799Y-1795376D01*
X2468492Y-1797068D01*
X2469339Y-1799608D01*
X2469339Y-1801301D01*
X2468492Y-1803840D01*
X2466799Y-1805533D01*
X2464260Y-1806380D01*
X2461720Y-1806380D01*
X2459181Y-1805533D01*
X2458335Y-1804687D01*
X2457488Y-1802994D01*
X2487284Y-1788604D02*
X2491517Y-1806380D01*
X2495749Y-1788604D02*
X2491517Y-1806380D01*
X2495749Y-1788604D02*
X2499982Y-1806380D01*
X2504214Y-1788604D02*
X2499982Y-1806380D01*
X2508616Y-1804687D02*
X2507769Y-1805533D01*
X2508616Y-1806380D01*
X2509462Y-1805533D01*
X2508616Y-1804687D01*
X2540020Y-1792836D02*
X2539174Y-1791143D01*
X2537481Y-1789450D01*
X2535788Y-1788604D01*
X2532402Y-1788604D01*
X2530709Y-1789450D01*
X2529016Y-1791143D01*
X2528170Y-1792836D01*
X2527323Y-1795376D01*
X2527323Y-1799608D01*
X2528170Y-1802147D01*
X2529016Y-1803840D01*
X2530709Y-1805533D01*
X2532402Y-1806380D01*
X2535788Y-1806380D01*
X2537481Y-1805533D01*
X2539174Y-1803840D01*
X2540020Y-1802147D01*
X2545014Y-1788604D02*
X2545014Y-1806380D01*
X2545014Y-1797915D02*
X2547554Y-1795376D01*
X2549247Y-1794529D01*
X2551786Y-1794529D01*
X2553479Y-1795376D01*
X2554326Y-1797915D01*
X2554326Y-1806380D01*
X2569139Y-1794529D02*
X2569139Y-1806380D01*
X2569139Y-1797068D02*
X2567446Y-1795376D01*
X2565753Y-1794529D01*
X2563214Y-1794529D01*
X2561521Y-1795376D01*
X2559828Y-1797068D01*
X2558981Y-1799608D01*
X2558981Y-1801301D01*
X2559828Y-1803840D01*
X2561521Y-1805533D01*
X2563214Y-1806380D01*
X2565753Y-1806380D01*
X2567446Y-1805533D01*
X2569139Y-1803840D01*
X2573880Y-1794529D02*
X2573880Y-1806380D01*
X2573880Y-1797915D02*
X2576419Y-1795376D01*
X2578112Y-1794529D01*
X2580652Y-1794529D01*
X2582344Y-1795376D01*
X2583191Y-1797915D01*
X2583191Y-1806380D01*
X2598004Y-1788604D02*
X2598004Y-1806380D01*
X2598004Y-1797068D02*
X2596312Y-1795376D01*
X2594619Y-1794529D01*
X2592079Y-1794529D01*
X2590386Y-1795376D01*
X2588693Y-1797068D01*
X2587847Y-1799608D01*
X2587847Y-1801301D01*
X2588693Y-1803840D01*
X2590386Y-1805533D01*
X2592079Y-1806380D01*
X2594619Y-1806380D01*
X2596312Y-1805533D01*
X2598004Y-1803840D01*
X2602745Y-1788604D02*
X2602745Y-1806380D01*
X2606469Y-1799608D02*
X2616627Y-1799608D01*
X2616627Y-1797915D01*
X2615781Y-1796222D01*
X2614934Y-1795376D01*
X2613241Y-1794529D01*
X2610702Y-1794529D01*
X2609009Y-1795376D01*
X2607316Y-1797068D01*
X2606469Y-1799608D01*
X2606469Y-1801301D01*
X2607316Y-1803840D01*
X2609009Y-1805533D01*
X2610702Y-1806380D01*
X2613241Y-1806380D01*
X2614934Y-1805533D01*
X2616627Y-1803840D01*
X2620436Y-1794529D02*
X2620436Y-1806380D01*
X2620436Y-1799608D02*
X2621283Y-1797068D01*
X2622976Y-1795376D01*
X2624669Y-1794529D01*
X2627208Y-1794529D01*
X2642784Y-1788604D02*
X2642784Y-1806380D01*
X2642784Y-1788604D02*
X2650402Y-1788604D01*
X2652941Y-1789450D01*
X2653788Y-1790297D01*
X2654634Y-1791990D01*
X2654634Y-1793683D01*
X2653788Y-1795376D01*
X2652941Y-1796222D01*
X2650402Y-1797068D01*
X2642784Y-1797068D02*
X2650402Y-1797068D01*
X2652941Y-1797915D01*
X2653788Y-1798761D01*
X2654634Y-1800455D01*
X2654634Y-1802994D01*
X2653788Y-1804687D01*
X2652941Y-1805533D01*
X2650402Y-1806380D01*
X2642784Y-1806380D01*
X2658613Y-1788604D02*
X2658613Y-1806380D01*
X2662337Y-1794529D02*
X2667416Y-1806380D01*
X2672495Y-1794529D02*
X2667416Y-1806380D01*
X2685531Y-1788604D02*
X2685531Y-1806380D01*
X2685531Y-1797068D02*
X2683838Y-1795376D01*
X2682145Y-1794529D01*
X2679606Y-1794529D01*
X2677913Y-1795376D01*
X2676220Y-1797068D01*
X2675373Y-1799608D01*
X2675373Y-1801301D01*
X2676220Y-1803840D01*
X2677913Y-1805533D01*
X2679606Y-1806380D01*
X2682145Y-1806380D01*
X2683838Y-1805533D01*
X2685531Y-1803840D01*
X2691118Y-1804687D02*
X2690271Y-1805533D01*
X2691118Y-1806380D01*
X2691964Y-1805533D01*
X2691118Y-1804687D01*
X2397700Y-1761204D02*
X2397700Y-1778980D01*
X2397700Y-1761204D02*
X2404472Y-1778980D01*
X2411244Y-1761204D02*
X2404472Y-1778980D01*
X2411244Y-1761204D02*
X2411244Y-1778980D01*
X2418016Y-1761204D02*
X2418862Y-1762050D01*
X2419709Y-1761204D01*
X2418862Y-1760357D01*
X2418016Y-1761204D01*
X2418862Y-1767129D02*
X2418862Y-1778980D01*
X2432999Y-1769668D02*
X2431306Y-1767976D01*
X2429613Y-1767129D01*
X2427073Y-1767129D01*
X2425380Y-1767976D01*
X2423687Y-1769668D01*
X2422841Y-1772208D01*
X2422841Y-1773901D01*
X2423687Y-1776440D01*
X2425380Y-1778133D01*
X2427073Y-1778980D01*
X2429613Y-1778980D01*
X2431306Y-1778133D01*
X2432999Y-1776440D01*
X2436808Y-1767129D02*
X2436808Y-1778980D01*
X2436808Y-1772208D02*
X2437654Y-1769668D01*
X2439347Y-1767976D01*
X2441040Y-1767129D01*
X2443580Y-1767129D01*
X2449420Y-1767129D02*
X2447727Y-1767976D01*
X2446035Y-1769668D01*
X2445188Y-1772208D01*
X2445188Y-1773901D01*
X2446035Y-1776440D01*
X2447727Y-1778133D01*
X2449420Y-1778980D01*
X2451960Y-1778980D01*
X2453653Y-1778133D01*
X2455346Y-1776440D01*
X2456192Y-1773901D01*
X2456192Y-1772208D01*
X2455346Y-1769668D01*
X2453653Y-1767976D01*
X2451960Y-1767129D01*
X2449420Y-1767129D01*
X2470244Y-1769668D02*
X2468551Y-1767976D01*
X2466858Y-1767129D01*
X2464319Y-1767129D01*
X2462626Y-1767976D01*
X2460933Y-1769668D01*
X2460086Y-1772208D01*
X2460086Y-1773901D01*
X2460933Y-1776440D01*
X2462626Y-1778133D01*
X2464319Y-1778980D01*
X2466858Y-1778980D01*
X2468551Y-1778133D01*
X2470244Y-1776440D01*
X2474053Y-1761204D02*
X2474053Y-1778980D01*
X2474053Y-1770515D02*
X2476593Y-1767976D01*
X2478286Y-1767129D01*
X2480825Y-1767129D01*
X2482518Y-1767976D01*
X2483365Y-1770515D01*
X2483365Y-1778980D01*
X2489713Y-1761204D02*
X2490560Y-1762050D01*
X2491406Y-1761204D01*
X2490560Y-1760357D01*
X2489713Y-1761204D01*
X2490560Y-1767129D02*
X2490560Y-1778980D01*
X2494538Y-1767129D02*
X2494538Y-1784905D01*
X2494538Y-1769668D02*
X2496231Y-1767976D01*
X2497924Y-1767129D01*
X2500464Y-1767129D01*
X2502156Y-1767976D01*
X2503849Y-1769668D01*
X2504696Y-1772208D01*
X2504696Y-1773901D01*
X2503849Y-1776440D01*
X2502156Y-1778133D01*
X2500464Y-1778980D01*
X2497924Y-1778980D01*
X2496231Y-1778133D01*
X2494538Y-1776440D01*
X2528398Y-1761204D02*
X2528398Y-1778980D01*
X2522472Y-1761204D02*
X2534323Y-1761204D01*
X2536439Y-1772208D02*
X2546597Y-1772208D01*
X2546597Y-1770515D01*
X2545750Y-1768822D01*
X2544904Y-1767976D01*
X2543211Y-1767129D01*
X2540672Y-1767129D01*
X2538978Y-1767976D01*
X2537286Y-1769668D01*
X2536439Y-1772208D01*
X2536439Y-1773901D01*
X2537286Y-1776440D01*
X2538978Y-1778133D01*
X2540672Y-1778980D01*
X2543211Y-1778980D01*
X2544904Y-1778133D01*
X2546597Y-1776440D01*
X2560564Y-1769668D02*
X2558871Y-1767976D01*
X2557178Y-1767129D01*
X2554639Y-1767129D01*
X2552946Y-1767976D01*
X2551253Y-1769668D01*
X2550406Y-1772208D01*
X2550406Y-1773901D01*
X2551253Y-1776440D01*
X2552946Y-1778133D01*
X2554639Y-1778980D01*
X2557178Y-1778980D01*
X2558871Y-1778133D01*
X2560564Y-1776440D01*
X2564373Y-1761204D02*
X2564373Y-1778980D01*
X2564373Y-1770515D02*
X2566913Y-1767976D01*
X2568606Y-1767129D01*
X2571145Y-1767129D01*
X2572838Y-1767976D01*
X2573684Y-1770515D01*
X2573684Y-1778980D01*
X2578340Y-1767129D02*
X2578340Y-1778980D01*
X2578340Y-1770515D02*
X2580880Y-1767976D01*
X2582573Y-1767129D01*
X2585112Y-1767129D01*
X2586805Y-1767976D01*
X2587651Y-1770515D01*
X2587651Y-1778980D01*
X2596540Y-1767129D02*
X2594846Y-1767976D01*
X2593154Y-1769668D01*
X2592307Y-1772208D01*
X2592307Y-1773901D01*
X2593154Y-1776440D01*
X2594846Y-1778133D01*
X2596540Y-1778980D01*
X2599079Y-1778980D01*
X2600772Y-1778133D01*
X2602465Y-1776440D01*
X2603311Y-1773901D01*
X2603311Y-1772208D01*
X2602465Y-1769668D01*
X2600772Y-1767976D01*
X2599079Y-1767129D01*
X2596540Y-1767129D01*
X2607205Y-1761204D02*
X2607205Y-1778980D01*
X2615162Y-1767129D02*
X2613469Y-1767976D01*
X2611776Y-1769668D01*
X2610930Y-1772208D01*
X2610930Y-1773901D01*
X2611776Y-1776440D01*
X2613469Y-1778133D01*
X2615162Y-1778980D01*
X2617702Y-1778980D01*
X2619395Y-1778133D01*
X2621088Y-1776440D01*
X2621934Y-1773901D01*
X2621934Y-1772208D01*
X2621088Y-1769668D01*
X2619395Y-1767976D01*
X2617702Y-1767129D01*
X2615162Y-1767129D01*
X2635986Y-1767129D02*
X2635986Y-1780673D01*
X2635139Y-1783212D01*
X2634293Y-1784059D01*
X2632600Y-1784905D01*
X2630060Y-1784905D01*
X2628367Y-1784059D01*
X2635986Y-1769668D02*
X2634293Y-1767976D01*
X2632600Y-1767129D01*
X2630060Y-1767129D01*
X2628367Y-1767976D01*
X2626674Y-1769668D01*
X2625828Y-1772208D01*
X2625828Y-1773901D01*
X2626674Y-1776440D01*
X2628367Y-1778133D01*
X2630060Y-1778980D01*
X2632600Y-1778980D01*
X2634293Y-1778133D01*
X2635986Y-1776440D01*
X2641573Y-1767129D02*
X2646651Y-1778980D01*
X2651730Y-1767129D02*
X2646651Y-1778980D01*
X2644958Y-1782366D01*
X2643265Y-1784059D01*
X2641573Y-1784905D01*
X2640726Y-1784905D01*
X2668660Y-1761204D02*
X2668660Y-1778980D01*
X2672385Y-1767129D02*
X2672385Y-1778980D01*
X2672385Y-1770515D02*
X2674924Y-1767976D01*
X2676617Y-1767129D01*
X2679156Y-1767129D01*
X2680849Y-1767976D01*
X2681696Y-1770515D01*
X2681696Y-1778980D01*
X2696509Y-1769668D02*
X2694816Y-1767976D01*
X2693123Y-1767129D01*
X2690584Y-1767129D01*
X2688891Y-1767976D01*
X2687198Y-1769668D01*
X2686352Y-1772208D01*
X2686352Y-1773901D01*
X2687198Y-1776440D01*
X2688891Y-1778133D01*
X2690584Y-1778980D01*
X2693123Y-1778980D01*
X2694816Y-1778133D01*
X2696509Y-1776440D01*
X2701165Y-1777287D02*
X2700319Y-1778133D01*
X2701165Y-1778980D01*
X2702011Y-1778133D01*
X2701165Y-1777287D01*
X3010714Y-1712811D02*
X3010000Y-1712097D01*
X3010714Y-1711383D01*
X3011429Y-1712097D01*
X3011429Y-1713526D01*
X3010714Y-1714954D01*
X3010000Y-1715668D01*
X3018998Y-1711383D02*
X3016856Y-1712097D01*
X3015428Y-1714240D01*
X3014713Y-1717810D01*
X3014713Y-1719953D01*
X3015428Y-1723523D01*
X3016856Y-1725666D01*
X3018998Y-1726380D01*
X3020427Y-1726380D01*
X3022569Y-1725666D01*
X3023997Y-1723523D01*
X3024711Y-1719953D01*
X3024711Y-1717810D01*
X3023997Y-1714240D01*
X3022569Y-1712097D01*
X3020427Y-1711383D01*
X3018998Y-1711383D01*
X3036637Y-1711383D02*
X3029496Y-1711383D01*
X3028782Y-1717810D01*
X3029496Y-1717096D01*
X3031638Y-1716382D01*
X3033781Y-1716382D01*
X3035923Y-1717096D01*
X3037351Y-1718524D01*
X3038065Y-1720667D01*
X3038065Y-1722095D01*
X3037351Y-1724238D01*
X3035923Y-1725666D01*
X3033781Y-1726380D01*
X3031638Y-1726380D01*
X3029496Y-1725666D01*
X3028782Y-1724952D01*
X3028068Y-1723523D01*
X3041422Y-1719953D02*
X3054276Y-1719953D01*
X3058704Y-1731379D02*
X3070130Y-1731379D01*
X3072058Y-1731379D02*
X3083484Y-1731379D01*
X3085413Y-1719953D02*
X3098267Y-1719953D01*
X3102694Y-1711383D02*
X3102694Y-1726380D01*
X3102694Y-1711383D02*
X3109122Y-1711383D01*
X3111264Y-1712097D01*
X3111978Y-1712811D01*
X3112692Y-1714240D01*
X3112692Y-1715668D01*
X3111978Y-1717096D01*
X3111264Y-1717810D01*
X3109122Y-1718524D01*
X3102694Y-1718524D01*
X3107693Y-1718524D02*
X3112692Y-1726380D01*
X3116049Y-1731379D02*
X3127475Y-1731379D01*
X3129403Y-1731379D02*
X3140829Y-1731379D01*
X3143471Y-1724952D02*
X3142757Y-1725666D01*
X3143471Y-1726380D01*
X3144185Y-1725666D01*
X3143471Y-1724952D01*
X3158183Y-1714954D02*
X3157469Y-1713526D01*
X3156040Y-1712097D01*
X3154612Y-1711383D01*
X3151755Y-1711383D01*
X3150327Y-1712097D01*
X3148899Y-1713526D01*
X3148185Y-1714954D01*
X3147471Y-1717096D01*
X3147471Y-1720667D01*
X3148185Y-1722809D01*
X3148899Y-1724238D01*
X3150327Y-1725666D01*
X3151755Y-1726380D01*
X3154612Y-1726380D01*
X3156040Y-1725666D01*
X3157469Y-1724238D01*
X3158183Y-1722809D01*
X3158183Y-1720667D01*
X3154612Y-1720667D02*
X3158183Y-1720667D01*
X3172322Y-1714954D02*
X3171608Y-1713526D01*
X3170180Y-1712097D01*
X3168752Y-1711383D01*
X3165895Y-1711383D01*
X3164467Y-1712097D01*
X3163039Y-1713526D01*
X3162325Y-1714954D01*
X3161610Y-1717096D01*
X3161610Y-1720667D01*
X3162325Y-1722809D01*
X3163039Y-1724238D01*
X3164467Y-1725666D01*
X3165895Y-1726380D01*
X3168752Y-1726380D01*
X3170180Y-1725666D01*
X3171608Y-1724238D01*
X3172322Y-1722809D01*
X3172322Y-1720667D01*
X3168752Y-1720667D02*
X3172322Y-1720667D01*
X3175750Y-1714240D02*
X3177179Y-1713526D01*
X3179321Y-1711383D01*
X3179321Y-1726380D01*
X3187462Y-1712811D02*
X3186748Y-1712097D01*
X3187462Y-1711383D01*
X3188176Y-1712097D01*
X3188176Y-1713526D01*
X3187462Y-1714954D01*
X3186748Y-1715668D01*
X3275816Y-1858363D02*
X3274969Y-1856670D01*
X3272430Y-1855824D01*
X3270737Y-1855824D01*
X3268198Y-1856670D01*
X3266505Y-1859210D01*
X3265658Y-1863442D01*
X3265658Y-1867675D01*
X3266505Y-1871060D01*
X3268198Y-1872753D01*
X3270737Y-1873600D01*
X3271584Y-1873600D01*
X3274123Y-1872753D01*
X3275816Y-1871060D01*
X3276662Y-1868521D01*
X3276662Y-1867675D01*
X3275816Y-1865135D01*
X3274123Y-1863442D01*
X3271584Y-1862596D01*
X3270737Y-1862596D01*
X3268198Y-1863442D01*
X3266505Y-1865135D01*
X3265658Y-1867675D01*
X2639546Y-1855824D02*
X2631081Y-1855824D01*
X2630235Y-1863442D01*
X2631081Y-1862596D01*
X2633621Y-1861749D01*
X2636160Y-1861749D01*
X2638700Y-1862596D01*
X2640392Y-1864288D01*
X2641239Y-1866828D01*
X2641239Y-1868521D01*
X2640392Y-1871060D01*
X2638700Y-1872753D01*
X2636160Y-1873600D01*
X2633621Y-1873600D01*
X2631081Y-1872753D01*
X2630235Y-1871907D01*
X2629388Y-1870214D01*
X2003110Y-1855824D02*
X1994645Y-1867675D01*
X2007342Y-1867675D01*
X2003110Y-1855824D02*
X2003110Y-1873600D01*
X1359644Y-1855824D02*
X1368956Y-1855824D01*
X1363877Y-1862596D01*
X1366416Y-1862596D01*
X1368109Y-1863442D01*
X1368956Y-1864288D01*
X1369802Y-1866828D01*
X1369802Y-1868521D01*
X1368956Y-1871060D01*
X1367263Y-1872753D01*
X1364723Y-1873600D01*
X1362184Y-1873600D01*
X1359644Y-1872753D01*
X1358798Y-1871907D01*
X1357951Y-1870214D01*
X726505Y-1860056D02*
X726505Y-1859210D01*
X727351Y-1857517D01*
X728198Y-1856670D01*
X729891Y-1855824D01*
X733277Y-1855824D01*
X734969Y-1856670D01*
X735816Y-1857517D01*
X736662Y-1859210D01*
X736662Y-1860903D01*
X735816Y-1862596D01*
X734123Y-1865135D01*
X725658Y-1873600D01*
X737509Y-1873600D01*
X91760Y-1859210D02*
X93453Y-1858363D01*
X95992Y-1855824D01*
X95992Y-1873600D01*
X-201950Y-1593696D02*
X-201950Y-1611472D01*
X-201950Y-1593696D02*
X-196024Y-1593696D01*
X-193485Y-1594542D01*
X-191792Y-1596235D01*
X-190946Y-1597928D01*
X-190099Y-1600468D01*
X-190099Y-1604700D01*
X-190946Y-1607240D01*
X-191792Y-1608932D01*
X-193485Y-1610625D01*
X-196024Y-1611472D01*
X-201950Y-1611472D01*
X-189253Y-995948D02*
X-190099Y-994255D01*
X-191792Y-992562D01*
X-193485Y-991716D01*
X-196871Y-991716D01*
X-198564Y-992562D01*
X-200257Y-994255D01*
X-201103Y-995948D01*
X-201950Y-998488D01*
X-201950Y-1002720D01*
X-201103Y-1005259D01*
X-200257Y-1006952D01*
X-198564Y-1008645D01*
X-196871Y-1009492D01*
X-193485Y-1009492D01*
X-191792Y-1008645D01*
X-190099Y-1006952D01*
X-189253Y-1005259D01*
X-201950Y-388466D02*
X-201950Y-406242D01*
X-201950Y-388466D02*
X-194331Y-388466D01*
X-191792Y-389312D01*
X-190946Y-390159D01*
X-190099Y-391852D01*
X-190099Y-393545D01*
X-190946Y-395238D01*
X-191792Y-396084D01*
X-194331Y-396931D01*
X-201950Y-396931D02*
X-194331Y-396931D01*
X-191792Y-397777D01*
X-190946Y-398624D01*
X-190099Y-400317D01*
X-190099Y-402856D01*
X-190946Y-404549D01*
X-191792Y-405395D01*
X-194331Y-406242D01*
X-201950Y-406242D01*
X-188406Y198278D02*
X-195178Y216054D01*
X-201950Y198278D01*
X-199410Y204203D02*
X-190946Y204203D01*
X3557250Y-1593696D02*
X3557250Y-1611472D01*
X3557250Y-1593696D02*
X3563175Y-1593696D01*
X3565715Y-1594542D01*
X3567408Y-1596235D01*
X3568254Y-1597928D01*
X3569101Y-1600468D01*
X3569101Y-1604700D01*
X3568254Y-1607240D01*
X3567408Y-1608932D01*
X3565715Y-1610625D01*
X3563175Y-1611472D01*
X3557250Y-1611472D01*
X3569948Y-995948D02*
X3569101Y-994255D01*
X3567408Y-992562D01*
X3565715Y-991716D01*
X3562329Y-991716D01*
X3560636Y-992562D01*
X3558943Y-994255D01*
X3558097Y-995948D01*
X3557250Y-998488D01*
X3557250Y-1002720D01*
X3558097Y-1005259D01*
X3558943Y-1006952D01*
X3560636Y-1008645D01*
X3562329Y-1009492D01*
X3565715Y-1009492D01*
X3567408Y-1008645D01*
X3569101Y-1006952D01*
X3569948Y-1005259D01*
X3557250Y-388466D02*
X3557250Y-406242D01*
X3557250Y-388466D02*
X3564868Y-388466D01*
X3567408Y-389312D01*
X3568254Y-390159D01*
X3569101Y-391852D01*
X3569101Y-393545D01*
X3568254Y-395238D01*
X3567408Y-396084D01*
X3564868Y-396931D01*
X3557250Y-396931D02*
X3564868Y-396931D01*
X3567408Y-397777D01*
X3568254Y-398624D01*
X3569101Y-400317D01*
X3569101Y-402856D01*
X3568254Y-404549D01*
X3567408Y-405395D01*
X3564868Y-406242D01*
X3557250Y-406242D01*
X3570794Y198278D02*
X3564022Y216054D01*
X3557250Y198278D01*
X3559790Y204203D02*
X3568254Y204203D01*
X3275816Y503837D02*
X3274969Y505530D01*
X3272430Y506376D01*
X3270737Y506376D01*
X3268198Y505530D01*
X3266505Y502990D01*
X3265658Y498758D01*
X3265658Y494525D01*
X3266505Y491140D01*
X3268198Y489447D01*
X3270737Y488600D01*
X3271584Y488600D01*
X3274123Y489447D01*
X3275816Y491140D01*
X3276662Y493679D01*
X3276662Y494525D01*
X3275816Y497065D01*
X3274123Y498758D01*
X3271584Y499604D01*
X3270737Y499604D01*
X3268198Y498758D01*
X3266505Y497065D01*
X3265658Y494525D01*
X2639546Y506376D02*
X2631081Y506376D01*
X2630235Y498758D01*
X2631081Y499604D01*
X2633621Y500451D01*
X2636160Y500451D01*
X2638700Y499604D01*
X2640392Y497911D01*
X2641239Y495372D01*
X2641239Y493679D01*
X2640392Y491140D01*
X2638700Y489447D01*
X2636160Y488600D01*
X2633621Y488600D01*
X2631081Y489447D01*
X2630235Y490293D01*
X2629388Y491986D01*
X2003110Y506376D02*
X1994645Y494525D01*
X2007342Y494525D01*
X2003110Y506376D02*
X2003110Y488600D01*
X1359644Y506376D02*
X1368956Y506376D01*
X1363877Y499604D01*
X1366416Y499604D01*
X1368109Y498758D01*
X1368956Y497911D01*
X1369802Y495372D01*
X1369802Y493679D01*
X1368956Y491140D01*
X1367263Y489447D01*
X1364723Y488600D01*
X1362184Y488600D01*
X1359644Y489447D01*
X1358798Y490293D01*
X1357951Y491986D01*
X726505Y502144D02*
X726505Y502990D01*
X727351Y504683D01*
X728198Y505530D01*
X729891Y506376D01*
X733277Y506376D01*
X734969Y505530D01*
X735816Y504683D01*
X736662Y502990D01*
X736662Y501297D01*
X735816Y499604D01*
X734123Y497065D01*
X725658Y488600D01*
X737509Y488600D01*
X91760Y502990D02*
X93453Y503837D01*
X95992Y506376D01*
X95992Y488600D01*
D15*
X2730000Y-1808405D02*
X2734928Y-1808405D01*
X2736570Y-1807857D01*
X2737118Y-1807310D01*
X2737665Y-1806215D01*
X2737665Y-1804572D01*
X2737118Y-1803477D01*
X2736570Y-1802930D01*
X2734928Y-1802382D01*
X2730000Y-1802382D01*
X2730000Y-1813880D01*
X2748451Y-1805120D02*
X2747903Y-1804025D01*
X2746808Y-1802930D01*
X2745714Y-1802382D01*
X2743523Y-1802382D01*
X2742428Y-1802930D01*
X2741333Y-1804025D01*
X2740786Y-1805120D01*
X2740238Y-1806762D01*
X2740238Y-1809500D01*
X2740786Y-1811142D01*
X2741333Y-1812237D01*
X2742428Y-1813332D01*
X2743523Y-1813880D01*
X2745714Y-1813880D01*
X2746808Y-1813332D01*
X2747903Y-1812237D01*
X2748451Y-1811142D01*
X2751681Y-1802382D02*
X2751681Y-1813880D01*
X2751681Y-1802382D02*
X2756609Y-1802382D01*
X2758251Y-1802930D01*
X2758799Y-1803477D01*
X2759346Y-1804572D01*
X2759346Y-1805667D01*
X2758799Y-1806762D01*
X2758251Y-1807310D01*
X2756609Y-1807857D01*
X2751681Y-1807857D02*
X2756609Y-1807857D01*
X2758251Y-1808405D01*
X2758799Y-1808952D01*
X2759346Y-1810047D01*
X2759346Y-1811690D01*
X2758799Y-1812785D01*
X2758251Y-1813332D01*
X2756609Y-1813880D01*
X2751681Y-1813880D01*
X2770953Y-1802382D02*
X2770953Y-1813880D01*
X2770953Y-1802382D02*
X2778071Y-1802382D01*
X2770953Y-1807857D02*
X2775333Y-1807857D01*
X2779385Y-1802382D02*
X2779385Y-1813880D01*
X2781794Y-1802382D02*
X2781794Y-1813880D01*
X2788364Y-1813880D01*
X2796741Y-1802382D02*
X2789623Y-1802382D01*
X2789623Y-1813880D01*
X2796741Y-1813880D01*
X2789623Y-1807857D02*
X2794003Y-1807857D01*
X2807691Y-1802382D02*
X2807691Y-1813880D01*
X2807691Y-1802382D02*
X2815356Y-1813880D01*
X2815356Y-1802382D02*
X2815356Y-1813880D01*
X2827291Y-1813880D02*
X2822911Y-1802382D01*
X2818531Y-1813880D01*
X2820174Y-1810047D02*
X2825649Y-1810047D01*
X2829974Y-1802382D02*
X2829974Y-1813880D01*
X2829974Y-1802382D02*
X2834354Y-1813880D01*
X2838734Y-1802382D02*
X2834354Y-1813880D01*
X2838734Y-1802382D02*
X2838734Y-1813880D01*
X2849137Y-1802382D02*
X2842019Y-1802382D01*
X2842019Y-1813880D01*
X2849137Y-1813880D01*
X2842019Y-1807857D02*
X2846399Y-1807857D01*
X2851600Y-1806215D02*
X2851053Y-1806762D01*
X2851600Y-1807310D01*
X2852148Y-1806762D01*
X2851600Y-1806215D01*
X2851600Y-1812785D02*
X2851053Y-1813332D01*
X2851600Y-1813880D01*
X2852148Y-1813332D01*
X2851600Y-1812785D01*
X2730476Y-1826263D02*
X2730476Y-1825786D01*
X2730952Y-1824834D01*
X2731429Y-1824358D01*
X2732381Y-1823882D01*
X2734285Y-1823882D01*
X2735237Y-1824358D01*
X2735713Y-1824834D01*
X2736189Y-1825786D01*
X2736189Y-1826738D01*
X2735713Y-1827691D01*
X2734761Y-1829119D01*
X2730000Y-1833880D01*
X2736665Y-1833880D01*
X2746758Y-1823882D02*
X2746758Y-1833880D01*
X2752472Y-1833880D01*
X2759279Y-1827215D02*
X2759279Y-1833880D01*
X2759279Y-1828643D02*
X2758327Y-1827691D01*
X2757375Y-1827215D01*
X2755947Y-1827215D01*
X2754995Y-1827691D01*
X2754043Y-1828643D01*
X2753567Y-1830071D01*
X2753567Y-1831023D01*
X2754043Y-1832452D01*
X2754995Y-1833404D01*
X2755947Y-1833880D01*
X2757375Y-1833880D01*
X2758327Y-1833404D01*
X2759279Y-1832452D01*
X2762422Y-1827215D02*
X2765278Y-1833880D01*
X2768135Y-1827215D02*
X2765278Y-1833880D01*
X2764326Y-1835784D01*
X2763374Y-1836736D01*
X2762422Y-1837213D01*
X2761946Y-1837213D01*
X2769801Y-1830071D02*
X2775514Y-1830071D01*
X2775514Y-1829119D01*
X2775038Y-1828167D01*
X2774562Y-1827691D01*
X2773610Y-1827215D01*
X2772182Y-1827215D01*
X2771229Y-1827691D01*
X2770277Y-1828643D01*
X2769801Y-1830071D01*
X2769801Y-1831023D01*
X2770277Y-1832452D01*
X2771229Y-1833404D01*
X2772182Y-1833880D01*
X2773610Y-1833880D01*
X2774562Y-1833404D01*
X2775514Y-1832452D01*
X2777657Y-1827215D02*
X2777657Y-1833880D01*
X2777657Y-1830071D02*
X2778133Y-1828643D01*
X2779085Y-1827691D01*
X2780037Y-1827215D01*
X2781465Y-1827215D01*
X2787607Y-1828643D02*
X2787131Y-1827691D01*
X2785703Y-1827215D01*
X2784274Y-1827215D01*
X2782846Y-1827691D01*
X2782370Y-1828643D01*
X2782846Y-1829595D01*
X2783798Y-1830071D01*
X2786179Y-1830547D01*
X2787131Y-1831023D01*
X2787607Y-1831976D01*
X2787607Y-1832452D01*
X2787131Y-1833404D01*
X2785703Y-1833880D01*
X2784274Y-1833880D01*
X2782846Y-1833404D01*
X2782370Y-1832452D01*
X2790178Y-1832928D02*
X2789702Y-1833404D01*
X2790178Y-1833880D01*
X2790654Y-1833404D01*
X2790178Y-1832928D01*
X2792844Y-1829119D02*
X2797129Y-1829119D01*
X2798557Y-1828643D01*
X2799033Y-1828167D01*
X2799509Y-1827215D01*
X2799509Y-1825786D01*
X2799033Y-1824834D01*
X2798557Y-1824358D01*
X2797129Y-1823882D01*
X2792844Y-1823882D01*
X2792844Y-1833880D01*
X2807460Y-1828643D02*
X2806508Y-1827691D01*
X2805555Y-1827215D01*
X2804127Y-1827215D01*
X2803175Y-1827691D01*
X2802223Y-1828643D01*
X2801747Y-1830071D01*
X2801747Y-1831023D01*
X2802223Y-1832452D01*
X2803175Y-1833404D01*
X2804127Y-1833880D01*
X2805555Y-1833880D01*
X2806508Y-1833404D01*
X2807460Y-1832452D01*
X2809602Y-1823882D02*
X2809602Y-1833880D01*
X2809602Y-1828643D02*
X2810554Y-1827691D01*
X2811506Y-1827215D01*
X2812935Y-1827215D01*
X2813887Y-1827691D01*
X2814839Y-1828643D01*
X2815315Y-1830071D01*
X2815315Y-1831023D01*
X2814839Y-1832452D01*
X2813887Y-1833404D01*
X2812935Y-1833880D01*
X2811506Y-1833880D01*
X2810554Y-1833404D01*
X2809602Y-1832452D01*
X2817458Y-1823882D02*
X2817458Y-1833880D01*
X2817458Y-1823882D02*
X2820790Y-1823882D01*
X2822219Y-1824358D01*
X2823170Y-1825310D01*
X2823647Y-1826263D01*
X2824123Y-1827691D01*
X2824123Y-1830071D01*
X2823647Y-1831499D01*
X2823170Y-1832452D01*
X2822219Y-1833404D01*
X2820790Y-1833880D01*
X2817458Y-1833880D01*
X2828741Y-1827215D02*
X2827789Y-1827691D01*
X2826837Y-1828643D01*
X2826360Y-1830071D01*
X2826360Y-1831023D01*
X2826837Y-1832452D01*
X2827789Y-1833404D01*
X2828741Y-1833880D01*
X2830169Y-1833880D01*
X2831121Y-1833404D01*
X2832073Y-1832452D01*
X2832550Y-1831023D01*
X2832550Y-1830071D01*
X2832073Y-1828643D01*
X2831121Y-1827691D01*
X2830169Y-1827215D01*
X2828741Y-1827215D01*
X2840453Y-1828643D02*
X2839500Y-1827691D01*
X2838548Y-1827215D01*
X2837120Y-1827215D01*
X2836168Y-1827691D01*
X2835216Y-1828643D01*
X2834740Y-1830071D01*
X2834740Y-1831023D01*
X2835216Y-1832452D01*
X2836168Y-1833404D01*
X2837120Y-1833880D01*
X2838548Y-1833880D01*
X2839500Y-1833404D01*
X2840453Y-1832452D01*
X2730000Y-1690905D02*
X2734928Y-1690905D01*
X2736570Y-1690357D01*
X2737118Y-1689810D01*
X2737665Y-1688715D01*
X2737665Y-1687072D01*
X2737118Y-1685977D01*
X2736570Y-1685430D01*
X2734928Y-1684882D01*
X2730000Y-1684882D01*
X2730000Y-1696380D01*
X2748451Y-1687620D02*
X2747903Y-1686525D01*
X2746808Y-1685430D01*
X2745714Y-1684882D01*
X2743523Y-1684882D01*
X2742428Y-1685430D01*
X2741333Y-1686525D01*
X2740786Y-1687620D01*
X2740238Y-1689262D01*
X2740238Y-1692000D01*
X2740786Y-1693642D01*
X2741333Y-1694737D01*
X2742428Y-1695832D01*
X2743523Y-1696380D01*
X2745714Y-1696380D01*
X2746808Y-1695832D01*
X2747903Y-1694737D01*
X2748451Y-1693642D01*
X2751681Y-1684882D02*
X2751681Y-1696380D01*
X2751681Y-1684882D02*
X2756609Y-1684882D01*
X2758251Y-1685430D01*
X2758799Y-1685977D01*
X2759346Y-1687072D01*
X2759346Y-1688167D01*
X2758799Y-1689262D01*
X2758251Y-1689810D01*
X2756609Y-1690357D01*
X2751681Y-1690357D02*
X2756609Y-1690357D01*
X2758251Y-1690905D01*
X2758799Y-1691452D01*
X2759346Y-1692547D01*
X2759346Y-1694190D01*
X2758799Y-1695285D01*
X2758251Y-1695832D01*
X2756609Y-1696380D01*
X2751681Y-1696380D01*
X2770953Y-1684882D02*
X2770953Y-1696380D01*
X2777523Y-1696380D01*
X2785352Y-1688715D02*
X2785352Y-1696380D01*
X2785352Y-1690357D02*
X2784258Y-1689262D01*
X2783163Y-1688715D01*
X2781520Y-1688715D01*
X2780425Y-1689262D01*
X2779330Y-1690357D01*
X2778783Y-1692000D01*
X2778783Y-1693095D01*
X2779330Y-1694737D01*
X2780425Y-1695832D01*
X2781520Y-1696380D01*
X2783163Y-1696380D01*
X2784258Y-1695832D01*
X2785352Y-1694737D01*
X2788966Y-1688715D02*
X2792251Y-1696380D01*
X2795536Y-1688715D02*
X2792251Y-1696380D01*
X2791156Y-1698570D01*
X2790061Y-1699665D01*
X2788966Y-1700212D01*
X2788419Y-1700212D01*
X2800190Y-1688715D02*
X2799095Y-1689262D01*
X2798000Y-1690357D01*
X2797452Y-1692000D01*
X2797452Y-1693095D01*
X2798000Y-1694737D01*
X2799095Y-1695832D01*
X2800190Y-1696380D01*
X2801832Y-1696380D01*
X2802928Y-1695832D01*
X2804023Y-1694737D01*
X2804570Y-1693095D01*
X2804570Y-1692000D01*
X2804023Y-1690357D01*
X2802928Y-1689262D01*
X2801832Y-1688715D01*
X2800190Y-1688715D01*
X2807088Y-1688715D02*
X2807088Y-1694190D01*
X2807636Y-1695832D01*
X2808731Y-1696380D01*
X2810374Y-1696380D01*
X2811469Y-1695832D01*
X2813111Y-1694190D01*
X2813111Y-1688715D02*
X2813111Y-1696380D01*
X2817765Y-1684882D02*
X2817765Y-1694190D01*
X2818312Y-1695832D01*
X2819407Y-1696380D01*
X2820502Y-1696380D01*
X2816122Y-1688715D02*
X2819955Y-1688715D01*
X2839391Y-1687620D02*
X2838843Y-1686525D01*
X2837748Y-1685430D01*
X2836653Y-1684882D01*
X2834464Y-1684882D01*
X2833369Y-1685430D01*
X2832274Y-1686525D01*
X2831726Y-1687620D01*
X2831179Y-1689262D01*
X2831179Y-1692000D01*
X2831726Y-1693642D01*
X2832274Y-1694737D01*
X2833369Y-1695832D01*
X2834464Y-1696380D01*
X2836653Y-1696380D01*
X2837748Y-1695832D01*
X2838843Y-1694737D01*
X2839391Y-1693642D01*
X2845359Y-1688715D02*
X2844264Y-1689262D01*
X2843169Y-1690357D01*
X2842621Y-1692000D01*
X2842621Y-1693095D01*
X2843169Y-1694737D01*
X2844264Y-1695832D01*
X2845359Y-1696380D01*
X2847001Y-1696380D01*
X2848096Y-1695832D01*
X2849191Y-1694737D01*
X2849739Y-1693095D01*
X2849739Y-1692000D01*
X2849191Y-1690357D01*
X2848096Y-1689262D01*
X2847001Y-1688715D01*
X2845359Y-1688715D01*
X2852257Y-1688715D02*
X2852257Y-1696380D01*
X2852257Y-1690905D02*
X2853900Y-1689262D01*
X2854995Y-1688715D01*
X2856637Y-1688715D01*
X2857732Y-1689262D01*
X2858280Y-1690905D01*
X2858280Y-1696380D01*
X2862934Y-1684882D02*
X2862934Y-1694190D01*
X2863481Y-1695832D01*
X2864576Y-1696380D01*
X2865671Y-1696380D01*
X2861291Y-1688715D02*
X2865124Y-1688715D01*
X2873884Y-1688715D02*
X2873884Y-1696380D01*
X2873884Y-1690357D02*
X2872789Y-1689262D01*
X2871694Y-1688715D01*
X2870051Y-1688715D01*
X2868956Y-1689262D01*
X2867861Y-1690357D01*
X2867314Y-1692000D01*
X2867314Y-1693095D01*
X2867861Y-1694737D01*
X2868956Y-1695832D01*
X2870051Y-1696380D01*
X2871694Y-1696380D01*
X2872789Y-1695832D01*
X2873884Y-1694737D01*
X2883520Y-1690357D02*
X2882425Y-1689262D01*
X2881330Y-1688715D01*
X2879687Y-1688715D01*
X2878592Y-1689262D01*
X2877497Y-1690357D01*
X2876949Y-1692000D01*
X2876949Y-1693095D01*
X2877497Y-1694737D01*
X2878592Y-1695832D01*
X2879687Y-1696380D01*
X2881330Y-1696380D01*
X2882425Y-1695832D01*
X2883520Y-1694737D01*
X2887626Y-1684882D02*
X2887626Y-1694190D01*
X2888174Y-1695832D01*
X2889268Y-1696380D01*
X2890363Y-1696380D01*
X2885983Y-1688715D02*
X2889816Y-1688715D01*
X2892553Y-1688715D02*
X2892006Y-1689262D01*
X2892553Y-1689810D01*
X2893101Y-1689262D01*
X2892553Y-1688715D01*
X2892553Y-1695285D02*
X2892006Y-1695832D01*
X2892553Y-1696380D01*
X2893101Y-1695832D01*
X2892553Y-1695285D01*
X2730000Y-1750905D02*
X2734928Y-1750905D01*
X2736570Y-1750357D01*
X2737118Y-1749810D01*
X2737665Y-1748715D01*
X2737665Y-1747072D01*
X2737118Y-1745977D01*
X2736570Y-1745430D01*
X2734928Y-1744882D01*
X2730000Y-1744882D01*
X2730000Y-1756380D01*
X2740238Y-1748715D02*
X2740238Y-1756380D01*
X2740238Y-1752000D02*
X2740786Y-1750357D01*
X2741881Y-1749262D01*
X2742976Y-1748715D01*
X2744619Y-1748715D01*
X2748396Y-1748715D02*
X2747301Y-1749262D01*
X2746206Y-1750357D01*
X2745659Y-1752000D01*
X2745659Y-1753095D01*
X2746206Y-1754737D01*
X2747301Y-1755832D01*
X2748396Y-1756380D01*
X2750039Y-1756380D01*
X2751134Y-1755832D01*
X2752229Y-1754737D01*
X2752776Y-1753095D01*
X2752776Y-1752000D01*
X2752229Y-1750357D01*
X2751134Y-1749262D01*
X2750039Y-1748715D01*
X2748396Y-1748715D01*
X2757485Y-1744882D02*
X2758032Y-1745430D01*
X2758580Y-1744882D01*
X2758032Y-1744335D01*
X2757485Y-1744882D01*
X2758032Y-1748715D02*
X2758032Y-1758022D01*
X2757485Y-1759665D01*
X2756390Y-1760212D01*
X2755295Y-1760212D01*
X2760715Y-1752000D02*
X2767285Y-1752000D01*
X2767285Y-1750905D01*
X2766737Y-1749810D01*
X2766190Y-1749262D01*
X2765095Y-1748715D01*
X2763452Y-1748715D01*
X2762357Y-1749262D01*
X2761263Y-1750357D01*
X2760715Y-1752000D01*
X2760715Y-1753095D01*
X2761263Y-1754737D01*
X2762357Y-1755832D01*
X2763452Y-1756380D01*
X2765095Y-1756380D01*
X2766190Y-1755832D01*
X2767285Y-1754737D01*
X2776319Y-1750357D02*
X2775224Y-1749262D01*
X2774129Y-1748715D01*
X2772486Y-1748715D01*
X2771391Y-1749262D01*
X2770296Y-1750357D01*
X2769749Y-1752000D01*
X2769749Y-1753095D01*
X2770296Y-1754737D01*
X2771391Y-1755832D01*
X2772486Y-1756380D01*
X2774129Y-1756380D01*
X2775224Y-1755832D01*
X2776319Y-1754737D01*
X2780425Y-1744882D02*
X2780425Y-1754190D01*
X2780973Y-1755832D01*
X2782068Y-1756380D01*
X2783163Y-1756380D01*
X2778782Y-1748715D02*
X2782615Y-1748715D01*
X2797124Y-1744882D02*
X2796029Y-1745430D01*
X2794934Y-1746525D01*
X2794386Y-1747620D01*
X2793839Y-1749262D01*
X2793839Y-1752000D01*
X2794386Y-1753642D01*
X2794934Y-1754737D01*
X2796029Y-1755832D01*
X2797124Y-1756380D01*
X2799314Y-1756380D01*
X2800409Y-1755832D01*
X2801504Y-1754737D01*
X2802051Y-1753642D01*
X2802599Y-1752000D01*
X2802599Y-1749262D01*
X2802051Y-1747620D01*
X2801504Y-1746525D01*
X2800409Y-1745430D01*
X2799314Y-1744882D01*
X2797124Y-1744882D01*
X2805282Y-1748715D02*
X2807472Y-1756380D01*
X2809662Y-1748715D02*
X2807472Y-1756380D01*
X2809662Y-1748715D02*
X2811852Y-1756380D01*
X2814042Y-1748715D02*
X2811852Y-1756380D01*
X2816725Y-1748715D02*
X2816725Y-1756380D01*
X2816725Y-1750905D02*
X2818367Y-1749262D01*
X2819462Y-1748715D01*
X2821104Y-1748715D01*
X2822199Y-1749262D01*
X2822747Y-1750905D01*
X2822747Y-1756380D01*
X2825758Y-1752000D02*
X2832328Y-1752000D01*
X2832328Y-1750905D01*
X2831781Y-1749810D01*
X2831233Y-1749262D01*
X2830138Y-1748715D01*
X2828496Y-1748715D01*
X2827401Y-1749262D01*
X2826306Y-1750357D01*
X2825758Y-1752000D01*
X2825758Y-1753095D01*
X2826306Y-1754737D01*
X2827401Y-1755832D01*
X2828496Y-1756380D01*
X2830138Y-1756380D01*
X2831233Y-1755832D01*
X2832328Y-1754737D01*
X2834792Y-1748715D02*
X2834792Y-1756380D01*
X2834792Y-1752000D02*
X2835339Y-1750357D01*
X2836435Y-1749262D01*
X2837530Y-1748715D01*
X2839172Y-1748715D01*
X2840760Y-1748715D02*
X2840212Y-1749262D01*
X2840760Y-1749810D01*
X2841307Y-1749262D01*
X2840760Y-1748715D01*
X2840760Y-1755285D02*
X2840212Y-1755832D01*
X2840760Y-1756380D01*
X2841307Y-1755832D01*
X2840760Y-1755285D01*
X3010000Y-1744882D02*
X3010000Y-1756380D01*
X3010000Y-1744882D02*
X3014928Y-1744882D01*
X3016570Y-1745430D01*
X3017118Y-1745977D01*
X3017665Y-1747072D01*
X3017665Y-1748167D01*
X3017118Y-1749262D01*
X3016570Y-1749810D01*
X3014928Y-1750357D01*
X3010000Y-1750357D02*
X3014928Y-1750357D01*
X3016570Y-1750905D01*
X3017118Y-1751452D01*
X3017665Y-1752547D01*
X3017665Y-1754190D01*
X3017118Y-1755285D01*
X3016570Y-1755832D01*
X3014928Y-1756380D01*
X3010000Y-1756380D01*
X3023523Y-1744882D02*
X3022428Y-1745430D01*
X3021333Y-1746525D01*
X3020786Y-1747620D01*
X3020238Y-1749262D01*
X3020238Y-1752000D01*
X3020786Y-1753642D01*
X3021333Y-1754737D01*
X3022428Y-1755832D01*
X3023523Y-1756380D01*
X3025714Y-1756380D01*
X3026808Y-1755832D01*
X3027903Y-1754737D01*
X3028451Y-1753642D01*
X3028998Y-1752000D01*
X3028998Y-1749262D01*
X3028451Y-1747620D01*
X3027903Y-1746525D01*
X3026808Y-1745430D01*
X3025714Y-1744882D01*
X3023523Y-1744882D01*
X3040441Y-1756380D02*
X3036061Y-1744882D01*
X3031681Y-1756380D01*
X3033324Y-1752547D02*
X3038799Y-1752547D01*
X3043124Y-1744882D02*
X3043124Y-1756380D01*
X3043124Y-1744882D02*
X3048051Y-1744882D01*
X3049694Y-1745430D01*
X3050241Y-1745977D01*
X3050789Y-1747072D01*
X3050789Y-1748167D01*
X3050241Y-1749262D01*
X3049694Y-1749810D01*
X3048051Y-1750357D01*
X3043124Y-1750357D01*
X3046956Y-1750357D02*
X3050789Y-1756380D01*
X3053362Y-1744882D02*
X3053362Y-1756380D01*
X3053362Y-1744882D02*
X3057195Y-1744882D01*
X3058837Y-1745430D01*
X3059932Y-1746525D01*
X3060480Y-1747620D01*
X3061027Y-1749262D01*
X3061027Y-1752000D01*
X3060480Y-1753642D01*
X3059932Y-1754737D01*
X3058837Y-1755832D01*
X3057195Y-1756380D01*
X3053362Y-1756380D01*
X3072634Y-1744882D02*
X3072634Y-1756380D01*
X3072634Y-1744882D02*
X3080299Y-1756380D01*
X3080299Y-1744882D02*
X3080299Y-1756380D01*
X3083475Y-1744882D02*
X3083475Y-1753095D01*
X3084023Y-1754737D01*
X3085117Y-1755832D01*
X3086760Y-1756380D01*
X3087855Y-1756380D01*
X3089497Y-1755832D01*
X3090592Y-1754737D01*
X3091140Y-1753095D01*
X3091140Y-1744882D01*
X3094315Y-1744882D02*
X3094315Y-1756380D01*
X3094315Y-1744882D02*
X3098695Y-1756380D01*
X3103076Y-1744882D02*
X3098695Y-1756380D01*
X3103076Y-1744882D02*
X3103076Y-1756380D01*
X3106360Y-1744882D02*
X3106360Y-1756380D01*
X3106360Y-1744882D02*
X3111288Y-1744882D01*
X3112931Y-1745430D01*
X3113478Y-1745977D01*
X3114026Y-1747072D01*
X3114026Y-1748167D01*
X3113478Y-1749262D01*
X3112931Y-1749810D01*
X3111288Y-1750357D01*
X3106360Y-1750357D02*
X3111288Y-1750357D01*
X3112931Y-1750905D01*
X3113478Y-1751452D01*
X3114026Y-1752547D01*
X3114026Y-1754190D01*
X3113478Y-1755285D01*
X3112931Y-1755832D01*
X3111288Y-1756380D01*
X3106360Y-1756380D01*
X3123716Y-1744882D02*
X3116599Y-1744882D01*
X3116599Y-1756380D01*
X3123716Y-1756380D01*
X3116599Y-1750357D02*
X3120979Y-1750357D01*
X3125633Y-1744882D02*
X3125633Y-1756380D01*
X3125633Y-1744882D02*
X3130560Y-1744882D01*
X3132202Y-1745430D01*
X3132750Y-1745977D01*
X3133298Y-1747072D01*
X3133298Y-1748167D01*
X3132750Y-1749262D01*
X3132202Y-1749810D01*
X3130560Y-1750357D01*
X3125633Y-1750357D01*
X3129465Y-1750357D02*
X3133298Y-1756380D01*
X3136418Y-1748715D02*
X3135871Y-1749262D01*
X3136418Y-1749810D01*
X3136966Y-1749262D01*
X3136418Y-1748715D01*
X3136418Y-1755285D02*
X3135871Y-1755832D01*
X3136418Y-1756380D01*
X3136966Y-1755832D01*
X3136418Y-1755285D01*
X3018213Y-1687620D02*
X3017665Y-1686525D01*
X3016570Y-1685430D01*
X3015475Y-1684882D01*
X3013285Y-1684882D01*
X3012190Y-1685430D01*
X3011095Y-1686525D01*
X3010547Y-1687620D01*
X3010000Y-1689262D01*
X3010000Y-1692000D01*
X3010547Y-1693642D01*
X3011095Y-1694737D01*
X3012190Y-1695832D01*
X3013285Y-1696380D01*
X3015475Y-1696380D01*
X3016570Y-1695832D01*
X3017665Y-1694737D01*
X3018213Y-1693642D01*
X3018213Y-1692000D01*
X3015475Y-1692000D02*
X3018213Y-1692000D01*
X3027958Y-1684882D02*
X3020841Y-1684882D01*
X3020841Y-1696380D01*
X3027958Y-1696380D01*
X3020841Y-1690357D02*
X3025221Y-1690357D01*
X3029875Y-1684882D02*
X3029875Y-1696380D01*
X3029875Y-1684882D02*
X3034802Y-1684882D01*
X3036444Y-1685430D01*
X3036992Y-1685977D01*
X3037539Y-1687072D01*
X3037539Y-1688167D01*
X3036992Y-1689262D01*
X3036444Y-1689810D01*
X3034802Y-1690357D01*
X3029875Y-1690357D01*
X3033707Y-1690357D02*
X3037539Y-1696380D01*
X3040113Y-1684882D02*
X3040113Y-1696380D01*
X3040113Y-1684882D02*
X3045040Y-1684882D01*
X3046683Y-1685430D01*
X3047230Y-1685977D01*
X3047778Y-1687072D01*
X3047778Y-1688167D01*
X3047230Y-1689262D01*
X3046683Y-1689810D01*
X3045040Y-1690357D01*
X3040113Y-1690357D02*
X3045040Y-1690357D01*
X3046683Y-1690905D01*
X3047230Y-1691452D01*
X3047778Y-1692547D01*
X3047778Y-1694190D01*
X3047230Y-1695285D01*
X3046683Y-1695832D01*
X3045040Y-1696380D01*
X3040113Y-1696380D01*
X3057469Y-1684882D02*
X3050351Y-1684882D01*
X3050351Y-1696380D01*
X3057469Y-1696380D01*
X3050351Y-1690357D02*
X3054731Y-1690357D01*
X3059385Y-1684882D02*
X3059385Y-1696380D01*
X3059385Y-1684882D02*
X3064312Y-1684882D01*
X3065955Y-1685430D01*
X3066502Y-1685977D01*
X3067050Y-1687072D01*
X3067050Y-1688167D01*
X3066502Y-1689262D01*
X3065955Y-1689810D01*
X3064312Y-1690357D01*
X3059385Y-1690357D01*
X3063217Y-1690357D02*
X3067050Y-1696380D01*
X3078657Y-1684882D02*
X3078657Y-1696380D01*
X3078657Y-1684882D02*
X3085775Y-1684882D01*
X3078657Y-1690357D02*
X3083037Y-1690357D01*
X3087088Y-1684882D02*
X3087088Y-1696380D01*
X3089497Y-1684882D02*
X3089497Y-1696380D01*
X3096068Y-1696380D01*
X3104444Y-1684882D02*
X3097327Y-1684882D01*
X3097327Y-1696380D01*
X3104444Y-1696380D01*
X3097327Y-1690357D02*
X3101707Y-1690357D01*
X3106908Y-1688715D02*
X3106360Y-1689262D01*
X3106908Y-1689810D01*
X3107455Y-1689262D01*
X3106908Y-1688715D01*
X3106908Y-1695285D02*
X3106360Y-1695832D01*
X3106908Y-1696380D01*
X3107455Y-1695832D01*
X3106908Y-1695285D01*
X3397714Y-1774954D02*
X3397714Y-1774240D01*
X3398428Y-1772811D01*
X3399142Y-1772097D01*
X3400571Y-1771383D01*
X3403427Y-1771383D01*
X3404856Y-1772097D01*
X3405570Y-1772811D01*
X3406284Y-1774240D01*
X3406284Y-1775668D01*
X3405570Y-1777096D01*
X3404142Y-1779238D01*
X3397000Y-1786380D01*
X3406998Y-1786380D01*
X3418924Y-1773526D02*
X3418210Y-1772097D01*
X3416068Y-1771383D01*
X3414639Y-1771383D01*
X3412497Y-1772097D01*
X3411068Y-1774240D01*
X3410354Y-1777810D01*
X3410354Y-1781381D01*
X3411068Y-1784238D01*
X3412497Y-1785666D01*
X3414639Y-1786380D01*
X3415353Y-1786380D01*
X3417496Y-1785666D01*
X3418924Y-1784238D01*
X3419638Y-1782095D01*
X3419638Y-1781381D01*
X3418924Y-1779238D01*
X3417496Y-1777810D01*
X3415353Y-1777096D01*
X3414639Y-1777096D01*
X3412497Y-1777810D01*
X3411068Y-1779238D01*
X3410354Y-1781381D01*
X3423637Y-1784952D02*
X3422923Y-1785666D01*
X3423637Y-1786380D01*
X3424352Y-1785666D01*
X3423637Y-1784952D01*
X3431921Y-1771383D02*
X3429779Y-1772097D01*
X3428351Y-1774240D01*
X3427636Y-1777810D01*
X3427636Y-1779953D01*
X3428351Y-1783523D01*
X3429779Y-1785666D01*
X3431921Y-1786380D01*
X3433350Y-1786380D01*
X3435492Y-1785666D01*
X3436920Y-1783523D01*
X3437634Y-1779953D01*
X3437634Y-1777810D01*
X3436920Y-1774240D01*
X3435492Y-1772097D01*
X3433350Y-1771383D01*
X3431921Y-1771383D01*
X3440991Y-1774240D02*
X3442419Y-1773526D01*
X3444561Y-1771383D01*
X3444561Y-1786380D01*
X3452702Y-1784952D02*
X3451988Y-1785666D01*
X3452702Y-1786380D01*
X3453417Y-1785666D01*
X3452702Y-1784952D01*
X3457416Y-1774954D02*
X3457416Y-1774240D01*
X3458130Y-1772811D01*
X3458844Y-1772097D01*
X3460272Y-1771383D01*
X3463129Y-1771383D01*
X3464557Y-1772097D01*
X3465271Y-1772811D01*
X3465985Y-1774240D01*
X3465985Y-1775668D01*
X3465271Y-1777096D01*
X3463843Y-1779238D01*
X3456702Y-1786380D01*
X3466700Y-1786380D01*
X3474341Y-1771383D02*
X3472198Y-1772097D01*
X3470770Y-1774240D01*
X3470056Y-1777810D01*
X3470056Y-1779953D01*
X3470770Y-1783523D01*
X3472198Y-1785666D01*
X3474341Y-1786380D01*
X3475769Y-1786380D01*
X3477911Y-1785666D01*
X3479340Y-1783523D01*
X3480054Y-1779953D01*
X3480054Y-1777810D01*
X3479340Y-1774240D01*
X3477911Y-1772097D01*
X3475769Y-1771383D01*
X3474341Y-1771383D01*
X3484124Y-1774954D02*
X3484124Y-1774240D01*
X3484838Y-1772811D01*
X3485552Y-1772097D01*
X3486981Y-1771383D01*
X3489837Y-1771383D01*
X3491266Y-1772097D01*
X3491980Y-1772811D01*
X3492694Y-1774240D01*
X3492694Y-1775668D01*
X3491980Y-1777096D01*
X3490551Y-1779238D01*
X3483410Y-1786380D01*
X3493408Y-1786380D01*
X3497479Y-1774954D02*
X3497479Y-1774240D01*
X3498193Y-1772811D01*
X3498907Y-1772097D01*
X3500335Y-1771383D01*
X3503192Y-1771383D01*
X3504620Y-1772097D01*
X3505334Y-1772811D01*
X3506048Y-1774240D01*
X3506048Y-1775668D01*
X3505334Y-1777096D01*
X3503906Y-1779238D01*
X3496765Y-1786380D01*
X3506762Y-1786380D01*
X3250000Y-1601619D02*
X3254285Y-1601619D01*
X3255713Y-1601143D01*
X3256189Y-1600667D01*
X3256666Y-1599715D01*
X3256666Y-1598286D01*
X3256189Y-1597334D01*
X3255713Y-1596858D01*
X3254285Y-1596382D01*
X3250000Y-1596382D01*
X3250000Y-1606380D01*
X3266520Y-1606380D02*
X3262712Y-1596382D01*
X3258903Y-1606380D01*
X3260331Y-1603047D02*
X3265092Y-1603047D01*
X3268853Y-1596382D02*
X3268853Y-1606380D01*
X3268853Y-1596382D02*
X3273138Y-1596382D01*
X3274566Y-1596858D01*
X3275042Y-1597334D01*
X3275518Y-1598286D01*
X3275518Y-1599238D01*
X3275042Y-1600191D01*
X3274566Y-1600667D01*
X3273138Y-1601143D01*
X3268853Y-1601143D01*
X3272186Y-1601143D02*
X3275518Y-1606380D01*
X3281089Y-1596382D02*
X3281089Y-1606380D01*
X3277756Y-1596382D02*
X3284421Y-1596382D01*
X3293467Y-1596382D02*
X3293467Y-1606380D01*
X3293467Y-1596382D02*
X3300132Y-1606380D01*
X3300132Y-1596382D02*
X3300132Y-1606380D01*
X3302894Y-1596382D02*
X3302894Y-1603523D01*
X3303370Y-1604951D01*
X3304322Y-1605904D01*
X3305750Y-1606380D01*
X3306702Y-1606380D01*
X3308130Y-1605904D01*
X3309083Y-1604951D01*
X3309559Y-1603523D01*
X3309559Y-1596382D01*
X3312320Y-1596382D02*
X3312320Y-1606380D01*
X3312320Y-1596382D02*
X3316129Y-1606380D01*
X3319938Y-1596382D02*
X3316129Y-1606380D01*
X3319938Y-1596382D02*
X3319938Y-1606380D01*
X3322794Y-1596382D02*
X3322794Y-1606380D01*
X3322794Y-1596382D02*
X3327079Y-1596382D01*
X3328507Y-1596858D01*
X3328983Y-1597334D01*
X3329460Y-1598286D01*
X3329460Y-1599238D01*
X3328983Y-1600191D01*
X3328507Y-1600667D01*
X3327079Y-1601143D01*
X3322794Y-1601143D02*
X3327079Y-1601143D01*
X3328507Y-1601619D01*
X3328983Y-1602095D01*
X3329460Y-1603047D01*
X3329460Y-1604475D01*
X3328983Y-1605428D01*
X3328507Y-1605904D01*
X3327079Y-1606380D01*
X3322794Y-1606380D01*
X3337886Y-1596382D02*
X3331697Y-1596382D01*
X3331697Y-1606380D01*
X3337886Y-1606380D01*
X3331697Y-1601143D02*
X3335506Y-1601143D01*
X3339553Y-1596382D02*
X3339553Y-1606380D01*
X3339553Y-1596382D02*
X3343837Y-1596382D01*
X3345266Y-1596858D01*
X3345742Y-1597334D01*
X3346218Y-1598286D01*
X3346218Y-1599238D01*
X3345742Y-1600191D01*
X3345266Y-1600667D01*
X3343837Y-1601143D01*
X3339553Y-1601143D01*
X3342885Y-1601143D02*
X3346218Y-1606380D01*
X3348931Y-1599715D02*
X3348455Y-1600191D01*
X3348931Y-1600667D01*
X3349407Y-1600191D01*
X3348931Y-1599715D01*
X3348931Y-1605428D02*
X3348455Y-1605904D01*
X3348931Y-1606380D01*
X3349407Y-1605904D01*
X3348931Y-1605428D01*
D16*
X3477000Y-1812380D02*
X3477000Y-1806380D01*
X3538200Y-1616380D02*
X3538200Y-1616380D01*
X3427000Y-1814380D02*
X3427000Y-1804380D01*
X3425400Y-1832730D02*
X3425400Y-1820030D01*
X3450800Y-1832730D02*
X3450800Y-1820030D01*
X3476200Y-1832730D02*
X3476200Y-1820030D01*
X3501600Y-1832730D02*
X3501600Y-1820030D01*
X3527000Y-1814380D02*
X3527000Y-1804380D01*
X3527000Y-1832730D02*
X3527000Y-1820030D01*
X3240000Y-1616380D02*
X3240000Y-1586380D01*
X3425400Y-1826380D02*
X3527000Y-1826380D01*
X3427000Y-1809380D02*
X3527000Y-1809380D01*
X3240000Y-1616380D02*
X3538200Y-1616380D01*
X2720000Y-1661380D02*
X3538200Y-1661380D01*
X3392333Y-1822381D02*
X3389000Y-1827047D01*
X3393999Y-1827047D01*
X3392333Y-1822381D02*
X3392333Y-1829380D01*
X3397232Y-1822381D02*
X3396232Y-1822715D01*
X3395565Y-1823714D01*
X3395232Y-1825381D01*
X3395232Y-1826380D01*
X3395565Y-1828047D01*
X3396232Y-1829047D01*
X3397232Y-1829380D01*
X3397898Y-1829380D01*
X3398898Y-1829047D01*
X3399565Y-1828047D01*
X3399898Y-1826380D01*
X3399898Y-1825381D01*
X3399565Y-1823714D01*
X3398898Y-1822715D01*
X3397898Y-1822381D01*
X3397232Y-1822381D01*
X3403464Y-1822381D02*
X3402464Y-1822715D01*
X3401797Y-1823714D01*
X3401464Y-1825381D01*
X3401464Y-1826380D01*
X3401797Y-1828047D01*
X3402464Y-1829047D01*
X3403464Y-1829380D01*
X3404130Y-1829380D01*
X3405130Y-1829047D01*
X3405797Y-1828047D01*
X3406130Y-1826380D01*
X3406130Y-1825381D01*
X3405797Y-1823714D01*
X3405130Y-1822715D01*
X3404130Y-1822381D01*
X3403464Y-1822381D01*
X3407696Y-1824714D02*
X3407696Y-1829380D01*
X3407696Y-1826047D02*
X3408696Y-1825047D01*
X3409362Y-1824714D01*
X3410362Y-1824714D01*
X3411029Y-1825047D01*
X3411362Y-1826047D01*
X3411362Y-1829380D01*
X3411362Y-1826047D02*
X3412362Y-1825047D01*
X3413028Y-1824714D01*
X3414028Y-1824714D01*
X3414695Y-1825047D01*
X3415028Y-1826047D01*
X3415028Y-1829380D01*
X3417894Y-1822381D02*
X3418227Y-1822715D01*
X3418560Y-1822381D01*
X3418227Y-1822048D01*
X3417894Y-1822381D01*
X3418227Y-1824714D02*
X3418227Y-1829380D01*
X3419794Y-1822381D02*
X3419794Y-1829380D01*
X3390000Y-1806714D02*
X3390667Y-1806381D01*
X3391666Y-1805381D01*
X3391666Y-1812380D01*
X3397132Y-1805381D02*
X3396132Y-1805715D01*
X3395466Y-1806714D01*
X3395132Y-1808381D01*
X3395132Y-1809380D01*
X3395466Y-1811047D01*
X3396132Y-1812047D01*
X3397132Y-1812380D01*
X3397798Y-1812380D01*
X3398798Y-1812047D01*
X3399465Y-1811047D01*
X3399798Y-1809380D01*
X3399798Y-1808381D01*
X3399465Y-1806714D01*
X3398798Y-1805715D01*
X3397798Y-1805381D01*
X3397132Y-1805381D01*
X3401364Y-1807714D02*
X3401364Y-1812380D01*
X3401364Y-1809047D02*
X3402364Y-1808047D01*
X3403031Y-1807714D01*
X3404030Y-1807714D01*
X3404697Y-1808047D01*
X3405030Y-1809047D01*
X3405030Y-1812380D01*
X3405030Y-1809047D02*
X3406030Y-1808047D01*
X3406696Y-1807714D01*
X3407697Y-1807714D01*
X3408363Y-1808047D01*
X3408696Y-1809047D01*
X3408696Y-1812380D01*
X3410896Y-1807714D02*
X3410896Y-1812380D01*
X3410896Y-1809047D02*
X3411895Y-1808047D01*
X3412562Y-1807714D01*
X3413562Y-1807714D01*
X3414228Y-1808047D01*
X3414561Y-1809047D01*
X3414561Y-1812380D01*
X3414561Y-1809047D02*
X3415561Y-1808047D01*
X3416228Y-1807714D01*
X3417228Y-1807714D01*
X3417894Y-1808047D01*
X3418228Y-1809047D01*
X3418228Y-1812380D01*
D17*
X2733809Y-1770383D02*
X2733809Y-1779524D01*
X2730000Y-1772668D02*
X2737617Y-1777239D01*
X2737617Y-1772668D02*
X2730000Y-1777239D01*
X2744702Y-1770383D02*
X2744702Y-1779524D01*
X2740893Y-1772668D02*
X2748510Y-1777239D01*
X2748510Y-1772668D02*
X2740893Y-1777239D01*
X3014571Y-1770383D02*
X3012285Y-1771145D01*
X3010762Y-1773430D01*
X3010000Y-1777239D01*
X3010000Y-1779524D01*
X3010762Y-1783333D01*
X3012285Y-1785618D01*
X3014571Y-1786380D01*
X3016094Y-1786380D01*
X3018379Y-1785618D01*
X3019903Y-1783333D01*
X3020664Y-1779524D01*
X3020664Y-1777239D01*
X3019903Y-1773430D01*
X3018379Y-1771145D01*
X3016094Y-1770383D01*
X3014571Y-1770383D01*
X3031862Y-1770383D02*
X3024245Y-1781048D01*
X3035671Y-1781048D01*
X3031862Y-1770383D02*
X3031862Y-1786380D01*
X3038489Y-1779524D02*
X3052201Y-1779524D01*
X3060732Y-1770383D02*
X3060732Y-1779524D01*
X3056924Y-1772668D02*
X3064541Y-1777239D01*
X3064541Y-1772668D02*
X3056924Y-1777239D01*
X3071625Y-1770383D02*
X3071625Y-1779524D01*
X3067816Y-1772668D02*
X3075434Y-1777239D01*
X3075434Y-1772668D02*
X3067816Y-1777239D01*
D18*
X2735951Y-1626385D02*
X2735951Y-1640668D01*
X2730000Y-1629956D02*
X2741902Y-1637097D01*
X2741902Y-1629956D02*
X2730000Y-1637097D01*
X2752971Y-1626385D02*
X2752971Y-1640668D01*
X2747020Y-1629956D02*
X2758922Y-1637097D01*
X2758922Y-1629956D02*
X2747020Y-1637097D01*
D130*
X167000Y120114D02*
X175000Y120114D01*
X171000Y116114D02*
X171000Y124114D01*
X228470Y58644D02*
X236470Y58644D01*
X232470Y54644D02*
X232470Y62644D01*
X661715Y57299D02*
X674715Y57299D01*
X668215Y50799D02*
X668215Y63799D01*
X687115Y57299D02*
X700115Y57299D01*
X693615Y50799D02*
X693615Y63799D01*
X652331Y114784D02*
X661331Y114784D01*
X656831Y110284D02*
X656831Y119284D01*
X677731Y114784D02*
X686731Y114784D01*
X682231Y110284D02*
X682231Y119284D01*
X839000Y200090D02*
X847000Y200090D01*
X843000Y196090D02*
X843000Y204090D01*
X113750Y242800D02*
X120250Y242800D01*
X117000Y239550D02*
X117000Y246050D01*
X113750Y255500D02*
X120250Y255500D01*
X117000Y252250D02*
X117000Y258750D01*
X113750Y268200D02*
X120250Y268200D01*
X117000Y264950D02*
X117000Y271450D01*
X113750Y331700D02*
X120250Y331700D01*
X117000Y328450D02*
X117000Y334950D01*
X113750Y319000D02*
X120250Y319000D01*
X117000Y315750D02*
X117000Y322250D01*
X113750Y306300D02*
X120250Y306300D01*
X117000Y303050D02*
X117000Y309550D01*
X113750Y293600D02*
X120250Y293600D01*
X117000Y290350D02*
X117000Y296850D01*
X113750Y280900D02*
X120250Y280900D01*
X117000Y277650D02*
X117000Y284150D01*
X53990Y310000D02*
X79990Y310000D01*
X66990Y297000D02*
X66990Y323000D01*
X839000Y340090D02*
X847000Y340090D01*
X843000Y336090D02*
X843000Y344090D01*
X839000Y320090D02*
X847000Y320090D01*
X843000Y316090D02*
X843000Y324090D01*
X839000Y300090D02*
X847000Y300090D01*
X843000Y296090D02*
X843000Y304090D01*
X839000Y280090D02*
X847000Y280090D01*
X843000Y276090D02*
X843000Y284090D01*
X839000Y260090D02*
X847000Y260090D01*
X843000Y256090D02*
X843000Y264090D01*
X839000Y240090D02*
X847000Y240090D01*
X843000Y236090D02*
X843000Y244090D01*
X839000Y220090D02*
X847000Y220090D01*
X843000Y216090D02*
X843000Y224090D01*
X703000Y200090D02*
X711000Y200090D01*
X707000Y196090D02*
X707000Y204090D01*
X703000Y220090D02*
X711000Y220090D01*
X707000Y216090D02*
X707000Y224090D01*
X703000Y240090D02*
X711000Y240090D01*
X707000Y236090D02*
X707000Y244090D01*
X703000Y260090D02*
X711000Y260090D01*
X707000Y256090D02*
X707000Y264090D01*
X703000Y280090D02*
X711000Y280090D01*
X707000Y276090D02*
X707000Y284090D01*
X703000Y300090D02*
X711000Y300090D01*
X707000Y296090D02*
X707000Y304090D01*
X703000Y320090D02*
X711000Y320090D01*
X707000Y316090D02*
X707000Y324090D01*
X703000Y340090D02*
X711000Y340090D01*
X707000Y336090D02*
X707000Y344090D01*
X609070Y327660D02*
X618070Y327660D01*
X613570Y323160D02*
X613570Y332160D01*
X634470Y327660D02*
X643470Y327660D01*
X638970Y323160D02*
X638970Y332160D01*
X546560Y285580D02*
X555560Y285580D01*
X551060Y281080D02*
X551060Y290080D01*
X511560Y285580D02*
X520560Y285580D01*
X516060Y281080D02*
X516060Y290080D01*
X624000Y170000D02*
X656000Y170000D01*
X640000Y154000D02*
X640000Y186000D01*
X352545Y182075D02*
X355545Y182075D01*
X354045Y180575D02*
X354045Y183575D01*
X334195Y182075D02*
X337195Y182075D01*
X335695Y180575D02*
X335695Y183575D01*
X361720Y191250D02*
X364720Y191250D01*
X363220Y189750D02*
X363220Y192750D01*
X343370Y191250D02*
X346370Y191250D01*
X344870Y189750D02*
X344870Y192750D01*
X325020Y191250D02*
X328020Y191250D01*
X326520Y189750D02*
X326520Y192750D01*
X352545Y200425D02*
X355545Y200425D01*
X354045Y198925D02*
X354045Y201925D01*
X334195Y200425D02*
X337195Y200425D01*
X335695Y198925D02*
X335695Y201925D01*
X361720Y209600D02*
X364720Y209600D01*
X363220Y208100D02*
X363220Y211100D01*
X343370Y209600D02*
X346370Y209600D01*
X344870Y208100D02*
X344870Y211100D01*
X325020Y209600D02*
X328020Y209600D01*
X326520Y208100D02*
X326520Y211100D01*
X352545Y218775D02*
X355545Y218775D01*
X354045Y217275D02*
X354045Y220275D01*
X334195Y218775D02*
X337195Y218775D01*
X335695Y217275D02*
X335695Y220275D01*
X145969Y325957D02*
X154969Y325957D01*
X150469Y321457D02*
X150469Y330457D01*
X171369Y325957D02*
X180368Y325957D01*
X175868Y321457D02*
X175868Y330457D01*
X886750Y310000D02*
X912750Y310000D01*
X899750Y297000D02*
X899750Y323000D01*
X886750Y40000D02*
X912750Y40000D01*
X899750Y27000D02*
X899750Y53000D01*
X53990Y40000D02*
X79990Y40000D01*
X66990Y27000D02*
X66990Y53000D01*
X215954Y299955D02*
X218953Y299955D01*
X217453Y298455D02*
X217453Y301455D01*
X205500Y299955D02*
X208500Y299955D01*
X207000Y298455D02*
X207000Y301455D01*
X195124Y299955D02*
X198124Y299955D01*
X196624Y298455D02*
X196624Y301455D01*
X227023Y288688D02*
X230023Y288688D01*
X228523Y287188D02*
X228523Y290188D01*
X48451Y98874D02*
X63451Y98874D01*
X55951Y91374D02*
X55951Y106374D01*
X48451Y195874D02*
X63451Y195874D01*
X55951Y188374D02*
X55951Y203374D01*
X624966Y127784D02*
X627966Y127784D01*
X626465Y126284D02*
X626465Y129284D01*
X495368Y89250D02*
X498368Y89250D01*
X496868Y87750D02*
X496868Y90750D01*
X503515Y89250D02*
X506515Y89250D01*
X505015Y87750D02*
X505015Y90750D01*
X511680Y89357D02*
X514680Y89357D01*
X513180Y87857D02*
X513180Y90857D01*
X619500Y57434D02*
X622500Y57434D01*
X621000Y55933D02*
X621000Y58934D01*
X601602Y57534D02*
X604602Y57534D01*
X603102Y56034D02*
X603102Y59034D01*
X592652Y57534D02*
X595652Y57534D01*
X594152Y56034D02*
X594152Y59034D01*
X911202Y337823D02*
X915202Y337823D01*
X913202Y335823D02*
X913202Y339823D01*
X906202Y287823D02*
X910202Y287823D01*
X908202Y285823D02*
X908202Y289823D01*
X911202Y277823D02*
X915202Y277823D01*
X913202Y275823D02*
X913202Y279823D01*
X906202Y267823D02*
X910202Y267823D01*
X908202Y265823D02*
X908202Y269823D01*
X911202Y257823D02*
X915202Y257823D01*
X913202Y255823D02*
X913202Y259823D01*
X906202Y247823D02*
X910202Y247823D01*
X908202Y245823D02*
X908202Y249823D01*
X911202Y237823D02*
X915202Y237823D01*
X913202Y235823D02*
X913202Y239823D01*
X911202Y137823D02*
X915202Y137823D01*
X913202Y135823D02*
X913202Y139823D01*
X906202Y127823D02*
X910202Y127823D01*
X908202Y125823D02*
X908202Y129823D01*
X911202Y117823D02*
X915202Y117823D01*
X913202Y115823D02*
X913202Y119823D01*
X906202Y107823D02*
X910202Y107823D01*
X908202Y105823D02*
X908202Y109823D01*
X911202Y97823D02*
X915202Y97823D01*
X913202Y95823D02*
X913202Y99823D01*
X906202Y87823D02*
X910202Y87823D01*
X908202Y85823D02*
X908202Y89823D01*
X911202Y77823D02*
X915202Y77823D01*
X913202Y75823D02*
X913202Y79823D01*
X906202Y67823D02*
X910202Y67823D01*
X908202Y65823D02*
X908202Y69823D01*
X911202Y57823D02*
X915202Y57823D01*
X913202Y55823D02*
X913202Y59823D01*
X911202Y17823D02*
X915202Y17823D01*
X913202Y15823D02*
X913202Y19823D01*
X901202Y337823D02*
X905202Y337823D01*
X903202Y335823D02*
X903202Y339823D01*
X896202Y287823D02*
X900202Y287823D01*
X898202Y285823D02*
X898202Y289823D01*
X901202Y277823D02*
X905202Y277823D01*
X903202Y275823D02*
X903202Y279823D01*
X896202Y267823D02*
X900202Y267823D01*
X898202Y265823D02*
X898202Y269823D01*
X901202Y257823D02*
X905202Y257823D01*
X903202Y255823D02*
X903202Y259823D01*
X896202Y247823D02*
X900202Y247823D01*
X898202Y245823D02*
X898202Y249823D01*
X901202Y237823D02*
X905202Y237823D01*
X903202Y235823D02*
X903202Y239823D01*
X901202Y137823D02*
X905202Y137823D01*
X903202Y135823D02*
X903202Y139823D01*
X896202Y127823D02*
X900202Y127823D01*
X898202Y125823D02*
X898202Y129823D01*
X901202Y117823D02*
X905202Y117823D01*
X903202Y115823D02*
X903202Y119823D01*
X896202Y107823D02*
X900202Y107823D01*
X898202Y105823D02*
X898202Y109823D01*
X901202Y97823D02*
X905202Y97823D01*
X903202Y95823D02*
X903202Y99823D01*
X896202Y87823D02*
X900202Y87823D01*
X898202Y85823D02*
X898202Y89823D01*
X901202Y77823D02*
X905202Y77823D01*
X903202Y75823D02*
X903202Y79823D01*
X896202Y67823D02*
X900202Y67823D01*
X898202Y65823D02*
X898202Y69823D01*
X901202Y17823D02*
X905202Y17823D01*
X903202Y15823D02*
X903202Y19823D01*
X891202Y337823D02*
X895202Y337823D01*
X893202Y335823D02*
X893202Y339823D01*
X886202Y327823D02*
X890202Y327823D01*
X888202Y325823D02*
X888202Y329823D01*
X886202Y287823D02*
X890202Y287823D01*
X888202Y285823D02*
X888202Y289823D01*
X891202Y277823D02*
X895202Y277823D01*
X893202Y275823D02*
X893202Y279823D01*
X886202Y267823D02*
X890202Y267823D01*
X888202Y265823D02*
X888202Y269823D01*
X891202Y257823D02*
X895202Y257823D01*
X893202Y255823D02*
X893202Y259823D01*
X886202Y247823D02*
X890202Y247823D01*
X888202Y245823D02*
X888202Y249823D01*
X891202Y237823D02*
X895202Y237823D01*
X893202Y235823D02*
X893202Y239823D01*
X891202Y137823D02*
X895202Y137823D01*
X893202Y135823D02*
X893202Y139823D01*
X886202Y127823D02*
X890202Y127823D01*
X888202Y125823D02*
X888202Y129823D01*
X891202Y117823D02*
X895202Y117823D01*
X893202Y115823D02*
X893202Y119823D01*
X886202Y107823D02*
X890202Y107823D01*
X888202Y105823D02*
X888202Y109823D01*
X891202Y97823D02*
X895202Y97823D01*
X893202Y95823D02*
X893202Y99823D01*
X886202Y87823D02*
X890202Y87823D01*
X888202Y85823D02*
X888202Y89823D01*
X891202Y77823D02*
X895202Y77823D01*
X893202Y75823D02*
X893202Y79823D01*
X886202Y67823D02*
X890202Y67823D01*
X888202Y65823D02*
X888202Y69823D01*
X891202Y17823D02*
X895202Y17823D01*
X893202Y15823D02*
X893202Y19823D01*
X881202Y337823D02*
X885202Y337823D01*
X883202Y335823D02*
X883202Y339823D01*
X876202Y327823D02*
X880202Y327823D01*
X878202Y325823D02*
X878202Y329823D01*
X876202Y307823D02*
X880202Y307823D01*
X878202Y305823D02*
X878202Y309823D01*
X881202Y297823D02*
X885202Y297823D01*
X883202Y295823D02*
X883202Y299823D01*
X876202Y287823D02*
X880202Y287823D01*
X878202Y285823D02*
X878202Y289823D01*
X881202Y277823D02*
X885202Y277823D01*
X883202Y275823D02*
X883202Y279823D01*
X876202Y267823D02*
X880202Y267823D01*
X878202Y265823D02*
X878202Y269823D01*
X881202Y257823D02*
X885202Y257823D01*
X883202Y255823D02*
X883202Y259823D01*
X876202Y247823D02*
X880202Y247823D01*
X878202Y245823D02*
X878202Y249823D01*
X881202Y237823D02*
X885202Y237823D01*
X883202Y235823D02*
X883202Y239823D01*
X881202Y137823D02*
X885202Y137823D01*
X883202Y135823D02*
X883202Y139823D01*
X876202Y127823D02*
X880202Y127823D01*
X878202Y125823D02*
X878202Y129823D01*
X881202Y117823D02*
X885202Y117823D01*
X883202Y115823D02*
X883202Y119823D01*
X876202Y107823D02*
X880202Y107823D01*
X878202Y105823D02*
X878202Y109823D01*
X881202Y97823D02*
X885202Y97823D01*
X883202Y95823D02*
X883202Y99823D01*
X876202Y87823D02*
X880202Y87823D01*
X878202Y85823D02*
X878202Y89823D01*
X881202Y77823D02*
X885202Y77823D01*
X883202Y75823D02*
X883202Y79823D01*
X876202Y67823D02*
X880202Y67823D01*
X878202Y65823D02*
X878202Y69823D01*
X881202Y57823D02*
X885202Y57823D01*
X883202Y55823D02*
X883202Y59823D01*
X876202Y47823D02*
X880202Y47823D01*
X878202Y45823D02*
X878202Y49823D01*
X876202Y27823D02*
X880202Y27823D01*
X878202Y25823D02*
X878202Y29823D01*
X881202Y17823D02*
X885202Y17823D01*
X883202Y15823D02*
X883202Y19823D01*
X866202Y167823D02*
X870202Y167823D01*
X868202Y165823D02*
X868202Y169823D01*
X871202Y157823D02*
X875202Y157823D01*
X873202Y155823D02*
X873202Y159823D01*
X866202Y147823D02*
X870202Y147823D01*
X868202Y145823D02*
X868202Y149823D01*
X871202Y137823D02*
X875202Y137823D01*
X873202Y135823D02*
X873202Y139823D01*
X866202Y127823D02*
X870202Y127823D01*
X868202Y125823D02*
X868202Y129823D01*
X871202Y117823D02*
X875202Y117823D01*
X873202Y115823D02*
X873202Y119823D01*
X866202Y107823D02*
X870202Y107823D01*
X868202Y105823D02*
X868202Y109823D01*
X871202Y97823D02*
X875202Y97823D01*
X873202Y95823D02*
X873202Y99823D01*
X866202Y87823D02*
X870202Y87823D01*
X868202Y85823D02*
X868202Y89823D01*
X871202Y77823D02*
X875202Y77823D01*
X873202Y75823D02*
X873202Y79823D01*
X866202Y67823D02*
X870202Y67823D01*
X868202Y65823D02*
X868202Y69823D01*
X871202Y57823D02*
X875202Y57823D01*
X873202Y55823D02*
X873202Y59823D01*
X866202Y47823D02*
X870202Y47823D01*
X868202Y45823D02*
X868202Y49823D01*
X871202Y37823D02*
X875202Y37823D01*
X873202Y35823D02*
X873202Y39823D01*
X866202Y27823D02*
X870202Y27823D01*
X868202Y25823D02*
X868202Y29823D01*
X871202Y17823D02*
X875202Y17823D01*
X873202Y15823D02*
X873202Y19823D01*
X861202Y177823D02*
X865202Y177823D01*
X863202Y175823D02*
X863202Y179823D01*
X856202Y167823D02*
X860202Y167823D01*
X858202Y165823D02*
X858202Y169823D01*
X861202Y157823D02*
X865202Y157823D01*
X863202Y155823D02*
X863202Y159823D01*
X856202Y147823D02*
X860202Y147823D01*
X858202Y145823D02*
X858202Y149823D01*
X861202Y137823D02*
X865202Y137823D01*
X863202Y135823D02*
X863202Y139823D01*
X856202Y127823D02*
X860202Y127823D01*
X858202Y125823D02*
X858202Y129823D01*
X861202Y117823D02*
X865202Y117823D01*
X863202Y115823D02*
X863202Y119823D01*
X856202Y107823D02*
X860202Y107823D01*
X858202Y105823D02*
X858202Y109823D01*
X861202Y97823D02*
X865202Y97823D01*
X863202Y95823D02*
X863202Y99823D01*
X856202Y87823D02*
X860202Y87823D01*
X858202Y85823D02*
X858202Y89823D01*
X861202Y77823D02*
X865202Y77823D01*
X863202Y75823D02*
X863202Y79823D01*
X856202Y67823D02*
X860202Y67823D01*
X858202Y65823D02*
X858202Y69823D01*
X861202Y57823D02*
X865202Y57823D01*
X863202Y55823D02*
X863202Y59823D01*
X861202Y17823D02*
X865202Y17823D01*
X863202Y15823D02*
X863202Y19823D01*
X851202Y177823D02*
X855202Y177823D01*
X853202Y175823D02*
X853202Y179823D01*
X846202Y167823D02*
X850202Y167823D01*
X848202Y165823D02*
X848202Y169823D01*
X851202Y157823D02*
X855202Y157823D01*
X853202Y155823D02*
X853202Y159823D01*
X846202Y147823D02*
X850202Y147823D01*
X848202Y145823D02*
X848202Y149823D01*
X851202Y137823D02*
X855202Y137823D01*
X853202Y135823D02*
X853202Y139823D01*
X846202Y127823D02*
X850202Y127823D01*
X848202Y125823D02*
X848202Y129823D01*
X851202Y117823D02*
X855202Y117823D01*
X853202Y115823D02*
X853202Y119823D01*
X846202Y107823D02*
X850202Y107823D01*
X848202Y105823D02*
X848202Y109823D01*
X851202Y97823D02*
X855202Y97823D01*
X853202Y95823D02*
X853202Y99823D01*
X846202Y87823D02*
X850202Y87823D01*
X848202Y85823D02*
X848202Y89823D01*
X851202Y77823D02*
X855202Y77823D01*
X853202Y75823D02*
X853202Y79823D01*
X846202Y67823D02*
X850202Y67823D01*
X848202Y65823D02*
X848202Y69823D01*
X851202Y57823D02*
X855202Y57823D01*
X853202Y55823D02*
X853202Y59823D01*
X851202Y17823D02*
X855202Y17823D01*
X853202Y15823D02*
X853202Y19823D01*
X841202Y177823D02*
X845202Y177823D01*
X843202Y175823D02*
X843202Y179823D01*
X841202Y157823D02*
X845202Y157823D01*
X843202Y155823D02*
X843202Y159823D01*
X841202Y137823D02*
X845202Y137823D01*
X843202Y135823D02*
X843202Y139823D01*
X841202Y117823D02*
X845202Y117823D01*
X843202Y115823D02*
X843202Y119823D01*
X841202Y97823D02*
X845202Y97823D01*
X843202Y95823D02*
X843202Y99823D01*
X841202Y77823D02*
X845202Y77823D01*
X843202Y75823D02*
X843202Y79823D01*
X841202Y57823D02*
X845202Y57823D01*
X843202Y55823D02*
X843202Y59823D01*
X841202Y17823D02*
X845202Y17823D01*
X843202Y15823D02*
X843202Y19823D01*
X826202Y307823D02*
X830202Y307823D01*
X828202Y305823D02*
X828202Y309823D01*
X821202Y317823D02*
X825202Y317823D01*
X823202Y315823D02*
X823202Y319823D01*
X816202Y307823D02*
X820202Y307823D01*
X818202Y305823D02*
X818202Y309823D01*
X821202Y297823D02*
X825202Y297823D01*
X823202Y295823D02*
X823202Y299823D01*
X811202Y317823D02*
X815202Y317823D01*
X813202Y315823D02*
X813202Y319823D01*
X806202Y307823D02*
X810202Y307823D01*
X808202Y305823D02*
X808202Y309823D01*
X811202Y297823D02*
X815202Y297823D01*
X813202Y295823D02*
X813202Y299823D01*
X806202Y227823D02*
X810202Y227823D01*
X808202Y225823D02*
X808202Y229823D01*
X806202Y167823D02*
X810202Y167823D01*
X808202Y165823D02*
X808202Y169823D01*
X806202Y107823D02*
X810202Y107823D01*
X808202Y105823D02*
X808202Y109823D01*
X806202Y47823D02*
X810202Y47823D01*
X808202Y45823D02*
X808202Y49823D01*
X801202Y317823D02*
X805202Y317823D01*
X803202Y315823D02*
X803202Y319823D01*
X796202Y307823D02*
X800202Y307823D01*
X798202Y305823D02*
X798202Y309823D01*
X801202Y297823D02*
X805202Y297823D01*
X803202Y295823D02*
X803202Y299823D01*
X801202Y237823D02*
X805202Y237823D01*
X803202Y235823D02*
X803202Y239823D01*
X801202Y197823D02*
X805202Y197823D01*
X803202Y195823D02*
X803202Y199823D01*
X801202Y117823D02*
X805202Y117823D01*
X803202Y115823D02*
X803202Y119823D01*
X796202Y47823D02*
X800202Y47823D01*
X798202Y45823D02*
X798202Y49823D01*
X801202Y37823D02*
X805202Y37823D01*
X803202Y35823D02*
X803202Y39823D01*
X791202Y317823D02*
X795202Y317823D01*
X793202Y315823D02*
X793202Y319823D01*
X786202Y307823D02*
X790202Y307823D01*
X788202Y305823D02*
X788202Y309823D01*
X791202Y297823D02*
X795202Y297823D01*
X793202Y295823D02*
X793202Y299823D01*
X791202Y197823D02*
X795202Y197823D01*
X793202Y195823D02*
X793202Y199823D01*
X786202Y47823D02*
X790202Y47823D01*
X788202Y45823D02*
X788202Y49823D01*
X791202Y37823D02*
X795202Y37823D01*
X793202Y35823D02*
X793202Y39823D01*
X781202Y317823D02*
X785202Y317823D01*
X783202Y315823D02*
X783202Y319823D01*
X776202Y307823D02*
X780202Y307823D01*
X778202Y305823D02*
X778202Y309823D01*
X781202Y297823D02*
X785202Y297823D01*
X783202Y295823D02*
X783202Y299823D01*
X781202Y237823D02*
X785202Y237823D01*
X783202Y235823D02*
X783202Y239823D01*
X776202Y227823D02*
X780202Y227823D01*
X778202Y225823D02*
X778202Y229823D01*
X781202Y197823D02*
X785202Y197823D01*
X783202Y195823D02*
X783202Y199823D01*
X776202Y167823D02*
X780202Y167823D01*
X778202Y165823D02*
X778202Y169823D01*
X781202Y37823D02*
X785202Y37823D01*
X783202Y35823D02*
X783202Y39823D01*
X771202Y317823D02*
X775202Y317823D01*
X773202Y315823D02*
X773202Y319823D01*
X766202Y307823D02*
X770202Y307823D01*
X768202Y305823D02*
X768202Y309823D01*
X771202Y297823D02*
X775202Y297823D01*
X773202Y295823D02*
X773202Y299823D01*
X771202Y197823D02*
X775202Y197823D01*
X773202Y195823D02*
X773202Y199823D01*
X771202Y177823D02*
X775202Y177823D01*
X773202Y175823D02*
X773202Y179823D01*
X766202Y167823D02*
X770202Y167823D01*
X768202Y165823D02*
X768202Y169823D01*
X761202Y317823D02*
X765202Y317823D01*
X763202Y315823D02*
X763202Y319823D01*
X756202Y307823D02*
X760202Y307823D01*
X758202Y305823D02*
X758202Y309823D01*
X761202Y297823D02*
X765202Y297823D01*
X763202Y295823D02*
X763202Y299823D01*
X761202Y197823D02*
X765202Y197823D01*
X763202Y195823D02*
X763202Y199823D01*
X761202Y177823D02*
X765202Y177823D01*
X763202Y175823D02*
X763202Y179823D01*
X756202Y167823D02*
X760202Y167823D01*
X758202Y165823D02*
X758202Y169823D01*
X751202Y317823D02*
X755202Y317823D01*
X753202Y315823D02*
X753202Y319823D01*
X746202Y307823D02*
X750202Y307823D01*
X748202Y305823D02*
X748202Y309823D01*
X751202Y297823D02*
X755202Y297823D01*
X753202Y295823D02*
X753202Y299823D01*
X746202Y227823D02*
X750202Y227823D01*
X748202Y225823D02*
X748202Y229823D01*
X751202Y197823D02*
X755202Y197823D01*
X753202Y195823D02*
X753202Y199823D01*
X751202Y177823D02*
X755202Y177823D01*
X753202Y175823D02*
X753202Y179823D01*
X751202Y37823D02*
X755202Y37823D01*
X753202Y35823D02*
X753202Y39823D01*
X741202Y317823D02*
X745202Y317823D01*
X743202Y315823D02*
X743202Y319823D01*
X736202Y307823D02*
X740202Y307823D01*
X738202Y305823D02*
X738202Y309823D01*
X741202Y297823D02*
X745202Y297823D01*
X743202Y295823D02*
X743202Y299823D01*
X736202Y287823D02*
X740202Y287823D01*
X738202Y285823D02*
X738202Y289823D01*
X736202Y267823D02*
X740202Y267823D01*
X738202Y265823D02*
X738202Y269823D01*
X736202Y247823D02*
X740202Y247823D01*
X738202Y245823D02*
X738202Y249823D01*
X741202Y237823D02*
X745202Y237823D01*
X743202Y235823D02*
X743202Y239823D01*
X736202Y227823D02*
X740202Y227823D01*
X738202Y225823D02*
X738202Y229823D01*
X741202Y197823D02*
X745202Y197823D01*
X743202Y195823D02*
X743202Y199823D01*
X736202Y47823D02*
X740202Y47823D01*
X738202Y45823D02*
X738202Y49823D01*
X741202Y37823D02*
X745202Y37823D01*
X743202Y35823D02*
X743202Y39823D01*
X731202Y277823D02*
X735202Y277823D01*
X733202Y275823D02*
X733202Y279823D01*
X726202Y267823D02*
X730202Y267823D01*
X728202Y265823D02*
X728202Y269823D01*
X731202Y257823D02*
X735202Y257823D01*
X733202Y255823D02*
X733202Y259823D01*
X726202Y247823D02*
X730202Y247823D01*
X728202Y245823D02*
X728202Y249823D01*
X731202Y237823D02*
X735202Y237823D01*
X733202Y235823D02*
X733202Y239823D01*
X726202Y227823D02*
X730202Y227823D01*
X728202Y225823D02*
X728202Y229823D01*
X731202Y197823D02*
X735202Y197823D01*
X733202Y195823D02*
X733202Y199823D01*
X731202Y37823D02*
X735202Y37823D01*
X733202Y35823D02*
X733202Y39823D01*
X721202Y277823D02*
X725202Y277823D01*
X723202Y275823D02*
X723202Y279823D01*
X716202Y267823D02*
X720202Y267823D01*
X718202Y265823D02*
X718202Y269823D01*
X721202Y257823D02*
X725202Y257823D01*
X723202Y255823D02*
X723202Y259823D01*
X716202Y247823D02*
X720202Y247823D01*
X718202Y245823D02*
X718202Y249823D01*
X721202Y237823D02*
X725202Y237823D01*
X723202Y235823D02*
X723202Y239823D01*
X716202Y227823D02*
X720202Y227823D01*
X718202Y225823D02*
X718202Y229823D01*
X721202Y197823D02*
X725202Y197823D01*
X723202Y195823D02*
X723202Y199823D01*
X706202Y147823D02*
X710202Y147823D01*
X708202Y145823D02*
X708202Y149823D01*
X706202Y127823D02*
X710202Y127823D01*
X708202Y125823D02*
X708202Y129823D01*
X706202Y47823D02*
X710202Y47823D01*
X708202Y45823D02*
X708202Y49823D01*
X696202Y187823D02*
X700202Y187823D01*
X698202Y185823D02*
X698202Y189823D01*
X696202Y147823D02*
X700202Y147823D01*
X698202Y145823D02*
X698202Y149823D01*
X701202Y137823D02*
X705202Y137823D01*
X703202Y135823D02*
X703202Y139823D01*
X696202Y127823D02*
X700202Y127823D01*
X698202Y125823D02*
X698202Y129823D01*
X701202Y117823D02*
X705202Y117823D01*
X703202Y115823D02*
X703202Y119823D01*
X696202Y107823D02*
X700202Y107823D01*
X698202Y105823D02*
X698202Y109823D01*
X701202Y37823D02*
X705202Y37823D01*
X703202Y35823D02*
X703202Y39823D01*
X681202Y37823D02*
X685202Y37823D01*
X683202Y35823D02*
X683202Y39823D01*
X591202Y237823D02*
X595202Y237823D01*
X593202Y235823D02*
X593202Y239823D01*
X591202Y197823D02*
X595202Y197823D01*
X593202Y195823D02*
X593202Y199823D01*
X591202Y177823D02*
X595202Y177823D01*
X593202Y175823D02*
X593202Y179823D01*
X591202Y157823D02*
X595202Y157823D01*
X593202Y155823D02*
X593202Y159823D01*
X581202Y337823D02*
X585202Y337823D01*
X583202Y335823D02*
X583202Y339823D01*
X581202Y237823D02*
X585202Y237823D01*
X583202Y235823D02*
X583202Y239823D01*
X571202Y337823D02*
X575202Y337823D01*
X573202Y335823D02*
X573202Y339823D01*
X561202Y337823D02*
X565202Y337823D01*
X563202Y335823D02*
X563202Y339823D01*
X551202Y337823D02*
X555202Y337823D01*
X553202Y335823D02*
X553202Y339823D01*
X541202Y337823D02*
X545202Y337823D01*
X543202Y335823D02*
X543202Y339823D01*
X531202Y337823D02*
X535202Y337823D01*
X533202Y335823D02*
X533202Y339823D01*
X521202Y337823D02*
X525202Y337823D01*
X523202Y335823D02*
X523202Y339823D01*
X521202Y77823D02*
X525202Y77823D01*
X523202Y75823D02*
X523202Y79823D01*
X511202Y337823D02*
X515202Y337823D01*
X513202Y335823D02*
X513202Y339823D01*
X501202Y337823D02*
X505202Y337823D01*
X503202Y335823D02*
X503202Y339823D01*
X491202Y337823D02*
X495202Y337823D01*
X493202Y335823D02*
X493202Y339823D01*
X481202Y337823D02*
X485202Y337823D01*
X483202Y335823D02*
X483202Y339823D01*
X471202Y337823D02*
X475202Y337823D01*
X473202Y335823D02*
X473202Y339823D01*
X466202Y327823D02*
X470202Y327823D01*
X468202Y325823D02*
X468202Y329823D01*
X461202Y337823D02*
X465202Y337823D01*
X463202Y335823D02*
X463202Y339823D01*
X456202Y327823D02*
X460202Y327823D01*
X458202Y325823D02*
X458202Y329823D01*
X451202Y337823D02*
X455202Y337823D01*
X453202Y335823D02*
X453202Y339823D01*
X436202Y67823D02*
X440202Y67823D01*
X438202Y65823D02*
X438202Y69823D01*
X406202Y227823D02*
X410202Y227823D01*
X408202Y225823D02*
X408202Y229823D01*
X396202Y227823D02*
X400202Y227823D01*
X398202Y225823D02*
X398202Y229823D01*
X386202Y247823D02*
X390202Y247823D01*
X388202Y245823D02*
X388202Y249823D01*
X376202Y247823D02*
X380202Y247823D01*
X378202Y245823D02*
X378202Y249823D01*
X376202Y227823D02*
X380202Y227823D01*
X378202Y225823D02*
X378202Y229823D01*
X376202Y207823D02*
X380202Y207823D01*
X378202Y205823D02*
X378202Y209823D01*
X376202Y187823D02*
X380202Y187823D01*
X378202Y185823D02*
X378202Y189823D01*
X366202Y247823D02*
X370202Y247823D01*
X368202Y245823D02*
X368202Y249823D01*
X371202Y237823D02*
X375202Y237823D01*
X373202Y235823D02*
X373202Y239823D01*
X356202Y247823D02*
X360202Y247823D01*
X358202Y245823D02*
X358202Y249823D01*
X361202Y237823D02*
X365202Y237823D01*
X363202Y235823D02*
X363202Y239823D01*
X346202Y247823D02*
X350202Y247823D01*
X348202Y245823D02*
X348202Y249823D01*
X351202Y237823D02*
X355202Y237823D01*
X353202Y235823D02*
X353202Y239823D01*
X336202Y247823D02*
X340202Y247823D01*
X338202Y245823D02*
X338202Y249823D01*
X341202Y237823D02*
X345202Y237823D01*
X343202Y235823D02*
X343202Y239823D01*
X326202Y247823D02*
X330202Y247823D01*
X328202Y245823D02*
X328202Y249823D01*
X331202Y237823D02*
X335202Y237823D01*
X333202Y235823D02*
X333202Y239823D01*
X316202Y247823D02*
X320202Y247823D01*
X318202Y245823D02*
X318202Y249823D01*
X321202Y237823D02*
X325202Y237823D01*
X323202Y235823D02*
X323202Y239823D01*
X316202Y147823D02*
X320202Y147823D01*
X318202Y145823D02*
X318202Y149823D01*
X321202Y137823D02*
X325202Y137823D01*
X323202Y135823D02*
X323202Y139823D01*
X311202Y137823D02*
X315202Y137823D01*
X313202Y135823D02*
X313202Y139823D01*
X301202Y177823D02*
X305202Y177823D01*
X303202Y175823D02*
X303202Y179823D01*
X291202Y197823D02*
X295202Y197823D01*
X293202Y195823D02*
X293202Y199823D01*
X286202Y87823D02*
X290202Y87823D01*
X288202Y85823D02*
X288202Y89823D01*
X281202Y97823D02*
X285202Y97823D01*
X283202Y95823D02*
X283202Y99823D01*
X276202Y87823D02*
X280202Y87823D01*
X278202Y85823D02*
X278202Y89823D01*
X281202Y77823D02*
X285202Y77823D01*
X283202Y75823D02*
X283202Y79823D01*
X251202Y137823D02*
X255202Y137823D01*
X253202Y135823D02*
X253202Y139823D01*
X251202Y117823D02*
X255202Y117823D01*
X253202Y115823D02*
X253202Y119823D01*
X171202Y137823D02*
X175202Y137823D01*
X173202Y135823D02*
X173202Y139823D01*
X166202Y107823D02*
X170202Y107823D01*
X168202Y105823D02*
X168202Y109823D01*
X171202Y97823D02*
X175202Y97823D01*
X173202Y95823D02*
X173202Y99823D01*
X171202Y77823D02*
X175202Y77823D01*
X173202Y75823D02*
X173202Y79823D01*
X171202Y17823D02*
X175202Y17823D01*
X173202Y15823D02*
X173202Y19823D01*
X161202Y137823D02*
X165202Y137823D01*
X163202Y135823D02*
X163202Y139823D01*
X156202Y127823D02*
X160202Y127823D01*
X158202Y125823D02*
X158202Y129823D01*
X156202Y107823D02*
X160202Y107823D01*
X158202Y105823D02*
X158202Y109823D01*
X116202Y167823D02*
X120202Y167823D01*
X118202Y165823D02*
X118202Y169823D01*
X121202Y77823D02*
X125202Y77823D01*
X123202Y75823D02*
X123202Y79823D01*
X121202Y57823D02*
X125202Y57823D01*
X123202Y55823D02*
X123202Y59823D01*
X116202Y47823D02*
X120202Y47823D01*
X118202Y45823D02*
X118202Y49823D01*
X106202Y167823D02*
X110202Y167823D01*
X108202Y165823D02*
X108202Y169823D01*
X106202Y127823D02*
X110202Y127823D01*
X108202Y125823D02*
X108202Y129823D01*
X106202Y87823D02*
X110202Y87823D01*
X108202Y85823D02*
X108202Y89823D01*
X111202Y77823D02*
X115202Y77823D01*
X113202Y75823D02*
X113202Y79823D01*
X111202Y57823D02*
X115202Y57823D01*
X113202Y55823D02*
X113202Y59823D01*
X111202Y17823D02*
X115202Y17823D01*
X113202Y15823D02*
X113202Y19823D01*
X96202Y327823D02*
X100202Y327823D01*
X98202Y325823D02*
X98202Y329823D01*
X101202Y317823D02*
X105202Y317823D01*
X103202Y315823D02*
X103202Y319823D01*
X101202Y97823D02*
X105202Y97823D01*
X103202Y95823D02*
X103202Y99823D01*
X101202Y77823D02*
X105202Y77823D01*
X103202Y75823D02*
X103202Y79823D01*
X96202Y27823D02*
X100202Y27823D01*
X98202Y25823D02*
X98202Y29823D01*
X101202Y17823D02*
X105202Y17823D01*
X103202Y15823D02*
X103202Y19823D01*
X91202Y337823D02*
X95202Y337823D01*
X93202Y335823D02*
X93202Y339823D01*
X86202Y327823D02*
X90202Y327823D01*
X88202Y325823D02*
X88202Y329823D01*
X91202Y317823D02*
X95202Y317823D01*
X93202Y315823D02*
X93202Y319823D01*
X86202Y307823D02*
X90202Y307823D01*
X88202Y305823D02*
X88202Y309823D01*
X86202Y27823D02*
X90202Y27823D01*
X88202Y25823D02*
X88202Y29823D01*
X91202Y17823D02*
X95202Y17823D01*
X93202Y15823D02*
X93202Y19823D01*
X81202Y337823D02*
X85202Y337823D01*
X83202Y335823D02*
X83202Y339823D01*
X76202Y327823D02*
X80202Y327823D01*
X78202Y325823D02*
X78202Y329823D01*
X81202Y297823D02*
X85202Y297823D01*
X83202Y295823D02*
X83202Y299823D01*
X76202Y287823D02*
X80202Y287823D01*
X78202Y285823D02*
X78202Y289823D01*
X81202Y277823D02*
X85202Y277823D01*
X83202Y275823D02*
X83202Y279823D01*
X76202Y267823D02*
X80202Y267823D01*
X78202Y265823D02*
X78202Y269823D01*
X76202Y247823D02*
X80202Y247823D01*
X78202Y245823D02*
X78202Y249823D01*
X76202Y227823D02*
X80202Y227823D01*
X78202Y225823D02*
X78202Y229823D01*
X81202Y17823D02*
X85202Y17823D01*
X83202Y15823D02*
X83202Y19823D01*
X71202Y337823D02*
X75202Y337823D01*
X73202Y335823D02*
X73202Y339823D01*
X66202Y287823D02*
X70202Y287823D01*
X68202Y285823D02*
X68202Y289823D01*
X71202Y277823D02*
X75202Y277823D01*
X73202Y275823D02*
X73202Y279823D01*
X66202Y267823D02*
X70202Y267823D01*
X68202Y265823D02*
X68202Y269823D01*
X71202Y257823D02*
X75202Y257823D01*
X73202Y255823D02*
X73202Y259823D01*
X66202Y247823D02*
X70202Y247823D01*
X68202Y245823D02*
X68202Y249823D01*
X71202Y237823D02*
X75202Y237823D01*
X73202Y235823D02*
X73202Y239823D01*
X66202Y227823D02*
X70202Y227823D01*
X68202Y225823D02*
X68202Y229823D01*
X71202Y77823D02*
X75202Y77823D01*
X73202Y75823D02*
X73202Y79823D01*
X71202Y17823D02*
X75202Y17823D01*
X73202Y15823D02*
X73202Y19823D01*
X61202Y337823D02*
X65202Y337823D01*
X63202Y335823D02*
X63202Y339823D01*
X56202Y287823D02*
X60202Y287823D01*
X58202Y285823D02*
X58202Y289823D01*
X61202Y277823D02*
X65202Y277823D01*
X63202Y275823D02*
X63202Y279823D01*
X56202Y267823D02*
X60202Y267823D01*
X58202Y265823D02*
X58202Y269823D01*
X61202Y257823D02*
X65202Y257823D01*
X63202Y255823D02*
X63202Y259823D01*
X56202Y247823D02*
X60202Y247823D01*
X58202Y245823D02*
X58202Y249823D01*
X61202Y237823D02*
X65202Y237823D01*
X63202Y235823D02*
X63202Y239823D01*
X56202Y227823D02*
X60202Y227823D01*
X58202Y225823D02*
X58202Y229823D01*
X61202Y77823D02*
X65202Y77823D01*
X63202Y75823D02*
X63202Y79823D01*
X61202Y17823D02*
X65202Y17823D01*
X63202Y15823D02*
X63202Y19823D01*
X51202Y337823D02*
X55202Y337823D01*
X53202Y335823D02*
X53202Y339823D01*
X51202Y277823D02*
X55202Y277823D01*
X53202Y275823D02*
X53202Y279823D01*
X51202Y257823D02*
X55202Y257823D01*
X53202Y255823D02*
X53202Y259823D01*
X51202Y237823D02*
X55202Y237823D01*
X53202Y235823D02*
X53202Y239823D01*
X51202Y77823D02*
X55202Y77823D01*
X53202Y75823D02*
X53202Y79823D01*
X51202Y57823D02*
X55202Y57823D01*
X53202Y55823D02*
X53202Y59823D01*
X51202Y17823D02*
X55202Y17823D01*
X53202Y15823D02*
X53202Y19823D01*
X105671Y35122D02*
X108671Y35122D01*
X107171Y33622D02*
X107171Y36622D01*
X244504Y57823D02*
X247504Y57823D01*
X246004Y56323D02*
X246004Y59323D01*
X131159Y50197D02*
X134159Y50197D01*
X132659Y48697D02*
X132659Y51697D01*
X209743Y101833D02*
X212743Y101833D01*
X211243Y100333D02*
X211243Y103333D01*
X209429Y80429D02*
X212429Y80429D01*
X210929Y78929D02*
X210929Y81929D01*
X209743Y90833D02*
X212743Y90833D01*
X211243Y89333D02*
X211243Y92333D01*
X763500Y280090D02*
X766500Y280090D01*
X765000Y278590D02*
X765000Y281590D01*
X813500Y280000D02*
X816500Y280000D01*
X815000Y278500D02*
X815000Y281500D01*
X803500Y280000D02*
X806500Y280000D01*
X805000Y278500D02*
X805000Y281500D01*
X793445Y280000D02*
X796445Y280000D01*
X794945Y278500D02*
X794945Y281500D01*
X783500Y280000D02*
X786500Y280000D01*
X785000Y278500D02*
X785000Y281500D01*
X773500Y280000D02*
X776500Y280000D01*
X775000Y278500D02*
X775000Y281500D01*
X584180Y57642D02*
X587180Y57642D01*
X585680Y56142D02*
X585680Y59142D01*
X610509Y57534D02*
X613509Y57534D01*
X612009Y56034D02*
X612009Y59034D01*
X578930Y14460D02*
X581930Y14460D01*
X580430Y12960D02*
X580430Y15960D01*
X568430Y14460D02*
X571430Y14460D01*
X569930Y12960D02*
X569930Y15960D01*
X563930Y39875D02*
X566930Y39875D01*
X565430Y38375D02*
X565430Y41375D01*
X535740Y16872D02*
X538740Y16872D01*
X537240Y15372D02*
X537240Y18371D01*
X287269Y7000D02*
X290269Y7000D01*
X288769Y5500D02*
X288769Y8500D01*
X268370Y7000D02*
X271370Y7000D01*
X269870Y5500D02*
X269870Y8500D01*
X356567Y27921D02*
X359567Y27921D01*
X358067Y26421D02*
X358067Y29421D01*
X346244Y28621D02*
X349244Y28621D01*
X347744Y27121D02*
X347744Y30121D01*
X356702Y38091D02*
X359702Y38091D01*
X358202Y36591D02*
X358202Y39591D01*
X346244Y37823D02*
X349244Y37823D01*
X347744Y36323D02*
X347744Y39323D01*
X337051Y28648D02*
X340051Y28648D01*
X338551Y27148D02*
X338551Y30148D01*
X337051Y37481D02*
X340051Y37481D01*
X338551Y35981D02*
X338551Y38981D01*
X147047Y229826D02*
X150047Y229826D01*
X148547Y228326D02*
X148547Y231326D01*
X155435Y229826D02*
X158435Y229826D01*
X156935Y228326D02*
X156935Y231326D01*
X164148Y238455D02*
X167148Y238455D01*
X165648Y236955D02*
X165648Y239955D01*
X155435Y238455D02*
X158435Y238455D01*
X156935Y236955D02*
X156935Y239955D01*
X147047Y238455D02*
X150047Y238455D01*
X148547Y236955D02*
X148547Y239955D01*
X632000Y241110D02*
X635000Y241110D01*
X633500Y239610D02*
X633500Y242610D01*
X623742Y240984D02*
X626742Y240984D01*
X625242Y239484D02*
X625242Y242484D01*
X614500Y240984D02*
X617500Y240984D01*
X616000Y239484D02*
X616000Y242484D01*
X605720Y241110D02*
X608720Y241110D01*
X607220Y239610D02*
X607220Y242610D01*
X197500Y45007D02*
X200500Y45007D01*
X199000Y43507D02*
X199000Y46507D01*
X169547Y57823D02*
X172547Y57823D01*
X171047Y56323D02*
X171047Y59323D01*
X248000Y46131D02*
X251000Y46131D01*
X249500Y44631D02*
X249500Y47631D01*
X629500Y48279D02*
X632500Y48279D01*
X631000Y46779D02*
X631000Y49779D01*
X554568Y16872D02*
X557568Y16872D01*
X556068Y15372D02*
X556068Y18371D01*
X447851Y18217D02*
X450851Y18217D01*
X449351Y16717D02*
X449351Y19717D01*
X311743Y38947D02*
X314743Y38947D01*
X313243Y37447D02*
X313243Y40447D01*
X525144Y47841D02*
X528144Y47841D01*
X526643Y46341D02*
X526643Y49341D01*
X533930Y47828D02*
X536930Y47828D01*
X535430Y46328D02*
X535430Y49328D01*
X516074Y47422D02*
X519074Y47422D01*
X517574Y45922D02*
X517574Y48922D01*
X516060Y38636D02*
X519060Y38636D01*
X517560Y37136D02*
X517560Y40136D01*
X507484Y47422D02*
X510484Y47422D01*
X508984Y45922D02*
X508984Y48922D01*
X507470Y38636D02*
X510470Y38636D01*
X508970Y37136D02*
X508970Y40136D01*
X498930Y55748D02*
X501930Y55748D01*
X500430Y54248D02*
X500430Y57248D01*
X498916Y38536D02*
X501916Y38536D01*
X500416Y37036D02*
X500416Y40036D01*
X498930Y47322D02*
X501930Y47322D01*
X500430Y45822D02*
X500430Y48822D01*
X498930Y63750D02*
X501930Y63750D01*
X500430Y62250D02*
X500430Y65250D01*
X407647Y180848D02*
X410647Y180848D01*
X409147Y179348D02*
X409147Y182348D01*
X289330Y173825D02*
X292330Y173825D01*
X290830Y172325D02*
X290830Y175325D01*
X306627Y54913D02*
X309627Y54913D01*
X308127Y53413D02*
X308127Y56413D01*
X296220Y38760D02*
X299220Y38760D01*
X297720Y37260D02*
X297720Y40261D01*
X271500Y71597D02*
X274500Y71597D01*
X273000Y70097D02*
X273000Y73097D01*
X368165Y70741D02*
X371165Y70741D01*
X369665Y69241D02*
X369665Y72241D01*
X350695Y70597D02*
X353694Y70597D01*
X352195Y69097D02*
X352195Y72097D01*
X154445Y177025D02*
X157445Y177025D01*
X155945Y175525D02*
X155945Y178525D01*
X164290Y229826D02*
X167290Y229826D01*
X165790Y228326D02*
X165790Y231326D01*
X770380Y54525D02*
X773380Y54525D01*
X771880Y53025D02*
X771880Y56025D01*
X559413Y199747D02*
X562413Y199747D01*
X560913Y198247D02*
X560913Y201247D01*
X248000Y185812D02*
X251000Y185812D01*
X249500Y184312D02*
X249500Y187312D01*
X201372Y253160D02*
X204372Y253160D01*
X202872Y251660D02*
X202872Y254660D01*
X118040Y87808D02*
X121040Y87808D01*
X119540Y86308D02*
X119540Y89308D01*
X792115Y176426D02*
X795115Y176426D01*
X793615Y174926D02*
X793615Y177926D01*
X490060Y265580D02*
X493060Y265580D01*
X491560Y264080D02*
X491560Y267080D01*
X669000Y254000D02*
X672000Y254000D01*
X670500Y252500D02*
X670500Y255500D01*
X183985Y192374D02*
X186985Y192374D01*
X185485Y190874D02*
X185485Y193874D01*
X154445Y197256D02*
X157445Y197256D01*
X155945Y195756D02*
X155945Y198756D01*
X763150Y230418D02*
X766150Y230418D01*
X764650Y228918D02*
X764650Y231918D01*
X793445Y230418D02*
X796445Y230418D01*
X794945Y228918D02*
X794945Y231918D01*
X550547Y180102D02*
X553547Y180102D01*
X552047Y178602D02*
X552047Y181602D01*
X506777Y169000D02*
X509777Y169000D01*
X508277Y167500D02*
X508277Y170500D01*
X501425Y179000D02*
X504425Y179000D01*
X502925Y177500D02*
X502925Y180500D01*
X522549Y174201D02*
X525549Y174201D01*
X524049Y172701D02*
X524049Y175701D01*
X546740Y164963D02*
X549740Y164963D01*
X548240Y163463D02*
X548240Y166463D01*
X290800Y75054D02*
X293800Y75054D01*
X292300Y73554D02*
X292300Y76554D01*
X689033Y174505D02*
X692033Y174505D01*
X690533Y173005D02*
X690533Y176005D01*
X209500Y209600D02*
X212500Y209600D01*
X211000Y208100D02*
X211000Y211100D01*
X367654Y54441D02*
X370654Y54441D01*
X369154Y52941D02*
X369154Y55941D01*
X198500Y267927D02*
X201500Y267927D01*
X200000Y266427D02*
X200000Y269426D01*
X198500Y278000D02*
X201500Y278000D01*
X200000Y276500D02*
X200000Y279500D01*
X198500Y288000D02*
X201500Y288000D01*
X200000Y286500D02*
X200000Y289500D01*
X248300Y237158D02*
X251300Y237158D01*
X249800Y235658D02*
X249800Y238658D01*
X248164Y225240D02*
X251164Y225240D01*
X249664Y223740D02*
X249664Y226740D01*
X377734Y14460D02*
X380734Y14460D01*
X379234Y12960D02*
X379234Y15960D01*
X233344Y251692D02*
X236344Y251692D01*
X234844Y250192D02*
X234844Y253192D01*
X689033Y164505D02*
X692033Y164505D01*
X690533Y163005D02*
X690533Y166005D01*
X347020Y150000D02*
X350020Y150000D01*
X348520Y148500D02*
X348520Y151500D01*
X336195Y143910D02*
X339195Y143910D01*
X337695Y142410D02*
X337695Y145410D01*
X411250Y119380D02*
X414250Y119380D01*
X412750Y117880D02*
X412750Y120880D01*
X287870Y211925D02*
X290870Y211925D01*
X289370Y210425D02*
X289370Y213425D01*
X289330Y186525D02*
X292330Y186525D01*
X290830Y185025D02*
X290830Y188025D01*
X227092Y237160D02*
X230093Y237160D01*
X228592Y235660D02*
X228592Y238660D01*
X227652Y225240D02*
X230653Y225240D01*
X229153Y223740D02*
X229153Y226740D01*
X287870Y224625D02*
X290870Y224625D01*
X289370Y223125D02*
X289370Y226125D01*
X287870Y237325D02*
X290870Y237325D01*
X289370Y235825D02*
X289370Y238825D01*
X468013Y119237D02*
X471013Y119237D01*
X469513Y117737D02*
X469513Y120737D01*
X457550Y119380D02*
X460550Y119380D01*
X459050Y117880D02*
X459050Y120880D01*
X417435Y224625D02*
X420435Y224625D01*
X418935Y223125D02*
X418935Y226125D01*
X417435Y237325D02*
X420435Y237325D01*
X418935Y235825D02*
X418935Y238825D01*
X290800Y123025D02*
X293800Y123025D01*
X292300Y121525D02*
X292300Y124525D01*
X308920Y120650D02*
X311920Y120650D01*
X310420Y119150D02*
X310420Y122150D01*
X793150Y91020D02*
X796150Y91020D01*
X794650Y89520D02*
X794650Y92520D01*
X782150Y91020D02*
X785150Y91020D01*
X783650Y89520D02*
X783650Y92520D01*
X771150Y91020D02*
X774150Y91020D01*
X772650Y89520D02*
X772650Y92520D01*
X760150Y91020D02*
X763150Y91020D01*
X761650Y89520D02*
X761650Y92520D01*
X749150Y91020D02*
X752150Y91020D01*
X750650Y89520D02*
X750650Y92520D01*
X738150Y91020D02*
X741150Y91020D01*
X739650Y89520D02*
X739650Y92520D01*
X397820Y119380D02*
X400820Y119380D01*
X399320Y117880D02*
X399320Y120880D01*
X420845Y97000D02*
X423845Y97000D01*
X422345Y95500D02*
X422345Y98500D01*
X290800Y135725D02*
X293800Y135725D01*
X292300Y134225D02*
X292300Y137225D01*
X290800Y148425D02*
X293800Y148425D01*
X292300Y146925D02*
X292300Y149925D01*
X407101Y204370D02*
X410101Y204370D01*
X408601Y202870D02*
X408601Y205870D01*
X417266Y204370D02*
X420266Y204370D01*
X418766Y202870D02*
X418766Y205870D01*
X417331Y262725D02*
X420331Y262725D01*
X418831Y261225D02*
X418831Y264225D01*
X367154Y154020D02*
X371154Y154020D01*
X369154Y152020D02*
X369154Y156020D01*
X380270Y154020D02*
X384270Y154020D01*
X382270Y152020D02*
X382270Y156020D01*
M02*
