G04*
G04 #@! TF.GenerationSoftware,Altium Limited,Altium Designer,21.0.9 (235)*
G04*
G04 Layer_Color=32896*
%FSLAX44Y44*%
%MOMM*%
G71*
G04*
G04 #@! TF.SameCoordinates,D83CB673-9EFF-4C90-BE85-E941A3A9D43F*
G04*
G04*
G04 #@! TF.FilePolarity,Positive*
G04*
G01*
G75*
%ADD10C,0.2000*%
%ADD11C,0.1270*%
%ADD12C,0.2540*%
%ADD14C,0.1778*%
%ADD15C,0.1500*%
%ADD16C,0.1000*%
%ADD17C,0.1800*%
%ADD18C,0.3500*%
G36*
X794431Y293222D02*
X794579Y293213D01*
X794866Y293167D01*
X795106Y293093D01*
X795217Y293056D01*
X795319Y293009D01*
X795411Y292973D01*
X795485Y292926D01*
X795559Y292889D01*
X795615Y292861D01*
X795661Y292824D01*
X795689Y292806D01*
X795707Y292797D01*
X795716Y292788D01*
X795818Y292695D01*
X795911Y292603D01*
X795994Y292492D01*
X796068Y292372D01*
X796179Y292131D01*
X796271Y291900D01*
X796299Y291780D01*
X796327Y291678D01*
X796355Y291586D01*
X796364Y291502D01*
X796382Y291428D01*
X796382Y291382D01*
X796392Y291345D01*
X796392Y291336D01*
X795171Y291216D01*
X795153Y291401D01*
X795116Y291558D01*
X795079Y291697D01*
X795032Y291798D01*
X794995Y291882D01*
X794958Y291937D01*
X794931Y291974D01*
X794921Y291983D01*
X794829Y292057D01*
X794727Y292113D01*
X794626Y292159D01*
X794524Y292187D01*
X794441Y292205D01*
X794367Y292214D01*
X794302Y292214D01*
X794163Y292205D01*
X794043Y292177D01*
X793941Y292140D01*
X793849Y292103D01*
X793784Y292066D01*
X793729Y292029D01*
X793701Y292002D01*
X793692Y291992D01*
X793618Y291900D01*
X793562Y291798D01*
X793525Y291697D01*
X793498Y291595D01*
X793479Y291502D01*
X793470Y291419D01*
X793470Y291373D01*
X793470Y291364D01*
X793470Y291355D01*
X793479Y291216D01*
X793507Y291086D01*
X793553Y290957D01*
X793599Y290846D01*
X793645Y290744D01*
X793692Y290670D01*
X793719Y290624D01*
X793729Y290606D01*
X793766Y290550D01*
X793821Y290485D01*
X793895Y290402D01*
X793969Y290328D01*
X794136Y290153D01*
X794302Y289977D01*
X794468Y289811D01*
X794542Y289736D01*
X794616Y289681D01*
X794672Y289626D01*
X794709Y289589D01*
X794736Y289561D01*
X794746Y289552D01*
X794931Y289376D01*
X795097Y289209D01*
X795254Y289052D01*
X795393Y288914D01*
X795522Y288775D01*
X795633Y288645D01*
X795735Y288535D01*
X795818Y288424D01*
X795892Y288331D01*
X795957Y288248D01*
X796012Y288183D01*
X796049Y288118D01*
X796086Y288081D01*
X796105Y288045D01*
X796123Y288026D01*
X796123Y288017D01*
X796244Y287804D01*
X796336Y287582D01*
X796410Y287379D01*
X796465Y287194D01*
X796502Y287027D01*
X796512Y286963D01*
X796521Y286907D01*
X796530Y286861D01*
X796539Y286824D01*
X796539Y286806D01*
X796539Y286796D01*
X792240Y286796D01*
X792240Y287934D01*
X794681Y287934D01*
X794607Y288054D01*
X794524Y288155D01*
X794487Y288202D01*
X794459Y288239D01*
X794441Y288257D01*
X794431Y288267D01*
X794394Y288303D01*
X794357Y288350D01*
X794247Y288451D01*
X794126Y288572D01*
X794006Y288692D01*
X793886Y288803D01*
X793784Y288895D01*
X793747Y288932D01*
X793719Y288960D01*
X793701Y288969D01*
X793692Y288978D01*
X793488Y289172D01*
X793322Y289330D01*
X793183Y289478D01*
X793072Y289589D01*
X792989Y289681D01*
X792934Y289746D01*
X792897Y289792D01*
X792887Y289801D01*
X792767Y289958D01*
X792665Y290106D01*
X792582Y290245D01*
X792518Y290365D01*
X792462Y290467D01*
X792425Y290550D01*
X792407Y290596D01*
X792397Y290615D01*
X792342Y290763D01*
X792305Y290911D01*
X792277Y291049D01*
X792259Y291179D01*
X792249Y291280D01*
X792240Y291364D01*
X792240Y291419D01*
X792240Y291438D01*
X792249Y291576D01*
X792268Y291715D01*
X792286Y291845D01*
X792323Y291965D01*
X792416Y292177D01*
X792508Y292362D01*
X792564Y292446D01*
X792610Y292510D01*
X792656Y292575D01*
X792702Y292621D01*
X792739Y292658D01*
X792758Y292695D01*
X792776Y292704D01*
X792786Y292714D01*
X792887Y292806D01*
X793008Y292889D01*
X793119Y292954D01*
X793248Y293009D01*
X793488Y293102D01*
X793729Y293167D01*
X793840Y293185D01*
X793941Y293204D01*
X794034Y293213D01*
X794117Y293222D01*
X794182Y293231D01*
X794274Y293231D01*
X794431Y293222D01*
X794431Y293222D02*
G37*
G36*
X814316Y293023D02*
X814436Y292829D01*
X814566Y292644D01*
X814695Y292496D01*
X814806Y292376D01*
X814908Y292284D01*
X814945Y292247D01*
X814972Y292219D01*
X814991Y292210D01*
X815000Y292201D01*
X815203Y292052D01*
X815398Y291923D01*
X815573Y291821D01*
X815730Y291747D01*
X815860Y291692D01*
X815952Y291646D01*
X815989Y291637D01*
X816017Y291627D01*
X816026Y291618D01*
X816036Y291618D01*
X816036Y290508D01*
X815703Y290638D01*
X815407Y290777D01*
X815268Y290851D01*
X815139Y290934D01*
X815018Y291008D01*
X814908Y291082D01*
X814806Y291156D01*
X814713Y291220D01*
X814639Y291276D01*
X814575Y291331D01*
X814519Y291378D01*
X814482Y291405D01*
X814464Y291424D01*
X814454Y291433D01*
X814454Y286801D01*
X813225Y286801D01*
X813225Y293236D01*
X814223Y293236D01*
X814316Y293023D01*
X814316Y293023D02*
G37*
G36*
X765101Y294227D02*
X765249Y294208D01*
X765397Y294181D01*
X765536Y294144D01*
X765666Y294097D01*
X765786Y294042D01*
X765906Y293996D01*
X765998Y293940D01*
X766091Y293875D01*
X766174Y293829D01*
X766239Y293774D01*
X766303Y293727D01*
X766350Y293690D01*
X766377Y293663D01*
X766396Y293644D01*
X766405Y293635D01*
X766507Y293515D01*
X766590Y293395D01*
X766673Y293265D01*
X766738Y293136D01*
X766793Y293006D01*
X766840Y292868D01*
X766904Y292618D01*
X766932Y292507D01*
X766951Y292396D01*
X766960Y292304D01*
X766969Y292220D01*
X766978Y292146D01*
X766978Y292100D01*
X766978Y292063D01*
X766978Y292054D01*
X766969Y291888D01*
X766951Y291721D01*
X766932Y291564D01*
X766895Y291425D01*
X766849Y291287D01*
X766803Y291166D01*
X766757Y291046D01*
X766701Y290944D01*
X766655Y290852D01*
X766609Y290769D01*
X766562Y290704D01*
X766516Y290639D01*
X766479Y290602D01*
X766461Y290565D01*
X766442Y290547D01*
X766433Y290538D01*
X766331Y290436D01*
X766220Y290344D01*
X766109Y290270D01*
X765998Y290205D01*
X765887Y290149D01*
X765786Y290094D01*
X765582Y290029D01*
X765407Y289983D01*
X765333Y289974D01*
X765268Y289965D01*
X765212Y289955D01*
X765138Y289955D01*
X765009Y289965D01*
X764889Y289983D01*
X764778Y290002D01*
X764667Y290039D01*
X764464Y290122D01*
X764297Y290223D01*
X764168Y290325D01*
X764112Y290371D01*
X764066Y290408D01*
X764029Y290445D01*
X764001Y290473D01*
X763992Y290482D01*
X763983Y290492D01*
X764001Y290297D01*
X764020Y290112D01*
X764038Y289946D01*
X764066Y289798D01*
X764094Y289669D01*
X764121Y289548D01*
X764149Y289447D01*
X764177Y289354D01*
X764214Y289271D01*
X764232Y289206D01*
X764260Y289151D01*
X764279Y289114D01*
X764297Y289077D01*
X764316Y289058D01*
X764325Y289040D01*
X764427Y288929D01*
X764538Y288846D01*
X764639Y288781D01*
X764741Y288744D01*
X764833Y288716D01*
X764898Y288707D01*
X764944Y288698D01*
X764963Y288698D01*
X765064Y288707D01*
X765166Y288726D01*
X765240Y288753D01*
X765314Y288781D01*
X765370Y288809D01*
X765407Y288836D01*
X765434Y288855D01*
X765444Y288864D01*
X765508Y288938D01*
X765555Y289021D01*
X765592Y289114D01*
X765619Y289206D01*
X765647Y289280D01*
X765656Y289345D01*
X765666Y289391D01*
X765666Y289410D01*
X766849Y289271D01*
X766821Y289123D01*
X766784Y288994D01*
X766747Y288864D01*
X766701Y288753D01*
X766655Y288642D01*
X766609Y288541D01*
X766553Y288458D01*
X766507Y288374D01*
X766451Y288309D01*
X766414Y288245D01*
X766368Y288199D01*
X766331Y288152D01*
X766303Y288125D01*
X766276Y288097D01*
X766266Y288088D01*
X766257Y288078D01*
X766165Y288004D01*
X766072Y287949D01*
X765869Y287847D01*
X765675Y287782D01*
X765481Y287727D01*
X765305Y287699D01*
X765231Y287690D01*
X765166Y287690D01*
X765120Y287681D01*
X765046Y287681D01*
X764852Y287690D01*
X764676Y287718D01*
X764510Y287755D01*
X764343Y287801D01*
X764195Y287866D01*
X764057Y287931D01*
X763927Y287995D01*
X763816Y288069D01*
X763715Y288143D01*
X763622Y288208D01*
X763548Y288282D01*
X763484Y288337D01*
X763428Y288384D01*
X763391Y288421D01*
X763373Y288448D01*
X763363Y288458D01*
X763243Y288615D01*
X763151Y288790D01*
X763058Y288985D01*
X762984Y289179D01*
X762919Y289391D01*
X762864Y289604D01*
X762827Y289807D01*
X762790Y290020D01*
X762762Y290214D01*
X762744Y290390D01*
X762725Y290556D01*
X762716Y290704D01*
X762707Y290824D01*
X762707Y290917D01*
X762707Y290944D01*
X762707Y290972D01*
X762707Y290982D01*
X762707Y290991D01*
X762716Y291305D01*
X762735Y291592D01*
X762762Y291860D01*
X762809Y292110D01*
X762855Y292331D01*
X762901Y292535D01*
X762966Y292720D01*
X763021Y292886D01*
X763077Y293025D01*
X763132Y293145D01*
X763188Y293247D01*
X763234Y293330D01*
X763280Y293395D01*
X763308Y293441D01*
X763326Y293469D01*
X763336Y293478D01*
X763456Y293607D01*
X763585Y293727D01*
X763715Y293829D01*
X763844Y293912D01*
X763983Y293986D01*
X764112Y294051D01*
X764242Y294097D01*
X764371Y294144D01*
X764482Y294171D01*
X764593Y294199D01*
X764685Y294217D01*
X764769Y294227D01*
X764843Y294227D01*
X764889Y294236D01*
X764935Y294236D01*
X765101Y294227D01*
X765101Y294227D02*
G37*
G36*
X770547Y294310D02*
X770788Y294282D01*
X771000Y294236D01*
X771213Y294181D01*
X771398Y294116D01*
X771583Y294042D01*
X771740Y293959D01*
X771888Y293875D01*
X772026Y293792D01*
X772137Y293709D01*
X772239Y293635D01*
X772322Y293570D01*
X772387Y293515D01*
X772433Y293469D01*
X772461Y293441D01*
X772470Y293432D01*
X772618Y293256D01*
X772738Y293071D01*
X772849Y292877D01*
X772942Y292673D01*
X773025Y292461D01*
X773090Y292257D01*
X773145Y292054D01*
X773191Y291860D01*
X773228Y291666D01*
X773247Y291499D01*
X773265Y291342D01*
X773284Y291213D01*
X773284Y291102D01*
X773293Y291019D01*
X773293Y290963D01*
X773293Y290954D01*
X773293Y290944D01*
X773284Y290667D01*
X773256Y290408D01*
X773219Y290159D01*
X773164Y289937D01*
X773108Y289724D01*
X773034Y289521D01*
X772960Y289345D01*
X772886Y289188D01*
X772812Y289040D01*
X772738Y288911D01*
X772664Y288809D01*
X772609Y288716D01*
X772553Y288652D01*
X772516Y288596D01*
X772489Y288568D01*
X772479Y288559D01*
X772322Y288402D01*
X772156Y288273D01*
X771980Y288152D01*
X771805Y288060D01*
X771629Y287977D01*
X771453Y287903D01*
X771287Y287847D01*
X771130Y287801D01*
X770972Y287764D01*
X770834Y287736D01*
X770704Y287718D01*
X770603Y287709D01*
X770510Y287699D01*
X770445Y287690D01*
X770390Y287690D01*
X770196Y287699D01*
X770020Y287709D01*
X769845Y287736D01*
X769687Y287773D01*
X769539Y287810D01*
X769401Y287847D01*
X769271Y287894D01*
X769151Y287949D01*
X769049Y287995D01*
X768957Y288041D01*
X768874Y288078D01*
X768809Y288115D01*
X768754Y288152D01*
X768717Y288180D01*
X768698Y288189D01*
X768689Y288199D01*
X768569Y288300D01*
X768458Y288411D01*
X768254Y288661D01*
X768088Y288920D01*
X767958Y289169D01*
X767903Y289290D01*
X767857Y289401D01*
X767820Y289502D01*
X767783Y289585D01*
X767755Y289659D01*
X767737Y289715D01*
X767727Y289752D01*
X767727Y289761D01*
X768985Y290149D01*
X769059Y289900D01*
X769142Y289687D01*
X769225Y289512D01*
X769317Y289363D01*
X769391Y289253D01*
X769456Y289179D01*
X769502Y289132D01*
X769521Y289114D01*
X769669Y289003D01*
X769817Y288929D01*
X769965Y288874D01*
X770094Y288827D01*
X770214Y288809D01*
X770316Y288799D01*
X770353Y288790D01*
X770399Y288790D01*
X770529Y288799D01*
X770649Y288809D01*
X770871Y288874D01*
X771065Y288948D01*
X771222Y289049D01*
X771351Y289142D01*
X771444Y289216D01*
X771481Y289253D01*
X771509Y289280D01*
X771518Y289290D01*
X771527Y289299D01*
X771601Y289401D01*
X771666Y289521D01*
X771731Y289650D01*
X771777Y289789D01*
X771851Y290075D01*
X771906Y290362D01*
X771925Y290501D01*
X771934Y290621D01*
X771953Y290741D01*
X771953Y290843D01*
X771962Y290917D01*
X771962Y290982D01*
X771962Y291028D01*
X771962Y291037D01*
X771953Y291250D01*
X771943Y291444D01*
X771925Y291619D01*
X771897Y291786D01*
X771860Y291934D01*
X771823Y292073D01*
X771786Y292193D01*
X771740Y292304D01*
X771703Y292396D01*
X771666Y292479D01*
X771629Y292544D01*
X771592Y292600D01*
X771564Y292646D01*
X771546Y292673D01*
X771527Y292692D01*
X771527Y292701D01*
X771444Y292794D01*
X771351Y292877D01*
X771259Y292942D01*
X771157Y292997D01*
X770963Y293090D01*
X770778Y293154D01*
X770621Y293191D01*
X770547Y293200D01*
X770492Y293210D01*
X770436Y293219D01*
X770371Y293219D01*
X770187Y293210D01*
X770020Y293173D01*
X769872Y293127D01*
X769743Y293071D01*
X769641Y293015D01*
X769567Y292969D01*
X769521Y292932D01*
X769502Y292923D01*
X769382Y292812D01*
X769271Y292683D01*
X769188Y292553D01*
X769123Y292424D01*
X769077Y292313D01*
X769049Y292230D01*
X769031Y292193D01*
X769031Y292165D01*
X769022Y292156D01*
X769022Y292146D01*
X767746Y292452D01*
X767838Y292720D01*
X767940Y292951D01*
X768051Y293154D01*
X768152Y293321D01*
X768254Y293450D01*
X768291Y293506D01*
X768328Y293552D01*
X768356Y293580D01*
X768384Y293607D01*
X768393Y293626D01*
X768402Y293626D01*
X768541Y293746D01*
X768698Y293857D01*
X768846Y293949D01*
X769003Y294023D01*
X769170Y294097D01*
X769327Y294153D01*
X769484Y294199D01*
X769632Y294236D01*
X769771Y294264D01*
X769900Y294282D01*
X770011Y294301D01*
X770113Y294310D01*
X770196Y294319D01*
X770307Y294319D01*
X770547Y294310D01*
X770547Y294310D02*
G37*
G36*
X820020Y293310D02*
X820261Y293282D01*
X820473Y293236D01*
X820686Y293181D01*
X820871Y293116D01*
X821056Y293042D01*
X821213Y292959D01*
X821361Y292875D01*
X821500Y292792D01*
X821611Y292709D01*
X821712Y292635D01*
X821796Y292570D01*
X821860Y292515D01*
X821907Y292469D01*
X821934Y292441D01*
X821943Y292432D01*
X822091Y292256D01*
X822212Y292071D01*
X822322Y291877D01*
X822415Y291674D01*
X822498Y291461D01*
X822563Y291257D01*
X822618Y291054D01*
X822665Y290860D01*
X822702Y290666D01*
X822720Y290499D01*
X822739Y290342D01*
X822757Y290213D01*
X822757Y290102D01*
X822766Y290019D01*
X822766Y289963D01*
X822766Y289954D01*
X822766Y289944D01*
X822757Y289667D01*
X822729Y289408D01*
X822692Y289159D01*
X822637Y288937D01*
X822581Y288724D01*
X822507Y288521D01*
X822433Y288345D01*
X822359Y288188D01*
X822286Y288040D01*
X822212Y287910D01*
X822138Y287809D01*
X822082Y287716D01*
X822027Y287652D01*
X821990Y287596D01*
X821962Y287568D01*
X821953Y287559D01*
X821796Y287402D01*
X821629Y287273D01*
X821453Y287152D01*
X821278Y287060D01*
X821102Y286977D01*
X820926Y286903D01*
X820760Y286847D01*
X820603Y286801D01*
X820446Y286764D01*
X820307Y286736D01*
X820178Y286718D01*
X820076Y286709D01*
X819983Y286699D01*
X819919Y286690D01*
X819863Y286690D01*
X819669Y286699D01*
X819493Y286709D01*
X819318Y286736D01*
X819161Y286773D01*
X819013Y286810D01*
X818874Y286847D01*
X818745Y286894D01*
X818624Y286949D01*
X818523Y286995D01*
X818430Y287041D01*
X818347Y287078D01*
X818282Y287115D01*
X818227Y287152D01*
X818190Y287180D01*
X818171Y287189D01*
X818162Y287199D01*
X818042Y287300D01*
X817931Y287411D01*
X817727Y287661D01*
X817561Y287920D01*
X817432Y288169D01*
X817376Y288290D01*
X817330Y288400D01*
X817293Y288502D01*
X817256Y288585D01*
X817228Y288659D01*
X817210Y288715D01*
X817200Y288752D01*
X817200Y288761D01*
X818458Y289149D01*
X818532Y288900D01*
X818615Y288687D01*
X818698Y288512D01*
X818791Y288363D01*
X818865Y288253D01*
X818929Y288179D01*
X818976Y288132D01*
X818994Y288114D01*
X819142Y288003D01*
X819290Y287929D01*
X819438Y287873D01*
X819567Y287827D01*
X819688Y287809D01*
X819789Y287800D01*
X819826Y287790D01*
X819872Y287790D01*
X820002Y287800D01*
X820122Y287809D01*
X820344Y287873D01*
X820538Y287948D01*
X820695Y288049D01*
X820825Y288142D01*
X820917Y288216D01*
X820954Y288253D01*
X820982Y288280D01*
X820991Y288290D01*
X821000Y288299D01*
X821074Y288400D01*
X821139Y288521D01*
X821204Y288650D01*
X821250Y288789D01*
X821324Y289075D01*
X821379Y289362D01*
X821398Y289501D01*
X821407Y289621D01*
X821426Y289741D01*
X821426Y289843D01*
X821435Y289917D01*
X821435Y289981D01*
X821435Y290028D01*
X821435Y290037D01*
X821426Y290250D01*
X821416Y290444D01*
X821398Y290620D01*
X821370Y290786D01*
X821333Y290934D01*
X821296Y291073D01*
X821259Y291193D01*
X821213Y291304D01*
X821176Y291396D01*
X821139Y291479D01*
X821102Y291544D01*
X821065Y291600D01*
X821037Y291646D01*
X821019Y291674D01*
X821000Y291692D01*
X821000Y291701D01*
X820917Y291794D01*
X820825Y291877D01*
X820732Y291942D01*
X820631Y291997D01*
X820436Y292090D01*
X820251Y292154D01*
X820094Y292191D01*
X820020Y292201D01*
X819965Y292210D01*
X819909Y292219D01*
X819845Y292219D01*
X819660Y292210D01*
X819493Y292173D01*
X819345Y292127D01*
X819216Y292071D01*
X819114Y292015D01*
X819040Y291969D01*
X818994Y291932D01*
X818976Y291923D01*
X818855Y291812D01*
X818745Y291683D01*
X818661Y291553D01*
X818596Y291424D01*
X818550Y291313D01*
X818523Y291230D01*
X818504Y291193D01*
X818504Y291165D01*
X818495Y291156D01*
X818495Y291147D01*
X817219Y291452D01*
X817311Y291720D01*
X817413Y291951D01*
X817524Y292154D01*
X817626Y292321D01*
X817727Y292450D01*
X817764Y292506D01*
X817801Y292552D01*
X817829Y292579D01*
X817857Y292607D01*
X817866Y292626D01*
X817875Y292626D01*
X818014Y292746D01*
X818171Y292857D01*
X818319Y292949D01*
X818476Y293023D01*
X818643Y293097D01*
X818800Y293153D01*
X818957Y293199D01*
X819105Y293236D01*
X819244Y293264D01*
X819373Y293282D01*
X819484Y293301D01*
X819586Y293310D01*
X819669Y293319D01*
X819780Y293319D01*
X820020Y293310D01*
X820020Y293310D02*
G37*
G36*
X800043Y293305D02*
X800284Y293278D01*
X800497Y293231D01*
X800709Y293176D01*
X800894Y293111D01*
X801079Y293037D01*
X801236Y292954D01*
X801384Y292871D01*
X801523Y292788D01*
X801634Y292704D01*
X801735Y292630D01*
X801819Y292566D01*
X801883Y292510D01*
X801930Y292464D01*
X801957Y292436D01*
X801967Y292427D01*
X802114Y292251D01*
X802235Y292066D01*
X802346Y291872D01*
X802438Y291669D01*
X802521Y291456D01*
X802586Y291253D01*
X802642Y291049D01*
X802688Y290855D01*
X802725Y290661D01*
X802743Y290495D01*
X802762Y290338D01*
X802780Y290208D01*
X802780Y290097D01*
X802789Y290014D01*
X802789Y289958D01*
X802789Y289949D01*
X802789Y289940D01*
X802780Y289662D01*
X802752Y289404D01*
X802716Y289154D01*
X802660Y288932D01*
X802605Y288720D01*
X802531Y288516D01*
X802457Y288340D01*
X802383Y288183D01*
X802309Y288035D01*
X802235Y287906D01*
X802161Y287804D01*
X802105Y287712D01*
X802050Y287647D01*
X802013Y287591D01*
X801985Y287564D01*
X801976Y287554D01*
X801819Y287397D01*
X801652Y287268D01*
X801477Y287148D01*
X801301Y287055D01*
X801125Y286972D01*
X800950Y286898D01*
X800783Y286843D01*
X800626Y286796D01*
X800469Y286759D01*
X800330Y286732D01*
X800201Y286713D01*
X800099Y286704D01*
X800006Y286695D01*
X799942Y286686D01*
X799886Y286686D01*
X799692Y286695D01*
X799517Y286704D01*
X799341Y286732D01*
X799184Y286769D01*
X799036Y286806D01*
X798897Y286843D01*
X798768Y286889D01*
X798647Y286944D01*
X798546Y286991D01*
X798453Y287037D01*
X798370Y287074D01*
X798305Y287111D01*
X798250Y287148D01*
X798213Y287176D01*
X798194Y287185D01*
X798185Y287194D01*
X798065Y287296D01*
X797954Y287407D01*
X797751Y287656D01*
X797584Y287915D01*
X797455Y288165D01*
X797399Y288285D01*
X797353Y288396D01*
X797316Y288498D01*
X797279Y288581D01*
X797251Y288655D01*
X797233Y288710D01*
X797224Y288747D01*
X797224Y288757D01*
X798481Y289145D01*
X798555Y288895D01*
X798638Y288682D01*
X798721Y288507D01*
X798814Y288359D01*
X798888Y288248D01*
X798952Y288174D01*
X798999Y288128D01*
X799017Y288109D01*
X799165Y287998D01*
X799313Y287924D01*
X799461Y287869D01*
X799591Y287823D01*
X799711Y287804D01*
X799812Y287795D01*
X799849Y287786D01*
X799896Y287786D01*
X800025Y287795D01*
X800145Y287804D01*
X800367Y287869D01*
X800561Y287943D01*
X800718Y288045D01*
X800848Y288137D01*
X800940Y288211D01*
X800977Y288248D01*
X801005Y288276D01*
X801014Y288285D01*
X801023Y288294D01*
X801097Y288396D01*
X801162Y288516D01*
X801227Y288645D01*
X801273Y288784D01*
X801347Y289071D01*
X801403Y289357D01*
X801421Y289496D01*
X801430Y289616D01*
X801449Y289736D01*
X801449Y289838D01*
X801458Y289912D01*
X801458Y289977D01*
X801458Y290023D01*
X801458Y290032D01*
X801449Y290245D01*
X801440Y290439D01*
X801421Y290615D01*
X801393Y290781D01*
X801356Y290929D01*
X801319Y291068D01*
X801282Y291188D01*
X801236Y291299D01*
X801199Y291392D01*
X801162Y291475D01*
X801125Y291539D01*
X801088Y291595D01*
X801060Y291641D01*
X801042Y291669D01*
X801023Y291687D01*
X801023Y291697D01*
X800940Y291789D01*
X800848Y291872D01*
X800755Y291937D01*
X800654Y291992D01*
X800460Y292085D01*
X800275Y292150D01*
X800117Y292187D01*
X800043Y292196D01*
X799988Y292205D01*
X799932Y292214D01*
X799868Y292214D01*
X799683Y292205D01*
X799517Y292168D01*
X799369Y292122D01*
X799239Y292066D01*
X799137Y292011D01*
X799063Y291965D01*
X799017Y291928D01*
X798999Y291919D01*
X798878Y291807D01*
X798768Y291678D01*
X798684Y291549D01*
X798620Y291419D01*
X798573Y291308D01*
X798546Y291225D01*
X798527Y291188D01*
X798527Y291160D01*
X798518Y291151D01*
X798518Y291142D01*
X797242Y291447D01*
X797335Y291715D01*
X797436Y291946D01*
X797547Y292150D01*
X797649Y292316D01*
X797751Y292446D01*
X797788Y292501D01*
X797824Y292547D01*
X797852Y292575D01*
X797880Y292603D01*
X797889Y292621D01*
X797898Y292621D01*
X798037Y292741D01*
X798194Y292852D01*
X798342Y292945D01*
X798500Y293019D01*
X798666Y293093D01*
X798823Y293148D01*
X798980Y293194D01*
X799128Y293231D01*
X799267Y293259D01*
X799396Y293278D01*
X799507Y293296D01*
X799609Y293305D01*
X799692Y293315D01*
X799803Y293315D01*
X800043Y293305D01*
X800043Y293305D02*
G37*
G36*
X791408Y291974D02*
X788625Y291974D01*
X788930Y291558D01*
X789198Y291123D01*
X789328Y290920D01*
X789439Y290707D01*
X789540Y290513D01*
X789633Y290328D01*
X789716Y290153D01*
X789790Y289995D01*
X789855Y289848D01*
X789910Y289727D01*
X789947Y289635D01*
X789975Y289561D01*
X789994Y289515D01*
X790003Y289496D01*
X790095Y289237D01*
X790178Y288988D01*
X790243Y288738D01*
X790308Y288498D01*
X790354Y288257D01*
X790400Y288035D01*
X790437Y287823D01*
X790465Y287628D01*
X790493Y287453D01*
X790511Y287286D01*
X790530Y287148D01*
X790539Y287027D01*
X790539Y286926D01*
X790548Y286852D01*
X790548Y286815D01*
X790548Y286796D01*
X789365Y286796D01*
X789356Y287120D01*
X789328Y287453D01*
X789282Y287776D01*
X789263Y287924D01*
X789235Y288072D01*
X789208Y288202D01*
X789180Y288331D01*
X789161Y288433D01*
X789143Y288525D01*
X789124Y288608D01*
X789106Y288664D01*
X789097Y288701D01*
X789097Y288710D01*
X788977Y289108D01*
X788847Y289487D01*
X788782Y289662D01*
X788708Y289829D01*
X788644Y289986D01*
X788579Y290134D01*
X788514Y290264D01*
X788459Y290384D01*
X788403Y290495D01*
X788366Y290578D01*
X788329Y290652D01*
X788302Y290698D01*
X788283Y290735D01*
X788274Y290744D01*
X788172Y290920D01*
X788070Y291086D01*
X787978Y291234D01*
X787886Y291382D01*
X787793Y291512D01*
X787701Y291632D01*
X787617Y291743D01*
X787543Y291845D01*
X787469Y291937D01*
X787405Y292011D01*
X787349Y292076D01*
X787303Y292131D01*
X787266Y292168D01*
X787238Y292196D01*
X787220Y292214D01*
X787211Y292224D01*
X787211Y293111D01*
X791408Y293111D01*
X791408Y291974D01*
X791408Y291974D02*
G37*
G36*
X809480Y293227D02*
X809638Y293208D01*
X809795Y293171D01*
X809933Y293134D01*
X810063Y293079D01*
X810183Y293023D01*
X810285Y292968D01*
X810386Y292903D01*
X810470Y292838D01*
X810553Y292783D01*
X810618Y292728D01*
X810664Y292672D01*
X810710Y292635D01*
X810738Y292598D01*
X810756Y292579D01*
X810766Y292570D01*
X810876Y292413D01*
X810969Y292228D01*
X811052Y292034D01*
X811126Y291831D01*
X811182Y291618D01*
X811237Y291396D01*
X811274Y291183D01*
X811311Y290971D01*
X811329Y290767D01*
X811348Y290583D01*
X811367Y290407D01*
X811376Y290259D01*
X811385Y290139D01*
X811385Y290046D01*
X811385Y290009D01*
X811385Y289981D01*
X811385Y289972D01*
X811385Y289963D01*
X811376Y289630D01*
X811357Y289325D01*
X811329Y289039D01*
X811292Y288780D01*
X811255Y288548D01*
X811209Y288336D01*
X811154Y288151D01*
X811098Y287985D01*
X811052Y287846D01*
X810997Y287716D01*
X810950Y287615D01*
X810904Y287531D01*
X810876Y287476D01*
X810849Y287430D01*
X810830Y287402D01*
X810821Y287393D01*
X810710Y287263D01*
X810590Y287162D01*
X810470Y287060D01*
X810340Y286986D01*
X810220Y286912D01*
X810091Y286856D01*
X809970Y286810D01*
X809850Y286773D01*
X809739Y286736D01*
X809638Y286718D01*
X809545Y286699D01*
X809471Y286690D01*
X809406Y286690D01*
X809351Y286681D01*
X809314Y286681D01*
X809147Y286690D01*
X808990Y286709D01*
X808833Y286746D01*
X808695Y286782D01*
X808565Y286829D01*
X808445Y286884D01*
X808343Y286949D01*
X808242Y287014D01*
X808158Y287069D01*
X808075Y287134D01*
X808010Y287189D01*
X807955Y287236D01*
X807918Y287273D01*
X807890Y287309D01*
X807872Y287328D01*
X807862Y287337D01*
X807751Y287494D01*
X807659Y287679D01*
X807567Y287873D01*
X807502Y288086D01*
X807437Y288299D01*
X807391Y288512D01*
X807345Y288733D01*
X807308Y288946D01*
X807289Y289149D01*
X807271Y289334D01*
X807252Y289510D01*
X807243Y289658D01*
X807234Y289778D01*
X807234Y289871D01*
X807234Y289907D01*
X807234Y289935D01*
X807234Y289944D01*
X807234Y289954D01*
X807243Y290287D01*
X807261Y290592D01*
X807289Y290869D01*
X807335Y291128D01*
X807382Y291368D01*
X807428Y291581D01*
X807493Y291775D01*
X807548Y291942D01*
X807604Y292099D01*
X807659Y292219D01*
X807714Y292330D01*
X807761Y292422D01*
X807807Y292487D01*
X807835Y292533D01*
X807853Y292561D01*
X807862Y292570D01*
X807964Y292691D01*
X808075Y292792D01*
X808195Y292875D01*
X808315Y292959D01*
X808436Y293023D01*
X808556Y293069D01*
X808667Y293116D01*
X808787Y293153D01*
X808898Y293181D01*
X808990Y293199D01*
X809083Y293218D01*
X809157Y293227D01*
X809221Y293236D01*
X809314Y293236D01*
X809480Y293227D01*
X809480Y293227D02*
G37*
G36*
X785556Y76310D02*
X785797Y76282D01*
X786010Y76236D01*
X786222Y76181D01*
X786407Y76116D01*
X786592Y76042D01*
X786749Y75959D01*
X786897Y75875D01*
X787036Y75792D01*
X787147Y75709D01*
X787248Y75635D01*
X787332Y75570D01*
X787396Y75515D01*
X787442Y75469D01*
X787470Y75441D01*
X787479Y75432D01*
X787627Y75256D01*
X787748Y75071D01*
X787859Y74877D01*
X787951Y74674D01*
X788034Y74461D01*
X788099Y74257D01*
X788154Y74054D01*
X788201Y73860D01*
X788238Y73666D01*
X788256Y73499D01*
X788275Y73342D01*
X788293Y73213D01*
X788293Y73102D01*
X788302Y73018D01*
X788302Y72963D01*
X788302Y72954D01*
X788302Y72944D01*
X788293Y72667D01*
X788265Y72408D01*
X788228Y72159D01*
X788173Y71937D01*
X788117Y71724D01*
X788044Y71521D01*
X787970Y71345D01*
X787896Y71188D01*
X787822Y71040D01*
X787748Y70911D01*
X787674Y70809D01*
X787618Y70716D01*
X787563Y70652D01*
X787526Y70596D01*
X787498Y70568D01*
X787489Y70559D01*
X787332Y70402D01*
X787165Y70273D01*
X786990Y70152D01*
X786814Y70060D01*
X786638Y69977D01*
X786462Y69903D01*
X786296Y69847D01*
X786139Y69801D01*
X785982Y69764D01*
X785843Y69736D01*
X785714Y69718D01*
X785612Y69709D01*
X785519Y69699D01*
X785455Y69690D01*
X785399Y69690D01*
X785205Y69699D01*
X785029Y69709D01*
X784854Y69736D01*
X784697Y69773D01*
X784549Y69810D01*
X784410Y69847D01*
X784280Y69893D01*
X784160Y69949D01*
X784059Y69995D01*
X783966Y70041D01*
X783883Y70078D01*
X783818Y70115D01*
X783763Y70152D01*
X783726Y70180D01*
X783707Y70189D01*
X783698Y70199D01*
X783578Y70300D01*
X783467Y70411D01*
X783263Y70661D01*
X783097Y70920D01*
X782968Y71169D01*
X782912Y71290D01*
X782866Y71400D01*
X782829Y71502D01*
X782792Y71585D01*
X782764Y71659D01*
X782746Y71715D01*
X782737Y71752D01*
X782737Y71761D01*
X783994Y72149D01*
X784068Y71900D01*
X784151Y71687D01*
X784234Y71512D01*
X784327Y71364D01*
X784401Y71253D01*
X784465Y71179D01*
X784512Y71132D01*
X784530Y71114D01*
X784678Y71003D01*
X784826Y70929D01*
X784974Y70873D01*
X785103Y70827D01*
X785224Y70809D01*
X785325Y70800D01*
X785362Y70790D01*
X785408Y70790D01*
X785538Y70800D01*
X785658Y70809D01*
X785880Y70873D01*
X786074Y70947D01*
X786231Y71049D01*
X786361Y71142D01*
X786453Y71216D01*
X786490Y71253D01*
X786518Y71280D01*
X786527Y71290D01*
X786536Y71299D01*
X786610Y71400D01*
X786675Y71521D01*
X786740Y71650D01*
X786786Y71789D01*
X786860Y72075D01*
X786916Y72362D01*
X786934Y72501D01*
X786943Y72621D01*
X786962Y72741D01*
X786962Y72843D01*
X786971Y72917D01*
X786971Y72982D01*
X786971Y73028D01*
X786971Y73037D01*
X786962Y73250D01*
X786953Y73444D01*
X786934Y73619D01*
X786906Y73786D01*
X786869Y73934D01*
X786832Y74072D01*
X786795Y74193D01*
X786749Y74304D01*
X786712Y74396D01*
X786675Y74479D01*
X786638Y74544D01*
X786601Y74599D01*
X786573Y74646D01*
X786555Y74674D01*
X786536Y74692D01*
X786536Y74701D01*
X786453Y74794D01*
X786361Y74877D01*
X786268Y74942D01*
X786167Y74997D01*
X785973Y75090D01*
X785788Y75154D01*
X785630Y75191D01*
X785556Y75201D01*
X785501Y75210D01*
X785445Y75219D01*
X785381Y75219D01*
X785196Y75210D01*
X785029Y75173D01*
X784882Y75127D01*
X784752Y75071D01*
X784650Y75016D01*
X784576Y74969D01*
X784530Y74932D01*
X784512Y74923D01*
X784391Y74812D01*
X784280Y74683D01*
X784197Y74553D01*
X784133Y74424D01*
X784086Y74313D01*
X784059Y74230D01*
X784040Y74193D01*
X784040Y74165D01*
X784031Y74156D01*
X784031Y74146D01*
X782755Y74452D01*
X782848Y74720D01*
X782949Y74951D01*
X783060Y75154D01*
X783162Y75321D01*
X783263Y75450D01*
X783300Y75506D01*
X783337Y75552D01*
X783365Y75580D01*
X783393Y75607D01*
X783402Y75626D01*
X783411Y75626D01*
X783550Y75746D01*
X783707Y75857D01*
X783855Y75949D01*
X784012Y76023D01*
X784179Y76097D01*
X784336Y76153D01*
X784493Y76199D01*
X784641Y76236D01*
X784780Y76264D01*
X784909Y76282D01*
X785020Y76301D01*
X785122Y76310D01*
X785205Y76319D01*
X785316Y76319D01*
X785556Y76310D01*
X785556Y76310D02*
G37*
G36*
X780000Y76227D02*
X780157Y76217D01*
X780305Y76190D01*
X780444Y76162D01*
X780573Y76125D01*
X780693Y76088D01*
X780795Y76042D01*
X780887Y76005D01*
X780980Y75959D01*
X781054Y75912D01*
X781109Y75875D01*
X781165Y75838D01*
X781202Y75811D01*
X781229Y75783D01*
X781248Y75774D01*
X781257Y75764D01*
X781340Y75672D01*
X781424Y75580D01*
X781488Y75478D01*
X781544Y75385D01*
X781636Y75182D01*
X781692Y74997D01*
X781729Y74831D01*
X781738Y74757D01*
X781747Y74701D01*
X781757Y74646D01*
X781757Y74609D01*
X781757Y74590D01*
X781757Y74581D01*
X781747Y74424D01*
X781720Y74285D01*
X781692Y74146D01*
X781646Y74036D01*
X781609Y73934D01*
X781581Y73869D01*
X781553Y73823D01*
X781544Y73804D01*
X781451Y73684D01*
X781340Y73573D01*
X781229Y73481D01*
X781109Y73398D01*
X781008Y73342D01*
X780924Y73296D01*
X780869Y73268D01*
X780860Y73259D01*
X780850Y73259D01*
X781045Y73157D01*
X781211Y73056D01*
X781350Y72944D01*
X781461Y72834D01*
X781553Y72732D01*
X781618Y72658D01*
X781655Y72602D01*
X781664Y72593D01*
X781664Y72584D01*
X781747Y72417D01*
X781812Y72251D01*
X781849Y72085D01*
X781886Y71937D01*
X781904Y71817D01*
X781914Y71715D01*
X781914Y71678D01*
X781914Y71650D01*
X781914Y71632D01*
X781914Y71622D01*
X781904Y71447D01*
X781886Y71290D01*
X781849Y71132D01*
X781803Y70994D01*
X781757Y70855D01*
X781701Y70735D01*
X781636Y70624D01*
X781572Y70522D01*
X781507Y70439D01*
X781442Y70356D01*
X781387Y70291D01*
X781340Y70236D01*
X781294Y70189D01*
X781257Y70162D01*
X781239Y70143D01*
X781229Y70134D01*
X781118Y70051D01*
X780998Y69986D01*
X780878Y69921D01*
X780758Y69875D01*
X780518Y69792D01*
X780286Y69736D01*
X780175Y69718D01*
X780083Y69709D01*
X780000Y69699D01*
X779926Y69690D01*
X779861Y69681D01*
X779778Y69681D01*
X779602Y69690D01*
X779445Y69709D01*
X779288Y69736D01*
X779140Y69764D01*
X779010Y69810D01*
X778890Y69857D01*
X778770Y69903D01*
X778668Y69958D01*
X778576Y70014D01*
X778502Y70060D01*
X778428Y70106D01*
X778373Y70152D01*
X778326Y70180D01*
X778299Y70208D01*
X778280Y70226D01*
X778271Y70236D01*
X778169Y70346D01*
X778086Y70458D01*
X778003Y70578D01*
X777938Y70698D01*
X777883Y70818D01*
X777836Y70938D01*
X777772Y71169D01*
X777744Y71271D01*
X777725Y71364D01*
X777716Y71456D01*
X777707Y71530D01*
X777698Y71595D01*
X777698Y71641D01*
X777698Y71669D01*
X777698Y71678D01*
X777707Y71872D01*
X777744Y72048D01*
X777781Y72214D01*
X777836Y72353D01*
X777883Y72464D01*
X777929Y72547D01*
X777966Y72602D01*
X777975Y72621D01*
X778086Y72769D01*
X778215Y72898D01*
X778354Y73009D01*
X778484Y73092D01*
X778604Y73166D01*
X778696Y73222D01*
X778733Y73240D01*
X778761Y73250D01*
X778779Y73259D01*
X778789Y73259D01*
X778641Y73333D01*
X778511Y73416D01*
X778400Y73499D01*
X778308Y73592D01*
X778234Y73666D01*
X778188Y73730D01*
X778151Y73767D01*
X778141Y73786D01*
X778058Y73925D01*
X778003Y74063D01*
X777956Y74193D01*
X777929Y74313D01*
X777910Y74424D01*
X777901Y74507D01*
X777901Y74563D01*
X777901Y74572D01*
X777901Y74581D01*
X777910Y74710D01*
X777920Y74840D01*
X777984Y75071D01*
X778058Y75265D01*
X778151Y75441D01*
X778252Y75580D01*
X778289Y75635D01*
X778326Y75681D01*
X778363Y75718D01*
X778391Y75746D01*
X778400Y75755D01*
X778410Y75764D01*
X778511Y75848D01*
X778613Y75922D01*
X778733Y75986D01*
X778844Y76042D01*
X779084Y76125D01*
X779316Y76181D01*
X779417Y76199D01*
X779519Y76208D01*
X779602Y76217D01*
X779686Y76227D01*
X779741Y76236D01*
X779833Y76236D01*
X780000Y76227D01*
X780000Y76227D02*
G37*
G36*
X785473Y61227D02*
X785621Y61217D01*
X785908Y61171D01*
X786148Y61097D01*
X786259Y61060D01*
X786361Y61014D01*
X786453Y60977D01*
X786527Y60931D01*
X786601Y60894D01*
X786656Y60866D01*
X786703Y60829D01*
X786730Y60811D01*
X786749Y60801D01*
X786758Y60792D01*
X786860Y60700D01*
X786952Y60607D01*
X787036Y60496D01*
X787110Y60376D01*
X787220Y60136D01*
X787313Y59905D01*
X787341Y59784D01*
X787368Y59683D01*
X787396Y59590D01*
X787405Y59507D01*
X787424Y59433D01*
X787424Y59387D01*
X787433Y59350D01*
X787433Y59341D01*
X786213Y59220D01*
X786194Y59405D01*
X786157Y59563D01*
X786120Y59701D01*
X786074Y59803D01*
X786037Y59886D01*
X786000Y59942D01*
X785972Y59979D01*
X785963Y59988D01*
X785871Y60062D01*
X785769Y60117D01*
X785667Y60163D01*
X785565Y60191D01*
X785482Y60210D01*
X785408Y60219D01*
X785344Y60219D01*
X785205Y60210D01*
X785085Y60182D01*
X784983Y60145D01*
X784891Y60108D01*
X784826Y60071D01*
X784770Y60034D01*
X784743Y60006D01*
X784733Y59997D01*
X784659Y59905D01*
X784604Y59803D01*
X784567Y59701D01*
X784539Y59599D01*
X784521Y59507D01*
X784511Y59424D01*
X784511Y59378D01*
X784511Y59368D01*
X784511Y59359D01*
X784521Y59220D01*
X784548Y59091D01*
X784595Y58962D01*
X784641Y58851D01*
X784687Y58749D01*
X784733Y58675D01*
X784761Y58629D01*
X784770Y58610D01*
X784807Y58555D01*
X784863Y58490D01*
X784937Y58407D01*
X785011Y58333D01*
X785177Y58157D01*
X785344Y57982D01*
X785510Y57815D01*
X785584Y57741D01*
X785658Y57686D01*
X785713Y57630D01*
X785750Y57593D01*
X785778Y57565D01*
X785787Y57556D01*
X785972Y57381D01*
X786139Y57214D01*
X786296Y57057D01*
X786434Y56918D01*
X786564Y56780D01*
X786675Y56650D01*
X786777Y56539D01*
X786860Y56428D01*
X786934Y56336D01*
X786999Y56253D01*
X787054Y56188D01*
X787091Y56123D01*
X787128Y56086D01*
X787147Y56049D01*
X787165Y56031D01*
X787165Y56021D01*
X787285Y55809D01*
X787378Y55587D01*
X787452Y55384D01*
X787507Y55199D01*
X787544Y55032D01*
X787553Y54967D01*
X787562Y54912D01*
X787572Y54866D01*
X787581Y54829D01*
X787581Y54810D01*
X787581Y54801D01*
X783282Y54801D01*
X783282Y55938D01*
X785723Y55938D01*
X785649Y56058D01*
X785565Y56160D01*
X785528Y56206D01*
X785501Y56243D01*
X785482Y56262D01*
X785473Y56271D01*
X785436Y56308D01*
X785399Y56354D01*
X785288Y56456D01*
X785168Y56576D01*
X785048Y56696D01*
X784928Y56807D01*
X784826Y56900D01*
X784789Y56937D01*
X784761Y56965D01*
X784743Y56974D01*
X784733Y56983D01*
X784530Y57177D01*
X784363Y57334D01*
X784225Y57482D01*
X784114Y57593D01*
X784031Y57686D01*
X783975Y57750D01*
X783938Y57797D01*
X783929Y57806D01*
X783809Y57963D01*
X783707Y58111D01*
X783624Y58250D01*
X783559Y58370D01*
X783504Y58471D01*
X783467Y58555D01*
X783448Y58601D01*
X783439Y58619D01*
X783383Y58767D01*
X783346Y58915D01*
X783319Y59054D01*
X783300Y59183D01*
X783291Y59285D01*
X783282Y59368D01*
X783282Y59424D01*
X783282Y59442D01*
X783291Y59581D01*
X783309Y59720D01*
X783328Y59849D01*
X783365Y59969D01*
X783457Y60182D01*
X783550Y60367D01*
X783605Y60450D01*
X783652Y60515D01*
X783698Y60580D01*
X783744Y60626D01*
X783781Y60663D01*
X783800Y60700D01*
X783818Y60709D01*
X783827Y60718D01*
X783929Y60811D01*
X784049Y60894D01*
X784160Y60959D01*
X784290Y61014D01*
X784530Y61107D01*
X784770Y61171D01*
X784881Y61190D01*
X784983Y61208D01*
X785075Y61217D01*
X785159Y61227D01*
X785223Y61236D01*
X785316Y61236D01*
X785473Y61227D01*
X785473Y61227D02*
G37*
G36*
X780305Y61227D02*
X780480Y61199D01*
X780656Y61162D01*
X780813Y61116D01*
X780961Y61051D01*
X781109Y60986D01*
X781229Y60912D01*
X781349Y60848D01*
X781451Y60774D01*
X781544Y60700D01*
X781618Y60635D01*
X781682Y60570D01*
X781738Y60524D01*
X781775Y60487D01*
X781793Y60459D01*
X781803Y60450D01*
X781913Y60293D01*
X782015Y60117D01*
X782098Y59923D01*
X782172Y59729D01*
X782237Y59516D01*
X782292Y59304D01*
X782339Y59091D01*
X782366Y58888D01*
X782394Y58693D01*
X782413Y58509D01*
X782431Y58342D01*
X782440Y58194D01*
X782450Y58074D01*
X782450Y57982D01*
X782450Y57954D01*
X782450Y57926D01*
X782450Y57917D01*
X782450Y57908D01*
X782440Y57593D01*
X782422Y57307D01*
X782394Y57038D01*
X782348Y56798D01*
X782302Y56567D01*
X782255Y56364D01*
X782200Y56188D01*
X782135Y56021D01*
X782080Y55883D01*
X782024Y55763D01*
X781978Y55661D01*
X781923Y55578D01*
X781886Y55513D01*
X781858Y55467D01*
X781840Y55439D01*
X781830Y55430D01*
X781710Y55300D01*
X781581Y55180D01*
X781451Y55078D01*
X781312Y54995D01*
X781183Y54921D01*
X781044Y54866D01*
X780915Y54810D01*
X780795Y54773D01*
X780675Y54746D01*
X780573Y54718D01*
X780471Y54709D01*
X780388Y54690D01*
X780323Y54690D01*
X780277Y54681D01*
X780231Y54681D01*
X780064Y54690D01*
X779907Y54709D01*
X779759Y54736D01*
X779621Y54773D01*
X779482Y54819D01*
X779362Y54866D01*
X779251Y54921D01*
X779149Y54977D01*
X779057Y55032D01*
X778983Y55088D01*
X778909Y55134D01*
X778853Y55180D01*
X778807Y55217D01*
X778779Y55245D01*
X778761Y55263D01*
X778752Y55273D01*
X778650Y55384D01*
X778557Y55513D01*
X778483Y55642D01*
X778419Y55772D01*
X778354Y55901D01*
X778308Y56031D01*
X778243Y56290D01*
X778215Y56400D01*
X778197Y56512D01*
X778187Y56604D01*
X778178Y56687D01*
X778169Y56761D01*
X778169Y56807D01*
X778169Y56844D01*
X778169Y56854D01*
X778178Y57029D01*
X778197Y57186D01*
X778224Y57344D01*
X778252Y57482D01*
X778298Y57621D01*
X778345Y57741D01*
X778391Y57861D01*
X778446Y57963D01*
X778502Y58056D01*
X778548Y58139D01*
X778594Y58203D01*
X778641Y58268D01*
X778668Y58314D01*
X778696Y58342D01*
X778715Y58361D01*
X778724Y58370D01*
X778825Y58471D01*
X778936Y58564D01*
X779047Y58647D01*
X779158Y58712D01*
X779269Y58767D01*
X779380Y58814D01*
X779584Y58888D01*
X779676Y58915D01*
X779769Y58934D01*
X779842Y58943D01*
X779907Y58952D01*
X779963Y58962D01*
X780037Y58962D01*
X780166Y58952D01*
X780286Y58934D01*
X780397Y58915D01*
X780508Y58878D01*
X780702Y58786D01*
X780869Y58693D01*
X780998Y58592D01*
X781054Y58545D01*
X781100Y58499D01*
X781137Y58462D01*
X781165Y58444D01*
X781174Y58425D01*
X781183Y58416D01*
X781165Y58610D01*
X781146Y58795D01*
X781128Y58962D01*
X781100Y59110D01*
X781072Y59239D01*
X781044Y59359D01*
X781017Y59461D01*
X780980Y59553D01*
X780952Y59637D01*
X780933Y59701D01*
X780906Y59757D01*
X780887Y59794D01*
X780869Y59831D01*
X780850Y59849D01*
X780841Y59868D01*
X780739Y59988D01*
X780628Y60071D01*
X780517Y60136D01*
X780416Y60173D01*
X780323Y60201D01*
X780249Y60210D01*
X780203Y60219D01*
X780184Y60219D01*
X780083Y60210D01*
X779981Y60191D01*
X779898Y60163D01*
X779833Y60136D01*
X779778Y60099D01*
X779741Y60071D01*
X779713Y60052D01*
X779704Y60043D01*
X779639Y59969D01*
X779593Y59886D01*
X779547Y59794D01*
X779519Y59710D01*
X779500Y59627D01*
X779482Y59563D01*
X779473Y59525D01*
X779473Y59507D01*
X778289Y59637D01*
X778354Y59914D01*
X778446Y60145D01*
X778548Y60348D01*
X778650Y60524D01*
X778752Y60654D01*
X778788Y60700D01*
X778835Y60746D01*
X778862Y60774D01*
X778890Y60801D01*
X778899Y60820D01*
X778909Y60820D01*
X779001Y60894D01*
X779093Y60959D01*
X779297Y61060D01*
X779500Y61134D01*
X779685Y61181D01*
X779852Y61217D01*
X779926Y61227D01*
X779990Y61227D01*
X780037Y61236D01*
X780111Y61236D01*
X780305Y61227D01*
X780305Y61227D02*
G37*
G36*
X791085Y61310D02*
X791326Y61282D01*
X791538Y61236D01*
X791751Y61181D01*
X791936Y61116D01*
X792121Y61042D01*
X792278Y60959D01*
X792426Y60875D01*
X792564Y60792D01*
X792675Y60709D01*
X792777Y60635D01*
X792860Y60570D01*
X792925Y60515D01*
X792971Y60469D01*
X792999Y60441D01*
X793008Y60432D01*
X793156Y60256D01*
X793276Y60071D01*
X793387Y59877D01*
X793480Y59674D01*
X793563Y59461D01*
X793628Y59257D01*
X793683Y59054D01*
X793729Y58860D01*
X793766Y58666D01*
X793785Y58499D01*
X793803Y58342D01*
X793822Y58213D01*
X793822Y58102D01*
X793831Y58018D01*
X793831Y57963D01*
X793831Y57954D01*
X793831Y57944D01*
X793822Y57667D01*
X793794Y57408D01*
X793757Y57159D01*
X793702Y56937D01*
X793646Y56724D01*
X793572Y56521D01*
X793498Y56345D01*
X793424Y56188D01*
X793350Y56040D01*
X793276Y55911D01*
X793202Y55809D01*
X793147Y55716D01*
X793091Y55652D01*
X793054Y55596D01*
X793027Y55568D01*
X793017Y55559D01*
X792860Y55402D01*
X792694Y55273D01*
X792518Y55152D01*
X792343Y55060D01*
X792167Y54977D01*
X791991Y54903D01*
X791825Y54847D01*
X791668Y54801D01*
X791510Y54764D01*
X791372Y54736D01*
X791242Y54718D01*
X791141Y54709D01*
X791048Y54699D01*
X790983Y54690D01*
X790928Y54690D01*
X790734Y54699D01*
X790558Y54709D01*
X790382Y54736D01*
X790225Y54773D01*
X790077Y54810D01*
X789939Y54847D01*
X789809Y54893D01*
X789689Y54949D01*
X789587Y54995D01*
X789495Y55041D01*
X789412Y55078D01*
X789347Y55115D01*
X789291Y55152D01*
X789255Y55180D01*
X789236Y55189D01*
X789227Y55199D01*
X789107Y55300D01*
X788996Y55411D01*
X788792Y55661D01*
X788626Y55920D01*
X788496Y56169D01*
X788441Y56290D01*
X788395Y56400D01*
X788358Y56502D01*
X788321Y56585D01*
X788293Y56659D01*
X788274Y56715D01*
X788265Y56752D01*
X788265Y56761D01*
X789523Y57149D01*
X789596Y56900D01*
X789680Y56687D01*
X789763Y56512D01*
X789855Y56364D01*
X789929Y56253D01*
X789994Y56179D01*
X790040Y56132D01*
X790059Y56114D01*
X790207Y56003D01*
X790355Y55929D01*
X790503Y55873D01*
X790632Y55827D01*
X790752Y55809D01*
X790854Y55800D01*
X790891Y55790D01*
X790937Y55790D01*
X791067Y55800D01*
X791187Y55809D01*
X791409Y55873D01*
X791603Y55947D01*
X791760Y56049D01*
X791889Y56142D01*
X791982Y56216D01*
X792019Y56253D01*
X792047Y56280D01*
X792056Y56290D01*
X792065Y56299D01*
X792139Y56400D01*
X792204Y56521D01*
X792269Y56650D01*
X792315Y56789D01*
X792389Y57076D01*
X792444Y57362D01*
X792463Y57501D01*
X792472Y57621D01*
X792490Y57741D01*
X792490Y57843D01*
X792500Y57917D01*
X792500Y57982D01*
X792500Y58028D01*
X792500Y58037D01*
X792490Y58250D01*
X792481Y58444D01*
X792463Y58619D01*
X792435Y58786D01*
X792398Y58934D01*
X792361Y59072D01*
X792324Y59193D01*
X792278Y59304D01*
X792241Y59396D01*
X792204Y59479D01*
X792167Y59544D01*
X792130Y59599D01*
X792102Y59646D01*
X792084Y59674D01*
X792065Y59692D01*
X792065Y59701D01*
X791982Y59794D01*
X791889Y59877D01*
X791797Y59942D01*
X791695Y59997D01*
X791501Y60090D01*
X791316Y60154D01*
X791159Y60191D01*
X791085Y60201D01*
X791030Y60210D01*
X790974Y60219D01*
X790909Y60219D01*
X790724Y60210D01*
X790558Y60173D01*
X790410Y60127D01*
X790281Y60071D01*
X790179Y60016D01*
X790105Y59969D01*
X790059Y59932D01*
X790040Y59923D01*
X789920Y59812D01*
X789809Y59683D01*
X789726Y59553D01*
X789661Y59424D01*
X789615Y59313D01*
X789587Y59230D01*
X789569Y59193D01*
X789569Y59165D01*
X789560Y59156D01*
X789560Y59146D01*
X788284Y59452D01*
X788376Y59720D01*
X788478Y59951D01*
X788589Y60154D01*
X788690Y60321D01*
X788792Y60450D01*
X788829Y60506D01*
X788866Y60552D01*
X788894Y60580D01*
X788922Y60607D01*
X788931Y60626D01*
X788940Y60626D01*
X789079Y60746D01*
X789236Y60857D01*
X789384Y60949D01*
X789541Y61023D01*
X789707Y61097D01*
X789865Y61153D01*
X790022Y61199D01*
X790170Y61236D01*
X790309Y61264D01*
X790438Y61282D01*
X790549Y61301D01*
X790650Y61310D01*
X790734Y61319D01*
X790845Y61319D01*
X791085Y61310D01*
X791085Y61310D02*
G37*
G36*
X2593426Y-1601897D02*
X2594273Y-1602179D01*
X2595402Y-1602602D01*
X2596389Y-1603166D01*
X2597236Y-1604154D01*
X2597800Y-1605565D01*
X2598082Y-1607258D01*
X2598082Y-1607540D01*
X2597941Y-1608105D01*
X2597800Y-1609093D01*
X2597377Y-1610080D01*
X2596813Y-1611209D01*
X2595825Y-1612056D01*
X2594414Y-1612761D01*
X2592580Y-1613043D01*
X2592156Y-1613043D01*
X2591733Y-1612902D01*
X2591169Y-1612761D01*
X2589758Y-1612338D01*
X2589052Y-1611914D01*
X2588347Y-1611350D01*
X2588347Y-1611209D01*
X2588065Y-1611068D01*
X2587500Y-1610221D01*
X2586936Y-1608951D01*
X2586795Y-1608105D01*
X2586654Y-1607258D01*
X2586654Y-1607117D01*
X2586654Y-1606835D01*
X2586795Y-1606412D01*
X2586936Y-1605988D01*
X2587500Y-1604718D01*
X2587923Y-1604013D01*
X2588488Y-1603449D01*
X2588629Y-1603307D01*
X2588770Y-1603166D01*
X2589617Y-1602602D01*
X2590887Y-1602038D01*
X2591733Y-1601755D01*
X2592862Y-1601755D01*
X2593426Y-1601897D01*
X2593426Y-1601897D02*
G37*
G36*
X2557305Y-1596958D02*
X2558434Y-1597099D01*
X2559845Y-1597099D01*
X2561256Y-1597381D01*
X2564501Y-1597805D01*
X2568029Y-1598651D01*
X2571556Y-1599639D01*
X2575084Y-1601050D01*
X2606689Y-1651422D01*
X2606689Y-1651563D01*
X2606689Y-1651845D01*
X2606548Y-1652409D01*
X2606548Y-1652974D01*
X2606407Y-1653820D01*
X2606266Y-1654808D01*
X2605843Y-1656924D01*
X2605843Y-1657065D01*
X2605702Y-1657489D01*
X2605561Y-1658053D01*
X2605420Y-1658759D01*
X2605137Y-1659746D01*
X2604855Y-1660734D01*
X2604149Y-1663133D01*
X2576636Y-1620098D01*
X2576495Y-1619957D01*
X2576353Y-1619534D01*
X2575789Y-1618969D01*
X2575225Y-1618405D01*
X2574519Y-1617841D01*
X2573673Y-1617276D01*
X2572826Y-1616853D01*
X2571697Y-1616712D01*
X2571274Y-1616712D01*
X2570851Y-1616853D01*
X2570286Y-1617135D01*
X2569581Y-1617558D01*
X2568734Y-1618123D01*
X2568029Y-1618828D01*
X2567182Y-1619957D01*
X2558011Y-1632515D01*
X2590322Y-1683451D01*
X2590181Y-1683592D01*
X2589617Y-1684015D01*
X2588770Y-1684720D01*
X2587641Y-1685567D01*
X2586089Y-1686696D01*
X2584255Y-1687825D01*
X2582280Y-1689095D01*
X2579881Y-1690364D01*
X2577341Y-1691634D01*
X2574378Y-1692904D01*
X2571415Y-1694033D01*
X2568029Y-1695162D01*
X2564501Y-1696008D01*
X2560833Y-1696714D01*
X2557023Y-1697137D01*
X2552931Y-1697278D01*
X2551944Y-1697278D01*
X2550815Y-1697137D01*
X2549263Y-1696996D01*
X2547287Y-1696714D01*
X2545030Y-1696431D01*
X2542631Y-1695867D01*
X2539809Y-1695162D01*
X2536987Y-1694315D01*
X2533883Y-1693186D01*
X2530638Y-1691916D01*
X2527393Y-1690364D01*
X2524148Y-1688389D01*
X2520902Y-1686272D01*
X2517798Y-1683733D01*
X2514694Y-1680770D01*
X2528380Y-1661863D01*
X2528522Y-1661722D01*
X2528663Y-1661157D01*
X2528945Y-1660311D01*
X2529086Y-1659605D01*
X2529227Y-1658759D01*
X2529227Y-1658476D01*
X2529086Y-1657771D01*
X2528663Y-1656501D01*
X2527816Y-1654949D01*
X2517657Y-1639005D01*
X2502560Y-1660029D01*
X2502560Y-1659887D01*
X2502419Y-1659746D01*
X2502278Y-1658900D01*
X2501995Y-1657630D01*
X2501713Y-1655937D01*
X2501290Y-1653820D01*
X2501008Y-1651563D01*
X2500867Y-1648882D01*
X2500726Y-1646201D01*
X2500726Y-1645919D01*
X2500726Y-1645354D01*
X2500867Y-1644226D01*
X2501008Y-1642956D01*
X2501149Y-1641263D01*
X2501431Y-1639287D01*
X2501995Y-1637030D01*
X2502560Y-1634631D01*
X2503265Y-1632091D01*
X2504253Y-1629269D01*
X2505523Y-1626447D01*
X2506793Y-1623625D01*
X2508486Y-1620804D01*
X2510461Y-1617841D01*
X2512719Y-1615019D01*
X2515258Y-1612338D01*
X2515400Y-1612197D01*
X2515964Y-1611632D01*
X2516811Y-1610927D01*
X2518080Y-1609939D01*
X2519633Y-1608669D01*
X2521467Y-1607399D01*
X2523583Y-1605988D01*
X2525982Y-1604577D01*
X2528663Y-1603166D01*
X2531626Y-1601755D01*
X2534871Y-1600345D01*
X2538257Y-1599216D01*
X2541926Y-1598228D01*
X2545876Y-1597522D01*
X2549968Y-1596958D01*
X2554342Y-1596817D01*
X2556318Y-1596817D01*
X2557305Y-1596958D01*
X2557305Y-1596958D02*
G37*
G36*
X2609793Y-1711529D02*
X2610499Y-1711670D01*
X2611064Y-1711811D01*
X2611205Y-1711811D01*
X2611487Y-1711952D01*
X2612474Y-1712375D01*
X2613039Y-1712940D01*
X2613462Y-1713504D01*
X2613885Y-1714210D01*
X2614167Y-1715197D01*
X2614167Y-1715338D01*
X2614308Y-1715480D01*
X2614308Y-1715903D01*
X2614450Y-1716608D01*
X2614450Y-1717314D01*
X2614591Y-1718302D01*
X2614591Y-1719430D01*
X2614591Y-1720700D01*
X2595684Y-1720277D01*
X2595543Y-1720277D01*
X2594978Y-1720418D01*
X2594273Y-1720559D01*
X2593567Y-1721124D01*
X2592721Y-1721829D01*
X2592015Y-1723099D01*
X2591733Y-1723945D01*
X2591451Y-1724933D01*
X2591310Y-1725921D01*
X2591310Y-1727191D01*
X2591310Y-1731000D01*
X2591310Y-1731141D01*
X2591310Y-1731283D01*
X2591451Y-1732129D01*
X2591592Y-1733117D01*
X2591874Y-1734387D01*
X2592297Y-1735656D01*
X2593144Y-1736785D01*
X2594132Y-1737632D01*
X2594837Y-1737773D01*
X2595543Y-1737914D01*
X2614873Y-1737914D01*
X2614873Y-1738196D01*
X2614873Y-1738761D01*
X2614873Y-1739748D01*
X2614732Y-1740877D01*
X2614591Y-1742006D01*
X2614450Y-1743135D01*
X2614167Y-1744122D01*
X2613744Y-1744828D01*
X2613744Y-1744969D01*
X2613462Y-1745110D01*
X2613039Y-1745392D01*
X2612474Y-1745674D01*
X2611628Y-1746098D01*
X2610499Y-1746380D01*
X2609088Y-1746521D01*
X2607395Y-1746662D01*
X2593285Y-1746662D01*
X2592156Y-1746521D01*
X2590746Y-1746239D01*
X2589334Y-1745815D01*
X2587782Y-1745110D01*
X2586512Y-1744263D01*
X2585525Y-1742993D01*
X2585525Y-1742852D01*
X2585243Y-1742429D01*
X2584960Y-1741724D01*
X2584678Y-1740877D01*
X2584396Y-1739607D01*
X2584114Y-1738196D01*
X2583973Y-1736362D01*
X2583831Y-1734387D01*
X2583831Y-1723945D01*
X2583831Y-1723804D01*
X2583831Y-1723522D01*
X2583831Y-1723099D01*
X2583973Y-1722534D01*
X2584114Y-1721124D01*
X2584396Y-1719289D01*
X2584819Y-1717455D01*
X2585666Y-1715621D01*
X2586654Y-1714069D01*
X2587359Y-1713363D01*
X2588065Y-1712799D01*
X2588206Y-1712799D01*
X2588488Y-1712517D01*
X2588911Y-1712375D01*
X2589617Y-1712093D01*
X2590463Y-1711811D01*
X2591592Y-1711670D01*
X2592862Y-1711388D01*
X2608100Y-1711388D01*
X2609793Y-1711529D01*
X2609793Y-1711529D02*
G37*
G36*
X2649019Y-1746380D02*
X2641823Y-1746380D01*
X2641823Y-1733258D01*
X2626161Y-1733258D01*
X2626161Y-1746380D01*
X2619388Y-1746380D01*
X2619388Y-1711811D01*
X2626161Y-1711811D01*
X2626161Y-1723945D01*
X2641823Y-1723945D01*
X2641823Y-1711811D01*
X2649019Y-1711811D01*
X2649019Y-1746380D01*
X2649019Y-1746380D02*
G37*
G36*
X2452047Y-1700523D02*
X2452753Y-1700664D01*
X2453599Y-1701088D01*
X2454305Y-1701652D01*
X2455010Y-1702640D01*
X2455716Y-1703910D01*
X2455998Y-1705744D01*
X2460654Y-1746380D01*
X2451906Y-1746380D01*
X2449507Y-1717173D01*
X2449366Y-1717173D01*
X2440477Y-1740595D01*
X2440477Y-1740736D01*
X2440195Y-1741159D01*
X2439772Y-1741865D01*
X2439207Y-1742570D01*
X2438502Y-1743276D01*
X2437655Y-1743981D01*
X2436667Y-1744404D01*
X2435398Y-1744546D01*
X2434833Y-1744546D01*
X2434128Y-1744263D01*
X2433281Y-1743981D01*
X2432294Y-1743558D01*
X2431447Y-1742852D01*
X2430741Y-1741865D01*
X2430036Y-1740595D01*
X2421147Y-1717596D01*
X2421006Y-1717596D01*
X2418466Y-1746380D01*
X2410000Y-1746380D01*
X2414374Y-1705321D01*
X2414374Y-1705038D01*
X2414515Y-1704474D01*
X2414797Y-1703769D01*
X2415221Y-1702781D01*
X2415785Y-1701934D01*
X2416632Y-1701088D01*
X2417760Y-1700523D01*
X2419030Y-1700382D01*
X2419736Y-1700382D01*
X2420582Y-1700664D01*
X2421570Y-1700947D01*
X2422558Y-1701511D01*
X2423687Y-1702358D01*
X2424533Y-1703486D01*
X2425380Y-1705038D01*
X2435257Y-1730154D01*
X2435398Y-1730154D01*
X2445274Y-1705038D01*
X2445415Y-1704897D01*
X2445557Y-1704333D01*
X2446121Y-1703627D01*
X2446685Y-1702640D01*
X2447532Y-1701793D01*
X2448661Y-1701088D01*
X2449931Y-1700523D01*
X2451483Y-1700382D01*
X2451624Y-1700382D01*
X2452047Y-1700523D01*
X2452047Y-1700523D02*
G37*
G36*
X2690360Y-1711952D02*
X2691489Y-1712093D01*
X2692758Y-1712517D01*
X2694170Y-1713222D01*
X2695439Y-1714210D01*
X2696568Y-1715621D01*
X2697415Y-1717596D01*
X2697415Y-1717737D01*
X2697556Y-1718019D01*
X2697556Y-1718584D01*
X2697697Y-1719289D01*
X2697838Y-1720136D01*
X2697838Y-1721124D01*
X2697979Y-1722393D01*
X2697979Y-1723663D01*
X2697979Y-1726344D01*
X2697979Y-1726626D01*
X2697979Y-1727332D01*
X2697838Y-1728461D01*
X2697697Y-1729730D01*
X2697415Y-1731283D01*
X2697133Y-1732835D01*
X2696568Y-1734104D01*
X2695863Y-1735374D01*
X2695863Y-1735515D01*
X2695580Y-1735656D01*
X2695157Y-1736080D01*
X2694734Y-1736503D01*
X2694028Y-1736926D01*
X2693182Y-1737209D01*
X2692335Y-1737491D01*
X2691206Y-1737632D01*
X2673993Y-1737632D01*
X2673993Y-1746380D01*
X2666938Y-1746380D01*
X2666938Y-1711811D01*
X2689655Y-1711811D01*
X2690360Y-1711952D01*
X2690360Y-1711952D02*
G37*
G36*
X2662281Y-1746380D02*
X2654098Y-1746380D01*
X2654098Y-1711811D01*
X2662281Y-1711811D01*
X2662281Y-1746380D01*
X2662281Y-1746380D02*
G37*
G36*
X2537270Y-1711952D02*
X2538398Y-1712375D01*
X2539668Y-1713081D01*
X2540233Y-1713645D01*
X2540938Y-1714351D01*
X2541503Y-1715197D01*
X2541926Y-1716185D01*
X2542490Y-1717314D01*
X2542772Y-1718725D01*
X2542914Y-1720277D01*
X2543055Y-1722111D01*
X2543055Y-1724228D01*
X2543055Y-1724369D01*
X2543055Y-1724510D01*
X2543055Y-1725356D01*
X2542914Y-1726626D01*
X2542631Y-1728037D01*
X2542067Y-1729448D01*
X2541361Y-1730859D01*
X2540374Y-1731988D01*
X2539104Y-1732835D01*
X2539104Y-1732976D01*
X2539245Y-1732976D01*
X2539668Y-1733258D01*
X2540374Y-1733681D01*
X2541079Y-1734387D01*
X2541785Y-1735374D01*
X2542490Y-1736644D01*
X2542914Y-1738337D01*
X2543055Y-1740595D01*
X2543055Y-1746380D01*
X2535718Y-1746380D01*
X2535718Y-1742288D01*
X2535718Y-1742147D01*
X2535718Y-1741865D01*
X2535718Y-1741300D01*
X2535718Y-1740736D01*
X2535576Y-1739607D01*
X2535576Y-1739043D01*
X2535435Y-1738620D01*
X2535294Y-1738478D01*
X2534871Y-1737914D01*
X2534165Y-1737491D01*
X2532896Y-1737350D01*
X2520056Y-1737350D01*
X2520056Y-1746380D01*
X2512719Y-1746380D01*
X2512719Y-1711811D01*
X2536423Y-1711811D01*
X2537270Y-1711952D01*
X2537270Y-1711952D02*
G37*
G36*
X2473071Y-1746380D02*
X2465028Y-1746380D01*
X2465028Y-1711811D01*
X2473071Y-1711811D01*
X2473071Y-1746380D01*
X2473071Y-1746380D02*
G37*
G36*
X2571556Y-1711529D02*
X2572826Y-1711811D01*
X2574096Y-1712093D01*
X2575507Y-1712658D01*
X2576636Y-1713504D01*
X2577623Y-1714492D01*
X2577765Y-1714633D01*
X2578047Y-1715056D01*
X2578329Y-1715762D01*
X2578752Y-1716750D01*
X2579175Y-1718161D01*
X2579599Y-1719713D01*
X2579740Y-1721547D01*
X2579881Y-1723804D01*
X2579881Y-1734245D01*
X2579881Y-1734387D01*
X2579881Y-1734669D01*
X2579881Y-1735092D01*
X2579740Y-1735798D01*
X2579599Y-1737350D01*
X2579316Y-1739325D01*
X2578611Y-1741300D01*
X2577765Y-1743276D01*
X2576495Y-1744828D01*
X2575648Y-1745533D01*
X2574801Y-1745957D01*
X2574660Y-1745957D01*
X2574378Y-1746098D01*
X2573955Y-1746239D01*
X2573391Y-1746239D01*
X2572685Y-1746380D01*
X2571838Y-1746521D01*
X2569581Y-1746662D01*
X2556882Y-1746662D01*
X2555753Y-1746521D01*
X2554483Y-1746239D01*
X2553073Y-1745815D01*
X2551662Y-1745251D01*
X2550392Y-1744404D01*
X2549263Y-1743276D01*
X2549122Y-1743135D01*
X2548981Y-1742711D01*
X2548698Y-1742006D01*
X2548416Y-1741018D01*
X2547993Y-1739889D01*
X2547711Y-1738337D01*
X2547570Y-1736362D01*
X2547429Y-1734245D01*
X2547429Y-1723804D01*
X2547429Y-1723663D01*
X2547429Y-1723381D01*
X2547429Y-1722817D01*
X2547570Y-1722111D01*
X2547711Y-1720418D01*
X2548134Y-1718443D01*
X2548840Y-1716326D01*
X2549968Y-1714492D01*
X2550674Y-1713645D01*
X2551379Y-1712940D01*
X2552367Y-1712375D01*
X2553355Y-1711952D01*
X2553496Y-1711952D01*
X2553637Y-1711811D01*
X2554060Y-1711811D01*
X2554625Y-1711670D01*
X2556035Y-1711529D01*
X2557870Y-1711388D01*
X2570569Y-1711388D01*
X2571556Y-1711529D01*
X2571556Y-1711529D02*
G37*
G36*
X2500867Y-1711529D02*
X2502560Y-1711529D01*
X2504112Y-1711670D01*
X2505382Y-1711952D01*
X2505805Y-1712093D01*
X2506087Y-1712234D01*
X2506228Y-1712234D01*
X2506369Y-1712517D01*
X2506652Y-1712940D01*
X2507075Y-1713645D01*
X2507498Y-1714633D01*
X2507780Y-1716044D01*
X2507921Y-1717878D01*
X2508062Y-1720277D01*
X2489014Y-1720277D01*
X2488168Y-1720418D01*
X2487180Y-1720841D01*
X2486192Y-1721688D01*
X2486051Y-1721970D01*
X2485910Y-1722252D01*
X2485628Y-1722817D01*
X2485487Y-1723522D01*
X2485205Y-1724510D01*
X2485064Y-1725780D01*
X2485064Y-1727191D01*
X2485064Y-1731000D01*
X2485064Y-1731141D01*
X2485064Y-1731706D01*
X2485064Y-1732411D01*
X2485205Y-1733117D01*
X2485346Y-1734951D01*
X2485487Y-1735656D01*
X2485628Y-1736221D01*
X2485769Y-1736503D01*
X2486334Y-1737068D01*
X2486898Y-1737350D01*
X2487462Y-1737632D01*
X2488309Y-1737773D01*
X2489155Y-1737914D01*
X2508486Y-1737914D01*
X2508486Y-1738196D01*
X2508486Y-1738761D01*
X2508486Y-1739607D01*
X2508345Y-1740595D01*
X2508062Y-1742852D01*
X2507780Y-1743840D01*
X2507498Y-1744546D01*
X2507498Y-1744687D01*
X2507216Y-1744828D01*
X2506793Y-1745251D01*
X2506228Y-1745533D01*
X2505241Y-1745957D01*
X2504112Y-1746380D01*
X2502701Y-1746521D01*
X2501008Y-1746662D01*
X2487039Y-1746662D01*
X2486051Y-1746521D01*
X2484781Y-1746239D01*
X2483371Y-1745957D01*
X2481960Y-1745533D01*
X2480690Y-1744828D01*
X2479702Y-1743840D01*
X2479561Y-1743699D01*
X2479420Y-1743276D01*
X2478997Y-1742570D01*
X2478573Y-1741583D01*
X2478150Y-1740313D01*
X2477868Y-1738620D01*
X2477586Y-1736644D01*
X2477444Y-1734245D01*
X2477444Y-1723804D01*
X2477444Y-1723663D01*
X2477444Y-1723381D01*
X2477444Y-1722817D01*
X2477586Y-1722111D01*
X2477868Y-1720277D01*
X2478291Y-1718161D01*
X2479138Y-1716044D01*
X2480408Y-1714069D01*
X2481254Y-1713222D01*
X2482242Y-1712517D01*
X2483230Y-1711952D01*
X2484499Y-1711670D01*
X2484781Y-1711670D01*
X2485487Y-1711529D01*
X2486616Y-1711388D01*
X2499173Y-1711388D01*
X2500867Y-1711529D01*
X2500867Y-1711529D02*
G37*
%LPC*%
G36*
X765046Y293219D02*
X764990Y293219D01*
X764861Y293200D01*
X764741Y293164D01*
X764630Y293117D01*
X764538Y293053D01*
X764464Y292988D01*
X764408Y292942D01*
X764371Y292905D01*
X764362Y292886D01*
X764269Y292747D01*
X764205Y292600D01*
X764149Y292442D01*
X764121Y292294D01*
X764103Y292156D01*
X764084Y292054D01*
X764084Y292008D01*
X764084Y291980D01*
X764084Y291961D01*
X764084Y291952D01*
X764094Y291758D01*
X764121Y291592D01*
X764168Y291453D01*
X764205Y291333D01*
X764251Y291250D01*
X764297Y291185D01*
X764325Y291139D01*
X764334Y291129D01*
X764427Y291037D01*
X764528Y290972D01*
X764630Y290917D01*
X764722Y290889D01*
X764806Y290871D01*
X764870Y290861D01*
X764907Y290852D01*
X764926Y290852D01*
X765055Y290861D01*
X765175Y290898D01*
X765277Y290944D01*
X765370Y291000D01*
X765444Y291046D01*
X765490Y291092D01*
X765527Y291129D01*
X765536Y291139D01*
X765619Y291259D01*
X765675Y291407D01*
X765721Y291555D01*
X765749Y291712D01*
X765767Y291841D01*
X765776Y291952D01*
X765776Y291999D01*
X765776Y292026D01*
X765776Y292045D01*
X765776Y292054D01*
X765767Y292267D01*
X765739Y292452D01*
X765703Y292609D01*
X765666Y292729D01*
X765629Y292821D01*
X765592Y292886D01*
X765564Y292932D01*
X765555Y292942D01*
X765462Y293034D01*
X765370Y293099D01*
X765277Y293154D01*
X765185Y293182D01*
X765111Y293200D01*
X765046Y293219D01*
X765046Y293219D02*
G37*
G36*
X809351Y292219D02*
X809314Y292219D01*
X809231Y292210D01*
X809157Y292201D01*
X809092Y292173D01*
X809037Y292145D01*
X808990Y292117D01*
X808953Y292099D01*
X808935Y292080D01*
X808926Y292071D01*
X808870Y292006D01*
X808815Y291923D01*
X808768Y291831D01*
X808722Y291738D01*
X808695Y291646D01*
X808667Y291572D01*
X808658Y291525D01*
X808648Y291516D01*
X808648Y291507D01*
X808630Y291424D01*
X808611Y291322D01*
X808593Y291202D01*
X808574Y291082D01*
X808556Y290832D01*
X808547Y290573D01*
X808537Y290453D01*
X808537Y290333D01*
X808528Y290231D01*
X808528Y290139D01*
X808528Y290065D01*
X808528Y290000D01*
X808528Y289963D01*
X808528Y289954D01*
X808528Y289750D01*
X808537Y289556D01*
X808537Y289380D01*
X808547Y289223D01*
X808556Y289075D01*
X808565Y288946D01*
X808584Y288826D01*
X808593Y288724D01*
X808602Y288632D01*
X808621Y288558D01*
X808630Y288493D01*
X808639Y288438D01*
X808648Y288400D01*
X808648Y288363D01*
X808658Y288354D01*
X808658Y288345D01*
X808695Y288216D01*
X808741Y288114D01*
X808787Y288021D01*
X808824Y287957D01*
X808861Y287901D01*
X808898Y287864D01*
X808916Y287846D01*
X808926Y287836D01*
X808990Y287790D01*
X809055Y287753D01*
X809120Y287735D01*
X809184Y287716D01*
X809231Y287707D01*
X809277Y287698D01*
X809314Y287698D01*
X809397Y287707D01*
X809471Y287716D01*
X809536Y287744D01*
X809591Y287772D01*
X809638Y287790D01*
X809675Y287818D01*
X809693Y287827D01*
X809702Y287836D01*
X809758Y287901D01*
X809813Y287985D01*
X809859Y288077D01*
X809906Y288169D01*
X809933Y288253D01*
X809961Y288327D01*
X809970Y288373D01*
X809980Y288391D01*
X809998Y288484D01*
X810017Y288585D01*
X810035Y288696D01*
X810044Y288817D01*
X810063Y289075D01*
X810072Y289334D01*
X810081Y289454D01*
X810081Y289575D01*
X810091Y289676D01*
X810091Y289769D01*
X810091Y289843D01*
X810091Y289907D01*
X810091Y289944D01*
X810091Y289954D01*
X810091Y290157D01*
X810081Y290351D01*
X810081Y290518D01*
X810072Y290684D01*
X810063Y290823D01*
X810054Y290961D01*
X810044Y291073D01*
X810026Y291183D01*
X810017Y291276D01*
X810007Y291350D01*
X809998Y291415D01*
X809989Y291470D01*
X809980Y291507D01*
X809980Y291544D01*
X809970Y291553D01*
X809970Y291562D01*
X809933Y291692D01*
X809887Y291803D01*
X809850Y291886D01*
X809804Y291960D01*
X809767Y292006D01*
X809739Y292043D01*
X809721Y292062D01*
X809712Y292071D01*
X809647Y292117D01*
X809573Y292154D01*
X809508Y292182D01*
X809443Y292201D01*
X809397Y292210D01*
X809351Y292219D01*
X809351Y292219D02*
G37*
G36*
X779880Y75265D02*
X779824Y75265D01*
X779704Y75256D01*
X779593Y75228D01*
X779501Y75201D01*
X779417Y75163D01*
X779353Y75117D01*
X779306Y75090D01*
X779279Y75062D01*
X779269Y75052D01*
X779195Y74969D01*
X779149Y74877D01*
X779112Y74784D01*
X779084Y74692D01*
X779066Y74618D01*
X779057Y74553D01*
X779057Y74516D01*
X779057Y74498D01*
X779066Y74368D01*
X779094Y74248D01*
X779121Y74156D01*
X779158Y74072D01*
X779205Y73998D01*
X779232Y73952D01*
X779260Y73925D01*
X779269Y73915D01*
X779353Y73851D01*
X779445Y73795D01*
X779538Y73758D01*
X779630Y73740D01*
X779713Y73721D01*
X779778Y73712D01*
X779833Y73712D01*
X779954Y73721D01*
X780064Y73740D01*
X780157Y73777D01*
X780240Y73814D01*
X780305Y73851D01*
X780351Y73888D01*
X780379Y73906D01*
X780388Y73915D01*
X780453Y73998D01*
X780508Y74091D01*
X780545Y74183D01*
X780564Y74276D01*
X780582Y74359D01*
X780592Y74424D01*
X780592Y74470D01*
X780592Y74489D01*
X780582Y74618D01*
X780564Y74729D01*
X780527Y74821D01*
X780490Y74905D01*
X780453Y74969D01*
X780416Y75016D01*
X780397Y75043D01*
X780388Y75052D01*
X780305Y75127D01*
X780212Y75173D01*
X780120Y75210D01*
X780027Y75237D01*
X779944Y75256D01*
X779880Y75265D01*
X779880Y75265D02*
G37*
G36*
X779889Y72741D02*
X779815Y72741D01*
X779676Y72732D01*
X779547Y72695D01*
X779436Y72658D01*
X779343Y72602D01*
X779269Y72556D01*
X779214Y72510D01*
X779177Y72473D01*
X779168Y72464D01*
X779084Y72353D01*
X779020Y72233D01*
X778973Y72112D01*
X778937Y71992D01*
X778918Y71891D01*
X778909Y71807D01*
X778909Y71752D01*
X778909Y71743D01*
X778909Y71733D01*
X778918Y71548D01*
X778946Y71391D01*
X778992Y71253D01*
X779038Y71142D01*
X779084Y71049D01*
X779131Y70994D01*
X779158Y70947D01*
X779168Y70938D01*
X779269Y70846D01*
X779371Y70781D01*
X779473Y70735D01*
X779575Y70707D01*
X779667Y70689D01*
X779732Y70670D01*
X779796Y70670D01*
X779935Y70679D01*
X780064Y70716D01*
X780175Y70763D01*
X780268Y70809D01*
X780342Y70864D01*
X780397Y70901D01*
X780434Y70938D01*
X780444Y70947D01*
X780527Y71068D01*
X780592Y71197D01*
X780638Y71327D01*
X780666Y71456D01*
X780684Y71576D01*
X780703Y71669D01*
X780703Y71706D01*
X780703Y71733D01*
X780703Y71743D01*
X780703Y71752D01*
X780693Y71881D01*
X780666Y72011D01*
X780638Y72122D01*
X780592Y72223D01*
X780555Y72307D01*
X780527Y72371D01*
X780499Y72408D01*
X780490Y72427D01*
X780397Y72529D01*
X780286Y72612D01*
X780175Y72667D01*
X780064Y72704D01*
X779972Y72723D01*
X779889Y72741D01*
X779889Y72741D02*
G37*
G36*
X780286Y58056D02*
X780231Y58056D01*
X780101Y58046D01*
X779981Y58009D01*
X779879Y57963D01*
X779787Y57908D01*
X779713Y57852D01*
X779667Y57806D01*
X779630Y57769D01*
X779621Y57760D01*
X779537Y57639D01*
X779473Y57491D01*
X779436Y57334D01*
X779399Y57186D01*
X779380Y57048D01*
X779371Y56937D01*
X779371Y56900D01*
X779371Y56863D01*
X779371Y56844D01*
X779371Y56835D01*
X779380Y56622D01*
X779408Y56438D01*
X779445Y56290D01*
X779482Y56169D01*
X779528Y56077D01*
X779565Y56012D01*
X779593Y55966D01*
X779602Y55957D01*
X779695Y55873D01*
X779787Y55809D01*
X779889Y55763D01*
X779972Y55735D01*
X780055Y55716D01*
X780120Y55698D01*
X780175Y55698D01*
X780305Y55716D01*
X780425Y55753D01*
X780527Y55800D01*
X780619Y55864D01*
X780693Y55920D01*
X780758Y55975D01*
X780795Y56012D01*
X780804Y56021D01*
X780896Y56151D01*
X780961Y56299D01*
X781007Y56456D01*
X781035Y56604D01*
X781054Y56743D01*
X781072Y56844D01*
X781072Y56891D01*
X781072Y56918D01*
X781072Y56937D01*
X781072Y56946D01*
X781063Y57140D01*
X781035Y57307D01*
X780998Y57445D01*
X780952Y57565D01*
X780906Y57649D01*
X780869Y57713D01*
X780841Y57760D01*
X780832Y57769D01*
X780739Y57861D01*
X780638Y57935D01*
X780536Y57982D01*
X780443Y58018D01*
X780360Y58037D01*
X780286Y58056D01*
X780286Y58056D02*
G37*
G36*
X2592580Y-1602743D02*
X2591874Y-1602743D01*
X2591028Y-1603025D01*
X2590181Y-1603307D01*
X2589193Y-1603872D01*
X2588488Y-1604577D01*
X2587923Y-1605706D01*
X2587641Y-1607258D01*
X2587641Y-1607399D01*
X2587641Y-1607540D01*
X2587782Y-1608387D01*
X2588206Y-1609516D01*
X2589052Y-1610786D01*
X2589334Y-1611068D01*
X2590040Y-1611491D01*
X2591169Y-1611914D01*
X2592580Y-1612197D01*
X2592721Y-1612197D01*
X2593285Y-1612056D01*
X2593990Y-1611914D01*
X2594978Y-1611632D01*
X2595825Y-1610927D01*
X2596530Y-1610080D01*
X2597095Y-1608951D01*
X2597236Y-1607258D01*
X2597236Y-1607117D01*
X2597236Y-1606553D01*
X2596954Y-1605847D01*
X2596671Y-1605001D01*
X2596107Y-1604154D01*
X2595261Y-1603449D01*
X2594132Y-1602884D01*
X2592580Y-1602743D01*
X2592580Y-1602743D02*
G37*
%LPD*%
G36*
X2593849Y-1604295D02*
X2594555Y-1604860D01*
X2594837Y-1605283D01*
X2594978Y-1605988D01*
X2594978Y-1606129D01*
X2594978Y-1606270D01*
X2594837Y-1606976D01*
X2594273Y-1607540D01*
X2593849Y-1607823D01*
X2593285Y-1607964D01*
X2595119Y-1610786D01*
X2593990Y-1610786D01*
X2592297Y-1607964D01*
X2591169Y-1607964D01*
X2591169Y-1610786D01*
X2590181Y-1610786D01*
X2590181Y-1604013D01*
X2593003Y-1604013D01*
X2593849Y-1604295D01*
X2593849Y-1604295D02*
G37*
%LPC*%
G36*
X2592862Y-1605001D02*
X2591169Y-1605001D01*
X2591169Y-1607117D01*
X2593003Y-1607117D01*
X2593426Y-1606976D01*
X2593708Y-1606694D01*
X2593849Y-1605988D01*
X2593849Y-1605847D01*
X2593708Y-1605424D01*
X2593426Y-1605142D01*
X2592862Y-1605001D01*
X2592862Y-1605001D02*
G37*
G36*
X2536000Y-1616571D02*
X2535576Y-1616571D01*
X2535012Y-1616712D01*
X2534448Y-1616994D01*
X2533742Y-1617417D01*
X2532896Y-1617982D01*
X2532049Y-1618687D01*
X2531203Y-1619816D01*
X2522313Y-1632374D01*
X2549263Y-1675126D01*
X2549404Y-1675267D01*
X2549686Y-1675690D01*
X2550110Y-1676396D01*
X2550674Y-1676960D01*
X2551379Y-1677666D01*
X2552226Y-1678371D01*
X2552931Y-1678794D01*
X2553778Y-1678936D01*
X2554201Y-1678936D01*
X2554766Y-1678794D01*
X2555330Y-1678512D01*
X2556035Y-1678230D01*
X2556882Y-1677807D01*
X2557729Y-1677101D01*
X2558434Y-1676114D01*
X2567888Y-1662568D01*
X2540797Y-1619957D01*
X2540656Y-1619816D01*
X2540374Y-1619393D01*
X2539951Y-1618828D01*
X2539386Y-1618264D01*
X2538681Y-1617699D01*
X2537834Y-1617135D01*
X2536987Y-1616712D01*
X2536000Y-1616571D01*
X2536000Y-1616571D02*
G37*
G36*
X2687679Y-1720136D02*
X2673993Y-1720136D01*
X2673993Y-1728884D01*
X2688526Y-1728884D01*
X2688808Y-1728743D01*
X2689231Y-1728461D01*
X2689655Y-1728037D01*
X2690078Y-1727332D01*
X2690219Y-1726485D01*
X2690360Y-1725356D01*
X2690360Y-1723945D01*
X2690360Y-1723804D01*
X2690360Y-1723381D01*
X2690219Y-1722676D01*
X2690078Y-1721970D01*
X2689655Y-1721406D01*
X2689231Y-1720700D01*
X2688526Y-1720277D01*
X2687679Y-1720136D01*
X2687679Y-1720136D02*
G37*
G36*
X2532613Y-1720136D02*
X2520056Y-1720136D01*
X2520056Y-1728743D01*
X2533742Y-1728743D01*
X2534165Y-1728602D01*
X2534730Y-1728320D01*
X2535294Y-1727896D01*
X2535718Y-1727191D01*
X2536000Y-1726344D01*
X2536141Y-1725074D01*
X2536141Y-1723945D01*
X2536141Y-1723804D01*
X2536141Y-1723381D01*
X2536000Y-1722676D01*
X2535718Y-1721970D01*
X2535294Y-1721406D01*
X2534589Y-1720700D01*
X2533742Y-1720277D01*
X2532613Y-1720136D01*
X2532613Y-1720136D02*
G37*
G36*
X2568593Y-1720136D02*
X2558999Y-1720136D01*
X2558152Y-1720277D01*
X2557023Y-1720841D01*
X2556459Y-1721124D01*
X2556035Y-1721688D01*
X2555894Y-1721970D01*
X2555753Y-1722393D01*
X2555471Y-1722958D01*
X2555330Y-1723663D01*
X2555048Y-1724651D01*
X2554907Y-1725780D01*
X2554907Y-1727191D01*
X2554907Y-1731000D01*
X2554907Y-1731141D01*
X2554907Y-1731706D01*
X2554907Y-1732270D01*
X2555048Y-1733117D01*
X2555189Y-1734951D01*
X2555330Y-1735798D01*
X2555612Y-1736503D01*
X2555753Y-1736785D01*
X2556318Y-1737209D01*
X2557305Y-1737632D01*
X2558011Y-1737914D01*
X2568311Y-1737914D01*
X2568875Y-1737773D01*
X2569581Y-1737491D01*
X2570428Y-1737068D01*
X2571274Y-1736221D01*
X2571979Y-1734951D01*
X2572262Y-1734245D01*
X2572544Y-1733258D01*
X2572685Y-1732270D01*
X2572685Y-1731000D01*
X2572685Y-1727191D01*
X2572685Y-1727050D01*
X2572685Y-1726485D01*
X2572685Y-1725921D01*
X2572544Y-1725074D01*
X2572121Y-1723240D01*
X2571697Y-1722393D01*
X2571274Y-1721688D01*
X2571274Y-1721547D01*
X2570992Y-1721406D01*
X2570286Y-1720841D01*
X2569299Y-1720418D01*
X2568593Y-1720136D01*
X2568593Y-1720136D02*
G37*
%LPD*%
D10*
X759650Y47526D02*
X763650Y47526D01*
X759650Y61526D02*
X763650Y61526D01*
X761650Y69270D02*
X763650Y69270D01*
X761650Y76770D02*
X763650Y76770D01*
X752150Y286419D02*
X777150Y286419D01*
X778650Y255919D02*
X778650Y264419D01*
X750650Y255919D02*
X750650Y264419D01*
X817930Y257629D02*
X817930Y259629D01*
X810430Y257629D02*
X810430Y259629D01*
X788130Y255629D02*
X788130Y259629D01*
X802130Y255629D02*
X802130Y259629D01*
X241331Y128663D02*
X241331Y118666D01*
X234666Y118666D01*
X224669Y126996D02*
X226336Y128663D01*
X229668Y128663D01*
X231334Y126996D01*
X231334Y125330D01*
X229668Y123664D01*
X226336Y123664D01*
X224669Y121998D01*
X224669Y120332D01*
X226336Y118666D01*
X229668Y118666D01*
X231334Y120332D01*
X3373571Y-1593883D02*
X3373571Y-1602453D01*
X3370000Y-1596025D02*
X3377142Y-1600310D01*
X3377142Y-1596025D02*
X3370000Y-1600310D01*
X3383783Y-1593883D02*
X3383783Y-1602453D01*
X3380212Y-1596025D02*
X3387354Y-1600310D01*
X3387354Y-1596025D02*
X3380212Y-1600310D01*
D11*
X164681Y115682D02*
G03*
X150891Y95617I29282J-34897D01*
G01*
X236120Y95687D02*
G03*
X178758Y123664I-42670J-14692D01*
G01*
X150973Y66408D02*
G03*
X227904Y52150I42499J14634D01*
G01*
X219500Y21144D02*
X219500Y44144D01*
X167500Y21144D02*
X219500Y21144D01*
X167500Y21144D02*
X167500Y44144D01*
X3310000Y-1840580D02*
X3310000Y-1796380D01*
X3000000Y-1840580D02*
X3000000Y-1676380D01*
X3180000Y-1796380D02*
X3180000Y-1736380D01*
X3385000Y-1840580D02*
X3385000Y-1736380D01*
X2380000Y-1840580D02*
X2380000Y-1586380D01*
X2720000Y-1840580D02*
X2720000Y-1586380D01*
X3538200Y-1840580D02*
X3538200Y-1586380D01*
X2380000Y-1840580D02*
X3538200Y-1840580D01*
X2720000Y-1796380D02*
X3538200Y-1796380D01*
X2720000Y-1736380D02*
X3538200Y-1736380D01*
X2720000Y-1676380D02*
X3538200Y-1676380D01*
X2380000Y-1586380D02*
X3538200Y-1586380D01*
X2039600Y-1840580D02*
X2395200Y-1840580D01*
X414000Y-1891380D02*
X414000Y-1840580D01*
X-221000Y-1288130D02*
X-170200Y-1288130D01*
X-221000Y-684880D02*
X-170200Y-684880D01*
X-221000Y-81630D02*
X-170200Y-81630D01*
X-170200Y-1840580D02*
X3538200Y-1840580D01*
X-170200Y-1840580D02*
X-170200Y470820D01*
X-221000Y-1891380D02*
X3589000Y-1891380D01*
X-221000Y-1891380D02*
X-221000Y521620D01*
X3538200Y-1840580D02*
X3538200Y-1535780D01*
X1049000Y-1891380D02*
X1049000Y-1840580D01*
X1684000Y-1891380D02*
X1684000Y-1840580D01*
X2319000Y-1891380D02*
X2319000Y-1840580D01*
X2954000Y-1891380D02*
X2954000Y-1840580D01*
X3538200Y-1288130D02*
X3589000Y-1288130D01*
X3538200Y-684880D02*
X3589000Y-684880D01*
X3538200Y-81630D02*
X3589000Y-81630D01*
X3589000Y-1891380D02*
X3589000Y521620D01*
X3538200Y-1840580D02*
X3538200Y470820D01*
X414000Y470820D02*
X414000Y521620D01*
X-221000Y521620D02*
X3589000Y521620D01*
X-170200Y470820D02*
X3538200Y470820D01*
X1049000Y470820D02*
X1049000Y521620D01*
X1684000Y470820D02*
X1684000Y521620D01*
X2319000Y470820D02*
X2319000Y521620D01*
X2954000Y470820D02*
X2954000Y521620D01*
X3010000Y-1799952D02*
X3010000Y-1811380D01*
X3016530Y-1811380D01*
X3026489Y-1811380D02*
X3022135Y-1799952D01*
X3017782Y-1811380D01*
X3019414Y-1807571D02*
X3024856Y-1807571D01*
X3029155Y-1799952D02*
X3033508Y-1805394D01*
X3033508Y-1811380D01*
X3037862Y-1799952D02*
X3033508Y-1805394D01*
X3046405Y-1799952D02*
X3039331Y-1799952D01*
X3039331Y-1811380D01*
X3046405Y-1811380D01*
X3039331Y-1805394D02*
X3043684Y-1805394D01*
X3048310Y-1799952D02*
X3048310Y-1811380D01*
X3048310Y-1799952D02*
X3053207Y-1799952D01*
X3054840Y-1800497D01*
X3055384Y-1801041D01*
X3055928Y-1802129D01*
X3055928Y-1803217D01*
X3055384Y-1804306D01*
X3054840Y-1804850D01*
X3053207Y-1805394D01*
X3048310Y-1805394D01*
X3052119Y-1805394D02*
X3055928Y-1811380D01*
X3067464Y-1799952D02*
X3067464Y-1811380D01*
X3067464Y-1799952D02*
X3075083Y-1811380D01*
X3075083Y-1799952D02*
X3075083Y-1811380D01*
X3086945Y-1811380D02*
X3082592Y-1799952D01*
X3078239Y-1811380D01*
X3079872Y-1807571D02*
X3085313Y-1807571D01*
X3089612Y-1799952D02*
X3089612Y-1811380D01*
X3089612Y-1799952D02*
X3093965Y-1811380D01*
X3098319Y-1799952D02*
X3093965Y-1811380D01*
X3098319Y-1799952D02*
X3098319Y-1811380D01*
X3108658Y-1799952D02*
X3101584Y-1799952D01*
X3101584Y-1811380D01*
X3108658Y-1811380D01*
X3101584Y-1805394D02*
X3105937Y-1805394D01*
X3111107Y-1803761D02*
X3110563Y-1804306D01*
X3111107Y-1804850D01*
X3111651Y-1804306D01*
X3111107Y-1803761D01*
X3111107Y-1810291D02*
X3110563Y-1810836D01*
X3111107Y-1811380D01*
X3111651Y-1810836D01*
X3111107Y-1810291D01*
X3317500Y-1802452D02*
X3317500Y-1813880D01*
X3317500Y-1802452D02*
X3322397Y-1802452D01*
X3324030Y-1802997D01*
X3324574Y-1803541D01*
X3325118Y-1804629D01*
X3325118Y-1805717D01*
X3324574Y-1806806D01*
X3324030Y-1807350D01*
X3322397Y-1807894D01*
X3317500Y-1807894D01*
X3321309Y-1807894D02*
X3325118Y-1813880D01*
X3334750Y-1802452D02*
X3327676Y-1802452D01*
X3327676Y-1813880D01*
X3334750Y-1813880D01*
X3327676Y-1807894D02*
X3332029Y-1807894D01*
X3336655Y-1802452D02*
X3341008Y-1813880D01*
X3345362Y-1802452D02*
X3341008Y-1813880D01*
X3347375Y-1806261D02*
X3346831Y-1806806D01*
X3347375Y-1807350D01*
X3347919Y-1806806D01*
X3347375Y-1806261D01*
X3347375Y-1812791D02*
X3346831Y-1813336D01*
X3347375Y-1813880D01*
X3347919Y-1813336D01*
X3347375Y-1812791D01*
X3397000Y-1744952D02*
X3397000Y-1756380D01*
X3397000Y-1744952D02*
X3400809Y-1744952D01*
X3402442Y-1745497D01*
X3403530Y-1746585D01*
X3404074Y-1747673D01*
X3404619Y-1749306D01*
X3404619Y-1752027D01*
X3404074Y-1753659D01*
X3403530Y-1754747D01*
X3402442Y-1755836D01*
X3400809Y-1756380D01*
X3397000Y-1756380D01*
X3415883Y-1756380D02*
X3411530Y-1744952D01*
X3407176Y-1756380D01*
X3408809Y-1752571D02*
X3414250Y-1752571D01*
X3422358Y-1744952D02*
X3422358Y-1756380D01*
X3418549Y-1744952D02*
X3426168Y-1744952D01*
X3434602Y-1744952D02*
X3427528Y-1744952D01*
X3427528Y-1756380D01*
X3434602Y-1756380D01*
X3427528Y-1750394D02*
X3431881Y-1750394D01*
X3437051Y-1748761D02*
X3436507Y-1749306D01*
X3437051Y-1749850D01*
X3437595Y-1749306D01*
X3437051Y-1748761D01*
X3437051Y-1755291D02*
X3436507Y-1755836D01*
X3437051Y-1756380D01*
X3437595Y-1755836D01*
X3437051Y-1755291D01*
X2733809Y-1599952D02*
X2733809Y-1611380D01*
X2730000Y-1599952D02*
X2737618Y-1599952D01*
X2738979Y-1599952D02*
X2738979Y-1611380D01*
X2745182Y-1599952D02*
X2745182Y-1611380D01*
X2741373Y-1599952D02*
X2748992Y-1599952D01*
X2750352Y-1599952D02*
X2750352Y-1611380D01*
X2756882Y-1611380D01*
X2765208Y-1599952D02*
X2758134Y-1599952D01*
X2758134Y-1611380D01*
X2765208Y-1611380D01*
X2758134Y-1605394D02*
X2762487Y-1605394D01*
X2767657Y-1603761D02*
X2767112Y-1604306D01*
X2767657Y-1604850D01*
X2768201Y-1604306D01*
X2767657Y-1603761D01*
X2767657Y-1610291D02*
X2767112Y-1610836D01*
X2767657Y-1611380D01*
X2768201Y-1610836D01*
X2767657Y-1610291D01*
D12*
X240538Y59567D02*
X249013Y59567D01*
X140460Y59580D02*
X148930Y59580D01*
X144695Y55345D02*
X144695Y63815D01*
X3538200Y380820D02*
X3538200Y470820D01*
X2323200Y470820D02*
X3538200Y470820D01*
X2558200Y380820D02*
X2558200Y425820D01*
X2323200Y425820D02*
X2323200Y470820D01*
X2323200Y425820D02*
X3538200Y425820D01*
X2433200Y425820D02*
X2433200Y470820D01*
X2558200Y425820D02*
X2558200Y470820D01*
X3343200Y425820D02*
X3343200Y470820D01*
X2323200Y380820D02*
X2323200Y425820D01*
X2323200Y380820D02*
X3538200Y380820D01*
X3343200Y380820D02*
X3343200Y425820D01*
X2433200Y380820D02*
X2433200Y425820D01*
X2348200Y440820D02*
X2348200Y456055D01*
X2355818Y456055D01*
X2358357Y453516D01*
X2358357Y448438D01*
X2355818Y445899D01*
X2348200Y445899D01*
X2353279Y445899D02*
X2358357Y440820D01*
X2373592Y456055D02*
X2363435Y456055D01*
X2363435Y440820D01*
X2373592Y440820D01*
X2363435Y448438D02*
X2368514Y448438D01*
X2378670Y456055D02*
X2378670Y445899D01*
X2383749Y440820D01*
X2388827Y445899D01*
X2388827Y456055D01*
X2458357Y456055D02*
X2448200Y456055D01*
X2448200Y440820D01*
X2458357Y440820D01*
X2448200Y448438D02*
X2453279Y448438D01*
X2473592Y453516D02*
X2471053Y456055D01*
X2465974Y456055D01*
X2463435Y453516D01*
X2463435Y443359D01*
X2465974Y440820D01*
X2471053Y440820D01*
X2473592Y443359D01*
X2486288Y456055D02*
X2481210Y456055D01*
X2478670Y453516D01*
X2478670Y443359D01*
X2481210Y440820D01*
X2486288Y440820D01*
X2488827Y443359D01*
X2488827Y453516D01*
X2486288Y456055D01*
X2923357Y448516D02*
X2920818Y451055D01*
X2915739Y451055D01*
X2913200Y448516D01*
X2913200Y438359D01*
X2915739Y435820D01*
X2920818Y435820D01*
X2923357Y438359D01*
X2930974Y435820D02*
X2936053Y435820D01*
X2938592Y438359D01*
X2938592Y443438D01*
X2936053Y445977D01*
X2930974Y445977D01*
X2928435Y443438D01*
X2928435Y438359D01*
X2930974Y435820D01*
X2943670Y435820D02*
X2943670Y445977D01*
X2946209Y445977D01*
X2948748Y443438D01*
X2948748Y435820D01*
X2948748Y443438D01*
X2951288Y445977D01*
X2953827Y443438D01*
X2953827Y435820D01*
X2958905Y435820D02*
X2958905Y445977D01*
X2961444Y445977D01*
X2963984Y443438D01*
X2963984Y435820D01*
X2963984Y443438D01*
X2966523Y445977D01*
X2969062Y443438D01*
X2969062Y435820D01*
X2981758Y435820D02*
X2976680Y435820D01*
X2974140Y438359D01*
X2974140Y443438D01*
X2976680Y445977D01*
X2981758Y445977D01*
X2984297Y443438D01*
X2984297Y440899D01*
X2974140Y440899D01*
X2989376Y435820D02*
X2989376Y445977D01*
X2996993Y445977D01*
X2999532Y443438D01*
X2999532Y435820D01*
X3007150Y448516D02*
X3007150Y445977D01*
X3004611Y445977D01*
X3009689Y445977D01*
X3007150Y445977D01*
X3007150Y438359D01*
X3009689Y435820D01*
X3017307Y435820D02*
X3024924Y435820D01*
X3027463Y438359D01*
X3024924Y440899D01*
X3019846Y440899D01*
X3017307Y443438D01*
X3019846Y445977D01*
X3027463Y445977D01*
X3393200Y451055D02*
X3393200Y435820D01*
X3400818Y435820D01*
X3403357Y438359D01*
X3403357Y448516D01*
X3400818Y451055D01*
X3393200Y451055D01*
X3410974Y445977D02*
X3416053Y445977D01*
X3418592Y443438D01*
X3418592Y435820D01*
X3410974Y435820D01*
X3408435Y438359D01*
X3410974Y440899D01*
X3418592Y440899D01*
X3426209Y448516D02*
X3426209Y445977D01*
X3423670Y445977D01*
X3428748Y445977D01*
X3426209Y445977D01*
X3426209Y438359D01*
X3428748Y435820D01*
X3443984Y435820D02*
X3438905Y435820D01*
X3436366Y438359D01*
X3436366Y443438D01*
X3438905Y445977D01*
X3443984Y445977D01*
X3446523Y443438D01*
X3446523Y440899D01*
X3436366Y440899D01*
D14*
X3360349Y-1817106D02*
X3360349Y-1825676D01*
X3356778Y-1819249D02*
X3363919Y-1823533D01*
X3363919Y-1819249D02*
X3356778Y-1823533D01*
X3370561Y-1817106D02*
X3370561Y-1825676D01*
X3366990Y-1819249D02*
X3374131Y-1823533D01*
X3374131Y-1819249D02*
X3366990Y-1823533D01*
X2733809Y-1710383D02*
X2733809Y-1719524D01*
X2730000Y-1712668D02*
X2737617Y-1717239D01*
X2737617Y-1712668D02*
X2730000Y-1717239D01*
X2744702Y-1710383D02*
X2744702Y-1719524D01*
X2740893Y-1712668D02*
X2748510Y-1717239D01*
X2748510Y-1712668D02*
X2740893Y-1717239D01*
X2432697Y-1817836D02*
X2431851Y-1816143D01*
X2430158Y-1814450D01*
X2428465Y-1813604D01*
X2425079Y-1813604D01*
X2423386Y-1814450D01*
X2421693Y-1816143D01*
X2420847Y-1817836D01*
X2420000Y-1820376D01*
X2420000Y-1824608D01*
X2420847Y-1827148D01*
X2421693Y-1828840D01*
X2423386Y-1830533D01*
X2425079Y-1831380D01*
X2428465Y-1831380D01*
X2430158Y-1830533D01*
X2431851Y-1828840D01*
X2432697Y-1827148D01*
X2437692Y-1813604D02*
X2437692Y-1831380D01*
X2437692Y-1822915D02*
X2440231Y-1820376D01*
X2441924Y-1819529D01*
X2444464Y-1819529D01*
X2446156Y-1820376D01*
X2447003Y-1822915D01*
X2447003Y-1831380D01*
X2461817Y-1819529D02*
X2461817Y-1831380D01*
X2461817Y-1822068D02*
X2460123Y-1820376D01*
X2458431Y-1819529D01*
X2455891Y-1819529D01*
X2454198Y-1820376D01*
X2452505Y-1822068D01*
X2451659Y-1824608D01*
X2451659Y-1826301D01*
X2452505Y-1828840D01*
X2454198Y-1830533D01*
X2455891Y-1831380D01*
X2458431Y-1831380D01*
X2460123Y-1830533D01*
X2461817Y-1828840D01*
X2466557Y-1819529D02*
X2466557Y-1831380D01*
X2466557Y-1822915D02*
X2469096Y-1820376D01*
X2470789Y-1819529D01*
X2473329Y-1819529D01*
X2475022Y-1820376D01*
X2475868Y-1822915D01*
X2475868Y-1831380D01*
X2490682Y-1813604D02*
X2490682Y-1831380D01*
X2490682Y-1822068D02*
X2488989Y-1820376D01*
X2487296Y-1819529D01*
X2484756Y-1819529D01*
X2483063Y-1820376D01*
X2481370Y-1822068D01*
X2480524Y-1824608D01*
X2480524Y-1826301D01*
X2481370Y-1828840D01*
X2483063Y-1830533D01*
X2484756Y-1831380D01*
X2487296Y-1831380D01*
X2488989Y-1830533D01*
X2490682Y-1828840D01*
X2495422Y-1813604D02*
X2495422Y-1831380D01*
X2499147Y-1824608D02*
X2509304Y-1824608D01*
X2509304Y-1822915D01*
X2508458Y-1821222D01*
X2507611Y-1820376D01*
X2505918Y-1819529D01*
X2503379Y-1819529D01*
X2501686Y-1820376D01*
X2499993Y-1822068D01*
X2499147Y-1824608D01*
X2499147Y-1826301D01*
X2499993Y-1828840D01*
X2501686Y-1830533D01*
X2503379Y-1831380D01*
X2505918Y-1831380D01*
X2507611Y-1830533D01*
X2509304Y-1828840D01*
X2513114Y-1819529D02*
X2513114Y-1831380D01*
X2513114Y-1824608D02*
X2513960Y-1822068D01*
X2515653Y-1820376D01*
X2517346Y-1819529D01*
X2519885Y-1819529D01*
X2523187Y-1830533D02*
X2522340Y-1831380D01*
X2521494Y-1830533D01*
X2522340Y-1829687D01*
X2523187Y-1830533D01*
X2523187Y-1832226D01*
X2522340Y-1833919D01*
X2521494Y-1834766D01*
X2554591Y-1831380D02*
X2547819Y-1813604D01*
X2541048Y-1831380D01*
X2543587Y-1825455D02*
X2552052Y-1825455D01*
X2570590Y-1813604D02*
X2558739Y-1831380D01*
X2558739Y-1813604D02*
X2570590Y-1813604D01*
X2558739Y-1831380D02*
X2570590Y-1831380D01*
X2606735Y-1813604D02*
X2604195Y-1814450D01*
X2603349Y-1816143D01*
X2603349Y-1817836D01*
X2604195Y-1819529D01*
X2605888Y-1820376D01*
X2609274Y-1821222D01*
X2611814Y-1822068D01*
X2613506Y-1823761D01*
X2614353Y-1825455D01*
X2614353Y-1827994D01*
X2613506Y-1829687D01*
X2612660Y-1830533D01*
X2610121Y-1831380D01*
X2606735Y-1831380D01*
X2604195Y-1830533D01*
X2603349Y-1829687D01*
X2602502Y-1827994D01*
X2602502Y-1825455D01*
X2603349Y-1823761D01*
X2605042Y-1822068D01*
X2607581Y-1821222D01*
X2610967Y-1820376D01*
X2612660Y-1819529D01*
X2613506Y-1817836D01*
X2613506Y-1816143D01*
X2612660Y-1814450D01*
X2610121Y-1813604D01*
X2606735Y-1813604D01*
X2628489Y-1813604D02*
X2620025Y-1813604D01*
X2619178Y-1821222D01*
X2620025Y-1820376D01*
X2622564Y-1819529D01*
X2625103Y-1819529D01*
X2627643Y-1820376D01*
X2629336Y-1822068D01*
X2630182Y-1824608D01*
X2630182Y-1826301D01*
X2629336Y-1828840D01*
X2627643Y-1830533D01*
X2625103Y-1831380D01*
X2622564Y-1831380D01*
X2620025Y-1830533D01*
X2619178Y-1829687D01*
X2618332Y-1827994D01*
X2635007Y-1817836D02*
X2635007Y-1816990D01*
X2635854Y-1815297D01*
X2636700Y-1814450D01*
X2638393Y-1813604D01*
X2641779Y-1813604D01*
X2643472Y-1814450D01*
X2644319Y-1815297D01*
X2645165Y-1816990D01*
X2645165Y-1818683D01*
X2644319Y-1820376D01*
X2642626Y-1822915D01*
X2634161Y-1831380D01*
X2646012Y-1831380D01*
X2650836Y-1817836D02*
X2650836Y-1816990D01*
X2651683Y-1815297D01*
X2652530Y-1814450D01*
X2654223Y-1813604D01*
X2657609Y-1813604D01*
X2659301Y-1814450D01*
X2660148Y-1815297D01*
X2660994Y-1816990D01*
X2660994Y-1818683D01*
X2660148Y-1820376D01*
X2658455Y-1822915D01*
X2649990Y-1831380D01*
X2661841Y-1831380D01*
X2674284Y-1813604D02*
X2665819Y-1825455D01*
X2678517Y-1825455D01*
X2674284Y-1813604D02*
X2674284Y-1831380D01*
X2410847Y-1792836D02*
X2410847Y-1791990D01*
X2411693Y-1790297D01*
X2412540Y-1789450D01*
X2414233Y-1788604D01*
X2417619Y-1788604D01*
X2419312Y-1789450D01*
X2420158Y-1790297D01*
X2421004Y-1791990D01*
X2421004Y-1793683D01*
X2420158Y-1795376D01*
X2418465Y-1797915D01*
X2410000Y-1806380D01*
X2421851Y-1806380D01*
X2427522Y-1788604D02*
X2436834Y-1788604D01*
X2431755Y-1795376D01*
X2434294Y-1795376D01*
X2435987Y-1796222D01*
X2436834Y-1797068D01*
X2437680Y-1799608D01*
X2437680Y-1801301D01*
X2436834Y-1803840D01*
X2435141Y-1805533D01*
X2432601Y-1806380D01*
X2430062Y-1806380D01*
X2427522Y-1805533D01*
X2426676Y-1804687D01*
X2425829Y-1802994D01*
X2451817Y-1788604D02*
X2443352Y-1788604D01*
X2442505Y-1796222D01*
X2443352Y-1795376D01*
X2445891Y-1794529D01*
X2448431Y-1794529D01*
X2450970Y-1795376D01*
X2452663Y-1797068D01*
X2453510Y-1799608D01*
X2453510Y-1801301D01*
X2452663Y-1803840D01*
X2450970Y-1805533D01*
X2448431Y-1806380D01*
X2445891Y-1806380D01*
X2443352Y-1805533D01*
X2442505Y-1804687D01*
X2441659Y-1802994D01*
X2467646Y-1788604D02*
X2459181Y-1788604D01*
X2458335Y-1796222D01*
X2459181Y-1795376D01*
X2461720Y-1794529D01*
X2464260Y-1794529D01*
X2466799Y-1795376D01*
X2468492Y-1797068D01*
X2469339Y-1799608D01*
X2469339Y-1801301D01*
X2468492Y-1803840D01*
X2466799Y-1805533D01*
X2464260Y-1806380D01*
X2461720Y-1806380D01*
X2459181Y-1805533D01*
X2458335Y-1804687D01*
X2457488Y-1802994D01*
X2487284Y-1788604D02*
X2491517Y-1806380D01*
X2495749Y-1788604D02*
X2491517Y-1806380D01*
X2495749Y-1788604D02*
X2499982Y-1806380D01*
X2504214Y-1788604D02*
X2499982Y-1806380D01*
X2508616Y-1804687D02*
X2507769Y-1805533D01*
X2508616Y-1806380D01*
X2509462Y-1805533D01*
X2508616Y-1804687D01*
X2540020Y-1792836D02*
X2539174Y-1791143D01*
X2537481Y-1789450D01*
X2535788Y-1788604D01*
X2532402Y-1788604D01*
X2530709Y-1789450D01*
X2529016Y-1791143D01*
X2528170Y-1792836D01*
X2527323Y-1795376D01*
X2527323Y-1799608D01*
X2528170Y-1802147D01*
X2529016Y-1803840D01*
X2530709Y-1805533D01*
X2532402Y-1806380D01*
X2535788Y-1806380D01*
X2537481Y-1805533D01*
X2539174Y-1803840D01*
X2540020Y-1802147D01*
X2545014Y-1788604D02*
X2545014Y-1806380D01*
X2545014Y-1797915D02*
X2547554Y-1795376D01*
X2549247Y-1794529D01*
X2551786Y-1794529D01*
X2553479Y-1795376D01*
X2554326Y-1797915D01*
X2554326Y-1806380D01*
X2569139Y-1794529D02*
X2569139Y-1806380D01*
X2569139Y-1797068D02*
X2567446Y-1795376D01*
X2565753Y-1794529D01*
X2563214Y-1794529D01*
X2561521Y-1795376D01*
X2559828Y-1797068D01*
X2558981Y-1799608D01*
X2558981Y-1801301D01*
X2559828Y-1803840D01*
X2561521Y-1805533D01*
X2563214Y-1806380D01*
X2565753Y-1806380D01*
X2567446Y-1805533D01*
X2569139Y-1803840D01*
X2573880Y-1794529D02*
X2573880Y-1806380D01*
X2573880Y-1797915D02*
X2576419Y-1795376D01*
X2578112Y-1794529D01*
X2580652Y-1794529D01*
X2582344Y-1795376D01*
X2583191Y-1797915D01*
X2583191Y-1806380D01*
X2598004Y-1788604D02*
X2598004Y-1806380D01*
X2598004Y-1797068D02*
X2596312Y-1795376D01*
X2594619Y-1794529D01*
X2592079Y-1794529D01*
X2590386Y-1795376D01*
X2588693Y-1797068D01*
X2587847Y-1799608D01*
X2587847Y-1801301D01*
X2588693Y-1803840D01*
X2590386Y-1805533D01*
X2592079Y-1806380D01*
X2594619Y-1806380D01*
X2596312Y-1805533D01*
X2598004Y-1803840D01*
X2602745Y-1788604D02*
X2602745Y-1806380D01*
X2606469Y-1799608D02*
X2616627Y-1799608D01*
X2616627Y-1797915D01*
X2615781Y-1796222D01*
X2614934Y-1795376D01*
X2613241Y-1794529D01*
X2610702Y-1794529D01*
X2609009Y-1795376D01*
X2607316Y-1797068D01*
X2606469Y-1799608D01*
X2606469Y-1801301D01*
X2607316Y-1803840D01*
X2609009Y-1805533D01*
X2610702Y-1806380D01*
X2613241Y-1806380D01*
X2614934Y-1805533D01*
X2616627Y-1803840D01*
X2620436Y-1794529D02*
X2620436Y-1806380D01*
X2620436Y-1799608D02*
X2621283Y-1797068D01*
X2622976Y-1795376D01*
X2624669Y-1794529D01*
X2627208Y-1794529D01*
X2642784Y-1788604D02*
X2642784Y-1806380D01*
X2642784Y-1788604D02*
X2650402Y-1788604D01*
X2652941Y-1789450D01*
X2653788Y-1790297D01*
X2654634Y-1791990D01*
X2654634Y-1793683D01*
X2653788Y-1795376D01*
X2652941Y-1796222D01*
X2650402Y-1797068D01*
X2642784Y-1797068D02*
X2650402Y-1797068D01*
X2652941Y-1797915D01*
X2653788Y-1798761D01*
X2654634Y-1800455D01*
X2654634Y-1802994D01*
X2653788Y-1804687D01*
X2652941Y-1805533D01*
X2650402Y-1806380D01*
X2642784Y-1806380D01*
X2658613Y-1788604D02*
X2658613Y-1806380D01*
X2662337Y-1794529D02*
X2667416Y-1806380D01*
X2672495Y-1794529D02*
X2667416Y-1806380D01*
X2685531Y-1788604D02*
X2685531Y-1806380D01*
X2685531Y-1797068D02*
X2683838Y-1795376D01*
X2682145Y-1794529D01*
X2679606Y-1794529D01*
X2677913Y-1795376D01*
X2676220Y-1797068D01*
X2675373Y-1799608D01*
X2675373Y-1801301D01*
X2676220Y-1803840D01*
X2677913Y-1805533D01*
X2679606Y-1806380D01*
X2682145Y-1806380D01*
X2683838Y-1805533D01*
X2685531Y-1803840D01*
X2691118Y-1804687D02*
X2690271Y-1805533D01*
X2691118Y-1806380D01*
X2691964Y-1805533D01*
X2691118Y-1804687D01*
X2397700Y-1761204D02*
X2397700Y-1778980D01*
X2397700Y-1761204D02*
X2404472Y-1778980D01*
X2411244Y-1761204D02*
X2404472Y-1778980D01*
X2411244Y-1761204D02*
X2411244Y-1778980D01*
X2418016Y-1761204D02*
X2418862Y-1762050D01*
X2419709Y-1761204D01*
X2418862Y-1760357D01*
X2418016Y-1761204D01*
X2418862Y-1767129D02*
X2418862Y-1778980D01*
X2432999Y-1769668D02*
X2431306Y-1767976D01*
X2429613Y-1767129D01*
X2427073Y-1767129D01*
X2425380Y-1767976D01*
X2423687Y-1769668D01*
X2422841Y-1772208D01*
X2422841Y-1773901D01*
X2423687Y-1776440D01*
X2425380Y-1778133D01*
X2427073Y-1778980D01*
X2429613Y-1778980D01*
X2431306Y-1778133D01*
X2432999Y-1776440D01*
X2436808Y-1767129D02*
X2436808Y-1778980D01*
X2436808Y-1772208D02*
X2437654Y-1769668D01*
X2439347Y-1767976D01*
X2441040Y-1767129D01*
X2443580Y-1767129D01*
X2449420Y-1767129D02*
X2447727Y-1767976D01*
X2446035Y-1769668D01*
X2445188Y-1772208D01*
X2445188Y-1773901D01*
X2446035Y-1776440D01*
X2447727Y-1778133D01*
X2449420Y-1778980D01*
X2451960Y-1778980D01*
X2453653Y-1778133D01*
X2455346Y-1776440D01*
X2456192Y-1773901D01*
X2456192Y-1772208D01*
X2455346Y-1769668D01*
X2453653Y-1767976D01*
X2451960Y-1767129D01*
X2449420Y-1767129D01*
X2470244Y-1769668D02*
X2468551Y-1767976D01*
X2466858Y-1767129D01*
X2464319Y-1767129D01*
X2462626Y-1767976D01*
X2460933Y-1769668D01*
X2460086Y-1772208D01*
X2460086Y-1773901D01*
X2460933Y-1776440D01*
X2462626Y-1778133D01*
X2464319Y-1778980D01*
X2466858Y-1778980D01*
X2468551Y-1778133D01*
X2470244Y-1776440D01*
X2474053Y-1761204D02*
X2474053Y-1778980D01*
X2474053Y-1770515D02*
X2476593Y-1767976D01*
X2478286Y-1767129D01*
X2480825Y-1767129D01*
X2482518Y-1767976D01*
X2483365Y-1770515D01*
X2483365Y-1778980D01*
X2489713Y-1761204D02*
X2490560Y-1762050D01*
X2491406Y-1761204D01*
X2490560Y-1760357D01*
X2489713Y-1761204D01*
X2490560Y-1767129D02*
X2490560Y-1778980D01*
X2494538Y-1767129D02*
X2494538Y-1784905D01*
X2494538Y-1769668D02*
X2496231Y-1767976D01*
X2497924Y-1767129D01*
X2500464Y-1767129D01*
X2502156Y-1767976D01*
X2503849Y-1769668D01*
X2504696Y-1772208D01*
X2504696Y-1773901D01*
X2503849Y-1776440D01*
X2502156Y-1778133D01*
X2500464Y-1778980D01*
X2497924Y-1778980D01*
X2496231Y-1778133D01*
X2494538Y-1776440D01*
X2528398Y-1761204D02*
X2528398Y-1778980D01*
X2522472Y-1761204D02*
X2534323Y-1761204D01*
X2536439Y-1772208D02*
X2546597Y-1772208D01*
X2546597Y-1770515D01*
X2545750Y-1768822D01*
X2544904Y-1767976D01*
X2543211Y-1767129D01*
X2540672Y-1767129D01*
X2538978Y-1767976D01*
X2537286Y-1769668D01*
X2536439Y-1772208D01*
X2536439Y-1773901D01*
X2537286Y-1776440D01*
X2538978Y-1778133D01*
X2540672Y-1778980D01*
X2543211Y-1778980D01*
X2544904Y-1778133D01*
X2546597Y-1776440D01*
X2560564Y-1769668D02*
X2558871Y-1767976D01*
X2557178Y-1767129D01*
X2554639Y-1767129D01*
X2552946Y-1767976D01*
X2551253Y-1769668D01*
X2550406Y-1772208D01*
X2550406Y-1773901D01*
X2551253Y-1776440D01*
X2552946Y-1778133D01*
X2554639Y-1778980D01*
X2557178Y-1778980D01*
X2558871Y-1778133D01*
X2560564Y-1776440D01*
X2564373Y-1761204D02*
X2564373Y-1778980D01*
X2564373Y-1770515D02*
X2566913Y-1767976D01*
X2568606Y-1767129D01*
X2571145Y-1767129D01*
X2572838Y-1767976D01*
X2573684Y-1770515D01*
X2573684Y-1778980D01*
X2578340Y-1767129D02*
X2578340Y-1778980D01*
X2578340Y-1770515D02*
X2580880Y-1767976D01*
X2582573Y-1767129D01*
X2585112Y-1767129D01*
X2586805Y-1767976D01*
X2587651Y-1770515D01*
X2587651Y-1778980D01*
X2596540Y-1767129D02*
X2594846Y-1767976D01*
X2593154Y-1769668D01*
X2592307Y-1772208D01*
X2592307Y-1773901D01*
X2593154Y-1776440D01*
X2594846Y-1778133D01*
X2596540Y-1778980D01*
X2599079Y-1778980D01*
X2600772Y-1778133D01*
X2602465Y-1776440D01*
X2603311Y-1773901D01*
X2603311Y-1772208D01*
X2602465Y-1769668D01*
X2600772Y-1767976D01*
X2599079Y-1767129D01*
X2596540Y-1767129D01*
X2607205Y-1761204D02*
X2607205Y-1778980D01*
X2615162Y-1767129D02*
X2613469Y-1767976D01*
X2611776Y-1769668D01*
X2610930Y-1772208D01*
X2610930Y-1773901D01*
X2611776Y-1776440D01*
X2613469Y-1778133D01*
X2615162Y-1778980D01*
X2617702Y-1778980D01*
X2619395Y-1778133D01*
X2621088Y-1776440D01*
X2621934Y-1773901D01*
X2621934Y-1772208D01*
X2621088Y-1769668D01*
X2619395Y-1767976D01*
X2617702Y-1767129D01*
X2615162Y-1767129D01*
X2635986Y-1767129D02*
X2635986Y-1780673D01*
X2635139Y-1783212D01*
X2634293Y-1784059D01*
X2632600Y-1784905D01*
X2630060Y-1784905D01*
X2628367Y-1784059D01*
X2635986Y-1769668D02*
X2634293Y-1767976D01*
X2632600Y-1767129D01*
X2630060Y-1767129D01*
X2628367Y-1767976D01*
X2626674Y-1769668D01*
X2625828Y-1772208D01*
X2625828Y-1773901D01*
X2626674Y-1776440D01*
X2628367Y-1778133D01*
X2630060Y-1778980D01*
X2632600Y-1778980D01*
X2634293Y-1778133D01*
X2635986Y-1776440D01*
X2641573Y-1767129D02*
X2646651Y-1778980D01*
X2651730Y-1767129D02*
X2646651Y-1778980D01*
X2644958Y-1782366D01*
X2643265Y-1784059D01*
X2641573Y-1784905D01*
X2640726Y-1784905D01*
X2668660Y-1761204D02*
X2668660Y-1778980D01*
X2672385Y-1767129D02*
X2672385Y-1778980D01*
X2672385Y-1770515D02*
X2674924Y-1767976D01*
X2676617Y-1767129D01*
X2679156Y-1767129D01*
X2680849Y-1767976D01*
X2681696Y-1770515D01*
X2681696Y-1778980D01*
X2696509Y-1769668D02*
X2694816Y-1767976D01*
X2693123Y-1767129D01*
X2690584Y-1767129D01*
X2688891Y-1767976D01*
X2687198Y-1769668D01*
X2686352Y-1772208D01*
X2686352Y-1773901D01*
X2687198Y-1776440D01*
X2688891Y-1778133D01*
X2690584Y-1778980D01*
X2693123Y-1778980D01*
X2694816Y-1778133D01*
X2696509Y-1776440D01*
X2701165Y-1777287D02*
X2700319Y-1778133D01*
X2701165Y-1778980D01*
X2702011Y-1778133D01*
X2701165Y-1777287D01*
X3010714Y-1712811D02*
X3010000Y-1712097D01*
X3010714Y-1711383D01*
X3011429Y-1712097D01*
X3011429Y-1713526D01*
X3010714Y-1714954D01*
X3010000Y-1715668D01*
X3018998Y-1711383D02*
X3016856Y-1712097D01*
X3015428Y-1714240D01*
X3014713Y-1717810D01*
X3014713Y-1719953D01*
X3015428Y-1723523D01*
X3016856Y-1725666D01*
X3018998Y-1726380D01*
X3020427Y-1726380D01*
X3022569Y-1725666D01*
X3023997Y-1723523D01*
X3024711Y-1719953D01*
X3024711Y-1717810D01*
X3023997Y-1714240D01*
X3022569Y-1712097D01*
X3020427Y-1711383D01*
X3018998Y-1711383D01*
X3036637Y-1711383D02*
X3029496Y-1711383D01*
X3028782Y-1717810D01*
X3029496Y-1717096D01*
X3031638Y-1716382D01*
X3033781Y-1716382D01*
X3035923Y-1717096D01*
X3037351Y-1718524D01*
X3038065Y-1720667D01*
X3038065Y-1722095D01*
X3037351Y-1724238D01*
X3035923Y-1725666D01*
X3033781Y-1726380D01*
X3031638Y-1726380D01*
X3029496Y-1725666D01*
X3028782Y-1724952D01*
X3028068Y-1723523D01*
X3041422Y-1719953D02*
X3054276Y-1719953D01*
X3058704Y-1731379D02*
X3070130Y-1731379D01*
X3072058Y-1731379D02*
X3083484Y-1731379D01*
X3085413Y-1719953D02*
X3098267Y-1719953D01*
X3102694Y-1711383D02*
X3102694Y-1726380D01*
X3102694Y-1711383D02*
X3109122Y-1711383D01*
X3111264Y-1712097D01*
X3111978Y-1712811D01*
X3112692Y-1714240D01*
X3112692Y-1715668D01*
X3111978Y-1717096D01*
X3111264Y-1717810D01*
X3109122Y-1718524D01*
X3102694Y-1718524D01*
X3107693Y-1718524D02*
X3112692Y-1726380D01*
X3116049Y-1731379D02*
X3127475Y-1731379D01*
X3129403Y-1731379D02*
X3140829Y-1731379D01*
X3143471Y-1724952D02*
X3142757Y-1725666D01*
X3143471Y-1726380D01*
X3144185Y-1725666D01*
X3143471Y-1724952D01*
X3158183Y-1714954D02*
X3157469Y-1713526D01*
X3156040Y-1712097D01*
X3154612Y-1711383D01*
X3151755Y-1711383D01*
X3150327Y-1712097D01*
X3148899Y-1713526D01*
X3148185Y-1714954D01*
X3147471Y-1717096D01*
X3147471Y-1720667D01*
X3148185Y-1722809D01*
X3148899Y-1724238D01*
X3150327Y-1725666D01*
X3151755Y-1726380D01*
X3154612Y-1726380D01*
X3156040Y-1725666D01*
X3157469Y-1724238D01*
X3158183Y-1722809D01*
X3158183Y-1720667D01*
X3154612Y-1720667D02*
X3158183Y-1720667D01*
X3161610Y-1711383D02*
X3161610Y-1726380D01*
X3161610Y-1711383D02*
X3168038Y-1711383D01*
X3170180Y-1712097D01*
X3170894Y-1712811D01*
X3171608Y-1714240D01*
X3171608Y-1715668D01*
X3170894Y-1717096D01*
X3170180Y-1717810D01*
X3168038Y-1718524D01*
X3161610Y-1718524D02*
X3168038Y-1718524D01*
X3170180Y-1719238D01*
X3170894Y-1719953D01*
X3171608Y-1721381D01*
X3171608Y-1723523D01*
X3170894Y-1724952D01*
X3170180Y-1725666D01*
X3168038Y-1726380D01*
X3161610Y-1726380D01*
X3179250Y-1711383D02*
X3177821Y-1712097D01*
X3176393Y-1713526D01*
X3175679Y-1714954D01*
X3174965Y-1717096D01*
X3174965Y-1720667D01*
X3175679Y-1722809D01*
X3176393Y-1724238D01*
X3177821Y-1725666D01*
X3179250Y-1726380D01*
X3182106Y-1726380D01*
X3183534Y-1725666D01*
X3184962Y-1724238D01*
X3185677Y-1722809D01*
X3186391Y-1720667D01*
X3186391Y-1717096D01*
X3185677Y-1714954D01*
X3184962Y-1713526D01*
X3183534Y-1712097D01*
X3182106Y-1711383D01*
X3179250Y-1711383D01*
X3190604Y-1712811D02*
X3189890Y-1712097D01*
X3190604Y-1711383D01*
X3191318Y-1712097D01*
X3191318Y-1713526D01*
X3190604Y-1714954D01*
X3189890Y-1715668D01*
X3275816Y-1858363D02*
X3274969Y-1856670D01*
X3272430Y-1855824D01*
X3270737Y-1855824D01*
X3268198Y-1856670D01*
X3266505Y-1859210D01*
X3265658Y-1863442D01*
X3265658Y-1867675D01*
X3266505Y-1871060D01*
X3268198Y-1872753D01*
X3270737Y-1873600D01*
X3271584Y-1873600D01*
X3274123Y-1872753D01*
X3275816Y-1871060D01*
X3276662Y-1868521D01*
X3276662Y-1867675D01*
X3275816Y-1865135D01*
X3274123Y-1863442D01*
X3271584Y-1862596D01*
X3270737Y-1862596D01*
X3268198Y-1863442D01*
X3266505Y-1865135D01*
X3265658Y-1867675D01*
X2639546Y-1855824D02*
X2631081Y-1855824D01*
X2630235Y-1863442D01*
X2631081Y-1862596D01*
X2633621Y-1861749D01*
X2636160Y-1861749D01*
X2638700Y-1862596D01*
X2640392Y-1864288D01*
X2641239Y-1866828D01*
X2641239Y-1868521D01*
X2640392Y-1871060D01*
X2638700Y-1872753D01*
X2636160Y-1873600D01*
X2633621Y-1873600D01*
X2631081Y-1872753D01*
X2630235Y-1871907D01*
X2629388Y-1870214D01*
X2003110Y-1855824D02*
X1994645Y-1867675D01*
X2007342Y-1867675D01*
X2003110Y-1855824D02*
X2003110Y-1873600D01*
X1359644Y-1855824D02*
X1368956Y-1855824D01*
X1363877Y-1862596D01*
X1366416Y-1862596D01*
X1368109Y-1863442D01*
X1368956Y-1864288D01*
X1369802Y-1866828D01*
X1369802Y-1868521D01*
X1368956Y-1871060D01*
X1367263Y-1872753D01*
X1364723Y-1873600D01*
X1362184Y-1873600D01*
X1359644Y-1872753D01*
X1358798Y-1871907D01*
X1357951Y-1870214D01*
X726505Y-1860056D02*
X726505Y-1859210D01*
X727351Y-1857517D01*
X728198Y-1856670D01*
X729891Y-1855824D01*
X733277Y-1855824D01*
X734969Y-1856670D01*
X735816Y-1857517D01*
X736662Y-1859210D01*
X736662Y-1860903D01*
X735816Y-1862596D01*
X734123Y-1865135D01*
X725658Y-1873600D01*
X737509Y-1873600D01*
X91760Y-1859210D02*
X93453Y-1858363D01*
X95992Y-1855824D01*
X95992Y-1873600D01*
X-201950Y-1593696D02*
X-201950Y-1611472D01*
X-201950Y-1593696D02*
X-196024Y-1593696D01*
X-193485Y-1594542D01*
X-191792Y-1596235D01*
X-190946Y-1597928D01*
X-190099Y-1600468D01*
X-190099Y-1604700D01*
X-190946Y-1607240D01*
X-191792Y-1608932D01*
X-193485Y-1610625D01*
X-196024Y-1611472D01*
X-201950Y-1611472D01*
X-189253Y-995948D02*
X-190099Y-994255D01*
X-191792Y-992562D01*
X-193485Y-991716D01*
X-196871Y-991716D01*
X-198564Y-992562D01*
X-200257Y-994255D01*
X-201103Y-995948D01*
X-201950Y-998488D01*
X-201950Y-1002720D01*
X-201103Y-1005259D01*
X-200257Y-1006952D01*
X-198564Y-1008645D01*
X-196871Y-1009492D01*
X-193485Y-1009492D01*
X-191792Y-1008645D01*
X-190099Y-1006952D01*
X-189253Y-1005259D01*
X-201950Y-388466D02*
X-201950Y-406242D01*
X-201950Y-388466D02*
X-194331Y-388466D01*
X-191792Y-389312D01*
X-190946Y-390159D01*
X-190099Y-391852D01*
X-190099Y-393545D01*
X-190946Y-395238D01*
X-191792Y-396084D01*
X-194331Y-396931D01*
X-201950Y-396931D02*
X-194331Y-396931D01*
X-191792Y-397777D01*
X-190946Y-398624D01*
X-190099Y-400317D01*
X-190099Y-402856D01*
X-190946Y-404549D01*
X-191792Y-405395D01*
X-194331Y-406242D01*
X-201950Y-406242D01*
X-188406Y198278D02*
X-195178Y216054D01*
X-201950Y198278D01*
X-199410Y204203D02*
X-190946Y204203D01*
X3557250Y-1593696D02*
X3557250Y-1611472D01*
X3557250Y-1593696D02*
X3563175Y-1593696D01*
X3565715Y-1594542D01*
X3567408Y-1596235D01*
X3568254Y-1597928D01*
X3569101Y-1600468D01*
X3569101Y-1604700D01*
X3568254Y-1607240D01*
X3567408Y-1608932D01*
X3565715Y-1610625D01*
X3563175Y-1611472D01*
X3557250Y-1611472D01*
X3569948Y-995948D02*
X3569101Y-994255D01*
X3567408Y-992562D01*
X3565715Y-991716D01*
X3562329Y-991716D01*
X3560636Y-992562D01*
X3558943Y-994255D01*
X3558097Y-995948D01*
X3557250Y-998488D01*
X3557250Y-1002720D01*
X3558097Y-1005259D01*
X3558943Y-1006952D01*
X3560636Y-1008645D01*
X3562329Y-1009492D01*
X3565715Y-1009492D01*
X3567408Y-1008645D01*
X3569101Y-1006952D01*
X3569948Y-1005259D01*
X3557250Y-388466D02*
X3557250Y-406242D01*
X3557250Y-388466D02*
X3564868Y-388466D01*
X3567408Y-389312D01*
X3568254Y-390159D01*
X3569101Y-391852D01*
X3569101Y-393545D01*
X3568254Y-395238D01*
X3567408Y-396084D01*
X3564868Y-396931D01*
X3557250Y-396931D02*
X3564868Y-396931D01*
X3567408Y-397777D01*
X3568254Y-398624D01*
X3569101Y-400317D01*
X3569101Y-402856D01*
X3568254Y-404549D01*
X3567408Y-405395D01*
X3564868Y-406242D01*
X3557250Y-406242D01*
X3570794Y198278D02*
X3564022Y216054D01*
X3557250Y198278D01*
X3559790Y204203D02*
X3568254Y204203D01*
X3275816Y503837D02*
X3274969Y505530D01*
X3272430Y506376D01*
X3270737Y506376D01*
X3268198Y505530D01*
X3266505Y502990D01*
X3265658Y498758D01*
X3265658Y494525D01*
X3266505Y491140D01*
X3268198Y489447D01*
X3270737Y488600D01*
X3271584Y488600D01*
X3274123Y489447D01*
X3275816Y491140D01*
X3276662Y493679D01*
X3276662Y494525D01*
X3275816Y497065D01*
X3274123Y498758D01*
X3271584Y499604D01*
X3270737Y499604D01*
X3268198Y498758D01*
X3266505Y497065D01*
X3265658Y494525D01*
X2639546Y506376D02*
X2631081Y506376D01*
X2630235Y498758D01*
X2631081Y499604D01*
X2633621Y500451D01*
X2636160Y500451D01*
X2638700Y499604D01*
X2640392Y497911D01*
X2641239Y495372D01*
X2641239Y493679D01*
X2640392Y491140D01*
X2638700Y489447D01*
X2636160Y488600D01*
X2633621Y488600D01*
X2631081Y489447D01*
X2630235Y490293D01*
X2629388Y491986D01*
X2003110Y506376D02*
X1994645Y494525D01*
X2007342Y494525D01*
X2003110Y506376D02*
X2003110Y488600D01*
X1359644Y506376D02*
X1368956Y506376D01*
X1363877Y499604D01*
X1366416Y499604D01*
X1368109Y498758D01*
X1368956Y497911D01*
X1369802Y495372D01*
X1369802Y493679D01*
X1368956Y491140D01*
X1367263Y489447D01*
X1364723Y488600D01*
X1362184Y488600D01*
X1359644Y489447D01*
X1358798Y490293D01*
X1357951Y491986D01*
X726505Y502144D02*
X726505Y502990D01*
X727351Y504683D01*
X728198Y505530D01*
X729891Y506376D01*
X733277Y506376D01*
X734969Y505530D01*
X735816Y504683D01*
X736662Y502990D01*
X736662Y501297D01*
X735816Y499604D01*
X734123Y497065D01*
X725658Y488600D01*
X737509Y488600D01*
X91760Y502990D02*
X93453Y503837D01*
X95992Y506376D01*
X95992Y488600D01*
D15*
X3005000Y-1818883D02*
X3005000Y-1833880D01*
X3005000Y-1818883D02*
X3011427Y-1818883D01*
X3013570Y-1819597D01*
X3014284Y-1820311D01*
X3014998Y-1821740D01*
X3014998Y-1823168D01*
X3014284Y-1824596D01*
X3013570Y-1825310D01*
X3011427Y-1826024D01*
X3005000Y-1826024D02*
X3011427Y-1826024D01*
X3013570Y-1826738D01*
X3014284Y-1827453D01*
X3014998Y-1828881D01*
X3014998Y-1831023D01*
X3014284Y-1832452D01*
X3013570Y-1833166D01*
X3011427Y-1833880D01*
X3005000Y-1833880D01*
X3021925Y-1823882D02*
X3020497Y-1824596D01*
X3019069Y-1826024D01*
X3018354Y-1828167D01*
X3018354Y-1829595D01*
X3019069Y-1831738D01*
X3020497Y-1833166D01*
X3021925Y-1833880D01*
X3024067Y-1833880D01*
X3025496Y-1833166D01*
X3026924Y-1831738D01*
X3027638Y-1829595D01*
X3027638Y-1828167D01*
X3026924Y-1826024D01*
X3025496Y-1824596D01*
X3024067Y-1823882D01*
X3021925Y-1823882D01*
X3033065Y-1818883D02*
X3033065Y-1831023D01*
X3033780Y-1833166D01*
X3035208Y-1833880D01*
X3036636Y-1833880D01*
X3030923Y-1823882D02*
X3035922Y-1823882D01*
X3040921Y-1818883D02*
X3040921Y-1831023D01*
X3041635Y-1833166D01*
X3043063Y-1833880D01*
X3044492Y-1833880D01*
X3038779Y-1823882D02*
X3043777Y-1823882D01*
X3050205Y-1823882D02*
X3048777Y-1824596D01*
X3047348Y-1826024D01*
X3046634Y-1828167D01*
X3046634Y-1829595D01*
X3047348Y-1831738D01*
X3048777Y-1833166D01*
X3050205Y-1833880D01*
X3052347Y-1833880D01*
X3053775Y-1833166D01*
X3055204Y-1831738D01*
X3055918Y-1829595D01*
X3055918Y-1828167D01*
X3055204Y-1826024D01*
X3053775Y-1824596D01*
X3052347Y-1823882D01*
X3050205Y-1823882D01*
X3059203Y-1823882D02*
X3059203Y-1833880D01*
X3059203Y-1826738D02*
X3061345Y-1824596D01*
X3062773Y-1823882D01*
X3064916Y-1823882D01*
X3066344Y-1824596D01*
X3067058Y-1826738D01*
X3067058Y-1833880D01*
X3067058Y-1826738D02*
X3069201Y-1824596D01*
X3070629Y-1823882D01*
X3072771Y-1823882D01*
X3074200Y-1824596D01*
X3074914Y-1826738D01*
X3074914Y-1833880D01*
X3095695Y-1818883D02*
X3094267Y-1819597D01*
X3092838Y-1821026D01*
X3092124Y-1822454D01*
X3091410Y-1824596D01*
X3091410Y-1828167D01*
X3092124Y-1830309D01*
X3092838Y-1831738D01*
X3094267Y-1833166D01*
X3095695Y-1833880D01*
X3098552Y-1833880D01*
X3099980Y-1833166D01*
X3101408Y-1831738D01*
X3102122Y-1830309D01*
X3102836Y-1828167D01*
X3102836Y-1824596D01*
X3102122Y-1822454D01*
X3101408Y-1821026D01*
X3099980Y-1819597D01*
X3098552Y-1818883D01*
X3095695Y-1818883D01*
X3106335Y-1823882D02*
X3110620Y-1833880D01*
X3114905Y-1823882D02*
X3110620Y-1833880D01*
X3117333Y-1828167D02*
X3125903Y-1828167D01*
X3125903Y-1826738D01*
X3125189Y-1825310D01*
X3124474Y-1824596D01*
X3123046Y-1823882D01*
X3120904Y-1823882D01*
X3119475Y-1824596D01*
X3118047Y-1826024D01*
X3117333Y-1828167D01*
X3117333Y-1829595D01*
X3118047Y-1831738D01*
X3119475Y-1833166D01*
X3120904Y-1833880D01*
X3123046Y-1833880D01*
X3124474Y-1833166D01*
X3125903Y-1831738D01*
X3129116Y-1823882D02*
X3129116Y-1833880D01*
X3129116Y-1828167D02*
X3129831Y-1826024D01*
X3131259Y-1824596D01*
X3132687Y-1823882D01*
X3134829Y-1823882D01*
X3136186Y-1818883D02*
X3136186Y-1833880D01*
X3147898Y-1823882D02*
X3147898Y-1833880D01*
X3147898Y-1826024D02*
X3146470Y-1824596D01*
X3145042Y-1823882D01*
X3142899Y-1823882D01*
X3141471Y-1824596D01*
X3140043Y-1826024D01*
X3139328Y-1828167D01*
X3139328Y-1829595D01*
X3140043Y-1831738D01*
X3141471Y-1833166D01*
X3142899Y-1833880D01*
X3145042Y-1833880D01*
X3146470Y-1833166D01*
X3147898Y-1831738D01*
X3152611Y-1823882D02*
X3156896Y-1833880D01*
X3161181Y-1823882D02*
X3156896Y-1833880D01*
X3155468Y-1836736D01*
X3154040Y-1838165D01*
X3152611Y-1838879D01*
X3151897Y-1838879D01*
X2730000Y-1808405D02*
X2734928Y-1808405D01*
X2736570Y-1807857D01*
X2737118Y-1807310D01*
X2737665Y-1806215D01*
X2737665Y-1804572D01*
X2737118Y-1803477D01*
X2736570Y-1802930D01*
X2734928Y-1802382D01*
X2730000Y-1802382D01*
X2730000Y-1813880D01*
X2748451Y-1805120D02*
X2747903Y-1804025D01*
X2746808Y-1802930D01*
X2745714Y-1802382D01*
X2743523Y-1802382D01*
X2742428Y-1802930D01*
X2741333Y-1804025D01*
X2740786Y-1805120D01*
X2740238Y-1806762D01*
X2740238Y-1809500D01*
X2740786Y-1811142D01*
X2741333Y-1812237D01*
X2742428Y-1813332D01*
X2743523Y-1813880D01*
X2745714Y-1813880D01*
X2746808Y-1813332D01*
X2747903Y-1812237D01*
X2748451Y-1811142D01*
X2751681Y-1802382D02*
X2751681Y-1813880D01*
X2751681Y-1802382D02*
X2756609Y-1802382D01*
X2758251Y-1802930D01*
X2758799Y-1803477D01*
X2759346Y-1804572D01*
X2759346Y-1805667D01*
X2758799Y-1806762D01*
X2758251Y-1807310D01*
X2756609Y-1807857D01*
X2751681Y-1807857D02*
X2756609Y-1807857D01*
X2758251Y-1808405D01*
X2758799Y-1808952D01*
X2759346Y-1810047D01*
X2759346Y-1811690D01*
X2758799Y-1812785D01*
X2758251Y-1813332D01*
X2756609Y-1813880D01*
X2751681Y-1813880D01*
X2770953Y-1802382D02*
X2770953Y-1813880D01*
X2770953Y-1802382D02*
X2778071Y-1802382D01*
X2770953Y-1807857D02*
X2775333Y-1807857D01*
X2779385Y-1802382D02*
X2779385Y-1813880D01*
X2781794Y-1802382D02*
X2781794Y-1813880D01*
X2788364Y-1813880D01*
X2796741Y-1802382D02*
X2789623Y-1802382D01*
X2789623Y-1813880D01*
X2796741Y-1813880D01*
X2789623Y-1807857D02*
X2794003Y-1807857D01*
X2807691Y-1802382D02*
X2807691Y-1813880D01*
X2807691Y-1802382D02*
X2815356Y-1813880D01*
X2815356Y-1802382D02*
X2815356Y-1813880D01*
X2827291Y-1813880D02*
X2822911Y-1802382D01*
X2818531Y-1813880D01*
X2820174Y-1810047D02*
X2825649Y-1810047D01*
X2829974Y-1802382D02*
X2829974Y-1813880D01*
X2829974Y-1802382D02*
X2834354Y-1813880D01*
X2838734Y-1802382D02*
X2834354Y-1813880D01*
X2838734Y-1802382D02*
X2838734Y-1813880D01*
X2849137Y-1802382D02*
X2842019Y-1802382D01*
X2842019Y-1813880D01*
X2849137Y-1813880D01*
X2842019Y-1807857D02*
X2846399Y-1807857D01*
X2851600Y-1806215D02*
X2851053Y-1806762D01*
X2851600Y-1807310D01*
X2852148Y-1806762D01*
X2851600Y-1806215D01*
X2851600Y-1812785D02*
X2851053Y-1813332D01*
X2851600Y-1813880D01*
X2852148Y-1813332D01*
X2851600Y-1812785D01*
X2730476Y-1826263D02*
X2730476Y-1825786D01*
X2730952Y-1824834D01*
X2731429Y-1824358D01*
X2732381Y-1823882D01*
X2734285Y-1823882D01*
X2735237Y-1824358D01*
X2735713Y-1824834D01*
X2736189Y-1825786D01*
X2736189Y-1826738D01*
X2735713Y-1827691D01*
X2734761Y-1829119D01*
X2730000Y-1833880D01*
X2736665Y-1833880D01*
X2746758Y-1823882D02*
X2746758Y-1833880D01*
X2752472Y-1833880D01*
X2759279Y-1827215D02*
X2759279Y-1833880D01*
X2759279Y-1828643D02*
X2758327Y-1827691D01*
X2757375Y-1827215D01*
X2755947Y-1827215D01*
X2754995Y-1827691D01*
X2754043Y-1828643D01*
X2753567Y-1830071D01*
X2753567Y-1831023D01*
X2754043Y-1832452D01*
X2754995Y-1833404D01*
X2755947Y-1833880D01*
X2757375Y-1833880D01*
X2758327Y-1833404D01*
X2759279Y-1832452D01*
X2762422Y-1827215D02*
X2765278Y-1833880D01*
X2768135Y-1827215D02*
X2765278Y-1833880D01*
X2764326Y-1835784D01*
X2763374Y-1836736D01*
X2762422Y-1837213D01*
X2761946Y-1837213D01*
X2769801Y-1830071D02*
X2775514Y-1830071D01*
X2775514Y-1829119D01*
X2775038Y-1828167D01*
X2774562Y-1827691D01*
X2773610Y-1827215D01*
X2772182Y-1827215D01*
X2771229Y-1827691D01*
X2770277Y-1828643D01*
X2769801Y-1830071D01*
X2769801Y-1831023D01*
X2770277Y-1832452D01*
X2771229Y-1833404D01*
X2772182Y-1833880D01*
X2773610Y-1833880D01*
X2774562Y-1833404D01*
X2775514Y-1832452D01*
X2777657Y-1827215D02*
X2777657Y-1833880D01*
X2777657Y-1830071D02*
X2778133Y-1828643D01*
X2779085Y-1827691D01*
X2780037Y-1827215D01*
X2781465Y-1827215D01*
X2787607Y-1828643D02*
X2787131Y-1827691D01*
X2785703Y-1827215D01*
X2784274Y-1827215D01*
X2782846Y-1827691D01*
X2782370Y-1828643D01*
X2782846Y-1829595D01*
X2783798Y-1830071D01*
X2786179Y-1830547D01*
X2787131Y-1831023D01*
X2787607Y-1831976D01*
X2787607Y-1832452D01*
X2787131Y-1833404D01*
X2785703Y-1833880D01*
X2784274Y-1833880D01*
X2782846Y-1833404D01*
X2782370Y-1832452D01*
X2790178Y-1832928D02*
X2789702Y-1833404D01*
X2790178Y-1833880D01*
X2790654Y-1833404D01*
X2790178Y-1832928D01*
X2792844Y-1829119D02*
X2797129Y-1829119D01*
X2798557Y-1828643D01*
X2799033Y-1828167D01*
X2799509Y-1827215D01*
X2799509Y-1825786D01*
X2799033Y-1824834D01*
X2798557Y-1824358D01*
X2797129Y-1823882D01*
X2792844Y-1823882D01*
X2792844Y-1833880D01*
X2807460Y-1828643D02*
X2806508Y-1827691D01*
X2805555Y-1827215D01*
X2804127Y-1827215D01*
X2803175Y-1827691D01*
X2802223Y-1828643D01*
X2801747Y-1830071D01*
X2801747Y-1831023D01*
X2802223Y-1832452D01*
X2803175Y-1833404D01*
X2804127Y-1833880D01*
X2805555Y-1833880D01*
X2806508Y-1833404D01*
X2807460Y-1832452D01*
X2809602Y-1823882D02*
X2809602Y-1833880D01*
X2809602Y-1828643D02*
X2810554Y-1827691D01*
X2811506Y-1827215D01*
X2812935Y-1827215D01*
X2813887Y-1827691D01*
X2814839Y-1828643D01*
X2815315Y-1830071D01*
X2815315Y-1831023D01*
X2814839Y-1832452D01*
X2813887Y-1833404D01*
X2812935Y-1833880D01*
X2811506Y-1833880D01*
X2810554Y-1833404D01*
X2809602Y-1832452D01*
X2817458Y-1823882D02*
X2817458Y-1833880D01*
X2817458Y-1823882D02*
X2820790Y-1823882D01*
X2822219Y-1824358D01*
X2823170Y-1825310D01*
X2823647Y-1826263D01*
X2824123Y-1827691D01*
X2824123Y-1830071D01*
X2823647Y-1831499D01*
X2823170Y-1832452D01*
X2822219Y-1833404D01*
X2820790Y-1833880D01*
X2817458Y-1833880D01*
X2828741Y-1827215D02*
X2827789Y-1827691D01*
X2826837Y-1828643D01*
X2826360Y-1830071D01*
X2826360Y-1831023D01*
X2826837Y-1832452D01*
X2827789Y-1833404D01*
X2828741Y-1833880D01*
X2830169Y-1833880D01*
X2831121Y-1833404D01*
X2832073Y-1832452D01*
X2832550Y-1831023D01*
X2832550Y-1830071D01*
X2832073Y-1828643D01*
X2831121Y-1827691D01*
X2830169Y-1827215D01*
X2828741Y-1827215D01*
X2840453Y-1828643D02*
X2839500Y-1827691D01*
X2838548Y-1827215D01*
X2837120Y-1827215D01*
X2836168Y-1827691D01*
X2835216Y-1828643D01*
X2834740Y-1830071D01*
X2834740Y-1831023D01*
X2835216Y-1832452D01*
X2836168Y-1833404D01*
X2837120Y-1833880D01*
X2838548Y-1833880D01*
X2839500Y-1833404D01*
X2840453Y-1832452D01*
X2730000Y-1690905D02*
X2734928Y-1690905D01*
X2736570Y-1690357D01*
X2737118Y-1689810D01*
X2737665Y-1688715D01*
X2737665Y-1687072D01*
X2737118Y-1685977D01*
X2736570Y-1685430D01*
X2734928Y-1684882D01*
X2730000Y-1684882D01*
X2730000Y-1696380D01*
X2748451Y-1687620D02*
X2747903Y-1686525D01*
X2746808Y-1685430D01*
X2745714Y-1684882D01*
X2743523Y-1684882D01*
X2742428Y-1685430D01*
X2741333Y-1686525D01*
X2740786Y-1687620D01*
X2740238Y-1689262D01*
X2740238Y-1692000D01*
X2740786Y-1693642D01*
X2741333Y-1694737D01*
X2742428Y-1695832D01*
X2743523Y-1696380D01*
X2745714Y-1696380D01*
X2746808Y-1695832D01*
X2747903Y-1694737D01*
X2748451Y-1693642D01*
X2751681Y-1684882D02*
X2751681Y-1696380D01*
X2751681Y-1684882D02*
X2756609Y-1684882D01*
X2758251Y-1685430D01*
X2758799Y-1685977D01*
X2759346Y-1687072D01*
X2759346Y-1688167D01*
X2758799Y-1689262D01*
X2758251Y-1689810D01*
X2756609Y-1690357D01*
X2751681Y-1690357D02*
X2756609Y-1690357D01*
X2758251Y-1690905D01*
X2758799Y-1691452D01*
X2759346Y-1692547D01*
X2759346Y-1694190D01*
X2758799Y-1695285D01*
X2758251Y-1695832D01*
X2756609Y-1696380D01*
X2751681Y-1696380D01*
X2770953Y-1684882D02*
X2770953Y-1696380D01*
X2777523Y-1696380D01*
X2785352Y-1688715D02*
X2785352Y-1696380D01*
X2785352Y-1690357D02*
X2784258Y-1689262D01*
X2783163Y-1688715D01*
X2781520Y-1688715D01*
X2780425Y-1689262D01*
X2779330Y-1690357D01*
X2778783Y-1692000D01*
X2778783Y-1693095D01*
X2779330Y-1694737D01*
X2780425Y-1695832D01*
X2781520Y-1696380D01*
X2783163Y-1696380D01*
X2784258Y-1695832D01*
X2785352Y-1694737D01*
X2788966Y-1688715D02*
X2792251Y-1696380D01*
X2795536Y-1688715D02*
X2792251Y-1696380D01*
X2791156Y-1698570D01*
X2790061Y-1699665D01*
X2788966Y-1700212D01*
X2788419Y-1700212D01*
X2800190Y-1688715D02*
X2799095Y-1689262D01*
X2798000Y-1690357D01*
X2797452Y-1692000D01*
X2797452Y-1693095D01*
X2798000Y-1694737D01*
X2799095Y-1695832D01*
X2800190Y-1696380D01*
X2801832Y-1696380D01*
X2802928Y-1695832D01*
X2804023Y-1694737D01*
X2804570Y-1693095D01*
X2804570Y-1692000D01*
X2804023Y-1690357D01*
X2802928Y-1689262D01*
X2801832Y-1688715D01*
X2800190Y-1688715D01*
X2807088Y-1688715D02*
X2807088Y-1694190D01*
X2807636Y-1695832D01*
X2808731Y-1696380D01*
X2810374Y-1696380D01*
X2811469Y-1695832D01*
X2813111Y-1694190D01*
X2813111Y-1688715D02*
X2813111Y-1696380D01*
X2817765Y-1684882D02*
X2817765Y-1694190D01*
X2818312Y-1695832D01*
X2819407Y-1696380D01*
X2820502Y-1696380D01*
X2816122Y-1688715D02*
X2819955Y-1688715D01*
X2839391Y-1687620D02*
X2838843Y-1686525D01*
X2837748Y-1685430D01*
X2836653Y-1684882D01*
X2834464Y-1684882D01*
X2833369Y-1685430D01*
X2832274Y-1686525D01*
X2831726Y-1687620D01*
X2831179Y-1689262D01*
X2831179Y-1692000D01*
X2831726Y-1693642D01*
X2832274Y-1694737D01*
X2833369Y-1695832D01*
X2834464Y-1696380D01*
X2836653Y-1696380D01*
X2837748Y-1695832D01*
X2838843Y-1694737D01*
X2839391Y-1693642D01*
X2845359Y-1688715D02*
X2844264Y-1689262D01*
X2843169Y-1690357D01*
X2842621Y-1692000D01*
X2842621Y-1693095D01*
X2843169Y-1694737D01*
X2844264Y-1695832D01*
X2845359Y-1696380D01*
X2847001Y-1696380D01*
X2848096Y-1695832D01*
X2849191Y-1694737D01*
X2849739Y-1693095D01*
X2849739Y-1692000D01*
X2849191Y-1690357D01*
X2848096Y-1689262D01*
X2847001Y-1688715D01*
X2845359Y-1688715D01*
X2852257Y-1688715D02*
X2852257Y-1696380D01*
X2852257Y-1690905D02*
X2853900Y-1689262D01*
X2854995Y-1688715D01*
X2856637Y-1688715D01*
X2857732Y-1689262D01*
X2858280Y-1690905D01*
X2858280Y-1696380D01*
X2862934Y-1684882D02*
X2862934Y-1694190D01*
X2863481Y-1695832D01*
X2864576Y-1696380D01*
X2865671Y-1696380D01*
X2861291Y-1688715D02*
X2865124Y-1688715D01*
X2873884Y-1688715D02*
X2873884Y-1696380D01*
X2873884Y-1690357D02*
X2872789Y-1689262D01*
X2871694Y-1688715D01*
X2870051Y-1688715D01*
X2868956Y-1689262D01*
X2867861Y-1690357D01*
X2867314Y-1692000D01*
X2867314Y-1693095D01*
X2867861Y-1694737D01*
X2868956Y-1695832D01*
X2870051Y-1696380D01*
X2871694Y-1696380D01*
X2872789Y-1695832D01*
X2873884Y-1694737D01*
X2883520Y-1690357D02*
X2882425Y-1689262D01*
X2881330Y-1688715D01*
X2879687Y-1688715D01*
X2878592Y-1689262D01*
X2877497Y-1690357D01*
X2876949Y-1692000D01*
X2876949Y-1693095D01*
X2877497Y-1694737D01*
X2878592Y-1695832D01*
X2879687Y-1696380D01*
X2881330Y-1696380D01*
X2882425Y-1695832D01*
X2883520Y-1694737D01*
X2887626Y-1684882D02*
X2887626Y-1694190D01*
X2888174Y-1695832D01*
X2889268Y-1696380D01*
X2890363Y-1696380D01*
X2885983Y-1688715D02*
X2889816Y-1688715D01*
X2892553Y-1688715D02*
X2892006Y-1689262D01*
X2892553Y-1689810D01*
X2893101Y-1689262D01*
X2892553Y-1688715D01*
X2892553Y-1695285D02*
X2892006Y-1695832D01*
X2892553Y-1696380D01*
X2893101Y-1695832D01*
X2892553Y-1695285D01*
X2730000Y-1750905D02*
X2734928Y-1750905D01*
X2736570Y-1750357D01*
X2737118Y-1749810D01*
X2737665Y-1748715D01*
X2737665Y-1747072D01*
X2737118Y-1745977D01*
X2736570Y-1745430D01*
X2734928Y-1744882D01*
X2730000Y-1744882D01*
X2730000Y-1756380D01*
X2740238Y-1748715D02*
X2740238Y-1756380D01*
X2740238Y-1752000D02*
X2740786Y-1750357D01*
X2741881Y-1749262D01*
X2742976Y-1748715D01*
X2744619Y-1748715D01*
X2748396Y-1748715D02*
X2747301Y-1749262D01*
X2746206Y-1750357D01*
X2745659Y-1752000D01*
X2745659Y-1753095D01*
X2746206Y-1754737D01*
X2747301Y-1755832D01*
X2748396Y-1756380D01*
X2750039Y-1756380D01*
X2751134Y-1755832D01*
X2752229Y-1754737D01*
X2752776Y-1753095D01*
X2752776Y-1752000D01*
X2752229Y-1750357D01*
X2751134Y-1749262D01*
X2750039Y-1748715D01*
X2748396Y-1748715D01*
X2757485Y-1744882D02*
X2758032Y-1745430D01*
X2758580Y-1744882D01*
X2758032Y-1744335D01*
X2757485Y-1744882D01*
X2758032Y-1748715D02*
X2758032Y-1758022D01*
X2757485Y-1759665D01*
X2756390Y-1760212D01*
X2755295Y-1760212D01*
X2760715Y-1752000D02*
X2767285Y-1752000D01*
X2767285Y-1750905D01*
X2766737Y-1749810D01*
X2766190Y-1749262D01*
X2765095Y-1748715D01*
X2763452Y-1748715D01*
X2762357Y-1749262D01*
X2761263Y-1750357D01*
X2760715Y-1752000D01*
X2760715Y-1753095D01*
X2761263Y-1754737D01*
X2762357Y-1755832D01*
X2763452Y-1756380D01*
X2765095Y-1756380D01*
X2766190Y-1755832D01*
X2767285Y-1754737D01*
X2776319Y-1750357D02*
X2775224Y-1749262D01*
X2774129Y-1748715D01*
X2772486Y-1748715D01*
X2771391Y-1749262D01*
X2770296Y-1750357D01*
X2769749Y-1752000D01*
X2769749Y-1753095D01*
X2770296Y-1754737D01*
X2771391Y-1755832D01*
X2772486Y-1756380D01*
X2774129Y-1756380D01*
X2775224Y-1755832D01*
X2776319Y-1754737D01*
X2780425Y-1744882D02*
X2780425Y-1754190D01*
X2780973Y-1755832D01*
X2782068Y-1756380D01*
X2783163Y-1756380D01*
X2778782Y-1748715D02*
X2782615Y-1748715D01*
X2797124Y-1744882D02*
X2796029Y-1745430D01*
X2794934Y-1746525D01*
X2794386Y-1747620D01*
X2793839Y-1749262D01*
X2793839Y-1752000D01*
X2794386Y-1753642D01*
X2794934Y-1754737D01*
X2796029Y-1755832D01*
X2797124Y-1756380D01*
X2799314Y-1756380D01*
X2800409Y-1755832D01*
X2801504Y-1754737D01*
X2802051Y-1753642D01*
X2802599Y-1752000D01*
X2802599Y-1749262D01*
X2802051Y-1747620D01*
X2801504Y-1746525D01*
X2800409Y-1745430D01*
X2799314Y-1744882D01*
X2797124Y-1744882D01*
X2805282Y-1748715D02*
X2807472Y-1756380D01*
X2809662Y-1748715D02*
X2807472Y-1756380D01*
X2809662Y-1748715D02*
X2811852Y-1756380D01*
X2814042Y-1748715D02*
X2811852Y-1756380D01*
X2816725Y-1748715D02*
X2816725Y-1756380D01*
X2816725Y-1750905D02*
X2818367Y-1749262D01*
X2819462Y-1748715D01*
X2821104Y-1748715D01*
X2822199Y-1749262D01*
X2822747Y-1750905D01*
X2822747Y-1756380D01*
X2825758Y-1752000D02*
X2832328Y-1752000D01*
X2832328Y-1750905D01*
X2831781Y-1749810D01*
X2831233Y-1749262D01*
X2830138Y-1748715D01*
X2828496Y-1748715D01*
X2827401Y-1749262D01*
X2826306Y-1750357D01*
X2825758Y-1752000D01*
X2825758Y-1753095D01*
X2826306Y-1754737D01*
X2827401Y-1755832D01*
X2828496Y-1756380D01*
X2830138Y-1756380D01*
X2831233Y-1755832D01*
X2832328Y-1754737D01*
X2834792Y-1748715D02*
X2834792Y-1756380D01*
X2834792Y-1752000D02*
X2835339Y-1750357D01*
X2836435Y-1749262D01*
X2837530Y-1748715D01*
X2839172Y-1748715D01*
X2840760Y-1748715D02*
X2840212Y-1749262D01*
X2840760Y-1749810D01*
X2841307Y-1749262D01*
X2840760Y-1748715D01*
X2840760Y-1755285D02*
X2840212Y-1755832D01*
X2840760Y-1756380D01*
X2841307Y-1755832D01*
X2840760Y-1755285D01*
X3010000Y-1744882D02*
X3010000Y-1756380D01*
X3010000Y-1744882D02*
X3014928Y-1744882D01*
X3016570Y-1745430D01*
X3017118Y-1745977D01*
X3017665Y-1747072D01*
X3017665Y-1748167D01*
X3017118Y-1749262D01*
X3016570Y-1749810D01*
X3014928Y-1750357D01*
X3010000Y-1750357D02*
X3014928Y-1750357D01*
X3016570Y-1750905D01*
X3017118Y-1751452D01*
X3017665Y-1752547D01*
X3017665Y-1754190D01*
X3017118Y-1755285D01*
X3016570Y-1755832D01*
X3014928Y-1756380D01*
X3010000Y-1756380D01*
X3023523Y-1744882D02*
X3022428Y-1745430D01*
X3021333Y-1746525D01*
X3020786Y-1747620D01*
X3020238Y-1749262D01*
X3020238Y-1752000D01*
X3020786Y-1753642D01*
X3021333Y-1754737D01*
X3022428Y-1755832D01*
X3023523Y-1756380D01*
X3025714Y-1756380D01*
X3026808Y-1755832D01*
X3027903Y-1754737D01*
X3028451Y-1753642D01*
X3028998Y-1752000D01*
X3028998Y-1749262D01*
X3028451Y-1747620D01*
X3027903Y-1746525D01*
X3026808Y-1745430D01*
X3025714Y-1744882D01*
X3023523Y-1744882D01*
X3040441Y-1756380D02*
X3036061Y-1744882D01*
X3031681Y-1756380D01*
X3033324Y-1752547D02*
X3038799Y-1752547D01*
X3043124Y-1744882D02*
X3043124Y-1756380D01*
X3043124Y-1744882D02*
X3048051Y-1744882D01*
X3049694Y-1745430D01*
X3050241Y-1745977D01*
X3050789Y-1747072D01*
X3050789Y-1748167D01*
X3050241Y-1749262D01*
X3049694Y-1749810D01*
X3048051Y-1750357D01*
X3043124Y-1750357D01*
X3046956Y-1750357D02*
X3050789Y-1756380D01*
X3053362Y-1744882D02*
X3053362Y-1756380D01*
X3053362Y-1744882D02*
X3057195Y-1744882D01*
X3058837Y-1745430D01*
X3059932Y-1746525D01*
X3060480Y-1747620D01*
X3061027Y-1749262D01*
X3061027Y-1752000D01*
X3060480Y-1753642D01*
X3059932Y-1754737D01*
X3058837Y-1755832D01*
X3057195Y-1756380D01*
X3053362Y-1756380D01*
X3072634Y-1744882D02*
X3072634Y-1756380D01*
X3072634Y-1744882D02*
X3080299Y-1756380D01*
X3080299Y-1744882D02*
X3080299Y-1756380D01*
X3083475Y-1744882D02*
X3083475Y-1753095D01*
X3084023Y-1754737D01*
X3085117Y-1755832D01*
X3086760Y-1756380D01*
X3087855Y-1756380D01*
X3089497Y-1755832D01*
X3090592Y-1754737D01*
X3091140Y-1753095D01*
X3091140Y-1744882D01*
X3094315Y-1744882D02*
X3094315Y-1756380D01*
X3094315Y-1744882D02*
X3098695Y-1756380D01*
X3103076Y-1744882D02*
X3098695Y-1756380D01*
X3103076Y-1744882D02*
X3103076Y-1756380D01*
X3106360Y-1744882D02*
X3106360Y-1756380D01*
X3106360Y-1744882D02*
X3111288Y-1744882D01*
X3112931Y-1745430D01*
X3113478Y-1745977D01*
X3114026Y-1747072D01*
X3114026Y-1748167D01*
X3113478Y-1749262D01*
X3112931Y-1749810D01*
X3111288Y-1750357D01*
X3106360Y-1750357D02*
X3111288Y-1750357D01*
X3112931Y-1750905D01*
X3113478Y-1751452D01*
X3114026Y-1752547D01*
X3114026Y-1754190D01*
X3113478Y-1755285D01*
X3112931Y-1755832D01*
X3111288Y-1756380D01*
X3106360Y-1756380D01*
X3123716Y-1744882D02*
X3116599Y-1744882D01*
X3116599Y-1756380D01*
X3123716Y-1756380D01*
X3116599Y-1750357D02*
X3120979Y-1750357D01*
X3125633Y-1744882D02*
X3125633Y-1756380D01*
X3125633Y-1744882D02*
X3130560Y-1744882D01*
X3132202Y-1745430D01*
X3132750Y-1745977D01*
X3133298Y-1747072D01*
X3133298Y-1748167D01*
X3132750Y-1749262D01*
X3132202Y-1749810D01*
X3130560Y-1750357D01*
X3125633Y-1750357D01*
X3129465Y-1750357D02*
X3133298Y-1756380D01*
X3136418Y-1748715D02*
X3135871Y-1749262D01*
X3136418Y-1749810D01*
X3136966Y-1749262D01*
X3136418Y-1748715D01*
X3136418Y-1755285D02*
X3135871Y-1755832D01*
X3136418Y-1756380D01*
X3136966Y-1755832D01*
X3136418Y-1755285D01*
X3018213Y-1687620D02*
X3017665Y-1686525D01*
X3016570Y-1685430D01*
X3015475Y-1684882D01*
X3013285Y-1684882D01*
X3012190Y-1685430D01*
X3011095Y-1686525D01*
X3010547Y-1687620D01*
X3010000Y-1689262D01*
X3010000Y-1692000D01*
X3010547Y-1693642D01*
X3011095Y-1694737D01*
X3012190Y-1695832D01*
X3013285Y-1696380D01*
X3015475Y-1696380D01*
X3016570Y-1695832D01*
X3017665Y-1694737D01*
X3018213Y-1693642D01*
X3018213Y-1692000D01*
X3015475Y-1692000D02*
X3018213Y-1692000D01*
X3027958Y-1684882D02*
X3020841Y-1684882D01*
X3020841Y-1696380D01*
X3027958Y-1696380D01*
X3020841Y-1690357D02*
X3025221Y-1690357D01*
X3029875Y-1684882D02*
X3029875Y-1696380D01*
X3029875Y-1684882D02*
X3034802Y-1684882D01*
X3036444Y-1685430D01*
X3036992Y-1685977D01*
X3037539Y-1687072D01*
X3037539Y-1688167D01*
X3036992Y-1689262D01*
X3036444Y-1689810D01*
X3034802Y-1690357D01*
X3029875Y-1690357D01*
X3033707Y-1690357D02*
X3037539Y-1696380D01*
X3040113Y-1684882D02*
X3040113Y-1696380D01*
X3040113Y-1684882D02*
X3045040Y-1684882D01*
X3046683Y-1685430D01*
X3047230Y-1685977D01*
X3047778Y-1687072D01*
X3047778Y-1688167D01*
X3047230Y-1689262D01*
X3046683Y-1689810D01*
X3045040Y-1690357D01*
X3040113Y-1690357D02*
X3045040Y-1690357D01*
X3046683Y-1690905D01*
X3047230Y-1691452D01*
X3047778Y-1692547D01*
X3047778Y-1694190D01*
X3047230Y-1695285D01*
X3046683Y-1695832D01*
X3045040Y-1696380D01*
X3040113Y-1696380D01*
X3057469Y-1684882D02*
X3050351Y-1684882D01*
X3050351Y-1696380D01*
X3057469Y-1696380D01*
X3050351Y-1690357D02*
X3054731Y-1690357D01*
X3059385Y-1684882D02*
X3059385Y-1696380D01*
X3059385Y-1684882D02*
X3064312Y-1684882D01*
X3065955Y-1685430D01*
X3066502Y-1685977D01*
X3067050Y-1687072D01*
X3067050Y-1688167D01*
X3066502Y-1689262D01*
X3065955Y-1689810D01*
X3064312Y-1690357D01*
X3059385Y-1690357D01*
X3063217Y-1690357D02*
X3067050Y-1696380D01*
X3078657Y-1684882D02*
X3078657Y-1696380D01*
X3078657Y-1684882D02*
X3085775Y-1684882D01*
X3078657Y-1690357D02*
X3083037Y-1690357D01*
X3087088Y-1684882D02*
X3087088Y-1696380D01*
X3089497Y-1684882D02*
X3089497Y-1696380D01*
X3096068Y-1696380D01*
X3104444Y-1684882D02*
X3097327Y-1684882D01*
X3097327Y-1696380D01*
X3104444Y-1696380D01*
X3097327Y-1690357D02*
X3101707Y-1690357D01*
X3106908Y-1688715D02*
X3106360Y-1689262D01*
X3106908Y-1689810D01*
X3107455Y-1689262D01*
X3106908Y-1688715D01*
X3106908Y-1695285D02*
X3106360Y-1695832D01*
X3106908Y-1696380D01*
X3107455Y-1695832D01*
X3106908Y-1695285D01*
X3397714Y-1774954D02*
X3397714Y-1774240D01*
X3398428Y-1772811D01*
X3399142Y-1772097D01*
X3400571Y-1771383D01*
X3403427Y-1771383D01*
X3404856Y-1772097D01*
X3405570Y-1772811D01*
X3406284Y-1774240D01*
X3406284Y-1775668D01*
X3405570Y-1777096D01*
X3404142Y-1779238D01*
X3397000Y-1786380D01*
X3406998Y-1786380D01*
X3418924Y-1773526D02*
X3418210Y-1772097D01*
X3416068Y-1771383D01*
X3414639Y-1771383D01*
X3412497Y-1772097D01*
X3411068Y-1774240D01*
X3410354Y-1777810D01*
X3410354Y-1781381D01*
X3411068Y-1784238D01*
X3412497Y-1785666D01*
X3414639Y-1786380D01*
X3415353Y-1786380D01*
X3417496Y-1785666D01*
X3418924Y-1784238D01*
X3419638Y-1782095D01*
X3419638Y-1781381D01*
X3418924Y-1779238D01*
X3417496Y-1777810D01*
X3415353Y-1777096D01*
X3414639Y-1777096D01*
X3412497Y-1777810D01*
X3411068Y-1779238D01*
X3410354Y-1781381D01*
X3423637Y-1784952D02*
X3422923Y-1785666D01*
X3423637Y-1786380D01*
X3424352Y-1785666D01*
X3423637Y-1784952D01*
X3431921Y-1771383D02*
X3429779Y-1772097D01*
X3428351Y-1774240D01*
X3427636Y-1777810D01*
X3427636Y-1779953D01*
X3428351Y-1783523D01*
X3429779Y-1785666D01*
X3431921Y-1786380D01*
X3433350Y-1786380D01*
X3435492Y-1785666D01*
X3436920Y-1783523D01*
X3437634Y-1779953D01*
X3437634Y-1777810D01*
X3436920Y-1774240D01*
X3435492Y-1772097D01*
X3433350Y-1771383D01*
X3431921Y-1771383D01*
X3440991Y-1774240D02*
X3442419Y-1773526D01*
X3444561Y-1771383D01*
X3444561Y-1786380D01*
X3452702Y-1784952D02*
X3451988Y-1785666D01*
X3452702Y-1786380D01*
X3453417Y-1785666D01*
X3452702Y-1784952D01*
X3457416Y-1774954D02*
X3457416Y-1774240D01*
X3458130Y-1772811D01*
X3458844Y-1772097D01*
X3460272Y-1771383D01*
X3463129Y-1771383D01*
X3464557Y-1772097D01*
X3465271Y-1772811D01*
X3465985Y-1774240D01*
X3465985Y-1775668D01*
X3465271Y-1777096D01*
X3463843Y-1779238D01*
X3456702Y-1786380D01*
X3466700Y-1786380D01*
X3474341Y-1771383D02*
X3472198Y-1772097D01*
X3470770Y-1774240D01*
X3470056Y-1777810D01*
X3470056Y-1779953D01*
X3470770Y-1783523D01*
X3472198Y-1785666D01*
X3474341Y-1786380D01*
X3475769Y-1786380D01*
X3477911Y-1785666D01*
X3479340Y-1783523D01*
X3480054Y-1779953D01*
X3480054Y-1777810D01*
X3479340Y-1774240D01*
X3477911Y-1772097D01*
X3475769Y-1771383D01*
X3474341Y-1771383D01*
X3484124Y-1774954D02*
X3484124Y-1774240D01*
X3484838Y-1772811D01*
X3485552Y-1772097D01*
X3486981Y-1771383D01*
X3489837Y-1771383D01*
X3491266Y-1772097D01*
X3491980Y-1772811D01*
X3492694Y-1774240D01*
X3492694Y-1775668D01*
X3491980Y-1777096D01*
X3490551Y-1779238D01*
X3483410Y-1786380D01*
X3493408Y-1786380D01*
X3497479Y-1774954D02*
X3497479Y-1774240D01*
X3498193Y-1772811D01*
X3498907Y-1772097D01*
X3500335Y-1771383D01*
X3503192Y-1771383D01*
X3504620Y-1772097D01*
X3505334Y-1772811D01*
X3506048Y-1774240D01*
X3506048Y-1775668D01*
X3505334Y-1777096D01*
X3503906Y-1779238D01*
X3496765Y-1786380D01*
X3506762Y-1786380D01*
X3250000Y-1601619D02*
X3254285Y-1601619D01*
X3255713Y-1601143D01*
X3256189Y-1600667D01*
X3256666Y-1599715D01*
X3256666Y-1598286D01*
X3256189Y-1597334D01*
X3255713Y-1596858D01*
X3254285Y-1596382D01*
X3250000Y-1596382D01*
X3250000Y-1606380D01*
X3266520Y-1606380D02*
X3262712Y-1596382D01*
X3258903Y-1606380D01*
X3260331Y-1603047D02*
X3265092Y-1603047D01*
X3268853Y-1596382D02*
X3268853Y-1606380D01*
X3268853Y-1596382D02*
X3273138Y-1596382D01*
X3274566Y-1596858D01*
X3275042Y-1597334D01*
X3275518Y-1598286D01*
X3275518Y-1599238D01*
X3275042Y-1600191D01*
X3274566Y-1600667D01*
X3273138Y-1601143D01*
X3268853Y-1601143D01*
X3272186Y-1601143D02*
X3275518Y-1606380D01*
X3281089Y-1596382D02*
X3281089Y-1606380D01*
X3277756Y-1596382D02*
X3284421Y-1596382D01*
X3293467Y-1596382D02*
X3293467Y-1606380D01*
X3293467Y-1596382D02*
X3300132Y-1606380D01*
X3300132Y-1596382D02*
X3300132Y-1606380D01*
X3302894Y-1596382D02*
X3302894Y-1603523D01*
X3303370Y-1604951D01*
X3304322Y-1605904D01*
X3305750Y-1606380D01*
X3306702Y-1606380D01*
X3308130Y-1605904D01*
X3309083Y-1604951D01*
X3309559Y-1603523D01*
X3309559Y-1596382D01*
X3312320Y-1596382D02*
X3312320Y-1606380D01*
X3312320Y-1596382D02*
X3316129Y-1606380D01*
X3319938Y-1596382D02*
X3316129Y-1606380D01*
X3319938Y-1596382D02*
X3319938Y-1606380D01*
X3322794Y-1596382D02*
X3322794Y-1606380D01*
X3322794Y-1596382D02*
X3327079Y-1596382D01*
X3328507Y-1596858D01*
X3328983Y-1597334D01*
X3329460Y-1598286D01*
X3329460Y-1599238D01*
X3328983Y-1600191D01*
X3328507Y-1600667D01*
X3327079Y-1601143D01*
X3322794Y-1601143D02*
X3327079Y-1601143D01*
X3328507Y-1601619D01*
X3328983Y-1602095D01*
X3329460Y-1603047D01*
X3329460Y-1604475D01*
X3328983Y-1605428D01*
X3328507Y-1605904D01*
X3327079Y-1606380D01*
X3322794Y-1606380D01*
X3337886Y-1596382D02*
X3331697Y-1596382D01*
X3331697Y-1606380D01*
X3337886Y-1606380D01*
X3331697Y-1601143D02*
X3335506Y-1601143D01*
X3339553Y-1596382D02*
X3339553Y-1606380D01*
X3339553Y-1596382D02*
X3343837Y-1596382D01*
X3345266Y-1596858D01*
X3345742Y-1597334D01*
X3346218Y-1598286D01*
X3346218Y-1599238D01*
X3345742Y-1600191D01*
X3345266Y-1600667D01*
X3343837Y-1601143D01*
X3339553Y-1601143D01*
X3342885Y-1601143D02*
X3346218Y-1606380D01*
X3348931Y-1599715D02*
X3348455Y-1600191D01*
X3348931Y-1600667D01*
X3349407Y-1600191D01*
X3348931Y-1599715D01*
X3348931Y-1605428D02*
X3348455Y-1605904D01*
X3348931Y-1606380D01*
X3349407Y-1605904D01*
X3348931Y-1605428D01*
D16*
X3477000Y-1812380D02*
X3477000Y-1806380D01*
X3538200Y-1616380D02*
X3538200Y-1616380D01*
X3427000Y-1814380D02*
X3427000Y-1804380D01*
X3425400Y-1832730D02*
X3425400Y-1820030D01*
X3450800Y-1832730D02*
X3450800Y-1820030D01*
X3476200Y-1832730D02*
X3476200Y-1820030D01*
X3501600Y-1832730D02*
X3501600Y-1820030D01*
X3527000Y-1814380D02*
X3527000Y-1804380D01*
X3527000Y-1832730D02*
X3527000Y-1820030D01*
X3240000Y-1616380D02*
X3240000Y-1586380D01*
X3425400Y-1826380D02*
X3527000Y-1826380D01*
X3427000Y-1809380D02*
X3527000Y-1809380D01*
X3240000Y-1616380D02*
X3538200Y-1616380D01*
X2720000Y-1661380D02*
X3538200Y-1661380D01*
X3392333Y-1822381D02*
X3389000Y-1827047D01*
X3393999Y-1827047D01*
X3392333Y-1822381D02*
X3392333Y-1829380D01*
X3397232Y-1822381D02*
X3396232Y-1822715D01*
X3395565Y-1823714D01*
X3395232Y-1825381D01*
X3395232Y-1826380D01*
X3395565Y-1828047D01*
X3396232Y-1829047D01*
X3397232Y-1829380D01*
X3397898Y-1829380D01*
X3398898Y-1829047D01*
X3399565Y-1828047D01*
X3399898Y-1826380D01*
X3399898Y-1825381D01*
X3399565Y-1823714D01*
X3398898Y-1822715D01*
X3397898Y-1822381D01*
X3397232Y-1822381D01*
X3403464Y-1822381D02*
X3402464Y-1822715D01*
X3401797Y-1823714D01*
X3401464Y-1825381D01*
X3401464Y-1826380D01*
X3401797Y-1828047D01*
X3402464Y-1829047D01*
X3403464Y-1829380D01*
X3404130Y-1829380D01*
X3405130Y-1829047D01*
X3405797Y-1828047D01*
X3406130Y-1826380D01*
X3406130Y-1825381D01*
X3405797Y-1823714D01*
X3405130Y-1822715D01*
X3404130Y-1822381D01*
X3403464Y-1822381D01*
X3407696Y-1824714D02*
X3407696Y-1829380D01*
X3407696Y-1826047D02*
X3408696Y-1825047D01*
X3409362Y-1824714D01*
X3410362Y-1824714D01*
X3411029Y-1825047D01*
X3411362Y-1826047D01*
X3411362Y-1829380D01*
X3411362Y-1826047D02*
X3412362Y-1825047D01*
X3413028Y-1824714D01*
X3414028Y-1824714D01*
X3414695Y-1825047D01*
X3415028Y-1826047D01*
X3415028Y-1829380D01*
X3417894Y-1822381D02*
X3418227Y-1822715D01*
X3418560Y-1822381D01*
X3418227Y-1822048D01*
X3417894Y-1822381D01*
X3418227Y-1824714D02*
X3418227Y-1829380D01*
X3419794Y-1822381D02*
X3419794Y-1829380D01*
X3390000Y-1806714D02*
X3390667Y-1806381D01*
X3391666Y-1805381D01*
X3391666Y-1812380D01*
X3397132Y-1805381D02*
X3396132Y-1805715D01*
X3395466Y-1806714D01*
X3395132Y-1808381D01*
X3395132Y-1809380D01*
X3395466Y-1811047D01*
X3396132Y-1812047D01*
X3397132Y-1812380D01*
X3397798Y-1812380D01*
X3398798Y-1812047D01*
X3399465Y-1811047D01*
X3399798Y-1809380D01*
X3399798Y-1808381D01*
X3399465Y-1806714D01*
X3398798Y-1805715D01*
X3397798Y-1805381D01*
X3397132Y-1805381D01*
X3401364Y-1807714D02*
X3401364Y-1812380D01*
X3401364Y-1809047D02*
X3402364Y-1808047D01*
X3403031Y-1807714D01*
X3404030Y-1807714D01*
X3404697Y-1808047D01*
X3405030Y-1809047D01*
X3405030Y-1812380D01*
X3405030Y-1809047D02*
X3406030Y-1808047D01*
X3406696Y-1807714D01*
X3407697Y-1807714D01*
X3408363Y-1808047D01*
X3408696Y-1809047D01*
X3408696Y-1812380D01*
X3410896Y-1807714D02*
X3410896Y-1812380D01*
X3410896Y-1809047D02*
X3411895Y-1808047D01*
X3412562Y-1807714D01*
X3413562Y-1807714D01*
X3414228Y-1808047D01*
X3414561Y-1809047D01*
X3414561Y-1812380D01*
X3414561Y-1809047D02*
X3415561Y-1808047D01*
X3416228Y-1807714D01*
X3417228Y-1807714D01*
X3417894Y-1808047D01*
X3418228Y-1809047D01*
X3418228Y-1812380D01*
D17*
X2733809Y-1770383D02*
X2733809Y-1779524D01*
X2730000Y-1772668D02*
X2737617Y-1777239D01*
X2737617Y-1772668D02*
X2730000Y-1777239D01*
X2744702Y-1770383D02*
X2744702Y-1779524D01*
X2740893Y-1772668D02*
X2748510Y-1777239D01*
X2748510Y-1772668D02*
X2740893Y-1777239D01*
X3014571Y-1770383D02*
X3012285Y-1771145D01*
X3010762Y-1773430D01*
X3010000Y-1777239D01*
X3010000Y-1779524D01*
X3010762Y-1783333D01*
X3012285Y-1785618D01*
X3014571Y-1786380D01*
X3016094Y-1786380D01*
X3018379Y-1785618D01*
X3019903Y-1783333D01*
X3020664Y-1779524D01*
X3020664Y-1777239D01*
X3019903Y-1773430D01*
X3018379Y-1771145D01*
X3016094Y-1770383D01*
X3014571Y-1770383D01*
X3031862Y-1770383D02*
X3024245Y-1781048D01*
X3035671Y-1781048D01*
X3031862Y-1770383D02*
X3031862Y-1786380D01*
X3038489Y-1779524D02*
X3052201Y-1779524D01*
X3060732Y-1770383D02*
X3060732Y-1779524D01*
X3056924Y-1772668D02*
X3064541Y-1777239D01*
X3064541Y-1772668D02*
X3056924Y-1777239D01*
X3071625Y-1770383D02*
X3071625Y-1779524D01*
X3067816Y-1772668D02*
X3075434Y-1777239D01*
X3075434Y-1772668D02*
X3067816Y-1777239D01*
D18*
X2735951Y-1626385D02*
X2735951Y-1640668D01*
X2730000Y-1629956D02*
X2741902Y-1637097D01*
X2741902Y-1629956D02*
X2730000Y-1637097D01*
X2752971Y-1626385D02*
X2752971Y-1640668D01*
X2747020Y-1629956D02*
X2758922Y-1637097D01*
X2758922Y-1629956D02*
X2747020Y-1637097D01*
M02*
