M48
;Layer_Color=9474304
;FILE_FORMAT=2:5
INCH,LZ
;TYPE=PLATED
T1F00S00C0.01968
T2F00S00C0.02756
T3F00S00C0.03937
T4F00S00C0.04331
T5F00S00C0.05118
T6F00S00C0.12598
%
T01
X0055905Y-0154331
X0044586Y-0129874
X0055118Y-0104724
X0061975Y-0129796
X0073779Y-0146186
X0088967Y-0160095
X0087178Y-012394
X0111617Y-0119097
X0119301Y-0123711
X0119505Y-0129599
X0119301Y-0135453
X0134066Y-0115169
X0142526Y-0102
X0154135Y-0101942
X0168057Y-0105712
X0173556Y-0105805
X0178315Y-0102847
X0185574Y-0110136
X0183903Y-0086105
X0176174Y-0085391
X0190551Y-0088189
X0182677Y-0067716
X0192126Y-0046457
X0200159Y-0039211
X0181376Y-003505
X0144882Y-0054331
X0128776Y-0052911
X0117932Y-0052954
X0120151Y-0070866
X0125984Y-0070866
X0140696Y-0069093
X0151181Y-0074803
X0139594Y-0087402
X0128275Y-0097767
X0120923Y-0097526
X0112811Y-0085825
X0113012Y-0080859
X0104724Y-006931
X0087527Y-006621
Y-0073297
Y-0080383
X008044
Y-0073297
Y-006621
Y-0059123
X0087527
Y-0052037
X008044
X0131496Y-0041732
X0153852Y-0162541
X0160955
X0209936Y-012824
X020997Y-0121676
X0210105Y-0114537
X0211811Y-0108661
X0238583Y-0097638
X0225197Y-0141732
X0218728Y-0142019
X0216535Y-0061417
X0205293Y-0025227
X0206102Y-001324
X0179646Y-0020656
X0138385Y-0012651
X0119685Y-0030709
T02
X0147894Y-0143
X0167106
T03
X02505Y-0077852
Y-0067852
Y-0057852
Y-0047852
T04
X0191262Y-0177104
X0201262
X0211262
Y-0167104
X0201262
X0191262
T05
X0034Y-0157863
Y-0147863
Y-01345
Y-01245
X00325Y-0069
Y-0059
X0246456Y-011848
Y-012848
X0246346Y-0141843
Y-0151844
X0148363Y-00225
X0138363
X0125
X0115
T06
X0019685Y-0177165
X0244Y-0179
X0248Y-0016
X0019685Y-0019685
M30
